<svg width="339" height="252" viewBox="0 0 339 252" fill="none" xmlns="http://www.w3.org/2000/svg">
<rect width="339" height="252" fill="#F5F5F5"/>
<rect width="1440" height="2825" transform="translate(-956 -142)" fill="white"/>
<rect x="-956" y="-27" width="1440" height="307" fill="#D7D7FF"/>
<path d="M-40.0278 249.613C-7.32188 252.695 -7.63608 219.307 -15.4596 201.617C-23.1673 184.189 -39.5299 167.873 -63.144 178.317C-123.888 205.181 -96.1899 244.371 -40.0278 249.613Z" fill="url(#paint0_linear_0_1)" fill-opacity="0.25"/>
<path d="M338.105 221.391H0V221.56H338.105V221.391Z" fill="#EBEBEB"/>
<path d="M77.9873 227.829H61.1699V227.998H77.9873V227.829Z" fill="#EBEBEB"/>
<path d="M121.603 225.996H103.007V226.165H121.603V225.996Z" fill="#EBEBEB"/>
<path d="M71.5294 234.111H32.2349V234.28H71.5294V234.111Z" fill="#EBEBEB"/>
<path d="M304.227 232.975H289.621V233.144H304.227V232.975Z" fill="#EBEBEB"/>
<path d="M164.13 227.301H145.243V227.47H164.13V227.301Z" fill="#EBEBEB"/>
<path d="M250.799 230.121H203.316V230.29H250.799V230.121Z" fill="#EBEBEB"/>
<path d="M160.262 191.232H29.6923C28.6694 191.23 27.6891 190.823 26.9664 190.099C26.2438 189.375 25.8379 188.394 25.8379 187.371V3.82735C25.8468 2.81035 26.2566 1.83792 26.9783 1.1213C27.7 0.404684 28.6752 0.00174218 29.6923 0H160.262C161.286 0 162.268 0.4068 162.992 1.13091C163.716 1.85502 164.123 2.83712 164.123 3.86116V187.371C164.123 188.395 163.716 189.377 162.992 190.101C162.268 190.825 161.286 191.232 160.262 191.232ZM29.6923 0.135243C28.7143 0.137034 27.7769 0.526812 27.0859 1.21902C26.395 1.91123 26.0069 2.84931 26.0069 3.82735V187.371C26.0069 188.349 26.395 189.287 27.0859 189.979C27.7769 190.672 28.7143 191.061 29.6923 191.063H160.262C161.24 191.061 162.178 190.672 162.87 189.98C163.562 189.288 163.952 188.35 163.954 187.371V3.82735C163.952 2.84869 163.562 1.91063 162.87 1.21861C162.178 0.526592 161.24 0.13703 160.262 0.135243H29.6923Z" fill="#EBEBEB"/>
<path d="M306.533 191.232H175.957C174.933 191.23 173.952 190.823 173.229 190.099C172.505 189.376 172.097 188.395 172.096 187.371V3.82735C172.106 2.80973 172.518 1.83732 173.24 1.12088C173.963 0.404447 174.939 0.00172318 175.957 0H306.533C307.549 0.00351933 308.522 0.407247 309.243 1.12368C309.963 1.84011 310.372 2.81151 310.381 3.82735V187.371C310.381 188.393 309.976 189.373 309.255 190.097C308.533 190.82 307.555 191.229 306.533 191.232ZM175.957 0.135243C174.978 0.13703 174.04 0.526592 173.348 1.21861C172.656 1.91063 172.267 2.84869 172.265 3.82735V187.371C172.267 188.35 172.656 189.288 173.348 189.98C174.04 190.672 174.978 191.061 175.957 191.063H306.533C307.512 191.061 308.45 190.672 309.142 189.98C309.834 189.288 310.223 188.35 310.225 187.371V3.82735C310.223 2.84869 309.834 1.91063 309.142 1.21861C308.45 0.526592 307.512 0.13703 306.533 0.135243H175.957Z" fill="#EBEBEB"/>
<path d="M217.077 6.50537H21.5371C18.3253 6.50537 15.7217 9.10902 15.7217 12.3208V132.747C15.7217 135.959 18.3253 138.562 21.5371 138.562H217.077C220.289 138.562 222.892 135.959 222.892 132.747V12.3208C222.892 9.10902 220.289 6.50537 217.077 6.50537Z" fill="#EBEBEB"/>
<path d="M222.892 13.186H15.7217V119.635H222.892V13.186Z" fill="#FAFAFA"/>
<path d="M156.387 53.5151C156.391 52.198 156.916 50.9359 157.847 50.0046C158.778 49.0733 160.04 48.5485 161.357 48.5449H316.209C317.527 48.5485 318.789 49.0733 319.72 50.0046C320.651 50.9359 321.176 52.198 321.18 53.5151V69.5142H156.387V53.5151Z" fill="#E6E6E6"/>
<path d="M196.581 62.7929C198.657 62.7929 200.341 61.1096 200.341 59.0332C200.341 56.9567 198.657 55.2734 196.581 55.2734C194.505 55.2734 192.821 56.9567 192.821 59.0332C192.821 61.1096 194.505 62.7929 196.581 62.7929Z" fill="white"/>
<path d="M183.26 62.7929C185.336 62.7929 187.019 61.1096 187.019 59.0332C187.019 56.9567 185.336 55.2734 183.26 55.2734C181.183 55.2734 179.5 56.9567 179.5 59.0332C179.5 61.1096 181.183 62.7929 183.26 62.7929Z" fill="white"/>
<path d="M169.945 62.7929C172.022 62.7929 173.705 61.1096 173.705 59.0332C173.705 56.9567 172.022 55.2734 169.945 55.2734C167.869 55.2734 166.186 56.9567 166.186 59.0332C166.186 61.1096 167.869 62.7929 169.945 62.7929Z" fill="white"/>
<path d="M316.189 155.664H161.337C160.02 155.66 158.758 155.135 157.826 154.204C156.895 153.273 156.37 152.011 156.367 150.694V69.5483H321.159V150.694C321.156 152.011 320.631 153.273 319.699 154.204C318.768 155.135 317.506 155.66 316.189 155.664Z" fill="#F5F5F5"/>
<path d="M134.262 81.1928C134.265 79.8757 134.79 78.6136 135.721 77.6823C136.653 76.751 137.915 76.2262 139.232 76.2227H294.084C295.401 76.2262 296.663 76.751 297.594 77.6823C298.526 78.6136 299.051 79.8757 299.054 81.1928V97.1919H134.262V81.1928Z" fill="#F0F0F0"/>
<path d="M174.449 90.4701C176.525 90.4701 178.208 88.7869 178.208 86.7104C178.208 84.634 176.525 82.9507 174.449 82.9507C172.372 82.9507 170.689 84.634 170.689 86.7104C170.689 88.7869 172.372 90.4701 174.449 90.4701Z" fill="#E6E6E6"/>
<path d="M161.127 90.4701C163.204 90.4701 164.887 88.7869 164.887 86.7104C164.887 84.634 163.204 82.9507 161.127 82.9507C159.051 82.9507 157.368 84.634 157.368 86.7104C157.368 88.7869 159.051 90.4701 161.127 90.4701Z" fill="#E6E6E6"/>
<path d="M147.813 90.4701C149.889 90.4701 151.573 88.7869 151.573 86.7104C151.573 84.634 149.889 82.9507 147.813 82.9507C145.737 82.9507 144.053 84.634 144.053 86.7104C144.053 88.7869 145.737 90.4701 147.813 90.4701Z" fill="#E6E6E6"/>
<path d="M294.057 183.341H139.205C137.887 183.337 136.625 182.813 135.694 181.881C134.763 180.95 134.238 179.688 134.234 178.371V97.2256H299.027V178.371C299.023 179.688 298.498 180.95 297.567 181.881C296.636 182.813 295.374 183.337 294.057 183.341Z" fill="#FAFAFA"/>
<path d="M112.129 108.87C112.133 107.553 112.658 106.291 113.589 105.36C114.52 104.428 115.782 103.903 117.1 103.9H271.952C273.269 103.903 274.531 104.428 275.462 105.36C276.393 106.291 276.918 107.553 276.922 108.87V124.869H112.129V108.87Z" fill="#FAFAFA"/>
<path d="M152.316 118.147C154.393 118.147 156.076 116.464 156.076 114.388C156.076 112.311 154.393 110.628 152.316 110.628C150.24 110.628 148.557 112.311 148.557 114.388C148.557 116.464 150.24 118.147 152.316 118.147Z" fill="#F0F0F0"/>
<path d="M138.995 118.147C141.072 118.147 142.755 116.464 142.755 114.388C142.755 112.311 141.072 110.628 138.995 110.628C136.919 110.628 135.235 112.311 135.235 114.388C135.235 116.464 136.919 118.147 138.995 118.147Z" fill="#F0F0F0"/>
<path d="M125.681 118.147C127.757 118.147 129.44 116.464 129.44 114.388C129.44 112.311 127.757 110.628 125.681 110.628C123.604 110.628 121.921 112.311 121.921 114.388C121.921 116.464 123.604 118.147 125.681 118.147Z" fill="#F0F0F0"/>
<path d="M271.924 211.018H117.072C115.755 211.015 114.493 210.49 113.562 209.559C112.63 208.627 112.106 207.365 112.102 206.048V124.903H276.894V206.048C276.891 207.365 276.366 208.627 275.435 209.559C274.504 210.49 273.241 211.015 271.924 211.018Z" fill="#E6E6E6"/>
<path d="M169.053 251.929C241.463 251.929 300.163 248.502 300.163 244.274C300.163 240.047 241.463 236.62 169.053 236.62C96.6425 236.62 37.9424 240.047 37.9424 244.274C37.9424 248.502 96.6425 251.929 169.053 251.929Z" fill="#F5F5F5"/>
<path d="M129.264 18.5957H123.293V19.2719H129.264V18.5957Z" fill="#407BFF"/>
<path d="M116.2 18.5957H101.547V19.2719H116.2V18.5957Z" fill="#407BFF"/>
<path d="M61.0823 20.9624H277.023C279.175 20.9624 281.239 21.8173 282.761 23.3391C284.283 24.8609 285.138 26.9248 285.138 29.0769V215.522H52.9678V29.0769C52.9678 26.9248 53.8227 24.8609 55.3445 23.3391C56.8662 21.8173 58.9302 20.9624 61.0823 20.9624Z" fill="#407BFF"/>
<path opacity="0.8" d="M285.131 33.1343H52.9678V212.371H285.131V33.1343Z" fill="white"/>
<path opacity="0.4" d="M285.131 33.1343H52.9678V72.537H285.131V33.1343Z" fill="#407BFF"/>
<path opacity="0.4" d="M280.343 36.9009H270.653V46.591H280.343V36.9009Z" fill="#407BFF"/>
<path opacity="0.4" d="M265.967 36.9009H256.277V46.591H265.967V36.9009Z" fill="#407BFF"/>
<path opacity="0.4" d="M251.591 36.9009H241.901V46.591H251.591V36.9009Z" fill="#407BFF"/>
<path opacity="0.4" d="M96.8942 205.906H87.2041V206.88H96.8942V205.906Z" fill="#407BFF"/>
<path opacity="0.4" d="M82.5182 205.906H72.8281V206.88H82.5182V205.906Z" fill="#407BFF"/>
<path opacity="0.4" d="M68.1417 205.906H58.4517V206.88H68.1417V205.906Z" fill="#407BFF"/>
<path d="M145.852 55.5843H142.897L142.485 56.9773H139.827L142.992 48.5449H145.839L149.003 56.9773H146.298L145.852 55.5843ZM145.311 53.7653L144.385 50.7156L143.458 53.7517L145.311 53.7653Z" fill="white"/>
<path d="M149.686 48.5449H152.053V51.4661C152.274 51.2287 152.544 51.0419 152.844 50.9184C153.158 50.7916 153.493 50.7273 153.831 50.7291C154.179 50.7211 154.524 50.7889 154.843 50.9279C155.162 51.0668 155.446 51.2736 155.677 51.5338C156.203 52.1829 156.463 53.0065 156.408 53.8396C156.42 54.4423 156.308 55.0411 156.076 55.5978C155.886 56.0615 155.564 56.459 155.15 56.7406C154.76 56.9893 154.307 57.1186 153.845 57.1125C153.453 57.1169 153.065 57.0264 152.715 56.8488C152.386 56.6487 152.101 56.3842 151.877 56.0711V56.9773H149.686V48.5449ZM152.032 53.9073C152 54.3109 152.105 54.7137 152.33 55.0501C152.42 55.1618 152.535 55.2515 152.665 55.3124C152.795 55.3733 152.937 55.4038 153.081 55.4017C153.213 55.3986 153.342 55.3653 153.46 55.3043C153.577 55.2434 153.678 55.1564 153.757 55.0501C153.978 54.7022 154.078 54.2908 154.041 53.8802C154.069 53.5053 153.971 53.1318 153.764 52.8186C153.684 52.7144 153.582 52.6297 153.465 52.5711C153.347 52.5125 153.218 52.4815 153.087 52.4805C152.939 52.4752 152.792 52.5041 152.657 52.5651C152.522 52.6261 152.403 52.7175 152.31 52.8321C152.093 53.1465 151.995 53.5274 152.032 53.9073Z" fill="white"/>
<path d="M157.24 53.9411C157.227 53.512 157.305 53.085 157.468 52.6878C157.631 52.2906 157.876 51.932 158.186 51.6353C158.53 51.3216 158.932 51.0789 159.369 50.921C159.807 50.7632 160.271 50.6934 160.736 50.7156C161.247 50.6797 161.76 50.7568 162.238 50.9415C162.716 51.1261 163.147 51.4138 163.501 51.784C164.02 52.4127 164.289 53.2108 164.257 54.0254C164.225 54.8401 163.893 55.6142 163.325 56.1997C162.974 56.5128 162.565 56.7535 162.12 56.9079C161.676 57.0622 161.205 57.1272 160.736 57.099C159.879 57.1375 159.037 56.8743 158.355 56.3552C157.996 56.0655 157.709 55.6971 157.516 55.2784C157.322 54.8598 157.228 54.4022 157.24 53.9411ZM159.586 53.9411C159.554 54.3707 159.671 54.7982 159.917 55.1516C160.02 55.2715 160.148 55.3678 160.291 55.4339C160.435 55.4999 160.591 55.5341 160.749 55.5341C160.907 55.5341 161.063 55.4999 161.207 55.4339C161.35 55.3678 161.478 55.2715 161.581 55.1516C161.828 54.7887 161.943 54.3516 161.905 53.9141C161.945 53.5023 161.843 53.0894 161.615 52.7442C161.517 52.6231 161.393 52.5256 161.253 52.4589C161.112 52.3921 160.959 52.3579 160.803 52.3588C160.642 52.3546 160.481 52.3878 160.335 52.4558C160.188 52.5239 160.059 52.6249 159.958 52.751C159.699 53.0897 159.567 53.5085 159.586 53.9344V53.9411Z" fill="white"/>
<path d="M171.819 56.9773H169.634V55.99C169.37 56.3445 169.033 56.6394 168.647 56.8556C168.266 57.0402 167.846 57.1284 167.423 57.1125C167.145 57.1284 166.866 57.0855 166.605 56.9864C166.344 56.8874 166.107 56.7345 165.909 56.5377C165.505 56.0371 165.309 55.4004 165.361 54.7593V50.8711H167.7V54.2521C167.672 54.541 167.746 54.8307 167.91 55.0704C167.986 55.153 168.08 55.2177 168.184 55.2598C168.288 55.3019 168.4 55.3204 168.512 55.3138C168.642 55.3154 168.771 55.2869 168.888 55.2306C169.005 55.1743 169.108 55.0917 169.188 54.9892C169.406 54.6451 169.501 54.2378 169.459 53.8329V50.8981H171.798L171.819 56.9773Z" fill="white"/>
<path d="M176.065 48.5449V50.8711H177.35V52.5819H176.065V54.7728C176.048 54.9498 176.074 55.1282 176.139 55.2935C176.182 55.3591 176.241 55.4115 176.312 55.445C176.382 55.4784 176.461 55.4915 176.538 55.4828C176.786 55.4697 177.03 55.4196 177.262 55.3341L177.438 56.9502C176.905 57.072 176.361 57.1355 175.815 57.1396C175.375 57.1673 174.935 57.0909 174.53 56.9164C174.253 56.7693 174.035 56.5302 173.915 56.2402C173.756 55.7635 173.689 55.2609 173.719 54.7593V52.6089H172.853V50.8981H173.719V49.7756L176.065 48.5449Z" fill="white"/>
<path d="M188.034 48.5451H190.631V53.5694C190.635 54.0501 190.557 54.528 190.401 54.9826C190.248 55.4183 189.998 55.8136 189.67 56.139C189.374 56.4348 189.02 56.6651 188.629 56.8152C188.041 57.0115 187.423 57.1053 186.803 57.0924C186.351 57.0914 185.899 57.062 185.451 57.0045C185.03 56.9666 184.62 56.852 184.24 56.6664C183.895 56.4851 183.589 56.2369 183.341 55.9361C183.09 55.6565 182.901 55.3269 182.786 54.9691C182.639 54.5075 182.559 54.0268 182.55 53.5423V48.5181H185.146V53.664C185.135 53.8594 185.163 54.055 185.228 54.2395C185.293 54.4241 185.394 54.5939 185.525 54.7392C185.667 54.872 185.834 54.9746 186.016 55.0409C186.199 55.1071 186.393 55.1356 186.587 55.1246C186.779 55.1376 186.972 55.1107 187.154 55.0455C187.335 54.9803 187.501 54.8784 187.642 54.746C187.776 54.601 187.879 54.4304 187.945 54.2445C188.011 54.0585 188.039 53.8611 188.027 53.664L188.034 48.5451Z" fill="white"/>
<path d="M191.787 55.2799L194.113 55.0635C194.179 55.2976 194.319 55.5041 194.512 55.6518C194.714 55.7791 194.95 55.8427 195.188 55.8344C195.448 55.8518 195.705 55.7802 195.919 55.6315C195.981 55.5912 196.032 55.5361 196.067 55.4711C196.103 55.4062 196.121 55.3335 196.122 55.2596C196.12 55.1757 196.095 55.0939 196.048 55.0243C196.001 54.9547 195.935 54.9001 195.858 54.8674C195.531 54.7514 195.194 54.6698 194.85 54.6239C194.277 54.541 193.711 54.4098 193.16 54.2317C192.841 54.1087 192.565 53.8976 192.362 53.6232C192.142 53.3414 192.025 52.9931 192.031 52.6359C192.025 52.2607 192.149 51.8951 192.382 51.6013C192.636 51.2912 192.971 51.0572 193.349 50.9251C193.884 50.7646 194.441 50.6915 194.999 50.7087C195.543 50.6896 196.087 50.7465 196.615 50.8777C196.942 50.9787 197.239 51.1573 197.481 51.3984C197.738 51.6703 197.936 51.9927 198.062 52.3451L195.838 52.5615C195.798 52.3879 195.697 52.2343 195.554 52.1287C195.352 52.0006 195.116 51.937 194.877 51.9462C194.675 51.9298 194.474 51.9797 194.303 52.0882C194.247 52.1269 194.201 52.1785 194.17 52.2385C194.138 52.2984 194.121 52.3651 194.12 52.433C194.12 52.5059 194.142 52.577 194.183 52.6373C194.224 52.6975 194.282 52.7441 194.35 52.7711C194.673 52.8828 195.01 52.951 195.351 52.974C195.944 53.019 196.529 53.1441 197.089 53.3459C197.439 53.4811 197.743 53.7162 197.961 54.0221C198.156 54.3042 198.26 54.6394 198.258 54.9823C198.253 55.3483 198.143 55.7052 197.941 56.0102C197.692 56.3709 197.341 56.6488 196.933 56.8081C196.334 57.0266 195.697 57.1254 195.06 57.0989C194.238 57.1651 193.414 57.0012 192.68 56.6255C192.219 56.31 191.899 55.8273 191.787 55.2799Z" fill="white"/>
<path d="M100.877 148.847C119.55 148.847 134.688 133.71 134.688 115.037C134.688 96.3636 119.55 81.2261 100.877 81.2261C82.2044 81.2261 67.0669 96.3636 67.0669 115.037C67.0669 133.71 82.2044 148.847 100.877 148.847Z" fill="#407BFF"/>
<path d="M123.527 137.685C136.037 125.176 136.037 104.894 123.527 92.3851C111.018 79.8758 90.7365 79.8758 78.2272 92.3851C65.7179 104.894 65.7179 125.176 78.2272 137.685C90.7366 150.195 111.018 150.195 123.527 137.685Z" fill="white"/>
<mask id="mask0_0_1" style="mask-type:luminance" maskUnits="userSpaceOnUse" x="68" y="83" width="65" height="65">
<path d="M123.527 137.685C136.037 125.176 136.037 104.894 123.527 92.3851C111.018 79.8758 90.7365 79.8758 78.2272 92.3851C65.7179 104.894 65.7179 125.176 78.2272 137.685C90.7366 150.195 111.018 150.195 123.527 137.685Z" fill="white"/>
</mask>
<g mask="url(#mask0_0_1)">
<path d="M102.514 121.718L105.219 116.092C105.219 116.092 119.338 120.555 121.448 121.589C121.393 118.059 123.192 111.446 123.388 107.822C123.922 107.314 125.214 106.036 125.883 106.084C127.912 110.817 127.473 127.046 123.483 127.337C117.106 127.743 102.514 121.718 102.514 121.718Z" fill="#B55B52"/>
<path d="M100.755 120.839C102.385 124.659 115.767 128.061 115.767 128.061L118.472 119.838C118.472 119.838 113.373 115.97 108.079 114.719C102.662 113.427 98.9566 116.646 100.755 120.839Z" fill="#407BFF"/>
<path opacity="0.2" d="M100.992 121.285C102.581 123.685 108.491 125.863 112.339 127.073C109.776 122.096 106.321 119.351 100.992 121.285Z" fill="black"/>
<path d="M123.375 108.538L121.218 105.773L125.207 103.548C125.993 104.735 126.396 106.134 126.364 107.558L123.375 108.538Z" fill="#B55B52"/>
<path d="M120.629 101.945L124.518 101.316L125.207 103.548L121.218 105.773L120.629 101.945Z" fill="#B55B52"/>
<path d="M108.404 114.996C108.404 114.996 113.854 128.115 109.58 152.56H88.2797C88.0295 148.989 89.8485 131.597 85.9941 114.773C88.5551 114.274 91.146 113.944 93.7503 113.786C97.0407 113.596 100.339 113.596 103.63 113.786C107.078 114.103 108.404 114.996 108.404 114.996Z" fill="#407BFF"/>
<path opacity="0.2" d="M91.1401 118.918C91.5999 121.691 90.8899 128.311 88.4353 135.959C88.3136 129.405 87.6166 122.875 86.3525 116.443C87.9078 116.254 90.7073 116.308 91.1401 118.918Z" fill="black"/>
<path d="M94.8117 104.549C95.4879 107.727 95.9206 111.669 93.75 113.786C93.75 113.786 95.1024 117.011 101.013 117.011C106.422 117.011 103.629 113.786 103.629 113.786C100.066 112.941 100.14 108.559 100.701 106.084L94.8117 104.549Z" fill="#B55B52"/>
<path d="M101.29 116.754L102.575 118.174C102.618 118.223 102.648 118.283 102.663 118.346C102.677 118.41 102.675 118.477 102.656 118.539L102.243 119.79C102.22 119.859 102.177 119.919 102.119 119.963C102.061 120.006 101.991 120.031 101.919 120.034L100.566 120.102C100.501 120.106 100.436 120.092 100.378 120.062C100.319 120.033 100.27 119.988 100.235 119.932L99.4034 118.722C99.3545 118.657 99.3281 118.577 99.3281 118.496C99.3281 118.414 99.3545 118.334 99.4034 118.269L100.756 116.754C100.827 116.684 100.923 116.644 101.023 116.644C101.123 116.644 101.219 116.684 101.29 116.754Z" fill="white"/>
<path d="M101.012 116.443C100.357 117.541 99.9933 118.789 99.9574 120.068C99.9574 120.068 92.5191 117.458 92.7422 113.63C92.7422 113.63 93.7768 113.008 94.4328 112.501C94.4328 112.501 94.7438 114.915 101.012 116.443Z" fill="#263238"/>
<path d="M101.013 116.443C101.715 117.472 102.23 118.617 102.534 119.824C102.534 119.824 105.834 117.552 104.732 113.772C104.112 113.524 103.475 113.323 102.825 113.17C102.825 113.17 103.325 115.632 101.013 116.443Z" fill="#263238"/>
<path d="M101.615 119.838C101.615 119.838 103.731 135.391 103.778 138.095C103.75 140.656 103.346 143.198 102.582 145.642C102.582 145.642 101.128 142.89 100.878 137.981C100.627 133.071 100.932 122.59 100.823 119.831L101.615 119.838Z" fill="white"/>
<path opacity="0.2" d="M100.701 106.091C100.266 107.811 100.317 109.618 100.85 111.311C100.3 111.226 99.7646 111.062 99.2611 110.824C97.2324 109.877 96.2114 108.396 95.1362 106.199C95.0415 105.631 94.9333 105.083 94.8184 104.549L100.701 106.091Z" fill="black"/>
<path d="M106.307 103.859C106.067 104.333 105.733 104.754 105.327 105.097C104.92 105.44 104.449 105.697 103.94 105.854C102.588 106.253 101.851 105.015 102.189 103.696C102.5 102.506 103.541 100.87 104.962 101.039C105.266 101.085 105.555 101.205 105.803 101.389C106.051 101.572 106.25 101.814 106.382 102.092C106.515 102.37 106.578 102.677 106.565 102.985C106.552 103.293 106.463 103.593 106.307 103.859Z" fill="#B55B52"/>
<path opacity="0.2" d="M106.307 103.859C106.067 104.333 105.733 104.754 105.327 105.097C104.92 105.44 104.449 105.697 103.94 105.854C102.588 106.253 101.851 105.015 102.189 103.696C102.5 102.506 103.541 100.87 104.962 101.039C105.266 101.085 105.555 101.205 105.803 101.389C106.051 101.572 106.25 101.814 106.382 102.092C106.515 102.37 106.578 102.677 106.565 102.985C106.552 103.293 106.463 103.593 106.307 103.859Z" fill="black"/>
<path d="M102.385 101.107C103.737 102.344 106.206 95.5549 103.44 93.6683C100.674 91.7817 99.7072 94.3445 99.7546 95.9066C99.8019 97.4686 100.343 99.2741 102.385 101.107Z" fill="#263238"/>
<path d="M93.1483 99.9637C93.784 104.264 93.9395 106.814 96.286 108.89C99.809 112.007 104.901 109.667 105.543 105.285C106.125 101.336 104.989 94.9598 100.668 93.5194C99.7216 93.1979 98.7079 93.1282 97.7266 93.3174C96.7453 93.5066 95.8302 93.9481 95.0714 94.5985C94.3126 95.2488 93.7362 96.0855 93.399 97.0263C93.0618 97.9671 92.9754 98.9794 93.1483 99.9637Z" fill="#B55B52"/>
<path d="M92.8778 103.615C93.6217 104.095 94.6427 105.394 96.1777 103.095C96.1777 102.5 94.6698 101.499 94.5548 100.092C94.4196 98.4559 94.0612 96.7112 92.7358 96.1365C89.7132 94.784 89.1587 97.3807 89.4562 98.936C89.7537 100.491 90.572 102.107 92.8778 103.615Z" fill="#263238"/>
<path d="M92.4721 97.6513C99.6061 96.5423 103.819 96.2989 105.962 93.6279C108.106 90.9568 104.813 87.6502 101.229 87.2715C100.972 88.6645 97.3408 92.3295 91.7621 93.9186C91.4515 94.004 91.1721 94.1771 90.9573 94.4171C90.7425 94.6571 90.6013 94.9539 90.5506 95.272C90.5 95.59 90.542 95.916 90.6717 96.2108C90.8014 96.5057 91.0133 96.7569 91.282 96.9345C91.9649 97.3741 92.4721 97.6513 92.4721 97.6513Z" fill="#263238"/>
<path d="M91.6403 104.86C92.2901 105.743 93.2622 106.333 94.3451 106.503C95.7584 106.719 96.2656 105.401 95.6976 104.143C95.1904 103.007 93.8447 101.533 92.5058 101.891C91.1669 102.25 90.8491 103.771 91.6403 104.86Z" fill="#B55B52"/>
<path d="M99.714 100.755C99.714 101.107 99.9574 101.384 100.181 101.364C100.404 101.344 100.566 101.053 100.539 100.688C100.512 100.323 100.302 100.066 100.072 100.079C99.8425 100.093 99.6869 100.377 99.714 100.755Z" fill="#263238"/>
<path d="M103.636 100.464C103.67 100.816 103.88 101.087 104.103 101.073C104.326 101.059 104.488 100.762 104.461 100.397C104.434 100.032 104.218 99.7679 103.995 99.7882C103.771 99.8085 103.609 100.113 103.636 100.464Z" fill="#263238"/>
<path d="M102.406 100.755C102.913 101.803 103.559 102.779 104.326 103.656C104.103 103.843 103.841 103.979 103.559 104.053C103.278 104.126 102.983 104.136 102.697 104.082L102.406 100.755Z" fill="#A02724"/>
<path d="M101.77 105.09C101.783 105.089 101.796 105.085 101.807 105.079C101.819 105.073 101.829 105.065 101.837 105.055C101.846 105.045 101.852 105.033 101.855 105.02C101.859 105.008 101.859 104.994 101.858 104.981C101.857 104.968 101.853 104.955 101.847 104.943C101.841 104.931 101.833 104.92 101.823 104.912C101.813 104.903 101.801 104.896 101.789 104.892C101.776 104.888 101.763 104.886 101.749 104.887C101.314 104.923 100.876 104.858 100.471 104.694C100.066 104.531 99.7047 104.275 99.4165 103.947C99.4085 103.936 99.3985 103.927 99.387 103.92C99.3755 103.914 99.3629 103.909 99.3497 103.907C99.3365 103.905 99.323 103.906 99.3101 103.909C99.2972 103.913 99.2851 103.919 99.2745 103.927C99.2638 103.935 99.2548 103.945 99.248 103.956C99.2413 103.967 99.2368 103.98 99.2349 103.993C99.233 104.007 99.2338 104.02 99.2371 104.033C99.2404 104.046 99.2462 104.058 99.2542 104.069C99.561 104.428 99.9496 104.708 100.387 104.886C100.825 105.064 101.299 105.133 101.77 105.09Z" fill="#263238"/>
<path d="M98.4225 99.5245C98.4537 99.5238 98.4842 99.5154 98.5113 99.5001C98.5384 99.4848 98.5614 99.463 98.578 99.4366C98.7069 99.2153 98.8873 99.0284 99.1039 98.8918C99.3206 98.7552 99.567 98.673 99.8223 98.6522C99.8492 98.6532 99.876 98.6486 99.901 98.6387C99.926 98.6289 99.9488 98.6139 99.9678 98.5949C99.9868 98.5759 100.002 98.5531 100.012 98.5281C100.021 98.5031 100.026 98.4763 100.025 98.4494C100.025 98.3938 100.003 98.3405 99.9637 98.3011C99.9244 98.2618 99.8711 98.2397 99.8155 98.2397C99.4926 98.2585 99.1793 98.3565 98.9033 98.5252C98.6273 98.6938 98.3971 98.9279 98.2332 99.2067C98.2185 99.2297 98.2086 99.2553 98.204 99.2822C98.1995 99.3091 98.2004 99.3366 98.2067 99.3631C98.213 99.3896 98.2246 99.4146 98.2408 99.4365C98.2569 99.4584 98.2773 99.4769 98.3008 99.4907C98.3178 99.5042 98.3373 99.5142 98.3582 99.52C98.3791 99.5258 98.401 99.5273 98.4225 99.5245Z" fill="#263238"/>
<path d="M105.28 98.9362L105.361 98.9023C105.384 98.8874 105.404 98.8678 105.419 98.8448C105.435 98.8218 105.446 98.7959 105.451 98.7687C105.456 98.7414 105.455 98.7134 105.449 98.6864C105.443 98.6594 105.431 98.6339 105.415 98.6116C105.24 98.3344 105.001 98.1028 104.719 97.9359C104.437 97.7689 104.119 97.6714 103.792 97.6514C103.765 97.6514 103.738 97.6568 103.713 97.6674C103.688 97.678 103.665 97.6936 103.646 97.7132C103.627 97.7327 103.612 97.7559 103.602 97.7813C103.593 97.8067 103.588 97.8338 103.589 97.861C103.591 97.9154 103.614 97.967 103.653 98.0049C103.692 98.0427 103.744 98.0639 103.799 98.0639C104.058 98.0831 104.309 98.1636 104.531 98.2988C104.753 98.434 104.94 98.62 105.077 98.8415C105.1 98.8733 105.13 98.8986 105.166 98.9152C105.201 98.9318 105.24 98.939 105.28 98.9362Z" fill="#263238"/>
<path d="M83.546 120.541L89.0233 123.76C89.0233 123.76 82.1124 137.284 82.863 139.394C83.8841 142.234 85.4326 148.475 87.2449 151.566C87.069 152.242 86.0547 153.885 85.4597 154.189C81.1049 151.268 76.3376 141.7 76.3511 138.968C76.412 132.767 83.546 120.541 83.546 120.541Z" fill="#B55B52"/>
<path d="M85.9941 114.773C81.8962 115.368 77.5347 129.65 77.5347 129.65L87.2315 132.74C88.96 129.497 90.4581 126.137 91.7148 122.685C93.5135 117.41 90.3894 114.13 85.9941 114.773Z" fill="#407BFF"/>
</g>
<path d="M237.228 205.865C255.902 205.865 271.039 190.728 271.039 172.055C271.039 153.382 255.902 138.244 237.228 138.244C218.555 138.244 203.418 153.382 203.418 172.055C203.418 190.728 218.555 205.865 237.228 205.865Z" fill="#407BFF"/>
<path d="M237.228 204.087C254.919 204.087 269.26 189.746 269.26 172.055C269.26 154.364 254.919 140.023 237.228 140.023C219.538 140.023 205.196 154.364 205.196 172.055C205.196 189.746 219.538 204.087 237.228 204.087Z" fill="white"/>
<mask id="mask1_0_1" style="mask-type:luminance" maskUnits="userSpaceOnUse" x="205" y="140" width="65" height="65">
<path d="M237.228 204.087C254.919 204.087 269.26 189.746 269.26 172.055C269.26 154.364 254.919 140.023 237.228 140.023C219.538 140.023 205.196 154.364 205.196 172.055C205.196 189.746 219.538 204.087 237.228 204.087Z" fill="white"/>
</mask>
<g mask="url(#mask1_0_1)">
<path d="M235.754 147.712C230.946 147.279 227.95 154.677 228.951 165.969C235.037 169.425 242.009 165.969 247.588 168.748C252.747 160.857 251.374 143.059 235.754 147.712Z" fill="#263238"/>
<path d="M228.248 180.399C227.557 182.965 226.584 185.446 225.347 187.797C224.681 189.084 223.849 190.277 222.872 191.347C222.586 191.655 222.276 191.94 221.946 192.199C221.428 192.646 220.808 192.96 220.14 193.112C219.627 193.217 219.095 193.194 218.592 193.045C218.145 192.908 217.732 192.678 217.382 192.368C216.94 191.971 216.582 191.491 216.327 190.955C215.992 190.236 215.745 189.481 215.59 188.703C215.444 188.034 215.335 187.356 215.265 186.675C215.116 185.322 215.049 184.065 215.028 182.78C214.991 180.239 215.106 177.699 215.373 175.172L217.862 175.22C218.078 177.654 218.328 180.115 218.646 182.509C218.815 183.706 219.004 184.896 219.248 186.032C219.37 186.594 219.512 187.148 219.66 187.655C219.782 188.094 219.957 188.516 220.181 188.913C220.255 189.035 220.35 189.102 220.235 188.974C220.119 188.873 219.983 188.797 219.836 188.751C219.633 188.688 219.417 188.674 219.207 188.71C218.903 188.764 218.883 188.852 219.004 188.71C219.147 188.565 219.28 188.412 219.403 188.25C220.02 187.408 220.544 186.501 220.965 185.545C221.458 184.503 221.896 183.435 222.277 182.347C222.683 181.258 223.062 180.088 223.393 179.034L228.248 180.399Z" fill="#FFB573"/>
<path d="M224.908 173.888C222.879 174.408 221.459 182.753 221.459 182.753L229.215 188.027C229.215 188.027 232.407 178.134 230.845 175.903C229.283 173.671 227.883 173.11 224.908 173.888Z" fill="#263238"/>
<path opacity="0.2" d="M225.09 175.754L223.528 184.166L226.673 186.296L225.09 175.754Z" fill="black"/>
<path d="M217.97 175.917L218.998 170.73L214.873 171.927C214.873 171.927 214.467 175.518 216.13 176.701L217.97 175.917Z" fill="#FFB573"/>
<path d="M218.585 168.451L215.177 169.864L214.873 171.927L218.997 170.73L218.585 168.451Z" fill="#FFB573"/>
<path d="M224.908 173.887C224.908 173.887 222.561 174.719 227.261 203.593H247.243C246.911 195.479 246.898 190.441 250.786 173.745C247.988 173.17 245.152 172.797 242.3 172.63C239.279 172.413 236.246 172.413 233.225 172.63C229.33 172.988 224.908 173.887 224.908 173.887Z" fill="#263238"/>
<path opacity="0.2" d="M249.143 180.359C247.331 180.805 245.654 182.786 245.857 186.445C245.97 188.1 246.549 189.689 247.527 191.029C247.845 188.23 248.379 184.977 249.231 180.825L249.143 180.359Z" fill="black"/>
<path d="M234.28 179.033C234.28 179.033 237.553 181.738 237.553 184.599C240.257 182.604 243.943 177.16 244.315 173.705C244.328 173.565 244.312 173.424 244.269 173.29C244.226 173.156 244.156 173.032 244.064 172.926C243.972 172.82 243.859 172.733 243.732 172.672C243.606 172.611 243.468 172.576 243.327 172.569C243.082 172.552 242.838 172.521 242.597 172.474C242.495 172.453 242.39 172.455 242.289 172.481C242.188 172.506 242.095 172.555 242.016 172.623L234.28 179.033Z" fill="#FAFAFA"/>
<path d="M234.28 179.034C233.388 179.694 232.638 180.527 232.075 181.483C231.511 182.439 231.146 183.499 231 184.599C228.241 182.57 229.384 176.329 230.919 173.38C231.04 173.15 231.215 172.954 231.43 172.807C231.644 172.661 231.892 172.57 232.15 172.542C232.549 172.495 232.86 172.441 233.063 172.4C233.099 172.392 233.137 172.392 233.174 172.4C233.21 172.407 233.245 172.422 233.275 172.444C233.306 172.465 233.332 172.493 233.351 172.525C233.37 172.557 233.383 172.593 233.387 172.63L234.28 179.034Z" fill="#FAFAFA"/>
<path d="M241.407 162.413C240.839 165.334 240.264 170.683 242.307 172.63C240.092 175.283 237.364 177.462 234.287 179.034C230.229 175.795 233.232 172.63 233.232 172.63C236.491 171.853 236.403 169.438 235.835 167.166L241.407 162.413Z" fill="#FFB573"/>
<path opacity="0.2" d="M239.128 164.353L235.835 167.166C235.973 167.694 236.065 168.232 236.112 168.775C237.356 168.6 239.311 167.538 239.581 166.186C239.585 165.547 239.429 164.917 239.128 164.353Z" fill="black"/>
<path d="M246.296 157.72C244.944 162.413 244.477 164.428 241.529 166.341C237.1 169.208 231.629 166.524 231.548 161.52C231.474 157.016 233.699 150.099 238.777 149.24C239.896 149.046 241.046 149.14 242.118 149.515C243.189 149.89 244.148 150.533 244.901 151.383C245.655 152.233 246.178 153.261 246.422 154.37C246.667 155.479 246.623 156.632 246.296 157.72Z" fill="#FFB573"/>
<path d="M242.692 153.344C243.517 158.03 243.835 159.843 245.491 161.053C247.148 162.263 248.69 156.705 247.466 154.568C246.242 152.431 242.692 153.344 242.692 153.344Z" fill="#263238"/>
<path d="M234.902 148.949C233.908 150.126 235.95 152.587 237.931 153.392C237.809 153.134 237.721 152.861 237.668 152.58C239.098 153.558 240.706 154.248 242.401 154.609C242.21 154.367 242.082 154.081 242.029 153.777C242.029 153.547 246.911 156.78 247.621 154.453C248.331 152.127 245.911 149.084 242.212 148.111C239.061 147.319 236.126 147.495 234.902 148.949Z" fill="#263238"/>
<path d="M238.425 157.3C238.344 157.685 238.066 157.976 237.809 157.895C237.553 157.814 237.424 157.483 237.512 157.09C237.6 156.698 237.87 156.414 238.127 156.495C238.384 156.576 238.513 156.881 238.425 157.3Z" fill="#263238"/>
<path d="M234.05 156.326C233.962 156.712 233.685 157.003 233.434 156.921C233.184 156.84 233.042 156.509 233.13 156.117C233.218 155.725 233.489 155.441 233.745 155.522C234.002 155.603 234.131 155.934 234.05 156.326Z" fill="#263238"/>
<path d="M233.854 155.569L232.981 155.089C232.981 155.089 233.292 155.921 233.854 155.569Z" fill="#263238"/>
<path d="M235.24 157.32C234.7 158.126 234.051 158.854 233.313 159.484C233.482 159.674 233.691 159.824 233.925 159.922C234.159 160.02 234.412 160.065 234.665 160.052L235.24 157.32Z" fill="#ED893E"/>
<path d="M236.41 162.04C236.215 162.025 236.021 161.998 235.829 161.959C235.799 161.951 235.773 161.932 235.757 161.906C235.74 161.879 235.735 161.848 235.741 161.817C235.744 161.802 235.75 161.787 235.759 161.775C235.768 161.762 235.78 161.751 235.793 161.743C235.806 161.734 235.821 161.729 235.836 161.727C235.852 161.724 235.868 161.725 235.883 161.729C236.362 161.846 236.862 161.849 237.342 161.737C237.822 161.626 238.27 161.403 238.648 161.087C238.671 161.065 238.701 161.053 238.733 161.053C238.765 161.053 238.795 161.065 238.818 161.087C238.837 161.109 238.849 161.138 238.849 161.168C238.849 161.198 238.837 161.227 238.818 161.249C238.488 161.533 238.106 161.75 237.693 161.886C237.28 162.021 236.844 162.074 236.41 162.04Z" fill="#263238"/>
<path d="M246.607 162.406C246.077 163.185 245.26 163.722 244.335 163.9C243.104 164.13 242.597 163.001 243.037 161.871C243.429 160.877 244.538 159.566 245.742 159.843C246.004 159.907 246.245 160.036 246.444 160.219C246.643 160.401 246.792 160.631 246.878 160.887C246.965 161.142 246.985 161.415 246.938 161.681C246.89 161.946 246.777 162.196 246.607 162.406Z" fill="#FFB573"/>
<path d="M240.575 156.448C240.526 156.443 240.481 156.421 240.445 156.387C240.41 156.353 240.387 156.308 240.379 156.259C240.263 155.896 240.074 155.561 239.822 155.275C239.571 154.989 239.263 154.757 238.919 154.595C238.886 154.586 238.857 154.569 238.831 154.547C238.806 154.524 238.786 154.497 238.772 154.466C238.758 154.435 238.751 154.402 238.751 154.368C238.751 154.334 238.759 154.301 238.773 154.27C238.787 154.239 238.807 154.212 238.833 154.19C238.858 154.168 238.888 154.151 238.921 154.142C238.953 154.132 238.987 154.13 239.021 154.135C239.054 154.139 239.086 154.151 239.115 154.169C239.53 154.365 239.898 154.647 240.194 154.997C240.49 155.347 240.708 155.757 240.832 156.198C240.842 156.258 240.829 156.319 240.795 156.37C240.761 156.42 240.709 156.455 240.65 156.469L240.575 156.448Z" fill="#263238"/>
<path d="M233.185 153.223C233.143 153.224 233.103 153.215 233.066 153.196C233.029 153.177 232.998 153.149 232.975 153.115C232.942 153.062 232.93 152.999 232.942 152.939C232.955 152.878 232.991 152.825 233.043 152.79C233.347 152.58 233.698 152.446 234.065 152.399C234.432 152.352 234.805 152.393 235.152 152.52C235.181 152.531 235.208 152.549 235.23 152.571C235.252 152.593 235.269 152.62 235.28 152.649C235.292 152.678 235.297 152.709 235.296 152.74C235.295 152.772 235.287 152.802 235.274 152.831C235.262 152.858 235.244 152.883 235.222 152.904C235.2 152.924 235.174 152.94 235.146 152.951C235.118 152.962 235.087 152.967 235.057 152.966C235.027 152.965 234.997 152.958 234.97 152.946C234.692 152.852 234.397 152.825 234.107 152.866C233.817 152.907 233.54 153.015 233.3 153.182C233.265 153.206 233.226 153.22 233.185 153.223Z" fill="#263238"/>
<path d="M238.229 156.543L237.363 156.063C237.363 156.063 237.674 156.881 238.229 156.543Z" fill="#263238"/>
<path d="M247.547 202.424L248.054 204.209C248.129 204.351 247.96 204.493 247.73 204.493H227.159C226.977 204.493 226.828 204.398 226.821 204.29L226.639 202.498C226.639 202.376 226.781 202.268 226.977 202.268H247.223C247.286 202.263 247.349 202.275 247.406 202.302C247.463 202.33 247.511 202.372 247.547 202.424Z" fill="#407BFF"/>
<path opacity="0.2" d="M247.547 202.424L248.054 204.209C248.129 204.351 247.96 204.493 247.73 204.493H227.159C226.977 204.493 226.828 204.398 226.821 204.29L226.639 202.498C226.639 202.376 226.781 202.268 226.977 202.268H247.223C247.286 202.263 247.349 202.275 247.406 202.302C247.463 202.33 247.511 202.372 247.547 202.424Z" fill="black"/>
<path d="M244.788 204.682H245.329C245.437 204.682 245.519 204.628 245.512 204.561L245.255 202.235C245.255 202.167 245.153 202.113 245.045 202.113H244.504C244.396 202.113 244.315 202.167 244.322 202.235L244.579 204.561C244.558 204.628 244.653 204.682 244.788 204.682Z" fill="#407BFF"/>
<path opacity="0.4" d="M244.788 204.682H245.329C245.437 204.682 245.519 204.628 245.512 204.561L245.255 202.235C245.255 202.167 245.153 202.113 245.045 202.113H244.504C244.396 202.113 244.315 202.167 244.322 202.235L244.579 204.561C244.558 204.628 244.653 204.682 244.788 204.682Z" fill="black"/>
<path d="M228.681 204.682H229.222C229.33 204.682 229.418 204.628 229.411 204.561L229.154 202.235C229.154 202.167 229.053 202.113 228.945 202.113H228.404C228.295 202.113 228.214 202.167 228.221 202.235L228.471 204.561C228.478 204.628 228.559 204.682 228.681 204.682Z" fill="#407BFF"/>
<path opacity="0.4" d="M228.681 204.682H229.222C229.33 204.682 229.418 204.628 229.411 204.561L229.154 202.235C229.154 202.167 229.053 202.113 228.945 202.113H228.404C228.295 202.113 228.214 202.167 228.221 202.235L228.471 204.561C228.478 204.628 228.559 204.682 228.681 204.682Z" fill="black"/>
<path d="M236.673 204.682H237.214C237.323 204.682 237.404 204.628 237.397 204.561L237.147 202.235C237.147 202.167 237.045 202.113 236.937 202.113H236.396C236.288 202.113 236.2 202.167 236.207 202.235L236.464 204.561C236.484 204.628 236.579 204.682 236.673 204.682Z" fill="#407BFF"/>
<path opacity="0.4" d="M236.673 204.682H237.214C237.323 204.682 237.404 204.628 237.397 204.561L237.147 202.235C237.147 202.167 237.045 202.113 236.937 202.113H236.396C236.288 202.113 236.2 202.167 236.207 202.235L236.464 204.561C236.484 204.628 236.579 204.682 236.673 204.682Z" fill="black"/>
<path d="M253.119 179.676C253.342 181.366 253.518 183.057 253.721 184.747L254.235 189.826C254.418 191.516 254.546 193.207 254.695 194.904L254.931 197.453L254.986 198.089C254.986 198.157 254.986 198.42 255.019 198.603C255.029 198.799 255.029 198.995 255.019 199.191C254.938 199.918 254.708 200.62 254.343 201.254C253.756 202.232 252.979 203.083 252.058 203.756C251.285 204.337 250.466 204.855 249.61 205.304C248.009 206.127 246.347 206.825 244.64 207.394C241.332 208.503 237.94 209.34 234.496 209.896L233.942 207.468C235.517 206.947 237.127 206.413 238.675 205.818C240.224 205.223 241.793 204.635 243.287 203.952C244.76 203.307 246.188 202.564 247.561 201.727C248.19 201.34 248.789 200.906 249.353 200.429C249.792 200.072 250.157 199.634 250.428 199.137C250.487 199.029 250.521 198.909 250.529 198.785L250.414 197.981L250.056 195.452C249.819 193.768 249.556 192.071 249.38 190.394L248.737 185.329C248.555 183.632 248.338 181.948 248.183 180.251L253.119 179.676Z" fill="#FFB573"/>
<path d="M250.786 173.745C252.815 174.354 255.195 181.251 255.195 181.251L248.169 188.467C248.169 188.467 244.572 181.028 245.417 178.465C246.31 175.767 248.501 173.056 250.786 173.745Z" fill="#263238"/>
</g>
<path d="M234.3 111.805H145.514C144.736 111.805 143.989 111.495 143.439 110.945C142.888 110.395 142.579 109.648 142.579 108.87C142.579 108.485 142.655 108.104 142.803 107.748C142.95 107.392 143.166 107.069 143.439 106.797C143.712 106.525 144.035 106.31 144.391 106.163C144.747 106.016 145.129 105.941 145.514 105.942H234.3C235.077 105.942 235.822 106.25 236.371 106.799C236.92 107.349 237.228 108.093 237.228 108.87C237.229 109.255 237.154 109.636 237.007 109.992C236.861 110.348 236.645 110.672 236.373 110.945C236.101 111.217 235.778 111.434 235.422 111.581C235.067 111.729 234.685 111.805 234.3 111.805Z" fill="white"/>
<path d="M213.683 124.132H145.514C145.129 124.133 144.747 124.058 144.391 123.911C144.035 123.764 143.712 123.549 143.439 123.277C143.166 123.005 142.95 122.682 142.803 122.326C142.655 121.97 142.579 121.589 142.579 121.204C142.579 120.425 142.888 119.679 143.439 119.129C143.989 118.578 144.736 118.269 145.514 118.269H213.683C214.461 118.269 215.207 118.578 215.758 119.129C216.308 119.679 216.617 120.425 216.617 121.204C216.617 121.589 216.541 121.97 216.394 122.326C216.246 122.682 216.03 123.005 215.757 123.277C215.485 123.549 215.161 123.764 214.805 123.911C214.449 124.058 214.068 124.133 213.683 124.132Z" fill="white"/>
<path d="M158.72 168.823H192.592C193.37 168.823 194.117 168.514 194.667 167.963C195.217 167.413 195.527 166.666 195.527 165.888C195.527 165.503 195.451 165.122 195.303 164.766C195.156 164.41 194.939 164.087 194.667 163.815C194.394 163.543 194.07 163.328 193.714 163.181C193.358 163.034 192.977 162.959 192.592 162.96H158.72C157.944 162.96 157.199 163.268 156.65 163.818C156.101 164.367 155.792 165.111 155.792 165.888C155.792 166.273 155.867 166.655 156.013 167.011C156.16 167.367 156.376 167.69 156.648 167.963C156.92 168.235 157.243 168.452 157.598 168.599C157.954 168.747 158.335 168.823 158.72 168.823Z" fill="white"/>
<path d="M121.082 168.823H144.452C144.837 168.823 145.218 168.747 145.574 168.599C145.93 168.452 146.253 168.235 146.525 167.963C146.797 167.69 147.012 167.367 147.159 167.011C147.306 166.655 147.381 166.273 147.38 165.888C147.38 165.111 147.072 164.367 146.523 163.818C145.973 163.268 145.229 162.96 144.452 162.96H121.082C120.306 162.96 119.561 163.268 119.012 163.818C118.463 164.367 118.154 165.111 118.154 165.888C118.153 166.273 118.229 166.655 118.375 167.011C118.522 167.367 118.738 167.69 119.01 167.963C119.281 168.235 119.605 168.452 119.96 168.599C120.316 168.747 120.697 168.823 121.082 168.823Z" fill="white"/>
<path d="M103.805 181.15H192.592C192.977 181.151 193.358 181.076 193.714 180.929C194.07 180.782 194.394 180.567 194.667 180.295C194.939 180.023 195.156 179.7 195.303 179.344C195.451 178.988 195.527 178.607 195.527 178.222C195.527 177.444 195.217 176.697 194.667 176.147C194.117 175.596 193.37 175.287 192.592 175.287H103.805C103.42 175.287 103.039 175.363 102.683 175.511C102.328 175.658 102.005 175.874 101.733 176.147C101.461 176.42 101.245 176.743 101.098 177.099C100.952 177.455 100.877 177.837 100.877 178.222C100.877 178.998 101.186 179.743 101.735 180.292C102.284 180.841 103.029 181.15 103.805 181.15Z" fill="white"/>
<path d="M67.5063 27.0483C67.5063 27.6063 67.3407 28.1518 67.0306 28.6156C66.7205 29.0795 66.2797 29.4409 65.764 29.6541C65.2484 29.8673 64.6811 29.9228 64.1339 29.8134C63.5867 29.7041 63.0843 29.4348 62.6902 29.0398C62.2961 28.6448 62.0281 28.1417 61.9201 27.5943C61.812 27.0468 61.8688 26.4797 62.0833 25.9645C62.2978 25.4494 62.6602 25.0095 63.1248 24.7005C63.5894 24.3914 64.1353 24.2272 64.6933 24.2285C65.4399 24.2303 66.1554 24.5282 66.6828 25.0568C67.2101 25.5854 67.5063 26.3016 67.5063 27.0483Z" fill="white"/>
<path d="M74.2754 29.8681C75.8327 29.8681 77.0952 28.6056 77.0952 27.0483C77.0952 25.491 75.8327 24.2285 74.2754 24.2285C72.718 24.2285 71.4556 25.491 71.4556 27.0483C71.4556 28.6056 72.718 29.8681 74.2754 29.8681Z" fill="white"/>
<path d="M83.8569 29.8681C85.4142 29.8681 86.6767 28.6056 86.6767 27.0483C86.6767 25.491 85.4142 24.2285 83.8569 24.2285C82.2996 24.2285 81.0371 25.491 81.0371 27.0483C81.0371 28.6056 82.2996 29.8681 83.8569 29.8681Z" fill="white"/>
<defs>
<linearGradient id="paint0_linear_0_1" x1="-33.608" y1="275.085" x2="40.8453" y2="242.158" gradientUnits="userSpaceOnUse">
<stop stop-color="white"/>
<stop offset="1" stop-color="white" stop-opacity="0.06"/>
</linearGradient>
</defs>
</svg>
