<svg width="555" height="417" viewBox="0 0 555 417" fill="none" xmlns="http://www.w3.org/2000/svg">
<rect width="555" height="417" fill="#F5F5F5"/>
<rect width="1440" height="2825" transform="translate(-160 -1304)" fill="white"/>
<path d="M555 366.08H0V366.36H555V366.08Z" fill="#EBEBEB"/>
<path d="M499.389 384.071H462.626V384.351H499.389V384.071Z" fill="#EBEBEB"/>
<path d="M367.654 387.112H358.008V387.392H367.654V387.112Z" fill="#EBEBEB"/>
<path d="M461.515 373.695H440.214V373.974H461.515V373.695Z" fill="#EBEBEB"/>
<path d="M106.172 375.573H58.2314V375.853H106.172V375.573Z" fill="#EBEBEB"/>
<path d="M123.087 375.573H116.061V375.853H123.087V375.573Z" fill="#EBEBEB"/>
<path d="M249.916 380.292H145.931V380.571H249.916V380.292Z" fill="#EBEBEB"/>
<path d="M263.069 316.211H48.7394C47.0603 316.208 45.451 315.534 44.2648 314.337C43.0786 313.14 42.4124 311.518 42.4124 309.826V6.32869C42.427 4.64703 43.0997 3.03909 44.2843 1.85413C45.469 0.669162 47.0699 0.00288077 48.7394 0H263.069C264.75 0 266.362 0.672661 267.551 1.87001C268.74 3.06735 269.407 4.6913 269.407 6.3846V309.826C269.407 311.52 268.74 313.144 267.551 314.341C266.362 315.538 264.75 316.211 263.069 316.211ZM48.7394 0.22363C47.1339 0.226592 45.5952 0.871107 44.461 2.01571C43.3269 3.16031 42.6899 4.71146 42.6899 6.32869V309.826C42.6899 311.444 43.3269 312.995 44.461 314.139C45.5952 315.284 47.1339 315.928 48.7394 315.931H263.069C264.676 315.928 266.216 315.284 267.352 314.14C268.487 312.996 269.127 311.445 269.13 309.826V6.32869C269.127 4.71044 268.487 3.15931 267.352 2.01502C266.216 0.870743 264.676 0.226585 263.069 0.22363H48.7394Z" fill="#EBEBEB"/>
<path d="M503.174 316.211H288.833C287.153 316.208 285.542 315.534 284.354 314.338C283.166 313.141 282.498 311.519 282.495 309.826V6.32869C282.512 4.64601 283.187 3.03808 284.374 1.85343C285.56 0.668771 287.162 0.00284935 288.833 0H503.174C504.841 0.00581937 506.439 0.673401 507.622 1.85805C508.804 3.0427 509.475 4.64896 509.49 6.32869V309.826C509.49 311.516 508.825 313.136 507.641 314.333C506.457 315.53 504.851 316.205 503.174 316.211ZM288.833 0.22363C287.226 0.226585 285.686 0.870743 284.55 2.01502C283.415 3.15931 282.775 4.71044 282.772 6.32869V309.826C282.775 311.445 283.415 312.996 284.55 314.14C285.686 315.284 287.226 315.928 288.833 315.931H503.174C504.78 315.928 506.32 315.284 507.456 314.14C508.592 312.996 509.231 311.445 509.234 309.826V6.32869C509.231 4.71044 508.592 3.15931 507.456 2.01502C506.32 0.870743 504.78 0.226585 503.174 0.22363H288.833Z" fill="#EBEBEB"/>
<path d="M272.638 118.523C270.911 110.171 267.631 102.222 262.97 95.0981L271.295 84.9677L253.535 67.0774L243.479 75.4523C236.403 70.7658 228.514 67.4655 220.224 65.7245L219.003 52.6646H193.795L192.574 65.7245C184.287 67.4635 176.401 70.764 169.331 75.4523L159.274 67.0886L141.514 84.9789L149.839 95.1093C145.169 102.229 141.874 110.173 140.127 118.523L127.173 119.753V145.113L140.127 146.343C141.872 154.706 145.171 162.661 149.85 169.79L141.525 179.92L159.285 197.811L169.342 189.425C176.412 194.116 184.298 197.421 192.585 199.164L193.806 212.212H218.981L220.202 199.164C228.492 197.419 236.382 194.115 243.456 189.425L253.513 197.811L271.273 179.92L262.948 169.79C267.608 162.67 270.889 154.725 272.616 146.376L285.581 145.146V119.787L272.638 118.523ZM240.448 132.433C240.448 139.222 238.45 145.859 234.705 151.504C230.961 157.149 225.639 161.549 219.412 164.147C213.185 166.745 206.334 167.425 199.723 166.1C193.113 164.776 187.041 161.506 182.275 156.706C177.51 151.905 174.264 145.789 172.949 139.13C171.634 132.471 172.309 125.569 174.888 119.297C177.468 113.024 181.835 107.663 187.439 103.891C193.043 100.119 199.632 98.1059 206.371 98.1059C210.85 98.1044 215.285 98.9923 219.423 100.719C223.561 102.445 227.32 104.977 230.486 108.168C233.652 111.359 236.163 115.148 237.874 119.317C239.585 123.487 240.464 127.955 240.459 132.466L240.448 132.433Z" fill="#F0F0F0"/>
<path d="M344.833 240.244L345.71 249.626H363.803L364.68 240.255C370.615 238.992 376.263 236.618 381.33 233.256L388.611 239.283L401.398 226.402L395.415 219.156C398.759 214.036 401.117 208.327 402.364 202.328L411.666 201.445V183.219L402.364 182.336C401.11 176.356 398.753 170.667 395.415 165.564L401.398 158.284L388.611 145.359L381.385 151.385C376.319 148.023 370.671 145.649 364.735 144.386L363.858 135.005H345.765L344.888 144.386C338.933 145.642 333.266 148.017 328.183 151.385L320.901 145.359L308.114 158.24L314.13 165.485C310.793 170.589 308.436 176.278 307.182 182.257L297.869 183.141V201.366L307.182 202.25C308.42 208.276 310.777 214.012 314.13 219.156L308.147 226.435L320.901 239.283L328.127 233.256C333.209 236.625 338.877 238.996 344.833 240.244ZM354.756 216.92C349.91 216.92 345.173 215.471 341.145 212.758C337.117 210.045 333.979 206.188 332.127 201.677C330.276 197.166 329.795 192.203 330.745 187.417C331.695 182.63 334.034 178.235 337.465 174.788C340.896 171.341 345.266 168.997 350.02 168.053C354.774 167.109 359.7 167.607 364.173 169.484C368.646 171.361 372.466 174.533 375.148 178.599C377.831 182.664 379.256 187.439 379.243 192.321C379.225 198.851 376.638 205.108 372.047 209.719C367.457 214.33 361.239 216.92 354.756 216.92Z" fill="#F0F0F0"/>
<path d="M248.796 367.869H270.33L271.374 356.688C278.464 355.193 285.212 352.367 291.265 348.358L299.867 355.525L315.085 340.195L307.97 331.53C311.951 325.432 314.756 318.635 316.24 311.492L327.34 310.441V288.749L316.24 287.698C314.759 280.555 311.953 273.757 307.97 267.661L315.085 258.996L299.867 243.655L291.265 250.833C285.215 246.818 278.466 243.992 271.374 242.503L270.33 231.322H248.796L247.753 242.503C240.66 243.992 233.911 246.818 227.862 250.833L219.259 243.655L204.03 258.996L211.156 267.661C207.173 273.757 204.367 280.555 202.887 287.698L191.787 288.749V310.441L202.887 311.492C204.367 318.632 207.173 325.427 211.156 331.518L204.03 340.195L219.259 355.525L227.862 348.358C233.914 352.367 240.662 355.193 247.753 356.688L248.796 367.869ZM259.563 328.98C253.798 328.98 248.163 327.258 243.369 324.032C238.576 320.805 234.84 316.22 232.633 310.854C230.427 305.489 229.85 299.585 230.975 293.889C232.099 288.194 234.876 282.962 238.952 278.855C243.029 274.749 248.222 271.952 253.877 270.819C259.531 269.687 265.392 270.268 270.718 272.49C276.044 274.713 280.597 278.476 283.799 283.305C287.002 288.133 288.712 293.81 288.712 299.618C288.7 307.397 285.624 314.854 280.159 320.351C274.694 325.848 267.286 328.935 259.563 328.935V328.98Z" fill="#F0F0F0"/>
<path d="M361.916 104.256C362.799 105.787 363.211 107.548 363.1 109.316C362.988 111.084 362.358 112.778 361.29 114.185C360.221 115.591 358.762 116.647 357.098 117.217C355.433 117.788 353.638 117.848 351.94 117.389C350.241 116.931 348.716 115.975 347.558 114.643C346.399 113.311 345.659 111.662 345.432 109.905C345.205 108.149 345.5 106.364 346.281 104.777C347.061 103.19 348.292 101.873 349.817 100.991C351.853 99.8139 354.268 99.4966 356.535 100.108C358.802 100.72 360.737 102.211 361.916 104.256Z" fill="#F0F0F0"/>
<path d="M352.015 107.934C352.281 108.415 352.836 108.393 353.502 108.225L352.492 106.458C351.871 106.973 351.76 107.498 352.015 107.934Z" fill="#E0E0E0"/>
<path d="M355.122 109.164L356.132 110.931C356.787 110.394 356.898 109.88 356.653 109.455C356.409 109.03 355.81 108.986 355.122 109.164Z" fill="#E0E0E0"/>
<path d="M350.461 102.12C349.163 102.873 348.116 103.997 347.452 105.349C346.789 106.701 346.538 108.222 346.732 109.717C346.927 111.213 347.557 112.617 348.544 113.752C349.53 114.887 350.829 115.702 352.275 116.093C353.722 116.484 355.251 116.435 356.669 115.95C358.087 115.466 359.331 114.569 360.243 113.372C361.155 112.176 361.694 110.733 361.793 109.228C361.891 107.723 361.543 106.222 360.795 104.915C360.299 104.048 359.638 103.287 358.85 102.677C358.063 102.066 357.163 101.619 356.203 101.359C355.243 101.099 354.242 101.033 353.257 101.163C352.271 101.294 351.321 101.619 350.461 102.12ZM356.754 112.004L357.387 113.123L356.577 113.592L355.944 112.474C355.063 112.96 354.056 113.163 353.058 113.056L352.98 111.814C353.804 111.921 354.64 111.785 355.389 111.423L354.279 109.444C353.036 109.813 351.648 110.137 350.86 108.751C350.283 107.733 350.505 106.425 351.97 105.396L351.326 104.278L352.137 103.808L352.769 104.927C353.497 104.549 354.305 104.357 355.123 104.368L355.289 105.609C354.632 105.6 353.981 105.733 353.38 106L354.49 108.013C355.733 107.644 357.132 107.297 357.92 108.672C358.453 109.645 358.208 110.953 356.754 112.004Z" fill="#E0E0E0"/>
<path d="M130.7 342.562C135.757 336.366 134.871 327.213 128.72 322.118C122.57 317.024 113.483 317.916 108.425 324.112C103.367 330.308 104.254 339.461 110.404 344.556C116.555 349.651 125.642 348.758 130.7 342.562Z" fill="#F0F0F0"/>
<path d="M118.071 329.741C117.793 330.59 118.426 331.228 119.358 331.865L120.368 328.701C119.047 328.488 118.315 328.958 118.071 329.741Z" fill="#E0E0E0"/>
<path d="M120.002 334.862L119.003 338.004C120.357 338.227 121.09 337.802 121.334 337.031C121.578 336.259 120.99 335.499 120.002 334.862Z" fill="#E0E0E0"/>
<path d="M123.332 321.5C121.014 320.749 118.526 320.709 116.185 321.383C113.843 322.057 111.753 323.415 110.178 325.286C108.603 327.157 107.614 329.457 107.337 331.894C107.06 334.331 107.506 336.796 108.62 338.977C109.734 341.159 111.465 342.959 113.595 344.149C115.724 345.339 118.156 345.866 120.583 345.664C123.01 345.461 125.322 344.538 127.228 343.012C129.134 341.485 130.548 339.423 131.291 337.087C132.286 333.957 132.006 330.557 130.514 327.634C129.021 324.711 126.438 322.505 123.332 321.5ZM118.381 339.916L117.749 341.906L116.306 341.436L116.927 339.468C115.386 338.921 114.044 337.92 113.076 336.595L114.441 335.052C115.219 336.16 116.293 337.025 117.538 337.545L118.648 333.989C116.839 332.871 114.94 331.552 115.729 329.081C116.306 327.258 118.115 326.107 120.957 326.721L121.6 324.709L123.055 325.178L122.422 327.158C123.671 327.617 124.786 328.386 125.663 329.394L124.364 330.959C123.654 330.159 122.784 329.519 121.811 329.081L120.701 332.67C122.511 333.788 124.442 335.096 123.654 337.567C123.066 339.424 121.245 340.553 118.381 339.916Z" fill="#E0E0E0"/>
<path d="M463.27 268.28C470.839 265.786 474.966 257.583 472.49 249.959C470.013 242.335 461.87 238.177 454.301 240.672C446.733 243.167 442.605 251.369 445.082 258.993C447.559 266.617 455.702 270.775 463.27 268.28Z" fill="#F0F0F0"/>
<path d="M455.1 253.215C455.556 253.986 456.455 253.93 457.542 253.651L455.844 250.788C454.867 251.649 454.723 252.51 455.1 253.215Z" fill="#E0E0E0"/>
<path d="M460.239 255.149L461.915 257.989C463.025 257.106 463.147 256.267 462.737 255.574C462.326 254.881 461.349 254.847 460.239 255.149Z" fill="#E0E0E0"/>
<path d="M452.491 243.755C450.4 245.012 448.726 246.864 447.681 249.078C446.635 251.293 446.265 253.77 446.616 256.196C446.968 258.622 448.026 260.889 449.656 262.71C451.287 264.531 453.416 265.824 455.776 266.426C458.136 267.027 460.62 266.911 462.914 266.091C465.208 265.271 467.209 263.784 468.665 261.818C470.12 259.852 470.964 257.496 471.09 255.047C471.217 252.599 470.619 250.167 469.374 248.06C467.7 245.235 464.982 243.195 461.817 242.388C458.651 241.581 455.296 242.073 452.491 243.755ZM462.958 259.7L464.012 261.5L462.714 262.283L461.659 260.505C460.23 261.307 458.594 261.658 456.964 261.511L456.72 259.465C458.061 259.61 459.415 259.369 460.627 258.772L458.729 255.563C456.709 256.189 454.466 256.748 453.179 254.512C452.213 252.879 452.546 250.744 454.888 249.011L453.778 247.199L455.088 246.417L456.142 248.194C457.311 247.556 458.621 247.226 459.95 247.233L460.261 249.245C459.192 249.253 458.138 249.486 457.164 249.927L459.084 253.17C461.115 252.544 463.369 251.94 464.689 254.176C465.655 255.842 465.3 257.978 462.958 259.734V259.7Z" fill="#E0E0E0"/>
<path d="M319.524 70.6553C317.81 72.9538 315.457 74.6885 312.764 75.6399C310.07 76.5914 307.157 76.7169 304.393 76.0006C301.629 75.2842 299.138 73.7582 297.235 71.6156C295.331 69.473 294.102 66.8099 293.701 63.9633C293.301 61.1166 293.747 58.2142 294.984 55.6232C296.221 53.0321 298.193 50.8688 300.651 49.4068C303.108 47.9448 305.941 47.2498 308.791 47.4097C311.641 47.5696 314.379 48.5772 316.661 50.3051C319.719 52.6215 321.738 56.0667 322.276 59.8829C322.813 63.6991 321.823 67.574 319.524 70.6553Z" fill="#F0F0F0"/>
<path d="M307.736 58.0539C307.203 58.7695 307.592 59.5858 308.258 60.4915L310.245 57.8303C309.068 57.193 308.225 57.3942 307.736 58.0539Z" fill="#E0E0E0"/>
<path d="M307.892 63.533L305.927 66.1718C307.126 66.8315 307.969 66.6638 308.447 66.0264C308.924 65.3891 308.58 64.4498 307.892 63.533Z" fill="#E0E0E0"/>
<path d="M315.395 52.0049C313.449 50.5314 311.113 49.6722 308.682 49.536C306.251 49.3998 303.835 49.9928 301.739 51.2399C299.642 52.487 297.96 54.3323 296.905 56.5424C295.85 58.7525 295.469 61.2281 295.81 63.6563C296.152 66.0845 297.2 68.3562 298.823 70.1841C300.446 72.012 302.571 73.314 304.929 73.9256C307.286 74.5371 309.771 74.4307 312.069 73.6197C314.366 72.8088 316.374 71.3298 317.837 69.3697C318.809 68.0681 319.516 66.5863 319.919 65.0092C320.323 63.432 320.413 61.7903 320.187 60.1778C319.96 58.5653 319.42 57.0136 318.598 55.6113C317.776 54.209 316.687 52.9835 315.395 52.0049ZM304.706 67.7931L303.462 69.4703L302.241 68.5535L303.485 66.8874C302.203 65.8673 301.258 64.4793 300.776 62.9068L302.563 61.9005C302.947 63.1952 303.681 64.3567 304.683 65.2549L306.903 62.2695C305.56 60.6258 304.195 58.7474 305.793 56.6788C306.903 55.1581 309.012 54.6661 311.499 56.1868L312.753 54.4984L313.974 55.4265L312.731 57.0813C313.761 57.9303 314.562 59.026 315.062 60.268L313.33 61.3191C312.916 60.3281 312.304 59.4336 311.532 58.6914L309.312 61.7104C310.655 63.3541 312.054 65.2438 310.511 67.3011C309.301 68.8554 307.214 69.325 304.706 67.7931Z" fill="#E0E0E0"/>
<path d="M101.344 116.566C103.037 117.467 104.426 118.854 105.337 120.551C106.247 122.247 106.638 124.178 106.459 126.098C106.28 128.019 105.54 129.843 104.332 131.339C103.124 132.835 101.502 133.937 99.6727 134.505C97.8428 135.073 95.8869 135.082 94.0523 134.53C92.2176 133.978 90.5867 132.89 89.3659 131.404C88.145 129.919 87.389 128.101 87.1936 126.183C86.9982 124.264 87.3721 122.33 88.268 120.625C89.4684 118.341 91.52 116.631 93.9719 115.87C96.4238 115.109 99.0753 115.359 101.344 116.566Z" fill="#F0F0F0"/>
<path d="M94.3498 125.758C94.8826 126.048 95.371 125.702 95.9038 125.154L93.8836 124.114C93.595 124.964 93.817 125.501 94.3498 125.758Z" fill="#E0E0E0"/>
<path d="M97.8796 125.076L99.8332 126.115C100.133 125.243 99.9442 124.695 99.4669 124.449C98.9896 124.203 98.4235 124.516 97.8796 125.076Z" fill="#E0E0E0"/>
<path d="M89.5093 121.285C88.7413 122.741 88.4193 124.393 88.584 126.033C88.7487 127.673 89.3926 129.227 90.4344 130.498C91.4762 131.769 92.8689 132.7 94.4363 133.174C96.0037 133.647 97.6753 133.642 99.2396 133.158C100.804 132.674 102.19 131.733 103.224 130.455C104.257 129.177 104.891 127.619 105.044 125.978C105.198 124.336 104.865 122.686 104.088 121.236C103.31 119.786 102.123 118.6 100.676 117.83C98.7398 116.799 96.4768 116.584 94.3834 117.232C92.29 117.879 90.5371 119.337 89.5093 121.285ZM101.009 126.753L102.241 127.413L101.764 128.318L100.543 127.67C100.002 128.635 99.1863 129.414 98.2006 129.906L97.357 128.788C98.1751 128.395 98.8674 127.779 99.355 127.01L97.135 125.836C96.1915 126.954 95.0926 128.016 93.5719 127.2C92.4619 126.607 91.8958 125.266 92.6395 123.443L91.3963 122.783L91.8736 121.878L93.0946 122.526C93.5467 121.751 94.1839 121.101 94.9483 120.637L95.8252 121.688C95.2339 122.077 94.7308 122.587 94.3489 123.186L96.5689 124.371C97.5124 123.253 98.6002 122.135 100.121 122.973C101.231 123.577 101.764 124.919 101.009 126.753Z" fill="#E0E0E0"/>
<path d="M274.78 204.218C276.389 205.077 277.709 206.398 278.573 208.013C279.437 209.628 279.807 211.465 279.635 213.291C279.464 215.118 278.759 216.852 277.609 218.275C276.459 219.698 274.917 220.746 273.176 221.286C271.436 221.826 269.575 221.834 267.83 221.31C266.085 220.785 264.533 219.752 263.37 218.339C262.208 216.927 261.488 215.199 261.3 213.374C261.112 211.549 261.465 209.709 262.315 208.086C263.459 205.908 265.414 204.277 267.752 203.552C270.09 202.826 272.618 203.066 274.78 204.218Z" fill="#F0F0F0"/>
<path d="M268.065 212.984C268.575 213.252 269.042 212.917 269.541 212.403L267.676 211.407C267.399 212.213 267.61 212.738 268.065 212.984Z" fill="#E0E0E0"/>
<path d="M271.484 212.324L273.338 213.319C273.626 212.481 273.437 211.966 272.993 211.732C272.549 211.497 271.95 211.787 271.484 212.324Z" fill="#E0E0E0"/>
<path d="M263.514 208.713C262.783 210.098 262.477 211.67 262.634 213.23C262.791 214.791 263.404 216.269 264.395 217.478C265.387 218.688 266.712 219.574 268.203 220.024C269.694 220.475 271.285 220.47 272.773 220.01C274.261 219.55 275.581 218.655 276.565 217.44C277.548 216.224 278.152 214.742 278.299 213.18C278.446 211.619 278.13 210.049 277.391 208.668C276.652 207.288 275.523 206.159 274.147 205.425C272.304 204.445 270.15 204.241 268.157 204.857C266.164 205.473 264.494 206.859 263.514 208.713ZM274.48 213.923L275.657 214.549L275.202 215.421L274.036 214.795C273.522 215.71 272.75 216.45 271.816 216.92L271.006 215.88C271.787 215.509 272.449 214.923 272.915 214.192L270.817 213.073C269.918 214.102 268.886 215.153 267.421 214.37C266.311 213.8 265.834 212.525 266.544 210.792L265.356 210.166L265.811 209.294L266.921 209.92C267.349 209.18 267.957 208.56 268.686 208.12L269.519 209.115C268.939 209.478 268.44 209.957 268.054 210.524L270.174 211.642C271.073 210.625 272.105 209.54 273.559 210.312C274.68 210.893 275.18 212.179 274.48 213.923Z" fill="#E0E0E0"/>
<path d="M411.089 324.094C409.812 328.075 407.393 331.585 404.137 334.182C400.881 336.779 396.934 338.346 392.795 338.685C388.655 339.023 384.509 338.119 380.879 336.085C377.25 334.051 374.3 330.98 372.403 327.258C370.505 323.537 369.745 319.332 370.218 315.176C370.692 311.02 372.377 307.098 375.061 303.906C377.746 300.714 381.309 298.395 385.301 297.241C389.294 296.088 393.535 296.152 397.491 297.426C400.124 298.275 402.565 299.639 404.673 301.44C406.782 303.24 408.518 305.442 409.781 307.919C411.044 310.396 411.809 313.1 412.034 315.875C412.258 318.651 411.937 321.443 411.089 324.094Z" fill="#F0F0F0"/>
<path d="M388.878 312.432C388.489 313.673 389.411 314.601 390.765 315.529L392.23 310.911C390.31 310.609 389.244 311.291 388.878 312.432Z" fill="#E0E0E0"/>
<path d="M391.709 319.89L390.244 324.474C392.208 324.798 393.296 324.172 393.651 323.065C394.007 321.958 393.107 320.829 391.709 319.89Z" fill="#E0E0E0"/>
<path d="M396.548 300.423C393.169 299.333 389.545 299.276 386.135 300.261C382.724 301.245 379.68 303.226 377.388 305.953C375.095 308.68 373.656 312.031 373.254 315.581C372.852 319.132 373.503 322.723 375.127 325.901C376.751 329.078 379.274 331.699 382.376 333.432C385.479 335.166 389.022 335.933 392.557 335.638C396.093 335.343 399.462 333.998 402.239 331.774C405.016 329.55 407.076 326.547 408.158 323.143C408.878 320.884 409.149 318.503 408.955 316.138C408.762 313.772 408.107 311.469 407.028 309.359C405.95 307.248 404.469 305.373 402.671 303.84C400.873 302.306 398.792 301.145 396.548 300.423ZM389.344 327.258L388.422 330.165L386.313 329.483L387.224 326.598C384.973 325.811 383.014 324.353 381.607 322.417L383.594 320.18C384.729 321.797 386.296 323.056 388.112 323.814L389.766 318.626C387.135 317.005 384.371 315.082 385.514 311.481C386.358 308.842 388.989 307.143 393.129 308.048L394.061 305.119L396.17 305.801L395.26 308.686C397.079 309.36 398.7 310.483 399.977 311.951L398.091 314.187C397.056 313.018 395.789 312.081 394.372 311.436L392.696 316.669C395.338 318.302 398.157 320.214 397.014 323.814C396.17 326.498 393.517 328.197 389.344 327.303V327.258Z" fill="#E0E0E0"/>
<path d="M94.5132 252.905C105.447 248.988 111.158 236.883 107.269 225.87C103.38 214.856 91.3635 209.103 80.4298 213.02C69.4961 216.938 63.7852 229.042 67.6743 240.056C71.5633 251.07 83.5795 256.823 94.5132 252.905Z" fill="#F0F0F0"/>
<path d="M89.4448 227.665C88.3348 228.302 88.3348 229.611 88.69 231.221L92.908 228.884C91.7203 227.33 90.4882 227.095 89.4448 227.665Z" fill="#E0E0E0"/>
<path d="M86.4016 235.034L82.2058 237.359C83.4157 238.958 84.6256 239.249 85.6468 238.679C86.668 238.109 86.779 236.689 86.4016 235.034Z" fill="#E0E0E0"/>
<path d="M103.23 224.255C101.521 221.124 98.9284 218.573 95.7803 216.926C92.6323 215.279 89.07 214.609 85.5441 215.001C82.0181 215.393 78.6866 216.829 75.971 219.129C73.2553 221.428 71.2774 224.486 70.2873 227.918C69.2972 231.349 69.3393 234.999 70.4084 238.407C71.4775 241.814 73.5255 244.825 76.2935 247.06C79.0615 249.295 82.4252 250.653 85.9593 250.962C89.4934 251.272 93.0392 250.519 96.1484 248.798C100.317 246.488 103.404 242.605 104.732 238.003C106.06 233.401 105.52 228.456 103.23 224.255ZM79.6427 238.791L76.9898 240.255L75.8798 238.299L78.5105 236.845C77.4204 234.711 76.9949 232.295 77.2895 229.913L80.2643 229.655C79.9811 231.617 80.2623 233.619 81.0746 235.425L85.8032 232.809C85.004 229.801 84.3047 226.491 87.6014 224.669C90.0101 223.327 93.0848 223.931 95.4713 227.453L98.1464 225.977L99.2564 227.934L96.5702 229.387C97.4307 231.139 97.8427 233.08 97.769 235.034L94.8497 235.369C94.8875 233.803 94.6041 232.246 94.0172 230.796L89.2331 233.446C90.0323 236.454 90.7871 239.797 87.4904 241.62C85.1039 242.961 82.0514 242.324 79.6205 238.791H79.6427Z" fill="#E0E0E0"/>
<path d="M277.5 416.575C396.361 416.575 492.718 410.909 492.718 403.918C492.718 396.928 396.361 391.261 277.5 391.261C158.638 391.261 62.282 396.928 62.282 403.918C62.282 410.909 158.638 416.575 277.5 416.575Z" fill="#F5F5F5"/>
<path d="M426.473 57.9087H422.033C409.823 57.9087 399.911 69.9511 399.911 84.8112C399.911 99.6714 409.812 111.714 422.033 111.714H426.473C438.683 111.714 448.607 99.6714 448.607 84.8112C448.607 69.9511 438.694 57.9087 426.473 57.9087Z" fill="#407BFF"/>
<path opacity="0.2" d="M426.473 57.9087H422.033C409.823 57.9087 399.911 69.9511 399.911 84.8112C399.911 99.6714 409.812 111.714 422.033 111.714H426.473C438.683 111.714 448.607 99.6714 448.607 84.8112C448.607 69.9511 438.694 57.9087 426.473 57.9087Z" fill="black"/>
<path d="M422.023 111.714C434.247 111.714 444.156 99.6691 444.156 84.8112C444.156 69.9534 434.247 57.9087 422.023 57.9087C409.799 57.9087 399.889 69.9534 399.889 84.8112C399.889 99.6691 409.799 111.714 422.023 111.714Z" fill="#407BFF"/>
<path opacity="0.3" d="M422.022 107.778C432.456 107.778 440.915 97.4953 440.915 84.8112C440.915 72.127 432.456 61.8445 422.022 61.8445C411.588 61.8445 403.13 72.127 403.13 84.8112C403.13 97.4953 411.588 107.778 422.022 107.778Z" fill="white"/>
<path d="M423.377 97.1891V101.069H421.046V97.2785C418.463 97.1591 416 96.1439 414.075 94.4049L415.352 90.9051C416.917 92.38 418.915 93.3022 421.046 93.5327V86.6226C417.882 85.6834 414.497 84.3863 414.497 79.6342C414.497 76.1009 416.606 73.026 421.046 72.5005V68.5981H423.377V72.4334C425.468 72.5569 427.477 73.2913 429.16 74.5467L427.995 78.0353C426.625 77.0503 425.042 76.41 423.377 76.168V83.1564C426.541 84.0956 429.981 85.3032 429.981 90.1112C429.981 93.5998 427.85 96.6412 423.377 97.1891ZM421.046 82.3848V76.2239C420.257 76.2782 419.519 76.6357 418.984 77.2224C418.449 77.8092 418.158 78.5805 418.171 79.377C418.171 81.0431 419.392 81.8034 421.046 82.3848ZM426.341 90.3796C426.341 88.68 425.086 87.8861 423.377 87.3047V93.4209C425.453 93.0408 426.341 91.8667 426.341 90.3796Z" fill="#407BFF"/>
<path d="M456.986 128.821H396.269C394.903 128.821 393.593 129.368 392.627 130.341C391.662 131.314 391.119 132.634 391.119 134.01V403.65H462.159V134.01C462.16 133.326 462.027 132.649 461.768 132.017C461.508 131.386 461.127 130.812 460.646 130.33C460.165 129.847 459.594 129.466 458.966 129.207C458.338 128.948 457.665 128.817 456.986 128.821Z" fill="#407BFF"/>
<path opacity="0.1" d="M456.986 128.821H396.269C394.903 128.821 393.593 129.368 392.627 130.341C391.662 131.314 391.119 132.634 391.119 134.01V403.65H462.159V134.01C462.16 133.326 462.027 132.649 461.768 132.017C461.508 131.386 461.127 130.812 460.646 130.33C460.165 129.847 459.594 129.466 458.966 129.207C458.338 128.948 457.665 128.817 456.986 128.821Z" fill="white"/>
<path opacity="0.3" d="M396.27 128.821H453.701C455.067 128.821 456.377 129.368 457.343 130.341C458.309 131.314 458.851 132.633 458.851 134.009V403.65H391.141V134.009C391.141 132.637 391.681 131.321 392.642 130.349C393.603 129.376 394.907 128.827 396.27 128.821Z" fill="white"/>
<path d="M354.467 218.329H293.706C292.347 218.341 291.049 218.892 290.092 219.864C289.136 220.836 288.6 222.149 288.6 223.517V271.004H320.124C319.324 270.201 318.69 269.246 318.26 268.194C317.829 267.142 317.61 266.015 317.615 264.877C317.592 262.948 318.227 261.068 319.412 259.553C320.598 258.037 322.263 256.976 324.131 256.547C325.997 256.976 327.661 258.038 328.845 259.554C330.029 261.07 330.661 262.949 330.635 264.877C330.642 266.014 330.424 267.141 329.996 268.193C329.567 269.244 328.936 270.2 328.138 271.004H359.64V223.517C359.641 222.833 359.508 222.156 359.248 221.525C358.989 220.893 358.607 220.319 358.127 219.837C357.646 219.355 357.075 218.973 356.447 218.714C355.818 218.455 355.146 218.324 354.467 218.329Z" fill="#407BFF"/>
<path d="M331.423 322.529H328.093C328.891 323.333 329.523 324.289 329.951 325.34C330.38 326.392 330.597 327.519 330.591 328.656C330.616 330.584 329.984 332.463 328.8 333.979C327.617 335.495 325.953 336.557 324.086 336.986C322.219 336.557 320.553 335.496 319.368 333.98C318.182 332.465 317.548 330.586 317.571 328.656C317.566 327.518 317.785 326.391 318.215 325.339C318.646 324.287 319.279 323.332 320.079 322.529H288.6V403.65H359.64V322.529H331.423Z" fill="#407BFF"/>
<path opacity="0.1" d="M354.467 218.329H293.706C292.347 218.341 291.049 218.892 290.092 219.864C289.136 220.836 288.6 222.149 288.6 223.517V271.004H320.124C319.324 270.201 318.69 269.246 318.26 268.194C317.829 267.142 317.61 266.015 317.615 264.877C317.592 262.948 318.227 261.068 319.412 259.553C320.598 258.037 322.263 256.976 324.131 256.547C325.997 256.976 327.661 258.038 328.845 259.554C330.029 261.07 330.661 262.949 330.635 264.877C330.642 266.014 330.424 267.141 329.996 268.193C329.567 269.244 328.936 270.2 328.138 271.004H359.64V223.517C359.641 222.833 359.508 222.156 359.248 221.525C358.989 220.893 358.607 220.319 358.127 219.837C357.646 219.355 357.075 218.973 356.447 218.714C355.818 218.455 355.146 218.324 354.467 218.329Z" fill="white"/>
<path opacity="0.1" d="M331.423 322.529H328.093C328.891 323.333 329.523 324.289 329.951 325.34C330.38 326.392 330.597 327.519 330.591 328.656C330.616 330.584 329.984 332.463 328.8 333.979C327.617 335.495 325.953 336.557 324.086 336.986C322.219 336.557 320.553 335.496 319.368 333.98C318.182 332.465 317.548 330.586 317.571 328.656C317.566 327.518 317.785 326.391 318.215 325.339C318.646 324.287 319.279 323.332 320.079 322.529H288.6V403.65H359.64V322.529H331.423Z" fill="white"/>
<path opacity="0.3" d="M328.093 322.529C328.891 323.333 329.523 324.289 329.951 325.34C330.38 326.392 330.597 327.519 330.591 328.656C330.631 329.763 330.45 330.867 330.057 331.902C329.665 332.936 329.069 333.881 328.306 334.678C327.543 335.476 326.628 336.11 325.616 336.544C324.604 336.977 323.515 337.2 322.416 337.2C321.316 337.2 320.228 336.977 319.216 336.544C318.204 336.11 317.289 335.476 316.526 334.678C315.762 333.881 315.167 332.936 314.774 331.902C314.382 330.867 314.2 329.763 314.241 328.656C314.236 327.518 314.455 326.391 314.885 325.339C315.316 324.287 315.949 323.332 316.749 322.529H288.6V403.65H356.31V322.529H328.093Z" fill="white"/>
<path opacity="0.3" d="M288.6 223.517V271.005H316.794C315.994 270.201 315.36 269.246 314.93 268.194C314.499 267.142 314.28 266.015 314.285 264.877C314.245 263.77 314.426 262.666 314.819 261.632C315.211 260.597 315.807 259.653 316.57 258.855C317.333 258.057 318.248 257.423 319.26 256.99C320.272 256.556 321.36 256.333 322.46 256.333C323.56 256.333 324.648 256.556 325.66 256.99C326.672 257.423 327.587 258.057 328.35 258.855C329.113 259.653 329.709 260.597 330.102 261.632C330.494 262.666 330.676 263.77 330.635 264.877C330.642 266.014 330.424 267.141 329.996 268.193C329.567 269.245 328.936 270.2 328.138 271.005H356.31V223.517C356.311 222.836 356.179 222.162 355.922 221.532C355.664 220.903 355.286 220.331 354.808 219.849C354.331 219.367 353.764 218.985 353.14 218.724C352.515 218.463 351.846 218.329 351.17 218.329H293.706C292.347 218.341 291.049 218.892 290.092 219.864C289.136 220.836 288.6 222.149 288.6 223.517Z" fill="white"/>
<path d="M201.82 114.274H173.604C172.463 114.273 171.333 114.498 170.279 114.937C169.225 115.375 168.266 116.019 167.459 116.831C166.652 117.643 166.012 118.608 165.575 119.669C165.138 120.731 164.913 121.869 164.913 123.018V151.721C164.913 154.041 165.827 156.266 167.455 157.908C169.082 159.549 171.29 160.473 173.593 160.476H184.76L187.712 168.303L190.654 160.476H201.82C204.123 160.473 206.331 159.549 207.959 157.908C209.586 156.266 210.501 154.041 210.501 151.721V122.996C210.495 120.681 209.578 118.462 207.95 116.827C206.323 115.192 204.119 114.274 201.82 114.274Z" fill="#407BFF"/>
<path opacity="0.4" d="M201.82 114.274H173.604C172.463 114.273 171.333 114.498 170.279 114.937C169.225 115.375 168.266 116.019 167.459 116.831C166.652 117.643 166.012 118.608 165.575 119.669C165.138 120.731 164.913 121.869 164.913 123.018V151.721C164.913 154.041 165.827 156.266 167.455 157.908C169.082 159.549 171.29 160.473 173.593 160.476H184.76L187.712 168.303L190.654 160.476H201.82C204.123 160.473 206.331 159.549 207.959 157.908C209.586 156.266 210.501 154.041 210.501 151.721V122.996C210.495 120.681 209.578 118.462 207.95 116.827C206.323 115.192 204.119 114.274 201.82 114.274Z" fill="white"/>
<path d="M187.853 155.281C190.446 155.262 192.539 153.995 192.528 152.451C192.517 150.907 190.406 149.672 187.813 149.691C185.22 149.71 183.127 150.977 183.138 152.521C183.149 154.064 185.26 155.3 187.853 155.281Z" fill="#263238"/>
<path opacity="0.4" d="M187.853 155.281C190.446 155.262 192.539 153.995 192.528 152.451C192.517 150.907 190.406 149.672 187.813 149.691C185.22 149.71 183.127 150.977 183.138 152.521C183.149 154.064 185.26 155.3 187.853 155.281Z" fill="white"/>
<path d="M194.528 147.304C194.777 147.059 194.924 146.727 194.939 146.376C194.939 144.867 191.72 143.659 187.779 143.693C183.839 143.726 180.653 144.967 180.664 146.488C180.683 146.837 180.834 147.165 181.086 147.405C181.016 147.556 180.979 147.719 180.975 147.886C180.983 148.058 181.025 148.227 181.1 148.383C181.174 148.538 181.279 148.677 181.408 148.791C181.33 148.944 181.288 149.112 181.286 149.283C181.296 149.456 181.341 149.626 181.417 149.781C181.494 149.937 181.6 150.075 181.73 150.189C181.642 150.342 181.596 150.516 181.597 150.692C181.608 150.865 181.655 151.033 181.733 151.187C181.811 151.34 181.92 151.476 182.052 151.587C181.962 151.739 181.912 151.912 181.907 152.09C181.907 153.353 184.582 154.326 187.857 154.326C191.131 154.326 193.784 153.208 193.773 152C193.77 151.821 193.716 151.647 193.618 151.497C193.75 151.388 193.859 151.252 193.935 151.098C194.012 150.944 194.055 150.775 194.062 150.603C194.064 150.424 194.014 150.249 193.917 150.1C194.125 149.944 194.271 149.72 194.332 149.467C194.393 149.214 194.364 148.947 194.25 148.713C194.502 148.473 194.653 148.145 194.672 147.796C194.663 147.623 194.613 147.455 194.528 147.304Z" fill="#263238"/>
<path d="M200.344 133.819C200.336 131.669 199.787 129.557 198.748 127.678C197.71 125.8 196.216 124.217 194.406 123.078C192.596 121.939 190.529 121.28 188.398 121.164C186.266 121.047 184.141 121.476 182.219 122.411C180.297 123.346 178.642 124.756 177.407 126.51C176.173 128.264 175.4 130.305 175.16 132.441C174.921 134.578 175.223 136.74 176.037 138.727C176.852 140.714 178.154 142.461 179.82 143.804C180.088 144.019 180.299 144.297 180.436 144.612C180.574 144.928 180.633 145.272 180.608 145.616C180.603 145.649 180.603 145.683 180.608 145.716C180.608 147.248 183.872 148.478 187.879 148.445C191.886 148.411 195.116 147.148 195.105 145.605V145.504C195.075 145.16 195.129 144.815 195.263 144.497C195.396 144.179 195.605 143.899 195.871 143.681C197.291 142.471 198.429 140.959 199.202 139.254C199.976 137.55 200.366 135.694 200.344 133.819Z" fill="#407BFF"/>
<path opacity="0.9" d="M200.344 133.819C200.336 131.669 199.787 129.557 198.748 127.678C197.71 125.8 196.216 124.217 194.406 123.078C192.596 121.939 190.529 121.28 188.398 121.164C186.266 121.047 184.141 121.476 182.219 122.411C180.297 123.346 178.642 124.756 177.407 126.51C176.173 128.264 175.4 130.305 175.16 132.441C174.921 134.578 175.223 136.74 176.037 138.727C176.852 140.714 178.154 142.461 179.82 143.804C180.088 144.019 180.299 144.297 180.436 144.612C180.574 144.928 180.633 145.272 180.608 145.616C180.603 145.649 180.603 145.683 180.608 145.716C180.608 147.248 183.872 148.478 187.879 148.445C191.886 148.411 195.116 147.148 195.105 145.605V145.504C195.075 145.16 195.129 144.815 195.263 144.497C195.396 144.179 195.605 143.899 195.871 143.681C197.291 142.471 198.429 140.959 199.202 139.254C199.976 137.55 200.366 135.694 200.344 133.819Z" fill="white"/>
<g opacity="0.2">
<path d="M185.205 146.689C185.084 146.689 184.969 146.641 184.883 146.555C184.798 146.469 184.75 146.352 184.75 146.231C184.75 141.848 181.187 138.493 181.154 138.46C181.09 138.396 181.047 138.315 181.029 138.228C181.011 138.14 181.019 138.048 181.053 137.965C181.086 137.882 181.142 137.81 181.216 137.759C181.289 137.707 181.375 137.679 181.464 137.677H183.54L184.173 136.156C184.203 136.076 184.256 136.007 184.325 135.958C184.394 135.908 184.476 135.88 184.561 135.877C184.647 135.869 184.732 135.888 184.808 135.93C184.883 135.971 184.944 136.035 184.983 136.112L186.171 138.27L187.281 136.089C187.324 136.018 187.384 135.958 187.456 135.915C187.527 135.872 187.608 135.847 187.691 135.843C187.774 135.849 187.854 135.876 187.923 135.921C187.993 135.966 188.051 136.027 188.091 136.1L189.268 138.538L190.378 136.089C190.416 136.011 190.474 135.945 190.546 135.898C190.619 135.851 190.702 135.824 190.788 135.821C190.876 135.824 190.961 135.852 191.034 135.901C191.106 135.95 191.164 136.02 191.199 136.1L191.854 137.621H193.93C194.028 137.622 194.124 137.656 194.202 137.716C194.28 137.777 194.336 137.861 194.363 137.956C194.389 138.052 194.384 138.155 194.348 138.247C194.312 138.34 194.247 138.419 194.163 138.471C191.199 140.237 190.367 146.242 190.355 146.298C190.331 146.41 190.266 146.51 190.172 146.576C190.078 146.642 189.963 146.67 189.849 146.655C189.736 146.639 189.633 146.581 189.56 146.492C189.487 146.403 189.45 146.29 189.456 146.175C189.456 145.94 190.167 141.054 192.631 138.549H191.521C191.432 138.552 191.344 138.528 191.269 138.48C191.194 138.432 191.135 138.363 191.099 138.281L190.722 137.409L189.612 139.813C189.574 139.89 189.516 139.955 189.443 140.001C189.37 140.046 189.287 140.07 189.201 140.07C189.116 140.068 189.033 140.043 188.961 139.997C188.889 139.952 188.83 139.888 188.79 139.813L187.58 137.33L186.47 139.466C186.431 139.537 186.373 139.597 186.302 139.638C186.232 139.68 186.152 139.701 186.071 139.701C185.904 139.701 185.749 139.611 185.671 139.466L184.561 137.397L184.184 138.325C184.148 138.408 184.089 138.478 184.014 138.528C183.939 138.577 183.852 138.604 183.762 138.605H182.43C184.325 140.715 185.435 143.422 185.571 146.264C185.571 146.384 185.525 146.499 185.442 146.585C185.359 146.67 185.246 146.72 185.127 146.723L185.205 146.689Z" fill="black"/>
</g>
<path d="M149.429 380.56H88.6785C88.0008 380.559 87.3295 380.692 86.7032 380.953C86.077 381.214 85.5081 381.597 85.0294 382.08C84.5507 382.564 84.1716 383.137 83.914 383.769C83.6563 384.4 83.5252 385.077 83.5281 385.759V403.65H154.568V385.759C154.571 385.078 154.44 384.402 154.183 383.771C153.926 383.141 153.548 382.567 153.071 382.084C152.593 381.601 152.026 381.218 151.401 380.956C150.776 380.695 150.106 380.56 149.429 380.56Z" fill="#407BFF"/>
<path opacity="0.1" d="M149.429 380.56H88.6785C88.0008 380.559 87.3295 380.692 86.7032 380.953C86.077 381.214 85.5081 381.597 85.0294 382.08C84.5507 382.564 84.1716 383.137 83.914 383.769C83.6563 384.4 83.5252 385.077 83.5281 385.759V403.65H154.568V385.759C154.571 385.078 154.44 384.402 154.183 383.771C153.926 383.141 153.548 382.567 153.071 382.084C152.593 381.601 152.026 381.218 151.401 380.956C150.776 380.695 150.106 380.56 149.429 380.56Z" fill="white"/>
<path opacity="0.3" d="M88.6788 380.56H146.11C147.476 380.56 148.786 381.107 149.752 382.08C150.718 383.053 151.261 384.372 151.261 385.748V403.65H83.5505V385.759C83.5476 384.385 84.0859 383.066 85.0473 382.091C86.0087 381.117 87.3147 380.566 88.6788 380.56Z" fill="white"/>
<path d="M251.971 325.268H191.188C190.512 325.268 189.843 325.402 189.218 325.663C188.594 325.924 188.027 326.306 187.55 326.788C187.072 327.27 186.694 327.842 186.436 328.472C186.179 329.101 186.047 329.775 186.048 330.456V403.65H257.088V330.412C257.077 329.049 256.534 327.746 255.576 326.784C254.619 325.821 253.324 325.277 251.971 325.268Z" fill="#407BFF"/>
<path opacity="0.1" d="M251.971 325.268H191.188C190.512 325.268 189.843 325.402 189.218 325.663C188.594 325.924 188.027 326.306 187.55 326.788C187.072 327.27 186.694 327.842 186.436 328.472C186.179 329.101 186.047 329.775 186.048 330.456V403.65H257.088V330.412C257.077 329.049 256.534 327.746 255.576 326.784C254.619 325.821 253.324 325.277 251.971 325.268Z" fill="white"/>
<path opacity="0.3" d="M191.187 325.268H248.641C250.007 325.268 251.317 325.815 252.283 326.788C253.248 327.761 253.791 329.08 253.791 330.456V403.65H186.081V330.412C186.093 329.051 186.634 327.75 187.589 326.787C188.544 325.825 189.836 325.28 191.187 325.268Z" fill="white"/>
<path d="M205.25 223.383C209.446 226.033 217.349 241.966 217.349 241.966L210.39 247.401L200.91 236.622L205.25 223.383Z" fill="#263238"/>
<path opacity="0.4" d="M217.349 241.966L210.39 247.401L205.15 241.519L200.91 236.622L202.464 231.937L205.306 223.383C209.446 226.033 217.349 241.966 217.349 241.966Z" fill="white"/>
<path opacity="0.2" d="M205.15 241.519L200.91 236.622L202.464 231.937C203.799 234.989 204.703 238.214 205.15 241.519Z" fill="black"/>
<path d="M197.326 275.287L168.565 271.083L171.651 239.439L200.844 242.66L197.326 275.287Z" fill="#263238"/>
<path opacity="0.3" d="M197.326 275.287L168.565 271.083L171.651 239.439L200.844 242.66L197.326 275.287Z" fill="white"/>
<path d="M156.377 322.327L178.988 323.904L178.477 315.059L154.046 317.575" fill="#FFC2BC"/>
<path d="M150.706 314.299L150.362 315.54L151.782 316.312C150.157 318.121 148.783 320.145 147.698 322.327C146.586 324.815 145.96 327.495 145.855 330.221C145.855 330.221 147.032 332.335 149.74 327.784C149.87 327.563 150.022 327.357 150.195 327.169C152.171 324.932 157.355 322.338 157.355 322.338L158.975 316.658C158.76 316.413 158.53 316.181 158.287 315.965C157.297 315.012 156.066 314.353 154.729 314.059C153.391 313.765 151.999 313.848 150.706 314.299Z" fill="#263238"/>
<path d="M158.286 315.965C158.897 316.96 154.29 319.32 152.337 321.466C150.605 323.378 149.406 325.738 150.206 327.18C152.181 324.944 158.686 322.305 158.686 322.305L159.985 317.743C159.985 317.743 158.73 316.435 158.286 315.965Z" fill="#FFC2BC"/>
<path d="M191.931 258.906L195.116 273.722C195.116 273.722 224.387 302.301 224.265 313.416C224.265 315.719 226.596 322.719 208.803 324.899C199.823 326.017 163.57 323.311 163.57 323.311V315.316C163.57 315.316 188.734 311.414 202.242 311.157L172.417 284.389L162.36 271.496L170.13 253.483L191.931 258.906Z" fill="#263238"/>
<path opacity="0.2" d="M208.803 324.899C204.181 325.225 199.544 325.27 194.916 325.033C181.197 324.619 163.57 323.311 163.57 323.311V315.316C163.57 315.316 181.108 312.599 194.761 311.548C197.469 311.347 200.011 311.202 202.242 311.157L192.086 302.044L172.417 284.389L168.565 279.446L162.36 271.496L170.13 253.483L191.964 258.929L195.15 273.744C195.15 273.744 224.42 302.324 224.298 313.438C224.22 315.719 226.596 322.719 208.803 324.899Z" fill="white"/>
<path opacity="0.2" d="M172.417 284.366L168.565 279.424L175.925 274.84C175.925 274.84 185.515 283.505 192.086 302.022L172.417 284.366Z" fill="black"/>
<path opacity="0.2" d="M194.916 325.033C181.197 324.619 163.57 323.311 163.57 323.311V315.316C163.57 315.316 181.108 312.599 194.761 311.548C195.433 316.014 195.485 320.553 194.916 325.033Z" fill="black"/>
<path d="M131.891 379.968H133.167L133.567 378.391L137.729 380.437L148.408 380.75C148.408 380.75 150.15 379.084 145.078 377.564C144.829 377.483 144.588 377.382 144.356 377.262C141.681 375.898 137.951 371.458 137.951 371.458L132.091 371.291C131.228 372.555 130.747 374.044 130.706 375.578C130.664 377.111 131.064 378.624 131.857 379.934L131.891 379.968Z" fill="#263238"/>
<path d="M131.624 372.163C132.423 371.313 135.831 375.238 138.373 376.636C140.593 377.854 143.212 378.447 144.389 377.306C141.714 375.942 137.618 370.229 137.618 370.229L132.901 370.083C132.901 370.083 131.913 371.615 131.624 372.163Z" fill="#FFC2BC"/>
<path d="M137.985 371.492L154.202 355.559L147.32 350.046L132.901 370.072" fill="#FFC2BC"/>
<path d="M190.366 317.553C188.412 304.247 184.416 287.173 181.086 273.945L179.587 257.173L163.57 254.389C163.57 254.389 155.8 268.243 159.386 281.325C162.138 291.5 168.266 303.867 176.335 318.414C158.72 332.547 144.223 350.773 135.998 363.218C136.66 364.349 137.5 365.364 138.484 366.226C139.614 367.326 140.955 368.182 142.425 368.741C155.356 356.285 173.061 340.788 185.537 329.036C189.711 325.246 191.409 322.092 190.366 317.553Z" fill="#263238"/>
<path opacity="0.2" d="M190.366 317.553C188.412 304.247 184.416 287.173 181.086 273.945L179.587 257.173L163.57 254.389C163.57 254.389 155.8 268.243 159.386 281.325C162.138 291.5 168.266 303.867 176.335 318.414C158.72 332.547 144.223 350.773 135.998 363.218C136.66 364.349 137.5 365.364 138.484 366.226C139.614 367.326 140.955 368.182 142.425 368.741C155.356 356.285 173.061 340.788 185.537 329.036C189.711 325.246 191.409 322.092 190.366 317.553Z" fill="white"/>
<path d="M205.25 223.383C205.25 223.383 202.808 243.23 191.93 258.906C191.93 258.906 168.731 255.965 163.57 254.434C166.778 244.862 168.698 238.467 170.03 220.509C170.352 216.182 174.248 213.688 178.499 214.46C182.683 214.748 186.812 215.574 190.787 216.92C195.73 218.786 200.559 220.944 205.25 223.383Z" fill="#407BFF"/>
<path opacity="0.8" d="M205.25 223.383C204.522 228.344 203.386 233.236 201.854 238.008C199.591 245.43 196.247 252.473 191.93 258.906C191.93 258.906 168.731 255.965 163.559 254.434C164.169 252.633 164.735 250.945 165.246 249.268C167.025 243.586 168.259 237.744 168.931 231.825C169.297 229.029 169.597 225.865 169.908 222.209C169.908 221.661 169.985 221.091 170.03 220.52C170.352 216.182 174.248 213.688 178.499 214.46C179.099 214.572 180.375 214.594 182.384 214.885C182.573 214.885 182.75 214.885 182.928 214.952C185.594 215.387 188.222 216.034 190.787 216.886C192.074 217.3 193.595 217.904 195.227 218.586C200 220.666 205.25 223.383 205.25 223.383Z" fill="white"/>
<path d="M181.919 236.678C181.63 239.149 181.297 241.776 180.864 244.572C180.798 244.974 180.753 245.198 180.753 245.198C180.309 248.038 179.765 251.035 179.121 254.143C177.696 261.123 175.899 268.021 173.738 274.806L155.911 269.663C155.911 269.663 164.447 248.418 166.512 241.407C166.748 240.598 166.941 239.777 167.089 238.947C167.844 234.922 168.132 229.622 168.576 225.138C168.954 221.337 169.453 218.105 170.441 216.719C172.239 214.203 178.211 214.482 181.197 214.728H181.308C181.808 214.728 182.218 214.829 182.496 214.874H182.929C183.161 222.157 182.823 229.448 181.919 236.678Z" fill="#263238"/>
<path d="M195.182 218.608C195.182 218.608 201.298 231.937 196.015 276.193L199.833 275.164L202.02 245.5C202.02 245.5 205.261 229.141 205.283 223.383C205.25 223.383 197.813 218.787 195.182 218.608Z" fill="#263238"/>
<path opacity="0.4" d="M181.919 236.678C181.63 239.149 181.297 241.776 180.864 244.572C180.798 244.974 180.753 245.198 180.753 245.198C180.309 248.038 179.765 251.035 179.121 254.143C177.696 261.123 175.899 268.021 173.738 274.806L155.911 269.663C155.911 269.663 164.447 248.418 166.512 241.407C166.748 240.598 166.941 239.777 167.089 238.947C167.844 234.922 168.132 229.622 168.576 225.138C168.954 221.337 169.453 218.105 170.441 216.719C172.239 214.203 178.211 214.482 181.197 214.728H181.308C181.808 214.728 182.218 214.829 182.496 214.874H182.929C183.161 222.157 182.823 229.448 181.919 236.678Z" fill="white"/>
<path opacity="0.4" d="M195.182 218.608C195.182 218.608 201.298 231.937 196.015 276.193L199.833 275.164L202.02 245.5C202.02 245.5 205.261 229.141 205.283 223.383C205.25 223.383 197.813 218.787 195.182 218.608Z" fill="white"/>
<path d="M182.04 237.047C181.574 240.591 181.097 243.42 180.93 244.628C180.864 245.03 180.819 245.254 180.819 245.254L178.067 228.101L177.245 222.824L181.197 223.763L175.38 218.608L181.197 214.762H181.308L182.495 214.907H182.928C183.894 220.509 182.951 230.103 182.04 237.047Z" fill="#263238"/>
<path d="M195.183 218.608L194.395 217.557C194.395 217.557 199.945 221.102 202.087 225.384L198.691 226.849L201.455 227.844L198.202 246.573C198.202 246.573 197.092 225.798 195.239 219.357" fill="#263238"/>
<path opacity="0.2" d="M182.04 237.047C181.574 240.591 181.097 243.42 180.93 244.628C180.864 245.03 180.819 245.254 180.819 245.254L178.067 228.101L177.245 222.824L181.197 223.763L175.38 218.608L181.197 214.762H181.308L182.495 214.907H182.928C183.894 220.509 182.951 230.103 182.04 237.047Z" fill="white"/>
<path opacity="0.2" d="M195.183 218.608L194.395 217.557C194.395 217.557 199.945 221.102 202.087 225.384L198.691 226.849L201.455 227.844L198.202 246.573C198.202 246.573 197.092 225.798 195.239 219.357" fill="white"/>
<path opacity="0.2" d="M182.04 237.047C181.574 240.591 181.097 243.42 180.93 244.628C180.864 245.03 180.819 245.254 180.819 245.254C180.375 248.094 179.831 251.09 179.188 254.199C173.971 252.578 169.875 245.421 167.155 239.003C167.91 234.978 168.199 229.678 168.643 225.194C171.251 224.076 174.193 223.428 175.924 224.881C176.824 225.817 177.573 226.888 178.144 228.057C179.643 230.832 180.931 233.717 181.996 236.689L182.04 237.047Z" fill="black"/>
<path d="M180.93 224.747C180.93 224.747 178.222 209.205 190.432 214.303C198.135 217.513 198.202 229.085 198.202 229.085L194.794 225.563C193.822 228.969 192.605 232.298 191.153 235.526C188.24 231.851 186.119 227.605 184.926 223.059L180.93 224.747Z" fill="#407BFF"/>
<path opacity="0.7" d="M180.93 224.747C180.93 224.747 178.222 209.205 190.432 214.303C198.135 217.513 198.202 229.085 198.202 229.085L194.794 225.563C193.822 228.969 192.605 232.298 191.153 235.526C188.24 231.851 186.119 227.605 184.926 223.059L180.93 224.747Z" fill="white"/>
<path d="M193.84 221.024C194.229 225.664 191.098 235.258 191.098 235.258C186.359 230.595 184.871 215.578 184.871 215.578C186.27 215.422 186.914 212.995 187.213 210.658C187.391 209.197 187.476 207.725 187.469 206.253L195.106 208.869C193.954 211.405 193.288 214.136 193.141 216.92C193.098 217.742 193.166 218.565 193.341 219.369C193.477 219.929 193.644 220.482 193.84 221.024Z" fill="#FFC2BC"/>
<path opacity="0.2" d="M195.106 208.869C193.955 211.405 193.288 214.136 193.141 216.92C190.569 215.495 188.49 213.315 187.18 210.669C187.358 209.208 187.443 207.736 187.436 206.264L195.106 208.869Z" fill="black"/>
<path d="M182.418 189.481C182.418 189.481 180.198 184.796 175.436 186.831C170.674 188.866 170.896 198.873 178.666 195.776C186.436 192.679 182.418 189.481 182.418 189.481Z" fill="#263238"/>
<path d="M185.204 189.089C185.204 189.089 182.506 187.915 179.654 191.258C176.801 194.602 178.744 198.493 179.487 198.079C180.231 197.665 185.581 191.203 185.204 189.089Z" fill="#407BFF"/>
<path d="M191.176 209.339C191.176 209.339 183.229 213.934 178.789 202.406C174.349 190.878 190.754 181.162 195.894 190.979C201.033 200.796 191.176 209.339 191.176 209.339Z" fill="#263238"/>
<path d="M182.041 199.756C184.261 206.342 185.082 209.171 189.378 211.866C195.849 215.914 203.408 212.168 203.175 205.157C202.964 198.84 199.346 189.134 192.075 187.904C190.531 187.602 188.935 187.718 187.45 188.241C185.965 188.764 184.645 189.675 183.624 190.88C182.603 192.086 181.919 193.543 181.641 195.103C181.363 196.662 181.501 198.268 182.041 199.756Z" fill="#FFC2BC"/>
<path d="M187.069 194.031C184.05 199.387 192.464 203.826 184.849 204.609C177.235 205.392 178.722 194.11 182.896 190.99C187.069 187.87 187.069 194.031 187.069 194.031Z" fill="#263238"/>
<path d="M182.884 191.069C184.494 195.541 185.404 196.659 189.3 194.792C188.561 193.954 188.133 192.882 188.09 191.762C188.649 192.829 189.602 193.632 190.743 193.998C191.765 193.368 192.852 192.85 193.984 192.455C193.674 191.845 193.507 191.172 193.496 190.487C193.925 191.208 194.554 191.787 195.305 192.153C196.561 191.983 197.836 192.02 199.079 192.265C198.358 187.367 189.422 183.376 182.884 191.069Z" fill="#263238"/>
<path d="M192.797 199.343C192.964 199.902 193.386 200.293 193.752 200.204C194.118 200.114 194.274 199.611 194.107 199.086C193.941 198.56 193.519 198.135 193.152 198.213C192.786 198.292 192.642 198.772 192.797 199.343Z" fill="#263238"/>
<path d="M199.612 197.911C199.767 198.47 200.2 198.862 200.555 198.772C200.91 198.683 201.077 198.18 200.91 197.654C200.744 197.129 200.322 196.704 199.967 196.782C199.612 196.86 199.445 197.363 199.612 197.911Z" fill="#263238"/>
<path d="M199.801 196.793L201.01 196.111C201.01 196.111 200.655 197.352 199.801 196.793Z" fill="#263238"/>
<path d="M197.991 199.264C198.854 200.442 199.866 201.502 201 202.418C200.771 202.684 200.486 202.896 200.165 203.035C199.844 203.174 199.495 203.239 199.146 203.223L197.991 199.264Z" fill="#D4827D"/>
<path d="M196.581 206.007C196.898 205.991 197.213 205.95 197.524 205.884C197.545 205.879 197.565 205.869 197.582 205.856C197.599 205.843 197.613 205.827 197.623 205.808C197.634 205.789 197.64 205.768 197.642 205.746C197.644 205.725 197.642 205.703 197.635 205.683C197.631 205.659 197.623 205.637 197.61 205.617C197.597 205.597 197.58 205.58 197.56 205.568C197.54 205.555 197.517 205.547 197.494 205.543C197.471 205.54 197.447 205.542 197.424 205.548C196.72 205.705 195.991 205.702 195.288 205.54C194.585 205.377 193.927 205.059 193.362 204.609C193.348 204.587 193.33 204.569 193.309 204.555C193.287 204.541 193.263 204.533 193.237 204.53C193.212 204.528 193.186 204.531 193.162 204.54C193.138 204.548 193.117 204.563 193.099 204.581C193.082 204.6 193.068 204.622 193.061 204.647C193.053 204.671 193.051 204.697 193.055 204.723C193.059 204.748 193.069 204.772 193.083 204.793C193.098 204.814 193.117 204.832 193.14 204.844C194.107 205.643 195.331 206.057 196.581 206.007Z" fill="#263238"/>
<path d="M182.274 206.387C182.635 206.944 183.108 207.419 183.663 207.781C184.217 208.143 184.84 208.384 185.493 208.489C187.125 208.679 187.535 206.778 186.758 205.045C186.059 203.491 184.372 201.523 182.895 202.138C181.419 202.753 181.264 204.911 182.274 206.387Z" fill="#FFC2BC"/>
<path d="M190.444 196.536C190.488 196.531 190.531 196.516 190.569 196.493C190.608 196.47 190.641 196.439 190.666 196.402C190.893 196.062 191.198 195.782 191.556 195.587C191.913 195.393 192.313 195.288 192.719 195.284C192.762 195.287 192.805 195.281 192.845 195.267C192.885 195.252 192.922 195.23 192.954 195.2C192.985 195.171 193.01 195.135 193.027 195.096C193.044 195.056 193.052 195.014 193.052 194.971C193.047 194.879 193.01 194.793 192.947 194.727C192.883 194.661 192.799 194.621 192.708 194.613C192.188 194.613 191.676 194.744 191.219 194.994C190.761 195.244 190.373 195.605 190.089 196.044C190.064 196.083 190.048 196.126 190.04 196.171C190.033 196.217 190.034 196.263 190.044 196.308C190.055 196.353 190.074 196.395 190.1 196.432C190.127 196.469 190.161 196.501 190.2 196.525C190.278 196.554 190.363 196.558 190.444 196.536Z" fill="#263238"/>
<path d="M200.677 194.412C200.762 194.409 200.841 194.373 200.899 194.311C200.954 194.24 200.979 194.149 200.969 194.059C200.958 193.969 200.914 193.887 200.844 193.83C200.44 193.46 199.956 193.189 199.43 193.039C198.904 192.89 198.35 192.866 197.814 192.969C197.772 192.981 197.732 193.001 197.698 193.028C197.665 193.056 197.637 193.09 197.617 193.129C197.597 193.168 197.585 193.211 197.583 193.254C197.581 193.298 197.587 193.342 197.603 193.383C197.631 193.468 197.69 193.54 197.768 193.584C197.846 193.627 197.938 193.639 198.025 193.618C198.451 193.548 198.888 193.575 199.303 193.696C199.717 193.818 200.1 194.032 200.422 194.322C200.456 194.354 200.496 194.379 200.54 194.394C200.584 194.41 200.631 194.416 200.677 194.412Z" fill="#263238"/>
<path d="M193.007 198.247L194.217 197.565C194.217 197.565 193.84 198.761 193.007 198.247Z" fill="#263238"/>
<path d="M248.108 303.431L267.688 255.831L242.069 245.142C243.355 244.585 244.488 243.724 245.373 242.632C246.258 241.54 246.869 240.249 247.153 238.869C247.523 237.268 247.411 235.592 246.831 234.054C246.252 232.517 245.232 231.188 243.901 230.237C243 229.623 241.982 229.206 240.911 229.013C239.84 228.821 238.741 228.857 237.685 229.119C235.955 229.062 234.25 229.543 232.802 230.498C231.354 231.452 230.234 232.833 229.593 234.452C228.9 236.133 228.745 237.99 229.149 239.764L206.139 230.159L203.919 230.371L184.338 277.959L209.957 288.66C208.671 289.214 207.536 290.073 206.649 291.163C205.762 292.253 205.149 293.542 204.862 294.922C204.494 296.524 204.608 298.201 205.189 299.738C205.77 301.276 206.793 302.604 208.126 303.554C209.026 304.168 210.045 304.585 211.116 304.778C212.187 304.97 213.286 304.934 214.342 304.672C216.071 304.729 217.776 304.248 219.224 303.293C220.672 302.339 221.793 300.958 222.434 299.338C223.127 297.658 223.282 295.801 222.878 294.027L245.888 303.632L248.108 303.431Z" fill="#407BFF"/>
<path opacity="0.3" d="M248.108 303.431L267.688 255.831L242.069 245.142C243.355 244.585 244.488 243.724 245.373 242.632C246.258 241.54 246.869 240.249 247.153 238.869C247.523 237.268 247.411 235.592 246.831 234.054C246.252 232.517 245.232 231.188 243.901 230.237C243 229.623 241.982 229.206 240.911 229.013C239.84 228.821 238.741 228.857 237.685 229.119C235.955 229.062 234.25 229.543 232.802 230.498C231.354 231.452 230.234 232.833 229.593 234.452C228.9 236.133 228.745 237.99 229.149 239.764L206.139 230.159L203.919 230.371L184.338 277.959L209.957 288.66C208.671 289.214 207.536 290.073 206.649 291.163C205.762 292.253 205.149 293.542 204.862 294.922C204.494 296.524 204.608 298.201 205.189 299.738C205.77 301.276 206.793 302.604 208.126 303.554C209.026 304.168 210.045 304.585 211.116 304.778C212.187 304.97 213.286 304.934 214.342 304.672C216.071 304.729 217.776 304.248 219.224 303.293C220.672 302.339 221.793 300.958 222.434 299.338C223.127 297.658 223.282 295.801 222.878 294.027L245.888 303.632L248.108 303.431Z" fill="black"/>
<path d="M267.688 255.831L242.07 245.142C243.355 244.585 244.489 243.724 245.374 242.632C246.259 241.54 246.869 240.249 247.153 238.869C247.689 236.843 247.421 234.687 246.407 232.857C245.393 231.027 243.712 229.666 241.719 229.061C239.727 228.457 237.579 228.657 235.73 229.62C233.881 230.582 232.477 232.231 231.813 234.217C230.93 236.33 230.91 238.709 231.758 240.837L206.139 230.136L186.559 277.724L212.177 288.481C210.89 289.036 209.754 289.897 208.867 290.989C207.98 292.081 207.368 293.372 207.082 294.754C206.598 296.765 206.898 298.886 207.92 300.681C208.942 302.476 210.608 303.807 212.575 304.402C214.542 304.997 216.661 304.809 218.495 303.877C220.329 302.946 221.739 301.341 222.434 299.394C223.299 297.278 223.299 294.902 222.434 292.786L248.064 303.486L267.688 255.831Z" fill="#407BFF"/>
<path d="M244.478 247.613L242.147 245.265C242.045 245.168 241.964 245.051 241.908 244.921C241.853 244.791 241.824 244.651 241.824 244.51C241.824 244.369 241.853 244.229 241.908 244.099C241.964 243.969 242.045 243.852 242.147 243.755L243.257 242.794C243.481 242.588 243.746 242.432 244.034 242.337C244.323 242.241 244.628 242.208 244.93 242.24C245.232 242.272 245.523 242.367 245.786 242.52C246.049 242.674 246.276 242.881 246.453 243.129L249.251 247.009L249.573 248.127L247.863 247.412L245.754 247.915C245.533 247.976 245.301 247.981 245.078 247.928C244.854 247.875 244.648 247.767 244.478 247.613Z" fill="#FFC2BC"/>
<path d="M176.137 225.105C177.89 231.724 179.222 238.88 182.286 244.985C182.286 245.086 182.619 245.399 183.396 245.723C186.626 247.02 191.11 247.11 194.818 247.211C199.036 247.266 203.365 247.02 207.572 246.741C208.107 246.701 208.638 246.864 209.06 247.198C209.482 247.531 209.765 248.012 209.854 248.545C209.943 249.078 209.831 249.625 209.54 250.08C209.25 250.534 208.801 250.863 208.282 251.001C203.974 252.174 199.585 253.019 195.151 253.528C190.267 254.009 185.849 254.367 180.799 252.88C178.696 252.247 176.871 250.91 175.626 249.089L175.038 248.206C172.296 243.577 170.798 238.578 169.299 233.547C168.722 231.311 168.189 229.242 167.712 226.972C167.59 226.413 167.579 225.835 167.679 225.271C167.779 224.707 167.988 224.169 168.295 223.686C168.914 222.712 169.892 222.026 171.014 221.778C171.569 221.656 172.143 221.645 172.703 221.745C173.263 221.846 173.797 222.057 174.276 222.366C175.243 222.99 175.924 223.975 176.17 225.105H176.137Z" fill="#EBC0BB"/>
<path d="M206.239 247.11L211.345 243.699L212.3 250.856C211.103 251.187 209.847 251.241 208.627 251.014C207.406 250.788 206.252 250.286 205.251 249.547L206.239 247.11Z" fill="#FFC2BC"/>
<path d="M217.35 244.203L217.073 249.659L212.3 250.833L211.345 243.677L217.35 244.203Z" fill="#FFC2BC"/>
<path d="M171.907 215.578C165.757 217.814 166.29 226.625 169.465 237.248C172.639 247.87 177.579 254.445 182.396 255.138L186.77 246.461C185.424 245.718 184.166 244.826 183.018 243.8C181.22 241.564 175.381 219.402 175.381 219.402L171.907 215.578Z" fill="#263238"/>
<path opacity="0.4" d="M171.907 215.578C165.757 217.814 166.29 226.625 169.465 237.248C172.639 247.87 177.579 254.445 182.396 255.138L186.77 246.461C185.424 245.718 184.166 244.826 183.018 243.8C181.22 241.564 175.381 219.402 175.381 219.402L171.907 215.578Z" fill="white"/>
<path d="M187.346 245.947L184.871 244.717L177.689 255.093L183.017 255.596L187.346 245.947Z" fill="#263238"/>
<path opacity="0.2" d="M187.346 245.947L184.871 244.717L177.689 255.093L183.017 255.596L187.346 245.947Z" fill="white"/>
</svg>
