<svg width="358" height="318" viewBox="0 0 358 318" fill="none" xmlns="http://www.w3.org/2000/svg">
<path d="M217.664 49.3325C216.064 51.7782 214.939 54.5036 214.349 57.366L209.859 57.7884V66.4807L214.349 66.9031C214.939 69.7677 216.064 72.4955 217.664 74.9438L214.8 78.4021L220.943 84.5454L224.409 81.6814C226.852 83.2855 229.578 84.4105 232.442 84.9964L232.864 89.4858H241.557L241.979 84.9964C244.842 84.4092 247.568 83.2843 250.013 81.6814L253.478 84.5454L259.621 78.4021L256.757 74.9438C258.357 72.4955 259.482 69.7677 260.072 66.9031L264.562 66.4807V57.7884L260.072 57.366C259.482 54.5036 258.357 51.7782 256.757 49.3325L259.621 45.867L253.464 39.7238L249.998 42.5878C247.566 40.9927 244.855 39.8682 242.008 39.2727L241.585 34.7834H232.857L232.435 39.2727C229.572 39.8619 226.847 40.9867 224.401 42.5878L220.936 39.7238L214.8 45.867L217.664 49.3325ZM247.192 52.1965C249.165 54.1704 250.508 56.685 251.052 59.4223C251.596 62.1597 251.316 64.9969 250.248 67.5753C249.18 70.1536 247.371 72.3573 245.05 73.9077C242.73 75.4582 240.001 76.2857 237.211 76.2857C234.42 76.2857 231.691 75.4582 229.371 73.9077C227.05 72.3573 225.241 70.1536 224.173 67.5753C223.105 64.9969 222.825 62.1597 223.369 59.4223C223.913 56.685 225.256 54.1704 227.23 52.1965C229.872 49.5478 233.458 48.0563 237.2 48.0496C240.941 48.0429 244.532 49.5215 247.184 52.1607L247.192 52.1965Z" fill="#F0F0F0"/>
<path d="M193.234 -0.000106812H131.873C129.92 -0.000106812 128.336 1.58348 128.336 3.53693V50.4922C128.336 52.4457 129.92 54.0293 131.873 54.0293H193.234C195.188 54.0293 196.771 52.4457 196.771 50.4922V3.53693C196.771 1.58348 195.188 -0.000106812 193.234 -0.000106812Z" fill="#E6E6E6"/>
<path d="M131.644 -0.000106812H193.513C194.377 -0.000106812 195.206 0.343125 195.817 0.954081C196.428 1.56504 196.771 2.39367 196.771 3.25769V9.42245H128.336V3.31497C128.336 2.437 128.684 1.59488 129.304 0.973386C129.925 0.351893 130.766 0.00178946 131.644 -0.000106812Z" fill="#E0E0E0"/>
<path opacity="0.5" d="M193.141 5.3985C193.143 5.80695 193.023 6.20661 192.797 6.54681C192.571 6.88702 192.249 7.15243 191.872 7.30939C191.495 7.46635 191.079 7.50779 190.679 7.42845C190.278 7.34911 189.91 7.15258 189.621 6.86376C189.332 6.57494 189.136 6.20685 189.056 5.80618C188.977 5.40551 189.018 4.99031 189.175 4.61322C189.332 4.23613 189.598 3.91416 189.938 3.68812C190.278 3.46208 190.678 3.34216 191.086 3.34358C191.631 3.34358 192.154 3.56008 192.539 3.94545C192.925 4.33082 193.141 4.8535 193.141 5.3985Z" fill="#FAFAFA"/>
<path opacity="0.5" d="M187.298 5.3985C187.3 5.80664 187.18 6.20602 186.954 6.54607C186.729 6.88612 186.407 7.15154 186.03 7.30871C185.654 7.46588 185.239 7.50774 184.839 7.42899C184.438 7.35023 184.07 7.1544 183.781 6.8663C183.492 6.5782 183.295 6.21079 183.214 5.81059C183.134 5.41039 183.175 4.99541 183.331 4.6182C183.486 4.24098 183.751 3.91851 184.09 3.6916C184.429 3.4647 184.828 3.34358 185.236 3.34358C185.507 3.34264 185.775 3.39509 186.025 3.49794C186.275 3.60079 186.502 3.752 186.694 3.94291C186.886 4.13382 187.038 4.36068 187.141 4.61046C187.245 4.86024 187.298 5.12804 187.298 5.3985Z" fill="#FAFAFA"/>
<path opacity="0.5" d="M179.394 7.45366C180.529 7.45366 181.449 6.53365 181.449 5.39875C181.449 4.26384 180.529 3.34383 179.394 3.34383C178.259 3.34383 177.339 4.26384 177.339 5.39875C177.339 6.53365 178.259 7.45366 179.394 7.45366Z" fill="#FAFAFA"/>
<path opacity="0.6" d="M180.661 17.2986H144.045V19.2175H180.661V17.2986Z" fill="white"/>
<path d="M170.809 21.4441H144.611V23.363H170.809V21.4441Z" fill="#E0E0E0"/>
<path d="M190.592 17.2986H183.897V19.2175H190.592V17.2986Z" fill="#F0F0F0"/>
<path d="M141.503 17.2986H134.3V19.2175H141.503V17.2986Z" fill="#F0F0F0"/>
<path d="M180.661 26.0554H144.045V27.9743H180.661V26.0554Z" fill="#F0F0F0"/>
<path opacity="0.6" d="M190.592 26.0554H183.897V27.9743H190.592V26.0554Z" fill="white"/>
<path d="M141.503 26.0554H134.3V27.9743H141.503V26.0554Z" fill="#F0F0F0"/>
<path opacity="0.6" d="M180.661 44.3131H144.045V46.232H180.661V44.3131Z" fill="white"/>
<path opacity="0.6" d="M190.592 44.3131H183.897V46.232H190.592V44.3131Z" fill="white"/>
<path d="M180.661 30.6733H144.045V32.5922H180.661V30.6733Z" fill="#F0F0F0"/>
<path d="M190.592 30.6733H183.897V32.5922H190.592V30.6733Z" fill="#E0E0E0"/>
<path d="M141.503 30.6733H134.3V32.5922H141.503V30.6733Z" fill="#E0E0E0"/>
<path d="M191.086 21.523H173.68V23.4419H191.086V21.523Z" fill="#F0F0F0"/>
<path opacity="0.6" d="M170.243 34.6973H144.045V36.6162H170.243V34.6973Z" fill="white"/>
<path d="M190.513 34.7762H173.107V36.695H190.513V34.7762Z" fill="#F0F0F0"/>
<path d="M157.148 38.8716H144.045V40.7904H157.148V38.8716Z" fill="#E0E0E0"/>
<path d="M286.615 37.9696L278.861 41.5925L286.615 45.2155V48.1368L276.254 43.1248V40.0746L286.615 35.0626V37.9696Z" fill="#E0E0E0"/>
<path d="M310.221 40.0746V43.1104L299.854 48.1224V45.2155L307.608 41.5925L299.854 37.9695V35.0554L310.221 40.0746Z" fill="#E0E0E0"/>
<path d="M295.05 33.0148L289.995 50.4852H292.522L297.577 33.0148H295.05Z" fill="#E0E0E0"/>
<path d="M26.7499 131.465C25.8118 132.894 25.1534 134.487 24.8095 136.162L22.189 136.405V141.482L24.8095 141.732C25.1534 143.404 25.8119 144.996 26.7499 146.422L25.0601 148.448L28.6401 152.028L30.6592 150.353C32.0896 151.288 33.6829 151.946 35.3562 152.293L35.5996 154.914H40.6761L40.9267 152.293C42.5982 151.947 44.1893 151.289 45.6165 150.353L47.6428 152.028L51.2228 148.448L49.5473 146.422C50.508 145.001 51.1885 143.409 51.5521 141.732L54.1727 141.482V136.405L51.5521 136.162C51.2083 134.487 50.5498 132.894 49.6118 131.465L51.2514 129.431L47.6714 125.851L45.6451 127.52C44.2176 126.585 42.6264 125.93 40.9553 125.586L40.6976 122.987H35.6211L35.3777 125.608C33.7046 125.952 32.1111 126.607 30.6807 127.541L28.6401 125.851L25.0601 129.431L26.7499 131.465ZM43.9912 133.119C45.1435 134.271 45.9281 135.74 46.2459 137.338C46.5637 138.937 46.4004 140.594 45.7765 142.099C45.1527 143.605 44.0964 144.892 42.7412 145.798C41.386 146.703 39.7928 147.186 38.1629 147.186C36.5331 147.186 34.9398 146.703 33.5846 145.798C32.2294 144.892 31.1731 143.605 30.5493 142.099C29.9255 140.594 29.7621 138.937 30.0799 137.338C30.3977 135.74 31.1824 134.271 32.3347 133.119C33.8812 131.574 35.9774 130.707 38.1629 130.707C40.3485 130.707 42.4446 131.574 43.9912 133.119Z" fill="#E0E0E0"/>
<path d="M314.403 72.3806C313.625 73.5655 313.078 74.8871 312.792 76.2756L310.644 76.4832V80.6933L312.792 80.901C313.078 82.2894 313.625 83.6111 314.403 84.796L313.014 86.4714L315.993 89.45L317.675 88.061C318.86 88.8371 320.182 89.3814 321.57 89.6648L321.771 91.8128H325.988L326.196 89.6648C327.583 89.3788 328.904 88.8347 330.091 88.061L331.766 89.45L334.752 86.4714L333.363 84.7888C334.136 83.602 334.68 82.2809 334.967 80.8938L337.115 80.6862V76.4761L334.967 76.2684C334.68 74.88 334.134 73.5583 333.356 72.3734L334.752 70.6908L331.766 67.7122L330.076 69.1084C328.89 68.3347 327.569 67.7906 326.181 67.5046L325.974 65.3566H321.771L321.57 67.5046C320.182 67.788 318.86 68.3322 317.675 69.1084L315.993 67.7194L313.014 70.7194L314.403 72.3806ZM328.723 73.7481C329.68 74.7054 330.332 75.9251 330.596 77.2528C330.86 78.5806 330.725 79.9569 330.207 81.2077C329.689 82.4584 328.811 83.5274 327.686 84.2796C326.56 85.0317 325.237 85.4332 323.883 85.4332C322.529 85.4332 321.206 85.0317 320.08 84.2796C318.954 83.5274 318.077 82.4584 317.559 81.2077C317.041 79.9569 316.905 78.5806 317.169 77.2528C317.434 75.9251 318.085 74.7054 319.043 73.7481C320.327 72.4662 322.068 71.7462 323.883 71.7462C325.698 71.7462 327.438 72.4662 328.723 73.7481Z" fill="#E0E0E0"/>
<path d="M336.956 280.844H312.004V281.03H336.956V280.844Z" fill="#EBEBEB"/>
<path d="M247.557 282.892H241.005V283.078H247.557V282.892Z" fill="#EBEBEB"/>
<path d="M311.245 273.848H296.789V274.035H311.245V273.848Z" fill="#EBEBEB"/>
<path d="M70.0961 275.116H37.561V275.302H70.0961V275.116Z" fill="#EBEBEB"/>
<path d="M81.5737 275.116H76.8052V275.302H81.5737V275.116Z" fill="#EBEBEB"/>
<path d="M167.651 278.295H97.082V278.481H167.651V278.295Z" fill="#EBEBEB"/>
<path d="M317.847 225.476H188.43C187.317 225.474 186.251 225.031 185.465 224.245C184.678 223.458 184.236 222.392 184.234 221.28V32.7714C184.236 31.6592 184.678 30.5931 185.465 29.8067C186.251 29.0202 187.317 28.5776 188.43 28.5757H317.847C318.959 28.5776 320.025 29.0202 320.811 29.8067C321.598 30.5931 322.041 31.6592 322.042 32.7714V221.28C322.041 222.392 321.598 223.458 320.811 224.245C320.025 225.031 318.959 225.474 317.847 225.476ZM188.43 28.7618C187.366 28.7618 186.345 29.184 185.592 29.9358C184.839 30.6875 184.415 31.7074 184.413 32.7714V221.28C184.413 222.345 184.836 223.367 185.589 224.12C186.343 224.873 187.364 225.297 188.43 225.297H317.847C318.912 225.297 319.934 224.873 320.687 224.12C321.44 223.367 321.863 222.345 321.863 221.28V32.7714C321.863 31.7061 321.44 30.6844 320.687 29.9312C319.934 29.1779 318.912 28.7547 317.847 28.7547L188.43 28.7618Z" fill="#E0E0E0"/>
<path d="M168.611 225.476H39.201C38.0875 225.476 37.0196 225.034 36.2316 224.247C35.4436 223.461 34.9999 222.393 34.998 221.28V32.7714C34.9999 31.658 35.4436 30.5908 36.2316 29.8041C37.0196 29.0175 38.0875 28.5757 39.201 28.5757H168.611C169.724 28.5757 170.791 29.0177 171.578 29.8046C172.365 30.5914 172.807 31.6586 172.807 32.7714V221.28C172.807 222.393 172.365 223.46 171.578 224.247C170.791 225.034 169.724 225.476 168.611 225.476ZM39.201 28.7618C38.1362 28.7618 37.1149 29.1838 36.3607 29.9353C35.6065 30.6869 35.1808 31.7067 35.177 32.7714V221.28C35.1789 222.346 35.6037 223.368 36.3582 224.121C37.1126 224.874 38.135 225.297 39.201 225.297H168.611C169.138 225.297 169.661 225.193 170.148 224.991C170.635 224.789 171.078 224.493 171.451 224.12C171.824 223.747 172.12 223.304 172.322 222.817C172.524 222.33 172.628 221.807 172.628 221.28V32.7714C172.628 32.2439 172.524 31.7216 172.322 31.2343C172.12 30.7469 171.824 30.3041 171.451 29.9312C171.078 29.5582 170.635 29.2623 170.148 29.0604C169.661 28.8586 169.138 28.7547 168.611 28.7547L39.201 28.7618Z" fill="#E0E0E0"/>
<path d="M358 269.202H0V269.381H358V269.202Z" fill="#E0E0E0"/>
<path d="M326 299.006C326 303.414 259.064 307 176.496 307C93.9288 307 27 303.414 27 299.006C27 294.599 93.9288 291 176.496 291C259.064 291 326 294.586 326 299.006Z" fill="#F5F5F5"/>
<path d="M143.321 263.459H137.851V268.93H143.321V263.459Z" fill="#263238"/>
<path opacity="0.5" d="M67.6692 62.1273H84.5883V228.626H66.3876C64.9976 228.626 63.6645 228.074 62.6816 227.091C61.6987 226.108 61.1465 224.775 61.1465 223.385V68.6573C61.1455 67.8001 61.3136 66.9511 61.6409 66.1589C61.9683 65.3667 62.4486 64.6468 63.0544 64.0404C63.6602 63.4339 64.3796 62.9528 65.1714 62.6245C65.9633 62.2963 66.8121 62.1273 67.6692 62.1273Z" fill="white"/>
<path opacity="0.5" d="M154.383 225.755L146.937 263.911H157.741L166.362 226.07L154.383 225.755Z" fill="white"/>
<path opacity="0.5" d="M143.321 263.459H137.851V268.93H143.321V263.459Z" fill="white"/>
<path d="M222.232 268.93H152.837L162.697 211.106H208.879L222.232 268.93Z" fill="#263238"/>
<path opacity="0.7" d="M222.232 268.93H152.837L162.697 211.106H208.879L222.232 268.93Z" fill="white"/>
<path opacity="0.1" d="M212.903 228.626H159.683L157.742 240.018L214.449 235.335L212.903 228.626Z" fill="black"/>
<path d="M231.741 263.459H141.79V268.93H231.741V263.459Z" fill="#263238"/>
<g opacity="0.7">
<path d="M231.741 263.459H141.79V268.93H231.741V263.459Z" fill="white"/>
</g>
<path d="M72.4807 62.1274H297.477C299.01 62.1482 300.474 62.775 301.547 63.871C302.62 64.967 303.216 66.4432 303.204 67.9771V222.776C303.216 224.31 302.62 225.786 301.547 226.882C300.474 227.978 299.01 228.605 297.477 228.626H72.4807C70.9468 228.605 69.4835 227.978 68.4103 226.882C67.3371 225.786 66.7412 224.31 66.7527 222.776V67.9843C66.7393 66.4491 67.3344 64.9711 68.4078 63.8736C69.4812 62.776 70.9456 62.1482 72.4807 62.1274Z" fill="#263238"/>
<g opacity="0.7">
<path d="M72.4807 62.1277H297.477C299.01 62.1484 300.474 62.7753 301.547 63.8713C302.62 64.9673 303.216 66.4434 303.204 67.9774V222.777C303.216 224.311 302.62 225.787 301.547 226.883C300.474 227.979 299.01 228.606 297.477 228.626H72.4807C70.9468 228.606 69.4835 227.979 68.4103 226.883C67.3371 225.787 66.7412 224.311 66.7527 222.777V67.9845C66.7393 66.4494 67.3344 64.9714 68.4078 63.8738C69.4812 62.7762 70.9456 62.1484 72.4807 62.1277Z" fill="white"/>
</g>
<path d="M296.947 67.8626H71.9937V217.12H296.947V67.8626Z" fill="#407BFF"/>
<path opacity="0.9" d="M296.947 67.8626H71.9937V217.12H296.947V67.8626Z" fill="white"/>
<path d="M296.947 67.8626H71.9937V79.8413H296.947V67.8626Z" fill="#407BFF"/>
<path opacity="0.5" d="M293.953 73.8555C293.955 74.3599 293.807 74.8534 293.527 75.2736C293.248 75.6937 292.85 76.0215 292.385 76.2155C291.919 76.4095 291.406 76.461 290.912 76.3635C290.417 76.266 289.962 76.0238 289.605 75.6676C289.247 75.3114 289.004 74.8572 288.905 74.3626C288.806 73.8679 288.856 73.355 289.049 72.8889C289.242 72.4227 289.568 72.0242 289.988 71.7438C290.407 71.4634 290.9 71.3137 291.404 71.3137C292.079 71.3137 292.726 71.5812 293.204 72.0577C293.682 72.5342 293.951 73.1807 293.953 73.8555Z" fill="white"/>
<path opacity="0.5" d="M286.715 73.8555C286.716 74.3602 286.568 74.854 286.288 75.2743C286.008 75.6946 285.61 76.0224 285.144 76.2162C284.678 76.41 284.165 76.4611 283.67 76.363C283.175 76.2649 282.72 76.0219 282.363 75.665C282.006 75.3081 281.763 74.8533 281.665 74.3582C281.567 73.8631 281.618 73.35 281.812 72.8839C282.006 72.4179 282.334 72.0198 282.754 71.7403C283.174 71.4608 283.668 71.3123 284.173 71.3137C284.846 71.3156 285.492 71.584 285.968 72.0603C286.444 72.5365 286.713 73.182 286.715 73.8555Z" fill="white"/>
<path opacity="0.5" d="M279.483 73.8555C279.485 74.3599 279.336 74.8534 279.057 75.2736C278.778 75.6937 278.38 76.0215 277.915 76.2155C277.449 76.4095 276.936 76.461 276.441 76.3635C275.946 76.266 275.492 76.0238 275.134 75.6676C274.777 75.3114 274.534 74.8572 274.435 74.3626C274.336 73.8679 274.386 73.355 274.579 72.8889C274.771 72.4227 275.098 72.0242 275.517 71.7438C275.937 71.4634 276.43 71.3137 276.934 71.3137C277.609 71.3137 278.256 71.5812 278.734 72.0577C279.212 72.5342 279.481 73.1807 279.483 73.8555Z" fill="white"/>
<path d="M113.701 167.251C112.983 168.352 112.478 169.579 112.212 170.866L110.192 171.053V174.962L112.212 175.155C112.483 176.43 112.988 177.644 113.701 178.735L112.412 180.296L115.176 183.06L116.737 181.771C117.827 182.485 119.041 182.99 120.317 183.26L120.51 185.279H124.419L124.605 183.26C125.893 182.994 127.119 182.489 128.221 181.771L129.775 183.06L132.539 180.296L131.25 178.735C131.969 177.646 132.477 176.432 132.746 175.155L134.758 174.962V171.053L132.746 170.866C132.48 169.577 131.973 168.351 131.25 167.251L132.539 165.697L129.775 162.933L128.221 164.222C127.121 163.499 125.894 162.992 124.605 162.725L124.419 160.714H120.51L120.317 162.725C119.04 162.995 117.825 163.503 116.737 164.222L115.176 162.933L112.412 165.697L113.701 167.251ZM126.088 169.399C126.803 170.108 127.291 171.014 127.49 172.001C127.69 172.988 127.592 174.012 127.208 174.944C126.825 175.875 126.173 176.671 125.336 177.232C124.499 177.792 123.515 178.091 122.508 178.091C121.5 178.091 120.516 177.792 119.679 177.232C118.842 176.671 118.191 175.875 117.807 174.944C117.423 174.012 117.325 172.988 117.525 172.001C117.724 171.014 118.213 170.108 118.928 169.399C119.882 168.456 121.169 167.929 122.511 167.931C123.852 167.934 125.137 168.467 126.088 169.413V169.399Z" fill="#407BFF"/>
<path opacity="0.4" d="M113.701 167.251C112.983 168.352 112.478 169.579 112.212 170.866L110.192 171.053V174.962L112.212 175.155C112.483 176.43 112.988 177.644 113.701 178.735L112.412 180.296L115.176 183.06L116.737 181.771C117.827 182.485 119.041 182.99 120.317 183.26L120.51 185.279H124.419L124.605 183.26C125.893 182.994 127.119 182.489 128.221 181.771L129.775 183.06L132.539 180.296L131.25 178.735C131.969 177.646 132.477 176.432 132.746 175.155L134.758 174.962V171.053L132.746 170.866C132.48 169.577 131.973 168.351 131.25 167.251L132.539 165.697L129.775 162.933L128.221 164.222C127.121 163.499 125.894 162.992 124.605 162.725L124.419 160.714H120.51L120.317 162.725C119.04 162.995 117.825 163.503 116.737 164.222L115.176 162.933L112.412 165.697L113.701 167.251ZM126.088 169.399C126.803 170.108 127.291 171.014 127.49 172.001C127.69 172.988 127.592 174.012 127.208 174.944C126.825 175.875 126.173 176.671 125.336 177.232C124.499 177.792 123.515 178.091 122.508 178.091C121.5 178.091 120.516 177.792 119.679 177.232C118.842 176.671 118.191 175.875 117.807 174.944C117.423 174.012 117.325 172.988 117.525 172.001C117.724 171.014 118.213 170.108 118.928 169.399C119.882 168.456 121.169 167.929 122.511 167.931C123.852 167.934 125.137 168.467 126.088 169.413V169.399Z" fill="white"/>
<path d="M229.063 119.407C228.395 120.428 227.927 121.564 227.681 122.758L225.812 122.93V126.567L227.681 126.739C227.927 127.933 228.395 129.07 229.063 130.09L227.867 131.522L230.43 134.085L231.862 132.89C232.882 133.557 234.019 134.026 235.213 134.272L235.385 136.14H239.008L239.18 134.272C240.374 134.026 241.51 133.557 242.531 132.89L243.963 134.085L246.526 131.522L245.33 130.09C245.997 129.07 246.466 127.933 246.712 126.739L248.581 126.567V122.987L246.712 122.816C246.466 121.622 245.997 120.485 245.33 119.465L246.526 118.033L243.963 115.469L242.531 116.665C241.51 115.998 240.374 115.529 239.18 115.283L239.008 113.414H235.385L235.213 115.283C234.019 115.529 232.882 115.998 231.862 116.665L230.43 115.469L227.867 117.975L229.063 119.407ZM240.519 121.412C241.178 122.071 241.627 122.91 241.81 123.824C241.992 124.738 241.899 125.686 241.542 126.547C241.186 127.408 240.582 128.145 239.807 128.662C239.032 129.18 238.121 129.457 237.189 129.457C236.257 129.457 235.346 129.18 234.571 128.662C233.796 128.145 233.192 127.408 232.836 126.547C232.48 125.686 232.387 124.738 232.569 123.824C232.751 122.91 233.2 122.071 233.86 121.412C234.298 120.974 234.819 120.626 235.393 120.39C235.966 120.153 236.581 120.033 237.201 120.035C237.821 120.037 238.435 120.161 239.007 120.402C239.578 120.642 240.097 120.992 240.533 121.434L240.519 121.412Z" fill="#407BFF"/>
<path opacity="0.4" d="M229.063 119.407C228.395 120.428 227.927 121.564 227.681 122.758L225.812 122.93V126.567L227.681 126.739C227.927 127.933 228.395 129.07 229.063 130.09L227.867 131.522L230.43 134.085L231.862 132.89C232.882 133.557 234.019 134.026 235.213 134.272L235.385 136.14H239.008L239.18 134.272C240.374 134.026 241.51 133.557 242.531 132.89L243.963 134.085L246.526 131.522L245.33 130.09C245.997 129.07 246.466 127.933 246.712 126.739L248.581 126.567V122.987L246.712 122.816C246.466 121.622 245.997 120.485 245.33 119.465L246.526 118.033L243.963 115.469L242.531 116.665C241.51 115.998 240.374 115.529 239.18 115.283L239.008 113.414H235.385L235.213 115.283C234.019 115.529 232.882 115.998 231.862 116.665L230.43 115.469L227.867 117.975L229.063 119.407ZM240.519 121.412C241.178 122.071 241.627 122.91 241.81 123.824C241.992 124.738 241.899 125.686 241.542 126.547C241.186 127.408 240.582 128.145 239.807 128.662C239.032 129.18 238.121 129.457 237.189 129.457C236.257 129.457 235.346 129.18 234.571 128.662C233.796 128.145 233.192 127.408 232.836 126.547C232.48 125.686 232.387 124.738 232.569 123.824C232.751 122.91 233.2 122.071 233.86 121.412C234.298 120.974 234.819 120.626 235.393 120.39C235.966 120.153 236.581 120.033 237.201 120.035C237.821 120.037 238.435 120.161 239.007 120.402C239.578 120.642 240.097 120.992 240.533 121.434L240.519 121.412Z" fill="white"/>
<path d="M224.58 99.3954C224.155 100.051 223.854 100.779 223.692 101.543L222.482 101.651V103.992L223.692 104.107C223.852 104.872 224.153 105.6 224.58 106.255L223.807 107.185L225.461 108.839L226.399 108.066C227.051 108.499 227.78 108.803 228.547 108.961L228.661 110.171H230.996L231.11 108.961C231.877 108.803 232.606 108.499 233.258 108.066L234.189 108.839L235.843 107.185L235.077 106.255C235.504 105.6 235.805 104.872 235.965 104.107L237.175 103.992V101.651L235.965 101.536C235.803 100.772 235.502 100.044 235.077 99.3882L235.843 98.4574L234.189 96.8034L233.258 97.5767C232.604 97.147 231.876 96.8435 231.11 96.6817L230.996 95.4789H228.661L228.547 96.6817C227.781 96.8435 227.053 97.147 226.399 97.5767L225.461 96.8034L223.807 98.4574L224.58 99.3954ZM231.984 100.691C232.41 101.116 232.701 101.659 232.819 102.249C232.938 102.84 232.878 103.452 232.648 104.009C232.418 104.565 232.028 105.041 231.527 105.376C231.027 105.711 230.438 105.89 229.836 105.89C229.233 105.89 228.645 105.711 228.144 105.376C227.643 105.041 227.253 104.565 227.023 104.009C226.793 103.452 226.734 102.84 226.852 102.249C226.97 101.659 227.261 101.116 227.688 100.691C228.258 100.123 229.031 99.8038 229.836 99.8038C230.641 99.8038 231.413 100.123 231.984 100.691Z" fill="#407BFF"/>
<path opacity="0.7" d="M224.58 99.3954C224.155 100.051 223.854 100.779 223.692 101.543L222.482 101.651V103.992L223.692 104.107C223.852 104.872 224.153 105.6 224.58 106.255L223.807 107.185L225.461 108.839L226.399 108.066C227.051 108.499 227.78 108.803 228.547 108.961L228.661 110.171H230.996L231.11 108.961C231.877 108.803 232.606 108.499 233.258 108.066L234.189 108.839L235.843 107.185L235.077 106.255C235.504 105.6 235.805 104.872 235.965 104.107L237.175 103.992V101.651L235.965 101.536C235.803 100.772 235.502 100.044 235.077 99.3882L235.843 98.4574L234.189 96.8034L233.258 97.5767C232.604 97.147 231.876 96.8435 231.11 96.6817L230.996 95.4789H228.661L228.547 96.6817C227.781 96.8435 227.053 97.147 226.399 97.5767L225.461 96.8034L223.807 98.4574L224.58 99.3954ZM231.984 100.691C232.41 101.116 232.701 101.659 232.819 102.249C232.938 102.84 232.878 103.452 232.648 104.009C232.418 104.565 232.028 105.041 231.527 105.376C231.027 105.711 230.438 105.89 229.836 105.89C229.233 105.89 228.645 105.711 228.144 105.376C227.643 105.041 227.253 104.565 227.023 104.009C226.793 103.452 226.734 102.84 226.852 102.249C226.97 101.659 227.261 101.116 227.688 100.691C228.258 100.123 229.031 99.8038 229.836 99.8038C230.641 99.8038 231.413 100.123 231.984 100.691Z" fill="white"/>
<path d="M126.732 190.7C126.307 191.355 126.006 192.083 125.844 192.848L124.634 192.962V195.303L125.844 195.418C126.005 196.183 126.306 196.911 126.732 197.566L125.966 198.497L127.62 200.151L128.551 199.377C129.203 199.81 129.932 200.114 130.699 200.272L130.813 201.482H133.176L133.291 200.272C134.057 200.114 134.786 199.81 135.439 199.377L136.377 200.151L138.031 198.497L137.257 197.566C137.687 196.913 137.988 196.184 138.145 195.418L139.355 195.303V192.962L138.145 192.848C137.987 192.082 137.685 191.353 137.257 190.7L138.031 189.769L136.377 188.143L135.439 188.859C134.785 188.43 134.056 188.126 133.291 187.964L133.176 186.762H130.842L130.727 187.964C129.962 188.126 129.233 188.43 128.579 188.859L127.649 188.086L125.995 189.74L126.732 190.7ZM134.15 191.995C134.577 192.421 134.867 192.963 134.986 193.553C135.104 194.144 135.044 194.756 134.814 195.313C134.584 195.87 134.194 196.346 133.694 196.68C133.193 197.015 132.604 197.194 132.002 197.194C131.4 197.194 130.811 197.015 130.31 196.68C129.81 196.346 129.42 195.87 129.19 195.313C128.96 194.756 128.9 194.144 129.018 193.553C129.136 192.963 129.427 192.421 129.854 191.995C130.424 191.427 131.197 191.108 132.002 191.108C132.807 191.108 133.58 191.427 134.15 191.995Z" fill="#407BFF"/>
<path opacity="0.7" d="M126.732 190.7C126.307 191.355 126.006 192.083 125.844 192.848L124.634 192.962V195.303L125.844 195.418C126.005 196.183 126.306 196.911 126.732 197.566L125.966 198.497L127.62 200.151L128.551 199.377C129.203 199.81 129.932 200.114 130.699 200.272L130.813 201.482H133.176L133.291 200.272C134.057 200.114 134.786 199.81 135.439 199.377L136.377 200.151L138.031 198.497L137.257 197.566C137.687 196.913 137.988 196.184 138.145 195.418L139.355 195.303V192.962L138.145 192.848C137.987 192.082 137.685 191.353 137.257 190.7L138.031 189.769L136.377 188.143L135.439 188.859C134.785 188.43 134.056 188.126 133.291 187.964L133.176 186.762H130.842L130.727 187.964C129.962 188.126 129.233 188.43 128.579 188.859L127.649 188.086L125.995 189.74L126.732 190.7ZM134.15 191.995C134.577 192.421 134.867 192.963 134.986 193.553C135.104 194.144 135.044 194.756 134.814 195.313C134.584 195.87 134.194 196.346 133.694 196.68C133.193 197.015 132.604 197.194 132.002 197.194C131.4 197.194 130.811 197.015 130.31 196.68C129.81 196.346 129.42 195.87 129.19 195.313C128.96 194.756 128.9 194.144 129.018 193.553C129.136 192.963 129.427 192.421 129.854 191.995C130.424 191.427 131.197 191.108 132.002 191.108C132.807 191.108 133.58 191.427 134.15 191.995Z" fill="white"/>
<path d="M142.842 123.195C139.731 127.946 137.544 133.242 136.398 138.804L127.677 139.627V156.511L136.398 157.356C137.546 162.92 139.732 168.217 142.842 172.972L137.272 179.695L149.215 191.638L155.938 186.067C160.692 189.177 165.99 191.363 171.554 192.511L172.377 201.232H189.26L190.084 192.511C195.646 191.365 200.942 189.179 205.693 186.067L212.423 191.638L224.366 179.695L218.795 172.972C221.907 168.218 224.093 162.92 225.239 157.356L233.953 156.532V139.627L225.239 138.804C224.092 133.242 221.905 127.947 218.795 123.195L224.366 116.465L212.423 104.529L205.693 110.092C200.941 106.982 195.646 104.796 190.084 103.648L189.26 94.9275H172.377L171.554 103.656C165.99 104.803 160.692 106.989 155.938 110.1L149.215 104.529L137.272 116.472L142.842 123.195ZM200.208 128.716C204.044 132.551 206.656 137.437 207.714 142.756C208.773 148.076 208.23 153.59 206.155 158.601C204.079 163.612 200.564 167.895 196.054 170.909C191.545 173.922 186.243 175.531 180.819 175.531C175.395 175.531 170.093 173.922 165.583 170.909C161.073 167.895 157.558 163.612 155.483 158.601C153.408 153.59 152.865 148.076 153.923 142.756C154.982 137.437 157.594 132.551 161.429 128.716C166.573 123.576 173.547 120.688 180.819 120.688C188.09 120.688 195.064 123.576 200.208 128.716Z" fill="#407BFF"/>
<path d="M172.742 150.482H166.656L165.489 153.296H162.382L168.26 140.172H171.253L177.117 153.289H173.931L172.742 150.482ZM171.79 148.176L169.707 143.164L167.63 148.176H171.79Z" fill="#407BFF"/>
<path d="M187.163 140.759C187.756 141.043 188.284 141.448 188.711 141.949C189.138 142.45 189.454 143.035 189.641 143.666C189.827 144.297 189.879 144.961 189.792 145.613C189.706 146.265 189.483 146.892 189.139 147.453C188.657 148.187 187.969 148.762 187.163 149.107C186.204 149.505 185.172 149.698 184.134 149.673H181.492V153.296H178.456V140.172H184.134C185.174 140.15 186.206 140.35 187.163 140.759ZM186.046 146.616C186.272 146.397 186.453 146.135 186.576 145.845C186.699 145.556 186.763 145.244 186.763 144.929C186.763 144.615 186.699 144.303 186.576 144.013C186.453 143.723 186.272 143.462 186.046 143.243C185.444 142.809 184.71 142.599 183.969 142.649H181.492V147.203H183.969C184.709 147.255 185.443 147.047 186.046 146.616Z" fill="#407BFF"/>
<path d="M191.988 140.172H195.024V153.289H191.988V140.172Z" fill="#407BFF"/>
<path d="M155.938 151.541C155.848 151.542 155.762 151.509 155.696 151.45C155.63 151.39 155.588 151.308 155.58 151.219C155.173 147.617 155.508 143.969 156.563 140.5C157.619 137.032 159.372 133.816 161.716 131.05C161.746 131.014 161.783 130.984 161.825 130.963C161.867 130.942 161.913 130.929 161.96 130.925C162.007 130.922 162.054 130.927 162.099 130.942C162.143 130.956 162.185 130.98 162.22 131.01C162.256 131.041 162.286 131.078 162.307 131.12C162.328 131.162 162.341 131.208 162.345 131.254C162.348 131.301 162.343 131.348 162.328 131.393C162.314 131.438 162.29 131.479 162.26 131.515C159.978 134.207 158.272 137.338 157.247 140.714C156.221 144.091 155.897 147.641 156.296 151.148C156.304 151.242 156.274 151.336 156.214 151.41C156.154 151.483 156.068 151.531 155.973 151.541H155.938Z" fill="#407BFF"/>
<path d="M157.147 157.198C157.07 157.199 156.994 157.174 156.932 157.128C156.869 157.081 156.824 157.015 156.804 156.94C156.509 155.942 156.27 154.929 156.088 153.904C156.079 153.857 156.08 153.809 156.09 153.762C156.101 153.716 156.12 153.672 156.147 153.632C156.174 153.593 156.209 153.56 156.249 153.534C156.289 153.508 156.334 153.49 156.381 153.482C156.428 153.473 156.477 153.474 156.523 153.485C156.57 153.495 156.614 153.514 156.653 153.541C156.693 153.568 156.726 153.603 156.752 153.643C156.778 153.684 156.795 153.728 156.804 153.775C156.989 154.776 157.228 155.765 157.52 156.74C157.546 156.831 157.536 156.929 157.49 157.012C157.444 157.095 157.367 157.157 157.276 157.184C157.235 157.199 157.191 157.204 157.147 157.198Z" fill="#407BFF"/>
<path d="M122.493 146.873H91.8844C91.7894 146.873 91.6984 146.836 91.6312 146.768C91.5641 146.701 91.5264 146.61 91.5264 146.515V110.672C91.5264 110.577 91.5641 110.486 91.6312 110.419C91.6984 110.352 91.7894 110.314 91.8844 110.314C91.9793 110.314 92.0704 110.352 92.1375 110.419C92.2046 110.486 92.2424 110.577 92.2424 110.672V146.157H122.493C122.588 146.157 122.679 146.195 122.747 146.262C122.814 146.329 122.851 146.42 122.851 146.515C122.85 146.61 122.811 146.7 122.744 146.766C122.678 146.833 122.588 146.871 122.493 146.873Z" fill="#407BFF"/>
<path d="M91.8847 112.505C92.897 112.505 93.7177 111.685 93.7177 110.672C93.7177 109.66 92.897 108.839 91.8847 108.839C90.8724 108.839 90.0518 109.66 90.0518 110.672C90.0518 111.685 90.8724 112.505 91.8847 112.505Z" fill="#407BFF"/>
<path d="M278.667 176.673C279.679 176.673 280.5 175.852 280.5 174.84C280.5 173.828 279.679 173.007 278.667 173.007C277.655 173.007 276.834 173.828 276.834 174.84C276.834 175.852 277.655 176.673 278.667 176.673Z" fill="#407BFF"/>
<path d="M279.025 189.146H233.473V169.52H227.115V168.804H234.189V188.43H278.309V174.575H279.025V189.146Z" fill="#407BFF"/>
<path d="M335.719 194.15H257.753V268.929H335.719V194.15Z" fill="#407BFF"/>
<path opacity="0.4" d="M335.719 194.15H257.753V268.929H335.719V194.15Z" fill="white"/>
<path opacity="0.4" d="M335.712 194.15H282.57V268.929H335.712V194.15Z" fill="white"/>
<path d="M333.055 197.974H285.227V207.232H333.055V197.974Z" fill="#407BFF"/>
<path d="M333.055 209.552H285.227V218.809H333.055V209.552Z" fill="#407BFF"/>
<path d="M333.055 221.122H285.227V230.38H333.055V221.122Z" fill="#407BFF"/>
<path d="M333.055 232.7H285.227V241.958H333.055V232.7Z" fill="#407BFF"/>
<path d="M333.055 244.278H285.227V253.535H333.055V244.278Z" fill="#407BFF"/>
<path d="M333.055 255.855H285.227V265.113H333.055V255.855Z" fill="#407BFF"/>
<path d="M279.792 197.974H260.539V207.232H279.792V197.974Z" fill="#407BFF"/>
<path d="M279.792 209.552H260.539V218.809H279.792V209.552Z" fill="#407BFF"/>
<path d="M279.792 221.122H260.539V230.38H279.792V221.122Z" fill="#407BFF"/>
<path d="M279.792 232.7H260.539V241.958H279.792V232.7Z" fill="#407BFF"/>
<path d="M279.792 244.278H260.539V253.535H279.792V244.278Z" fill="#407BFF"/>
<path d="M279.792 255.855H260.539V265.113H279.792V255.855Z" fill="#407BFF"/>
<path opacity="0.3" d="M330.713 199.177H329.596V206.029H330.713V199.177Z" fill="white"/>
<path opacity="0.3" d="M328.566 199.177H327.449V206.029H328.566V199.177Z" fill="white"/>
<path opacity="0.3" d="M326.417 199.177H325.3V206.029H326.417V199.177Z" fill="white"/>
<path opacity="0.3" d="M324.269 199.177H323.152V206.029H324.269V199.177Z" fill="white"/>
<path opacity="0.3" d="M322.122 199.177H321.005V206.029H322.122V199.177Z" fill="white"/>
<path opacity="0.3" d="M330.713 210.754H329.596V217.599H330.713V210.754Z" fill="white"/>
<path opacity="0.3" d="M328.566 210.754H327.449V217.599H328.566V210.754Z" fill="white"/>
<path opacity="0.3" d="M326.417 210.754H325.3V217.599H326.417V210.754Z" fill="white"/>
<path opacity="0.3" d="M324.269 210.754H323.152V217.599H324.269V210.754Z" fill="white"/>
<path opacity="0.3" d="M322.122 210.754H321.005V217.599H322.122V210.754Z" fill="white"/>
<path opacity="0.3" d="M330.713 222.332H329.596V229.177H330.713V222.332Z" fill="white"/>
<path opacity="0.3" d="M328.566 222.332H327.449V229.177H328.566V222.332Z" fill="white"/>
<path opacity="0.3" d="M326.417 222.332H325.3V229.177H326.417V222.332Z" fill="white"/>
<path opacity="0.3" d="M324.269 222.332H323.152V229.177H324.269V222.332Z" fill="white"/>
<path opacity="0.3" d="M322.122 222.332H321.005V229.177H322.122V222.332Z" fill="white"/>
<path opacity="0.3" d="M330.713 233.91H329.596V240.762H330.713V233.91Z" fill="white"/>
<path opacity="0.3" d="M328.566 233.91H327.449V240.762H328.566V233.91Z" fill="white"/>
<path opacity="0.3" d="M326.417 233.91H325.3V240.762H326.417V233.91Z" fill="white"/>
<path opacity="0.3" d="M324.269 233.91H323.152V240.762H324.269V233.91Z" fill="white"/>
<path opacity="0.3" d="M322.122 233.91H321.005V240.762H322.122V233.91Z" fill="white"/>
<path opacity="0.3" d="M330.713 245.488H329.596V252.333H330.713V245.488Z" fill="white"/>
<path opacity="0.3" d="M328.566 245.488H327.449V252.333H328.566V245.488Z" fill="white"/>
<path opacity="0.3" d="M326.417 245.488H325.3V252.333H326.417V245.488Z" fill="white"/>
<path opacity="0.3" d="M324.269 245.488H323.152V252.333H324.269V245.488Z" fill="white"/>
<path opacity="0.3" d="M322.122 245.488H321.005V252.333H322.122V245.488Z" fill="white"/>
<path opacity="0.3" d="M330.713 257.058H329.596V263.91H330.713V257.058Z" fill="white"/>
<path opacity="0.3" d="M328.566 257.058H327.449V263.91H328.566V257.058Z" fill="white"/>
<path opacity="0.3" d="M326.417 257.058H325.3V263.91H326.417V257.058Z" fill="white"/>
<path opacity="0.3" d="M324.269 257.058H323.152V263.91H324.269V257.058Z" fill="white"/>
<path opacity="0.3" d="M322.122 257.058H321.005V263.91H322.122V257.058Z" fill="white"/>
<path opacity="0.2" d="M290.79 202.599C290.79 202.824 290.723 203.044 290.598 203.232C290.473 203.419 290.295 203.565 290.087 203.651C289.879 203.737 289.65 203.76 289.429 203.716C289.208 203.672 289.005 203.563 288.846 203.404C288.687 203.245 288.578 203.042 288.535 202.821C288.491 202.6 288.513 202.372 288.599 202.164C288.686 201.956 288.831 201.778 289.019 201.653C289.206 201.528 289.426 201.461 289.651 201.461C289.953 201.461 290.243 201.581 290.456 201.794C290.67 202.008 290.79 202.297 290.79 202.599Z" fill="white"/>
<path opacity="0.2" d="M297.949 202.599C297.949 202.824 297.882 203.044 297.757 203.232C297.632 203.419 297.454 203.565 297.246 203.651C297.038 203.737 296.81 203.76 296.589 203.716C296.368 203.672 296.165 203.563 296.006 203.404C295.847 203.245 295.738 203.042 295.694 202.821C295.65 202.6 295.673 202.372 295.759 202.164C295.845 201.956 295.991 201.778 296.178 201.653C296.366 201.528 296.586 201.461 296.811 201.461C297.113 201.461 297.402 201.581 297.616 201.794C297.829 202.008 297.949 202.297 297.949 202.599Z" fill="white"/>
<path opacity="0.4" d="M305.109 202.599C305.109 202.824 305.043 203.044 304.918 203.232C304.792 203.419 304.615 203.565 304.407 203.651C304.199 203.737 303.97 203.76 303.749 203.716C303.528 203.672 303.325 203.563 303.166 203.404C303.007 203.245 302.898 203.042 302.854 202.821C302.81 202.6 302.833 202.372 302.919 202.164C303.005 201.956 303.151 201.778 303.338 201.653C303.526 201.528 303.746 201.461 303.971 201.461C304.273 201.461 304.562 201.581 304.776 201.794C304.989 202.008 305.109 202.297 305.109 202.599Z" fill="white"/>
<path opacity="0.4" d="M290.79 214.177C290.79 214.402 290.723 214.622 290.598 214.809C290.473 214.997 290.295 215.142 290.087 215.229C289.879 215.315 289.65 215.337 289.429 215.293C289.208 215.249 289.005 215.141 288.846 214.982C288.687 214.823 288.578 214.62 288.535 214.399C288.491 214.178 288.513 213.949 288.599 213.741C288.686 213.533 288.831 213.355 289.019 213.23C289.206 213.105 289.426 213.038 289.651 213.038C289.953 213.038 290.243 213.158 290.456 213.372C290.67 213.585 290.79 213.875 290.79 214.177Z" fill="white"/>
<path opacity="0.2" d="M297.949 214.177C297.949 214.402 297.882 214.622 297.757 214.809C297.632 214.997 297.454 215.142 297.246 215.229C297.038 215.315 296.81 215.337 296.589 215.293C296.368 215.249 296.165 215.141 296.006 214.982C295.847 214.823 295.738 214.62 295.694 214.399C295.65 214.178 295.673 213.949 295.759 213.741C295.845 213.533 295.991 213.355 296.178 213.23C296.366 213.105 296.586 213.038 296.811 213.038C297.113 213.038 297.402 213.158 297.616 213.372C297.829 213.585 297.949 213.875 297.949 214.177Z" fill="white"/>
<path opacity="0.4" d="M305.109 214.177C305.109 214.402 305.043 214.622 304.918 214.809C304.792 214.997 304.615 215.142 304.407 215.229C304.199 215.315 303.97 215.337 303.749 215.293C303.528 215.249 303.325 215.141 303.166 214.982C303.007 214.823 302.898 214.62 302.854 214.399C302.81 214.178 302.833 213.949 302.919 213.741C303.005 213.533 303.151 213.355 303.338 213.23C303.526 213.105 303.746 213.038 303.971 213.038C304.273 213.038 304.562 213.158 304.776 213.372C304.989 213.585 305.109 213.875 305.109 214.177Z" fill="white"/>
<path opacity="0.2" d="M290.79 225.755C290.79 225.98 290.723 226.2 290.598 226.387C290.473 226.574 290.295 226.72 290.087 226.806C289.879 226.893 289.65 226.915 289.429 226.871C289.208 226.827 289.005 226.719 288.846 226.56C288.687 226.4 288.578 226.198 288.535 225.977C288.491 225.756 288.513 225.527 288.599 225.319C288.686 225.111 288.831 224.933 289.019 224.808C289.206 224.683 289.426 224.616 289.651 224.616C289.953 224.616 290.243 224.736 290.456 224.95C290.67 225.163 290.79 225.453 290.79 225.755Z" fill="white"/>
<path opacity="0.4" d="M297.949 225.755C297.949 225.98 297.882 226.2 297.757 226.387C297.632 226.574 297.454 226.72 297.246 226.806C297.038 226.893 296.81 226.915 296.589 226.871C296.368 226.827 296.165 226.719 296.006 226.56C295.847 226.4 295.738 226.198 295.694 225.977C295.65 225.756 295.673 225.527 295.759 225.319C295.845 225.111 295.991 224.933 296.178 224.808C296.366 224.683 296.586 224.616 296.811 224.616C297.113 224.616 297.402 224.736 297.616 224.95C297.829 225.163 297.949 225.453 297.949 225.755Z" fill="white"/>
<path opacity="0.2" d="M305.109 225.755C305.109 225.98 305.043 226.2 304.918 226.387C304.792 226.574 304.615 226.72 304.407 226.806C304.199 226.893 303.97 226.915 303.749 226.871C303.528 226.827 303.325 226.719 303.166 226.56C303.007 226.4 302.898 226.198 302.854 225.977C302.81 225.756 302.833 225.527 302.919 225.319C303.005 225.111 303.151 224.933 303.338 224.808C303.526 224.683 303.746 224.616 303.971 224.616C304.273 224.616 304.562 224.736 304.776 224.95C304.989 225.163 305.109 225.453 305.109 225.755Z" fill="white"/>
<path opacity="0.4" d="M290.79 237.332C290.79 237.557 290.723 237.778 290.598 237.965C290.473 238.152 290.295 238.298 290.087 238.384C289.879 238.47 289.65 238.493 289.429 238.449C289.208 238.405 289.005 238.297 288.846 238.137C288.687 237.978 288.578 237.775 288.535 237.554C288.491 237.334 288.513 237.105 288.599 236.897C288.686 236.689 288.831 236.511 289.019 236.386C289.206 236.261 289.426 236.194 289.651 236.194C289.953 236.194 290.243 236.314 290.456 236.527C290.67 236.741 290.79 237.03 290.79 237.332Z" fill="white"/>
<path opacity="0.2" d="M297.949 237.332C297.949 237.557 297.882 237.778 297.757 237.965C297.632 238.152 297.454 238.298 297.246 238.384C297.038 238.47 296.81 238.493 296.589 238.449C296.368 238.405 296.165 238.297 296.006 238.137C295.847 237.978 295.738 237.775 295.694 237.554C295.65 237.334 295.673 237.105 295.759 236.897C295.845 236.689 295.991 236.511 296.178 236.386C296.366 236.261 296.586 236.194 296.811 236.194C297.113 236.194 297.402 236.314 297.616 236.527C297.829 236.741 297.949 237.03 297.949 237.332Z" fill="white"/>
<path opacity="0.2" d="M305.109 237.332C305.109 237.557 305.043 237.778 304.918 237.965C304.792 238.152 304.615 238.298 304.407 238.384C304.199 238.47 303.97 238.493 303.749 238.449C303.528 238.405 303.325 238.297 303.166 238.137C303.007 237.978 302.898 237.775 302.854 237.554C302.81 237.334 302.833 237.105 302.919 236.897C303.005 236.689 303.151 236.511 303.338 236.386C303.526 236.261 303.746 236.194 303.971 236.194C304.273 236.194 304.562 236.314 304.776 236.527C304.989 236.741 305.109 237.03 305.109 237.332Z" fill="white"/>
<path opacity="0.2" d="M290.79 248.91C290.79 249.135 290.723 249.355 290.598 249.543C290.473 249.73 290.295 249.876 290.087 249.962C289.879 250.048 289.65 250.071 289.429 250.027C289.208 249.983 289.005 249.874 288.846 249.715C288.687 249.556 288.578 249.353 288.535 249.132C288.491 248.911 288.513 248.683 288.599 248.475C288.686 248.266 288.831 248.089 289.019 247.964C289.206 247.839 289.426 247.772 289.651 247.772C289.953 247.772 290.243 247.892 290.456 248.105C290.67 248.319 290.79 248.608 290.79 248.91Z" fill="white"/>
<path opacity="0.4" d="M297.949 248.91C297.949 249.135 297.882 249.355 297.757 249.543C297.632 249.73 297.454 249.876 297.246 249.962C297.038 250.048 296.81 250.071 296.589 250.027C296.368 249.983 296.165 249.874 296.006 249.715C295.847 249.556 295.738 249.353 295.694 249.132C295.65 248.911 295.673 248.683 295.759 248.475C295.845 248.266 295.991 248.089 296.178 247.964C296.366 247.839 296.586 247.772 296.811 247.772C297.113 247.772 297.402 247.892 297.616 248.105C297.829 248.319 297.949 248.608 297.949 248.91Z" fill="white"/>
<path opacity="0.4" d="M305.109 248.91C305.109 249.135 305.043 249.355 304.918 249.543C304.792 249.73 304.615 249.876 304.407 249.962C304.199 250.048 303.97 250.071 303.749 250.027C303.528 249.983 303.325 249.874 303.166 249.715C303.007 249.556 302.898 249.353 302.854 249.132C302.81 248.911 302.833 248.683 302.919 248.475C303.005 248.266 303.151 248.089 303.338 247.964C303.526 247.839 303.746 247.772 303.971 247.772C304.273 247.772 304.562 247.892 304.776 248.105C304.989 248.319 305.109 248.608 305.109 248.91Z" fill="white"/>
<path opacity="0.4" d="M290.79 260.459C290.79 260.684 290.723 260.904 290.598 261.092C290.473 261.279 290.295 261.425 290.087 261.511C289.879 261.597 289.65 261.62 289.429 261.576C289.208 261.532 289.005 261.423 288.846 261.264C288.687 261.105 288.578 260.902 288.535 260.681C288.491 260.46 288.513 260.231 288.599 260.023C288.686 259.815 288.831 259.638 289.019 259.512C289.206 259.387 289.426 259.321 289.651 259.321C289.953 259.321 290.243 259.441 290.456 259.654C290.67 259.868 290.79 260.157 290.79 260.459Z" fill="white"/>
<path opacity="0.2" d="M297.949 260.459C297.949 260.684 297.882 260.904 297.757 261.092C297.632 261.279 297.454 261.425 297.246 261.511C297.038 261.597 296.81 261.62 296.589 261.576C296.368 261.532 296.165 261.423 296.006 261.264C295.847 261.105 295.738 260.902 295.694 260.681C295.65 260.46 295.673 260.231 295.759 260.023C295.845 259.815 295.991 259.638 296.178 259.512C296.366 259.387 296.586 259.321 296.811 259.321C297.113 259.321 297.402 259.441 297.616 259.654C297.829 259.868 297.949 260.157 297.949 260.459Z" fill="white"/>
<path opacity="0.4" d="M305.109 260.459C305.109 260.684 305.043 260.904 304.918 261.092C304.792 261.279 304.615 261.425 304.407 261.511C304.199 261.597 303.97 261.62 303.749 261.576C303.528 261.532 303.325 261.423 303.166 261.264C303.007 261.105 302.898 260.902 302.854 260.681C302.81 260.46 302.833 260.231 302.919 260.023C303.005 259.815 303.151 259.638 303.338 259.512C303.526 259.387 303.746 259.321 303.971 259.321C304.273 259.321 304.562 259.441 304.776 259.654C304.989 259.868 305.109 260.157 305.109 260.459Z" fill="white"/>
<path opacity="0.3" d="M282.57 194.15H257.753V268.929H282.57V194.15Z" fill="black"/>
<path d="M329.468 100.978H257.009C255.055 100.978 253.472 102.561 253.472 104.515V164.315C253.472 166.269 255.055 167.852 257.009 167.852H329.468C331.421 167.852 333.005 166.269 333.005 164.315V104.515C333.005 102.561 331.421 100.978 329.468 100.978Z" fill="#407BFF"/>
<path opacity="0.5" d="M329.468 100.978H257.009C255.055 100.978 253.472 102.561 253.472 104.515V164.315C253.472 166.269 255.055 167.852 257.009 167.852H329.468C331.421 167.852 333.005 166.269 333.005 164.315V104.515C333.005 102.561 331.421 100.978 329.468 100.978Z" fill="white"/>
<path d="M256.787 100.978H329.747C330.611 100.978 331.44 101.321 332.051 101.932C332.662 102.543 333.005 103.371 333.005 104.236V112.641H253.464V104.293C253.464 103.857 253.55 103.425 253.717 103.022C253.884 102.62 254.129 102.254 254.438 101.946C254.746 101.638 255.113 101.394 255.516 101.228C255.919 101.062 256.351 100.977 256.787 100.978Z" fill="#407BFF"/>
<path opacity="0.5" d="M328.509 107.658C328.51 108.163 328.362 108.657 328.082 109.077C327.802 109.497 327.404 109.825 326.938 110.019C326.472 110.213 325.959 110.264 325.464 110.166C324.969 110.067 324.514 109.825 324.157 109.468C323.8 109.111 323.557 108.656 323.459 108.161C323.361 107.666 323.412 107.153 323.606 106.686C323.8 106.22 324.128 105.822 324.548 105.543C324.968 105.263 325.462 105.115 325.967 105.116C326.301 105.116 326.631 105.182 326.939 105.31C327.248 105.438 327.528 105.625 327.764 105.861C328 106.097 328.187 106.377 328.315 106.685C328.443 106.994 328.509 107.324 328.509 107.658Z" fill="white"/>
<path opacity="0.5" d="M321.277 107.658C321.278 108.163 321.13 108.656 320.851 109.076C320.571 109.496 320.174 109.824 319.708 110.018C319.242 110.212 318.73 110.264 318.235 110.166C317.74 110.069 317.285 109.826 316.928 109.47C316.571 109.114 316.327 108.66 316.228 108.165C316.129 107.671 316.179 107.158 316.372 106.691C316.565 106.225 316.891 105.827 317.311 105.546C317.73 105.266 318.223 105.116 318.728 105.116C319.402 105.116 320.05 105.384 320.528 105.86C321.005 106.337 321.275 106.983 321.277 107.658Z" fill="white"/>
<path opacity="0.5" d="M314.037 107.658C314.039 108.163 313.89 108.657 313.611 109.077C313.331 109.497 312.933 109.825 312.467 110.019C312.001 110.213 311.488 110.264 310.993 110.166C310.498 110.067 310.043 109.825 309.686 109.468C309.329 109.111 309.086 108.656 308.988 108.161C308.89 107.666 308.941 107.153 309.135 106.686C309.329 106.22 309.656 105.822 310.077 105.543C310.497 105.263 310.991 105.115 311.496 105.116C311.829 105.116 312.16 105.182 312.468 105.31C312.777 105.438 313.057 105.625 313.293 105.861C313.529 106.097 313.716 106.377 313.844 106.685C313.972 106.994 314.037 107.324 314.037 107.658Z" fill="white"/>
<path opacity="0.6" d="M312.162 122.386H271.372V124.763H312.162V122.386Z" fill="white"/>
<path opacity="0.6" d="M301.193 127.527H272.001V129.904H301.193V127.527Z" fill="#263238"/>
<path d="M323.188 122.386H315.162V124.763H323.188V122.386Z" fill="#407BFF"/>
<path d="M268.536 122.386H260.51V124.763H268.536V122.386Z" fill="#407BFF"/>
<path d="M312.162 133.233H271.372V135.611H312.162V133.233Z" fill="#407BFF"/>
<path opacity="0.6" d="M323.188 133.233H315.162V135.611H323.188V133.233Z" fill="white"/>
<path d="M268.536 133.233H260.51V135.611H268.536V133.233Z" fill="#407BFF"/>
<path d="M312.162 155.83H271.372V158.208H312.162V155.83Z" fill="#407BFF"/>
<path opacity="0.6" d="M323.188 155.83H315.162V158.208H323.188V155.83Z" fill="white"/>
<path d="M312.162 138.947H271.372V141.324H312.162V138.947Z" fill="#407BFF"/>
<path opacity="0.6" d="M323.188 138.947H315.162V141.324H323.188V138.947Z" fill="#263238"/>
<path opacity="0.6" d="M268.536 138.947H260.51V141.324H268.536V138.947Z" fill="#263238"/>
<path d="M323.776 127.62H304.386V129.997H323.776V127.62Z" fill="#407BFF"/>
<path opacity="0.6" d="M300.563 143.93H271.372V146.307H300.563V143.93Z" fill="white"/>
<path d="M323.146 144.024H303.756V146.401H323.146V144.024Z" fill="#407BFF"/>
<path opacity="0.6" d="M285.964 149.093H271.372V151.47H285.964V149.093Z" fill="#263238"/>
<path d="M113.73 32.5209H41.2704C39.317 32.5209 37.7334 34.1045 37.7334 36.0579V95.8582C37.7334 97.8117 39.317 99.3953 41.2704 99.3953H113.73C115.683 99.3953 117.267 97.8117 117.267 95.8582V36.0579C117.267 34.1045 115.683 32.5209 113.73 32.5209Z" fill="#407BFF"/>
<path opacity="0.5" d="M113.73 32.5209H41.2704C39.317 32.5209 37.7334 34.1045 37.7334 36.0579V95.8582C37.7334 97.8117 39.317 99.3953 41.2704 99.3953H113.73C115.683 99.3953 117.267 97.8117 117.267 95.8582V36.0579C117.267 34.1045 115.683 32.5209 113.73 32.5209Z" fill="white"/>
<path d="M41.0413 32.5209H114.009C114.873 32.5209 115.702 32.8641 116.313 33.4751C116.923 34.086 117.267 34.9146 117.267 35.7787V44.1845H37.7334V35.836C37.7334 34.958 38.0817 34.1159 38.7018 33.4944C39.322 32.8729 40.1633 32.5228 41.0413 32.5209Z" fill="#407BFF"/>
<path opacity="0.5" d="M112.77 39.2154C112.769 39.721 112.617 40.2148 112.334 40.6339C112.051 41.053 111.65 41.3785 111.182 41.569C110.713 41.7595 110.199 41.8064 109.704 41.7037C109.209 41.601 108.755 41.3534 108.401 40.9923C108.047 40.6313 107.809 40.1731 107.716 39.676C107.623 39.179 107.68 38.6655 107.88 38.201C108.079 37.7365 108.413 37.3419 108.837 37.0673C109.262 36.7928 109.759 36.6507 110.264 36.6593C110.935 36.6687 111.574 36.9426 112.044 37.4214C112.513 37.9001 112.774 38.5449 112.77 39.2154Z" fill="white"/>
<path opacity="0.5" d="M105.539 39.2156C105.539 39.7197 105.389 40.2125 105.109 40.6317C104.829 41.0509 104.431 41.3776 103.965 41.5705C103.5 41.7634 102.987 41.8139 102.493 41.7156C101.998 41.6172 101.544 41.3745 101.187 41.018C100.831 40.6615 100.588 40.2073 100.49 39.7129C100.392 39.2184 100.442 38.7059 100.635 38.2402C100.828 37.7744 101.155 37.3763 101.574 37.0962C101.993 36.8161 102.486 36.6666 102.99 36.6666C103.325 36.6657 103.657 36.731 103.966 36.8587C104.276 36.9865 104.557 37.1742 104.794 37.4111C105.031 37.648 105.219 37.9294 105.347 38.239C105.474 38.5487 105.54 38.8806 105.539 39.2156Z" fill="white"/>
<path opacity="0.5" d="M98.2996 39.2156C98.2996 39.72 98.1499 40.2131 97.8695 40.6325C97.5891 41.0518 97.1906 41.3785 96.7244 41.5712C96.2582 41.7639 95.7454 41.814 95.2507 41.715C94.7561 41.6161 94.3019 41.3726 93.9457 41.0154C93.5895 40.6582 93.3473 40.2034 93.2498 39.7085C93.1522 39.2135 93.2037 38.7008 93.3978 38.2352C93.5918 37.7695 93.9196 37.3719 94.3397 37.0927C94.7598 36.8135 95.2534 36.6652 95.7578 36.6666C96.0922 36.6666 96.4233 36.7326 96.7322 36.8608C97.041 36.989 97.3215 37.1769 97.5576 37.4136C97.7938 37.6504 97.9808 37.9315 98.1082 38.2407C98.2355 38.5499 98.3005 38.8812 98.2996 39.2156Z" fill="white"/>
<path d="M102.56 69.8029C99.9252 66.2658 94.5194 64.5403 90.9179 67.0964C90.3663 63.1418 88.2663 59.5684 85.0799 57.1622C81.8935 54.7559 77.8818 53.714 73.9272 54.2657C69.9727 54.8173 66.3992 56.9173 63.993 60.1037C61.5868 63.2901 60.5449 67.3018 61.0965 71.2564C57.6168 70.4616 53.7933 71.2993 51.5379 74.8936C48.6023 79.5476 52.4043 84.1658 52.4043 84.1658L72.8103 84.2876V76.8054H70.204C70.1007 76.8065 69.9994 76.7769 69.9129 76.7205C69.8263 76.664 69.7585 76.5831 69.7179 76.4881C69.6773 76.3931 69.6657 76.2882 69.6847 76.1867C69.7037 76.0851 69.7524 75.9914 69.8245 75.9175L72.8246 72.7814L76.3043 69.1513C76.3537 69.1007 76.4127 69.0604 76.4779 69.0329C76.5431 69.0054 76.6131 68.9912 76.6838 68.9912C76.7546 68.9912 76.8246 69.0054 76.8898 69.0329C76.9549 69.0604 77.0139 69.1007 77.0633 69.1513L80.5359 72.7814L83.5431 75.9175C83.612 75.9926 83.6577 76.086 83.6749 76.1865C83.6921 76.2869 83.6799 76.3902 83.6398 76.4839C83.5998 76.5776 83.5335 76.6578 83.4491 76.7148C83.3646 76.7718 83.2655 76.8032 83.1636 76.8054H80.5502V84.3234L102.274 84.4451C105.367 80.8937 105.202 73.3399 102.56 69.8029Z" fill="white"/>
<path d="M71.9726 270.92C71.9726 270.92 134.35 256.307 137.315 269.295C141.553 287.847 96.5457 300.319 72.574 299.56C48.6023 298.801 71.9726 270.92 71.9726 270.92Z" fill="#263238"/>
<path opacity="0.2" d="M71.9726 270.92C71.9726 270.92 134.35 256.307 137.315 269.295C141.553 287.847 96.5457 300.319 72.574 299.56C48.6023 298.801 71.9726 270.92 71.9726 270.92Z" fill="black"/>
<path opacity="0.7" d="M116.851 273.305L87.5526 291.921L91.462 297.477C91.462 297.477 89.4071 300.534 85.4834 291.154L103.605 279.176C103.605 279.176 97.9346 278.61 98.0778 277.744C98.3213 276.312 110.78 273.512 116.465 272.266C116.602 272.228 116.749 272.243 116.876 272.308C117.003 272.373 117.1 272.483 117.149 272.617C117.198 272.751 117.194 272.898 117.139 273.03C117.084 273.161 116.981 273.267 116.851 273.326V273.305Z" fill="black"/>
<path opacity="0.7" d="M86.4931 289.815L91.5767 298.049C85.3028 299.138 78.941 299.639 72.5741 299.546C70.4848 299.531 68.4138 299.156 66.4523 298.436L64.6694 295.171L68.5072 287.438L86.4931 289.815Z" fill="black"/>
<path d="M96.1871 286.55L83.1631 294.813L85.4972 301.135L100.791 294.262L96.1871 286.55Z" fill="#B97964"/>
<path d="M75.9888 296.932L77.2704 301.479C77.5601 301.553 77.8269 301.697 78.0469 301.9C78.2669 302.102 78.4331 302.356 78.5306 302.639C78.5703 303.32 78.4928 304.003 78.3015 304.658L81.7239 317.195C82.1399 317.086 82.5413 316.927 82.9197 316.723C83.2862 316.463 83.6203 316.16 83.9149 315.821C84.8457 314.754 84.9459 313.2 84.9817 312.054C85.039 310.135 86.1417 304.515 86.1417 304.515C86.5329 303.435 87.2142 302.484 88.1107 301.765C88.4597 301.513 88.7473 301.184 88.9518 300.805C89.1564 300.426 89.2727 300.005 89.2921 299.574C89.2689 299.337 89.1943 299.107 89.0735 298.901C88.9527 298.695 88.7885 298.518 88.5923 298.381C88.3962 298.245 88.1727 298.153 87.9374 298.112C87.7022 298.071 87.4608 298.081 87.23 298.142L85.9841 298.293C85.5417 297.979 85.2344 297.509 85.1242 296.978C85.0139 296.446 85.1089 295.893 85.3899 295.429C85.3899 295.429 86.1059 292.701 84.9817 293.159C84.323 293.417 81.4519 294.706 79.1463 295.651L77.6571 296.259L75.9888 296.932Z" fill="#263238"/>
<path d="M85.6622 307.508C85.6781 307.473 85.6825 307.434 85.6748 307.397C85.667 307.36 85.6476 307.326 85.6192 307.3C85.3476 307.044 85.0107 306.868 84.6455 306.792C84.445 306.792 84.3591 307.071 84.5524 307.114C84.8749 307.18 85.174 307.331 85.4187 307.551C85.4327 307.57 85.451 307.586 85.4721 307.596C85.4933 307.607 85.5167 307.613 85.5405 307.613C85.5642 307.613 85.5876 307.607 85.6088 307.596C85.6299 307.586 85.6482 307.57 85.6622 307.551V307.508Z" fill="#407BFF"/>
<path d="M85.9197 306.398C85.9356 306.363 85.94 306.325 85.9323 306.287C85.9245 306.25 85.9051 306.216 85.8767 306.19C85.6054 305.936 85.268 305.762 84.903 305.689C84.7025 305.646 84.6094 305.961 84.8099 306.004C85.1324 306.07 85.4315 306.221 85.6763 306.441C85.6929 306.459 85.7134 306.472 85.7362 306.48C85.759 306.488 85.7834 306.49 85.8073 306.486C85.8311 306.483 85.8538 306.474 85.8734 306.459C85.893 306.445 85.9088 306.427 85.9197 306.405V306.398Z" fill="#407BFF"/>
<path d="M86.135 305.274C86.1494 305.238 86.153 305.198 86.1454 305.16C86.1378 305.122 86.1192 305.087 86.092 305.059C85.8153 304.808 85.4768 304.635 85.1111 304.558C84.9178 304.515 84.8247 304.83 85.0252 304.873C85.3461 304.941 85.6429 305.094 85.8844 305.317C85.9015 305.334 85.9225 305.347 85.9456 305.354C85.9688 305.362 85.9934 305.363 86.0173 305.359C86.0413 305.355 86.0638 305.345 86.0831 305.33C86.1023 305.315 86.1177 305.296 86.1278 305.274H86.135Z" fill="#407BFF"/>
<path opacity="0.2" d="M77.6571 296.26L75.9888 296.976L77.2704 301.522C77.5601 301.596 77.8269 301.741 78.0469 301.943C78.2669 302.145 78.4331 302.399 78.5306 302.682C78.5703 303.363 78.4928 304.046 78.3015 304.701L81.7239 317.238C82.1399 317.129 82.5413 316.97 82.9197 316.766C83.1058 316.63 83.2705 316.494 83.428 316.358L77.9076 296.188L77.6571 296.26Z" fill="white"/>
<path d="M87.8749 306.19C87.7524 306.189 87.6302 306.177 87.5097 306.155C86.9326 305.943 86.3916 305.643 85.9059 305.267L85.7627 305.174L85.9202 305.109C86.3473 304.94 86.788 304.809 87.2377 304.715C87.6969 304.616 88.1745 304.643 88.6195 304.794C88.747 304.809 88.8662 304.864 88.959 304.953C89.0518 305.041 89.113 305.158 89.1333 305.285C89.1536 305.411 89.1318 305.541 89.0714 305.654C89.0109 305.767 88.9151 305.858 88.7985 305.911C88.5277 306.099 88.2045 306.197 87.8749 306.19ZM86.1422 305.224C86.5761 305.549 87.0596 305.803 87.5742 305.976C87.7693 306.02 87.9713 306.025 88.1682 305.989C88.3651 305.953 88.5527 305.878 88.7198 305.768C88.8005 305.72 88.867 305.652 88.9123 305.57C88.9576 305.489 88.9802 305.396 88.9775 305.302C88.9346 305.116 88.7198 305.009 88.5909 304.959C88.1728 304.821 87.7257 304.797 87.2949 304.887C86.9015 304.965 86.5157 305.078 86.1422 305.224Z" fill="#407BFF"/>
<path d="M85.8629 305.317V305.152C85.7984 304.538 85.825 303.918 85.9416 303.312C86.0164 303.099 86.1328 302.904 86.284 302.737C86.4352 302.569 86.6182 302.434 86.8223 302.338C86.9273 302.272 87.0508 302.24 87.175 302.248C87.2992 302.256 87.4177 302.303 87.5133 302.383C87.6089 302.462 87.6767 302.57 87.7069 302.691C87.7372 302.812 87.7283 302.939 87.6815 303.054C87.5792 303.514 87.354 303.937 87.03 304.279C86.7189 304.612 86.3786 304.916 86.0132 305.188L85.8629 305.317ZM87.1588 302.453C87.0629 302.453 86.9679 302.473 86.8796 302.51C86.6977 302.596 86.5349 302.718 86.4008 302.868C86.2668 303.018 86.1642 303.193 86.0992 303.384C85.989 303.906 85.9624 304.443 86.0204 304.973C86.3309 304.736 86.6207 304.472 86.8868 304.186C87.1842 303.865 87.3938 303.473 87.4954 303.047C87.5226 302.961 87.5283 302.87 87.5121 302.781C87.4959 302.693 87.4582 302.61 87.4023 302.539C87.3702 302.508 87.332 302.483 87.2902 302.467C87.2483 302.451 87.2036 302.444 87.1588 302.446V302.453Z" fill="#407BFF"/>
<path d="M97.7412 231.232C97.7412 231.232 100.018 251.509 100.605 252.598C102.667 256.278 116.307 262.622 116.307 262.622L123.259 261.19L128.271 265.35L124.985 267.92L121.133 266.488C119.03 266.863 116.897 267.05 114.761 267.047C111.181 267.047 93.8462 262.657 90.9536 257.824C88.0609 252.991 86.7363 230.616 86.7363 230.616L97.7412 231.232Z" fill="#B97964"/>
<path d="M86.4288 239.201C86.4288 239.201 81.0874 221.394 87.7462 216.447C94.405 211.499 99.6963 235.994 99.6963 235.994L86.4288 239.201Z" fill="#407BFF"/>
<path opacity="0.3" d="M86.4288 239.201C86.4288 239.201 81.0874 221.394 87.7462 216.447C94.405 211.499 99.6963 235.994 99.6963 235.994L86.4288 239.201Z" fill="white"/>
<path d="M90.6456 271.779L90.5955 248.151L89.9368 215.645L76.1395 212.781L63.9675 212.244L50.1916 218.609L49.8694 226.543C49.8694 226.543 51.4446 262.958 51.3587 264.061C51.2513 265.407 47.3276 273.849 47.3276 273.849C64.7837 277.83 90.932 272.982 90.6456 271.779Z" fill="#407BFF"/>
<path opacity="0.3" d="M90.6456 271.779L90.5955 248.151L89.9368 215.645L76.1395 212.781L63.9675 212.244L50.1916 218.609L49.8694 226.543C49.8694 226.543 51.4446 262.958 51.3587 264.061C51.2513 265.407 47.3276 273.849 47.3276 273.849C64.7837 277.83 90.932 272.982 90.6456 271.779Z" fill="white"/>
<path d="M70.8843 217.499C70.8843 217.499 74.271 220.514 76.0037 216.619L76.9058 217.335C76.9058 217.335 76.8199 220.235 75.1731 221.201C75.5741 222.812 82.4477 246.225 83.6792 258.025L81.8033 262.815L76.7913 258.87C76.7913 258.87 74.3712 238.629 73.5406 221.423C72.569 221.097 71.6808 220.563 70.9385 219.856C70.1962 219.15 69.618 218.289 69.2446 217.335L70.8843 217.499Z" fill="#407BFF"/>
<path opacity="0.2" d="M75.252 217.915L78.1876 220.199L78.6673 213.347L77.7365 213.146L76.956 217.764L75.567 216.955L75.252 217.915Z" fill="black"/>
<path opacity="0.2" d="M61.1106 213.611C61.0605 213.611 68.02 222.125 68.02 222.125L70.3828 220.32L72.0081 218.946L72.4306 218.43L63.2157 212.029C62.7926 212.481 62.338 212.902 61.8553 213.289C61.5973 213.373 61.348 213.481 61.1106 213.611Z" fill="black"/>
<path d="M61.605 213.468L64.9702 210.461L74.1851 219.089L71.7793 218.237L68.2638 220.936L61.605 213.468Z" fill="#407BFF"/>
<path d="M74.1849 219.089C73.9844 218.695 74.9009 210.862 74.9009 210.862L78.1659 213.096C77.994 213.06 77.8795 219.54 77.7721 219.54C77.6647 219.54 75.6241 217.32 75.6241 217.32L74.1849 219.089Z" fill="#407BFF"/>
<path opacity="0.2" d="M90.4025 238.242L89.6865 223.02L93.0947 237.591L90.4025 238.242Z" fill="black"/>
<path opacity="0.2" d="M60.8602 240.461C61.2898 240.375 63.4593 239.659 63.4593 239.659L58.6406 226.213L65.2779 241.127L61.2898 242.717L60.8602 240.461Z" fill="black"/>
<path opacity="0.3" d="M61.605 213.468L64.9702 210.461L74.1851 219.089L71.7793 218.237L68.2638 220.936L61.605 213.468Z" fill="white"/>
<path opacity="0.3" d="M74.1849 219.089C73.9844 218.695 74.9009 210.862 74.9009 210.862L78.1659 213.096C77.994 213.06 77.8795 219.54 77.7721 219.54C77.6647 219.54 75.6241 217.32 75.6241 217.32L74.1849 219.089Z" fill="white"/>
<path opacity="0.3" d="M79.4116 231.676L80.9582 239.273L85.4618 240.905L88.5048 238.249L87.9463 231.075L79.4116 231.676Z" fill="white"/>
<path d="M74.7364 218.43L73.3044 218.774C73.3044 218.774 73.2542 218.867 73.3044 218.81C73.3545 218.752 72.5239 221.509 72.5239 221.509C72.753 221.717 73.5192 223.041 73.6051 223.02C73.691 222.998 75.5884 222.819 75.5884 222.819L76.3044 220.814L74.7364 218.43Z" fill="#407BFF"/>
<path opacity="0.2" d="M74.7364 218.43L73.3044 218.774C73.3044 218.774 73.2542 218.867 73.3044 218.81C73.3545 218.752 72.5239 221.509 72.5239 221.509C72.753 221.717 73.5192 223.041 73.6051 223.02C73.691 222.998 75.5884 222.819 75.5884 222.819L76.3044 220.814L74.7364 218.43Z" fill="black"/>
<path d="M59.0056 229.306C59.0056 229.306 62.3851 251.817 64.3398 253.922C67.6406 257.502 84.0012 266.918 84.0012 266.918L92.1707 264.054C92.45 263.961 92.7478 263.937 93.0384 263.984C93.329 264.032 93.6037 264.149 93.839 264.326L99.4238 268.622L98.894 269.073C98.779 269.169 98.6387 269.229 98.49 269.247C98.3413 269.265 98.1906 269.239 98.0562 269.173L97.1899 268.743L98.1565 269.689L97.8558 269.954C97.7017 270.081 97.5192 270.17 97.3235 270.213C97.1278 270.255 96.9248 270.25 96.7316 270.197L94.2328 269.524L96.5383 271.063C96.2784 271.277 95.9707 271.424 95.6416 271.492C95.3124 271.561 94.9715 271.549 94.6481 271.457L90.9965 270.419C88.5029 270.987 85.9669 271.348 83.414 271.5C79.118 271.765 58.8051 264.669 55.0175 259.478C51.2298 254.287 47.3276 232.671 47.3276 232.671L59.0056 229.306Z" fill="#B97964"/>
<path d="M48.1942 244.285C48.1942 244.285 43.132 223.879 49.7908 218.931C56.4496 213.984 63.044 239.803 63.044 239.803L48.1942 244.285Z" fill="#407BFF"/>
<path opacity="0.3" d="M48.1942 244.285C48.1942 244.285 43.132 223.879 49.7908 218.931C56.4496 213.984 63.044 239.803 63.044 239.803L48.1942 244.285Z" fill="white"/>
<path d="M91.7772 191.501C92.2016 191.456 92.5956 191.26 92.8876 190.948C93.1796 190.637 93.3502 190.231 93.3684 189.805C93.3866 189.378 93.2512 188.959 92.9868 188.624C92.7224 188.289 92.3466 188.06 91.9276 187.979L87.9824 187.585C88.1686 190.12 88.3571 192.652 88.5481 195.182C89.3068 195.411 90.1163 195.411 90.8751 195.182C91.2531 195.062 91.5978 194.855 91.8813 194.578C92.1648 194.3 92.3793 193.96 92.5075 193.585C92.6264 193.205 92.6195 192.798 92.4879 192.422C92.3563 192.047 92.1071 191.724 91.7772 191.501Z" fill="#263238"/>
<path d="M76.6912 206.115L68.2066 195.439C68.2066 195.439 68.2066 195.439 68.2066 195.475C68.2066 196.485 68.2066 197.623 68.092 198.869C68.092 198.869 67.1755 198.432 67.1755 198.447C66.8104 203.988 64.6194 213.483 64.7196 214.27L73.6338 218.702L75.2592 217.077L75.5742 213.497C74.6649 211.206 75.5098 208.571 76.6912 206.115Z" fill="#B97964"/>
<path opacity="0.2" d="M75.4165 209.717L70.0536 205.478C69.9176 207.626 71.0489 211.027 75.352 212.788C75.1188 211.775 75.141 210.719 75.4165 209.717Z" fill="black"/>
<path d="M70.0176 190.148C68.2634 197.308 67.5975 200.781 70.0176 205.478C73.705 212.538 82.7194 212.595 86.6001 206.058C90.087 200.179 92.3783 189.425 86.3137 184.535C84.9703 183.461 83.3774 182.745 81.6829 182.452C79.9885 182.159 78.2474 182.299 76.6216 182.859C74.9957 183.419 73.5378 184.381 72.3832 185.655C71.2286 186.93 70.4149 188.475 70.0176 190.148Z" fill="#B97964"/>
<path d="M71.5285 180.396C73.6765 176.816 79.4045 176.236 81.5023 179.065C81.8102 179.487 78.4164 179.587 78.803 179.566L76.8125 185.229C76.4187 185.007 75.445 185.229 74.6216 186.404C74.6216 186.404 73.3399 194.194 69.3017 196.37C65.3422 190.9 65.7933 180.411 71.5285 180.396Z" fill="#263238"/>
<path d="M65.4067 195.16C65.4154 196.079 65.6058 196.986 65.9671 197.83C66.3284 198.675 66.8534 199.439 67.5118 200.079C69.2946 201.776 71.3567 200.459 71.8507 198.182C72.2875 196.127 71.8937 192.762 69.6383 191.931C67.3829 191.101 65.4067 192.883 65.4067 195.16Z" fill="#B97964"/>
<path d="M79.7407 196.17C79.5188 196.886 79.7407 197.602 80.1918 197.731C80.6429 197.859 81.23 197.401 81.4591 196.685C81.6883 195.969 81.4591 195.253 81.0081 195.117C80.557 194.981 79.9699 195.446 79.7407 196.17Z" fill="#263238"/>
<path d="M86.815 198.468C86.593 199.184 86.815 199.9 87.266 200.029C87.7171 200.158 88.3114 199.7 88.5334 198.984C88.7553 198.268 88.5334 197.552 88.0823 197.416C87.6312 197.28 87.0441 197.745 86.815 198.468Z" fill="#263238"/>
<path d="M84.3234 196.542C84.3234 196.542 85.2256 199.828 85.6337 201.776C85.6578 201.886 85.6577 201.999 85.6334 202.109C85.6091 202.219 85.5612 202.322 85.4931 202.411C85.4249 202.5 85.3382 202.574 85.2388 202.626C85.1394 202.678 85.0299 202.708 84.9177 202.714C84.212 202.698 83.5209 202.509 82.9058 202.163L84.3234 196.542Z" fill="#A24E3F"/>
<path d="M78.9891 191.838C79.0372 191.878 79.0947 191.905 79.1561 191.916C79.2176 191.927 79.2808 191.923 79.34 191.902C79.7518 191.734 80.1972 191.664 80.6409 191.697C81.0845 191.731 81.5143 191.867 81.8961 192.096C81.9727 192.151 82.0677 192.174 82.1611 192.161C82.2545 192.148 82.3392 192.099 82.3973 192.024C82.4513 191.948 82.4732 191.853 82.4585 191.761C82.4438 191.669 82.3936 191.586 82.3185 191.53C81.8421 191.228 81.3004 191.045 80.7387 190.995C80.177 190.945 79.6115 191.031 79.0894 191.244C79.0031 191.277 78.9333 191.343 78.8946 191.427C78.8559 191.511 78.8513 191.607 78.8817 191.695C78.9048 191.751 78.9418 191.8 78.9891 191.838Z" fill="#263238"/>
<path d="M90.574 195.189C90.643 195.174 90.707 195.142 90.7602 195.096C90.8253 195.03 90.8619 194.941 90.8619 194.849C90.8619 194.756 90.8253 194.667 90.7602 194.602C90.3983 194.176 89.9396 193.843 89.4226 193.632C88.9056 193.42 88.3453 193.335 87.7888 193.385C87.6956 193.4 87.6121 193.452 87.556 193.528C87.5 193.604 87.4756 193.699 87.4881 193.793C87.495 193.838 87.511 193.882 87.5349 193.922C87.5588 193.961 87.5903 193.995 87.6276 194.023C87.6648 194.05 87.7071 194.07 87.752 194.08C87.7968 194.091 87.8434 194.093 87.889 194.086C88.3303 194.047 88.7746 194.116 89.1828 194.288C89.5911 194.461 89.9508 194.73 90.2303 195.074C90.2731 195.121 90.3272 195.156 90.3873 195.176C90.4474 195.196 90.5117 195.201 90.574 195.189Z" fill="#263238"/>
<path d="M79.1471 203.63C79.3947 203.831 79.6581 204.01 79.9347 204.167C79.9787 204.19 80.0291 204.196 80.0773 204.186C80.1256 204.175 80.1688 204.149 80.1996 204.11C80.2207 204.063 80.2235 204.01 80.2077 203.961C80.1918 203.912 80.1583 203.871 80.1137 203.845C79.4034 203.464 78.7932 202.92 78.3328 202.258C77.8724 201.596 77.5749 200.835 77.4645 200.036C77.4591 199.987 77.4354 199.943 77.3982 199.911C77.361 199.879 77.313 199.862 77.264 199.864C77.2196 199.862 77.1761 199.878 77.1428 199.907C77.1094 199.936 77.0887 199.978 77.085 200.022C77.0817 200.036 77.0817 200.051 77.085 200.065C77.1685 200.768 77.3944 201.447 77.7489 202.06C78.1035 202.673 78.5792 203.207 79.1471 203.63Z" fill="#263238"/>
<path d="M95.3356 186.139C94.8487 184.707 93.1446 184.105 91.6339 183.991C92.1047 183.936 92.5385 183.709 92.8518 183.353C93.1651 182.997 93.3358 182.538 93.3308 182.065C93.3016 181.59 93.1668 181.127 92.9365 180.711C92.7061 180.295 92.3859 179.936 91.9991 179.659C91.3271 179.137 90.5321 178.797 89.6906 178.672C88.8492 178.546 87.9896 178.64 87.1947 178.943C87.3364 178.858 87.4444 178.727 87.5005 178.572C87.5566 178.416 87.5573 178.246 87.5026 178.091C87.3855 177.78 87.1755 177.512 86.9011 177.325C86.0815 176.735 85.0859 176.442 84.0777 176.493C83.0695 176.544 82.1085 176.935 81.3521 177.604C81.0652 176.739 80.4661 176.011 79.6718 175.564C78.8775 175.116 77.9449 174.981 77.0561 175.184C75.3449 175.628 72.1229 175.971 71.6288 180.346C71.2603 179.995 70.8212 179.726 70.3406 179.558C69.8601 179.39 69.3492 179.327 68.8421 179.372C68.335 179.417 67.8434 179.569 67.4 179.819C66.9565 180.07 66.5716 180.411 66.2707 180.822C65.9699 181.233 65.7601 181.703 65.6554 182.201C65.5507 182.699 65.5534 183.214 65.6634 183.711C65.7734 184.208 65.9882 184.676 66.2933 185.084C66.5985 185.491 66.9871 185.829 67.4331 186.074C67.0289 185.942 66.5895 185.968 66.2039 186.147C65.8183 186.327 65.5155 186.646 65.3567 187.041C65.2173 187.443 65.1876 187.876 65.2706 188.293C65.3537 188.711 65.5465 189.099 65.8293 189.418C66.4075 190.041 67.1534 190.483 67.9772 190.692C68.7419 190.941 69.5617 190.966 70.34 190.764C70.7254 190.655 71.0754 190.446 71.3555 190.16C71.6355 189.874 71.8359 189.519 71.9367 189.131C72.0227 189.539 72.2553 189.902 72.5904 190.15C72.9256 190.398 73.34 190.515 73.7554 190.478C74.169 190.415 74.5524 190.224 74.8508 189.931C75.1491 189.638 75.3471 189.258 75.4165 188.845C75.4707 188.431 75.4145 188.011 75.2535 187.626C75.0926 187.241 74.8326 186.906 74.5 186.654C74.7457 186.861 75.0348 187.011 75.3459 187.091C75.6571 187.172 75.9823 187.181 76.2977 187.12C76.6131 187.058 76.9105 186.926 77.1682 186.734C77.4259 186.542 77.6371 186.294 77.7864 186.01C78.4206 187.394 79.5061 188.523 80.8652 189.21C81.5514 189.535 82.3252 189.625 83.0677 189.467C83.8101 189.31 84.4803 188.912 84.9751 188.337C85.4004 188.883 85.902 189.365 86.4644 189.769C86.75 189.967 87.0749 190.102 87.4171 190.163C87.7593 190.225 88.1107 190.213 88.4477 190.127C88.7802 190.026 89.0666 189.812 89.2565 189.521C89.4464 189.23 89.5277 188.882 89.4859 188.537C90.0163 189.012 90.6578 189.345 91.351 189.507C92.0442 189.668 92.767 189.652 93.4525 189.461C94.1201 189.236 94.6812 188.772 95.0286 188.159C95.376 187.546 95.4853 186.827 95.3356 186.139Z" fill="#263238"/>
<path d="M102.696 270.218H76.8052C76.8052 271.207 77.915 272.001 79.2754 271.994H121.441C122.787 271.994 123.868 271.185 123.861 270.204L102.696 270.218Z" fill="#263238"/>
<path d="M121.827 271.915H98.1994C98.0265 271.928 97.8555 271.873 97.7222 271.762C97.5888 271.651 97.5033 271.493 97.4834 271.321C97.4849 271.258 97.497 271.195 97.5192 271.135L108.044 247.02C108.22 246.655 108.498 246.35 108.846 246.142C109.194 245.935 109.595 245.834 109.999 245.853H133.627C133.799 245.839 133.97 245.892 134.104 246.002C134.237 246.111 134.323 246.269 134.343 246.44C134.343 246.507 134.328 246.573 134.3 246.634L123.782 270.756C123.604 271.118 123.325 271.421 122.978 271.627C122.63 271.833 122.231 271.933 121.827 271.915Z" fill="#263238"/>
<path opacity="0.7" d="M133.627 245.846H109.999C109.595 245.827 109.194 245.928 108.846 246.135C108.498 246.343 108.22 246.648 108.044 247.013L97.92 270.219H76.8052C76.8052 271.207 77.915 272.001 79.2754 271.994H121.441C121.841 271.993 122.238 271.913 122.608 271.758C122.867 271.683 123.107 271.552 123.311 271.375C123.515 271.199 123.678 270.98 123.789 270.734L134.307 246.612C134.335 246.551 134.35 246.485 134.35 246.419C134.327 246.248 134.239 246.094 134.104 245.987C133.969 245.88 133.798 245.829 133.627 245.846Z" fill="white"/>
<path d="M119.415 258.691C118.899 259.844 117.868 260.638 117.095 260.481C116.322 260.323 116.114 259.264 116.615 258.104C117.116 256.944 118.155 256.163 118.928 256.328C119.701 256.493 119.93 257.502 119.415 258.691Z" fill="white"/>
<g opacity="0.3">
<path d="M108.009 247.013L97.8843 270.219H98.9798L109.963 245.875C109.562 245.853 109.163 245.95 108.816 246.152C108.469 246.354 108.188 246.653 108.009 247.013Z" fill="black"/>
</g>
<path d="M109.226 296.975L124.462 299.424L126.904 293.145L110.894 288.147L109.226 296.975Z" fill="#B97964"/>
<path d="M131.236 302.596L133.291 298.343C133.122 298.096 133.017 297.811 132.987 297.513C132.957 297.215 133.002 296.915 133.119 296.639C133.348 296.123 134.63 295.278 134.63 295.278L140.358 283.622C139.974 283.426 139.568 283.279 139.148 283.185C138.701 283.135 138.249 283.135 137.802 283.185C136.406 283.379 135.303 284.467 134.515 285.333C133.198 286.765 128.644 290.209 128.644 290.209C127.634 290.759 126.492 291.02 125.343 290.961C124.914 290.916 124.481 290.971 124.076 291.119C123.672 291.268 123.307 291.508 123.009 291.82C122.865 292.012 122.766 292.234 122.717 292.469C122.668 292.704 122.671 292.947 122.727 293.18C122.782 293.414 122.888 293.632 123.037 293.82C123.186 294.009 123.374 294.162 123.589 294.269L124.627 294.985C124.752 295.511 124.675 296.065 124.409 296.536C124.144 297.007 123.71 297.361 123.195 297.527C123.195 297.527 120.833 299.088 122 299.496C122.658 299.739 125.666 300.684 128.014 301.501L129.539 302.03L131.236 302.596Z" fill="#263238"/>
<path d="M131.028 288.262C130.991 288.276 130.96 288.302 130.939 288.335C130.918 288.369 130.909 288.409 130.914 288.448C130.956 288.818 131.094 289.171 131.315 289.472C131.436 289.637 131.716 289.472 131.594 289.293C131.394 289.031 131.27 288.719 131.236 288.391C131.236 288.366 131.23 288.342 131.218 288.321C131.206 288.299 131.189 288.281 131.168 288.268C131.147 288.255 131.123 288.248 131.099 288.247C131.074 288.246 131.05 288.251 131.028 288.262Z" fill="#407BFF"/>
<path d="M130.075 288.92C130.04 288.935 130.01 288.962 129.991 288.995C129.971 289.029 129.963 289.068 129.968 289.106C130.003 289.477 130.139 289.832 130.362 290.13C130.484 290.295 130.763 290.13 130.641 289.951C130.443 289.689 130.322 289.376 130.29 289.049C130.287 289.026 130.279 289.004 130.267 288.984C130.254 288.964 130.237 288.948 130.217 288.935C130.197 288.923 130.175 288.915 130.152 288.913C130.128 288.91 130.105 288.913 130.083 288.92H130.075Z" fill="#407BFF"/>
<path d="M129.166 289.629C129.131 289.644 129.101 289.671 129.082 289.704C129.062 289.738 129.054 289.777 129.059 289.815C129.096 290.187 129.235 290.541 129.46 290.839C129.574 290.997 129.854 290.839 129.732 290.66C129.538 290.395 129.417 290.084 129.381 289.758C129.38 289.734 129.372 289.711 129.36 289.691C129.348 289.67 129.331 289.653 129.31 289.64C129.29 289.628 129.267 289.62 129.243 289.618C129.219 289.616 129.196 289.62 129.173 289.629H129.166Z" fill="#407BFF"/>
<path opacity="0.2" d="M133.119 296.639C133.348 296.123 134.63 295.278 134.63 295.278L140.358 283.622C139.974 283.426 139.568 283.279 139.148 283.185C138.919 283.185 138.704 283.185 138.496 283.185L129.26 301.944L129.518 302.03L131.222 302.625L133.277 298.372C133.104 298.12 133 297.829 132.972 297.526C132.944 297.222 132.995 296.917 133.119 296.639Z" fill="white"/>
<path d="M129.374 289.944L129.216 289.887L129.252 289.801L129.216 289.88C128.784 289.73 128.367 289.54 127.97 289.314C127.56 289.083 127.221 288.744 126.989 288.333C126.916 288.23 126.872 288.11 126.861 287.984C126.849 287.858 126.872 287.732 126.925 287.617C127 287.513 127.103 287.432 127.222 287.386C127.342 287.339 127.472 287.327 127.598 287.352C127.821 287.383 128.036 287.458 128.229 287.574C128.422 287.69 128.59 287.843 128.722 288.025C129.012 288.567 129.219 289.149 129.338 289.751L129.374 289.944ZM127.498 287.553C127.417 287.547 127.337 287.56 127.263 287.593C127.189 287.625 127.125 287.675 127.075 287.739C127.045 287.823 127.036 287.913 127.048 288.002C127.061 288.091 127.095 288.175 127.147 288.247C127.364 288.63 127.681 288.947 128.063 289.164C128.402 289.359 128.756 289.524 129.123 289.658C129.02 289.134 128.837 288.629 128.579 288.161C128.461 287.999 128.312 287.861 128.139 287.758C127.967 287.654 127.776 287.587 127.576 287.56L127.498 287.553Z" fill="#407BFF"/>
<path d="M127.176 291.448C127.02 291.446 126.866 291.422 126.718 291.376C126.595 291.342 126.484 291.275 126.396 291.183C126.308 291.091 126.246 290.977 126.216 290.854C126.218 290.733 126.25 290.614 126.311 290.509C126.371 290.403 126.456 290.315 126.56 290.252C126.941 289.978 127.389 289.81 127.856 289.765C128.313 289.726 128.773 289.726 129.231 289.765H129.403L129.295 289.894C128.944 290.409 128.514 290.866 128.021 291.247C127.759 291.381 127.469 291.449 127.176 291.448ZM128.472 289.916C128.274 289.905 128.075 289.905 127.877 289.916C127.441 289.956 127.024 290.112 126.667 290.367C126.591 290.414 126.527 290.478 126.48 290.553C126.433 290.629 126.404 290.715 126.395 290.804C126.419 290.894 126.466 290.977 126.533 291.042C126.6 291.108 126.684 291.154 126.775 291.176C127.166 291.287 127.586 291.238 127.942 291.04C128.369 290.721 128.744 290.337 129.052 289.901L128.472 289.916Z" fill="#407BFF"/>
<path d="M51.989 290.03C48.7026 284.796 41.249 270.612 56.3423 267.834C71.4356 265.056 121.756 288.992 121.756 288.992L118.57 298.622L71.7077 291.247C71.7077 291.247 78.1517 299.804 70.3401 299.417C59.0273 298.286 56.3137 295.579 51.989 290.03Z" fill="#263238"/>
<path opacity="0.7" d="M72.8172 291.498L59.9292 287.453C59.9292 287.453 70.7122 294.047 74.6716 294.835L72.8172 291.498Z" fill="black"/>
<path d="M25.0592 169.413H51.2648C52.4042 169.413 53.4969 169.865 54.3025 170.671C55.1082 171.477 55.5608 172.569 55.5608 173.709V187.857C55.5608 188.996 55.1082 190.089 54.3025 190.895C53.4969 191.7 52.4042 192.153 51.2648 192.153H44.9926L44.9497 196.449L40.2312 192.153H25.0592C23.9198 192.153 22.8271 191.7 22.0215 190.895C21.2158 190.089 20.7632 188.996 20.7632 187.857V173.701C20.7651 172.563 21.2185 171.472 22.024 170.668C22.8294 169.864 23.9211 169.413 25.0592 169.413Z" fill="#407BFF"/>
<path d="M34.9331 178.542L30.7875 180.468L34.9188 182.401V183.955L29.3984 181.277V179.666L34.9188 176.988L34.9331 178.542Z" fill="white"/>
<path d="M47.5062 179.666V181.277L41.9858 183.955V182.415L46.1172 180.482L41.9858 178.556V177.002L47.5062 179.666Z" fill="white"/>
<path d="M39.4295 175.9L36.7373 185.208H38.0834L40.7755 175.9H39.4295Z" fill="white"/>
<path d="M45.2147 168.446H31.761C31.7136 168.446 31.668 168.427 31.6345 168.394C31.6009 168.36 31.582 168.315 31.582 168.267C31.582 168.22 31.6009 168.174 31.6345 168.14C31.668 168.107 31.7136 168.088 31.761 168.088H45.2147C45.2621 168.088 45.3077 168.107 45.3412 168.14C45.3748 168.174 45.3937 168.22 45.3937 168.267C45.3937 168.315 45.3748 168.36 45.3412 168.394C45.3077 168.427 45.2621 168.446 45.2147 168.446Z" fill="#407BFF"/>
<path d="M48.9305 168.453H46.7825C46.735 168.453 46.6895 168.434 46.6559 168.401C46.6224 168.367 46.6035 168.322 46.6035 168.274C46.6035 168.227 46.6224 168.181 46.6559 168.148C46.6895 168.114 46.735 168.095 46.7825 168.095H48.9305C48.978 168.095 49.0235 168.114 49.0571 168.148C49.0907 168.181 49.1095 168.227 49.1095 168.274C49.1095 168.322 49.0907 168.367 49.0571 168.401C49.0235 168.434 48.978 168.453 48.9305 168.453Z" fill="#407BFF"/>
</svg>
