<svg width="306" height="237" viewBox="0 0 306 237" fill="none" xmlns="http://www.w3.org/2000/svg">
<path d="M271.679 168.726H161.084C160.134 168.724 159.222 168.346 158.55 167.674C157.878 167.002 157.5 166.09 157.498 165.14V4.01233C157.501 3.06274 157.88 2.15305 158.552 1.48215C159.224 0.811261 160.135 0.433741 161.084 0.432129H271.679C272.628 0.433741 273.539 0.811261 274.211 1.48215C274.883 2.15305 275.262 3.06274 275.265 4.01233V165.14C275.264 166.09 274.885 167.002 274.213 167.674C273.541 168.346 272.63 168.724 271.679 168.726ZM161.084 0.585129C160.632 0.581902 160.183 0.668122 159.764 0.838834C159.345 1.00955 158.964 1.26139 158.643 1.57987C158.322 1.89836 158.066 2.27721 157.892 2.69465C157.718 3.1121 157.627 3.55991 157.627 4.01233V165.14C157.627 166.05 157.988 166.924 158.632 167.567C159.276 168.211 160.149 168.573 161.06 168.573H271.679C272.589 168.573 273.463 168.211 274.107 167.567C274.75 166.924 275.112 166.05 275.112 165.14V4.01233C275.112 3.10176 274.75 2.22848 274.107 1.58461C273.463 0.940734 272.589 0.579008 271.679 0.579008L161.084 0.585129Z" fill="#F0F0F0"/>
<path d="M144.119 168.726H33.5004C32.5497 168.724 31.6385 168.346 30.9663 167.674C30.294 167.002 29.9157 166.09 29.9141 165.14V4.01235C29.9157 3.06169 30.294 2.15044 30.9663 1.47822C31.6385 0.806008 32.5497 0.427644 33.5004 0.426025H144.119C145.07 0.427644 145.981 0.806008 146.654 1.47822C147.326 2.15044 147.704 3.06169 147.706 4.01235V165.14C147.704 166.09 147.326 167.002 146.654 167.674C145.981 168.346 145.07 168.724 144.119 168.726ZM33.5004 0.585147C32.5909 0.585145 31.7185 0.946029 31.0748 1.58858C30.4311 2.23113 30.0687 3.10283 30.0671 4.01235V165.14C30.0671 166.05 30.4288 166.924 31.0727 167.567C31.7165 168.211 32.5898 168.573 33.5004 168.573H144.119C145.03 168.573 145.903 168.211 146.547 167.567C147.191 166.924 147.553 166.05 147.553 165.14V4.01235C147.553 3.10177 147.191 2.2285 146.547 1.58462C145.903 0.940752 145.03 0.579025 144.119 0.579025L33.5004 0.585147Z" fill="#F0F0F0"/>
<path d="M306 206.101H0V206.254H306V206.101Z" fill="#E0E0E0"/>
<path d="M110.423 15.9769L129.744 15.9769C130.251 15.9769 130.662 15.5659 130.662 15.0589V10.6954C130.662 10.1884 130.251 9.77737 129.744 9.77737L110.423 9.77737C109.916 9.77737 109.505 10.1884 109.505 10.6954V15.0589C109.505 15.5659 109.916 15.9769 110.423 15.9769Z" fill="#F0F0F0"/>
<path d="M98.8803 23.8779L118.201 23.8779C118.708 23.8779 119.119 23.4669 119.119 22.9599V18.5964C119.119 18.0894 118.708 17.6784 118.201 17.6784L98.8803 17.6784C98.3733 17.6784 97.9623 18.0894 97.9623 18.5964V22.9599C97.9623 23.4669 98.3733 23.8779 98.8803 23.8779Z" fill="#F0F0F0"/>
<path d="M59.1627 124.656H39.8418C39.3348 124.656 38.9238 125.067 38.9238 125.574V129.937C38.9238 130.444 39.3348 130.855 39.8418 130.855H59.1627C59.6697 130.855 60.0807 130.444 60.0807 129.937V125.574C60.0807 125.067 59.6697 124.656 59.1627 124.656Z" fill="#F0F0F0"/>
<path d="M70.7037 132.557H51.3828C50.8758 132.557 50.4648 132.968 50.4648 133.475V137.838C50.4648 138.345 50.8758 138.756 51.3828 138.756H70.7037C71.2107 138.756 71.6217 138.345 71.6217 137.838V133.475C71.6217 132.968 71.2107 132.557 70.7037 132.557Z" fill="#F0F0F0"/>
<path d="M190.778 8.92664H171.457C170.95 8.92664 170.539 9.33764 170.539 9.84464V14.2082C170.539 14.7152 170.95 15.1262 171.457 15.1262H190.778C191.285 15.1262 191.696 14.7152 191.696 14.2082V9.84464C191.696 9.33764 191.285 8.92664 190.778 8.92664Z" fill="#F0F0F0"/>
<path d="M213.858 8.92664H194.537C194.03 8.92664 193.619 9.33764 193.619 9.84464V14.2082C193.619 14.7152 194.03 15.1262 194.537 15.1262H213.858C214.365 15.1262 214.776 14.7152 214.776 14.2082V9.84464C214.776 9.33764 214.365 8.92664 213.858 8.92664Z" fill="#F0F0F0"/>
<path d="M202.315 16.8276H182.994C182.487 16.8276 182.076 17.2386 182.076 17.7456V22.1092C182.076 22.6162 182.487 23.0272 182.994 23.0272H202.315C202.822 23.0272 203.233 22.6162 203.233 22.1092V17.7456C203.233 17.2386 202.822 16.8276 202.315 16.8276Z" fill="#F0F0F0"/>
<path d="M268.167 11.0381H225.131V115.598H268.167V11.0381Z" fill="#F0F0F0"/>
<path d="M265.541 13.6635H227.756V112.973H265.541V13.6635Z" fill="#FAFAFA"/>
<path d="M265.541 17.917V25.414L227.756 63.205V55.7019L265.541 17.917Z" fill="white"/>
<path d="M265.541 43.8474V54.4228L227.756 92.2077V81.6262L265.541 43.8474Z" fill="white"/>
<path d="M247.953 11.0381H245.352V115.598H247.953V11.0381Z" fill="#F0F0F0"/>
<path d="M268.167 61.981H225.131V64.6493H268.167V61.981Z" fill="#F0F0F0"/>
<path d="M81.9597 11.0381H38.9238V115.598H81.9597V11.0381Z" fill="#F0F0F0"/>
<path d="M79.3337 13.6635H41.5488V112.973H79.3337V13.6635Z" fill="#FAFAFA"/>
<path d="M79.3337 17.917V25.414L41.5488 63.205V55.7019L79.3337 17.917Z" fill="white"/>
<path d="M79.3337 43.8474V54.4228L41.5488 92.2077V81.6262L79.3337 43.8474Z" fill="white"/>
<path d="M61.7377 11.0381H59.1367V115.598H61.7377V11.0381Z" fill="#F0F0F0"/>
<path d="M81.9597 61.981H38.9238V64.6493H81.9597V61.981Z" fill="#F0F0F0"/>
<path d="M275.56 164.522L272.12 175.984L271.661 177.52L269.862 183.494C269.619 184.301 269.122 185.01 268.446 185.513C267.769 186.017 266.948 186.289 266.104 186.29H169.329C168.486 186.29 167.665 186.018 166.989 185.514C166.314 185.01 165.818 184.301 165.577 183.494L163.778 177.52L163.313 175.984L159.861 164.522C159.796 164.309 159.782 164.084 159.819 163.865C159.857 163.647 159.945 163.439 160.077 163.261C160.209 163.082 160.382 162.937 160.58 162.837C160.779 162.737 160.998 162.685 161.22 162.686H274.201C274.423 162.685 274.642 162.737 274.841 162.837C275.039 162.937 275.211 163.082 275.344 163.261C275.476 163.439 275.564 163.647 275.602 163.865C275.639 164.084 275.625 164.309 275.56 164.522Z" fill="#F0F0F0"/>
<path d="M272.12 175.954L271.661 177.49H163.778L163.312 175.954H272.12Z" fill="#E0E0E0"/>
<path d="M259.824 193.169H174.162V195.121H259.824V193.169Z" fill="#E0E0E0"/>
<path d="M178.301 186.26L166.428 206.101H171.599L186.342 186.26H178.301Z" fill="#E0E0E0"/>
<path d="M256.055 186.26L267.922 206.101H262.757L248.014 186.26H256.055Z" fill="#E0E0E0"/>
<path d="M253.729 151.186V138.126C253.729 138.087 253.721 138.048 253.706 138.011C253.691 137.975 253.669 137.942 253.641 137.914C253.613 137.886 253.58 137.864 253.544 137.849C253.507 137.834 253.468 137.826 253.429 137.826C253.349 137.826 253.272 137.858 253.215 137.914C253.158 137.97 253.125 138.046 253.123 138.126V151.186H253.729Z" fill="#E0E0E0"/>
<path d="M245.356 152.6L245.65 153.671L245.711 153.903L248.079 162.698H258.777L261.146 153.903L261.207 153.671L261.494 152.6L261.562 152.373L261.88 151.186H244.977L245.295 152.373L245.356 152.6Z" fill="#E0E0E0"/>
<path d="M252.346 142.453C252.516 142.494 252.694 142.483 252.858 142.422C253.021 142.361 253.163 142.252 253.264 142.11C253.333 142.012 253.382 141.902 253.411 141.786C253.417 141.723 253.417 141.659 253.411 141.596C253.409 141.393 253.338 141.196 253.209 141.039C252.052 139.638 246.189 132.857 243.417 135.69C240.137 139.117 249.139 141.669 252.346 142.453Z" fill="#F0F0F0"/>
<path d="M247.162 138.499L253.282 142.11C253.351 142.012 253.401 141.902 253.429 141.786L247.358 138.193C247.318 138.171 247.271 138.164 247.227 138.176C247.182 138.187 247.144 138.216 247.12 138.255C247.106 138.273 247.096 138.295 247.091 138.317C247.085 138.34 247.084 138.363 247.089 138.386C247.093 138.409 247.101 138.431 247.114 138.45C247.127 138.47 247.143 138.487 247.162 138.499Z" fill="#E0E0E0"/>
<path d="M253.428 144.956C253.422 145.017 253.422 145.078 253.428 145.139C253.453 145.257 253.503 145.368 253.575 145.464C253.677 145.606 253.818 145.715 253.982 145.776C254.145 145.837 254.323 145.848 254.493 145.807C257.694 145.023 266.703 142.471 263.379 139.075C260.632 136.235 254.769 143.016 253.587 144.417C253.475 144.574 253.419 144.764 253.428 144.956Z" fill="#F0F0F0"/>
<path d="M253.447 145.14C253.472 145.257 253.522 145.368 253.594 145.464L259.714 141.853C259.734 141.842 259.752 141.826 259.766 141.808C259.78 141.79 259.79 141.769 259.795 141.747C259.801 141.724 259.802 141.701 259.799 141.679C259.795 141.656 259.787 141.634 259.775 141.614C259.752 141.574 259.714 141.545 259.67 141.532C259.625 141.52 259.577 141.525 259.537 141.547L253.447 145.14Z" fill="#E0E0E0"/>
<path d="M252.762 138.077C252.786 138.28 252.879 138.468 253.025 138.61C253.071 138.652 253.12 138.691 253.172 138.726C253.275 138.788 253.39 138.828 253.509 138.842C253.682 138.868 253.858 138.84 254.016 138.764C254.173 138.688 254.303 138.565 254.39 138.414C256.036 135.556 260.4 127.275 255.614 127.318C251.661 127.349 252.542 136.272 252.762 138.077Z" fill="#F0F0F0"/>
<path d="M253.172 138.726C253.275 138.788 253.389 138.827 253.508 138.842L255.106 131.92C255.115 131.874 255.106 131.826 255.081 131.786C255.056 131.746 255.017 131.718 254.971 131.706C254.926 131.697 254.879 131.706 254.84 131.731C254.801 131.756 254.773 131.796 254.763 131.841L253.172 138.726Z" fill="#E0E0E0"/>
<path d="M252.347 149.668C252.516 149.712 252.695 149.702 252.859 149.641C253.024 149.58 253.165 149.47 253.265 149.326C253.376 149.18 253.434 149.001 253.43 148.818C253.429 148.614 253.358 148.417 253.228 148.261C252.071 146.859 246.208 140.078 243.436 142.912C240.137 146.321 249.14 148.873 252.347 149.668Z" fill="#F0F0F0"/>
<path d="M247.162 145.703L253.282 149.307C253.35 149.211 253.4 149.103 253.429 148.989L247.34 145.384C247.32 145.372 247.298 145.364 247.276 145.361C247.253 145.357 247.23 145.359 247.207 145.364C247.185 145.37 247.164 145.38 247.146 145.394C247.128 145.408 247.112 145.426 247.101 145.446C247.086 145.466 247.075 145.489 247.07 145.514C247.065 145.538 247.065 145.564 247.071 145.589C247.077 145.613 247.088 145.636 247.104 145.656C247.12 145.675 247.14 145.691 247.162 145.703Z" fill="#E0E0E0"/>
<path d="M286.226 232.9C286.226 235.042 227.113 236.781 154.193 236.781C81.2732 236.781 22.1602 235.055 22.1602 232.9C22.1602 230.746 81.2732 229.026 154.193 229.026C227.113 229.026 286.226 230.771 286.226 232.9Z" fill="#F5F5F5"/>
<path d="M189.26 89.417H102.558C88.3553 89.417 76.8418 100.929 76.8418 115.13C76.8418 129.331 88.3553 140.843 102.558 140.843H189.26C203.463 140.843 214.976 129.331 214.976 115.13C214.976 100.929 203.463 89.417 189.26 89.417Z" fill="#407BFF"/>
<path opacity="0.7" d="M189.26 89.417H102.558C88.3553 89.417 76.8418 100.929 76.8418 115.13C76.8418 129.331 88.3553 140.843 102.558 140.843H189.26C203.463 140.843 214.976 129.331 214.976 115.13C214.976 100.929 203.463 89.417 189.26 89.417Z" fill="white"/>
<path opacity="0.3" d="M102.552 139.007C96.2214 139.007 90.1505 136.493 85.6744 132.017C81.1983 127.54 78.6836 121.47 78.6836 115.139C78.6836 108.809 81.1983 102.738 85.6744 98.2621C90.1505 93.786 96.2214 91.2714 102.552 91.2714H189.235C192.37 91.2714 195.473 91.8887 198.369 93.0882C201.265 94.2877 203.896 96.0458 206.113 98.2621C208.329 100.478 210.087 103.11 211.286 106.005C212.486 108.901 213.103 112.005 213.103 115.139C213.103 118.274 212.486 121.377 211.286 124.273C210.087 127.169 208.329 129.8 206.113 132.017C203.896 134.233 201.265 135.991 198.369 137.191C195.473 138.39 192.37 139.007 189.235 139.007H102.552Z" fill="white"/>
<path d="M189.236 138.242C202.003 138.242 212.352 127.893 212.352 115.127C212.352 102.361 202.003 92.0118 189.236 92.0118C176.47 92.0118 166.121 102.361 166.121 115.127C166.121 127.893 176.47 138.242 189.236 138.242Z" fill="#407BFF"/>
<path d="M199.463 121.767C199.699 122.003 199.885 122.282 200.013 122.59C200.14 122.898 200.206 123.228 200.206 123.561C200.206 123.894 200.14 124.223 200.013 124.531C199.885 124.839 199.699 125.118 199.463 125.354C199.228 125.589 198.948 125.776 198.64 125.903C198.333 126.031 198.003 126.096 197.67 126.096C197.337 126.096 197.007 126.031 196.699 125.903C196.392 125.776 196.112 125.589 195.877 125.354L189.237 118.714L182.603 125.354C182.367 125.589 182.087 125.776 181.78 125.903C181.472 126.031 181.142 126.096 180.809 126.096C180.476 126.096 180.147 126.031 179.839 125.903C179.531 125.776 179.252 125.589 179.016 125.354C178.781 125.118 178.594 124.839 178.466 124.531C178.339 124.223 178.273 123.894 178.273 123.561C178.273 123.228 178.339 122.898 178.466 122.59C178.594 122.282 178.781 122.003 179.016 121.767L185.65 115.133L179.016 108.493C178.541 108.018 178.273 107.373 178.273 106.7C178.273 106.027 178.541 105.382 179.016 104.907C179.492 104.431 180.137 104.164 180.809 104.164C181.482 104.164 182.127 104.431 182.603 104.907L189.237 111.547L195.877 104.907C196.352 104.431 196.997 104.164 197.67 104.164C198.343 104.164 198.988 104.431 199.463 104.907C199.939 105.382 200.206 106.027 200.206 106.7C200.206 107.373 199.939 108.018 199.463 108.493L192.829 115.133L199.463 121.767Z" fill="white"/>
<path d="M189.26 32.0911H102.558C88.3553 32.0911 76.8418 43.6033 76.8418 57.8042C76.8418 72.0052 88.3553 83.5174 102.558 83.5174H189.26C203.463 83.5174 214.976 72.0052 214.976 57.8042C214.976 43.6033 203.463 32.0911 189.26 32.0911Z" fill="#407BFF"/>
<path opacity="0.2" d="M102.552 81.6817C96.2214 81.6817 90.1505 79.167 85.6744 74.6909C81.1983 70.2148 78.6836 64.1439 78.6836 57.8137C78.6836 51.4835 81.1983 45.4126 85.6744 40.9365C90.1505 36.4603 96.2214 33.9457 102.552 33.9457H189.235C195.565 33.9457 201.636 36.4603 206.113 40.9365C210.589 45.4126 213.103 51.4835 213.103 57.8137C213.103 64.1439 210.589 70.2148 206.113 74.6909C201.636 79.167 195.565 81.6817 189.235 81.6817H102.552Z" fill="black"/>
<path d="M127.613 80.9227C140.379 80.9227 150.729 70.5737 150.729 57.8075C150.729 45.0413 140.379 34.6923 127.613 34.6923C114.847 34.6923 104.498 45.0413 104.498 57.8075C104.498 70.5737 114.847 80.9227 127.613 80.9227Z" fill="#407BFF"/>
<path opacity="0.7" d="M127.613 80.9227C140.379 80.9227 150.729 70.5737 150.729 57.8075C150.729 45.0413 140.379 34.6923 127.613 34.6923C114.847 34.6923 104.498 45.0413 104.498 57.8075C104.498 70.5737 114.847 80.9227 127.613 80.9227Z" fill="white"/>
<path d="M123.573 65.886C123.015 65.8851 122.479 65.6654 122.08 65.274L116.352 59.5456C116.156 59.3499 116.001 59.1176 115.895 58.8619C115.789 58.6062 115.734 58.3322 115.734 58.0554C115.734 57.7786 115.789 57.5046 115.895 57.2489C116.001 56.9932 116.156 56.7609 116.352 56.5652C116.547 56.3695 116.78 56.2143 117.035 56.1083C117.291 56.0024 117.565 55.9479 117.842 55.9479C118.119 55.9479 118.393 56.0024 118.648 56.1083C118.904 56.2143 119.136 56.3695 119.332 56.5652L123.573 60.8063L135.899 48.4807C136.294 48.0854 136.83 47.8634 137.389 47.8634C137.948 47.8634 138.484 48.0854 138.879 48.4807C139.275 48.8759 139.497 49.4119 139.497 49.9709C139.497 50.5298 139.275 51.0659 138.879 51.4611L125.06 65.274C124.665 65.6661 124.13 65.8861 123.573 65.886Z" fill="white"/>
<path d="M91.8118 229.4H83.2988V233.219H91.8118V229.4Z" fill="#263238"/>
<path d="M104.169 208.702L102.945 211.909L102.706 212.558L102.578 212.912L102.376 213.457L101.623 215.513L101.574 215.648L101.451 215.997L101.06 217.062L100.619 218.286L100.472 218.696V218.739L100.258 219.308L99.2299 222.123L99.0096 222.735L96.941 228.402L96.7819 228.831L96.3718 229.951C96.2239 230.348 95.9725 230.699 95.6436 230.966C95.5154 231.067 95.3781 231.155 95.2335 231.23C94.9529 231.377 94.6441 231.462 94.3278 231.481H80.827C80.6202 231.479 80.4144 231.45 80.215 231.395C80.0526 231.343 79.8949 231.278 79.7438 231.199C79.2422 230.937 78.8529 230.502 78.6483 229.975L76.9714 225.385L76.7634 224.816L75.5822 221.572L75.4476 221.217L75.3864 221.046L75.1844 220.483L74.0216 217.294L73.942 217.099L73.8808 216.939L73.379 215.55L73.1526 214.938L72.9628 214.43L72.7915 213.965L72.6629 213.604L72.6262 213.506L72.0754 211.994V211.958L71.9347 211.584L70.9004 208.751L104.169 208.702Z" fill="#263238"/>
<path opacity="0.2" d="M102.969 211.909L102.731 212.557L102.602 212.912L102.406 213.457H72.608L72.0572 211.945L72.0449 211.909H102.969Z" fill="white"/>
<path opacity="0.2" d="M101.646 215.514L101.597 215.648L101.475 215.997L101.083 217.062H73.9224L73.8612 216.903L73.3594 215.514H101.646Z" fill="white"/>
<path d="M77.0625 194.718C77.0625 194.718 81.7504 193.01 82.9622 197.974C84.1739 202.937 87.6501 201.646 88.3049 200.569C89.6024 198.42 89.7799 190.672 87.5522 190.201C84.89 189.644 77.9989 192.46 77.0625 194.718Z" fill="#407BFF"/>
<g opacity="0.5">
<path d="M77.0625 194.718C77.0625 194.718 81.7504 193.01 82.9622 197.974C84.1739 202.937 87.6501 201.646 88.3049 200.569C89.6024 198.42 89.7799 190.672 87.5522 190.201C84.89 189.644 77.9989 192.46 77.0625 194.718Z" fill="black"/>
</g>
<path d="M79.8531 188.585C79.8531 188.585 75.1162 187.062 73.3537 192.019C71.5911 196.976 73.3537 209.155 73.3537 209.155C73.3537 209.155 77.4357 207.876 78.7576 203.69C80.0795 199.503 79.9449 190.287 87.5521 190.177L79.8531 188.585Z" fill="#407BFF"/>
<path opacity="0.2" d="M80.8209 188.879C76.7082 191.278 76.0412 196.358 75.625 200.66C75.625 200.881 75.9555 200.881 75.9738 200.66C76.3778 196.492 76.9959 191.511 80.9984 189.185C81.0349 189.16 81.0605 189.121 81.0702 189.078C81.0798 189.035 81.0728 188.989 81.0504 188.95C81.0281 188.912 80.9921 188.883 80.9496 188.87C80.9071 188.857 80.8611 188.86 80.8209 188.879Z" fill="black"/>
<path d="M96.3418 162.214C96.3418 162.214 91.7273 160.317 90.3135 165.232C88.8998 170.146 85.5767 169.742 84.983 167.68C84.2915 165.274 83.7958 157.649 86.0418 157.276C88.7224 156.829 95.4972 159.919 96.3418 162.214Z" fill="#407BFF"/>
<g opacity="0.5">
<path d="M96.3418 162.214C96.3418 162.214 91.7273 160.317 90.3135 165.232C88.8998 170.146 85.5767 169.742 84.983 167.68C84.2915 165.274 83.7958 157.649 86.0418 157.276C88.7224 156.829 95.4972 159.919 96.3418 162.214Z" fill="black"/>
</g>
<path d="M93.7951 155.978C93.7951 155.978 98.5931 154.644 100.154 159.65C101.714 164.656 99.4561 176.786 99.4561 176.786C98.2233 176.287 97.1181 175.518 96.2221 174.535C95.326 173.552 94.6619 172.38 94.2785 171.107C93.128 166.866 93.6359 157.643 86.041 157.251L93.7951 155.978Z" fill="#407BFF"/>
<g opacity="0.2">
<path d="M92.4299 156.449C96.8057 159.852 97.5279 165.666 98.0664 170.801C98.0664 171.021 98.4398 171.027 98.4153 170.801C97.8706 165.58 97.124 159.662 92.6747 156.198C92.5034 156.064 92.2524 156.309 92.4299 156.449Z" fill="black"/>
</g>
<path d="M101.243 184.993C101.243 184.993 98.3662 184.124 95.3429 188.243C92.4359 192.215 91.2731 192.68 89.3025 191.138C87.3318 189.595 88.5252 180.942 90.7529 180.477C93.4151 179.913 100.306 182.716 101.243 184.993Z" fill="#407BFF"/>
<g opacity="0.5">
<path d="M101.243 184.993C101.243 184.993 98.3662 184.124 95.3429 188.243C92.4359 192.215 91.2731 192.68 89.3025 191.138C87.3318 189.595 88.5252 180.942 90.7529 180.477C93.4151 179.913 100.306 182.716 101.243 184.993Z" fill="black"/>
</g>
<path d="M101.23 178.139C101.23 178.139 107.962 175.96 110.508 183.035C113.054 190.109 110.508 207.515 110.508 207.515C110.508 207.515 104.682 205.679 102.797 199.706C100.912 193.732 101.395 180.685 90.5566 180.532C92.717 179.883 96.9582 179.044 101.23 178.139Z" fill="#407BFF"/>
<g opacity="0.2">
<path d="M99.3635 178.891C102.069 180.325 104.334 182.468 105.917 185.089C107.499 187.711 108.339 190.713 108.348 193.775C108.355 193.816 108.377 193.853 108.409 193.879C108.441 193.905 108.481 193.92 108.522 193.92C108.563 193.92 108.604 193.905 108.635 193.879C108.667 193.853 108.689 193.816 108.696 193.775C108.685 190.65 107.825 187.587 106.208 184.913C104.591 182.239 102.278 180.054 99.5165 178.592C99.3145 178.488 99.137 178.787 99.339 178.891H99.3635Z" fill="black"/>
</g>
<path d="M73.7695 173.487C73.7695 173.487 78.4575 171.78 79.6692 176.743C80.881 181.707 87.0132 183.598 87.6252 181.174C88.2923 178.585 86.8174 169.369 84.5652 168.897C81.9153 168.341 74.7059 171.229 73.7695 173.487Z" fill="#407BFF"/>
<g opacity="0.5">
<path d="M73.7695 173.487C73.7695 173.487 78.4575 171.78 79.6692 176.743C80.881 181.707 87.0132 183.598 87.6252 181.174C88.2923 178.585 86.8174 169.369 84.5652 168.897C81.9153 168.341 74.7059 171.229 73.7695 173.487Z" fill="black"/>
</g>
<path d="M73.7825 166.633C73.7825 166.633 67.0505 164.454 64.5046 171.529C61.9586 178.604 64.5046 196.009 64.5046 196.009C64.5046 196.009 70.3308 194.173 72.2219 188.206C74.113 182.239 73.911 169.081 84.774 168.922L73.7825 166.633Z" fill="#407BFF"/>
<path opacity="0.2" d="M76.4993 167.239C73.5739 167.386 71.0709 169.216 69.4368 171.56C67.4417 174.418 66.7624 177.949 66.1014 181.303C66.0586 181.523 66.3952 181.621 66.438 181.401C67.05 178.23 67.6926 174.938 69.4491 172.172C70.9974 169.724 73.525 167.735 76.4993 167.588C76.7196 167.588 76.7196 167.227 76.4993 167.239Z" fill="black"/>
<path d="M87.1728 208.702H88.3601C91.3528 196.027 89.3393 182.453 87.0749 173.206C85.6223 167.153 83.6526 161.235 81.1875 155.519C81.1604 155.443 81.1177 155.374 81.0623 155.315C81.0069 155.257 80.9399 155.21 80.8656 155.179C80.7913 155.148 80.7113 155.132 80.6307 155.133C80.5501 155.135 80.4706 155.153 80.3973 155.186C80.3241 155.22 80.2586 155.269 80.2051 155.329C80.1516 155.389 80.1112 155.46 80.0865 155.537C80.0618 155.613 80.0534 155.695 80.0617 155.775C80.07 155.855 80.0949 155.933 80.1348 156.003C82.5741 161.66 84.5233 167.515 85.9611 173.506C88.201 182.716 90.2022 196.18 87.1728 208.702Z" fill="#407BFF"/>
<path d="M216.874 217.49V228.121L212.578 228.463L210.473 218.506L216.874 217.49Z" fill="#FF8B7B"/>
<path d="M213.827 227.46C213.827 227.46 212.475 224.871 211.679 225.146C210.883 225.422 210.559 228.567 210.559 228.567C210.559 228.567 206.232 230.012 205.051 230.091C203.87 230.171 202.866 230.85 202.707 233.212H217.487C217.487 233.212 217.389 227.882 217.358 226.97C217.328 226.058 216.03 227.196 216.03 227.196L213.827 227.46Z" fill="#263238"/>
<path d="M217.291 228.996C217.027 229.142 216.797 229.34 216.613 229.578C216.428 229.816 216.295 230.089 216.22 230.381C216.145 230.672 216.13 230.976 216.176 231.274C216.222 231.571 216.329 231.856 216.489 232.111C216.499 232.123 216.507 232.137 216.512 232.152C216.517 232.168 216.518 232.184 216.516 232.199C216.514 232.215 216.508 232.231 216.499 232.244C216.491 232.257 216.479 232.269 216.466 232.277C216.452 232.286 216.437 232.291 216.421 232.294C216.405 232.296 216.389 232.294 216.374 232.289C216.359 232.285 216.344 232.277 216.333 232.266C216.321 232.255 216.311 232.242 216.305 232.227C216.128 231.948 216.009 231.636 215.956 231.31C215.903 230.984 215.916 230.651 215.995 230.33C216.074 230.009 216.217 229.708 216.415 229.444C216.614 229.18 216.864 228.959 217.15 228.794C217.272 228.714 217.413 228.922 217.291 228.996Z" fill="white"/>
<path d="M217.314 232.368L205.723 232.484L203.024 232.515C202.877 232.515 202.847 232.282 203.024 232.282L214.622 232.16L217.314 232.129C217.467 232.129 217.498 232.362 217.345 232.368H217.314Z" fill="white"/>
<path d="M211.194 229.497C210.582 228.775 209.707 228.567 209.04 229.118C208.93 229.204 208.789 229.002 208.899 228.91C209.658 228.298 210.699 228.555 211.384 229.381C211.488 229.504 211.298 229.62 211.194 229.497Z" fill="white"/>
<path d="M209.972 229.883C209.86 229.711 209.714 229.564 209.543 229.45C209.372 229.337 209.18 229.26 208.978 229.223C208.776 229.187 208.569 229.193 208.369 229.24C208.17 229.287 207.982 229.375 207.817 229.498C207.707 229.589 207.567 229.387 207.677 229.296C208.436 228.684 209.476 228.941 210.161 229.761C210.265 229.883 210.076 230.005 209.972 229.883Z" fill="white"/>
<path d="M208.71 230.263C208.598 230.091 208.451 229.944 208.279 229.831C208.107 229.718 207.914 229.641 207.712 229.606C207.51 229.57 207.302 229.577 207.102 229.624C206.902 229.672 206.714 229.76 206.55 229.883C206.44 229.975 206.299 229.773 206.409 229.681C207.168 229.069 208.208 229.326 208.894 230.146C208.998 230.269 208.808 230.385 208.71 230.263Z" fill="white"/>
<path d="M219.451 112.116C219.329 114.013 219.592 119.839 219.335 122.967C218.851 128.928 218.203 136.657 217.689 144.387C217.077 153.353 216.661 162.331 216.875 168.561C217.426 184.558 217.303 220.813 217.303 220.813H210.363C210.363 220.813 202.211 184.779 200.687 168.561C199.414 155.097 200.075 120.476 200.302 112.104L219.451 112.116Z" fill="#407BFF"/>
<path opacity="0.3" d="M219.451 112.116C219.329 114.013 219.592 119.839 219.335 122.967C218.851 128.928 218.203 136.657 217.689 144.387C217.077 153.353 216.661 162.331 216.875 168.561C217.426 184.558 217.303 220.813 217.303 220.813H210.363C210.363 220.813 202.211 184.779 200.687 168.561C199.414 155.097 200.075 120.476 200.302 112.104L219.451 112.116Z" fill="white"/>
<path opacity="0.2" d="M219.334 122.967C218.85 128.928 218.202 136.657 217.687 144.387C214.272 134.276 217.443 119.001 217.443 119.001L219.334 122.967Z" fill="black"/>
<path d="M217.901 221.07H209.756L209.162 218.475L218.116 218.365L217.901 221.07Z" fill="#407BFF"/>
<path d="M255.192 215.507L256.814 226.015L252.622 227.007L249.023 217.49L255.192 215.507Z" fill="#FF8B7B"/>
<path d="M253.699 225.826C253.699 225.826 251.973 223.469 251.251 223.867C250.529 224.265 250.639 227.417 250.639 227.417C250.639 227.417 246.581 229.51 245.4 229.767C244.219 230.024 243.356 230.856 243.564 233.212L258.167 230.96C258.167 230.96 257.255 225.703 257.089 224.804C256.924 223.904 255.81 225.232 255.81 225.232L253.699 225.826Z" fill="#263238"/>
<path d="M257.364 226.811C257.125 226.995 256.927 227.225 256.781 227.489C256.634 227.752 256.544 228.043 256.514 228.343C256.484 228.642 256.516 228.945 256.607 229.232C256.699 229.519 256.848 229.784 257.046 230.012C257.144 230.14 256.978 230.287 256.874 230.159C256.656 229.91 256.491 229.619 256.389 229.305C256.286 228.991 256.248 228.659 256.277 228.329C256.306 228 256.402 227.68 256.558 227.388C256.715 227.097 256.928 226.84 257.187 226.633C257.297 226.542 257.468 226.719 257.364 226.811Z" fill="white"/>
<path d="M257.896 230.14L246.458 232.031L243.802 232.472C243.649 232.472 243.587 232.264 243.734 232.239L255.172 230.354L257.829 229.914C257.982 229.914 258.043 230.116 257.896 230.14Z" fill="white"/>
<path d="M251.416 228.237C251.279 228.085 251.111 227.962 250.924 227.877C250.737 227.792 250.535 227.747 250.33 227.743C250.125 227.739 249.921 227.776 249.731 227.854C249.541 227.932 249.369 228.047 249.225 228.194C249.134 228.298 248.956 228.121 249.054 228.017C249.709 227.282 250.774 227.405 251.582 228.096C251.704 228.2 251.533 228.347 251.416 228.237Z" fill="white"/>
<path d="M250.264 228.806C250.127 228.653 249.96 228.531 249.773 228.445C249.586 228.36 249.384 228.313 249.179 228.309C248.974 228.304 248.77 228.341 248.58 228.418C248.39 228.496 248.217 228.611 248.073 228.757C247.981 228.867 247.804 228.684 247.902 228.58C248.556 227.845 249.621 227.968 250.429 228.659C250.552 228.769 250.38 228.91 250.264 228.806Z" fill="white"/>
<path d="M249.071 229.381C248.934 229.228 248.767 229.104 248.58 229.018C248.394 228.932 248.191 228.886 247.986 228.881C247.78 228.876 247.576 228.914 247.386 228.992C247.196 229.069 247.023 229.185 246.88 229.332C246.788 229.436 246.61 229.259 246.708 229.155C247.363 228.42 248.434 228.543 249.236 229.234C249.358 229.338 249.187 229.485 249.071 229.381Z" fill="white"/>
<path d="M230.748 169.975C235.032 185.685 249.456 219.669 249.456 219.669L256.293 218.476C256.293 218.476 249.169 183.12 245.889 167.459C242.926 153.322 239.671 120.855 238.618 111.186L215.668 113.254C216.892 121.535 227.186 156.939 230.748 169.975Z" fill="#407BFF"/>
<path opacity="0.3" d="M230.748 169.975C235.032 185.685 249.456 219.669 249.456 219.669L256.293 218.476C256.293 218.476 249.169 183.12 245.889 167.459C242.926 153.322 239.671 120.855 238.618 111.186L215.668 113.254C216.892 121.535 227.186 156.939 230.748 169.975Z" fill="white"/>
<path d="M256.929 218.622L248.905 220.018L247.871 217.563L256.812 215.929L256.929 218.622Z" fill="#407BFF"/>
<path d="M239.959 111.186C239.948 111.736 239.741 112.264 239.377 112.676C239.013 113.088 238.514 113.358 237.97 113.438L201.354 115.127C200.283 115.176 199.029 114.442 199.059 113.371C199.426 100.739 202.37 57.2807 203.343 54.539C204.567 51.173 211.342 49.9612 214.304 49.6919C218.979 49.3789 223.669 49.3789 228.343 49.6919C230.626 49.8021 232.707 50.0041 234.433 50.2183C235.055 50.2943 235.656 50.4951 236.199 50.8086C236.742 51.1222 237.216 51.5421 237.593 52.0431C237.971 52.5442 238.243 53.1161 238.394 53.7248C238.545 54.3335 238.571 54.9663 238.472 55.5855C237.706 60.4116 237.205 65.2762 236.973 70.1572L236.936 70.861C236.856 72.5073 236.783 74.1352 236.777 75.757C236.777 76.0753 236.777 76.3996 236.777 76.7179C236.973 93.0583 239.059 101.069 239.959 111.186Z" fill="#263238"/>
<path opacity="0.2" d="M236.972 70.1573L236.936 70.8611C236.856 72.5074 236.783 74.1353 236.777 75.7571L229.732 61.932L236.972 70.1573Z" fill="black"/>
<path d="M216.775 24.9488C216.775 24.9488 210.429 21.9561 207.804 23.4372C205.741 24.6 207.118 26.9929 207.118 26.9929C207.118 26.9929 203.244 27.1153 203.244 29.5633C203.24 30.1283 203.456 30.6728 203.845 31.0824C204.234 31.4921 204.767 31.7351 205.331 31.7604C205.331 31.7604 203.954 34.1227 205.466 34.6674C206.977 35.212 208.746 32.0908 208.746 32.0908L216.775 24.9488Z" fill="#263238"/>
<path d="M223.508 37.2255C223.508 37.2255 225.179 39.6429 224.843 40.2855C224.341 41.2891 223.007 40.1508 223.007 40.1508C223.007 40.1508 224.231 41.7971 223.007 42.5988C221.783 43.4005 221.018 39.3736 221.018 39.3736L223.508 37.2255Z" fill="#263238"/>
<path d="M213.919 25.2365C215.214 24.9034 216.563 24.8402 217.884 25.0508C219.204 25.2613 220.467 25.7412 221.594 26.4605C223.068 27.4275 224.293 28.7984 224.072 30.6588C223.552 34.9918 221.624 42.1216 221.624 42.1216L207.664 33.6087C207.664 33.6087 207.052 29.9367 208.827 27.6723C209.739 26.4911 211.985 25.7139 213.919 25.2365Z" fill="#263238"/>
<path d="M214.664 46.8829V46.938L215.343 49.4288C215.402 49.9305 215.413 50.4368 215.374 50.9404C215.346 51.352 215.289 51.7611 215.203 52.1644C214.658 52.9172 214.407 54.6124 216.359 54.6124C218.807 54.6124 223.318 50.9772 223.471 49.8878C222.308 46.5279 221.329 42.5989 221.488 39.3798L218.697 42.4398L214.664 46.8829Z" fill="#FF8B7B"/>
<g opacity="0.2">
<path d="M214.684 46.944L215.363 49.4349C216.899 48.7188 218.502 47.195 218.857 45.5487C219.108 44.3614 218.57 43.2598 218.086 43.2047L214.684 46.944Z" fill="black"/>
</g>
<path d="M208.41 41.7543C208.557 42.299 208.722 42.8314 208.906 43.3577C210.491 48.0089 216.25 48.3884 219.794 44.9244C220.118 44.6101 220.417 44.2704 220.687 43.9085C222.933 40.9036 222.346 38.6086 221.966 33.3944C221.893 32.1798 221.511 31.0041 220.854 29.9794C220.198 28.9547 219.291 28.1152 218.218 27.5408C217.145 26.9664 215.943 26.6764 214.727 26.6983C213.51 26.7202 212.32 27.0534 211.268 27.666C206.942 30.1569 206.905 36.332 208.41 41.7543Z" fill="#FF8B7B"/>
<path d="M211.837 42.611H211.696C211.655 42.6064 211.617 42.5859 211.591 42.5539C211.565 42.5219 211.552 42.4809 211.555 42.4397C211.557 42.419 211.562 42.3988 211.572 42.3804C211.582 42.362 211.595 42.3457 211.611 42.3325C211.627 42.3194 211.645 42.3096 211.665 42.3038C211.685 42.298 211.706 42.2964 211.727 42.2989C212.03 42.3266 212.336 42.2922 212.626 42.1979C212.915 42.1036 213.183 41.9513 213.412 41.7504C213.641 41.5494 213.826 41.304 213.958 41.029C214.089 40.754 214.163 40.4552 214.175 40.1508C214.181 40.1096 214.203 40.0724 214.236 40.0472C214.269 40.0221 214.311 40.0109 214.352 40.0162C214.393 40.0236 214.429 40.046 214.454 40.0788C214.479 40.1116 214.49 40.1526 214.487 40.1936C214.45 40.8636 214.152 41.4924 213.656 41.9446C213.161 42.3968 212.507 42.6361 211.837 42.611Z" fill="#263238"/>
<path d="M222.04 33.8718C222.04 33.8718 220.467 33.9575 220.406 35.3039C220.345 36.6503 220.485 36.8278 220.485 36.8278L218.649 37.2256C218.649 37.2256 219.139 32.0848 217.786 32.1582C216.434 32.2316 217.89 29.9122 217.076 29.5817C215.149 28.8044 209.916 28.78 207.896 31.9379C207.896 31.9379 208.417 28.8289 210.889 27.1398C213.362 25.4507 218.362 25.0774 220.394 27.5192C222.425 29.9611 222.04 33.8718 222.04 33.8718Z" fill="#263238"/>
<path d="M224.665 36.534C224.566 37.1772 224.342 37.7948 224.005 38.3513C223.668 38.9079 223.225 39.3925 222.7 39.7776C221.292 40.8057 219.983 39.6858 219.873 38.0395C219.769 36.5585 220.381 34.2451 222.039 33.8718C223.698 33.4985 224.891 34.9367 224.665 36.534Z" fill="#FF8B7B"/>
<path d="M214.273 36.9257C214.328 37.3357 214.157 37.6968 213.894 37.7335C213.63 37.7703 213.367 37.4643 213.282 37.0603C213.196 36.6564 213.398 36.2892 213.667 36.2525C213.937 36.2158 214.194 36.5218 214.279 36.9257" fill="#263238"/>
<path d="M209.799 37.4764C209.854 37.8864 209.682 38.2475 209.413 38.2842C209.144 38.321 208.887 38.015 208.801 37.611C208.716 37.2071 208.917 36.8399 209.187 36.8093C209.456 36.7787 209.713 37.0725 209.799 37.4764Z" fill="#263238"/>
<path d="M208.067 35.922C208.103 35.9171 208.138 35.9026 208.167 35.8801C208.196 35.8575 208.218 35.8276 208.232 35.7935C208.276 35.6533 208.349 35.5239 208.446 35.4133C208.543 35.3027 208.662 35.2133 208.795 35.1509C209.069 35.0492 209.371 35.0492 209.646 35.1509C209.671 35.1618 209.698 35.1675 209.726 35.1679C209.753 35.1682 209.781 35.1631 209.806 35.1529C209.832 35.1426 209.855 35.1275 209.875 35.1082C209.895 35.089 209.91 35.0661 209.921 35.0407C209.932 35.0154 209.938 34.9882 209.938 34.9607C209.938 34.9331 209.933 34.9058 209.923 34.8802C209.913 34.8547 209.898 34.8314 209.878 34.8116C209.859 34.7919 209.836 34.7762 209.811 34.7653C209.432 34.6236 209.015 34.6236 208.636 34.7653C208.451 34.8472 208.285 34.9668 208.149 35.1164C208.013 35.2661 207.91 35.4425 207.846 35.6344C207.836 35.6596 207.83 35.6868 207.83 35.7142C207.83 35.7417 207.836 35.7688 207.847 35.794C207.858 35.8192 207.873 35.842 207.893 35.8608C207.913 35.8797 207.937 35.8942 207.963 35.9037C207.995 35.9192 208.031 35.9256 208.067 35.922Z" fill="#263238"/>
<path d="M215.259 35.0958C215.29 35.09 215.319 35.0775 215.345 35.0591C215.39 35.0281 215.421 34.9805 215.432 34.9266C215.442 34.8727 215.43 34.817 215.4 34.7714C215.165 34.4427 214.82 34.2101 214.427 34.1166C214.227 34.0861 214.022 34.097 213.827 34.1486C213.631 34.2002 213.448 34.2913 213.289 34.4165C213.262 34.4303 213.239 34.4496 213.221 34.473C213.203 34.4964 213.19 34.5234 213.183 34.5522C213.177 34.581 213.176 34.611 213.182 34.64C213.187 34.6691 213.199 34.6966 213.216 34.7208C213.233 34.7449 213.255 34.7651 213.281 34.7801C213.306 34.795 213.335 34.8043 213.364 34.8074C213.394 34.8104 213.424 34.8072 213.452 34.7978C213.48 34.7885 213.505 34.7732 213.527 34.7531C213.642 34.6619 213.773 34.5949 213.914 34.556C214.055 34.5171 214.202 34.5071 214.347 34.5266C214.634 34.5952 214.886 34.7647 215.057 35.004C215.079 35.0363 215.11 35.0619 215.145 35.0781C215.181 35.0943 215.22 35.1004 215.259 35.0958Z" fill="#263238"/>
<path d="M211.519 36.6992C211.023 37.8305 210.598 38.9914 210.246 40.1754C210.185 40.6527 211.709 40.6405 211.709 40.6405L211.519 36.6992Z" fill="#FF5652"/>
<path d="M238.233 52.3604C241.134 56.2282 243.906 60.194 246.63 64.1903C248.001 66.1793 249.329 68.1989 250.681 70.194L252.67 73.1928L253.655 74.6555L254.145 75.3654L254.378 75.6959L254.537 75.9591L254.671 76.1978L254.775 76.3936L254.953 76.7547L255.094 77.0729C255.43 77.8808 255.644 78.5234 255.853 79.1721C256.061 79.8208 256.238 80.4389 256.416 81.057C256.764 82.281 257.077 83.505 257.364 84.729C257.939 87.1403 258.478 89.5332 258.955 91.9384C259.922 96.7365 260.791 101.535 261.434 106.394C261.523 107.061 261.365 107.738 260.988 108.295C260.612 108.853 260.043 109.254 259.391 109.42C258.739 109.587 258.049 109.509 257.451 109.2C256.852 108.892 256.388 108.374 256.146 107.746C254.408 103.23 252.78 98.6582 251.152 94.1355C250.326 91.8772 249.524 89.6128 248.704 87.4035C248.282 86.2958 247.866 85.1942 247.444 84.1354C247.229 83.603 247.015 83.0828 246.832 82.5932C246.651 82.1621 246.446 81.7412 246.22 81.3324C246.203 81.3008 246.185 81.2701 246.165 81.2407C246.165 81.2407 246.134 81.1978 246.134 81.2039V81.2529L246.171 81.3202C246.171 81.3692 246.232 81.4181 246.269 81.4671V81.4365L246.183 81.3386L246.012 81.1366L245.681 80.7327L244.512 79.2761L242.229 76.3997C240.742 74.4719 239.255 72.5564 237.799 70.6163C234.885 66.7362 232.034 62.8194 229.316 58.7986C228.571 57.6139 228.305 56.1899 228.572 54.816C228.839 53.4421 229.618 52.2213 230.753 51.4016C231.887 50.5819 233.291 50.2249 234.68 50.4029C236.068 50.581 237.336 51.2809 238.227 52.3604H238.233Z" fill="#263238"/>
<path d="M256.758 108.627C256.758 108.627 255.087 114.135 255.491 115.28C255.895 116.424 257.186 114.056 257.186 114.056L256.758 108.627Z" fill="#FF8B7B"/>
<path d="M261.605 107.202L263.9 112.336C264.451 113.817 259.818 116.62 257.78 115.562C256.152 114.711 256.691 108.377 256.691 108.377C257.364 107.816 258.158 107.418 259.011 107.215C259.863 107.011 260.751 107.006 261.605 107.202Z" fill="#FF8B7B"/>
<path d="M263.9 112.336C264.512 113.989 264.677 117.342 262.009 118.016C261.429 118.189 260.827 118.277 260.222 118.279C260.222 118.279 260.362 119.754 259.579 120.005C258.796 120.255 257.217 114.864 257.217 114.864L263.9 112.336Z" fill="#FF8B7B"/>
<path d="M210.233 62.2685C207.577 63.8842 204.891 65.3897 202.155 66.834C201.262 67.3032 200.362 67.7663 199.456 68.2233C198.667 68.6272 197.877 69.025 197.082 69.4473C194.823 70.5489 192.553 71.6199 190.19 72.6419C189.003 73.1437 187.81 73.6395 186.463 74.1352C186.139 74.2576 185.753 74.38 185.368 74.5085L184.713 74.7105L184.254 74.8206L184.028 74.8757H183.905L183.624 74.9247C183.434 74.9247 183.22 74.9797 183.055 74.992H182.669C182.465 74.9925 182.26 74.9823 182.057 74.9614C181.855 74.9614 181.733 74.9308 181.58 74.9124L181.17 74.8451C180.734 74.7657 180.303 74.6636 179.878 74.5391C178.544 74.1441 177.231 73.6825 175.943 73.156C174.719 72.6786 173.55 72.1584 172.394 71.6321C170.074 70.5856 167.816 69.4962 165.582 68.3518C161.114 66.0751 156.745 63.6883 152.467 61.0567L154.26 57.0175C159.027 58.3639 163.752 59.845 168.446 61.3015C170.796 62.0115 173.134 62.7397 175.447 63.4129L178.887 64.3677C179.952 64.6492 181.047 64.9123 181.947 65.0531H181.99C182.186 64.9613 182.381 64.8756 182.602 64.7532C183.538 64.3003 184.585 63.7373 185.619 63.1681C187.706 62.0359 189.829 60.8425 191.953 59.6553C196.206 57.2746 200.521 54.8817 204.872 52.6785L210.233 62.2685Z" fill="#263238"/>
<path opacity="0.2" d="M202.737 59.7961L202.193 66.6689L202.156 66.8341C201.262 67.3033 200.363 67.7664 199.457 68.2234L202.737 59.7961Z" fill="black"/>
<path d="M152.333 61.0935C154.095 61.4117 156.47 60.4325 155.203 57.2562C154.394 55.2744 153.475 53.3394 152.449 51.4606C151.598 49.8204 148.03 49.135 148.03 49.135C148.03 49.135 146.194 47.5561 145.925 48.4129C145.656 49.2697 148.373 51.3749 148.691 51.9869C149.75 53.8964 150.839 55.8181 150.79 56.1608C150.741 56.5035 149.475 53.7617 148.342 53.5292C147.21 53.2966 149.438 56.4423 149.658 57.7459C149.879 59.0494 151.513 60.9283 152.333 61.0935Z" fill="#FF8B7B"/>
<path opacity="0.2" d="M148.404 49.3002C149.651 50.1076 150.648 51.2482 151.28 52.5928C151.329 52.6968 151.17 52.7948 151.121 52.6907C150.502 51.3759 149.53 50.2592 148.312 49.4655C148.214 49.3982 148.312 49.2329 148.404 49.3002Z" fill="black"/>
<path opacity="0.2" d="M151.293 51.6931C150.942 51.03 150.444 50.4562 149.836 50.0162C149.744 49.9428 149.873 49.8082 149.971 49.8816C150.588 50.3333 151.094 50.9192 151.452 51.5952C151.513 51.7054 151.348 51.8033 151.293 51.6931Z" fill="black"/>
</svg>
