<svg width="387" height="289" viewBox="0 0 387 289" fill="none" xmlns="http://www.w3.org/2000/svg">
<path d="M386.768 253.255H0V253.449H386.768V253.255Z" fill="#EBEBEB"/>
<path d="M183.328 218.756H33.9735C32.8021 218.756 31.6786 218.291 30.8503 217.462C30.022 216.634 29.5566 215.51 29.5566 214.339V4.37821C29.5668 3.2135 30.0367 2.09995 30.8639 1.27997C31.6911 0.459993 32.8088 -4.46531e-05 33.9735 3.25082e-09H183.328C184.499 3.25083e-09 185.623 0.46535 186.451 1.29368C187.279 2.122 187.745 3.24546 187.745 4.41689V214.339C187.745 215.51 187.279 216.634 186.451 217.462C185.623 218.291 184.499 218.756 183.328 218.756ZM33.9735 0.154708C32.854 0.156753 31.7809 0.602383 30.9893 1.394C30.1977 2.18562 29.7521 3.2587 29.75 4.37821V214.339C29.7521 215.459 30.1977 216.532 30.9893 217.323C31.7809 218.115 32.854 218.56 33.9735 218.562H183.328C184.447 218.56 185.52 218.115 186.312 217.323C187.104 216.532 187.549 215.459 187.551 214.339V4.37821C187.549 3.2587 187.104 2.18562 186.312 1.394C185.52 0.602383 184.447 0.156753 183.328 0.154708H33.9735Z" fill="#EBEBEB"/>
<path d="M350.652 218.756H201.282C200.111 218.754 198.989 218.288 198.161 217.46C197.333 216.632 196.867 215.51 196.865 214.339V4.37821C196.877 3.21413 197.348 2.10176 198.175 1.28221C199.002 0.462658 200.118 0.00197119 201.282 0H350.652C351.814 0.00402586 352.928 0.465861 353.751 1.28541C354.575 2.10495 355.043 3.21617 355.053 4.37821V214.339C355.053 215.508 354.59 216.629 353.765 217.457C352.94 218.285 351.821 218.752 350.652 218.756ZM201.282 0.154708C200.163 0.156753 199.09 0.602383 198.298 1.394C197.506 2.18562 197.061 3.2587 197.059 4.37821V214.339C197.061 215.459 197.506 216.532 198.298 217.323C199.09 218.115 200.163 218.56 201.282 218.562H350.652C351.771 218.56 352.844 218.115 353.636 217.323C354.428 216.532 354.873 215.459 354.875 214.339V4.37821C354.873 3.2587 354.428 2.18562 353.636 1.394C352.844 0.602383 351.771 0.156753 350.652 0.154708H201.282Z" fill="#EBEBEB"/>
<path d="M59.7779 260.62H39.666V260.813H59.7779V260.62Z" fill="#EBEBEB"/>
<path d="M147.112 258.523H112.279V258.717H147.112V258.523Z" fill="#EBEBEB"/>
<path d="M107.576 267.806H60.5527V267.999H107.576V267.806Z" fill="#EBEBEB"/>
<path d="M347.102 266.506H332.227V266.7H347.102V266.506Z" fill="#EBEBEB"/>
<path d="M325.333 266.506H282.564V266.7H325.333V266.506Z" fill="#EBEBEB"/>
<path d="M256.443 263.242H198.838V263.435H256.443V263.242Z" fill="#EBEBEB"/>
<path d="M131.223 186.167H89.0038L86.4434 156.595H128.663L131.223 186.167Z" fill="#E6E6E6"/>
<path d="M133.411 186.167H91.1912L88.623 156.595H130.843L133.411 186.167Z" fill="#F0F0F0"/>
<path d="M96.9625 179.816L95.5547 162.945H125.073L126.481 179.816H96.9625Z" fill="white"/>
<path d="M158.274 186.167H152.248V253.255H158.274V186.167Z" fill="#E6E6E6"/>
<path d="M160.169 186.167H155.984V253.255H160.169V186.167Z" fill="#F0F0F0"/>
<path d="M101.836 193.57H160.168V186.167H101.836V193.57Z" fill="#F0F0F0"/>
<path d="M103.901 193.57H97.875V253.256H103.901V193.57Z" fill="#E6E6E6"/>
<path d="M105.804 193.57H101.619V253.256H105.804V193.57Z" fill="#F0F0F0"/>
<path d="M61.0005 193.57H54.9746V253.256H61.0005V193.57Z" fill="#E6E6E6"/>
<path d="M62.9036 193.57H58.7188V253.256H62.9036V193.57Z" fill="#F0F0F0"/>
<path d="M120.129 193.57H114.104V253.256H120.129V193.57Z" fill="#E6E6E6"/>
<path d="M122.032 193.57H117.848V253.256H122.032V193.57Z" fill="#F0F0F0"/>
<path d="M101.835 186.167H54.9746V193.569H101.835V186.167Z" fill="#E6E6E6"/>
<path d="M228.378 21.2104H53.3809V121.6H228.378V21.2104Z" fill="#E6E6E6"/>
<path d="M233.05 21.2104H55.5625V121.6H233.05V21.2104Z" fill="#F0F0F0"/>
<path d="M228.378 121.6H53.3809V130.294H228.378V121.6Z" fill="#E6E6E6"/>
<path d="M240.841 121.6H63.3535V130.294H240.841V121.6Z" fill="#F0F0F0"/>
<path d="M226.498 115.048V27.7545L62.1062 27.7545V115.048L226.498 115.048Z" fill="#FAFAFA"/>
<path d="M74.1895 115.048L112.619 27.7545H130.766L92.3289 115.048H74.1895Z" fill="white"/>
<path d="M65.1476 108.535C65.0857 108.535 65.0243 108.523 64.9671 108.499C64.9098 108.475 64.8578 108.44 64.814 108.397C64.7702 108.353 64.7354 108.301 64.7117 108.243C64.688 108.186 64.6758 108.125 64.6758 108.063V32.0166C64.6904 31.9029 64.746 31.7983 64.8322 31.7226C64.9183 31.6468 65.0291 31.605 65.1438 31.605C65.2585 31.605 65.3692 31.6468 65.4554 31.7226C65.5415 31.7983 65.5971 31.9029 65.6118 32.0166V108.063C65.6118 108.187 65.5631 108.306 65.4763 108.394C65.3895 108.482 65.2714 108.533 65.1476 108.535Z" fill="#F0F0F0"/>
<path d="M96.2285 115.048L134.666 27.7545H141.736L103.306 115.048H96.2285Z" fill="white"/>
<path d="M226.498 115.048V27.7545H225.663V115.048H226.498Z" fill="#E6E6E6"/>
<path opacity="0.6" d="M234.598 37.6325H59.6015L59.0059 30.2994H233.995L234.598 37.6325Z" fill="#EBEBEB"/>
<path opacity="0.6" d="M234.598 49.6455H59.6015L59.0059 42.3201H233.995L234.598 49.6455Z" fill="#EBEBEB"/>
<path opacity="0.6" d="M234.598 61.6663H59.6015L59.0059 54.3409H233.995L234.598 61.6663Z" fill="#EBEBEB"/>
<path opacity="0.6" d="M234.598 73.687H59.6015L59.0059 66.3539H233.995L234.598 73.687Z" fill="#EBEBEB"/>
<path opacity="0.6" d="M234.598 85.7078H59.6015L59.0059 78.3747H233.995L234.598 85.7078Z" fill="#EBEBEB"/>
<path opacity="0.6" d="M234.598 97.7207H59.6015L59.0059 90.3954H233.995L234.598 97.7207Z" fill="#EBEBEB"/>
<path d="M282.665 68.3264H329.789V21.2026L282.665 21.2026V68.3264Z" fill="#EBEBEB"/>
<path d="M282.665 21.2104H280.576V68.3342H282.665V21.2104Z" fill="#E0E0E0"/>
<path d="M289.056 61.9447L323.408 61.9447V27.592L289.056 27.592V61.9447Z" fill="white"/>
<path d="M306.229 56.2628L317.727 44.7654L306.229 33.2681L294.732 44.7655L306.229 56.2628Z" fill="#F5F5F5"/>
<path d="M266.429 130.287H313.553V83.1628H266.429V130.287Z" fill="#EBEBEB"/>
<path d="M266.428 83.1706H264.34V130.294H266.428V83.1706Z" fill="#E0E0E0"/>
<path d="M272.819 123.905H307.172V89.5522H272.819V123.905Z" fill="white"/>
<path d="M287.547 114.05H292.435C295.131 114.05 297.316 111.865 297.316 109.169V104.28C297.316 101.585 295.131 99.3993 292.435 99.3993H287.547C284.851 99.3993 282.666 101.585 282.666 104.28V109.169C282.666 111.865 284.851 114.05 287.547 114.05Z" fill="#F5F5F5"/>
<path d="M238.033 153.183H226.283V250.092H238.033V153.183Z" fill="#F0F0F0"/>
<path d="M340.742 250.092H227.914V253.256H340.742V250.092Z" fill="#F0F0F0"/>
<path d="M238.033 250.092H342.367V153.183H238.033V250.092Z" fill="#FAFAFA"/>
<path d="M321.946 209.814H258.462C255.464 209.814 252.59 208.623 250.47 206.504C248.351 204.384 247.16 201.51 247.16 198.512C247.16 195.515 248.351 192.641 250.47 190.521C252.59 188.402 255.464 187.211 258.462 187.211H321.946C324.943 187.211 327.817 188.402 329.937 190.521C332.056 192.641 333.247 195.515 333.247 198.512C333.247 201.51 332.056 204.384 329.937 206.504C327.817 208.623 324.943 209.814 321.946 209.814ZM258.462 187.969C255.665 187.969 252.984 189.08 251.006 191.057C249.029 193.034 247.918 195.716 247.918 198.512C247.918 201.309 249.029 203.99 251.006 205.968C252.984 207.945 255.665 209.056 258.462 209.056H321.946C324.742 209.056 327.424 207.945 329.401 205.968C331.378 203.99 332.489 201.309 332.489 198.512C332.489 195.716 331.378 193.034 329.401 191.057C327.424 189.08 324.742 187.969 321.946 187.969H258.462Z" fill="#F0F0F0"/>
<path d="M321.946 237.932H258.462C255.464 237.932 252.59 236.741 250.47 234.622C248.351 232.502 247.16 229.628 247.16 226.631C247.16 223.633 248.351 220.759 250.47 218.639C252.59 216.52 255.464 215.329 258.462 215.329H321.946C324.943 215.329 327.817 216.52 329.937 218.639C332.056 220.759 333.247 223.633 333.247 226.631C333.247 229.628 332.056 232.502 329.937 234.622C327.817 236.741 324.943 237.932 321.946 237.932ZM258.462 216.087C257.053 216.049 255.652 216.294 254.34 216.806C253.028 217.319 251.832 218.089 250.822 219.071C249.813 220.054 249.011 221.228 248.463 222.526C247.915 223.824 247.633 225.218 247.633 226.627C247.633 228.035 247.915 229.43 248.463 230.727C249.011 232.025 249.813 233.2 250.822 234.182C251.832 235.165 253.028 235.935 254.34 236.447C255.652 236.96 257.053 237.204 258.462 237.166H321.946C323.354 237.204 324.755 236.96 326.067 236.447C327.379 235.935 328.575 235.165 329.585 234.182C330.594 233.2 331.396 232.025 331.944 230.727C332.492 229.43 332.774 228.035 332.774 226.627C332.774 225.218 332.492 223.824 331.944 222.526C331.396 221.228 330.594 220.054 329.585 219.071C328.575 218.089 327.379 217.319 326.067 216.806C324.755 216.294 323.354 216.049 321.946 216.087H258.462Z" fill="#F0F0F0"/>
<path d="M299.784 196.076H280.623C280.005 196.064 279.416 195.81 278.982 195.369C278.549 194.928 278.305 194.335 278.303 193.716C278.305 193.098 278.549 192.505 278.982 192.064C279.416 191.623 280.005 191.369 280.623 191.357H299.784C300.409 191.359 301.008 191.608 301.45 192.05C301.892 192.492 302.141 193.091 302.143 193.716C302.141 194.342 301.892 194.94 301.45 195.382C301.008 195.824 300.409 196.074 299.784 196.076Z" fill="#EBEBEB"/>
<path d="M321.946 181.696H258.462C255.464 181.696 252.59 180.505 250.47 178.386C248.351 176.266 247.16 173.392 247.16 170.394C247.16 167.397 248.351 164.523 250.47 162.403C252.59 160.284 255.464 159.093 258.462 159.093H321.946C324.943 159.093 327.817 160.284 329.937 162.403C332.056 164.523 333.247 167.397 333.247 170.394C333.247 173.392 332.056 176.266 329.937 178.386C327.817 180.505 324.943 181.696 321.946 181.696ZM258.462 159.851C255.665 159.851 252.984 160.962 251.006 162.939C249.029 164.916 247.918 167.598 247.918 170.394C247.918 173.191 249.029 175.872 251.006 177.85C252.984 179.827 255.665 180.938 258.462 180.938H321.946C324.742 180.938 327.424 179.827 329.401 177.85C331.378 175.872 332.489 173.191 332.489 170.394C332.489 167.598 331.378 164.916 329.401 162.939C327.424 160.962 324.742 159.851 321.946 159.851H258.462Z" fill="#F0F0F0"/>
<path d="M299.784 167.958H280.623C280.005 167.946 279.416 167.692 278.982 167.251C278.549 166.81 278.305 166.217 278.303 165.599C278.313 164.986 278.56 164.402 278.993 163.969C279.426 163.536 280.011 163.288 280.623 163.278H299.784C300.402 163.28 300.995 163.524 301.436 163.957C301.877 164.391 302.131 164.98 302.143 165.599C302.141 166.224 301.892 166.823 301.45 167.265C301.008 167.707 300.409 167.956 299.784 167.958Z" fill="#EBEBEB"/>
<path d="M299.784 224.186H280.623C280.011 224.176 279.426 223.929 278.993 223.495C278.56 223.062 278.313 222.478 278.303 221.866C278.315 221.254 278.563 220.67 278.996 220.238C279.428 219.805 280.012 219.557 280.623 219.545H299.784C300.402 219.547 300.995 219.791 301.436 220.224C301.877 220.658 302.131 221.247 302.143 221.866C302.131 222.484 301.877 223.073 301.436 223.507C300.995 223.94 300.402 224.184 299.784 224.186Z" fill="#EBEBEB"/>
<path d="M344.518 148.264H238.041V153.191H344.518V148.264Z" fill="#F0F0F0"/>
<path d="M223.978 153.183H238.033V148.256H223.978V153.183Z" fill="#E6E6E6"/>
<path d="M193.383 288.188C276.215 288.188 343.364 284.268 343.364 279.432C343.364 274.596 276.215 270.676 193.383 270.676C110.551 270.676 43.4023 274.596 43.4023 279.432C43.4023 284.268 110.551 288.188 193.383 288.188Z" fill="#F5F5F5"/>
<path d="M319.965 72.1167H203.378C203.378 72.1167 182.376 91.4551 182.376 138.471C182.376 178.903 198.303 233.724 192.324 256.164C187.814 273.097 165.946 276.005 155.465 276.407H266.436C266.436 276.407 302.932 278.612 308.911 256.164C314.891 233.716 298.963 178.903 298.963 138.463C298.963 91.4242 319.965 72.1167 319.965 72.1167Z" fill="#407BFF"/>
<path opacity="0.7" d="M319.965 72.1167H203.378C203.378 72.1167 182.376 91.4551 182.376 138.471C182.376 178.903 198.303 233.724 192.324 256.164C187.814 273.097 165.946 276.005 155.465 276.407H266.436C266.436 276.407 302.932 278.612 308.911 256.164C314.891 233.716 298.963 178.903 298.963 138.463C298.963 91.4242 319.965 72.1167 319.965 72.1167Z" fill="white"/>
<g opacity="0.8">
<path opacity="0.8" d="M288.25 121.7H195.008C197.646 101.016 204.754 88.9798 208.676 83.7198H298.584C294.175 92.9249 290.013 105.464 288.25 121.7Z" fill="#407BFF"/>
<path opacity="0.3" d="M287.467 132.669H194.094C194.171 130.789 194.279 128.964 194.434 127.2H287.753C287.625 128.979 287.529 130.802 287.467 132.669Z" fill="#407BFF"/>
<path opacity="0.3" d="M223.373 143.63H194.064C194.012 141.882 193.984 140.162 193.979 138.471V138.169H223.296V138.463C223.296 140.172 223.319 141.897 223.373 143.63Z" fill="#407BFF"/>
<path opacity="0.3" d="M288.025 154.591H194.721C194.558 152.75 194.427 150.925 194.326 149.13H287.669C287.762 150.94 287.88 152.76 288.025 154.591Z" fill="#407BFF"/>
<path opacity="0.3" d="M289.054 165.537H195.828C195.611 163.706 195.41 161.883 195.225 160.068H288.528C288.66 161.909 288.853 163.734 289.054 165.537Z" fill="#407BFF"/>
<path opacity="0.3" d="M290.4 176.521H197.251C196.995 174.695 196.755 172.87 196.523 171.06H289.704C289.92 172.88 290.152 174.7 290.4 176.521Z" fill="#407BFF"/>
<path opacity="0.3" d="M291.938 187.482H198.797C198.529 185.656 198.271 183.836 198.023 182.021H291.157C291.412 183.839 291.675 185.649 291.938 187.482Z" fill="#407BFF"/>
<path opacity="0.3" d="M293.587 198.451H200.476C200.329 197.453 200.174 196.439 200.02 195.426L199.648 192.982H292.759C293.037 194.807 293.308 196.633 293.587 198.451Z" fill="#407BFF"/>
<path opacity="0.3" d="M202.1 209.412C201.842 207.607 201.584 205.786 201.326 203.95H294.421C294.692 205.776 294.97 207.594 295.233 209.412H202.1Z" fill="#407BFF"/>
<path opacity="0.3" d="M203.579 220.373C203.362 218.586 203.123 216.76 202.875 214.911H280.538C280.801 216.753 281.049 218.578 281.312 220.373H203.579Z" fill="#407BFF"/>
<path opacity="0.3" d="M204.723 231.341C204.574 229.557 204.404 227.734 204.213 225.872H297.439C297.648 227.744 297.842 229.57 298.004 231.341H204.723Z" fill="#407BFF"/>
<path opacity="0.3" d="M205.256 242.302C205.256 240.539 205.186 238.713 205.086 236.841H254.275C254.399 238.752 254.468 240.577 254.492 242.302H205.256Z" fill="#407BFF"/>
</g>
<path d="M275.378 270.49C269.46 271.565 263.465 270.745 257.517 270.49C254.664 270.305 251.8 270.38 248.961 270.714C246.177 271.086 243.407 271.813 240.599 271.565C241.527 271.067 242.401 270.473 243.206 269.794C243.242 269.759 243.268 269.715 243.281 269.666C243.295 269.618 243.295 269.567 243.283 269.518C243.27 269.47 243.245 269.425 243.21 269.389C243.175 269.354 243.131 269.328 243.082 269.314C234.349 266.22 226.397 274.59 217.695 272.64C220.163 270.815 223.636 270.776 225.74 268.378C225.779 268.337 225.805 268.285 225.815 268.229C225.825 268.173 225.818 268.115 225.796 268.063C225.774 268.01 225.737 267.965 225.69 267.934C225.643 267.902 225.588 267.884 225.531 267.883C217.749 267.728 210.401 270.737 202.665 271.426C202.294 271.426 202.294 272.037 202.665 272.006C210.13 271.356 217.285 268.502 224.812 268.44C222.561 270.451 219.126 270.521 216.836 272.548C216.801 272.584 216.775 272.628 216.762 272.677C216.749 272.726 216.749 272.777 216.761 272.826C216.773 272.875 216.798 272.92 216.833 272.957C216.868 272.993 216.912 273.02 216.96 273.035C225.732 275.456 233.715 267.086 242.379 269.67C241.475 270.379 240.491 270.979 239.447 271.457C239.398 271.486 239.359 271.529 239.334 271.581C239.309 271.632 239.3 271.69 239.307 271.746C239.315 271.803 239.338 271.856 239.376 271.9C239.413 271.943 239.462 271.975 239.516 271.991C242.371 272.47 245.163 271.859 247.979 271.41C251.132 270.958 254.323 270.834 257.501 271.039C263.512 271.325 269.545 272.138 275.517 271.039C275.911 270.985 275.757 270.42 275.378 270.49Z" fill="#407BFF"/>
<path d="M117.483 100.66C117.971 101.287 118.597 102.022 119.17 102.702C119.742 103.383 120.369 104.071 120.988 104.737C122.233 106.067 123.494 107.374 124.855 108.604C127.38 111.001 130.248 113.009 133.364 114.561C133.743 114.731 134.138 114.885 134.486 115.025C134.658 115.093 134.833 115.153 135.012 115.203C135.177 115.268 135.348 115.317 135.522 115.35C136.265 115.54 137.024 115.66 137.789 115.705C139.501 115.789 141.218 115.69 142.91 115.411C144.706 115.137 146.486 114.76 148.239 114.282C150.018 113.818 151.836 113.246 153.53 112.65L155.077 115.744C151.639 117.894 147.915 119.55 144.016 120.664C141.96 121.252 139.841 121.593 137.704 121.677C136.546 121.724 135.388 121.648 134.246 121.453C133.952 121.406 133.65 121.337 133.356 121.267C133.062 121.197 132.753 121.12 132.498 121.035C131.956 120.873 131.43 120.695 130.951 120.494C127.013 118.875 123.39 116.579 120.245 113.71C118.71 112.38 117.246 110.97 115.859 109.486C115.171 108.713 114.498 107.993 113.848 107.22C113.198 106.446 112.579 105.673 111.906 104.783L117.483 100.66Z" fill="#FFB573"/>
<path d="M109.617 98.4711C109.447 102.803 111.164 110.616 111.164 110.616L121.886 109.316C121.886 109.316 122.28 97.8832 120.199 95.1216C116.68 90.5036 109.78 94.3713 109.617 98.4711Z" fill="#407BFF"/>
<path d="M152.092 113.748L157.112 109.154L157.754 114.104C157.754 114.104 155.673 116.897 153.314 115.721L152.092 113.748Z" fill="#FFB573"/>
<path d="M159.635 109.424L161.762 112.209L157.755 114.104L157.113 109.154L159.635 109.424Z" fill="#FFB573"/>
<path d="M158.365 96.9007C158.899 96.9007 159.193 96.9007 159.572 96.9007C159.734 96.8896 159.897 96.8896 160.059 96.9007L160.462 96.9549C160.809 96.9957 161.139 97.1263 161.421 97.3339C161.558 97.4951 161.649 97.6901 161.684 97.8986L161.862 98.4865L162.581 100.807L164.02 105.502L166.89 114.901C168.785 121.167 170.757 127.417 172.583 133.698C176.335 146.245 179.885 158.838 183.374 171.454C186.862 184.07 190.142 196.741 193.515 209.357C196.887 221.974 199.904 234.737 200.979 247.98C201.018 248.865 200.752 249.737 200.225 250.45C199.698 251.162 198.942 251.672 198.084 251.894C197.226 252.116 196.318 252.037 195.512 251.669C194.705 251.302 194.049 250.668 193.654 249.875C188.162 237.777 184.573 225.192 181.432 212.49C178.292 199.789 174.958 187.196 171.879 174.502C168.8 161.808 165.791 149.045 162.976 136.258C161.529 129.877 160.214 123.456 158.829 117.059L156.78 107.452L155.751 102.648L155.24 100.242L155.109 99.6468C155.039 99.4456 155.023 99.2295 155.062 99.0202C155.213 98.7134 155.436 98.4479 155.712 98.2467L156.045 97.9992C156.172 97.9019 156.307 97.814 156.447 97.7362C156.78 97.5428 157.019 97.3803 157.499 97.1483C157.769 97.0099 158.063 96.9259 158.365 96.9007Z" fill="#263238"/>
<path d="M200.237 249.976C200.18 249.766 200.042 249.588 199.853 249.48C199.665 249.371 199.442 249.341 199.232 249.396L197.53 249.836L195.828 250.277C195.618 250.332 195.437 250.467 195.326 250.654C195.215 250.841 195.181 251.064 195.233 251.275C196.292 256.148 195.233 259.637 196.362 263.923C197.53 268.432 202.612 270.745 202.612 270.745L202.45 268.819L203.223 270.583C203.223 270.583 206.542 266.096 205.374 261.586C204.275 257.301 201.676 254.748 200.237 249.976Z" fill="#407BFF"/>
<path opacity="0.3" d="M200.237 249.976C200.18 249.766 200.042 249.588 199.853 249.48C199.665 249.371 199.442 249.341 199.232 249.396L197.53 249.836L195.828 250.277C195.618 250.332 195.437 250.467 195.326 250.654C195.215 250.841 195.181 251.064 195.233 251.275C196.292 256.148 195.233 259.637 196.362 263.923C197.53 268.432 202.612 270.745 202.612 270.745L202.45 268.819L203.223 270.583C203.223 270.583 206.542 266.096 205.374 261.586C204.275 257.301 201.676 254.748 200.237 249.976Z" fill="white"/>
<path d="M201.56 261.161C201.609 261.364 201.598 261.578 201.527 261.774C201.456 261.971 201.328 262.142 201.16 262.267C200.992 262.391 200.791 262.463 200.582 262.473C200.373 262.483 200.165 262.431 199.986 262.323C199.807 262.216 199.663 262.058 199.573 261.869C199.483 261.68 199.452 261.469 199.482 261.262C199.512 261.055 199.603 260.861 199.742 260.706C199.882 260.55 200.065 260.439 200.268 260.388C200.542 260.32 200.831 260.363 201.073 260.508C201.315 260.653 201.49 260.888 201.56 261.161Z" fill="#263238"/>
<path d="M202.512 269.051C202.481 269.061 202.449 269.063 202.417 269.06C202.386 269.056 202.355 269.046 202.328 269.03C202.3 269.014 202.276 268.993 202.257 268.967C202.238 268.941 202.225 268.912 202.218 268.881L200.299 261.494C200.291 261.463 200.289 261.432 200.293 261.4C200.297 261.369 200.307 261.339 200.323 261.311C200.339 261.284 200.36 261.26 200.385 261.241C200.41 261.222 200.439 261.208 200.469 261.2C200.5 261.191 200.532 261.188 200.564 261.191C200.595 261.195 200.626 261.205 200.653 261.221C200.681 261.237 200.705 261.258 200.724 261.284C200.743 261.31 200.756 261.339 200.763 261.37L202.682 268.757C202.69 268.788 202.692 268.82 202.688 268.851C202.684 268.882 202.673 268.912 202.658 268.94C202.642 268.967 202.621 268.991 202.596 269.01C202.571 269.029 202.542 269.043 202.512 269.051Z" fill="#263238"/>
<path d="M196.245 223.413L185.818 226.112C185.529 226.185 185.223 226.14 184.966 225.988C184.71 225.836 184.524 225.589 184.449 225.3C184.375 225.016 184.414 224.714 184.558 224.459C184.703 224.203 184.941 224.014 185.222 223.931L195.704 221.231C195.988 221.157 196.29 221.196 196.545 221.34C196.801 221.485 196.99 221.723 197.073 222.005C197.114 222.152 197.124 222.305 197.104 222.456C197.084 222.607 197.034 222.753 196.957 222.884C196.88 223.015 196.777 223.13 196.655 223.22C196.533 223.311 196.393 223.377 196.245 223.413Z" fill="#407BFF"/>
<path d="M143.312 81.8401C143.127 82.3042 143.227 82.7915 143.529 82.923C143.83 83.0545 144.233 82.7838 144.418 82.3197C144.604 81.8555 144.511 81.3682 144.202 81.2367C143.892 81.1052 143.506 81.376 143.312 81.8401Z" fill="#263238"/>
<path d="M144.062 81.2213L145.308 81.3837C145.308 81.3837 144.38 81.9948 144.062 81.2213Z" fill="#263238"/>
<path d="M143.53 82.4589C143.518 83.7041 143.674 84.9453 143.994 86.1487C143.685 86.2145 143.366 86.2119 143.059 86.1411C142.752 86.0702 142.463 85.9329 142.215 85.7387L143.53 82.4589Z" fill="#ED893E"/>
<path d="M145.185 79.0089C145.136 78.9996 145.091 78.9784 145.053 78.947C144.775 78.6927 144.442 78.5059 144.079 78.4013C143.717 78.2966 143.336 78.2769 142.965 78.3437C142.889 78.3628 142.808 78.3517 142.741 78.3127C142.673 78.2738 142.623 78.21 142.601 78.1348C142.582 78.059 142.593 77.9787 142.632 77.9108C142.671 77.843 142.735 77.793 142.81 77.7713C143.275 77.6791 143.754 77.6969 144.211 77.8232C144.668 77.9494 145.088 78.1806 145.44 78.4984C145.467 78.5257 145.489 78.5583 145.504 78.5941C145.519 78.63 145.527 78.6684 145.527 78.7072C145.527 78.7461 145.519 78.7845 145.504 78.8204C145.489 78.8562 145.467 78.8888 145.44 78.9161C145.408 78.9515 145.368 78.9785 145.324 78.9947C145.279 79.0109 145.231 79.0158 145.185 79.0089Z" fill="#263238"/>
<path d="M126.914 81.6003C127.246 85.3674 125.993 91.5325 123.146 93.6288C123.146 93.6288 125.289 97.5893 132.15 98.5098C139.692 99.5231 136.15 95.2764 136.15 95.2764C132.135 93.7293 132.568 90.7357 133.581 87.9819L126.914 81.6003Z" fill="#FFB573"/>
<path d="M147.466 101.704C148.062 105.216 148.797 108.86 149.562 112.41C149.972 114.182 150.382 115.961 150.862 117.701C151.341 119.442 151.821 121.182 152.355 122.892C152.649 123.735 152.912 124.593 153.221 125.413L153.685 126.651L153.794 126.953V127.046C153.809 127.093 153.827 127.139 153.848 127.185C154.007 127.461 154.268 127.663 154.575 127.749C155.187 127.967 155.829 128.09 156.478 128.113C158.138 128.159 159.798 128.024 161.428 127.711C163.138 127.401 164.94 126.984 166.619 126.519L168.034 129.652C167.181 130.16 166.304 130.625 165.404 131.045C164.516 131.48 163.604 131.868 162.674 132.205C160.726 132.966 158.683 133.455 156.601 133.659C155.379 133.77 154.147 133.687 152.95 133.412C151.418 133.062 150.037 132.23 149.013 131.037C148.748 130.717 148.51 130.375 148.301 130.016C148.193 129.838 148.108 129.652 148.015 129.474L147.868 129.126L147.265 127.773C146.87 126.868 146.491 125.963 146.159 125.05C145.494 123.224 144.859 121.391 144.31 119.55C143.761 117.709 143.266 115.852 142.763 113.996C141.842 110.268 141.092 106.578 140.535 102.718L147.466 101.704Z" fill="#FFB573"/>
<path d="M165.876 126.736L168.862 124.369L170.208 128.964C170.208 128.964 166.124 131.919 165.033 128.446L165.876 126.736Z" fill="#FFB573"/>
<path d="M171.563 125.181L172.63 128.538L170.209 128.964L168.871 124.369L171.563 125.181Z" fill="#FFB573"/>
<path d="M115.775 272.602L122.018 273.066L123.867 258.732L117.624 258.268L115.775 272.602Z" fill="#FFB573"/>
<path d="M75.7988 254.393L81.2058 257.68L90.2021 246.448L84.7951 243.161L75.7988 254.393Z" fill="#FFB573"/>
<path d="M84.9808 259.336C84.9039 259.347 84.8257 259.347 84.7488 259.336C83.9752 259.336 83.0547 258.129 82.5906 257.417C82.5736 257.394 82.5645 257.365 82.5645 257.336C82.5645 257.307 82.5736 257.278 82.5906 257.255C82.6055 257.23 82.6274 257.21 82.6536 257.198C82.6797 257.185 82.7089 257.181 82.7376 257.185C82.9928 257.239 85.2284 257.711 85.5223 258.454C85.5538 258.536 85.5633 258.625 85.5497 258.712C85.5361 258.798 85.5 258.88 85.4449 258.949C85.3411 259.129 85.1766 259.266 84.9808 259.336ZM83.047 257.58C83.7045 258.508 84.3311 259.057 84.7565 259.065C84.8491 259.066 84.9403 259.042 85.0206 258.996C85.1009 258.949 85.1673 258.882 85.2129 258.802C85.2336 258.769 85.2445 258.732 85.2445 258.694C85.2445 258.655 85.2336 258.618 85.2129 258.585C85.0891 258.191 83.9366 257.796 83.047 257.587V257.58Z" fill="#407BFF"/>
<path d="M84.6484 257.402C84.0057 257.576 83.333 257.611 82.6759 257.502C82.6514 257.494 82.6294 257.48 82.6118 257.461C82.5942 257.442 82.5817 257.419 82.5753 257.394C82.5631 257.373 82.5566 257.349 82.5566 257.324C82.5566 257.3 82.5631 257.276 82.5753 257.255C82.6217 257.201 83.8516 255.94 84.7567 255.978C84.8735 255.98 84.9885 256.008 85.093 256.06C85.1975 256.112 85.2888 256.188 85.36 256.28C85.4438 256.363 85.4971 256.471 85.5111 256.588C85.5252 256.704 85.4992 256.822 85.4374 256.922C85.2327 257.163 84.9561 257.331 84.6484 257.402ZM83.0239 257.263C83.7975 257.348 84.9887 257.123 85.2285 256.767C85.2285 256.706 85.2904 256.62 85.1666 256.466C85.121 256.406 85.0625 256.358 84.9955 256.325C84.9285 256.291 84.8548 256.273 84.7799 256.272C84.1061 256.412 83.4924 256.758 83.0239 257.263Z" fill="#407BFF"/>
<path d="M82.83 256.473L77.7014 251.538C77.6167 251.451 77.5028 251.398 77.3815 251.39C77.2603 251.381 77.1401 251.418 77.0439 251.492L72.6657 254.865C72.5602 254.958 72.4757 255.073 72.4179 255.202C72.36 255.33 72.3301 255.47 72.3301 255.611C72.3301 255.752 72.36 255.892 72.4179 256.02C72.4757 256.149 72.5602 256.264 72.6657 256.357C74.4835 258.051 75.4427 258.779 77.6937 260.952C79.0861 262.29 80.9735 264.379 82.8919 266.228C84.8102 268.077 86.6822 266.328 86.0479 265.392C83.1858 261.2 83.6113 259.629 83.356 257.487C83.3014 257.099 83.1158 256.741 82.83 256.473Z" fill="#263238"/>
<path d="M124.725 273.267C124.064 273.255 123.406 273.18 122.76 273.043C122.73 273.037 122.703 273.021 122.682 272.999C122.661 272.977 122.648 272.949 122.644 272.919C122.64 272.888 122.645 272.857 122.659 272.83C122.673 272.802 122.694 272.779 122.721 272.764C123.007 272.617 125.545 271.341 126.287 271.774C126.359 271.811 126.419 271.866 126.461 271.934C126.503 272.002 126.526 272.081 126.527 272.161C126.543 272.295 126.525 272.431 126.475 272.557C126.425 272.682 126.345 272.794 126.241 272.88C125.794 273.177 125.259 273.313 124.725 273.267ZM123.255 272.834C124.632 273.058 125.661 273.004 126.047 272.664C126.116 272.605 126.168 272.531 126.201 272.447C126.233 272.364 126.244 272.273 126.233 272.184C126.235 272.153 126.228 272.122 126.213 272.094C126.198 272.067 126.176 272.044 126.148 272.029C125.73 271.797 124.299 272.339 123.255 272.834Z" fill="#407BFF"/>
<path d="M122.791 273.058C122.764 273.066 122.734 273.066 122.706 273.058C122.684 273.043 122.666 273.022 122.655 272.998C122.644 272.973 122.64 272.945 122.644 272.919C122.644 272.81 122.946 270.258 124.346 270.258H124.462C124.872 270.296 124.988 270.498 125.011 270.668C125.127 271.372 123.611 272.725 122.853 273.066L122.791 273.058ZM124.338 270.529C123.441 270.529 123.085 272.014 122.977 272.648C123.751 272.184 124.779 271.101 124.71 270.699C124.71 270.66 124.71 270.559 124.424 270.536L124.338 270.529Z" fill="#407BFF"/>
<path d="M122.405 272.176H115.389C115.267 272.176 115.15 272.219 115.056 272.296C114.963 272.374 114.9 272.482 114.878 272.602L113.935 278.148C113.916 278.287 113.927 278.428 113.967 278.562C114.008 278.697 114.077 278.821 114.169 278.926C114.261 279.032 114.375 279.116 114.503 279.174C114.63 279.232 114.769 279.262 114.909 279.262C117.354 279.262 118.537 279.076 121.624 279.076C123.519 279.076 127.441 279.269 130.063 279.269C132.685 279.269 132.894 276.678 131.803 276.446C126.938 275.394 125.05 273.94 123.441 272.578C123.154 272.326 122.787 272.183 122.405 272.176Z" fill="#263238"/>
<path opacity="0.2" d="M123.866 258.732L122.837 266.7L116.664 265.663L117.623 258.276L123.866 258.732Z" fill="black"/>
<path opacity="0.2" d="M84.7879 243.161L90.2027 246.456L86.4742 251.097L80.9512 247.949L84.7879 243.161Z" fill="black"/>
<path d="M112.627 131.238L137.899 134.634C147.692 99.1904 144.806 98.239 144.806 98.239C143.693 97.7081 142.542 97.2583 141.364 96.893C140.173 96.4598 138.969 96.0653 137.752 95.7095C135.321 94.9879 132.849 94.4119 130.349 93.9845C125.497 93.1503 120.566 92.8726 115.652 93.1568C115.159 93.1913 114.681 93.3364 114.252 93.5815C113.824 93.8266 113.456 94.1654 113.176 94.5724C113.071 94.7234 112.981 94.884 112.906 95.052C112.631 95.6407 112.524 96.2938 112.596 96.9394C114.731 115.566 114.043 121.693 112.627 131.238Z" fill="#407BFF"/>
<path opacity="0.2" d="M140.358 109.068C139.861 112.736 140.333 116.47 141.728 119.898C143.406 112.983 144.319 108.295 144.768 105.046C142.841 104.961 140.838 105.704 140.358 109.068Z" fill="black"/>
<path d="M144.582 98.1153C148.914 100.591 151.923 106.493 152.828 109.919L143.607 118.351C143.607 118.351 138.827 107.235 139.214 103.785C139.6 100.335 142.95 97.1793 144.582 98.1153Z" fill="#407BFF"/>
<path d="M128.283 73.8263C126.341 79.6897 125.397 82.1263 127.099 86.3034C129.667 92.5922 137.271 93.9227 140.922 88.8096C144.21 84.2071 146.832 75.3888 142.152 70.7012C141.169 69.6553 139.929 68.8841 138.557 68.4636C137.184 68.0431 135.726 67.9879 134.325 68.3034C132.925 68.619 131.631 69.2944 130.571 70.2629C129.511 71.2315 128.723 72.4597 128.283 73.8263Z" fill="#FFB573"/>
<path d="M137.897 79.0243C137.489 80.0999 137.424 81.2753 137.711 82.3892C138.098 83.9363 139.258 84.0678 139.978 83.0699C140.697 82.0721 141.185 80.2697 140.411 78.9702C139.638 77.6707 138.4 77.8408 137.897 79.0243Z" fill="#FFB573"/>
<path d="M130.386 66.524C126.209 64.2034 118.69 70.9951 116.803 82.0798C115.449 90.0163 132.397 93.8531 143.103 93.7293C142.392 91.8573 137.944 86.226 140.783 80.8035C142.848 76.8662 145.199 77.779 145.354 73.1997C145.548 67.4291 137.905 63.5614 130.386 66.524Z" fill="#263238"/>
<path d="M139.895 69.0148C144.753 68.5429 149.634 73.3156 146.013 78.0729C145.129 77.3638 144.1 76.8577 142.998 76.5903C141.897 76.323 140.75 76.301 139.639 76.5258C137.419 77.0209 139.895 69.0148 139.895 69.0148Z" fill="#263238"/>
<path d="M131.23 133.737C131.23 133.737 121.445 175.214 116.804 199.046C111.962 224.186 88.7478 250.378 88.7478 250.378L80.8887 245.984C80.8887 245.984 95.493 222.082 100.227 198.605C109.85 150.955 103.321 141.364 112.604 131.246L131.23 133.737Z" fill="#263238"/>
<path d="M89.5522 251.113L79.7051 245.629L81.1439 242.72L92.1899 247.802L89.5522 251.113Z" fill="#407BFF"/>
<path opacity="0.2" d="M126.009 142.748C118.382 149.377 119.21 172.916 120.007 183.483C123.209 168.414 127.054 151.644 129.289 141.936C128.508 141.333 127.417 141.557 126.009 142.748Z" fill="black"/>
<path d="M137.526 134.649C137.526 134.649 141.943 183.9 139.529 202.682C137.023 222.221 124.275 264.727 124.275 264.727L115.256 263.567C115.256 263.567 122.574 221.44 123.873 202.102C125.289 181.007 119 132.166 119 132.166L137.526 134.649Z" fill="#263238"/>
<path d="M126.187 265.245L113.361 263.59L113.555 259.8L127.478 261.146L126.187 265.245Z" fill="#407BFF"/>
<path d="M112.402 129.714L111.025 131.81C110.916 131.973 111.11 132.174 111.396 132.213L137.905 135.771C138.137 135.771 138.338 135.717 138.361 135.578L138.833 133.365C138.833 133.211 138.679 133.048 138.431 133.017L112.835 129.583C112.757 129.567 112.677 129.57 112.601 129.593C112.526 129.616 112.457 129.658 112.402 129.714Z" fill="#407BFF"/>
<path opacity="0.5" d="M112.402 129.714L111.025 131.81C110.916 131.973 111.11 132.174 111.396 132.213L137.905 135.771C138.137 135.771 138.338 135.717 138.361 135.578L138.833 133.365C138.833 133.211 138.679 133.048 138.431 133.017L112.835 129.583C112.757 129.567 112.677 129.57 112.601 129.593C112.526 129.616 112.457 129.658 112.402 129.714Z" fill="black"/>
<path d="M115.543 133.048L114.855 132.955C114.716 132.955 114.623 132.855 114.638 132.77L115.273 129.892C115.273 129.815 115.42 129.761 115.551 129.776L116.24 129.869C116.379 129.869 116.472 129.969 116.456 130.054L115.822 132.932C115.806 132.978 115.675 133.048 115.543 133.048Z" fill="#263238"/>
<path d="M132.854 135.369L132.165 135.276C132.034 135.276 131.933 135.175 131.949 135.09L132.583 132.213C132.583 132.128 132.73 132.073 132.869 132.097L133.55 132.182C133.689 132.182 133.782 132.29 133.767 132.375L133.132 135.245C133.117 135.369 132.985 135.369 132.854 135.369Z" fill="#263238"/>
</svg>
