<svg width="387" height="289" viewBox="0 0 387 289" fill="none" xmlns="http://www.w3.org/2000/svg">
<path d="M386.768 253.256H0V253.449H386.768V253.256Z" fill="#EBEBEB"/>
<path d="M60.692 260.62H40.5801V260.813H60.692V260.62Z" fill="#EBEBEB"/>
<path d="M155.04 258.523H113.191V258.717H155.04V258.523Z" fill="#EBEBEB"/>
<path d="M81.8243 267.806H61.4648V267.999H81.8243V267.806Z" fill="#EBEBEB"/>
<path d="M348.014 266.506H333.139V266.7H348.014V266.506Z" fill="#EBEBEB"/>
<path d="M326.247 266.506H302.816V266.7H326.247V266.506Z" fill="#EBEBEB"/>
<path d="M241.954 263.242H199.75V263.435H241.954V263.242Z" fill="#EBEBEB"/>
<path d="M183.328 218.756H33.9658C32.7957 218.754 31.6742 218.288 30.8476 217.459C30.0209 216.631 29.5566 215.509 29.5566 214.339V4.37821C29.5668 3.21483 30.0356 2.10245 30.8612 1.28269C31.6867 0.462929 32.8024 0.00199293 33.9658 0H183.328C184.499 0 185.623 0.46535 186.451 1.29368C187.279 2.122 187.745 3.24546 187.745 4.41689V214.339C187.745 215.51 187.279 216.634 186.451 217.462C185.623 218.291 184.499 218.756 183.328 218.756ZM33.9658 0.154708C32.847 0.156757 31.7747 0.602635 30.9843 1.39447C30.1939 2.18631 29.75 3.25941 29.75 4.37821V214.339C29.75 215.458 30.1939 216.531 30.9843 217.323C31.7747 218.115 32.847 218.56 33.9658 218.562H183.328C184.447 218.56 185.52 218.115 186.312 217.323C187.104 216.532 187.549 215.459 187.551 214.339V4.37821C187.549 3.2587 187.104 2.18562 186.312 1.394C185.52 0.602383 184.447 0.156753 183.328 0.154708H33.9658Z" fill="#EBEBEB"/>
<path d="M350.652 218.756H201.282C200.111 218.754 198.989 218.288 198.161 217.46C197.333 216.632 196.867 215.51 196.865 214.339V4.37821C196.877 3.21413 197.348 2.10176 198.175 1.28221C199.002 0.462658 200.118 0.00197119 201.282 0H350.652C351.814 0.00402586 352.928 0.465861 353.751 1.28541C354.575 2.10495 355.043 3.21617 355.053 4.37821V214.339C355.053 215.508 354.59 216.629 353.765 217.457C352.94 218.285 351.821 218.752 350.652 218.756ZM201.282 0.154708C200.163 0.156753 199.09 0.602383 198.298 1.394C197.506 2.18562 197.061 3.2587 197.059 4.37821V214.339C197.061 215.459 197.506 216.532 198.298 217.323C199.09 218.115 200.163 218.56 201.282 218.562H350.652C351.771 218.56 352.844 218.115 353.636 217.323C354.428 216.532 354.873 215.459 354.875 214.339V4.37821C354.873 3.2587 354.428 2.18562 353.636 1.394C352.844 0.602383 351.771 0.156753 350.652 0.154708H201.282Z" fill="#EBEBEB"/>
<path d="M341.323 171.988H320.051V253.256H341.323V171.988Z" fill="#E6E6E6"/>
<path d="M337.284 253.256H341.322V241.761H333.045L337.284 253.256Z" fill="#F0F0F0"/>
<path d="M219.94 171.988H198.668V253.256H219.94V171.988Z" fill="#E6E6E6"/>
<path d="M341.323 171.988H216.412V246.201H341.323V171.988Z" fill="#F0F0F0"/>
<path d="M220.566 175.747V231.829H257.596V175.747H220.566Z" fill="#E6E6E6"/>
<path d="M242.743 178.965H235.418C233.843 178.966 232.285 178.645 230.838 178.024C229.392 177.403 228.086 176.494 227.002 175.353H251.159C250.075 176.494 248.77 177.403 247.323 178.024C245.876 178.645 244.318 178.966 242.743 178.965Z" fill="#F0F0F0"/>
<path d="M260.357 175.755V231.836H297.387V175.755H260.357Z" fill="#E6E6E6"/>
<path d="M282.906 178.965H275.58C274.007 178.965 272.45 178.644 271.005 178.023C269.559 177.402 268.255 176.493 267.172 175.353H291.322C290.237 176.494 288.932 177.403 287.485 178.024C286.038 178.645 284.48 178.966 282.906 178.965Z" fill="#F0F0F0"/>
<path d="M300.139 175.755V231.836H337.168V175.755H300.139Z" fill="#E6E6E6"/>
<path d="M322.697 178.965H315.371C313.797 178.966 312.238 178.645 310.792 178.024C309.345 177.403 308.039 176.494 306.955 175.353H331.074C329.994 176.49 328.695 177.396 327.255 178.017C325.815 178.638 324.265 178.96 322.697 178.965Z" fill="#F0F0F0"/>
<path d="M220.45 253.256H216.412V241.761H224.689L220.45 253.256Z" fill="#F0F0F0"/>
<path d="M169.991 14.6894H52.8008V124.454H169.991V14.6894Z" fill="#E6E6E6"/>
<path d="M174.2 14.6894H54.7656V124.454H174.2V14.6894Z" fill="#F0F0F0"/>
<path d="M169.991 124.454H52.8008V132.275H169.991V124.454Z" fill="#E6E6E6"/>
<path d="M181.209 124.454H61.7754V132.275H181.209V124.454Z" fill="#F0F0F0"/>
<path d="M168.314 118.56V20.5838L60.6615 20.5838V118.56H168.314Z" fill="#FAFAFA"/>
<path d="M71.9316 118.56L106.516 20.5838H122.838L88.2532 118.56H71.9316Z" fill="white"/>
<path d="M63.3826 85.321C63.4954 85.321 63.6036 85.2762 63.6834 85.1964C63.7632 85.1166 63.808 85.0084 63.808 84.8956V24.4128C63.806 24.3013 63.7603 24.1951 63.6807 24.1169C63.6011 24.0388 63.4941 23.9951 63.3826 23.9951C63.2718 23.9951 63.1655 24.0391 63.0872 24.1174C63.0088 24.1958 62.9648 24.302 62.9648 24.4128V84.8956C62.9648 85.0071 63.0086 85.1141 63.0867 85.1937C63.1648 85.2733 63.2711 85.319 63.3826 85.321Z" fill="#F0F0F0"/>
<path d="M91.7637 118.56L126.348 20.5838H132.707L98.1299 118.56H91.7637Z" fill="white"/>
<path d="M168.307 118.56V20.5838H167.556V118.56H168.307Z" fill="#E6E6E6"/>
<path opacity="0.5" d="M175.593 30.7403H58.4028L57.8613 22.8734H175.052L175.593 30.7403Z" fill="#E6E6E6"/>
<path opacity="0.5" d="M175.593 36.4954H58.4028L57.8613 28.6286H175.052L175.593 36.4954Z" fill="#E6E6E6"/>
<path opacity="0.5" d="M175.593 43.403H58.4028L57.8613 35.5362H175.052L175.593 43.403Z" fill="#E6E6E6"/>
<path opacity="0.5" d="M175.593 51.0921H58.4028L57.8613 43.2252H175.052L175.593 51.0921Z" fill="#E6E6E6"/>
<path opacity="0.5" d="M175.593 60.3049H58.4028L57.8613 52.438H175.052L175.593 60.3049Z" fill="#E6E6E6"/>
<path opacity="0.5" d="M175.593 70.6624H58.4028L57.8613 62.7956H175.052L175.593 70.6624Z" fill="#E6E6E6"/>
<path d="M176.853 180.388H142.168V253.256H176.853V180.388Z" fill="#E6E6E6"/>
<path d="M173.364 253.256H176.853V243.331H169.705L173.364 253.256Z" fill="#F0F0F0"/>
<path d="M91.533 180.388H56.8477V253.256H91.533V180.388Z" fill="#E6E6E6"/>
<path d="M176.845 180.388H88.4844V247.168H176.845V180.388Z" fill="#F0F0F0"/>
<path d="M174.145 183.343H91.1914V201.661H174.145V183.343Z" fill="#E6E6E6"/>
<path d="M136.584 189.037H128.748C125.345 189.037 122.096 186.778 119.752 182.787H145.588C143.244 186.778 140.011 189.037 136.584 189.037Z" fill="#F0F0F0"/>
<path d="M91.973 253.256H88.4844V243.331H95.6318L91.973 253.256Z" fill="#F0F0F0"/>
<path d="M174.145 204.616H91.1914V222.933H174.145V204.616Z" fill="#E6E6E6"/>
<path d="M136.584 210.309H128.748C125.345 210.309 122.096 208.05 119.752 204.059H145.588C143.244 208.081 140.011 210.309 136.584 210.309Z" fill="#F0F0F0"/>
<path d="M174.145 225.888H91.1914V244.205H174.145V225.888Z" fill="#E6E6E6"/>
<path d="M136.584 231.581H128.748C125.345 231.581 122.096 229.322 119.752 225.331H145.588C143.244 229.322 140.011 231.581 136.584 231.581Z" fill="#F0F0F0"/>
<path d="M316.895 29.7579H249.551V119.828H316.895V29.7579Z" fill="#E6E6E6"/>
<path d="M321.273 29.7579H250.494V119.828H321.273V29.7579Z" fill="#F0F0F0"/>
<path d="M311.473 110.028V39.5509H260.288V110.028H311.473Z" fill="white"/>
<path d="M311.473 110.028V39.5509H310.707V110.028H311.473Z" fill="#E6E6E6"/>
<path d="M286.836 59.8872H271.512C271.361 59.8872 271.217 59.9464 271.11 60.0521C271.003 60.1578 270.941 60.3014 270.939 60.4519V75.7447C270.952 79.4337 272.423 82.9681 275.031 85.5766C277.64 88.1852 281.174 89.6561 284.863 89.6683H300.156C300.308 89.6683 300.453 89.608 300.561 89.5006C300.668 89.3933 300.728 89.2477 300.728 89.0959V73.834C300.724 70.1457 299.261 66.6088 296.658 63.9957C294.055 61.3826 290.524 59.9056 286.836 59.8872ZM284.925 88.5621C281.528 88.5581 278.271 87.2061 275.869 84.803C273.467 82.3999 272.117 79.1421 272.115 75.7447V61.0475H286.812C290.209 61.0516 293.466 62.4022 295.868 64.8034C298.271 67.2046 299.624 70.4604 299.63 73.8572L284.925 88.5621Z" fill="#F0F0F0"/>
<path d="M193.383 288.188C276.215 288.188 343.364 284.268 343.364 279.432C343.364 274.596 276.215 270.676 193.383 270.676C110.551 270.676 43.4023 274.596 43.4023 279.432C43.4023 284.268 110.551 288.188 193.383 288.188Z" fill="#F5F5F5"/>
<path d="M190.746 25.5267C190.042 21.2568 192.927 17.7913 197.197 17.7913H166C161.73 17.7913 158.845 21.249 159.549 25.5267H190.746Z" fill="#407BFF"/>
<path opacity="0.3" d="M190.746 25.5267C190.042 21.2568 192.927 17.7913 197.197 17.7913H166C161.73 17.7913 158.845 21.249 159.549 25.5267H190.746Z" fill="black"/>
<path d="M197.197 17.7914H166C168.159 17.8631 170.229 18.6685 171.868 20.0747C173.508 21.4809 174.62 23.404 175.019 25.5267L181.85 66.7717C182.251 68.8938 183.363 70.816 185.002 72.222C186.641 73.628 188.711 74.4339 190.869 74.507H206.603C210.873 74.507 213.758 71.0416 213.054 66.7717L206.216 25.5267C205.816 23.404 204.705 21.4809 203.065 20.0747C201.426 18.6685 199.356 17.8631 197.197 17.7914Z" fill="#407BFF"/>
<path d="M197.32 66.7949C198.024 71.0648 195.139 74.5302 190.869 74.5302H222.066C223.037 74.563 224.002 74.3738 224.889 73.9768C225.776 73.5798 226.56 72.9856 227.182 72.2396C227.805 71.4935 228.248 70.6152 228.48 69.6716C228.711 68.728 228.724 67.7441 228.517 66.7949H197.32Z" fill="#407BFF"/>
<path opacity="0.3" d="M197.32 66.7949C198.024 71.0648 195.139 74.5302 190.869 74.5302H222.066C223.037 74.563 224.002 74.3738 224.889 73.9768C225.776 73.5798 226.56 72.9856 227.182 72.2396C227.805 71.4935 228.248 70.6152 228.48 69.6716C228.711 68.728 228.724 67.7441 228.517 66.7949H197.32Z" fill="black"/>
<path d="M202.341 29.1082H180.071C179.941 29.1035 179.817 29.0551 179.719 28.9707C179.621 28.8864 179.554 28.7713 179.529 28.6441C179.516 28.587 179.516 28.5278 179.53 28.4708C179.543 28.4139 179.57 28.3609 179.607 28.3159C179.645 28.271 179.692 28.2353 179.746 28.2117C179.799 28.1881 179.858 28.1772 179.916 28.1799H202.186C202.316 28.1846 202.44 28.2331 202.538 28.3174C202.636 28.4017 202.703 28.5168 202.728 28.6441C202.741 28.7011 202.741 28.7604 202.727 28.8173C202.714 28.8742 202.687 28.9273 202.65 28.9722C202.612 29.0172 202.565 29.0528 202.511 29.0764C202.458 29.1 202.399 29.1109 202.341 29.1082Z" fill="white"/>
<path d="M190.002 32.3261H180.604C180.475 32.3214 180.35 32.273 180.252 32.1887C180.154 32.1044 180.087 31.9892 180.063 31.862C180.049 31.805 180.049 31.7457 180.063 31.6888C180.077 31.6318 180.103 31.5788 180.141 31.5338C180.178 31.4889 180.225 31.4532 180.279 31.4296C180.333 31.406 180.391 31.3952 180.449 31.3979H189.848C189.977 31.4025 190.101 31.451 190.2 31.5353C190.298 31.6196 190.365 31.7348 190.389 31.862C190.401 31.9188 190.399 31.9776 190.385 32.0338C190.371 32.0901 190.345 32.1425 190.307 32.187C190.27 32.2316 190.224 32.2672 190.171 32.2913C190.118 32.3154 190.06 32.3273 190.002 32.3261Z" fill="white"/>
<path d="M198.697 32.3261H192.2C192.071 32.3211 191.948 32.2724 191.851 32.188C191.754 32.1036 191.689 31.9886 191.666 31.862C191.653 31.8057 191.653 31.7471 191.666 31.6907C191.679 31.6344 191.705 31.5818 191.742 31.5371C191.778 31.4923 191.825 31.4564 191.877 31.4323C191.93 31.4082 191.987 31.3964 192.045 31.3979H198.543C198.671 31.4029 198.794 31.4516 198.891 31.536C198.988 31.6204 199.054 31.7354 199.076 31.862C199.089 31.9184 199.089 31.977 199.076 32.0333C199.063 32.0896 199.037 32.1422 199.001 32.187C198.964 32.2318 198.918 32.2676 198.865 32.2917C198.813 32.3158 198.755 32.3276 198.697 32.3261Z" fill="white"/>
<path d="M203.44 35.5827H181.139C181.01 35.5798 180.886 35.5329 180.788 35.4499C180.689 35.3669 180.622 35.2527 180.598 35.1263C180.584 35.0693 180.585 35.01 180.598 34.9531C180.612 34.8961 180.638 34.8431 180.676 34.7982C180.713 34.7532 180.761 34.7175 180.814 34.6939C180.868 34.6703 180.926 34.6595 180.984 34.6622H203.255C203.384 34.6669 203.508 34.7153 203.606 34.7996C203.705 34.8839 203.772 34.9991 203.796 35.1263C203.807 35.1802 203.807 35.2359 203.794 35.2896C203.782 35.3433 203.758 35.3936 203.724 35.437C203.69 35.4805 203.647 35.516 203.598 35.5412C203.549 35.5663 203.495 35.5805 203.44 35.5827Z" fill="white"/>
<path d="M201.746 38.7697H181.672C181.543 38.765 181.419 38.7166 181.32 38.6323C181.222 38.548 181.155 38.4328 181.131 38.3056C181.119 38.2487 181.121 38.19 181.135 38.1337C181.149 38.0775 181.176 38.0251 181.213 37.9805C181.25 37.936 181.297 37.9003 181.349 37.8762C181.402 37.8522 181.46 37.8403 181.518 37.8414H201.63C201.759 37.8461 201.883 37.8946 201.981 37.9789C202.08 38.0632 202.147 38.1784 202.171 38.3056C202.184 38.3658 202.182 38.4282 202.166 38.4877C202.15 38.5471 202.119 38.6017 202.078 38.6471C202.036 38.6925 201.984 38.7274 201.927 38.7487C201.869 38.77 201.807 38.7772 201.746 38.7697Z" fill="white"/>
<path d="M195.704 41.9876H182.206C182.076 41.9829 181.952 41.9345 181.854 41.8502C181.756 41.7659 181.689 41.6507 181.664 41.5235C181.652 41.467 181.654 41.4086 181.668 41.3527C181.682 41.2967 181.709 41.2448 181.746 41.2008C181.783 41.1567 181.83 41.1218 181.883 41.0987C181.936 41.0755 181.993 41.0647 182.051 41.0671H195.557C195.685 41.0727 195.807 41.1205 195.905 41.2031C196.003 41.2857 196.071 41.3983 196.098 41.5235C196.11 41.581 196.109 41.6404 196.094 41.6973C196.08 41.7541 196.052 41.8069 196.014 41.8516C195.976 41.8964 195.929 41.9319 195.875 41.9554C195.821 41.979 195.763 41.99 195.704 41.9876Z" fill="white"/>
<path d="M204.986 45.2132H182.739C182.609 45.2085 182.485 45.1601 182.387 45.0758C182.289 44.9915 182.222 44.8763 182.197 44.7491C182.186 44.6922 182.187 44.6335 182.201 44.5772C182.215 44.521 182.242 44.4686 182.279 44.424C182.316 44.3795 182.363 44.3438 182.416 44.3198C182.469 44.2957 182.526 44.2838 182.584 44.285H204.854C204.984 44.2896 205.108 44.3381 205.206 44.4224C205.304 44.5067 205.371 44.6219 205.396 44.7491C205.41 44.8081 205.409 44.8697 205.394 44.9285C205.38 44.9874 205.351 45.0419 205.311 45.0873C205.271 45.1328 205.22 45.168 205.164 45.1899C205.107 45.2118 205.046 45.2198 204.986 45.2132Z" fill="white"/>
<path d="M205.544 48.4311H183.274C183.144 48.4264 183.02 48.378 182.922 48.2937C182.824 48.2094 182.757 48.0942 182.732 47.967C182.721 47.9102 182.722 47.8514 182.736 47.7952C182.75 47.7389 182.777 47.6865 182.814 47.642C182.851 47.5974 182.898 47.5618 182.951 47.5377C183.004 47.5136 183.061 47.5017 183.119 47.5029H205.397C205.526 47.5079 205.649 47.5566 205.746 47.641C205.843 47.7254 205.908 47.8404 205.931 47.967C205.944 48.024 205.944 48.0833 205.93 48.1402C205.917 48.1972 205.89 48.2502 205.853 48.2951C205.815 48.3401 205.768 48.3758 205.714 48.3994C205.661 48.423 205.602 48.4338 205.544 48.4311Z" fill="white"/>
<path d="M197.313 51.6491H183.807C183.679 51.6434 183.557 51.5956 183.459 51.5131C183.361 51.4305 183.293 51.3179 183.266 51.1927C183.254 51.1358 183.255 51.0771 183.27 51.0208C183.284 50.9646 183.31 50.9122 183.347 50.8676C183.385 50.8231 183.431 50.7874 183.484 50.7634C183.537 50.7393 183.594 50.7274 183.652 50.7286H197.158C197.288 50.7332 197.412 50.7817 197.51 50.866C197.609 50.9503 197.675 51.0655 197.7 51.1927C197.712 51.2492 197.71 51.3076 197.696 51.3635C197.682 51.4194 197.655 51.4714 197.618 51.5154C197.581 51.5594 197.534 51.5944 197.481 51.6175C197.428 51.6407 197.371 51.6515 197.313 51.6491Z" fill="white"/>
<path d="M210.099 60.5054L211.492 61.3698L232.87 26.9049L231.476 26.0405L210.099 60.5054Z" fill="#263238"/>
<path opacity="0.3" d="M210.099 60.5054L211.492 61.3698L232.87 26.9049L231.476 26.0405L210.099 60.5054Z" fill="black"/>
<path d="M207.317 58.7825L208.711 59.6469L230.088 25.182L228.695 24.3176L207.317 58.7825Z" fill="#263238"/>
<path opacity="0.3" d="M207.317 58.7825L208.711 59.6469L230.088 25.182L228.695 24.3176L207.317 58.7825Z" fill="black"/>
<path d="M208.718 59.6407L210.111 60.5051L231.489 26.0401L230.095 25.1757L208.718 59.6407Z" fill="#263238"/>
<path d="M207.283 62.0995L208.536 62.8808L211.499 61.3724L207.322 58.781L207.283 62.0995Z" fill="#FF8B7B"/>
<path d="M207.268 63.5306L208.536 62.8808L207.283 62.0995L207.268 63.5306Z" fill="#263238"/>
<path d="M206.534 63.8167H206.48C205.443 63.3897 204.527 62.7151 203.811 61.852C203.362 61.3705 202.873 60.928 202.349 60.5292C202.27 60.4631 202.17 60.427 202.067 60.427C201.964 60.427 201.864 60.4631 201.785 60.5292C201.722 60.5977 201.687 60.6875 201.687 60.7806C201.687 60.8737 201.722 60.9635 201.785 61.032C201.97 61.3105 202.179 61.5735 202.388 61.8055C202.472 61.8976 202.524 62.0142 202.537 62.1382C202.549 62.2622 202.522 62.387 202.458 62.494C202.39 62.588 202.295 62.6577 202.184 62.6926C202.074 62.7275 201.956 62.7256 201.847 62.6874C201.552 62.5913 201.263 62.4803 200.98 62.3547C200.955 62.3325 200.922 62.3206 200.889 62.3216C200.855 62.3226 200.824 62.3363 200.8 62.3601C200.776 62.3838 200.762 62.4156 200.761 62.4492C200.76 62.4827 200.772 62.5153 200.795 62.5404L200.833 62.641C200.879 62.7429 200.897 62.8551 200.887 62.9663C200.876 63.0776 200.836 63.1841 200.771 63.2753C200.705 63.3626 200.618 63.4318 200.518 63.4765C200.418 63.5211 200.308 63.5397 200.199 63.5305C196.794 63.3699 193.384 63.3828 189.98 63.5692C189.929 63.5692 189.88 63.5488 189.844 63.5126C189.807 63.4763 189.787 63.4271 189.787 63.3758C189.787 63.3245 189.807 63.2753 189.844 63.2391C189.88 63.2028 189.929 63.1824 189.98 63.1824C193.397 62.996 196.82 62.9831 200.238 63.1438C200.281 63.1511 200.326 63.1463 200.367 63.13C200.408 63.1136 200.443 63.0862 200.47 63.0509C200.493 63.0109 200.505 62.9656 200.505 62.9194C200.505 62.8733 200.493 62.8279 200.47 62.7879L200.431 62.7028C200.377 62.6045 200.356 62.4912 200.372 62.3801C200.388 62.2689 200.439 62.1659 200.519 62.0865C200.598 62.0071 200.701 61.9557 200.812 61.9399C200.923 61.9241 201.037 61.9448 201.135 61.9989C201.4 62.1239 201.674 62.2299 201.955 62.3161C201.979 62.3349 202.009 62.3451 202.04 62.3451C202.071 62.3451 202.101 62.3349 202.125 62.3161C202.144 62.2797 202.151 62.2379 202.144 62.1973C202.137 62.1567 202.117 62.1195 202.086 62.0917C201.862 61.8287 201.653 61.5503 201.46 61.2718C201.348 61.1268 201.292 60.947 201.3 60.7644C201.309 60.5817 201.382 60.4079 201.506 60.2739C201.649 60.1413 201.837 60.0676 202.032 60.0676C202.227 60.0676 202.415 60.1413 202.558 60.2739C203.116 60.6809 203.634 61.1393 204.105 61.6431C204.767 62.4176 205.598 63.0291 206.534 63.43C206.559 63.4378 206.581 63.4505 206.601 63.4673C206.621 63.4841 206.637 63.5046 206.648 63.5277C206.66 63.5507 206.667 63.5759 206.668 63.6016C206.67 63.6273 206.666 63.6531 206.658 63.6775C206.651 63.7092 206.636 63.7387 206.614 63.763C206.592 63.7873 206.565 63.8058 206.534 63.8167Z" fill="white"/>
<path d="M203.216 92.1592L208.391 83.2094H198.049L203.216 92.1592Z" fill="#407BFF"/>
<path d="M261.284 65.8743C259.084 63.9284 256.22 62.9036 253.285 63.0123C251.406 59.2219 247.53 57.0096 243.431 57.7599C237.552 58.8352 235.757 65.8975 239.841 68.4734C241.192 69.3292 242.655 69.9931 244.189 70.4459V70.6316C241.787 71.4978 239.686 73.0387 238.138 75.0694C236.591 77.1001 235.662 79.5343 235.463 82.0799C234.86 90.8363 244.266 95.9571 249.387 91.0839C250.095 90.4116 250.767 89.7015 251.398 88.9566C252.388 90.349 253.456 91.7723 254.608 93.2575C267.403 87.3631 269.561 73.0141 261.284 65.8743Z" fill="#263238"/>
<path d="M235.564 99.9176C235.487 101.001 235.394 101.944 235.255 102.934C235.116 103.925 234.984 104.884 234.822 105.851C234.497 107.792 234.048 109.718 233.592 111.614C232.651 115.469 231.334 119.223 229.662 122.822L229.5 123.162C229.438 123.294 229.422 123.34 229.306 123.572C229.113 123.955 228.882 124.318 228.618 124.655C228.119 125.268 227.52 125.791 226.847 126.202C225.733 126.866 224.505 127.315 223.226 127.525C221.119 127.85 218.976 127.878 216.86 127.61C212.944 127.13 209.095 126.204 205.389 124.849L206.24 121.755C208.026 122.025 209.891 122.273 211.716 122.435C213.514 122.631 215.322 122.724 217.131 122.714C218.791 122.744 220.449 122.567 222.066 122.188C222.651 122.047 223.205 121.797 223.698 121.453C223.821 121.364 223.923 121.251 224 121.12C224.021 121.081 224.037 121.04 224.046 120.996L224.263 120.44C224.588 119.612 224.905 118.776 225.176 117.918C225.446 117.059 225.733 116.208 226.003 115.35C226.491 113.609 226.97 111.869 227.365 110.09C227.759 108.311 228.084 106.531 228.386 104.737C228.688 102.942 228.927 101.086 229.105 99.4149L235.564 99.9176Z" fill="#FFB573"/>
<path d="M231.163 92.1745C228.548 92.832 226.723 103.576 226.723 103.576L233.917 108.465C233.917 108.465 240.816 97.6357 238.805 94.7659C236.701 91.7723 234.969 91.1999 231.163 92.1745Z" fill="#263238"/>
<path opacity="0.2" d="M231.396 94.5725L229.393 105.394L233.43 108.14L231.396 94.5725Z" fill="black"/>
<path d="M203.547 121.894L198.666 123.766L204.181 127.092C204.181 127.092 207.701 125.058 207.608 122.451L207.067 122.141C206.535 121.841 205.944 121.663 205.335 121.62C204.726 121.578 204.115 121.671 203.547 121.894Z" fill="#FFB573"/>
<path opacity="0.1" d="M203.185 122.134L200.771 122.992C200.3 123.152 199.837 123.338 199.387 123.549C199.387 123.549 200.98 124.214 201.777 123.766C202.985 123.857 204.2 123.784 205.389 123.549L203.185 122.134Z" fill="black"/>
<path d="M195.627 127.394L199.781 130.851L204.175 127.123L198.667 123.797L195.627 127.394Z" fill="#FFB573"/>
<path d="M245.28 272.965H238.953L238.527 258.299H244.863L245.28 272.965Z" fill="#FFB573"/>
<path d="M238.737 272.23H245.846C245.969 272.227 246.09 272.27 246.184 272.35C246.278 272.429 246.339 272.541 246.356 272.664L247.13 278.295C247.145 278.437 247.13 278.58 247.086 278.716C247.042 278.852 246.97 278.977 246.874 279.082C246.779 279.188 246.662 279.273 246.531 279.33C246.401 279.388 246.259 279.417 246.117 279.417C243.641 279.378 242.442 279.231 239.309 279.231C237.391 279.231 231.86 279.432 229.199 279.432C226.538 279.432 226.399 276.802 227.505 276.562C232.471 275.495 236.014 274.025 237.646 272.617C237.953 272.364 238.339 272.227 238.737 272.23Z" fill="#263238"/>
<g opacity="0.2">
<path d="M238.527 258.299L238.744 265.864H245.079L244.863 258.299H238.527Z" fill="black"/>
</g>
<path d="M231.163 92.1745C231.163 92.1745 228.147 93.2343 234.188 130.395H259.908C259.475 119.929 259.467 113.47 264.472 91.9889C260.871 91.2436 257.22 90.7627 253.55 90.5501C249.661 90.2713 245.758 90.2713 241.869 90.5501C236.849 91.0065 231.163 92.1745 231.163 92.1745Z" fill="#263238"/>
<path d="M248.878 102.362C246.753 102.299 244.688 101.645 242.914 100.475C242.893 100.461 242.876 100.443 242.862 100.422C242.848 100.401 242.839 100.377 242.835 100.353C242.831 100.328 242.831 100.303 242.837 100.279C242.842 100.255 242.853 100.232 242.867 100.212C242.882 100.19 242.9 100.172 242.921 100.157C242.942 100.143 242.966 100.133 242.991 100.128C243.017 100.123 243.043 100.123 243.068 100.128C243.093 100.133 243.117 100.143 243.138 100.157C245.035 101.401 247.269 102.028 249.535 101.952C250.378 101.418 256.211 97.5274 256.652 90.7899C256.654 90.7645 256.661 90.7397 256.672 90.717C256.684 90.6943 256.7 90.6741 256.719 90.6575C256.739 90.641 256.761 90.6285 256.785 90.6207C256.81 90.6128 256.835 90.6099 256.861 90.612C256.886 90.614 256.911 90.6209 256.934 90.6325C256.956 90.6441 256.977 90.66 256.993 90.6794C257.01 90.6988 257.022 90.7213 257.03 90.7456C257.038 90.7699 257.041 90.7955 257.039 90.8209C256.59 97.7131 250.85 101.596 249.698 102.3C249.67 102.308 249.641 102.308 249.613 102.3C249.365 102.354 249.118 102.362 248.878 102.362Z" fill="white"/>
<path d="M237.932 101.171C237.899 101.182 237.864 101.182 237.831 101.171C237.549 100.952 237.318 100.673 237.155 100.355C236.992 100.037 236.901 99.687 236.888 99.3297C236.524 96.9705 237.398 92.8475 239.208 90.7126C239.226 90.6938 239.248 90.679 239.272 90.6688C239.296 90.6586 239.322 90.6534 239.348 90.6534C239.374 90.6534 239.399 90.6586 239.423 90.6688C239.447 90.679 239.469 90.6938 239.487 90.7126C239.522 90.7487 239.542 90.7973 239.542 90.8479C239.542 90.8986 239.522 90.9471 239.487 90.9833C237.77 92.9868 236.88 97.0169 237.228 99.2911C237.263 99.8794 237.52 100.433 237.947 100.838C239.018 100.652 240.059 100.322 241.042 99.8557C241.089 99.8371 241.142 99.8371 241.189 99.8557C241.236 99.8744 241.275 99.9103 241.297 99.9563C241.307 99.9797 241.313 100.005 241.313 100.03C241.314 100.056 241.309 100.081 241.3 100.105C241.29 100.129 241.276 100.15 241.259 100.169C241.241 100.187 241.22 100.201 241.196 100.212C240.159 100.685 239.06 101.008 237.932 101.171Z" fill="white"/>
<path d="M252.389 77.4C251.654 81.1516 250.919 88.0438 253.549 90.5501C253.549 90.5501 252.521 94.3636 245.536 94.3636C237.854 94.3636 241.869 90.5501 241.869 90.5501C246.054 89.5445 245.945 86.4349 245.218 83.5186L252.389 77.4Z" fill="#FFB573"/>
<path d="M253.541 90.5501C249.652 90.2713 245.749 90.2713 241.86 90.5501L241.087 90.6274C240.151 92.3911 239.919 95.1062 242.154 99.1363C242.154 99.1363 252.396 95.0057 255.065 90.6893C254.57 90.612 254.059 90.5733 253.541 90.5501Z" fill="#FFB573"/>
<path opacity="0.2" d="M249.465 79.8986L245.211 83.5419C245.395 84.2204 245.517 84.9143 245.575 85.615C247.176 85.3829 249.373 83.627 249.543 81.9484C249.645 81.2663 249.618 80.5711 249.465 79.8986Z" fill="black"/>
<path d="M256.443 70.8868C255.012 77.0055 254.532 79.6278 250.866 82.2656C245.358 86.2415 238.156 83.1474 237.715 76.7193C237.329 70.941 239.742 61.8984 246.224 60.4751C247.65 60.1537 249.134 60.2017 250.535 60.6147C251.937 61.0276 253.21 61.7918 254.234 62.8347C255.257 63.8776 255.997 65.1647 256.384 66.5739C256.771 67.9831 256.791 69.4676 256.443 70.8868Z" fill="#FFB573"/>
<path d="M234.188 130.395C234.188 130.395 229.191 179.182 229.609 198.466C230.042 218.578 237.398 264.364 237.398 264.364H245.985C245.985 264.364 244.631 219.723 245.389 199.998C246.217 178.486 253.047 130.38 253.047 130.38L234.188 130.395Z" fill="#407BFF"/>
<path opacity="0.3" d="M234.188 130.395C234.188 130.395 229.191 179.182 229.609 198.466C230.042 218.578 237.398 264.364 237.398 264.364H245.985C245.985 264.364 244.631 219.723 245.389 199.998C246.217 178.486 253.047 130.38 253.047 130.38L234.188 130.395Z" fill="white"/>
<path d="M246.703 264.704H236.655L235.92 261.502L247.175 261.107L246.703 264.704Z" fill="#263238"/>
<path opacity="0.2" d="M245.28 142.532C238.968 155.241 244.011 178.424 246.247 187.049C247.391 174.1 249.341 158.258 250.834 146.631C249.851 140.056 248.196 136.676 245.28 142.532Z" fill="black"/>
<path d="M274.884 272.965H268.549L266.229 258.299H272.556L274.884 272.965Z" fill="#FFB573"/>
<path d="M268.238 272.23H275.378C275.505 272.233 275.628 272.276 275.729 272.354C275.829 272.432 275.902 272.541 275.935 272.664L277.482 278.295C277.52 278.428 277.526 278.568 277.499 278.704C277.473 278.84 277.414 278.968 277.329 279.077C277.244 279.186 277.135 279.274 277.009 279.333C276.884 279.392 276.747 279.421 276.608 279.417C274.125 279.378 272.911 279.231 269.778 279.231C267.852 279.231 262.352 279.432 259.722 279.432C257.092 279.432 256.581 276.802 257.656 276.562C262.483 275.495 265.794 274.025 267.287 272.617C267.547 272.378 267.885 272.241 268.238 272.23Z" fill="#263238"/>
<g opacity="0.2">
<path d="M266.229 258.299L267.427 265.864H273.763L272.564 258.299H266.229Z" fill="black"/>
</g>
<path d="M241.344 130.395C241.344 130.395 246.658 179.182 249.582 198.466C252.622 218.578 265.927 264.364 265.927 264.364H274.451C274.451 264.364 267.304 219.723 265.501 199.998C263.536 178.486 260.141 130.38 260.141 130.38L241.344 130.395Z" fill="#407BFF"/>
<path opacity="0.3" d="M241.344 130.395C241.344 130.395 246.658 179.182 249.582 198.466C252.622 218.578 265.927 264.364 265.927 264.364H274.451C274.451 264.364 267.304 219.723 265.501 199.998C263.536 178.486 260.141 130.38 260.141 130.38L241.344 130.395Z" fill="white"/>
<path d="M275.232 264.704H265.184L264.031 261.502L275.232 261.107V264.704Z" fill="#263238"/>
<path d="M266.003 273.337C265.446 273.381 264.89 273.246 264.417 272.95C264.304 272.863 264.213 272.752 264.15 272.624C264.087 272.497 264.054 272.357 264.053 272.215C264.045 272.137 264.059 272.058 264.095 271.988C264.13 271.917 264.186 271.859 264.254 271.82C264.974 271.395 267.666 272.679 267.967 272.834C267.998 272.846 268.024 272.868 268.042 272.895C268.06 272.923 268.069 272.956 268.068 272.988C268.068 273.018 268.059 273.046 268.04 273.069C268.022 273.091 267.996 273.107 267.967 273.112C267.321 273.25 266.663 273.325 266.003 273.337ZM264.703 272.029C264.61 272.023 264.516 272.042 264.432 272.083C264.404 272.099 264.381 272.123 264.368 272.152C264.354 272.181 264.349 272.214 264.355 272.246C264.356 272.338 264.377 272.429 264.417 272.512C264.458 272.594 264.515 272.667 264.587 272.725C265.02 273.074 266.064 273.128 267.441 272.896C266.581 272.463 265.656 272.17 264.703 272.029Z" fill="#407BFF"/>
<path d="M267.936 273.112H267.874C267.101 272.764 265.407 271.403 265.43 270.683C265.43 270.513 265.53 270.304 265.94 270.258C266.25 270.232 266.557 270.326 266.799 270.521C267.447 271.195 267.887 272.041 268.068 272.958C268.073 272.983 268.071 273.009 268.063 273.033C268.055 273.058 268.041 273.08 268.021 273.097C267.995 273.11 267.965 273.115 267.936 273.112ZM266.095 270.544H266.01C265.739 270.544 265.732 270.683 265.732 270.714C265.732 271.148 266.869 272.223 267.696 272.687C267.537 271.949 267.169 271.273 266.637 270.738C266.483 270.614 266.292 270.546 266.095 270.544Z" fill="#407BFF"/>
<path d="M246.301 70.8481C246.216 71.3509 245.875 71.7145 245.527 71.6217C245.179 71.5288 244.993 71.1111 245.086 70.6083C245.179 70.1055 245.504 69.742 245.86 69.7961C246.216 69.8503 246.386 70.3453 246.301 70.8481Z" fill="#263238"/>
<path d="M240.609 69.8813C240.523 70.3841 240.183 70.7476 239.835 70.6548C239.487 70.562 239.309 70.152 239.394 69.6415C239.479 69.131 239.812 68.7751 240.168 68.868C240.523 68.9608 240.694 69.3785 240.609 69.8813Z" fill="#263238"/>
<path d="M240.307 68.9221L239.154 68.3651C239.154 68.3651 239.618 69.4171 240.307 68.9221Z" fill="#263238"/>
<path d="M242.209 71.088C241.572 72.1587 240.791 73.1373 239.889 73.9965C240.116 74.2223 240.389 74.3965 240.689 74.5073C240.989 74.6181 241.31 74.6628 241.629 74.6385L242.209 71.088Z" fill="#ED893E"/>
<path d="M244.011 77.0752C243.751 77.0753 243.492 77.052 243.237 77.0055C243.218 77.0027 243.199 76.996 243.182 76.9859C243.166 76.9758 243.151 76.9624 243.139 76.9465C243.128 76.9307 243.12 76.9127 243.115 76.8936C243.111 76.8745 243.11 76.8547 243.113 76.8354C243.121 76.7955 243.144 76.7603 243.177 76.7371C243.21 76.714 243.251 76.7048 243.291 76.7116C243.915 76.8311 244.557 76.8024 245.167 76.6277C245.777 76.453 246.338 76.1373 246.803 75.706C246.817 75.691 246.834 75.679 246.852 75.6708C246.871 75.6626 246.891 75.6584 246.911 75.6584C246.932 75.6584 246.952 75.6626 246.971 75.6708C246.989 75.679 247.006 75.691 247.02 75.706C247.034 75.7197 247.045 75.7359 247.052 75.7539C247.059 75.7718 247.063 75.791 247.063 75.8104C247.063 75.8298 247.059 75.8491 247.052 75.867C247.045 75.8849 247.034 75.9012 247.02 75.9148C246.21 76.6844 245.128 77.1016 244.011 77.0752Z" fill="#263238"/>
<path d="M259.428 61.3569C258.702 60.8474 257.877 60.4944 257.007 60.3203C256.303 54.2868 251.469 50.45 246.077 51.6645C239.966 53.0414 237.839 60.622 241.946 63.2056C244.362 64.6819 247.091 65.5696 249.914 65.797C250.022 70.8017 253.139 75.0794 255.328 75.3115C261.579 72.8207 263.195 64.0101 259.428 61.3569Z" fill="#263238"/>
<path d="M257.154 76.8431C256.537 77.8904 255.535 78.6542 254.361 78.9703C252.814 79.3648 252.041 77.9647 252.52 76.5105C252.93 75.2032 254.245 73.4163 255.8 73.6561C256.138 73.7178 256.455 73.8624 256.723 74.0769C256.991 74.2914 257.201 74.569 257.335 74.8849C257.469 75.2008 257.523 75.5451 257.491 75.8869C257.46 76.2287 257.344 76.5572 257.154 76.8431Z" fill="#FFB573"/>
<path d="M248.783 70.0746C248.72 70.0744 248.658 70.0541 248.606 70.0166C248.555 69.9791 248.517 69.9263 248.497 69.8658C248.087 68.543 246.393 67.9706 246.378 67.9706C246.302 67.9458 246.239 67.892 246.203 67.821C246.167 67.75 246.16 67.6675 246.184 67.5916C246.196 67.5534 246.215 67.518 246.24 67.4874C246.266 67.4569 246.297 67.4318 246.333 67.4137C246.368 67.3956 246.407 67.3849 246.446 67.3823C246.486 67.3796 246.526 67.385 246.563 67.3982C246.641 67.3982 248.575 68.0712 249.07 69.7188C249.094 69.7947 249.087 69.8772 249.051 69.9482C249.015 70.0192 248.952 70.073 248.876 70.0978L248.783 70.0746Z" fill="#263238"/>
<path d="M239.348 66.9573C239.295 66.9572 239.243 66.9437 239.197 66.918C239.151 66.8922 239.113 66.8552 239.085 66.8103C239.046 66.7405 239.037 66.6582 239.058 66.5813C239.08 66.5045 239.131 66.4394 239.201 66.4003C239.608 66.1539 240.069 66.0085 240.544 65.9762C241.019 65.9439 241.495 66.0257 241.932 66.2147C241.992 66.2559 242.036 66.3179 242.054 66.3889C242.073 66.46 242.064 66.5353 242.031 66.6007C241.998 66.6662 241.942 66.7173 241.874 66.7445C241.806 66.7716 241.73 66.773 241.661 66.7484C241.312 66.6055 240.934 66.5465 240.558 66.576C240.182 66.6056 239.818 66.7229 239.495 66.9186C239.451 66.9457 239.4 66.9591 239.348 66.9573Z" fill="#263238"/>
<path d="M267.426 99.3607C268.199 103.004 268.71 106.585 269.143 110.244C269.6 113.917 269.859 117.613 269.917 121.314C269.917 121.499 269.917 121.886 269.917 122.226C269.917 122.567 269.862 122.845 269.824 123.131C269.731 123.696 269.63 124.222 269.499 124.678C269.251 125.669 268.957 126.589 268.648 127.494C268.029 129.296 267.294 131.006 266.552 132.692C265.039 136.037 263.358 139.303 261.516 142.478L258.607 141.124L260.332 136.034C260.913 134.348 261.47 132.646 261.988 130.952C262.506 129.258 263.009 127.579 263.442 125.924C263.651 125.096 263.829 124.276 263.953 123.503C264.014 123.116 264.061 122.729 264.092 122.42C264.092 122.257 264.092 122.11 264.092 121.979L264.053 121.538C263.914 119.805 263.713 118.065 263.504 116.317L262.777 111.057C262.243 107.56 261.647 104.017 261.052 100.56L267.426 99.3607Z" fill="#FFB573"/>
<path d="M264.472 91.9889C267.048 92.7624 270.142 101.643 270.142 101.643L260.14 108.79C260.14 108.79 256.497 101.387 257.58 98.0534C258.709 94.588 261.525 91.0916 264.472 91.9889Z" fill="#263238"/>
<path d="M236.354 273.337C235.809 273.391 235.262 273.254 234.807 272.95C234.704 272.86 234.625 272.745 234.578 272.617C234.531 272.488 234.516 272.35 234.536 272.215C234.54 272.133 234.564 272.054 234.608 271.985C234.651 271.916 234.712 271.859 234.783 271.82C235.557 271.395 238.086 272.679 238.373 272.834C238.4 272.848 238.423 272.871 238.437 272.899C238.45 272.926 238.455 272.958 238.45 272.988C238.446 273.019 238.432 273.047 238.412 273.069C238.391 273.091 238.364 273.106 238.334 273.112C237.682 273.248 237.019 273.323 236.354 273.337ZM235.224 272.029C235.128 272.024 235.033 272.042 234.946 272.083C234.916 272.099 234.891 272.122 234.873 272.151C234.855 272.179 234.846 272.212 234.845 272.246C234.834 272.334 234.843 272.423 234.872 272.506C234.902 272.59 234.951 272.665 235.016 272.725C235.402 273.074 236.447 273.128 237.847 272.896C237.029 272.458 236.142 272.165 235.224 272.029Z" fill="#407BFF"/>
<path d="M238.317 273.112H238.248C237.474 272.764 235.997 271.403 236.121 270.683C236.121 270.513 236.268 270.304 236.678 270.258C236.827 270.243 236.979 270.259 237.122 270.304C237.266 270.349 237.399 270.423 237.513 270.521C238.286 271.186 238.457 272.888 238.457 272.958C238.461 272.984 238.457 273.012 238.446 273.036C238.435 273.061 238.418 273.082 238.395 273.097C238.371 273.109 238.344 273.114 238.317 273.112ZM236.809 270.544H236.701C236.43 270.544 236.415 270.683 236.407 270.714C236.337 271.147 237.351 272.223 238.116 272.687C238.066 271.973 237.796 271.292 237.343 270.737C237.196 270.608 237.005 270.539 236.809 270.544Z" fill="#407BFF"/>
<path d="M245.985 69.889L244.832 69.332C244.832 69.332 245.312 70.3918 245.985 69.889Z" fill="#263238"/>
<path d="M260.294 128.886L260.952 131.207C261.045 131.393 260.828 131.571 260.534 131.571H234.056C233.824 131.571 233.638 131.455 233.623 131.315L233.391 128.995C233.391 128.832 233.576 128.701 233.824 128.701H259.907C259.982 128.699 260.056 128.715 260.123 128.747C260.19 128.779 260.249 128.827 260.294 128.886Z" fill="#407BFF"/>
<path d="M256.813 131.795H257.509C257.648 131.795 257.749 131.725 257.741 131.64L257.416 128.647C257.416 128.562 257.285 128.484 257.145 128.484H256.449C256.31 128.484 256.202 128.562 256.209 128.647L256.542 131.64C256.534 131.725 256.658 131.795 256.813 131.795Z" fill="#407BFF"/>
<g opacity="0.3">
<path d="M256.813 131.795H257.509C257.648 131.795 257.749 131.725 257.741 131.64L257.416 128.647C257.416 128.562 257.285 128.484 257.145 128.484H256.449C256.31 128.484 256.202 128.562 256.209 128.647L256.542 131.64C256.534 131.725 256.658 131.795 256.813 131.795Z" fill="white"/>
</g>
<path d="M236.021 131.795H236.717C236.856 131.795 236.965 131.725 236.957 131.64L236.624 128.647C236.624 128.562 236.493 128.484 236.354 128.484H235.657C235.518 128.484 235.41 128.562 235.425 128.647L235.75 131.64C235.758 131.725 235.882 131.795 236.021 131.795Z" fill="#407BFF"/>
<path opacity="0.3" d="M236.021 131.795H236.717C236.856 131.795 236.965 131.725 236.957 131.64L236.624 128.647C236.624 128.562 236.493 128.484 236.354 128.484H235.657C235.518 128.484 235.41 128.562 235.425 128.647L235.75 131.64C235.758 131.725 235.882 131.795 236.021 131.795Z" fill="white"/>
<path d="M246.41 131.795H247.106C247.245 131.795 247.353 131.725 247.338 131.64L247.013 128.647C247.013 128.562 246.881 128.484 246.742 128.484H246.046C245.907 128.484 245.799 128.562 245.814 128.647L246.139 131.64C246.147 131.725 246.27 131.795 246.41 131.795Z" fill="#407BFF"/>
<path opacity="0.3" d="M246.41 131.795H247.106C247.245 131.795 247.353 131.725 247.338 131.64L247.013 128.647C247.013 128.562 246.881 128.484 246.742 128.484H246.046C245.907 128.484 245.799 128.562 245.814 128.647L246.139 131.64C246.147 131.725 246.27 131.795 246.41 131.795Z" fill="white"/>
<path d="M258.724 140.551L253.812 145.316L260.217 145.958C260.217 145.958 262.538 142.609 261.324 140.273L258.724 140.551Z" fill="#FFB573"/>
<path d="M253.086 150.592L258.485 150.839L260.218 145.958L253.813 145.316L253.086 150.592Z" fill="#FFB573"/>
<path d="M127.867 273.917C128.477 273.988 129.092 273.837 129.6 273.491C129.67 273.412 129.715 273.314 129.729 273.209C129.743 273.104 129.725 272.998 129.677 272.903C129.642 272.825 129.59 272.756 129.524 272.701C129.458 272.646 129.381 272.607 129.298 272.586C128.385 272.331 126.204 273.46 126.142 273.514C126.115 273.527 126.093 273.546 126.078 273.571C126.063 273.596 126.056 273.625 126.057 273.654C126.058 273.679 126.068 273.704 126.085 273.724C126.101 273.743 126.124 273.757 126.15 273.762C126.716 273.864 127.291 273.916 127.867 273.917ZM128.934 272.818C129.019 272.806 129.105 272.806 129.19 272.818C129.24 272.828 129.288 272.851 129.328 272.883C129.368 272.915 129.401 272.957 129.422 273.004C129.491 273.174 129.422 273.259 129.422 273.306C129.104 273.669 127.666 273.677 126.629 273.53C127.35 273.159 128.13 272.919 128.934 272.818Z" fill="#407BFF"/>
<path d="M126.173 273.762H126.235C126.962 273.452 128.501 272.215 128.494 271.581C128.494 271.426 128.409 271.24 128.045 271.201C127.768 271.182 127.493 271.265 127.272 271.434C126.676 272.037 126.26 272.795 126.073 273.623C126.065 273.645 126.064 273.669 126.071 273.691C126.078 273.713 126.092 273.733 126.111 273.746C126.13 273.758 126.151 273.763 126.173 273.762ZM127.898 271.441H127.983C128.215 271.441 128.223 271.557 128.223 271.588C128.223 271.975 127.163 272.942 126.397 273.36C126.569 272.697 126.916 272.093 127.403 271.611C127.548 271.509 127.721 271.455 127.898 271.457V271.441Z" fill="#407BFF"/>
<path d="M119.945 273.63H125.631L128.129 260.465H122.444L119.945 273.63Z" fill="#B55B52"/>
<path d="M125.686 272.973H119.497C119.379 272.977 119.265 273.016 119.168 273.085C119.072 273.154 118.998 273.249 118.956 273.36L117.092 278.411C117.04 278.52 117.017 278.642 117.025 278.763C117.034 278.884 117.073 279 117.14 279.102C117.207 279.203 117.299 279.285 117.407 279.34C117.515 279.395 117.636 279.422 117.757 279.416C120.008 279.416 123.257 279.254 126.072 279.254C129.36 279.254 129.058 279.432 132.918 279.432C135.239 279.432 136.244 277.073 135.301 276.856C131 275.889 130.497 275.781 127.008 273.414C126.623 273.135 126.161 272.981 125.686 272.973Z" fill="#263238"/>
<path opacity="0.2" d="M128.13 260.473L126.838 267.256H121.152L122.444 260.473H128.13Z" fill="black"/>
<path d="M128.554 131.849L132.275 135.755L126.272 137.852C126.272 137.852 124.091 134.665 125.77 132.483L128.554 131.849Z" fill="#B55B52"/>
<path d="M133.39 141.217L127.449 142.083L126.273 137.852L132.276 135.755L133.39 141.217Z" fill="#B55B52"/>
<path d="M106.254 164.268L135.246 165.537C135.927 165.547 136.591 165.322 137.125 164.899C137.66 164.476 138.031 163.881 138.178 163.216L141.643 145.502C141.715 145.202 141.719 144.889 141.653 144.588C141.588 144.286 141.456 144.003 141.267 143.759C141.077 143.516 140.835 143.318 140.559 143.18C140.283 143.043 139.979 142.969 139.671 142.965L110.678 141.688C109.998 141.68 109.336 141.906 108.804 142.329C108.271 142.751 107.9 143.345 107.754 144.009L104.281 161.723C104.208 162.024 104.203 162.337 104.268 162.64C104.332 162.942 104.464 163.226 104.654 163.471C104.844 163.716 105.086 163.914 105.363 164.052C105.64 164.19 105.944 164.264 106.254 164.268Z" fill="#263238"/>
<path d="M108.241 169.714L144.056 171.261C144.868 171.292 145.661 171.01 146.272 170.473C146.882 169.936 147.263 169.185 147.336 168.375L149.231 146.392C149.269 146.001 149.227 145.607 149.107 145.233C148.987 144.859 148.791 144.514 148.532 144.219C148.273 143.924 147.957 143.685 147.602 143.517C147.247 143.349 146.862 143.256 146.469 143.243L110.662 141.696C109.85 141.669 109.058 141.952 108.447 142.488C107.837 143.024 107.453 143.773 107.375 144.581L105.48 166.565C105.443 166.956 105.486 167.35 105.606 167.723C105.727 168.096 105.922 168.441 106.181 168.735C106.44 169.03 106.756 169.269 107.11 169.437C107.464 169.606 107.849 169.7 108.241 169.714Z" fill="#407BFF"/>
<path opacity="0.2" d="M108.241 169.714L144.056 171.261C144.868 171.292 145.661 171.01 146.272 170.473C146.882 169.936 147.263 169.185 147.336 168.375L149.231 146.392C149.269 146.001 149.227 145.607 149.107 145.233C148.987 144.859 148.791 144.514 148.532 144.219C148.273 143.924 147.957 143.685 147.602 143.517C147.247 143.349 146.862 143.256 146.469 143.243L110.662 141.696C109.85 141.669 109.058 141.952 108.447 142.488C107.837 143.024 107.453 143.773 107.375 144.581L105.48 166.565C105.443 166.956 105.486 167.35 105.606 167.723C105.727 168.096 105.922 168.441 106.181 168.735C106.44 169.03 106.756 169.269 107.11 169.437C107.464 169.606 107.849 169.7 108.241 169.714Z" fill="black"/>
<path d="M134.518 149.068H134.425L124.029 148.612C123.758 148.602 123.492 148.538 123.247 148.422C123.002 148.306 122.783 148.141 122.604 147.937C122.425 147.734 122.29 147.496 122.206 147.238C122.123 146.98 122.093 146.708 122.118 146.438L122.528 141.696C122.629 140.727 123.092 139.831 123.825 139.189C124.558 138.546 125.507 138.204 126.481 138.231L133.443 138.532C133.946 138.552 134.44 138.674 134.894 138.891C135.348 139.108 135.754 139.415 136.086 139.793C136.418 140.172 136.67 140.614 136.826 141.092C136.982 141.571 137.039 142.077 136.993 142.578L136.599 147.173C136.547 147.69 136.306 148.17 135.922 148.52C135.538 148.869 135.038 149.065 134.518 149.068ZM124.462 146.299L134.294 146.732L134.673 142.369C134.694 142.178 134.676 141.985 134.619 141.801C134.562 141.618 134.468 141.448 134.342 141.303C134.216 141.157 134.062 141.04 133.889 140.957C133.715 140.874 133.526 140.828 133.334 140.822L126.373 140.513C125.994 140.51 125.627 140.646 125.342 140.895C125.057 141.145 124.873 141.49 124.826 141.866L124.462 146.299Z" fill="#407BFF"/>
<path d="M147.885 171.454L112.078 169.907C111.26 169.859 110.489 169.508 109.916 168.921C109.344 168.334 109.011 167.555 108.984 166.735L108.504 144.651C108.488 144.261 108.554 143.872 108.698 143.51C108.842 143.147 109.06 142.818 109.338 142.545C109.617 142.272 109.949 142.06 110.314 141.923C110.68 141.786 111.07 141.727 111.459 141.75L147.274 143.297C148.093 143.343 148.865 143.695 149.437 144.282C150.01 144.869 150.342 145.649 150.368 146.469L150.84 168.553C150.854 168.943 150.788 169.331 150.644 169.693C150.499 170.055 150.281 170.383 150.003 170.657C149.725 170.93 149.393 171.142 149.028 171.279C148.664 171.416 148.274 171.476 147.885 171.454Z" fill="#407BFF"/>
<path d="M137.28 88.5852C136.901 89.3588 136.452 90.2406 136.05 91.0837C135.648 91.9269 135.277 92.8242 134.851 93.6983C134.078 95.4542 133.304 97.2179 132.639 98.9893C131.974 100.761 131.355 102.548 130.806 104.319C130.55 105.208 130.287 106.09 130.094 106.964C129.978 107.405 129.877 107.846 129.8 108.272L129.676 108.921C129.63 109.146 129.583 109.37 129.568 109.525C129.568 109.865 129.475 110.175 129.46 110.631C129.444 111.087 129.406 111.459 129.406 111.931C129.406 112.836 129.406 113.787 129.406 114.738C129.444 116.665 129.56 118.606 129.676 120.602C129.901 124.555 130.233 128.569 130.543 132.53L123.457 133.675C122.498 129.644 121.74 125.653 121.059 121.561C120.734 119.519 120.456 117.461 120.224 115.373C120.115 114.305 120.007 113.246 119.953 112.124C119.907 111.59 119.899 110.987 119.891 110.399C119.883 109.811 119.891 109.146 119.961 108.481C119.976 108.177 120.007 107.875 120.054 107.576L120.162 106.725C120.224 106.152 120.309 105.595 120.409 105.054C120.595 103.94 120.827 102.865 121.059 101.789C121.562 99.6622 122.134 97.566 122.815 95.5393C123.496 93.5126 124.215 91.5014 125.02 89.5367C125.422 88.5543 125.793 87.5796 126.273 86.605C126.752 85.6303 127.131 84.7021 127.665 83.6346L137.28 88.5852Z" fill="#407BFF"/>
<path d="M152.782 129.08C152.782 129.08 147.313 171.57 144.149 188.897C140.854 206.921 129.181 265.941 129.181 265.941H119.52C119.52 265.941 124.424 207.973 126.597 190.274C128.972 170.936 132.786 129.08 132.786 129.08H152.782Z" fill="#263238"/>
<path d="M131.563 262.105C131.61 262.105 130.434 266.104 130.434 266.104H118.723L118.932 262.538L131.563 262.105Z" fill="#407BFF"/>
<path d="M157.439 58.5179C157.439 58.9975 157.695 59.392 158.012 59.392C158.329 59.392 158.577 58.9975 158.577 58.5179C158.577 58.0383 158.321 57.6516 158.012 57.6516C157.702 57.6516 157.439 58.0151 157.439 58.5179Z" fill="#263238"/>
<path d="M157.648 59.392C158.229 60.8638 159.01 62.2485 159.969 63.5072C159.638 63.745 159.258 63.907 158.857 63.9819C158.456 64.0567 158.043 64.0426 157.648 63.9404V59.392Z" fill="#A02724"/>
<path d="M155.736 55.8492C155.793 55.8495 155.85 55.8334 155.898 55.8028C156.18 55.5848 156.509 55.4373 156.859 55.3727C157.209 55.3081 157.569 55.3282 157.91 55.4315C157.979 55.4569 158.056 55.4541 158.124 55.4238C158.192 55.3935 158.245 55.338 158.273 55.269C158.287 55.2345 158.293 55.1977 158.293 55.1606C158.292 55.1235 158.284 55.0869 158.268 55.0531C158.253 55.0192 158.232 54.9887 158.204 54.9633C158.177 54.938 158.145 54.9183 158.111 54.9055C157.683 54.7675 157.228 54.7349 156.785 54.8103C156.342 54.8857 155.924 55.067 155.566 55.3386C155.506 55.3834 155.466 55.4496 155.455 55.5233C155.443 55.597 155.461 55.6723 155.504 55.7331C155.53 55.7699 155.565 55.7996 155.606 55.8198C155.646 55.8401 155.691 55.8501 155.736 55.8492Z" fill="#263238"/>
<path d="M142.208 63.8321C142.981 67.9937 143.832 75.613 140.924 78.3823C140.924 78.3823 142.061 82.5981 149.789 82.5981C158.297 82.5981 153.842 78.3823 153.842 78.3823C149.201 77.2761 149.332 73.8416 150.137 70.6083L142.208 63.8321Z" fill="#B55B52"/>
<path d="M139.809 79.8288C139.206 78.4983 138.533 76.9667 139.918 76.4871C141.465 75.9611 149.796 75.4274 152.673 76.4175C153.053 76.5227 153.408 76.7022 153.717 76.9455C154.027 77.1889 154.286 77.4912 154.478 77.8351C154.67 78.179 154.792 78.5576 154.836 78.9489C154.881 79.3403 154.848 79.7366 154.738 80.115L139.809 79.8288Z" fill="#263238"/>
<path d="M129.73 80.0144C124.756 82.2731 121.662 99.3992 121.662 99.3992L131.416 102.493C133.333 97.971 134.925 93.318 136.181 88.5697C137.953 81.4222 134.82 77.7093 129.73 80.0144Z" fill="#407BFF"/>
<path d="M190.29 122.42H196.292L195.24 129.598C195.24 129.598 190.537 129.428 188.402 125.885L190.29 122.42Z" fill="#B55B52"/>
<path d="M201.941 124.918L198.924 130.464L195.211 129.614L196.263 122.435L201.941 124.918Z" fill="#B55B52"/>
<path d="M141.388 57.4968C141.752 63.4066 141.667 66.8875 144.653 69.9198C149.139 74.4836 156.434 71.7763 157.842 65.8742C159.118 60.5677 158.306 51.7958 152.52 49.4443C151.247 48.9199 149.861 48.7294 148.495 48.8911C147.128 49.0527 145.825 49.5611 144.71 50.3678C143.594 51.1746 142.704 52.253 142.123 53.5007C141.541 54.7484 141.289 56.124 141.388 57.4968Z" fill="#B55B52"/>
<path d="M140.707 65.5339C140.707 65.5339 135.354 57.5045 136.514 52.2677C137.574 47.4795 148.38 45.77 152.867 46.2496C157.632 46.7679 159.488 48.8177 156.874 52.9484C155.331 53.6797 153.708 54.2299 152.039 54.5883C152.039 54.5883 154.692 57.8449 154.716 60.0031C153.942 60.4053 151.552 61.3645 151.552 61.3645C151.552 61.3645 148.164 69.7264 148.063 69.7109C146.756 69.5562 143.731 69.5098 142.648 69.9198C141.881 68.514 141.232 67.047 140.707 65.5339Z" fill="#263238"/>
<path d="M149.209 60.4982C149.599 61.9118 150.441 63.1588 151.607 64.0487C153.154 65.209 154.306 64.1106 154.19 62.3701C154.09 60.823 153.162 58.3245 151.46 57.8372C149.758 57.3499 148.76 58.7886 149.209 60.4982Z" fill="#B55B52"/>
<path opacity="0.3" d="M148.683 144.96C141.079 146.724 142.495 174.231 143.957 189.911C144.026 189.555 144.08 189.222 144.142 188.897C146.03 178.578 148.729 159.348 150.609 145.471C150.024 145.133 149.359 144.957 148.683 144.96Z" fill="black"/>
<path d="M156.039 273.917C156.766 273.917 157.47 273.816 157.71 273.491C157.772 273.406 157.805 273.303 157.805 273.197C157.805 273.092 157.772 272.989 157.71 272.903C157.664 272.824 157.603 272.756 157.53 272.701C157.457 272.647 157.373 272.607 157.284 272.586C156.341 272.331 154.353 273.46 154.268 273.514C154.244 273.528 154.226 273.549 154.214 273.574C154.203 273.599 154.2 273.627 154.206 273.654C154.211 273.68 154.224 273.705 154.244 273.724C154.263 273.743 154.287 273.756 154.314 273.762C154.884 273.862 155.461 273.914 156.039 273.917ZM156.944 272.818C157.029 272.806 157.115 272.806 157.199 272.818C157.254 272.829 157.305 272.851 157.351 272.883C157.396 272.915 157.434 272.956 157.462 273.004C157.563 273.174 157.524 273.259 157.462 273.306C157.199 273.669 155.761 273.677 154.701 273.53C155.395 273.149 156.157 272.907 156.944 272.818Z" fill="#407BFF"/>
<path d="M154.322 273.762H154.376C155.064 273.452 156.426 272.215 156.317 271.581C156.317 271.426 156.186 271.24 155.815 271.201C155.677 271.185 155.537 271.196 155.404 271.236C155.27 271.276 155.147 271.343 155.041 271.434C154.314 272.029 154.167 273.561 154.159 273.623C154.156 273.646 154.16 273.67 154.169 273.692C154.179 273.714 154.194 273.733 154.213 273.746C154.246 273.765 154.285 273.771 154.322 273.762ZM155.706 271.441H155.791C156.031 271.441 156.047 271.557 156.054 271.588C156.116 271.975 155.188 272.942 154.507 273.36C154.578 272.711 154.849 272.1 155.281 271.611C155.402 271.515 155.551 271.461 155.706 271.457V271.441Z" fill="#407BFF"/>
<path d="M148.07 273.63H153.756L154.32 260.465H148.643L148.07 273.63Z" fill="#B55B52"/>
<path d="M153.717 272.973H147.529C147.416 272.973 147.306 273.012 147.218 273.082C147.13 273.152 147.067 273.25 147.041 273.36L145.92 278.411C145.893 278.533 145.894 278.659 145.923 278.78C145.952 278.902 146.008 279.015 146.087 279.112C146.165 279.209 146.265 279.286 146.378 279.339C146.491 279.392 146.615 279.418 146.74 279.416C148.975 279.416 152.209 279.254 155.024 279.254C158.32 279.254 161.158 279.432 165.018 279.432C167.339 279.432 167.996 277.073 167.022 276.856C162.574 275.889 158.946 275.781 155.102 273.414C154.69 273.14 154.211 272.987 153.717 272.973Z" fill="#263238"/>
<path opacity="0.2" d="M154.321 260.473L154.027 267.256H148.342L148.636 260.473H154.321Z" fill="black"/>
<path d="M162.924 129.08C162.924 129.08 163.697 171.57 163.086 188.897C162.444 206.921 156.124 265.941 156.124 265.941H146.525C146.525 265.941 146.169 207.973 145.751 190.274C145.28 170.936 142.951 129.08 142.951 129.08H162.924Z" fill="#263238"/>
<path d="M158.003 262.105C158.042 262.105 157.454 266.104 157.454 266.104H145.751L145.426 262.538L158.003 262.105Z" fill="#407BFF"/>
<path d="M162.583 79.9603C162.583 79.9603 169.406 90.3566 163.689 132.646H131.587C131.379 128.005 135.254 101.65 130.752 79.6664C134.111 79.0195 137.509 78.5905 140.924 78.3823C145.226 78.1346 149.54 78.1346 153.842 78.3823C156.792 78.6795 159.715 79.2072 162.583 79.9603Z" fill="#407BFF"/>
<path opacity="0.2" d="M165.97 101.596L159.24 90.4417C159.24 90.4417 161.77 106.253 165.645 113.385C165.908 108.921 166.001 105.007 165.97 101.596Z" fill="black"/>
<path d="M168.841 88.0979C169.947 91.633 171.161 95.2531 172.407 98.7959C173.652 102.339 174.952 105.858 176.375 109.239L176.916 110.492C176.963 110.585 177.004 110.68 177.04 110.778C177.072 110.85 177.108 110.92 177.149 110.987C177.492 111.499 177.891 111.971 178.34 112.395C179.56 113.531 180.872 114.566 182.262 115.489C183.716 116.494 185.255 117.469 186.841 118.39C188.427 119.31 190.067 120.254 191.629 121.066L188.62 128.09C184.812 126.692 181.117 125.006 177.566 123.046C175.666 121.986 173.855 120.772 172.151 119.418C171.136 118.6 170.215 117.671 169.405 116.649C169.173 116.316 168.949 116.023 168.725 115.651C168.5 115.28 168.253 114.816 168.183 114.661L167.503 113.307C165.731 109.703 164.145 106.098 162.683 102.478C161.221 98.8578 159.86 95.2144 158.553 91.4473L168.841 88.0979Z" fill="#407BFF"/>
<path d="M155.002 82.5284C153.014 87.5873 165.104 107.954 165.104 107.954L172.971 100.428C172.971 100.428 171.254 94.0309 168.964 86.3264C166.706 78.7535 156.897 77.6938 155.002 82.5284Z" fill="#407BFF"/>
</svg>
