<svg width="38" height="38" viewBox="0 0 38 38" fill="none" xmlns="http://www.w3.org/2000/svg">
<circle cx="19" cy="19" r="19" fill="#2828C2"/>
<path d="M19.0101 11.2273C14.7301 11.2273 11.2458 14.7082 11.2442 18.9879C11.2435 20.3559 11.6018 21.6914 12.2812 22.8682L11.2275 26.7727L15.295 25.8118C16.4291 26.4305 17.7059 26.7553 19.0056 26.7561H19.0086C23.2879 26.7561 26.7707 23.2744 26.773 18.9955C26.7745 16.9209 25.9678 14.9704 24.5017 13.5029C23.0356 12.0362 21.0872 11.2281 19.0101 11.2273ZM19.0086 12.7818C20.669 12.7826 22.2294 13.4299 23.4025 14.6021C24.5755 15.7757 25.2198 17.3353 25.2183 18.994C25.2167 22.4171 22.4321 25.2015 19.0071 25.2015C17.9709 25.2007 16.9445 24.9406 16.0404 24.447L15.5166 24.1616L14.9382 24.2982L13.4078 24.6595L13.7813 23.272L13.9498 22.6496L13.6279 22.0909C13.0853 21.1519 12.7982 20.0784 12.7989 18.9879C12.8005 15.5663 15.5859 12.7818 19.0086 12.7818ZM16.2621 15.4051C16.1323 15.4051 15.9224 15.4537 15.7444 15.648C15.5663 15.8416 15.0642 16.3103 15.0642 17.2648C15.0642 18.2193 15.7595 19.142 15.8567 19.2718C15.9531 19.4008 17.1989 21.4214 19.1711 22.1987C20.8097 22.8446 21.1425 22.7171 21.4986 22.6845C21.8546 22.6526 22.6471 22.2161 22.8088 21.763C22.9705 21.3098 22.9709 20.92 22.9227 20.84C22.8745 20.7591 22.7451 20.7109 22.5507 20.6138C22.3572 20.5166 21.4033 20.0483 21.2253 19.9838C21.0473 19.9192 20.9171 19.8866 20.788 20.0809C20.659 20.2752 20.2881 20.7109 20.1746 20.84C20.0611 20.9698 19.9484 20.9872 19.7541 20.8901C19.5597 20.7921 18.9349 20.5868 18.1933 19.9261C17.6165 19.4123 17.2273 18.7784 17.1138 18.5841C17.0011 18.3905 17.1032 18.2842 17.2004 18.1878C17.2874 18.1008 17.3932 17.9613 17.4904 17.8478C17.5867 17.7343 17.6202 17.6534 17.6847 17.5244C17.7492 17.3954 17.7162 17.2815 17.668 17.1844C17.6198 17.0872 17.2424 16.1292 17.0698 15.7452C16.9244 15.4226 16.7709 15.4151 16.6325 15.4097C16.5198 15.405 16.3911 15.4051 16.2621 15.4051Z" fill="white"/>
</svg>
