<svg width="315" height="276" viewBox="0 0 315 276" fill="none" xmlns="http://www.w3.org/2000/svg">
<path d="M307.944 256.931H283.17V257.118H307.944V256.931Z" fill="#EBEBEB"/>
<path d="M219.171 258.965H212.671V259.152H219.171V258.965Z" fill="#EBEBEB"/>
<path d="M282.422 249.989H268.067V250.176H282.422V249.989Z" fill="#EBEBEB"/>
<path d="M42.9653 251.246H10.6592V251.433H42.9653V251.246Z" fill="#EBEBEB"/>
<path d="M54.3637 251.246H49.6289V251.433H54.3637V251.246Z" fill="#EBEBEB"/>
<path d="M139.831 254.402H69.7588V254.589H139.831V254.402Z" fill="#EBEBEB"/>
<path d="M148.695 211.534H4.27108C3.13832 211.534 2.05195 211.084 1.25097 210.283C0.449988 209.482 0 208.396 0 207.263V4.23368C0.00986261 3.10741 0.4642 2.03063 1.26412 1.23772C2.06403 0.444807 3.14477 -4.3179e-05 4.27108 3.14351e-09H148.695C149.828 3.14352e-09 150.914 0.449988 151.715 1.25097C152.516 2.05195 152.966 3.13832 152.966 4.27108V207.263C152.966 208.396 152.516 209.482 151.715 210.283C150.914 211.084 149.828 211.534 148.695 211.534ZM4.27108 0.149601C3.18852 0.151578 2.15087 0.582498 1.38539 1.34798C0.6199 2.11347 0.188977 3.15112 0.187 4.23368V207.263C0.188977 208.346 0.6199 209.384 1.38539 210.149C2.15087 210.915 3.18852 211.345 4.27108 211.347H148.695C149.777 211.345 150.815 210.915 151.581 210.149C152.346 209.384 152.777 208.346 152.779 207.263V4.23368C152.777 3.15112 152.346 2.11347 151.581 1.34798C150.815 0.582498 149.777 0.151578 148.695 0.149601H4.27108Z" fill="#EBEBEB"/>
<path d="M310.494 211.534H166.055C164.923 211.532 163.838 211.082 163.037 210.281C162.237 209.481 161.786 208.395 161.784 207.263V4.23368C161.796 3.10802 162.251 2.03237 163.05 1.23988C163.85 0.447385 164.93 0.00190612 166.055 0H310.494C311.618 0.00389296 312.695 0.450482 313.491 1.24297C314.288 2.03546 314.74 3.11 314.75 4.23368V207.263C314.75 208.393 314.302 209.478 313.505 210.278C312.707 211.079 311.624 211.53 310.494 211.534ZM166.055 0.149601C164.973 0.151578 163.935 0.582498 163.17 1.34798C162.404 2.11347 161.973 3.15112 161.971 4.23368V207.263C161.973 208.346 162.404 209.384 163.17 210.149C163.935 210.915 164.973 211.345 166.055 211.347H310.494C311.577 211.345 312.614 210.915 313.38 210.149C314.145 209.384 314.576 208.346 314.578 207.263V4.23368C314.576 3.15112 314.145 2.11347 313.38 1.34798C312.614 0.582498 311.577 0.151578 310.494 0.149601H166.055Z" fill="#EBEBEB"/>
<path d="M103.509 115.678H120.331L106.792 38.8884H89.9697L103.509 115.678Z" fill="#FAFAFA"/>
<path d="M93.7165 115.678H98.2494L84.7106 38.8884H80.1777L93.7165 115.678Z" fill="#FAFAFA"/>
<path d="M44.4909 117.01H49.151L35.2382 38.0957H30.5781L44.4909 117.01Z" fill="#FAFAFA"/>
<path d="M53.7816 117.01H62.5631L48.6503 38.0957H39.8613L53.7816 117.01Z" fill="#FAFAFA"/>
<path d="M77.3057 37.6992H132.276V116.987H77.3057V37.6992ZM127.93 42.0451H81.6515V112.671H127.93V42.0451Z" fill="#E6E6E6"/>
<path d="M20.1582 35.5225H134.483V119.194H20.1582V35.5225ZM130.114 39.8758H24.5265V114.84H130.107L130.114 39.8758Z" fill="white"/>
<path d="M255.27 62.6524V31.4534L214.735 31.4534V62.6524H255.27Z" fill="#F5F5F5"/>
<path d="M252.15 60.2516V33.8472H217.847V60.2516H252.15Z" fill="#EBEBEB"/>
<path d="M250.004 58.5985V35.5002H219.994V58.5985H250.004Z" fill="#FAFAFA"/>
<path d="M240.452 50.722C243.885 50.722 246.668 47.9391 246.668 44.5062C246.668 41.0732 243.885 38.2903 240.452 38.2903C237.019 38.2903 234.236 41.0732 234.236 44.5062C234.236 47.9391 237.019 50.722 240.452 50.722Z" fill="#F0F0F0"/>
<path d="M231.162 54.5665C234.595 54.5665 237.378 51.7836 237.378 48.3506C237.378 44.9177 234.595 42.1348 231.162 42.1348C227.729 42.1348 224.946 44.9177 224.946 48.3506C224.946 51.7836 227.729 54.5665 231.162 54.5665Z" fill="#F5F5F5"/>
<path d="M278.315 41.312H259.75V65.4275H278.315V41.312Z" fill="#E0E0E0"/>
<path d="M276.88 43.1672H261.172V63.5727H276.88V43.1672Z" fill="#F0F0F0"/>
<path d="M274.096 46.78H263.953V59.9598H274.096V46.78Z" fill="#FAFAFA"/>
<path d="M200.599 60.9096C205.49 60.9096 209.455 55.1026 209.455 47.9393C209.455 40.776 205.49 34.969 200.599 34.969C195.707 34.969 191.742 40.776 191.742 47.9393C191.742 55.1026 195.707 60.9096 200.599 60.9096Z" fill="#F5F5F5"/>
<path d="M200.599 57.3118C204.131 57.3118 206.994 53.1156 206.994 47.9393C206.994 42.7631 204.131 38.5669 200.599 38.5669C197.066 38.5669 194.203 42.7631 194.203 47.9393C194.203 53.1156 197.066 57.3118 200.599 57.3118Z" fill="#EBEBEB"/>
<path d="M200.598 54.5666C203.097 54.5666 205.123 51.5994 205.123 47.9393C205.123 44.2791 203.097 41.312 200.598 41.312C198.098 41.312 196.072 44.2791 196.072 47.9393C196.072 51.5994 198.098 54.5666 200.598 54.5666Z" fill="#FAFAFA"/>
<path d="M154.813 275.795C234.911 275.795 299.843 272.004 299.843 267.328C299.843 262.651 234.911 258.86 154.813 258.86C74.7152 258.86 9.7832 262.651 9.7832 267.328C9.7832 272.004 74.7152 275.795 154.813 275.795Z" fill="#3261CA"/>
<path d="M269.205 266.849H152.689L151.253 262.922H269.205V266.849Z" fill="#263238"/>
<path opacity="0.2" d="M269.205 266.849H152.689L151.253 262.922H269.205V266.849Z" fill="white"/>
<path d="M293.56 266.849H269.205V262.922H294.989L293.56 266.849Z" fill="#263238"/>
<path d="M301.729 209.851H279.169V263.244H301.729V209.851Z" fill="#407BFF"/>
<path opacity="0.5" d="M301.729 209.851H279.169V263.244H301.729V209.851Z" fill="white"/>
<path d="M280.694 209.851H145.792V263.244H280.694V209.851Z" fill="#407BFF"/>
<path opacity="0.7" d="M280.694 209.851H145.792V263.244H280.694V209.851Z" fill="white"/>
<path opacity="0.8" d="M188.338 214.16L188.174 215.357C188.084 215.978 187.261 216.449 186.274 216.449H174.949C173.962 216.449 173.139 215.978 173.057 215.357L172.885 214.16H150.646V228.237H210.569V214.16H188.338Z" fill="white"/>
<path opacity="0.8" d="M188.338 229.771L188.174 230.975C188.084 231.588 187.261 232.067 186.274 232.067H174.949C173.962 232.067 173.139 231.588 173.057 230.975L172.885 229.771H150.646V243.848H210.569V229.771H188.338Z" fill="white"/>
<path opacity="0.8" d="M188.338 245.389L188.174 246.586C188.084 247.207 187.261 247.685 186.274 247.685H174.949C173.962 247.685 173.139 247.207 173.057 246.586L172.885 245.389H150.646V259.466H210.569V245.389H188.338Z" fill="white"/>
<path opacity="0.8" d="M252.741 214.16L252.577 215.357C252.487 215.978 251.664 216.449 250.677 216.449H239.367C238.38 216.449 237.557 215.978 237.475 215.357L237.302 214.16H215.064V228.237H274.987V214.16H252.741Z" fill="white"/>
<path opacity="0.8" d="M252.741 229.771L252.577 230.975C252.487 231.588 251.664 232.067 250.677 232.067H239.367C238.38 232.067 237.557 231.588 237.475 230.975L237.302 229.771H215.064V243.848H274.987V229.771H252.741Z" fill="white"/>
<path opacity="0.8" d="M252.741 245.389L252.577 246.586C252.487 247.207 251.664 247.685 250.677 247.685H239.367C238.38 247.685 237.557 247.207 237.475 246.586L237.302 245.389H215.064V259.466H274.987V245.389H252.741Z" fill="white"/>
<path d="M289.07 202.102H175.374C174.633 202.114 173.898 201.968 173.218 201.674C172.537 201.38 171.927 200.945 171.427 200.398C170.927 199.851 170.549 199.204 170.318 198.499C170.087 197.795 170.008 197.05 170.086 196.313L177.192 115.192C177.351 113.623 178.08 112.166 179.24 111.098C180.401 110.029 181.913 109.424 183.49 109.395H297.186C297.928 109.383 298.664 109.529 299.345 109.824C300.026 110.118 300.637 110.553 301.137 111.101C301.637 111.65 302.015 112.298 302.245 113.003C302.476 113.708 302.554 114.454 302.475 115.192L295.376 196.32C295.214 197.888 294.482 199.342 293.32 200.407C292.158 201.473 290.647 202.076 289.07 202.102Z" fill="#263238"/>
<path opacity="0.4" d="M289.07 202.102H175.374C174.633 202.114 173.898 201.968 173.218 201.674C172.537 201.38 171.927 200.945 171.427 200.398C170.927 199.851 170.549 199.204 170.318 198.499C170.087 197.795 170.008 197.05 170.086 196.313L177.192 115.192C177.351 113.623 178.08 112.166 179.24 111.098C180.401 110.029 181.913 109.424 183.49 109.395H297.186C297.928 109.383 298.664 109.529 299.345 109.824C300.026 110.118 300.637 110.553 301.137 111.101C301.637 111.65 302.015 112.298 302.245 113.003C302.476 113.708 302.554 114.454 302.475 115.192L295.376 196.32C295.214 197.888 294.482 199.342 293.32 200.407C292.158 201.473 290.647 202.076 289.07 202.102Z" fill="white"/>
<path d="M287.007 202.102H173.311C172.57 202.114 171.835 201.968 171.154 201.674C170.474 201.38 169.863 200.945 169.363 200.398C168.863 199.851 168.485 199.204 168.254 198.499C168.023 197.795 167.944 197.05 168.023 196.313L175.129 115.192C175.288 113.623 176.016 112.166 177.177 111.098C178.338 110.029 179.85 109.424 181.427 109.395H295.123C295.865 109.383 296.6 109.529 297.282 109.824C297.963 110.118 298.573 110.553 299.074 111.101C299.574 111.65 299.951 112.298 300.182 113.003C300.413 113.708 300.491 114.454 300.411 115.192L293.313 196.32C293.15 197.888 292.419 199.342 291.257 200.407C290.095 201.473 288.583 202.076 287.007 202.102Z" fill="#263238"/>
<path opacity="0.7" d="M287.007 202.102H173.311C172.57 202.114 171.835 201.968 171.154 201.674C170.474 201.38 169.863 200.945 169.363 200.398C168.863 199.851 168.485 199.204 168.254 198.499C168.023 197.795 167.944 197.05 168.023 196.313L175.129 115.192C175.288 113.623 176.016 112.166 177.177 111.098C178.338 110.029 179.85 109.424 181.427 109.395H295.123C295.865 109.383 296.6 109.529 297.282 109.824C297.963 110.118 298.573 110.553 299.074 111.101C299.574 111.65 299.951 112.298 300.182 113.003C300.413 113.708 300.491 114.454 300.411 115.192L293.313 196.32C293.15 197.888 292.419 199.342 291.257 200.407C290.095 201.473 288.583 202.076 287.007 202.102Z" fill="white"/>
<path d="M288.726 196.305H172.614L179.705 115.184H295.817L288.726 196.305Z" fill="#407BFF"/>
<path opacity="0.5" d="M288.726 196.305H172.614L179.705 115.184H295.817L288.726 196.305Z" fill="white"/>
<path d="M160.864 200.554H295.504V202.012C295.504 204.093 294.678 206.089 293.206 207.561C291.735 209.032 289.739 209.859 287.658 209.859H168.711C166.63 209.859 164.634 209.032 163.162 207.561C161.691 206.089 160.864 204.093 160.864 202.012V200.554Z" fill="#263238"/>
<path opacity="0.2" d="M160.864 200.554H295.504V202.012C295.504 204.093 294.678 206.089 293.206 207.561C291.735 209.032 289.739 209.859 287.658 209.859H168.711C166.63 209.859 164.634 209.032 163.162 207.561C161.691 206.089 160.864 204.093 160.864 202.012V200.554Z" fill="white"/>
<path d="M151.469 200.554H286.109V202.012C286.109 203.043 285.906 204.063 285.511 205.015C285.117 205.967 284.539 206.832 283.811 207.561C283.082 208.289 282.217 208.867 281.265 209.262C280.313 209.656 279.293 209.859 278.262 209.859H159.323C157.242 209.859 155.246 209.032 153.774 207.561C152.303 206.089 151.476 204.093 151.476 202.012V200.554H151.469Z" fill="#263238"/>
<path opacity="0.5" d="M151.469 200.554H286.109V202.012C286.109 203.043 285.906 204.063 285.511 205.015C285.117 205.967 284.539 206.832 283.811 207.561C283.082 208.289 282.217 208.867 281.265 209.262C280.313 209.656 279.293 209.859 278.262 209.859H159.323C157.242 209.859 155.246 209.032 153.774 207.561C152.303 206.089 151.476 204.093 151.476 202.012V200.554H151.469Z" fill="white"/>
<path opacity="0.3" d="M206.739 200.554C207.214 201.377 207.897 202.062 208.721 202.537C209.544 203.012 210.478 203.262 211.429 203.261H226.187C227.138 203.261 228.072 203.011 228.895 202.536C229.718 202.061 230.402 201.377 230.877 200.554H206.739Z" fill="black"/>
<path d="M282.309 181.016H159.166C158.703 181.024 158.243 180.933 157.818 180.75C157.392 180.566 157.01 180.294 156.698 179.952C156.386 179.609 156.151 179.204 156.007 178.763C155.864 178.322 155.816 177.856 155.868 177.396L163.19 93.5C163.289 92.5214 163.744 91.6131 164.467 90.9472C165.191 90.2813 166.134 89.9041 167.117 89.8871H290.276C290.739 89.8779 291.198 89.9676 291.624 90.1503C292.049 90.3329 292.431 90.6043 292.743 90.9463C293.056 91.2883 293.291 91.693 293.435 92.1334C293.578 92.5738 293.626 93.0397 293.574 93.5L286.236 177.366C286.145 178.35 285.694 179.267 284.969 179.94C284.245 180.613 283.298 180.996 282.309 181.016Z" fill="#407BFF"/>
<path opacity="0.8" d="M282.309 181.016H159.166C158.703 181.024 158.243 180.933 157.818 180.75C157.392 180.566 157.01 180.294 156.698 179.952C156.386 179.609 156.151 179.204 156.007 178.763C155.864 178.322 155.816 177.856 155.868 177.396L163.19 93.5C163.289 92.5214 163.744 91.6131 164.467 90.9472C165.191 90.2813 166.134 89.9041 167.117 89.8871H290.276C290.739 89.8779 291.198 89.9676 291.624 90.1503C292.049 90.3329 292.431 90.6043 292.743 90.9463C293.056 91.2883 293.291 91.693 293.435 92.1334C293.578 92.5738 293.626 93.0397 293.574 93.5L286.236 177.366C286.145 178.35 285.694 179.267 284.969 179.94C284.245 180.613 283.298 180.996 282.309 181.016Z" fill="white"/>
<path d="M290.276 89.9171H167.117C166.134 89.9342 165.191 90.3113 164.467 90.9772C163.743 91.6431 163.289 92.5514 163.19 93.53L162.816 97.7412H293.208L293.574 93.53C293.625 93.0697 293.578 92.6038 293.435 92.1634C293.291 91.7231 293.056 91.3184 292.743 90.9764C292.431 90.6344 292.049 90.363 291.624 90.1803C291.198 89.9976 290.739 89.9079 290.276 89.9171Z" fill="#407BFF"/>
<path opacity="0.3" d="M290.276 89.9171H167.117C166.134 89.9342 165.191 90.3113 164.467 90.9772C163.743 91.6431 163.289 92.5514 163.19 93.53L162.816 97.7412H293.208L293.574 93.53C293.625 93.0697 293.578 92.6038 293.435 92.1634C293.291 91.7231 293.056 91.3184 292.743 90.9764C292.431 90.6344 292.049 90.363 291.624 90.1803C291.198 89.9976 290.739 89.9079 290.276 89.9171Z" fill="white"/>
<path d="M170.574 93.8292C170.524 94.2366 170.328 94.6123 170.023 94.8871C169.718 95.1619 169.324 95.3175 168.913 95.3252C168.722 95.3269 168.531 95.2885 168.355 95.2125C168.179 95.1364 168.021 95.0243 167.89 94.8835C167.76 94.7426 167.661 94.576 167.599 94.3945C167.536 94.2129 167.513 94.0203 167.53 93.8292C167.577 93.4217 167.77 93.0452 168.075 92.77C168.379 92.4948 168.773 92.3395 169.183 92.3332C169.375 92.3303 169.566 92.3679 169.743 92.4435C169.92 92.5191 170.08 92.631 170.211 92.772C170.342 92.913 170.442 93.08 170.505 93.2621C170.567 93.4442 170.591 93.6373 170.574 93.8292Z" fill="#407BFF"/>
<path d="M175.862 93.8291C175.813 94.2359 175.619 94.6114 175.315 94.8864C175.012 95.1613 174.619 95.3171 174.209 95.3251C174.016 95.3279 173.826 95.2903 173.648 95.2147C173.471 95.1391 173.312 95.0272 173.181 94.8862C173.05 94.7452 172.95 94.5782 172.887 94.3962C172.825 94.2141 172.801 94.0209 172.818 93.8291C172.866 93.4222 173.061 93.0467 173.364 92.7717C173.668 92.4968 174.061 92.341 174.471 92.3331C174.664 92.3291 174.855 92.3659 175.033 92.4411C175.21 92.5163 175.37 92.6281 175.502 92.7694C175.633 92.9107 175.733 93.0781 175.795 93.2607C175.857 93.4433 175.88 93.637 175.862 93.8291Z" fill="#407BFF"/>
<path d="M181.158 93.8292C181.108 94.2366 180.912 94.6123 180.607 94.8871C180.302 95.1619 179.908 95.3175 179.497 95.3252C179.306 95.3269 179.115 95.2885 178.939 95.2125C178.763 95.1364 178.605 95.0243 178.474 94.8835C178.344 94.7426 178.245 94.576 178.183 94.3945C178.12 94.2129 178.097 94.0203 178.114 93.8292C178.159 93.4211 178.352 93.0437 178.657 92.7682C178.961 92.4926 179.356 92.3379 179.767 92.3332C179.959 92.3303 180.15 92.3679 180.327 92.4435C180.504 92.5191 180.664 92.631 180.795 92.772C180.926 92.913 181.026 93.08 181.089 93.2621C181.151 93.4442 181.175 93.6373 181.158 93.8292Z" fill="#407BFF"/>
<path d="M215.738 106.769H213.494L212.97 107.809H211.818L214.414 102.94H215.528L217.279 107.809H216.097L215.738 106.769ZM215.454 105.909L214.848 104.047L213.913 105.909H215.454Z" fill="#263238"/>
<path d="M220.869 107.809L220.046 106.455H219.006L218.886 107.809H217.757L218.183 102.94H220.293C220.673 102.93 221.051 103.005 221.4 103.157C221.685 103.285 221.923 103.499 222.08 103.77C222.232 104.057 222.292 104.383 222.252 104.705C222.233 105.044 222.113 105.369 221.908 105.64C221.704 105.91 221.43 106.12 221.115 106.246L222.073 107.809H220.869ZM220.913 104.069C220.699 103.908 220.433 103.831 220.165 103.852H219.245L219.096 105.55H220.016C220.298 105.567 220.577 105.488 220.809 105.326C220.902 105.249 220.979 105.153 221.034 105.045C221.09 104.937 221.122 104.819 221.13 104.698C221.144 104.584 221.131 104.47 221.094 104.362C221.056 104.254 220.994 104.157 220.913 104.077V104.069Z" fill="#263238"/>
<path d="M224.167 103.86H222.604L222.686 102.94H226.934L226.852 103.86H225.289L224.945 107.809H223.815L224.167 103.86Z" fill="#263238"/>
<path d="M227.541 102.94H228.663L228.236 107.809H227.114L227.541 102.94Z" fill="#263238"/>
<path d="M230.399 107.57C230.027 107.364 229.725 107.051 229.531 106.672C229.334 106.269 229.254 105.818 229.3 105.371C229.336 104.906 229.497 104.459 229.763 104.077C230.023 103.695 230.376 103.386 230.788 103.179C231.214 102.962 231.686 102.851 232.164 102.858C232.552 102.851 232.936 102.925 233.294 103.074C233.611 103.217 233.886 103.439 234.094 103.718L233.346 104.383C233.209 104.203 233.031 104.057 232.827 103.958C232.623 103.859 232.399 103.81 232.172 103.815C231.882 103.811 231.597 103.88 231.342 104.017C231.095 104.142 230.888 104.334 230.743 104.57C230.584 104.809 230.491 105.085 230.474 105.371C230.44 105.647 230.484 105.926 230.601 106.179C230.705 106.412 230.881 106.605 231.102 106.732C231.344 106.87 231.617 106.939 231.895 106.934C232.137 106.933 232.375 106.881 232.596 106.782C232.816 106.683 233.013 106.538 233.174 106.358L233.832 107.024C233.582 107.306 233.27 107.526 232.92 107.667C232.548 107.82 232.148 107.897 231.746 107.892C231.276 107.907 230.811 107.796 230.399 107.57Z" fill="#263238"/>
<path d="M234.923 102.94H236.045L235.701 106.889H238.147L238.065 107.809H234.497L234.923 102.94Z" fill="#263238"/>
<path d="M242.554 106.904L242.471 107.809H238.731L239.158 102.94H242.838L242.756 103.845H240.198L240.1 104.899H242.344L242.269 105.775H240.025L239.928 106.904H242.554Z" fill="#263238"/>
<path d="M210.987 156.766H237.272C238.11 156.766 238.222 155.464 237.384 155.464H211.099C210.262 155.464 210.149 156.766 210.987 156.766Z" fill="#263238"/>
<path d="M210.516 162.144H232.956C233.794 162.144 233.914 160.843 233.069 160.843H210.629C209.783 160.843 209.671 162.144 210.509 162.144H210.516Z" fill="#263238"/>
<path d="M210.03 167.552H235.215C236.053 167.552 236.165 166.25 235.327 166.25H210.165C209.319 166.25 209.207 167.552 210.045 167.552H210.03Z" fill="#263238"/>
<path d="M209.573 172.9H233.105C233.943 172.9 234.063 171.591 233.218 171.591H209.693C208.848 171.591 208.736 172.9 209.573 172.9Z" fill="#263238"/>
<path d="M173.79 156.766H199.671C200.509 156.766 200.628 155.464 199.783 155.464H173.91C173.065 155.464 172.952 156.766 173.79 156.766Z" fill="#263238"/>
<path d="M173.318 162.144H199.199C200.044 162.144 200.157 160.843 199.319 160.843H173.438C172.593 160.843 172.481 162.144 173.318 162.144Z" fill="#263238"/>
<path d="M172.854 167.552H202.026C202.864 167.552 202.976 166.25 202.139 166.25H172.967C172.129 166.25 172.009 167.552 172.854 167.552Z" fill="#263238"/>
<path d="M172.384 172.9H196.095C196.941 172.9 197.053 171.591 196.215 171.591H172.496C171.658 171.591 171.538 172.9 172.384 172.9Z" fill="#263238"/>
<path d="M174.732 146.01H200.612C201.45 146.01 201.57 144.708 200.725 144.708H174.874C174.036 144.708 173.924 146.01 174.762 146.01H174.732Z" fill="#263238"/>
<path d="M174.26 151.388H202.34C203.178 151.388 203.297 150.086 202.459 150.086H174.379C173.534 150.086 173.422 151.388 174.26 151.388Z" fill="#263238"/>
<path d="M245.284 156.766H272.115C272.96 156.766 273.072 155.464 272.235 155.464H245.404C244.559 155.464 244.446 156.766 245.284 156.766Z" fill="#263238"/>
<path d="M244.813 162.144H268.898C269.736 162.144 269.848 160.843 269.01 160.843H244.932C244.087 160.843 243.975 162.144 244.813 162.144Z" fill="#263238"/>
<path d="M244.348 167.552H270.072C270.917 167.552 271.03 166.25 270.192 166.25H244.438C243.6 166.25 243.481 167.552 244.326 167.552H244.348Z" fill="#263238"/>
<path d="M243.877 172.9H268.501C269.346 172.9 269.458 171.591 268.621 171.591H243.989C243.151 171.591 243.032 172.9 243.877 172.9Z" fill="#263238"/>
<path d="M177.335 116.284H206.507C207.629 116.284 207.779 114.541 206.657 114.541H177.485C176.37 114.541 176.213 116.284 177.335 116.284Z" fill="#263238"/>
<path d="M176.864 121.662H203.298C204.42 121.662 204.577 119.919 203.455 119.919H177.013C175.899 119.919 175.742 121.662 176.864 121.662Z" fill="#263238"/>
<path d="M176.37 127.04H203.373C204.495 127.04 204.645 125.297 203.523 125.297H176.542C175.428 125.297 175.271 127.04 176.393 127.04H176.37Z" fill="#263238"/>
<path d="M175.921 132.396H198.503C199.625 132.396 199.775 130.653 198.653 130.653H176.078C174.956 130.653 174.799 132.396 175.921 132.396Z" fill="#263238"/>
<g opacity="0.2">
<path d="M177.336 116.284H206.508C207.63 116.284 207.78 114.541 206.658 114.541H177.486C176.371 114.541 176.214 116.284 177.336 116.284Z" fill="white"/>
<path d="M176.865 121.662H203.299C204.421 121.662 204.578 119.919 203.456 119.919H177.014C175.9 119.919 175.743 121.662 176.865 121.662Z" fill="white"/>
<path d="M176.371 127.04H203.374C204.496 127.04 204.646 125.297 203.524 125.297H176.543C175.429 125.297 175.272 127.04 176.394 127.04H176.371Z" fill="white"/>
<path d="M175.922 132.396H198.504C199.626 132.396 199.776 130.653 198.654 130.653H176.079C174.957 130.653 174.8 132.396 175.922 132.396Z" fill="white"/>
</g>
<g opacity="0.2">
<path d="M210.987 156.766H237.272C238.11 156.766 238.222 155.464 237.384 155.464H211.099C210.262 155.464 210.149 156.766 210.987 156.766Z" fill="white"/>
</g>
<g opacity="0.2">
<path d="M210.517 162.144H232.957C233.795 162.144 233.915 160.843 233.069 160.843H210.629C209.784 160.843 209.672 162.144 210.51 162.144H210.517Z" fill="white"/>
</g>
<g opacity="0.2">
<path d="M210.031 167.552H235.216C236.054 167.552 236.166 166.25 235.328 166.25H210.166C209.32 166.25 209.208 167.552 210.046 167.552H210.031Z" fill="white"/>
</g>
<g opacity="0.2">
<path d="M209.574 172.9H233.106C233.944 172.9 234.064 171.591 233.219 171.591H209.694C208.849 171.591 208.737 172.9 209.574 172.9Z" fill="white"/>
</g>
<g opacity="0.2">
<path d="M173.789 156.766H199.67C200.508 156.766 200.627 155.464 199.782 155.464H173.909C173.064 155.464 172.951 156.766 173.789 156.766Z" fill="white"/>
</g>
<g opacity="0.2">
<path d="M173.317 162.144H199.198C200.043 162.144 200.156 160.843 199.318 160.843H173.437C172.592 160.843 172.48 162.144 173.317 162.144Z" fill="white"/>
</g>
<g opacity="0.2">
<path d="M172.854 167.552H202.026C202.864 167.552 202.976 166.25 202.139 166.25H172.967C172.129 166.25 172.009 167.552 172.854 167.552Z" fill="white"/>
</g>
<g opacity="0.2">
<path d="M172.385 172.9H196.096C196.941 172.9 197.054 171.591 196.216 171.591H172.497C171.659 171.591 171.539 172.9 172.385 172.9Z" fill="white"/>
</g>
<g opacity="0.2">
<path d="M174.732 146.01H200.612C201.45 146.01 201.57 144.708 200.725 144.708H174.874C174.036 144.708 173.924 146.01 174.762 146.01H174.732Z" fill="white"/>
</g>
<g opacity="0.2">
<path d="M174.261 151.388H202.341C203.178 151.388 203.298 150.086 202.46 150.086H174.38C173.535 150.086 173.423 151.388 174.261 151.388Z" fill="white"/>
</g>
<g opacity="0.2">
<path d="M245.283 156.766H272.114C272.959 156.766 273.071 155.464 272.234 155.464H245.403C244.558 155.464 244.445 156.766 245.283 156.766Z" fill="white"/>
</g>
<g opacity="0.2">
<path d="M244.812 162.144H268.897C269.735 162.144 269.847 160.843 269.009 160.843H244.931C244.086 160.843 243.974 162.144 244.812 162.144Z" fill="white"/>
</g>
<g opacity="0.2">
<path d="M244.348 167.552H270.072C270.917 167.552 271.03 166.25 270.192 166.25H244.438C243.6 166.25 243.481 167.552 244.326 167.552H244.348Z" fill="white"/>
</g>
<g opacity="0.2">
<path d="M243.877 172.9H268.501C269.346 172.9 269.458 171.591 268.621 171.591H243.989C243.151 171.591 243.032 172.9 243.877 172.9Z" fill="white"/>
</g>
<path opacity="0.5" d="M210.936 150.737H272.646L275.937 113.09H214.234L210.936 150.737Z" fill="white"/>
<path d="M232.216 125.297L214.354 150.737H245.627L232.216 125.297Z" fill="#407BFF"/>
<path opacity="0.2" d="M232.216 125.297L214.354 150.737H245.627L232.216 125.297Z" fill="white"/>
<path d="M253.557 119.022L231.289 150.737H270.275L253.557 119.022Z" fill="#407BFF"/>
<path opacity="0.6" d="M253.557 119.022L231.289 150.737H270.275L253.557 119.022Z" fill="white"/>
<path d="M246.001 120.787C245.899 121.817 245.422 122.772 244.66 123.473C243.899 124.174 242.907 124.57 241.872 124.587C241.386 124.595 240.904 124.5 240.457 124.307C240.011 124.114 239.61 123.829 239.283 123.469C238.955 123.11 238.708 122.685 238.557 122.222C238.406 121.76 238.356 121.271 238.409 120.787C238.515 119.76 238.994 118.806 239.754 118.108C240.515 117.409 241.505 117.013 242.538 116.995C243.024 116.985 243.506 117.08 243.953 117.272C244.4 117.464 244.8 117.748 245.128 118.107C245.456 118.466 245.703 118.891 245.854 119.353C246.004 119.815 246.055 120.304 246.001 120.787Z" fill="#407BFF"/>
<path opacity="0.2" d="M246.001 120.787C245.899 121.817 245.422 122.772 244.66 123.473C243.899 124.174 242.907 124.57 241.872 124.587C241.386 124.595 240.904 124.5 240.457 124.307C240.011 124.114 239.61 123.829 239.283 123.469C238.955 123.11 238.708 122.685 238.557 122.222C238.406 121.76 238.356 121.271 238.409 120.787C238.515 119.76 238.994 118.806 239.754 118.108C240.515 117.409 241.505 117.013 242.538 116.995C243.024 116.985 243.506 117.08 243.953 117.272C244.4 117.464 244.8 117.748 245.128 118.107C245.456 118.466 245.703 118.891 245.854 119.353C246.004 119.815 246.055 120.304 246.001 120.787Z" fill="white"/>
<path d="M245.455 189.057H194.591C194.113 189.066 193.639 188.972 193.201 188.782C192.763 188.592 192.37 188.311 192.05 187.956C191.729 187.602 191.489 187.183 191.344 186.728C191.199 186.272 191.153 185.791 191.21 185.317L191.569 181.166C191.665 180.156 192.128 179.216 192.872 178.527C193.615 177.837 194.587 177.445 195.601 177.426H246.465C246.943 177.417 247.417 177.511 247.855 177.7C248.293 177.89 248.686 178.172 249.006 178.526C249.327 178.881 249.567 179.3 249.712 179.755C249.857 180.21 249.903 180.691 249.846 181.166L249.479 185.317C249.384 186.325 248.922 187.264 248.18 187.953C247.438 188.643 246.468 189.036 245.455 189.057Z" fill="#407BFF"/>
<g opacity="0.8">
<path d="M208.355 181.053C208.642 181.178 208.882 181.393 209.035 181.666C209.193 181.951 209.253 182.279 209.207 182.601C209.186 182.939 209.069 183.263 208.871 183.536C208.67 183.809 208.399 184.022 208.085 184.15C207.723 184.299 207.333 184.373 206.941 184.367H205.961L205.841 185.706H204.712L205.138 180.836H207.248C207.628 180.827 208.006 180.901 208.355 181.053ZM207.786 183.26C207.881 183.184 207.959 183.088 208.014 182.98C208.07 182.872 208.102 182.753 208.108 182.631C208.123 182.518 208.113 182.402 208.076 182.293C208.04 182.184 207.979 182.085 207.898 182.003C207.682 181.845 207.417 181.768 207.15 181.786H206.23L206.081 183.477H207.001C207.279 183.492 207.555 183.416 207.786 183.26Z" fill="white"/>
<path d="M210.298 185.212C210.112 184.985 209.978 184.72 209.903 184.437C209.828 184.153 209.815 183.856 209.865 183.567L210.104 180.836H211.226L210.994 183.522C210.919 184.397 211.241 184.831 211.967 184.831C212.119 184.839 212.272 184.815 212.415 184.761C212.558 184.707 212.688 184.624 212.797 184.517C213.03 184.237 213.16 183.886 213.163 183.522L213.403 180.836H214.517L214.278 183.567C214.248 184.191 213.98 184.779 213.53 185.212C213.066 185.613 212.466 185.819 211.854 185.788C211.569 185.807 211.283 185.766 211.015 185.667C210.747 185.567 210.503 185.413 210.298 185.212Z" fill="white"/>
<path d="M219.619 183.619C219.759 183.842 219.817 184.106 219.784 184.367C219.772 184.565 219.713 184.757 219.611 184.928C219.51 185.098 219.369 185.242 219.2 185.347C218.746 185.605 218.226 185.725 217.704 185.691H215.184L215.61 180.821H217.996C218.466 180.786 218.934 180.907 219.327 181.165C219.471 181.268 219.585 181.408 219.654 181.57C219.724 181.732 219.748 181.91 219.724 182.085C219.712 182.315 219.634 182.535 219.5 182.721C219.368 182.91 219.19 183.062 218.983 183.163C219.243 183.233 219.469 183.395 219.619 183.619ZM216.672 181.689L216.575 182.833H217.697C217.921 182.846 218.144 182.794 218.34 182.684C218.414 182.638 218.475 182.576 218.519 182.502C218.564 182.427 218.589 182.344 218.594 182.257C218.608 182.177 218.598 182.094 218.566 182.018C218.535 181.943 218.482 181.878 218.415 181.831C218.227 181.722 218.011 181.672 217.794 181.689H216.672ZM218.392 184.681C218.472 184.635 218.538 184.57 218.585 184.491C218.632 184.413 218.659 184.324 218.662 184.232C218.662 183.828 218.415 183.626 217.817 183.626H216.5L216.395 184.831H217.712C217.945 184.853 218.181 184.812 218.392 184.711V184.681Z" fill="white"/>
<path d="M220.951 180.836H222.08L221.736 184.786H224.175L224.092 185.706H220.502L220.951 180.836Z" fill="white"/>
<path d="M225.155 180.836H226.284L225.858 185.706H224.729L225.155 180.836Z" fill="white"/>
<path d="M227.503 185.631C227.201 185.555 226.919 185.418 226.673 185.227L227.129 184.382C227.345 184.541 227.585 184.664 227.84 184.748C228.115 184.838 228.403 184.883 228.692 184.883C228.95 184.906 229.209 184.857 229.44 184.741C229.514 184.707 229.577 184.655 229.624 184.589C229.671 184.524 229.701 184.447 229.71 184.367C229.715 184.313 229.708 184.258 229.689 184.208C229.669 184.157 229.638 184.112 229.598 184.075C229.498 183.992 229.384 183.929 229.261 183.888C229.077 183.829 228.889 183.779 228.7 183.739C228.401 183.667 228.107 183.579 227.817 183.477C227.59 183.389 227.392 183.242 227.241 183.05C227.092 182.831 227.026 182.566 227.054 182.302C227.084 182.03 227.187 181.772 227.354 181.554C227.548 181.307 227.807 181.118 228.102 181.008C228.468 180.866 228.86 180.797 229.253 180.806C229.556 180.806 229.858 180.844 230.151 180.919C230.416 180.984 230.669 181.093 230.899 181.24L230.473 182.093C230.077 181.848 229.622 181.716 229.156 181.712C228.91 181.697 228.665 181.749 228.446 181.861C228.372 181.902 228.31 181.96 228.265 182.031C228.219 182.101 228.191 182.182 228.184 182.265C228.174 182.344 228.19 182.423 228.231 182.491C228.272 182.559 228.334 182.611 228.408 182.639C228.648 182.746 228.899 182.826 229.156 182.878C229.457 182.951 229.754 183.038 230.046 183.14C230.269 183.228 230.465 183.372 230.615 183.559C230.771 183.775 230.838 184.043 230.802 184.307C230.78 184.581 230.676 184.842 230.503 185.055C230.307 185.301 230.049 185.49 229.755 185.601C229.388 185.744 228.996 185.812 228.603 185.803C228.23 185.8 227.859 185.742 227.503 185.631Z" fill="white"/>
<path d="M236.345 180.836L235.918 185.706H234.789L234.968 183.709H232.724L232.552 185.706H231.423L231.849 180.836H232.979L232.807 182.759H235.051L235.215 180.836H236.345Z" fill="white"/>
</g>
<path d="M33.4193 206.725H61.6713L55.8219 166.901C54.3484 156.848 45.4696 148.852 35.8354 148.852H28.5124C18.8707 148.852 11.9667 156.871 12.9615 166.924L15.2055 189.364L33.4193 206.725Z" fill="#407BFF"/>
<path opacity="0.1" d="M33.4193 206.725H61.6713L55.8219 166.901C54.3484 156.848 45.4696 148.852 35.8354 148.852H28.5124C18.8707 148.852 11.9667 156.871 12.9615 166.924L15.2055 189.364L33.4193 206.725Z" fill="white"/>
<path d="M69.9981 206.725H25.2229L21.2884 166.901C20.301 156.848 27.1976 148.852 36.8468 148.852H44.1622C53.8114 148.852 62.6827 156.871 64.1563 166.924L69.9981 206.725Z" fill="#407BFF"/>
<path opacity="0.3" d="M69.9981 206.725H25.2229L21.2884 166.901C20.301 156.848 27.1976 148.852 36.8468 148.852H44.1622C53.8114 148.852 62.6827 156.871 64.1563 166.924L69.9981 206.725Z" fill="white"/>
<path d="M62.9509 220.406C72.989 220.338 83.0421 215.918 89.4375 208.086C94.6828 201.777 97.5892 193.851 97.6656 185.646C97.6656 182.467 94.8531 179.423 91.5918 179.572H72.7347C71.1328 179.601 69.6046 180.25 68.4718 181.383C67.3389 182.516 66.6898 184.044 66.6609 185.646C66.6609 186.327 66.661 187.008 66.5862 187.696C66.5862 188.077 66.3169 189.566 66.4515 188.907C66.2097 190.263 65.8849 191.601 65.4791 192.917C65.322 193.395 65.1425 193.874 64.963 194.345C65.0677 194.046 64.5666 195.213 64.417 195.512C63.7907 196.725 63.0887 197.896 62.3151 199.02C62.3151 199.073 62.2029 199.185 62.1281 199.297C62.0533 199.409 61.8663 199.634 61.8064 199.701C61.395 200.187 60.9762 200.666 60.5348 201.13C60.0935 201.594 59.525 202.155 58.9939 202.626L58.246 203.254L57.6401 203.733C57.3035 203.965 56.7126 204.376 56.5854 204.481C56.0468 204.832 55.5008 205.169 54.9398 205.483C54.3788 205.797 53.9749 205.992 53.4887 206.231C52.4864 205.708 51.4766 205.221 50.4967 204.608C49.9506 204.264 49.442 203.86 48.9109 203.516C50.0404 204.264 48.5818 203.239 48.2676 202.962C47.1985 202.013 46.1986 200.988 45.2756 199.896L45.0288 199.581C45.1784 199.761 44.5725 198.968 44.4827 198.833C44.0714 198.243 43.6824 197.629 43.3233 197.001C42.9643 196.373 42.5754 195.737 42.2986 195.086C42.1565 194.794 42.0293 194.495 41.8947 194.203C42.523 195.512 41.8947 194.069 41.775 193.852C41.2708 192.46 40.8732 191.032 40.5857 189.581C40.5258 189.252 40.4884 188.915 40.4136 188.593C40.7278 190.037 40.4136 188.481 40.4136 188.204C40.3388 187.359 40.3089 186.506 40.3014 185.654C40.3014 182.475 37.5264 179.43 34.2277 179.58H15.3257C13.7227 179.605 12.1923 180.253 11.0586 181.387C9.92498 182.52 9.27702 184.051 9.25195 185.654C9.32376 192.816 11.5743 199.787 15.7044 205.64C19.8344 211.492 25.6482 215.948 32.3726 218.416C36.2352 219.848 40.3346 220.533 44.4528 220.436L62.9509 220.406Z" fill="#407BFF"/>
<path opacity="0.4" d="M62.9509 220.406C72.989 220.338 83.0421 215.918 89.4375 208.086C94.6828 201.777 97.5892 193.851 97.6656 185.646C97.6656 182.467 94.8531 179.423 91.5918 179.572H72.7347C71.1328 179.601 69.6046 180.25 68.4718 181.383C67.3389 182.516 66.6898 184.044 66.6609 185.646C66.6609 186.327 66.661 187.008 66.5862 187.696C66.5862 188.077 66.3169 189.566 66.4515 188.907C66.2097 190.263 65.8849 191.601 65.4791 192.917C65.322 193.395 65.1425 193.874 64.963 194.345C65.0677 194.046 64.5666 195.213 64.417 195.512C63.7907 196.725 63.0887 197.896 62.3151 199.02C62.3151 199.073 62.2029 199.185 62.1281 199.297C62.0533 199.409 61.8663 199.634 61.8064 199.701C61.395 200.187 60.9762 200.666 60.5348 201.13C60.0935 201.594 59.525 202.155 58.9939 202.626L58.246 203.254L57.6401 203.733C57.3035 203.965 56.7126 204.376 56.5854 204.481C56.0468 204.832 55.5008 205.169 54.9398 205.483C54.3788 205.797 53.9749 205.992 53.4887 206.231C52.4864 205.708 51.4766 205.221 50.4967 204.608C49.9506 204.264 49.442 203.86 48.9109 203.516C50.0404 204.264 48.5818 203.239 48.2676 202.962C47.1985 202.013 46.1986 200.988 45.2756 199.896L45.0288 199.581C45.1784 199.761 44.5725 198.968 44.4827 198.833C44.0714 198.243 43.6824 197.629 43.3233 197.001C42.9643 196.373 42.5754 195.737 42.2986 195.086C42.1565 194.794 42.0293 194.495 41.8947 194.203C42.523 195.512 41.8947 194.069 41.775 193.852C41.2708 192.46 40.8732 191.032 40.5857 189.581C40.5258 189.252 40.4884 188.915 40.4136 188.593C40.7278 190.037 40.4136 188.481 40.4136 188.204C40.3388 187.359 40.3089 186.506 40.3014 185.654C40.3014 182.475 37.5264 179.43 34.2277 179.58H15.3257C13.7227 179.605 12.1923 180.253 11.0586 181.387C9.92498 182.52 9.27702 184.051 9.25195 185.654C9.32376 192.816 11.5743 199.787 15.7044 205.64C19.8344 211.492 25.6482 215.948 32.3726 218.416C36.2352 219.848 40.3346 220.533 44.4528 220.436L62.9509 220.406Z" fill="white"/>
<path d="M85.5474 185.631C85.5474 186.312 85.5474 186.993 85.4801 187.681C85.4801 188.107 85.1435 189.925 85.4053 188.571C85.1526 190.035 84.8053 191.482 84.3655 192.902C84.1636 193.523 83.9392 194.129 83.6998 194.734C84.186 193.493 83.4904 195.138 83.3109 195.482C82.6849 196.696 81.9803 197.868 81.2015 198.991C81.0968 199.148 80.4984 199.985 80.9696 199.35C81.4409 198.714 80.82 199.522 80.7003 199.671C80.2815 200.157 79.8626 200.636 79.4213 201.1C78.9799 201.564 78.4115 202.125 77.8804 202.596L77.1324 203.224C77.0052 203.336 75.9356 204.152 76.6237 203.651C77.1847 203.239 75.6738 204.294 75.4718 204.399C74.9333 204.75 74.3872 205.087 73.8262 205.401C73.2652 205.715 72.6818 205.999 72.1058 206.284C71.9338 206.373 70.9763 206.792 71.7169 206.471C72.4574 206.149 71.2456 206.65 71.0885 206.702C69.8533 207.152 68.5887 207.517 67.3037 207.794C66.8923 207.877 65.0597 208.154 66.4509 207.989C65.6132 208.094 64.7679 208.161 63.9152 208.191C62.5522 208.23 61.1881 208.182 59.8311 208.049C59.5095 208.049 58.7091 207.802 59.9433 208.049C59.6217 207.981 59.2851 207.937 58.9635 207.877C58.2155 207.735 57.5123 207.563 56.7943 207.361C56.0762 207.159 55.5376 206.987 54.9243 206.77C54.6176 206.665 54.3184 206.53 54.0042 206.433C53.1665 206.171 54.8794 206.897 54.1164 206.471C52.9121 205.812 51.6705 205.259 50.5111 204.518C49.965 204.174 49.4564 203.77 48.9253 203.426C50.0548 204.174 48.5962 203.149 48.282 202.873C47.2129 201.923 46.213 200.898 45.29 199.806L44.6841 199.058C45.5967 200.195 44.6168 198.916 44.4971 198.744C44.0857 198.153 43.6968 197.539 43.3377 196.911C42.9787 196.283 42.5897 195.647 42.313 194.996C42.1709 194.704 42.0437 194.405 41.9091 194.114C42.5374 195.423 41.9091 193.979 41.7894 193.762C41.2852 192.371 40.8876 190.943 40.6001 189.491C40.5402 189.162 40.5028 188.825 40.428 188.504C40.7422 189.947 40.428 188.391 40.428 188.115C40.3532 187.269 40.3233 186.417 40.3158 185.564C40.3158 182.385 37.5407 179.341 34.2421 179.49C32.6397 179.515 31.1102 180.163 29.9777 181.297C28.8452 182.431 28.1989 183.962 28.1758 185.564C28.225 192.739 30.462 199.728 34.5879 205.598C38.7138 211.468 44.5323 215.94 51.2665 218.416C64.4687 223.353 80.5059 219.037 89.4145 208.124C94.6598 201.814 97.5662 193.888 97.6425 185.684C97.6425 182.505 94.8301 179.46 91.5688 179.61C89.9669 179.639 88.4387 180.288 87.3059 181.421C86.173 182.554 85.5238 184.082 85.495 185.684L85.5474 185.631Z" fill="#407BFF"/>
<g opacity="0.6">
<path d="M85.5474 185.631C85.5474 186.312 85.5474 186.993 85.4801 187.681C85.4801 188.107 85.1435 189.925 85.4053 188.571C85.1526 190.035 84.8053 191.482 84.3655 192.902C84.1636 193.523 83.9392 194.129 83.6998 194.734C84.186 193.493 83.4904 195.138 83.3109 195.482C82.6849 196.696 81.9803 197.868 81.2015 198.991C81.0968 199.148 80.4984 199.985 80.9696 199.35C81.4409 198.714 80.82 199.522 80.7003 199.671C80.2815 200.157 79.8626 200.636 79.4213 201.1C78.9799 201.564 78.4115 202.125 77.8804 202.596L77.1324 203.224C77.0052 203.336 75.9356 204.152 76.6237 203.651C77.1847 203.239 75.6738 204.294 75.4718 204.399C74.9333 204.75 74.3872 205.087 73.8262 205.401C73.2652 205.715 72.6818 205.999 72.1058 206.284C71.9338 206.373 70.9763 206.792 71.7169 206.471C72.4574 206.149 71.2456 206.65 71.0885 206.702C69.8533 207.152 68.5887 207.517 67.3037 207.794C66.8923 207.877 65.0597 208.154 66.4509 207.989C65.6132 208.094 64.7679 208.161 63.9152 208.191C62.5522 208.23 61.1881 208.182 59.8311 208.049C59.5095 208.049 58.7091 207.802 59.9433 208.049C59.6217 207.981 59.2851 207.937 58.9635 207.877C58.2155 207.735 57.5123 207.563 56.7943 207.361C56.0762 207.159 55.5376 206.987 54.9243 206.77C54.6176 206.665 54.3184 206.53 54.0042 206.433C53.1665 206.171 54.8794 206.897 54.1164 206.471C52.9121 205.812 51.6705 205.259 50.5111 204.518C49.965 204.174 49.4564 203.77 48.9253 203.426C50.0548 204.174 48.5962 203.149 48.282 202.873C47.2129 201.923 46.213 200.898 45.29 199.806L44.6841 199.058C45.5967 200.195 44.6168 198.916 44.4971 198.744C44.0857 198.153 43.6968 197.539 43.3377 196.911C42.9787 196.283 42.5897 195.647 42.313 194.996C42.1709 194.704 42.0437 194.405 41.9091 194.114C42.5374 195.423 41.9091 193.979 41.7894 193.762C41.2852 192.371 40.8876 190.943 40.6001 189.491C40.5402 189.162 40.5028 188.825 40.428 188.504C40.7422 189.947 40.428 188.391 40.428 188.115C40.3532 187.269 40.3233 186.417 40.3158 185.564C40.3158 182.385 37.5407 179.341 34.2421 179.49C32.6397 179.515 31.1102 180.163 29.9777 181.297C28.8452 182.431 28.1989 183.962 28.1758 185.564C28.225 192.739 30.462 199.728 34.5879 205.598C38.7138 211.468 44.5323 215.94 51.2665 218.416C64.4687 223.353 80.5059 219.037 89.4145 208.124C94.6598 201.814 97.5662 193.888 97.6425 185.684C97.6425 182.505 94.8301 179.46 91.5688 179.61C89.9669 179.639 88.4387 180.288 87.3059 181.421C86.173 182.554 85.5238 184.082 85.495 185.684L85.5474 185.631Z" fill="white"/>
</g>
<path d="M55.2771 258.561L54.5814 258.15V220.406C54.5795 219.973 54.406 219.558 54.099 219.252C53.792 218.947 53.3765 218.775 52.9433 218.775H48.3356C47.9032 218.775 47.4884 218.947 47.1826 219.253C46.8768 219.559 46.705 219.973 46.705 220.406V258.15L46.0019 258.561C41.4862 261.178 36.3584 262.554 31.1391 262.548C30.0652 262.548 29.0351 262.974 28.275 263.733C27.5149 264.492 27.0869 265.521 27.085 266.595H74.209C74.209 266.063 74.104 265.536 73.9002 265.044C73.6964 264.553 73.3976 264.107 73.0211 263.731C72.6445 263.355 72.1975 263.057 71.7057 262.854C71.2139 262.651 70.6869 262.547 70.1548 262.548C64.9305 262.556 59.7972 261.181 55.2771 258.561Z" fill="#407BFF"/>
<path opacity="0.2" d="M54.5805 224.445V220.406C54.5786 219.973 54.4051 219.558 54.0981 219.252C53.7911 218.947 53.3756 218.775 52.9424 218.775H48.3347C47.9023 218.775 47.4875 218.947 47.1817 219.253C46.8759 219.559 46.7041 219.973 46.7041 220.406V224.445H54.5805Z" fill="black"/>
<path d="M58.9347 114.444C58.9347 114.444 50.1607 123.794 55.3742 130.848L55.2471 128.454C55.2471 128.454 55.9951 132.748 67.2151 133.548C78.4351 134.348 75.5403 127.055 75.5403 127.055C75.5403 127.055 76.2883 129.195 77.9638 129.434C77.9638 129.434 75.8545 127.085 76.6399 122.65C77.4253 118.214 80.6566 115.918 75.5403 112.178C75.5403 112.178 75.9592 108.138 66.9383 109.186C57.9174 110.233 58.9347 114.444 58.9347 114.444Z" fill="#2E353A"/>
<path d="M81.0447 138.582C79.4515 138.388 78.4342 136.114 78.6511 134.363C78.868 132.613 80.4164 130.623 82.0097 130.855C82.1721 130.869 82.3299 130.917 82.4728 130.996C82.6158 131.074 82.7408 131.182 82.8399 131.311C83.3037 131.91 83.1616 132.89 82.9895 134.139C82.9895 134.378 82.9222 134.633 82.8848 134.887C82.8474 135.141 82.825 135.403 82.8025 135.635C82.6679 136.884 82.5557 137.879 81.9648 138.335C81.8372 138.438 81.6894 138.514 81.5309 138.556C81.3724 138.599 81.2068 138.607 81.0447 138.582ZM81.875 131.932C81.2467 131.858 79.9377 132.86 79.7357 134.498C79.5338 136.136 80.5511 137.423 81.1794 137.49C81.2617 137.49 81.2766 137.49 81.2916 137.49C81.5234 137.303 81.6282 136.316 81.7179 135.523C81.7179 135.276 81.7703 135.022 81.8077 134.775C81.8451 134.528 81.875 134.251 81.9124 134.027C82.0171 133.241 82.1592 132.254 81.9797 132.022C81.9722 131.962 81.9573 131.947 81.875 131.932Z" fill="#407BFF"/>
<g opacity="0.5">
<path d="M81.0447 138.582C79.4515 138.388 78.4342 136.114 78.6511 134.363C78.868 132.613 80.4164 130.623 82.0097 130.855C82.1721 130.869 82.3299 130.917 82.4728 130.996C82.6158 131.074 82.7408 131.182 82.8399 131.311C83.3037 131.91 83.1616 132.89 82.9895 134.139C82.9895 134.378 82.9222 134.633 82.8848 134.887C82.8474 135.141 82.825 135.403 82.8025 135.635C82.6679 136.884 82.5557 137.879 81.9648 138.335C81.8372 138.438 81.6894 138.514 81.5309 138.556C81.3724 138.599 81.2068 138.607 81.0447 138.582ZM81.875 131.932C81.2467 131.858 79.9377 132.86 79.7357 134.498C79.5338 136.136 80.5511 137.423 81.1794 137.49C81.2617 137.49 81.2766 137.49 81.2916 137.49C81.5234 137.303 81.6282 136.316 81.7179 135.523C81.7179 135.276 81.7703 135.022 81.8077 134.775C81.8451 134.528 81.875 134.251 81.9124 134.027C82.0171 133.241 82.1592 132.254 81.9797 132.022C81.9722 131.962 81.9573 131.947 81.875 131.932Z" fill="black"/>
</g>
<path d="M93.702 149.637C93.702 149.637 73.4611 133.391 71.7482 139.367C69.4668 147.356 92.5949 154.17 92.5949 154.17C92.5949 154.17 94.7192 154.537 93.702 149.637Z" fill="#407BFF"/>
<path opacity="0.2" d="M91.4494 152.45C93.4616 153.572 93.1698 151.246 92.347 148.575C91.0306 147.558 88.8763 145.95 86.4453 144.282C86.9839 146.443 88.4126 150.767 91.4494 152.45Z" fill="black"/>
<path opacity="0.2" d="M75.7867 139.734L74.6123 141.604V145.561C76.6604 147.225 78.9034 148.634 81.2919 149.757C77.1181 147.438 76.0559 140.198 76.0559 140.198L75.7867 139.734Z" fill="black"/>
<path d="M51.5515 137.34C51.2486 137.334 50.9476 137.389 50.6667 137.503C50.3857 137.616 50.1306 137.785 49.9167 138C49.7028 138.214 49.5346 138.47 49.4222 138.751C49.3098 139.033 49.2555 139.334 49.2627 139.637C49.4422 146.077 49.8386 163.992 48.9335 171.015C48.2379 176.461 43.9893 192.401 43.9893 192.401L74.0813 178.981C74.0813 178.981 73.6475 168.973 74.0813 165.675C74.4777 162.623 76.9985 156.856 77.2453 153.796C77.4473 151.268 76.2954 146.242 76.2206 143.706C76.2206 142.793 76.2954 140.886 76.3702 139.607C76.3803 139.44 76.3569 139.273 76.3016 139.115C76.2462 138.957 76.1599 138.812 76.0478 138.688C75.9356 138.564 75.7999 138.464 75.6484 138.393C75.497 138.322 75.333 138.282 75.1659 138.275L51.5515 137.34Z" fill="#407BFF"/>
<path d="M118.819 236.48L120.869 245.322L116.575 246.309L114.002 238.081L118.819 236.48Z" fill="#B97964"/>
<path d="M122.2 245.292C122.176 245.291 122.151 245.284 122.13 245.271C122.109 245.258 122.092 245.239 122.081 245.217C122.068 245.197 122.062 245.173 122.062 245.149C122.062 245.126 122.068 245.102 122.081 245.082C122.148 245.022 123.637 243.661 124.504 243.698C124.664 243.707 124.816 243.773 124.931 243.885C125.001 243.946 125.05 244.027 125.071 244.117C125.093 244.206 125.085 244.301 125.05 244.386C124.908 244.693 124.302 244.947 123.696 245.09C123.205 245.2 122.704 245.267 122.2 245.292ZM122.537 245.052C123.472 244.955 124.706 244.663 124.863 244.304C124.863 244.259 124.901 244.177 124.781 244.057C124.749 244.02 124.708 243.991 124.663 243.971C124.618 243.952 124.569 243.943 124.519 243.945C124.443 243.93 124.364 243.93 124.287 243.945C123.631 244.197 123.029 244.573 122.515 245.052H122.537Z" fill="#407BFF"/>
<path d="M122.133 245.299C122.114 245.291 122.096 245.277 122.083 245.26C122.07 245.243 122.062 245.223 122.058 245.202C121.948 244.496 122.063 243.774 122.388 243.137C122.461 243.043 122.552 242.963 122.656 242.904C122.76 242.845 122.875 242.807 122.993 242.793C123.315 242.748 123.45 242.891 123.495 243.018C123.727 243.549 122.792 244.873 122.26 245.262H122.216C122.206 245.274 122.193 245.283 122.179 245.29C122.164 245.296 122.149 245.299 122.133 245.299ZM122.964 243.055C122.817 243.084 122.686 243.167 122.597 243.287C122.327 243.793 122.217 244.37 122.283 244.94C122.814 244.439 123.397 243.444 123.285 243.108C123.285 243.108 123.24 243.003 123.031 243.033H122.964V243.055Z" fill="#407BFF"/>
<path d="M121.541 244.716L116.193 245.935C116.096 245.957 116.009 246.011 115.947 246.088C115.884 246.166 115.85 246.262 115.849 246.361V250.931C115.849 251.13 115.927 251.32 116.068 251.46C116.208 251.601 116.398 251.679 116.597 251.679H116.754C118.669 251.208 120.359 250.715 122.738 250.183C125.573 249.54 124.929 250.041 128.265 249.331C130.278 248.904 130.128 246.541 129.253 246.623C125.251 247.012 124.578 245.935 122.76 244.88C122.387 244.681 121.954 244.622 121.541 244.716Z" fill="#263238"/>
<path opacity="0.1" d="M120.293 242.838L118.819 236.48L114.002 238.081L115.954 244.334L120.293 242.838Z" fill="black"/>
<path d="M44.3866 199.716C41.7312 193.335 43.5937 183.021 64.3806 179.131C81.4425 175.93 92.5354 177.201 98.3772 178.562C99.9375 178.926 101.387 179.659 102.605 180.701C103.822 181.742 104.771 183.061 105.371 184.546C108.303 191.735 113.016 203.852 120.009 239.539L114.729 241.783C114.729 241.783 108.954 224.535 105.887 217.496C103.12 211.153 97.173 201.13 95.3254 191.892C95.3254 191.892 87.1572 194.757 77.2462 199.477C64.822 205.363 49.6525 212.387 44.3866 199.716Z" fill="#263238"/>
<path d="M113.673 240.407L114.959 243.526L120.869 241.327L120.255 238.081L113.673 240.407Z" fill="#263238"/>
<path opacity="0.2" d="M113.673 240.407L114.959 243.526L120.869 241.327L120.255 238.081L113.673 240.407Z" fill="white"/>
<path opacity="0.1" d="M95.1592 191.929L95.3237 191.869C96.3476 196.387 97.8757 200.775 99.8791 204.952C100.994 200.12 102.325 193.283 101.338 191.959C99.7669 189.865 95.1592 191.959 95.1592 191.959V191.929Z" fill="black"/>
<path d="M80.7234 252.682L79.377 261.553H83.6331L86.0042 253.041L80.7234 252.682Z" fill="#B97964"/>
<path d="M84.733 261.733C84.7088 261.729 84.686 261.719 84.6674 261.703C84.6489 261.687 84.6353 261.666 84.6283 261.643C84.6247 261.618 84.6284 261.593 84.6391 261.57C84.6497 261.548 84.6668 261.529 84.6881 261.516C84.7629 261.471 86.4833 260.424 87.3286 260.626C87.4863 260.662 87.6234 260.758 87.7101 260.895C87.7642 260.97 87.7934 261.06 87.7934 261.153C87.7934 261.246 87.7642 261.336 87.7101 261.411C87.2843 261.739 86.7489 261.892 86.2141 261.837C85.7183 261.844 85.2229 261.809 84.733 261.733ZM85.1145 261.568C86.0495 261.658 87.3136 261.613 87.538 261.284C87.538 261.239 87.5979 261.164 87.538 261.022C87.5139 260.978 87.4795 260.941 87.4378 260.914C87.3961 260.887 87.3483 260.87 87.2987 260.865C87.2243 260.854 87.1486 260.854 87.0743 260.865C86.3816 260.97 85.716 261.209 85.1145 261.568Z" fill="#407BFF"/>
<path d="M84.6655 261.733C84.6474 261.722 84.6327 261.707 84.6234 261.688C84.614 261.67 84.6105 261.648 84.6132 261.628C84.6448 260.909 84.9071 260.219 85.3612 259.661C85.5428 259.503 85.7791 259.422 86.0194 259.436C86.3485 259.436 86.4533 259.623 86.4682 259.765C86.5879 260.326 85.4135 261.448 84.8226 261.725C84.8143 261.729 84.8054 261.73 84.7964 261.73C84.7874 261.73 84.7785 261.729 84.7703 261.725L84.6655 261.733ZM85.9222 259.668C85.7708 259.67 85.6252 259.726 85.5108 259.825C85.1513 260.272 84.9349 260.817 84.8899 261.388C85.5033 261 86.2663 260.124 86.2289 259.788C86.2289 259.788 86.2289 259.676 85.9895 259.661L85.9222 259.668Z" fill="#407BFF"/>
<path d="M84.2013 261.052L78.7185 261.202C78.6182 261.205 78.5221 261.242 78.446 261.308C78.3699 261.373 78.3182 261.462 78.2996 261.561L77.4244 266.049C77.391 266.239 77.4322 266.434 77.5395 266.594C77.6469 266.755 77.812 266.867 78.0004 266.909C78.0525 266.916 78.1054 266.916 78.1575 266.909C80.1322 266.819 81.8975 266.662 84.3434 266.602C87.2457 266.527 86.5201 266.894 89.931 266.849C91.988 266.849 92.3021 264.47 91.427 264.381C87.4252 263.984 86.9764 262.795 85.3981 261.389C85.0526 261.136 84.6277 261.017 84.2013 261.052Z" fill="#263238"/>
<path opacity="0.1" d="M84.2907 259.189L86.0036 253.041L80.7227 252.682L79.7354 259.189H84.2907Z" fill="black"/>
<path d="M99.5499 194.772C99.1091 193.973 98.4775 193.295 97.7114 192.799C96.9454 192.303 96.0686 192.004 95.1591 191.929C93.9773 192.356 86.3477 195.116 77.2071 199.454C71.0137 202.401 64.1321 205.625 58.1406 206.545L87.7689 204.802C84.8592 213.255 84.1561 226.449 83.2809 233.705C82.4282 240.744 79.8476 255.749 79.8476 255.749H85.5249C85.5249 255.749 102.056 199.394 99.5499 194.772Z" fill="#263238"/>
<path opacity="0.4" d="M99.5499 194.772C99.1091 193.973 98.4775 193.295 97.7114 192.799C96.9454 192.303 96.0686 192.004 95.1591 191.929C93.9773 192.356 86.3477 195.116 77.2071 199.454C71.0137 202.401 64.1321 205.625 58.1406 206.545L87.7689 204.802C84.8592 213.255 84.1561 226.449 83.2809 233.705C82.4282 240.744 79.8476 255.749 79.8476 255.749H85.5249C85.5249 255.749 102.056 199.394 99.5499 194.772Z" fill="black"/>
<path d="M79.385 254.844L78.9512 258.217L85.6458 258.112L86.3489 254.881L79.385 254.844Z" fill="#263238"/>
<path opacity="0.2" d="M79.385 254.844L78.9512 258.217L85.6458 258.112L86.3489 254.881L79.385 254.844Z" fill="white"/>
<path d="M90.0591 137.4L88.8548 135.119L84.1873 131.192C83.955 130.999 83.6626 130.893 83.3607 130.893C83.0589 130.893 82.7665 130.999 82.5342 131.192L80.178 133.144C79.9974 133.292 79.8608 133.487 79.783 133.707C79.7052 133.927 79.6892 134.164 79.7367 134.393L80.2378 136.862C80.2972 137.127 80.4393 137.366 80.6438 137.545C80.8482 137.724 81.1042 137.833 81.3748 137.856C82.8708 137.969 85.6683 138.058 86.3341 137.236L87.0297 139.278L90.0591 137.4Z" fill="#B97964"/>
<path d="M76.5788 129.337H79.5708C80.0251 129.337 80.4608 129.517 80.782 129.838C81.1033 130.16 81.2837 130.595 81.2837 131.05V137.034C81.2837 137.795 80.9811 138.526 80.4424 139.065C79.9038 139.603 79.1732 139.906 78.4114 139.906H77.7307C76.9689 139.906 76.2383 139.603 75.6997 139.065C75.161 138.526 74.8584 137.795 74.8584 137.034V131.05C74.8584 130.824 74.903 130.601 74.9895 130.392C75.0761 130.184 75.2029 129.995 75.3628 129.836C75.5226 129.677 75.7123 129.551 75.921 129.465C76.1297 129.379 76.3532 129.336 76.5788 129.337Z" fill="#407BFF"/>
<path opacity="0.4" d="M76.5788 129.337H79.5708C80.0251 129.337 80.4608 129.517 80.782 129.838C81.1033 130.16 81.2837 130.595 81.2837 131.05V137.034C81.2837 137.795 80.9811 138.526 80.4424 139.065C79.9038 139.603 79.1732 139.906 78.4114 139.906H77.7307C76.9689 139.906 76.2383 139.603 75.6997 139.065C75.161 138.526 74.8584 137.795 74.8584 137.034V131.05C74.8584 130.824 74.903 130.601 74.9895 130.392C75.0761 130.184 75.2029 129.995 75.3628 129.836C75.5226 129.677 75.7123 129.551 75.921 129.465C76.1297 129.379 76.3532 129.336 76.5788 129.337Z" fill="black"/>
<path d="M61.8739 127.055C62.2179 130.249 62.3376 136.031 59.959 137.954C62.2694 140.097 64.8493 141.93 67.6335 143.406C71.3735 140.826 69.7129 138.058 69.7129 138.058C66.7209 137.22 66.6012 134.318 67.3866 131.947L61.8739 127.055Z" fill="#B97964"/>
<path opacity="0.1" d="M67.3873 131.947L63.6473 128.611L62.8096 129.022C62.8096 129.022 63.7595 133.241 67.0133 134.64C66.9713 133.727 67.0981 132.814 67.3873 131.947Z" fill="black"/>
<path d="M60.0863 119.448C60.2434 124.721 60.191 126.928 62.7567 129.741C66.6163 133.929 73.0491 132.59 74.4853 127.384C75.7644 122.702 75.3081 114.878 70.2292 112.611C69.1121 112.109 67.8852 111.9 66.6648 112.004C65.4443 112.108 64.2706 112.522 63.2549 113.207C62.2392 113.891 61.4151 114.824 60.8606 115.916C60.3061 117.008 60.0396 118.224 60.0863 119.448Z" fill="#B97964"/>
<path d="M64.7386 110.016C63.4969 111.332 65.0602 114.676 69.7801 115.476C73.3331 116.089 76.8711 120.877 77.4546 116.718C78.0081 112.948 69.6006 109.126 64.7386 110.016Z" fill="#2E353A"/>
<path d="M67.0275 111.721C69.0246 114.145 66.6236 117.167 65.1051 118.453C63.5867 119.74 61.4474 120.697 62.3151 123.308C63.1828 125.918 62.7115 132.329 58.5078 130.212C54.304 128.095 56.2264 120.705 58.3133 117.578C60.4002 114.451 64.6414 108.841 67.0275 111.721Z" fill="#2E353A"/>
<path d="M71.5377 122.029C71.8862 123.02 72.3694 123.959 72.9738 124.819C72.7509 124.967 72.4983 125.066 72.2335 125.107C71.9687 125.148 71.6981 125.132 71.4404 125.058L71.5377 122.029Z" fill="#A24E3F"/>
<path d="M66.1227 118.992C66.0877 118.985 66.0561 118.967 66.033 118.94C66.0133 118.921 65.9976 118.898 65.9869 118.873C65.9762 118.848 65.9707 118.821 65.9707 118.794C65.9707 118.766 65.9762 118.74 65.9869 118.714C65.9976 118.689 66.0133 118.667 66.033 118.648C66.3016 118.363 66.6346 118.146 67.0042 118.016C67.3738 117.886 67.7692 117.846 68.1573 117.9C68.2105 117.912 68.2567 117.945 68.2861 117.991C68.3154 118.037 68.3256 118.093 68.3144 118.147C68.3035 118.2 68.2725 118.247 68.2279 118.277C68.1832 118.308 68.1285 118.32 68.075 118.311C67.7537 118.274 67.4282 118.314 67.1252 118.427C66.8222 118.54 66.5504 118.723 66.3322 118.962C66.3034 118.986 66.2687 119.001 66.2317 119.007C66.1947 119.012 66.157 119.007 66.1227 118.992Z" fill="#2E353A"/>
<path d="M75.1963 119.366C75.1639 119.353 75.1337 119.335 75.1065 119.313C74.8733 119.09 74.5904 118.924 74.281 118.831C73.9716 118.737 73.6444 118.718 73.3263 118.775C73.3002 118.783 73.2729 118.785 73.2458 118.783C73.2188 118.78 73.1926 118.771 73.1688 118.758C73.1451 118.745 73.1242 118.727 73.1076 118.705C73.0909 118.684 73.0788 118.659 73.0719 118.633C73.0583 118.579 73.0663 118.522 73.0943 118.475C73.1224 118.427 73.1681 118.393 73.2215 118.378C73.6076 118.303 74.006 118.322 74.3835 118.433C74.7609 118.543 75.1063 118.743 75.3907 119.014C75.4104 119.033 75.4261 119.056 75.4368 119.081C75.4475 119.106 75.453 119.133 75.453 119.16C75.453 119.187 75.4475 119.214 75.4368 119.239C75.4261 119.265 75.4104 119.287 75.3907 119.306C75.3649 119.337 75.3307 119.36 75.2922 119.372C75.2537 119.384 75.2126 119.384 75.1738 119.373L75.1963 119.366Z" fill="#2E353A"/>
<path d="M68.5391 121.228C68.5391 121.647 68.741 121.976 69.0253 122.014C69.3095 122.051 69.5414 121.692 69.5489 121.266C69.5563 120.839 69.3469 120.518 69.0701 120.473C68.7934 120.428 68.554 120.795 68.5391 121.228Z" fill="#2E353A"/>
<path d="M73.3779 121.385C73.3779 121.812 73.5799 122.133 73.8566 122.178C74.1334 122.223 74.3728 121.849 74.3877 121.43C74.4027 121.011 74.1858 120.682 73.909 120.682C73.6323 120.682 73.3929 120.952 73.3779 121.385Z" fill="#2E353A"/>
<path d="M73.79 120.645L74.8298 120.383C74.8298 120.383 74.2688 121.176 73.79 120.645Z" fill="#2E353A"/>
<path d="M68.9502 120.488L69.9824 120.226C69.9824 120.226 69.4065 121.011 68.9502 120.488Z" fill="#2E353A"/>
<path d="M58.3964 137.542C58.0425 137.308 57.6276 137.183 57.2033 137.183C56.779 137.183 56.3641 137.308 56.0102 137.542C56.0102 137.542 54.9182 136.869 54.417 137.452C54.417 137.452 61.5454 151.059 60.5132 160.349C59.9069 165.385 59.5922 170.453 59.5707 175.526C59.5707 175.526 62.1438 174.336 63.4304 174.778C64.3138 175.024 65.2577 174.925 66.0708 174.501C66.0708 174.501 65.3976 164.208 65.5024 159.399C65.7492 148.351 59.5857 137.939 59.5857 137.939L58.3964 137.542Z" fill="#407BFF"/>
<path opacity="0.3" d="M58.3964 137.542C58.0425 137.308 57.6276 137.183 57.2033 137.183C56.779 137.183 56.3641 137.308 56.0102 137.542C56.0102 137.542 54.9182 136.869 54.417 137.452C54.417 137.452 61.5454 151.059 60.5132 160.349C59.9069 165.385 59.5922 170.453 59.5707 175.526C59.5707 175.526 62.1438 174.336 63.4304 174.778C64.3138 175.024 65.2577 174.925 66.0708 174.501C66.0708 174.501 65.3976 164.208 65.5024 159.399C65.7492 148.351 59.5857 137.939 59.5857 137.939L58.3964 137.542Z" fill="black"/>
<path d="M69.2048 126.921C69.5109 127.187 69.8668 127.391 70.2519 127.519C70.6371 127.647 71.0439 127.698 71.4488 127.669C71.4754 127.665 71.5003 127.653 71.5193 127.634C71.5383 127.615 71.5503 127.591 71.5535 127.564C71.5545 127.55 71.5528 127.537 71.5483 127.524C71.5439 127.512 71.5369 127.5 71.5278 127.49C71.5187 127.48 71.5076 127.473 71.4953 127.467C71.483 127.462 71.4697 127.459 71.4562 127.459C71.0117 127.488 70.5667 127.413 70.1555 127.242C69.7443 127.071 69.3781 126.807 69.0851 126.472C69.0662 126.456 69.0424 126.447 69.0178 126.447C68.9931 126.447 68.9693 126.456 68.9504 126.472C68.932 126.492 68.9219 126.519 68.9219 126.547C68.9219 126.574 68.932 126.601 68.9504 126.621C69.0178 126.741 69.1075 126.831 69.2048 126.921Z" fill="#2E353A"/>
<path d="M86.4307 137.946C86.4307 137.946 89.4227 156.713 93.6937 153.931C97.3963 151.53 91.6592 139.846 89.9537 136.428C89.9131 136.348 89.8527 136.281 89.7783 136.232C89.704 136.183 89.6182 136.154 89.5293 136.148C89.4405 136.142 89.3516 136.159 89.2713 136.198C89.191 136.236 89.122 136.295 89.0711 136.368C88.7574 136.793 88.3625 137.151 87.9092 137.422C87.456 137.693 86.9534 137.871 86.4307 137.946Z" fill="#407BFF"/>
<path d="M60.9172 135.874C60.9172 135.874 64.8143 141.432 68.315 140.362C70.9778 139.562 68.1205 137.198 68.1205 137.198C68.3924 137.134 68.6748 137.13 68.9486 137.185C69.2223 137.241 69.4807 137.355 69.7062 137.52C69.7062 137.52 70.2448 137.258 70.9778 138.163C70.9778 138.163 73.8053 144.611 69.4145 145.516C62.877 146.862 58.3965 137.52 58.3965 137.52C58.3965 137.52 59.2118 136.517 59.9598 136.772C59.9598 136.824 59.6307 135.971 60.9172 135.874Z" fill="#407BFF"/>
<path opacity="0.3" d="M60.9172 135.874C60.9172 135.874 64.8143 141.432 68.315 140.362C70.9778 139.562 68.1205 137.198 68.1205 137.198C68.3924 137.134 68.6748 137.13 68.9486 137.185C69.2223 137.241 69.4807 137.355 69.7062 137.52C69.7062 137.52 70.2448 137.258 70.9778 138.163C70.9778 138.163 73.8053 144.611 69.4145 145.516C62.877 146.862 58.3965 137.52 58.3965 137.52C58.3965 137.52 59.2118 136.517 59.9598 136.772C59.9598 136.824 59.6307 135.971 60.9172 135.874Z" fill="black"/>
<path opacity="0.2" d="M74.6424 164.717L64.5818 164.246L50.9308 138.238C50.8764 138.266 50.826 138.301 50.7812 138.343C49.9184 139.074 49.3806 140.118 49.2852 141.245C49.2852 141.888 49.2852 142.584 49.33 143.347C49.8985 147.491 53.07 154.492 60.9016 167.006C61.3368 167.703 61.9488 168.272 62.6754 168.656C63.4019 169.039 64.2171 169.224 65.038 169.19L74.59 168.494C74.59 167.313 74.59 166.056 74.6424 164.717Z" fill="black"/>
<path opacity="0.2" d="M61.3125 138.657C61.3125 138.657 66.7205 143.212 69.1366 142.225C70.6999 141.581 70.0791 139.554 70.0791 139.554C70.0791 139.554 72.1735 143.407 69.2263 143.93C65.9127 144.514 61.3125 138.657 61.3125 138.657Z" fill="black"/>
<path opacity="0.2" d="M58.8301 138.38L61.4481 142.068C60.7638 141.688 60.1735 141.159 59.7204 140.521C59.2673 139.883 58.9631 139.151 58.8301 138.38Z" fill="black"/>
<path d="M70.3788 138.088C70.7847 137.9 71.2297 137.81 71.677 137.827C72.1244 137.844 72.5613 137.967 72.9519 138.186C72.9519 138.186 73.9168 143.1 74.5601 146.316C75.2034 149.533 75.4652 153.587 74.8368 160.072C74.5436 164.53 74.5286 169.002 74.792 173.461C74.3966 173.224 73.9441 173.098 73.483 173.098C73.0218 173.098 72.5693 173.224 72.174 173.461C71.8065 173.704 71.3581 173.791 70.9265 173.704C70.4949 173.617 70.1152 173.363 69.8701 172.997C69.8701 172.997 70.2516 166.363 71.3661 160.027C72.2713 154.061 72.2234 147.989 71.224 142.038L70.3788 138.088Z" fill="#407BFF"/>
<path opacity="0.3" d="M70.3788 138.088C70.7847 137.9 71.2297 137.81 71.677 137.827C72.1244 137.844 72.5613 137.967 72.9519 138.186C72.9519 138.186 73.9168 143.1 74.5601 146.316C75.2034 149.533 75.4652 153.587 74.8368 160.072C74.5436 164.53 74.5286 169.002 74.792 173.461C74.3966 173.224 73.9441 173.098 73.483 173.098C73.0218 173.098 72.5693 173.224 72.174 173.461C71.8065 173.704 71.3581 173.791 70.9265 173.704C70.4949 173.617 70.1152 173.363 69.8701 172.997C69.8701 172.997 70.2516 166.363 71.3661 160.027C72.2713 154.061 72.2234 147.989 71.224 142.038L70.3788 138.088Z" fill="black"/>
<path opacity="0.2" d="M71.209 139.278C71.209 139.278 72.2337 140.534 71.7251 143.407C71.7251 143.407 73.5876 141.783 71.209 139.278Z" fill="black"/>
<path d="M59.0174 125.305C59.4872 126.205 60.2939 126.882 61.2614 127.19C62.5554 127.579 63.2286 126.442 62.892 125.193C62.5928 124.086 61.5531 122.537 60.2441 122.687C60.0153 122.716 59.7947 122.791 59.5951 122.906C59.3954 123.022 59.2209 123.176 59.0816 123.36C58.9423 123.544 58.8411 123.754 58.7838 123.977C58.7266 124.201 58.7144 124.433 58.7481 124.662C58.7902 124.893 58.8821 125.112 59.0174 125.305Z" fill="#B97964"/>
<path d="M87.9424 162.219H89.8797L95.7291 161.119C96.0478 161.062 96.3758 161.089 96.6812 161.197C96.9865 161.304 97.2589 161.489 97.4719 161.732L101.885 166.639L99.3269 166.722L96.9483 165.899C96.9483 165.899 93.4925 167.672 88.3463 165.345L87.9424 162.219Z" fill="#B97964"/>
<path d="M66.2345 160.536C66.2345 160.536 54.3338 134.356 50.2721 138.328C47.4597 141.08 48.3498 146.803 61.8811 165.862C62.3503 166.519 62.9845 167.042 63.7198 167.377C64.4551 167.712 65.2657 167.847 66.0699 167.769L88.8615 166.273C88.5718 164.748 88.5718 163.183 88.8615 161.658L66.2345 160.536Z" fill="#407BFF"/>
<path d="M128.23 258.561L127.535 258.15V178.286C127.533 177.854 127.36 177.44 127.055 177.135C126.749 176.829 126.336 176.657 125.904 176.655H121.289C120.856 176.655 120.442 176.827 120.136 177.133C119.83 177.438 119.658 177.853 119.658 178.286V258.15L118.955 258.561C114.44 261.179 109.312 262.555 104.092 262.548C103.018 262.548 101.988 262.974 101.228 263.733C100.468 264.491 100.04 265.521 100.038 266.595H147.162C147.162 266.063 147.057 265.537 146.854 265.046C146.651 264.555 146.353 264.109 145.977 263.733C145.601 263.357 145.155 263.059 144.664 262.856C144.173 262.653 143.647 262.548 143.115 262.548C137.889 262.557 132.753 261.181 128.23 258.561Z" fill="#407BFF"/>
<path opacity="0.2" d="M127.534 182.325V178.286C127.532 177.854 127.359 177.44 127.054 177.135C126.749 176.829 126.335 176.657 125.903 176.655H121.288C120.855 176.655 120.441 176.827 120.135 177.133C119.829 177.438 119.657 177.853 119.657 178.286V182.325H127.534Z" fill="black"/>
<path d="M86.0342 173.992H161.148V176.184C161.148 176.872 160.875 177.532 160.388 178.019C159.901 178.506 159.241 178.779 158.553 178.779H88.6297C87.9414 178.779 87.2812 178.506 86.7944 178.019C86.3076 177.532 86.0342 176.872 86.0342 176.184V173.992Z" fill="#407BFF"/>
<path opacity="0.3" d="M86.0342 173.992H161.148V176.184C161.148 176.872 160.875 177.532 160.388 178.019C159.901 178.506 159.241 178.779 158.553 178.779H88.6297C87.9414 178.779 87.2812 178.506 86.7944 178.019C86.3076 177.532 86.0342 176.872 86.0342 176.184V173.992Z" fill="white"/>
<path d="M163.834 169.212H83.3497C82.0277 169.212 80.9561 170.284 80.9561 171.606C80.9561 172.928 82.0277 174 83.3497 174H163.834C165.156 174 166.228 172.928 166.228 171.606C166.228 170.284 165.156 169.212 163.834 169.212Z" fill="#407BFF"/>
<path opacity="0.4" d="M163.834 169.212H83.3497C82.0277 169.212 80.9561 170.284 80.9561 171.606C80.9561 172.928 82.0277 174 83.3497 174H163.834C165.156 174 166.228 172.928 166.228 171.606C166.228 170.284 165.156 169.212 163.834 169.212Z" fill="white"/>
<path opacity="0.2" d="M124.363 177.5V173.992H86.0351V177.5C86.0101 177.811 86.1082 178.119 86.3082 178.359C86.5083 178.598 86.7943 178.749 87.1047 178.779H123.263C123.419 178.768 123.572 178.726 123.712 178.655C123.852 178.585 123.977 178.487 124.079 178.368C124.181 178.25 124.259 178.112 124.307 177.963C124.356 177.814 124.375 177.657 124.363 177.5Z" fill="black"/>
<path opacity="0.2" d="M129.442 172.294V170.918C129.475 170.504 129.345 170.094 129.08 169.775C128.814 169.456 128.434 169.254 128.021 169.212H82.3928C81.9785 169.252 81.5964 169.453 81.3292 169.773C81.0619 170.092 80.9308 170.503 80.9641 170.918V172.294C80.9308 172.708 81.0622 173.119 81.3296 173.437C81.5971 173.754 81.9791 173.954 82.3928 173.992H128.021C128.433 173.952 128.813 173.752 129.079 173.434C129.345 173.117 129.475 172.707 129.442 172.294Z" fill="black"/>
<path d="M134.153 169.16H109.133C108.486 169.16 107.866 168.903 107.409 168.446C106.951 167.989 106.694 167.368 106.694 166.722H136.614C136.614 167.044 136.551 167.363 136.427 167.66C136.303 167.957 136.121 168.227 135.892 168.454C135.663 168.681 135.392 168.86 135.093 168.981C134.795 169.102 134.476 169.163 134.153 169.16Z" fill="#263238"/>
<path opacity="0.2" d="M134.153 169.16H109.133C108.486 169.16 107.866 168.903 107.409 168.446C106.951 167.989 106.694 167.368 106.694 166.722H136.614C136.614 167.044 136.551 167.363 136.427 167.66C136.303 167.957 136.121 168.227 135.892 168.454C135.663 168.681 135.392 168.86 135.093 168.981C134.795 169.102 134.476 169.163 134.153 169.16Z" fill="white"/>
<path d="M116.673 169.16H91.6524C91.0056 169.16 90.3854 168.903 89.9281 168.446C89.4708 167.989 89.2139 167.368 89.2139 166.722H119.134C119.134 167.044 119.07 167.363 118.946 167.66C118.822 167.957 118.641 168.227 118.412 168.454C118.183 168.681 117.911 168.86 117.613 168.981C117.315 169.102 116.995 169.163 116.673 169.16Z" fill="#263238"/>
<path opacity="0.5" d="M116.673 169.16H91.6524C91.0056 169.16 90.3854 168.903 89.9281 168.446C89.4708 167.989 89.2139 167.368 89.2139 166.722H119.134C119.134 167.044 119.07 167.363 118.946 167.66C118.822 167.957 118.641 168.227 118.412 168.454C118.183 168.681 117.911 168.86 117.613 168.981C117.315 169.102 116.995 169.163 116.673 169.16Z" fill="white"/>
<path d="M134.356 168.42H119.097C119.008 168.418 118.92 168.395 118.841 168.354C118.761 168.312 118.693 168.253 118.641 168.18C118.589 168.108 118.554 168.024 118.54 167.936C118.525 167.847 118.532 167.757 118.559 167.672L126.921 143.773C127.034 143.452 127.243 143.174 127.521 142.977C127.798 142.781 128.129 142.674 128.47 142.674H143.721C143.811 142.674 143.9 142.696 143.98 142.737C144.06 142.778 144.13 142.837 144.183 142.91C144.236 142.983 144.271 143.067 144.286 143.156C144.301 143.245 144.294 143.336 144.267 143.422L135.905 167.32C135.792 167.641 135.582 167.919 135.305 168.116C135.028 168.313 134.696 168.419 134.356 168.42Z" fill="#263238"/>
<path opacity="0.5" d="M134.356 168.42H119.097C119.008 168.418 118.92 168.395 118.841 168.354C118.761 168.312 118.693 168.253 118.641 168.18C118.589 168.108 118.554 168.024 118.54 167.936C118.525 167.847 118.532 167.757 118.559 167.672L126.921 143.773C127.034 143.452 127.243 143.174 127.521 142.977C127.798 142.781 128.129 142.674 128.47 142.674H143.721C143.811 142.674 143.9 142.696 143.98 142.737C144.06 142.778 144.13 142.837 144.183 142.91C144.236 142.983 144.271 143.067 144.286 143.156C144.301 143.245 144.294 143.336 144.267 143.422L135.905 167.32C135.792 167.641 135.582 167.919 135.305 168.116C135.028 168.313 134.696 168.419 134.356 168.42Z" fill="white"/>
<path d="M135.089 168.42H119.837C119.747 168.419 119.658 168.397 119.578 168.356C119.498 168.315 119.429 168.256 119.375 168.183C119.322 168.111 119.287 168.026 119.272 167.938C119.258 167.849 119.264 167.758 119.291 167.672L127.654 143.773C127.766 143.452 127.976 143.174 128.253 142.977C128.53 142.781 128.862 142.674 129.202 142.674H144.461C144.551 142.676 144.638 142.698 144.718 142.74C144.797 142.781 144.866 142.841 144.919 142.913C144.972 142.985 145.007 143.069 145.022 143.157C145.038 143.245 145.032 143.336 145.007 143.422L136.637 167.32C136.524 167.641 136.315 167.919 136.038 168.116C135.76 168.313 135.429 168.419 135.089 168.42Z" fill="#263238"/>
<path opacity="0.7" d="M135.089 168.42H119.837C119.747 168.419 119.658 168.397 119.578 168.356C119.498 168.315 119.429 168.256 119.375 168.183C119.322 168.111 119.287 168.026 119.272 167.938C119.258 167.849 119.264 167.758 119.291 167.672L127.654 143.773C127.766 143.452 127.976 143.174 128.253 142.977C128.53 142.781 128.862 142.674 129.202 142.674H144.461C144.551 142.676 144.638 142.698 144.718 142.74C144.797 142.781 144.866 142.841 144.919 142.913C144.972 142.985 145.007 143.069 145.022 143.157C145.038 143.245 145.032 143.336 145.007 143.422L136.637 167.32C136.524 167.641 136.315 167.919 136.038 168.116C135.76 168.313 135.429 168.419 135.089 168.42Z" fill="white"/>
<path d="M133.383 155.539C133.189 156.452 132.553 157.192 131.97 157.192C131.386 157.192 131.064 156.444 131.259 155.539C131.453 154.634 132.089 153.879 132.673 153.879C133.256 153.879 133.578 154.619 133.383 155.539Z" fill="white"/>
</svg>
