<svg width="366" height="364" viewBox="0 0 366 364" fill="none" xmlns="http://www.w3.org/2000/svg">
<rect width="366" height="364" fill="#F5F5F5"/>
<g clip-path="url(#clip0_0_1)">
<rect width="1440" height="1870" transform="translate(-758 -634)" fill="white"/>
<rect x="-758" y="-212" width="1440" height="1023" fill="url(#paint0_linear_0_1)"/>
<path d="M45.2917 0H44.4875V108.991H45.2917V0Z" fill="url(#paint1_linear_0_1)"/>
<path d="M82.7348 145.477L79.695 152.168H10.0767L7.04492 145.477L36.6792 124.962H53.1006L82.7348 145.477Z" fill="#EBEBEB"/>
<path d="M55.1593 105.195L53.1005 124.962H36.6791L34.6204 105.195H55.1593Z" fill="#DBDBDB"/>
<path d="M82.7348 145.477L79.687 152.168H10.0767L7.03687 145.477H82.7348Z" fill="#DBDBDB"/>
<path d="M126.555 0H125.751V87.4069H126.555V0Z" fill="url(#paint2_linear_0_1)"/>
<path d="M163.998 123.885L160.958 130.584H91.3394L88.3076 123.885L117.942 103.37H134.363L163.998 123.885Z" fill="#EBEBEB"/>
<path d="M136.422 83.6113L134.364 103.37H117.942L115.884 83.6113H136.422Z" fill="#DBDBDB"/>
<path d="M163.998 123.893L160.95 130.583H91.3396L88.2998 123.893H163.998Z" fill="#DBDBDB"/>
<path d="M20.877 179.607L12.9397 192.401L16.8802 194.814C17.4324 195.173 17.8748 195.678 18.1586 196.272C18.4424 196.867 18.5566 197.528 18.4886 198.183C18.424 198.913 18.3999 199.646 18.4162 200.379C18.4387 201.046 18.2764 201.706 17.9471 202.286C17.6178 202.867 17.1345 203.345 16.5505 203.668L12.5295 205.847L19.6707 219.148L23.6916 216.969C24.2637 216.662 24.9092 216.519 25.5574 216.554C26.2056 216.59 26.8316 216.803 27.3668 217.17C28.0236 217.629 28.7055 218.05 29.4094 218.433C29.9811 218.747 30.454 219.215 30.775 219.783C31.096 220.351 31.2524 220.997 31.2269 221.649L31.0821 226.257L46.1364 226.724L46.2732 222.1C46.2943 221.446 46.4965 220.812 46.8572 220.267C47.2178 219.721 47.7228 219.287 48.3158 219.012C48.6696 218.843 49.0154 218.666 49.3612 218.481C49.707 218.296 50.0448 218.103 50.3745 217.902C50.9296 217.561 51.5684 217.38 52.2201 217.38C52.8718 217.38 53.5107 217.561 54.0657 217.902L58.0143 220.315L65.9435 207.52L61.995 205.067C61.4421 204.709 60.9991 204.204 60.7153 203.609C60.4314 203.015 60.3176 202.353 60.3866 201.698C60.451 200.97 60.4752 200.24 60.459 199.51C60.4372 198.842 60.6008 198.182 60.9315 197.601C61.2622 197.021 61.7472 196.543 62.3327 196.221L66.3537 194.042L59.2366 180.773L55.1674 182.952C54.5771 183.261 53.9126 183.4 53.248 183.353C52.5835 183.306 51.945 183.075 51.4039 182.687C50.8007 182.269 50.1735 181.883 49.5382 181.537C48.9524 181.231 48.4636 180.768 48.1268 180.2C47.7901 179.632 47.6188 178.98 47.6322 178.32L47.8172 173.704L32.7709 173.229L32.6261 177.854C32.599 178.514 32.3891 179.154 32.02 179.702C31.6509 180.25 31.1369 180.684 30.5352 180.958C30.1975 181.111 29.8678 181.279 29.5381 181.456C29.2083 181.633 28.8867 181.818 28.573 182.011C28.0082 182.358 27.3582 182.542 26.6953 182.542C26.0323 182.542 25.3823 182.358 24.8175 182.011L20.877 179.607ZM32.2482 189.965C34.3424 188.462 36.8546 187.653 39.432 187.652C42.0094 187.65 44.5225 188.456 46.6185 189.956C48.7145 191.456 50.288 193.575 51.1182 196.015C51.9483 198.455 51.9933 201.094 51.2468 203.561C50.5004 206.028 49 208.199 46.9564 209.769C44.9128 211.34 42.4286 212.231 39.8526 212.317C37.2767 212.404 34.7383 211.681 32.5941 210.251C30.4499 208.821 28.8075 206.755 27.8975 204.343C26.9385 201.802 26.8451 199.015 27.6318 196.415C28.4184 193.816 30.0411 191.548 32.2482 189.965Z" fill="#EBEBEB"/>
<path d="M350.995 54.6848C350.658 54.4872 350.382 54.1999 350.199 53.8548C350.016 53.5097 349.932 53.1205 349.958 52.7306C349.958 52.5135 349.958 52.2963 349.958 52.0792C349.958 51.8621 349.958 51.6369 349.958 51.4198C349.932 51.0299 350.016 50.6406 350.199 50.2956C350.382 49.9505 350.658 49.6631 350.995 49.4656L353.351 48.1065L348.928 40.4265L346.54 41.8178C346.201 42.0126 345.813 42.1084 345.423 42.0941C345.032 42.0799 344.652 41.9563 344.328 41.7374C343.958 41.5042 343.58 41.279 343.186 41.0779C342.838 40.9032 342.545 40.6358 342.34 40.3052C342.134 39.9746 342.023 39.5936 342.02 39.2042V36.4619H333.174V39.172C333.165 39.5578 333.049 39.9336 332.841 40.2583C332.633 40.5831 332.339 40.8443 331.992 41.0136C331.598 41.2146 331.188 41.4398 330.85 41.673C330.526 41.892 330.147 42.0156 329.756 42.0298C329.365 42.044 328.978 41.9483 328.639 41.7535L326.282 40.3944L321.851 48.0743L324.216 49.4415C324.559 49.6383 324.84 49.9288 325.025 50.279C325.21 50.6292 325.292 51.0248 325.261 51.4198C325.261 51.6369 325.261 51.854 325.261 52.0712C325.261 52.2883 325.261 52.5054 325.261 52.7225C325.287 53.1146 325.203 53.506 325.018 53.8528C324.833 54.1995 324.555 54.4877 324.216 54.6848L321.851 56.0438L326.282 63.7238L328.631 62.3647C328.97 62.1705 329.356 62.0745 329.747 62.0872C330.137 62.1 330.516 62.2212 330.842 62.4371C331.212 62.6814 331.596 62.9043 331.992 63.1046C332.339 63.2797 332.631 63.5474 332.835 63.8781C333.04 64.2088 333.149 64.5896 333.15 64.9783V67.6884H341.996V64.9703C341.999 64.5809 342.11 64.1999 342.315 63.8693C342.521 63.5386 342.814 63.2712 343.162 63.0965C343.557 62.8945 343.941 62.6717 344.312 62.4291C344.636 62.2129 345.014 62.0916 345.404 62.0789C345.793 62.0661 346.178 62.1623 346.516 62.3567L348.872 63.7158L353.295 56.0358L350.995 54.6848ZM337.613 59.341C336.182 59.341 334.783 58.9165 333.592 58.1212C332.402 57.3259 331.474 56.1956 330.927 54.8731C330.379 53.5505 330.235 52.0953 330.515 50.6913C330.794 49.2873 331.483 47.9977 332.496 46.9855C333.508 45.9733 334.797 45.284 336.201 45.0047C337.605 44.7255 339.061 44.8688 340.383 45.4166C341.706 45.9644 342.836 46.8921 343.631 48.0823C344.427 49.2725 344.851 50.6718 344.851 52.1033C344.85 53.0551 344.661 53.9974 344.295 54.8762C343.93 55.7549 343.394 56.5529 342.72 57.2245C342.045 57.896 341.245 58.4279 340.365 58.7897C339.484 59.1515 338.541 59.3361 337.589 59.3329L337.613 59.341Z" fill="#EBEBEB"/>
<path d="M151.492 256.422C151.178 256.238 150.916 255.975 150.733 255.659C150.549 255.344 150.451 254.986 150.447 254.621C150.447 254.259 150.447 253.905 150.447 253.544C150.408 253.181 150.43 252.814 150.511 252.458C150.6 252.102 150.784 251.777 151.042 251.517C151.315 251.278 151.618 251.075 151.943 250.914L153.817 249.82V249.86L149.345 242.204H149.45L146.989 243.652C146.536 243.878 146.019 243.94 145.525 243.829C145.061 243.684 144.619 243.473 144.215 243.202L143.603 242.856C143.378 242.738 143.174 242.583 143 242.398C142.644 242.027 142.428 241.543 142.389 241.03V238.176L142.574 238.36L133.728 238.441L134.001 238.176V241.038C133.976 241.449 133.846 241.847 133.623 242.193C133.401 242.539 133.094 242.823 132.731 243.017L132.128 243.379L131.525 243.732C131.291 243.879 131.036 243.987 130.769 244.054C130.227 244.173 129.661 244.108 129.16 243.869L126.667 242.446L127.15 242.317L122.751 250.013L122.606 249.474L125.099 250.906C125.45 251.147 125.734 251.472 125.927 251.851C126.119 252.23 126.214 252.652 126.201 253.077V253.785V254.484C126.205 254.757 126.167 255.028 126.088 255.289C125.921 255.832 125.572 256.3 125.099 256.616L122.606 258.047L122.743 257.54L127.134 265.236L126.683 265.116L129.184 263.708C129.686 263.473 130.253 263.414 130.793 263.54C131.051 263.607 131.298 263.713 131.525 263.853L132.136 264.215L132.739 264.569C132.973 264.698 133.185 264.863 133.366 265.059C133.728 265.455 133.944 265.963 133.977 266.499V269.37L133.76 269.153L142.606 269.241L142.478 269.37V266.515C142.516 266.015 142.726 265.543 143.073 265.18C143.437 264.86 143.843 264.589 144.279 264.376C144.681 264.112 145.116 263.904 145.574 263.757C146.053 263.642 146.558 263.702 146.997 263.926L149.466 265.357H149.41L153.865 257.693L151.492 256.422ZM151.492 256.422L153.849 257.774L149.45 265.462V265.502L146.973 264.094C146.553 263.891 146.075 263.84 145.622 263.95C145.158 264.09 144.718 264.301 144.319 264.577C143.9 264.789 143.513 265.06 143.169 265.381C142.857 265.718 142.673 266.153 142.646 266.612V269.458V269.587H142.518L133.672 269.675H133.463V269.402V266.563C133.429 266.145 133.253 265.75 132.964 265.445C132.818 265.295 132.65 265.168 132.465 265.067L131.838 264.714L131.211 264.36C131.035 264.253 130.842 264.177 130.64 264.135C130.236 264.044 129.813 264.095 129.442 264.279L127.029 265.719L126.748 265.888L126.579 265.598L122.116 257.942L121.931 257.621L122.252 257.436L124.665 256.012C124.985 255.792 125.221 255.468 125.332 255.096C125.387 254.908 125.414 254.712 125.413 254.517V253.793V253.069C125.414 252.873 125.387 252.678 125.332 252.49C125.22 252.12 124.981 251.801 124.657 251.589L122.244 250.158L121.898 249.965L122.099 249.627L126.555 241.971L126.74 241.658L127.045 241.835L129.458 243.258C129.817 243.435 130.226 243.483 130.616 243.395C130.813 243.353 131.001 243.277 131.171 243.17L131.798 242.816L132.433 242.462C132.612 242.367 132.775 242.245 132.916 242.1C133.2 241.804 133.371 241.416 133.398 241.006V238.184V237.902H133.664L142.51 237.983H142.711V238.167V241.006C142.74 241.449 142.919 241.868 143.217 242.196C143.555 242.517 143.937 242.787 144.351 243.001C144.73 243.271 145.148 243.483 145.59 243.628C146.03 243.732 146.492 243.684 146.901 243.491L149.385 242.1L149.45 242.06V242.124L153.849 249.82L151.967 250.898C151.644 251.054 151.343 251.255 151.074 251.493C150.817 251.744 150.633 252.061 150.544 252.41C150.459 252.762 150.434 253.127 150.471 253.487C150.471 253.849 150.471 254.211 150.471 254.565C150.463 254.937 150.553 255.305 150.732 255.631C150.912 255.957 151.174 256.23 151.492 256.422Z" fill="#EBEBEB"/>
<path d="M138.111 261.079C136.879 261.074 135.668 260.764 134.585 260.177C133.502 259.59 132.581 258.744 131.905 257.714C131.228 256.685 130.817 255.504 130.708 254.277C130.599 253.05 130.795 251.815 131.28 250.682C131.764 249.55 132.521 248.555 133.483 247.786C134.445 247.017 135.583 246.498 136.795 246.276C138.006 246.053 139.254 246.134 140.427 246.511C141.599 246.889 142.66 247.55 143.515 248.437C144.898 249.882 145.65 251.817 145.606 253.817C145.541 255.755 144.727 257.592 143.335 258.942C141.944 260.292 140.082 261.049 138.143 261.055L138.111 261.079ZM138.111 261.079C139.053 261.078 139.985 260.889 140.852 260.522C141.719 260.156 142.505 259.62 143.162 258.946C143.819 258.271 144.335 257.472 144.679 256.596C145.022 255.719 145.187 254.782 145.164 253.841C145.109 252.004 144.342 250.261 143.024 248.98C141.706 247.7 139.941 246.983 138.103 246.981C136.23 246.981 134.434 247.725 133.11 249.049C131.786 250.374 131.042 252.169 131.042 254.042C131.042 255.915 131.786 257.711 133.11 259.035C134.434 260.359 136.23 261.103 138.103 261.103L138.111 261.079Z" fill="#EBEBEB"/>
<path d="M6.6106 352.04L50.688 351.847L94.7654 351.775L182.92 351.646L271.075 351.775L315.152 351.847L359.23 352.04L315.152 352.241L271.075 352.313L182.92 352.442L94.7654 352.313L50.688 352.241L6.6106 352.04Z" fill="#263238"/>
<path d="M352.024 72.3848H218.69V207.15H352.024V72.3848Z" fill="#EBEBEB"/>
<path d="M279.993 64.2544C284.44 59.0353 292.056 57.7807 299.422 59.2685C306.788 60.7562 315.61 64.4716 316.414 76.7917C317.074 86.7957 314.002 96.5505 314.002 107.713C314.002 118.875 326.636 146.064 306.418 159.333C288.252 171.251 251.444 160.306 250.31 135.771C249.418 116.325 272.482 98.3438 274.91 90.6478C277.339 82.9517 275.12 69.9641 279.993 64.2544Z" fill="#263238"/>
<path d="M276.672 75.2319C276.535 80.7969 275.731 86.4262 273.455 91.6775C272.864 93.0075 272.093 94.2497 271.163 95.3687C270.27 96.4946 269.321 97.5561 268.372 98.5855C266.458 100.668 264.569 102.735 262.743 104.882C259.117 109.089 256.121 113.8 253.849 118.867C251.67 123.958 250.472 129.415 250.318 134.951C250.092 132.157 250.176 129.347 250.568 126.571C251.003 123.781 251.722 121.044 252.715 118.401C254.81 113.105 257.778 108.198 261.497 103.885C263.322 101.706 265.26 99.6229 267.19 97.5642C269.12 95.5054 271.074 93.5432 272.273 91.1307C273.502 88.664 274.438 86.0623 275.063 83.3783C275.769 80.6991 276.306 77.9783 276.672 75.2319Z" fill="#263238"/>
<path d="M315.908 85.1958C315.771 90.8733 315.409 96.5429 315.562 102.18C315.628 104.988 315.864 107.789 316.27 110.568C316.688 113.302 317.508 116.036 318.192 118.803C318.875 121.569 319.486 124.376 319.937 127.206C320.372 130.05 320.555 132.927 320.484 135.803C320.353 138.693 319.811 141.55 318.875 144.287C317.796 146.978 316.185 149.423 314.139 151.477C315.931 149.273 317.295 146.752 318.16 144.046C318.909 141.355 319.283 138.573 319.269 135.779C319.041 130.155 318.162 124.577 316.648 119.157C316.004 116.398 315.184 113.664 314.79 110.761C314.421 107.916 314.276 105.047 314.356 102.18C314.526 96.4923 315.044 90.8203 315.908 85.1958Z" fill="#263238"/>
<path d="M286.66 132.94C268.164 153.302 253.069 163.081 238.192 163.081C224.046 163.081 193.825 128.734 191.605 124.207C189.691 120.298 214.5 98.9149 218.312 101.577C224.746 106.032 245.381 131.822 247.568 131.943C249.756 132.063 257.814 126.74 277.219 117.652C289.008 112.144 299.527 118.827 286.66 132.94Z" fill="#EB9481"/>
<path d="M194.484 127.593C191.766 124.649 180.355 109.957 178.095 105.164C175.835 100.371 170.359 86.1046 173.857 84.0057C177.355 81.9067 179.285 85.9518 179.285 85.9518C179.285 85.9518 177.926 79.5666 181.641 77.7732C185.357 75.9799 188.155 82.3732 188.155 82.3732C188.155 82.3732 187.238 75.7145 191.066 74.1866C194.894 72.6586 196.647 79.5746 196.647 79.5746C196.647 79.5746 195.522 73.5191 199.205 73.5915C203.636 73.6799 204.448 85.0752 207.335 90.1818C207.986 91.3398 222.285 112.699 222.285 112.699L194.484 127.593Z" fill="#EB9481"/>
<path d="M196.495 78.9872C197.114 87.3587 198.835 90.9213 203.732 97.5719C203.829 97.7006 203.66 97.8694 203.547 97.7488C198.135 91.6692 195.337 87.5196 196.068 78.9952C196.125 78.577 196.462 78.5851 196.495 78.9872Z" fill="#263238"/>
<path d="M188.131 81.7134C189.53 90.3584 191.348 94.2346 196.004 101.577C196.068 101.681 195.899 101.802 195.827 101.705C190.672 94.878 187.97 90.6721 187.705 81.8502C187.689 81.4481 188.067 81.3114 188.131 81.7134Z" fill="#263238"/>
<path d="M179.542 86.3217C181.504 94.5968 183.33 98.9314 188.75 105.477C188.879 105.638 188.662 105.839 188.525 105.695C182.349 99.5506 180.033 94.1545 179.301 86.3941C179.253 85.8794 179.422 85.799 179.542 86.3217Z" fill="#263238"/>
<path d="M228.662 114.741C228.662 114.741 228.477 104.214 227.375 99.6065C226.274 94.9985 215.892 79.349 212.345 81.4078C207.818 84.0616 212.048 94.2747 214.758 99.0194C214.758 99.0194 204.303 105.163 205.727 113.157C207.15 121.151 228.662 114.741 228.662 114.741Z" fill="#EB9481"/>
<path d="M211.34 82.5419C208.927 87.946 212.948 93.9372 215.24 98.7221C215.277 98.791 215.297 98.8676 215.298 98.9457C215.299 99.0238 215.282 99.101 215.247 99.171C215.213 99.241 215.162 99.3018 215.099 99.3482C215.036 99.3946 214.963 99.4253 214.886 99.4378C210.656 102.309 205.534 107.576 205.469 112.964C205.469 112.996 205.457 113.027 205.434 113.05C205.411 113.072 205.381 113.085 205.349 113.085C205.317 113.085 205.286 113.072 205.263 113.05C205.241 113.027 205.228 112.996 205.228 112.964C204.512 107.174 209.12 101.577 213.945 98.7382C211.533 93.8568 207.777 87.6806 211.292 82.4937L211.34 82.5419Z" fill="#263238"/>
<path d="M254.766 126.024L269.627 153.752C269.627 153.752 289.78 134.187 292.997 126.024C296.213 117.862 292.747 111.935 278.409 116.302C270.217 118.729 262.295 121.987 254.766 126.024Z" fill="#407BFF"/>
<path d="M273.061 147.97C272.329 146.466 271.686 144.914 270.922 143.418C270.158 141.923 269.394 140.443 268.598 138.979C266.989 136.02 265.381 133.053 263.708 130.133C262.759 128.525 261.762 126.868 260.725 125.308C260.685 125.236 260.548 125.308 260.588 125.365C263.314 131.468 266.62 137.315 269.917 143.121C270.874 144.802 271.959 146.402 272.957 148.059C272.989 148.099 273.101 148.026 273.061 147.97Z" fill="#263238"/>
<path d="M292.997 126.024C289.78 134.187 269.627 153.752 269.627 153.752L259.615 135.103L292.643 116.84C294.541 118.819 294.517 122.172 292.997 126.024Z" fill="#263238"/>
<path d="M258.151 172.707C258.151 172.707 249.981 192.265 252.868 207.142H342.953C340.026 166.7 319.865 131.943 307.955 120.692C298.353 111.621 288.244 112.433 281.207 117.074C279.551 118.175 261.272 143.435 259.293 147.432C251.445 163.202 258.151 172.707 258.151 172.707Z" fill="#407BFF"/>
<path d="M281.834 115.884C281.834 115.884 276.205 132.072 279.47 132.916C287.592 135.007 298.489 121.746 299.141 120.395C299.301 120.049 300.025 110.986 300.564 103.933C300.91 99.3977 301.175 95.6904 301.175 95.6904L281.135 102.566L281.778 114.991L281.834 115.884Z" fill="#EB9481"/>
<path d="M281.103 102.566L281.746 114.991C285.824 114.42 294.79 112.208 300.532 103.933C300.878 99.3977 301.143 95.6904 301.143 95.6904L298.634 96.4946L281.103 102.566Z" fill="#263238"/>
<path d="M266.177 85.1713C265.936 91.4842 266.563 96.5907 268.099 99.9844C269.415 102.883 271.509 105.36 274.148 107.14C276.788 108.921 279.869 109.934 283.049 110.069C285.462 110.157 292.41 109.522 297.436 105.694C301.344 102.719 303.701 97.3547 305.036 87.9216C308.091 66.3534 298.224 59.0996 288.502 58.2311C278.779 57.3626 266.982 63.4101 266.177 85.1713Z" fill="#EB9481"/>
<path d="M271.75 80.3627C272.257 80.2903 272.723 80.1456 273.214 80.033C273.747 79.985 274.252 79.7681 274.653 79.4138C274.754 79.276 274.808 79.1099 274.808 78.9393C274.808 78.7687 274.754 78.6026 274.653 78.4648C274.403 78.2321 274.095 78.07 273.762 77.9951C273.429 77.9203 273.081 77.9353 272.755 78.0386C272.062 78.1489 271.434 78.5129 270.994 79.0599C270.89 79.1866 270.828 79.3419 270.815 79.5051C270.801 79.6684 270.838 79.8317 270.921 79.9734C271.003 80.115 271.126 80.2282 271.275 80.2978C271.423 80.3673 271.589 80.39 271.75 80.3627Z" fill="#263238"/>
<path d="M285.96 80.9011C285.466 80.8142 284.978 80.7014 284.496 80.5634C283.963 80.5189 283.459 80.2982 283.065 79.9361C282.964 79.7984 282.91 79.6322 282.91 79.4616C282.91 79.291 282.964 79.1249 283.065 78.9872C283.317 78.755 283.627 78.5946 283.962 78.5225C284.297 78.4504 284.645 78.4692 284.971 78.577C285.67 78.6888 286.301 79.059 286.74 79.6144C286.841 79.743 286.9 79.8993 286.91 80.0624C286.92 80.2255 286.879 80.3877 286.795 80.5274C286.71 80.6671 286.585 80.7777 286.436 80.8445C286.286 80.9113 286.121 80.931 285.96 80.9011Z" fill="#263238"/>
<path d="M282.405 86.3376C282.405 86.2813 282.518 86.41 282.518 86.4743C282.397 87.946 282.518 89.6911 283.829 90.2218C283.829 90.2218 283.829 90.3103 283.829 90.3023C282.188 89.9967 282.06 87.7128 282.405 86.3376Z" fill="#263238"/>
<path d="M283.805 84.8498C286.217 84.7854 286.153 89.5703 283.933 89.6347C281.714 89.699 281.834 84.9061 283.805 84.8498Z" fill="#263238"/>
<path d="M284.746 85.1153C285.156 85.3887 285.55 85.8712 286.065 85.9195C286.579 85.9677 287.094 85.4852 287.48 85.0027C287.52 84.9544 287.56 85.0027 287.56 85.059C287.56 85.9758 287.207 86.9167 286.217 87.0453C285.228 87.174 284.689 86.3376 284.464 85.437C284.424 85.244 284.577 85.0027 284.746 85.1153Z" fill="#263238"/>
<path d="M274.484 85.7102C274.484 85.6539 274.372 85.7826 274.372 85.8389C274.372 87.3266 274.219 89.0556 272.876 89.5221C272.836 89.5221 272.836 89.6105 272.876 89.6025C274.524 89.3773 274.766 87.1095 274.484 85.7102Z" fill="#263238"/>
<path d="M273.166 84.1581C270.753 83.9731 270.584 88.758 272.796 88.9269C275.007 89.0958 275.16 84.3189 273.166 84.1581Z" fill="#263238"/>
<path d="M272.184 84.4397C271.798 84.6809 271.38 85.1232 270.954 85.1393C270.528 85.1554 270.061 84.6166 269.748 84.1099C269.748 84.0537 269.675 84.11 269.667 84.1582C269.611 85.075 269.868 86.032 270.745 86.2491C271.621 86.4662 272.16 85.6781 272.41 84.7774C272.426 84.6005 272.305 84.3432 272.184 84.4397Z" fill="#263238"/>
<path d="M282.261 97.8534C281.915 98.2153 281.577 98.7058 281.047 98.7702C280.495 98.7742 279.948 98.6676 279.438 98.4565C279.429 98.448 279.416 98.4436 279.403 98.4444C279.39 98.4451 279.378 98.451 279.37 98.4606C279.361 98.4701 279.357 98.4827 279.358 98.4956C279.359 98.5084 279.364 98.5204 279.374 98.5289C279.597 98.8127 279.893 99.0312 280.229 99.1614C280.566 99.2916 280.932 99.3287 281.288 99.2688C281.585 99.1759 281.849 98.9988 282.047 98.759C282.246 98.5192 282.37 98.2269 282.406 97.9177C282.41 97.8994 282.408 97.88 282.4 97.863C282.392 97.846 282.378 97.8325 282.36 97.8248C282.343 97.8171 282.324 97.8158 282.305 97.821C282.287 97.8262 282.272 97.8377 282.261 97.8534Z" fill="#263238"/>
<path d="M276.205 92.361C276.205 92.361 275.852 94.5725 275.836 95.6179C275.836 95.7144 276.085 95.7627 276.439 95.7948C276.439 95.7948 276.439 95.7948 276.479 95.7948C277.367 95.9704 278.285 95.8998 279.136 95.5908C279.986 95.2818 280.736 94.7461 281.304 94.0417C281.376 93.9452 281.248 93.8326 281.151 93.897C279.8 94.7772 278.201 95.2 276.591 95.1032C276.527 94.8057 277.323 91.3397 277.154 91.3236C276.331 91.3747 275.519 91.5398 274.742 91.8141C275.345 87.1901 276.68 82.7027 277.203 78.0947C277.203 77.9339 276.985 77.8776 276.937 78.0223C275.2 82.6223 274.396 87.9299 273.648 92.6826C273.584 93.2858 275.755 92.5379 276.205 92.361Z" fill="#263238"/>
<path d="M277.106 95.2478C277.621 96.0361 278.33 96.6786 279.165 97.1135C279.625 97.3329 280.141 97.4059 280.644 97.3226C281.746 97.1216 281.851 96.1324 281.722 95.272C281.643 94.814 281.514 94.3662 281.336 93.937C280.102 94.8142 278.62 95.2735 277.106 95.2478Z" fill="#263238"/>
<path d="M279.165 97.1137C279.625 97.333 280.142 97.406 280.645 97.3227C281.746 97.1217 281.851 96.1325 281.722 95.2721C281.151 95.2465 280.588 95.4144 280.124 95.7486C279.66 96.0828 279.322 96.5637 279.165 97.1137Z" fill="#FF98B9"/>
<path d="M304.641 85.9837C302.269 86.0561 295.538 80.1373 294.316 68.7661C294.316 68.7661 296.125 78.8988 297.026 80.3222C297.926 81.7456 293.262 76.9849 292.144 67.8332C292.144 67.8332 287.4 71.9668 283.17 73.5751C278.94 75.1835 276.294 75.3926 275.932 75.1031C275.57 74.8136 281.786 72.2241 283.33 70.085C283.33 70.085 272.289 76.5184 267.013 77.387C266.402 77.4835 267.432 67.986 275.16 61.8742C282.888 55.7624 293.511 57.2904 297.323 60.3463C297.323 60.3463 301.489 60.5634 306.507 66.2329C311.525 71.9024 307.191 85.9033 304.641 85.9837Z" fill="#263238"/>
<path d="M301.513 89.4577C301.513 89.4577 305.928 82.4371 309.088 83.9812C312.249 85.5252 309.169 95.5373 305.622 97.0572C305.181 97.2853 304.698 97.4216 304.202 97.4577C303.707 97.4939 303.209 97.4292 302.74 97.2676C302.27 97.106 301.838 96.8508 301.469 96.5175C301.101 96.1841 300.804 95.7796 300.596 95.3282L301.513 89.4577Z" fill="#EB9481"/>
<path d="M308.131 86.8521C308.196 86.8521 308.204 86.9244 308.131 86.9486C305.646 88.0985 304.432 90.5191 303.612 93.0041C304.328 92.023 305.325 91.46 306.627 92.2964C306.692 92.3366 306.627 92.4492 306.563 92.4331C306.115 92.3237 305.645 92.3527 305.214 92.5164C304.784 92.6801 304.413 92.9708 304.151 93.3499C303.717 94 303.351 94.6924 303.057 95.4166C302.952 95.6498 302.534 95.5533 302.615 95.288C302.611 95.2667 302.611 95.2449 302.615 95.2236C302.389 91.9747 304.681 87.3265 308.131 86.8521Z" fill="#263238"/>
<path d="M314.927 125.107C323.837 135.393 348.815 172.627 343.025 182.687C337.468 192.337 324.867 195.055 317.613 182.092C312.394 172.82 303.62 145.156 301.441 131.887C299.671 121.143 306.692 115.594 314.927 125.107Z" fill="#EB9481"/>
<path d="M306.604 158.071L336.133 147.222C336.133 147.222 319.559 124.536 311.927 120.218C304.296 115.899 297.943 118.505 300.275 133.31C301.53 141.759 303.651 150.056 306.604 158.071Z" fill="#407BFF"/>
<path d="M330.89 143.009C329.281 143.531 327.673 143.95 326.065 144.496C324.456 145.043 322.912 145.598 321.352 146.185C318.192 147.359 315.039 148.533 311.911 149.796C310.158 150.504 308.405 151.268 306.692 152.072C306.611 152.072 306.644 152.241 306.692 152.217C313.125 150.367 319.366 147.906 325.574 145.453C327.375 144.738 329.104 143.845 330.882 143.129C331.002 143.097 330.946 142.985 330.89 143.009Z" fill="#263238"/>
<path d="M308.268 157.379C307.684 157.508 307.111 157.686 306.555 157.91C305.751 156.165 303.845 148.493 303.403 146.523C302.518 142.598 301.795 138.634 300.87 134.709C300.87 134.597 300.653 134.629 300.669 134.709C300.942 136.888 301.28 139.06 301.658 141.215C301.256 140.186 300.854 139.148 300.54 138.095C300.543 138.087 300.545 138.079 300.544 138.071C300.543 138.063 300.541 138.056 300.536 138.049C300.532 138.042 300.526 138.037 300.519 138.033C300.512 138.029 300.504 138.027 300.496 138.027C300.488 138.027 300.48 138.029 300.473 138.033C300.466 138.037 300.46 138.042 300.455 138.049C300.451 138.056 300.448 138.063 300.448 138.071C300.447 138.079 300.448 138.087 300.452 138.095C300.817 139.403 301.266 140.687 301.795 141.939C302.108 145.96 305.767 158.738 305.872 158.69C306.699 158.315 307.504 157.893 308.284 157.427C308.373 157.451 308.373 157.371 308.268 157.379Z" fill="#263238"/>
<path d="M293.664 81.6815L285.261 117.556C284.899 118.61 285.437 119.454 286.467 119.438L302.51 122.703C303.072 122.652 303.608 122.441 304.056 122.097C304.503 121.752 304.843 121.287 305.035 120.757L313.439 84.8821C313.801 83.8287 313.262 82.9843 312.233 83.0084L296.189 79.7354C295.627 79.7868 295.091 79.9971 294.644 80.3417C294.197 80.6863 293.857 81.151 293.664 81.6815Z" fill="#A6A6A6"/>
<path d="M295.039 81.8822L286.66 117.757C286.298 118.81 286.837 119.655 287.866 119.639L303.91 122.904C304.471 122.853 305.006 122.644 305.453 122.301C305.9 121.958 306.24 121.495 306.435 120.966L314.806 85.0909C315.168 84.0293 314.629 83.193 313.6 83.2091L297.564 79.936C297.003 79.9903 296.469 80.2016 296.022 80.5459C295.575 80.8901 295.235 81.3532 295.039 81.8822Z" fill="#DBDBDB"/>
<path d="M300.122 83.4263C300.13 83.748 300.041 84.0647 299.867 84.3354C299.693 84.6062 299.442 84.8185 299.146 84.9449C298.85 85.0713 298.523 85.106 298.207 85.0446C297.891 84.9831 297.601 84.8283 297.374 84.6002C297.147 84.372 296.993 84.081 296.934 83.7648C296.874 83.4486 296.91 83.1217 297.038 82.8264C297.166 82.5311 297.38 82.281 297.651 82.1084C297.923 81.9357 298.24 81.8486 298.562 81.8581C298.976 81.8603 299.373 82.0264 299.665 82.3203C299.958 82.6141 300.122 83.0118 300.122 83.4263Z" fill="#263238"/>
<path d="M321.899 185.341C327.119 194.991 340.934 189.49 343.025 182.687C347.931 166.724 344.891 140.186 341.964 125.365C341.023 120.596 308.63 125.365 308.823 130.519C309.049 136.752 311.67 166.362 321.899 185.341Z" fill="#EB9481"/>
<path d="M341.602 132.449C343.233 125.417 343.332 118.116 341.891 111.042C340.186 103.33 334.613 86.9727 312.209 79.6787C306.893 77.9417 298.087 79.2364 305.775 85.2196C311.211 89.4737 315.94 90.5272 318.642 93.5831C318.642 93.5831 307.641 96.5586 306.113 101.947C304.775 106.663 303.773 111.468 303.113 116.325C303.975 116.648 304.856 116.917 305.751 117.13C305.279 121.821 306.37 126.537 308.855 130.543L341.602 132.449Z" fill="#EB9481"/>
<path d="M339.085 103.941C335.755 101.529 328.63 96.398 321.32 94.291C313.214 91.8785 296.978 89.5463 295.289 95.5375C294.05 99.9364 300.17 101.392 300.17 101.392C300.17 101.392 293.254 101.826 293.005 106.04C292.78 109.884 297.581 110.729 297.581 110.729C297.581 110.729 293.431 111.71 293.922 115.457C294.517 119.953 303.13 117.154 307.673 121.191C308.695 122.076 339.085 103.941 339.085 103.941Z" fill="#EB9481"/>
<path d="M320.243 103.241C316.736 101.44 307.713 99.4054 300.299 101.247C300.13 101.247 300.074 101.432 300.234 101.432C306.95 101.251 313.663 101.883 320.226 103.314C320.267 103.33 320.283 103.257 320.243 103.241Z" fill="#263238"/>
<path d="M317.621 111.348C314.404 110.109 305.035 108.42 297.588 110.543C297.42 110.592 297.371 110.745 297.532 110.736C304.238 110.201 310.983 110.433 317.637 111.428C317.647 111.426 317.657 111.42 317.663 111.411C317.669 111.402 317.671 111.391 317.669 111.38C317.667 111.369 317.661 111.36 317.651 111.354C317.642 111.348 317.631 111.346 317.621 111.348Z" fill="#263238"/>
<path d="M318.94 178.618C318.698 177.814 318.465 177.01 318.208 176.278C317.677 174.669 317.219 173.061 316.752 171.453C315.803 168.236 314.895 164.971 314.099 161.69C312.51 155.15 311.304 148.523 310.488 141.843C310.263 139.993 310.07 138.143 309.868 136.294C309.667 134.444 309.603 132.522 309.249 130.664C309.249 130.568 308.308 129.153 307.938 128.453C307.555 127.725 307.219 126.973 306.933 126.201C306.332 124.627 305.924 122.985 305.719 121.312C305.715 121.301 305.708 121.292 305.698 121.286C305.689 121.28 305.678 121.276 305.667 121.276C305.655 121.276 305.644 121.28 305.635 121.286C305.626 121.292 305.619 121.301 305.614 121.312C305.51 123.215 305.75 125.122 306.322 126.941C306.818 128.462 307.673 129.842 308.815 130.962C308.815 131.203 308.871 134.179 308.968 135.843C309.064 137.508 309.217 139.173 309.402 140.829C309.78 144.159 310.246 147.48 310.834 150.785C311.981 157.471 313.577 164.072 315.61 170.544C315.61 170.649 315.683 170.753 315.715 170.858C315.715 171.099 315.715 171.34 315.715 171.581C315.727 172.176 315.775 172.77 315.86 173.359C316.025 174.53 316.313 175.681 316.72 176.793C316.717 176.802 316.715 176.813 316.717 176.823C316.718 176.833 316.722 176.843 316.728 176.852C316.734 176.86 316.741 176.867 316.751 176.872C316.76 176.877 316.77 176.879 316.78 176.879C316.791 176.879 316.801 176.877 316.81 176.872C316.819 176.867 316.827 176.86 316.833 176.852C316.839 176.843 316.843 176.833 316.844 176.823C316.846 176.813 316.844 176.802 316.841 176.793C316.555 175.63 316.362 174.447 316.262 173.254L316.117 172.032C316.559 173.335 317.026 174.637 317.484 175.932C317.806 176.833 318.136 177.709 318.505 178.586C318.875 179.462 319.165 180.315 319.599 181.127C319.599 181.191 319.728 181.127 319.712 181.079C319.511 180.218 319.189 179.43 318.94 178.618Z" fill="#263238"/>
<path d="M218.69 207.142V185.526L194.122 207.142H218.69Z" fill="#EBEBEB"/>
<path d="M92.425 252.973C99.5018 283.765 114.138 320.677 120.386 326.668C128.292 334.244 180.588 348.14 183.193 348.422C189.627 349.073 202.598 302.583 195.715 301.578C185.26 300.066 147.174 297.999 144.898 295.659C142.622 293.319 126.458 272.941 109.94 250.046C98.5368 234.227 88.0261 233.865 92.425 252.973Z" fill="#AD6359"/>
<path d="M178.015 345.912C178.778 346.298 189.707 351.799 196.463 353.753C201.505 355.217 216.125 359.037 218.288 353.641C219.768 349.974 211.428 346.717 205.59 344.28C202.51 342.993 198.714 339.777 199.623 337.798C201.231 334.34 209.136 337.798 214.348 340.838C224.424 346.693 237.846 357.235 243.998 352.097C246.322 350.167 243.62 346.644 239.671 343.194C246.105 347.215 252.924 350.512 255.586 348.47C257.122 347.304 257.195 345.703 256.342 343.886C258.32 344.529 260.066 344.401 261.288 343.082C263.371 340.894 262.357 337.678 260.074 334.372C260.466 334.332 260.842 334.198 261.172 333.983C261.503 333.768 261.776 333.477 261.971 333.134C266.386 326.403 244.279 307.078 236.648 305.269C214.171 299.921 190.479 300.918 190.479 300.918C181.649 308.003 177.99 345.896 178.015 345.912Z" fill="#AD6359"/>
<path d="M211.067 325.221C216.418 326.057 221.531 328.022 226.065 330.987C231.766 334.75 235.546 339.157 240.323 343.588C240.342 343.614 240.351 343.644 240.35 343.676C240.349 343.707 240.337 343.737 240.316 343.761C240.295 343.785 240.267 343.8 240.236 343.806C240.205 343.811 240.173 343.805 240.146 343.789C237.87 341.682 228.429 333.753 225.992 331.952C221.585 328.635 216.481 326.364 211.067 325.309C210.994 325.301 211.01 325.205 211.067 325.221Z" fill="#263238"/>
<path d="M215.256 315.675C221.167 317.283 227.222 318.892 232.707 321.722C238.706 324.778 243.403 329.764 247.986 334.589C250.764 337.468 253.474 340.417 256.117 343.435C256.221 343.564 256.052 343.765 255.94 343.637C251.254 338.683 246.429 333.858 241.465 329.161C236.869 324.8 231.458 321.389 225.542 319.125C222.164 317.83 218.69 316.809 215.216 315.78C215.168 315.763 215.192 315.659 215.256 315.675Z" fill="#263238"/>
<path d="M221.569 307.336C227.311 308.518 232.321 309.523 237.403 312.595C244.134 316.672 250.632 323.532 252.908 325.969C255.425 328.655 257.854 331.421 260.234 334.228C260.331 334.34 260.138 334.517 260.033 334.404C254.578 328.251 248.73 322.457 242.526 317.058C239.608 314.445 236.304 312.296 232.731 310.689C229.109 309.267 225.372 308.159 221.561 307.376C221.561 307.376 221.521 307.328 221.569 307.336Z" fill="#263238"/>
<path d="M186.86 299.069L170.776 350.022C170.776 350.022 127.23 337.589 119.309 329.008C111.387 320.428 96.6627 276.117 92.3442 254.637C88.0258 233.158 98.8823 233.728 108.862 247.231C118.842 260.733 143.691 293.592 145.051 294.308C146.41 295.023 186.86 299.069 186.86 299.069Z" fill="#01E4F6"/>
<path opacity="0.1" d="M186.49 299.379L170.406 350.333C170.406 350.333 126.859 337.9 118.938 329.319C111.017 320.738 96.2924 276.428 91.9739 254.948C87.6554 233.468 98.5119 234.039 108.492 247.542C118.472 261.044 143.321 293.903 144.68 294.619C146.039 295.334 186.49 299.379 186.49 299.379Z" fill="black"/>
<path d="M166.595 327.384C168.549 321.377 170.543 315.386 172.264 309.306C173.245 305.856 174.243 302.398 175.192 298.94C175.232 298.803 175.015 298.731 174.966 298.86C172.771 304.811 170.584 310.786 168.662 316.833C166.74 322.881 164.785 328.896 162.952 334.903C161.914 338.345 160.974 341.803 160.145 345.301C160.145 345.366 160.242 345.406 160.266 345.342C162.662 339.463 164.633 333.432 166.595 327.384Z" fill="#263238"/>
<path d="M148.814 343.017L146.884 342.342C143.257 341.047 139.558 339.656 136.076 338.232C135.626 338.056 135.183 337.871 134.749 337.686C134.049 337.396 133.35 337.099 132.674 336.801L131.661 336.359L131.299 336.198L130.254 335.715C128.87 335.08 127.56 334.445 126.337 333.801L125.533 333.351C123.622 332.368 121.822 331.185 120.161 329.821C120.008 329.684 119.856 329.547 119.719 329.411C119.582 329.274 119.437 329.137 119.317 329.008C111.355 320.428 96.6709 276.117 92.3524 254.637L92.2077 253.898V253.737C91.9182 252.128 91.6608 250.086 91.4517 247.898C90.8486 237.211 95.9069 235.466 102.155 240.162C117.733 273.592 141.593 328.832 148.814 343.017Z" fill="#263238"/>
<path d="M126.224 351.574L31.3306 352.073C31.411 350.03 44.9213 290.279 55.6652 268.228C69.4409 239.953 76.574 237.669 80.7799 236.157C86.2082 234.211 95.8745 235.176 98.1664 236.262C100.772 237.476 109.055 251.935 112.023 262.543C117.957 283.878 127.559 350.271 126.224 351.574Z" fill="#EBEBEB"/>
<path d="M75.9149 238.393C75.9149 238.393 87.9777 283.065 88.5808 286.033C89.4895 290.343 95.5048 351.847 95.5048 351.847L29.3606 352.072C29.3606 352.072 43.7957 295.136 54.5396 270.206C66.2647 242.864 75.9149 238.393 75.9149 238.393Z" fill="#01E4F6"/>
<g opacity="0.1">
<path d="M75.554 239C75.554 239 87.6168 283.673 88.22 286.64C89.1287 290.951 95.144 352.455 95.144 352.455L28.9998 352.68C28.9998 352.68 43.4349 295.744 54.1788 270.814C65.9038 243.472 75.554 239 75.554 239Z" fill="black"/>
</g>
<path d="M99.0354 236.953C99.3892 238.377 110.511 274.67 111.283 283.717C112.144 293.753 119.751 352.072 119.751 352.072H129.401C129.401 352.072 115.433 268.284 111.597 259.43C103.748 241.36 99.0354 236.953 99.0354 236.953Z" fill="#01E4F6"/>
<path opacity="0.1" d="M98.9998 237C99.3536 238.424 110.475 274.717 111.247 283.764C112.108 293.8 119.716 352.119 119.716 352.119H129.366C129.366 352.119 115.397 268.331 111.561 259.477C103.712 241.407 98.9998 237 98.9998 237Z" fill="black"/>
<path d="M63.4259 248.839C47.5352 265.864 8.90216 330.456 21.1579 342.237C33.4137 354.019 101.456 338.16 120.563 329.049C126.249 326.347 104.648 290.898 97.9657 290.07C92.4007 289.386 63.9647 302.39 63.1364 300.758C62.2116 298.908 66.7311 285.261 73.5908 260.548C81.4638 232.064 70.4545 241.312 63.4259 248.839Z" fill="#AD6359"/>
<path d="M126.208 278.634C140.024 276.704 143.901 278.337 154.669 270.52C161.753 265.39 168.074 267.714 164.029 275.86C157.419 289.193 140.113 295.418 133.47 295.852L126.208 278.634Z" fill="#AD6359"/>
<path d="M89.5059 291.919C89.5059 291.919 105.035 283.299 119.558 279.792C129.595 277.38 152.031 274.525 173.503 296.68C178.593 301.931 182.124 313.029 170.696 307.472C162.574 303.524 158.634 298.57 153.479 297.13C153.479 297.13 156.293 311.775 150.833 316.672C146.061 320.952 140.989 324.886 135.658 328.445C134.781 327.621 133.959 326.739 133.197 325.808C133.197 325.808 127.664 329.901 117.258 328.904L89.5059 291.919Z" fill="#AD6359"/>
<path d="M129.514 279.052C134.339 281.554 144.399 287.03 151.09 294.38C158.529 302.551 170.648 320.275 164.56 325.743C160.105 329.724 154.91 323.331 154.91 323.331C154.91 323.331 158.376 331.719 153.559 334.429C149.176 336.906 145.429 331.743 145.429 331.743C145.429 331.743 146.659 337.187 141.971 338.755C136.341 340.637 134.685 328.912 127.327 325.888C125.646 325.164 129.514 279.052 129.514 279.052Z" fill="#AD6359"/>
<path d="M141.159 300.766C145.284 303.862 152.859 313.295 154.95 323.066C154.999 323.291 154.862 323.444 154.773 323.251C151.141 315.254 146.55 307.728 141.102 300.838C141.038 300.766 141.102 300.766 141.159 300.766Z" fill="#263238"/>
<path d="M133.133 308.51C136.422 311.55 143.796 321.618 145.573 331.598C145.614 331.823 145.461 331.968 145.388 331.767C142.168 323.595 138.032 315.815 133.06 308.574C133.012 308.526 133.06 308.47 133.133 308.51Z" fill="#263238"/>
<path d="M153.479 297.034C157.982 298.361 160.909 300.573 164.737 303.21C166.6 304.542 168.536 305.769 170.535 306.885C172.369 307.875 175.079 309.37 177.025 307.818C178.119 306.958 178.103 305.406 177.829 304.143C177.279 302.316 176.443 300.586 175.352 299.02C175.352 298.956 175.409 298.884 175.457 298.94C176.51 300.367 177.416 301.898 178.159 303.508C178.646 304.611 178.789 305.836 178.569 307.022C177.902 309.499 174.974 309.829 172.94 309.145C171.707 308.692 170.522 308.118 169.401 307.432C168.308 306.805 167.246 306.129 166.185 305.422C164.046 303.974 161.995 302.406 159.872 300.934C157.809 299.55 155.66 298.298 153.438 297.187C153.421 297.179 153.408 297.165 153.4 297.148C153.392 297.131 153.39 297.112 153.395 297.094C153.4 297.076 153.411 297.06 153.426 297.049C153.441 297.038 153.46 297.033 153.479 297.034Z" fill="#263238"/>
<path d="M162.912 312.877C161.746 310.311 155.433 299.616 153.39 297.139C153.383 297.126 153.379 297.112 153.381 297.098C153.383 297.083 153.389 297.07 153.399 297.06C153.41 297.049 153.423 297.043 153.437 297.041C153.452 297.04 153.466 297.043 153.479 297.05C156.993 300.38 162.63 309.218 163.933 312.048C165.236 314.879 166.732 318.425 166.732 321.538C166.732 326.242 163.611 327.167 162.461 327.368C161.085 327.617 159.665 327.384 158.44 326.709C157.008 325.833 155.77 324.673 154.805 323.299C154.757 323.235 154.846 323.146 154.902 323.21C156.51 325.068 159.245 326.894 161.794 326.556C162.359 326.502 162.908 326.336 163.408 326.067C163.908 325.797 164.349 325.43 164.705 324.988C165.402 323.856 165.67 322.512 165.461 321.2C165.085 318.302 164.223 315.488 162.912 312.877Z" fill="#263238"/>
<path d="M89.5058 291.919L111.283 337.758C111.283 337.758 26.1038 356.881 18.7535 342.052C11.4033 327.223 44.4875 269.193 59.389 252.289C76.671 232.699 78.8744 239.366 75.0706 256.728C71.0497 274.903 63.3858 301.184 63.3858 301.184L89.5058 291.919Z" fill="#01E4F6"/>
<path opacity="0.1" d="M89.8031 291.575L111.58 337.413C111.58 337.413 26.4012 356.537 19.0509 341.708C11.7007 326.878 44.7848 268.848 59.6864 251.944C76.9683 232.354 79.1718 239.021 75.368 256.384C71.3471 274.558 63.6832 300.839 63.6832 300.839L89.8031 291.575Z" fill="black"/>
<path d="M37.499 313.383C45.3558 307.927 53.9833 303.674 63.0962 300.766C65.6776 299.961 68.2832 299.197 70.8888 298.449C70.9692 298.449 71.0014 298.554 70.8888 298.578C66.3443 300.049 61.8896 301.783 57.5473 303.773C53.2101 305.703 48.9211 307.711 44.6804 309.797C42.2678 310.979 39.9196 312.273 37.5553 313.536C37.5394 313.533 37.5247 313.525 37.5124 313.514C37.5002 313.504 37.4908 313.49 37.4852 313.475C37.4796 313.46 37.4779 313.443 37.4803 313.427C37.4827 313.411 37.4891 313.396 37.499 313.383Z" fill="#263238"/>
<path d="M89.2802 291.799C88.854 291.911 65.5568 299.607 64.7928 299.961C64.8893 299.607 69.0711 287.223 69.6983 285.405C69.7546 285.229 69.8109 285.044 69.8753 284.867C70.2934 284.063 70.7277 283.258 71.1217 282.454C71.6203 281.401 72.1189 280.331 72.6095 279.237H72.5612L70.9529 282.35C70.7036 282.824 70.4704 283.315 70.2371 283.805C70.6473 282.527 71.0413 281.24 71.4354 279.945C72.0626 277.894 72.6256 275.82 73.1805 273.745C73.1805 273.672 73.1 273.656 73.0759 273.745C71.8375 277.356 70.4864 280.926 69.24 284.537C67.9935 288.148 63.2005 301.425 63.2407 301.425C63.2809 301.425 88.8942 292.37 89.3928 292.169C89.4171 292.161 89.4397 292.149 89.4593 292.133C89.4789 292.117 89.4952 292.097 89.5071 292.075C89.5191 292.052 89.5265 292.028 89.529 292.002C89.5314 291.977 89.5289 291.952 89.5215 291.927C89.5141 291.903 89.502 291.881 89.4859 291.861C89.4698 291.841 89.4499 291.825 89.4275 291.813C89.4051 291.801 89.3806 291.794 89.3553 291.791C89.3301 291.789 89.3045 291.791 89.2802 291.799Z" fill="#263238"/>
<path d="M90.8487 321.674C88.4362 316.568 86.096 311.429 83.5145 306.395C82.0429 303.54 80.5873 300.677 79.0915 297.838C79.0352 297.734 78.8422 297.838 78.8905 297.927C81.0939 303.154 83.3135 308.381 85.7582 313.52C88.2029 318.659 90.5833 323.733 93.0683 328.799C94.4836 331.678 95.9875 334.512 97.5798 337.3C97.5798 337.356 97.7084 337.3 97.6843 337.3C95.6577 331.976 93.2693 326.837 90.8487 321.674Z" fill="#263238"/>
<path d="M112.385 338.466C111.532 337.05 110.455 335.024 109.546 333.641C109.305 333.279 109.023 333.351 109.216 333.729C109.868 335.016 110.406 336.455 111.042 337.75C109.851 337.991 108.629 338.2 107.455 338.45C106.072 338.739 104.697 339.037 103.313 339.318C100.601 339.854 97.8879 340.39 95.1751 340.926C89.6745 341.95 84.1524 342.851 78.6089 343.628C67.5032 345.255 56.3208 346.304 45.1065 346.773C41.9702 346.885 38.8258 346.942 35.6895 346.902C32.5958 346.909 29.5037 346.759 26.4253 346.451C26.3368 346.451 26.3207 346.588 26.4253 346.604C29.0742 347.164 31.7632 347.513 34.4671 347.649C37.3059 347.786 40.1527 347.85 42.9995 347.818C48.6288 347.754 54.3144 347.384 59.9518 346.869C71.1299 345.84 82.2759 344.328 93.3255 342.374C96.4242 341.838 99.515 341.256 102.598 340.629C104.158 340.315 105.71 340.002 107.262 339.656C108.814 339.31 112.529 338.707 112.385 338.466Z" fill="#263238"/>
<path d="M99.0513 253.624C93.4221 255.176 83.3456 246.853 79.2282 239.953C78.9467 239.479 79.5016 234.364 79.8796 228.115C80.0967 224.328 80.2414 220.074 80.0967 216.23C80.0967 215.425 104.568 221.232 104.568 221.232C104.568 221.232 102.477 229.418 102.767 236.157C102.792 236.699 102.868 237.238 102.992 237.766C103.014 237.85 103.03 237.936 103.04 238.023C103.643 241.006 104.496 252.12 99.0513 253.624Z" fill="#AD6359"/>
<path d="M81.5923 216.326C82.9594 222.824 87.6076 238.465 100.555 238.28C101.385 238.272 102.214 238.197 103.032 238.055C103.042 237.967 103.042 237.878 103.032 237.79C102.913 237.261 102.835 236.723 102.799 236.182C102.517 229.434 104.6 221.24 104.6 221.24C104.6 221.24 86.8919 217.058 81.5923 216.326Z" fill="#263238"/>
<path d="M107.487 204.625C107.214 210.56 111.219 215.562 116.43 215.803C121.641 216.044 126.08 211.412 126.345 205.477C126.611 199.543 122.606 194.541 117.403 194.307C112.2 194.074 107.752 198.69 107.487 204.625Z" fill="#455A64"/>
<path d="M125.389 205.805C125.688 199.203 121.232 193.639 115.438 193.377C109.643 193.115 104.704 198.254 104.405 204.856C104.107 211.458 108.562 217.023 114.356 217.285C120.151 217.547 125.09 212.407 125.389 205.805Z" fill="#C7C7C7"/>
<path d="M83.2892 185.437C79.0753 193.382 78.8099 218.642 83.7637 225.252C90.9451 234.822 105.059 238.336 113.76 229.193C122.228 220.299 121.987 187.375 116.237 181.127C107.785 171.903 89.5136 173.704 83.2892 185.437Z" fill="#AD6359"/>
<path d="M104.295 204.963C104.295 204.898 104.158 205.051 104.166 205.124C104.254 206.82 104.078 208.783 102.558 209.378C102.509 209.378 102.517 209.482 102.558 209.474C104.439 209.169 104.649 206.563 104.295 204.963Z" fill="#263238"/>
<path d="M102.734 203.226C99.9922 203.081 99.9037 208.574 102.437 208.702C104.97 208.831 105.034 203.347 102.734 203.226Z" fill="#263238"/>
<path d="M113.816 205.172C113.816 205.108 113.945 205.261 113.945 205.325C113.864 207.03 114.057 208.992 115.553 209.579C115.601 209.579 115.553 209.684 115.553 209.676C113.695 209.378 113.462 206.773 113.816 205.172Z" fill="#263238"/>
<path d="M115.368 203.459C118.103 203.29 118.231 208.783 115.69 208.935C113.149 209.088 113.068 203.555 115.368 203.459Z" fill="#263238"/>
<path d="M100.274 198.835C101.078 198.795 101.745 198.626 102.509 198.513C103.315 198.498 104.093 198.215 104.721 197.709C104.889 197.515 104.988 197.271 105.003 197.015C105.017 196.759 104.946 196.505 104.801 196.294C104.45 195.924 104.006 195.654 103.515 195.513C103.025 195.371 102.505 195.363 102.011 195.489C100.963 195.573 99.9841 196.046 99.2684 196.816C99.1184 197.001 99.0248 197.225 98.9987 197.461C98.9726 197.697 99.0151 197.936 99.1211 198.149C99.2271 198.362 99.3921 198.54 99.5965 198.662C99.8009 198.783 100.036 198.843 100.274 198.835Z" fill="#263238"/>
<path d="M117.95 199.438C117.216 199.277 116.491 199.075 115.778 198.835C114.987 198.739 114.25 198.386 113.68 197.83C113.535 197.617 113.466 197.363 113.482 197.107C113.498 196.851 113.598 196.607 113.768 196.414C114.161 196.085 114.635 195.866 115.141 195.779C115.647 195.693 116.167 195.743 116.647 195.924C117.675 196.14 118.587 196.73 119.204 197.58C119.325 197.782 119.385 198.014 119.378 198.249C119.372 198.484 119.298 198.713 119.167 198.907C119.035 199.102 118.851 199.256 118.635 199.35C118.42 199.444 118.182 199.474 117.95 199.438Z" fill="#263238"/>
<path d="M101.19 220.733C101.592 221.135 101.995 221.69 102.606 221.754C103.238 221.749 103.863 221.612 104.439 221.352C104.451 221.35 104.463 221.35 104.474 221.354C104.485 221.358 104.495 221.365 104.502 221.374C104.51 221.383 104.515 221.395 104.516 221.406C104.518 221.418 104.516 221.43 104.512 221.441C104.265 221.773 103.933 222.031 103.55 222.189C103.167 222.346 102.749 222.396 102.34 222.333C101.995 222.236 101.685 222.04 101.451 221.768C101.216 221.496 101.067 221.161 101.022 220.805C100.997 220.709 101.126 220.669 101.19 220.733Z" fill="#263238"/>
<path d="M103.064 215.666C103.484 216.346 104.04 216.931 104.698 217.385C105.355 217.839 106.099 218.152 106.884 218.304C107.568 218.45 108.269 218.496 108.967 218.441C109.101 218.436 109.236 218.422 109.369 218.401L109.739 218.344C109.83 218.329 109.914 218.285 109.977 218.218C110.041 218.152 110.082 218.066 110.093 217.974C110.097 217.915 110.097 217.856 110.093 217.797V217.645C110.149 216.334 110.093 214.339 110.093 214.339C110.567 214.589 112.996 215.731 112.963 215.047C112.722 209.37 112.449 203.065 111.009 197.476C111.001 197.44 110.981 197.408 110.953 197.386C110.924 197.363 110.889 197.351 110.853 197.351C110.816 197.351 110.781 197.363 110.752 197.386C110.724 197.408 110.704 197.44 110.696 197.476C110.696 202.936 111.693 208.356 111.797 213.841C110.936 213.424 110.022 213.129 109.079 212.964C108.894 213.021 109.329 216.816 109.256 217.403C109.258 217.425 109.258 217.446 109.256 217.468C107.045 217.709 105.396 217.017 103.289 215.506C103.096 215.417 102.959 215.522 103.064 215.666Z" fill="#263238"/>
<path d="M108.203 217.758C107.472 218.683 106.513 219.404 105.42 219.848C104.817 220.072 104.16 220.103 103.539 219.937C102.188 219.551 102.172 218.329 102.437 217.243C102.585 216.684 102.798 216.144 103.072 215.635C104.513 216.871 106.31 217.614 108.203 217.758Z" fill="#263238"/>
<path d="M105.42 219.848C104.817 220.072 104.16 220.103 103.539 219.937C102.188 219.551 102.172 218.329 102.437 217.243C103.892 217.42 105.316 218.433 105.42 219.848Z" fill="#FF98B9"/>
<path opacity="0.2" d="M80.1289 203.274C81.7855 203.009 85.7582 197.404 87.439 195.176C89.1197 192.948 90.0928 181.006 90.2456 178.288C87.2964 179.956 84.8813 182.427 83.2813 185.413C81.3995 188.984 80.3139 196.004 80.1289 203.274Z" fill="#263238"/>
<path d="M110.792 188.179C109.81 189.257 108.57 190.065 107.187 190.528C105.805 190.991 104.328 191.093 102.895 190.825C101.433 190.556 100.064 189.918 98.9185 188.97C97.7728 188.023 96.8883 186.799 96.3492 185.413C96.3492 185.325 96.1884 185.373 96.2206 185.453C96.6554 186.962 97.4942 188.324 98.6464 189.391C99.7987 190.459 101.221 191.191 102.759 191.509C104.287 191.74 105.849 191.564 107.287 190.999C108.726 190.434 109.99 189.501 110.953 188.292C110.959 188.271 110.958 188.249 110.95 188.229C110.943 188.209 110.93 188.192 110.912 188.18C110.895 188.167 110.874 188.161 110.852 188.161C110.831 188.161 110.81 188.167 110.792 188.179Z" fill="#263238"/>
<path d="M102.622 166.772C97.6599 166.724 93.0278 169.321 91.1058 172.635C90.0383 174.523 89.6415 176.717 89.98 178.859C89.98 178.948 90.1649 178.931 90.1569 178.859C90.1152 176.971 90.5822 175.106 91.509 173.461C92.4357 171.815 93.7881 170.449 95.4243 169.506C97.2159 168.408 99.2377 167.741 101.331 167.557C103.424 167.373 105.531 167.677 107.487 168.445C109.393 169.15 110.985 170.514 111.974 172.289C112.071 172.474 112.441 172.369 112.368 172.184C111.114 169.032 107.101 166.812 102.622 166.772Z" fill="#263238"/>
<path d="M131.05 178.425C130.314 175.953 128.731 173.821 126.578 172.401C123.595 170.423 120.145 170.592 116.735 170.833C116.716 170.833 116.698 170.841 116.684 170.854C116.67 170.868 116.663 170.886 116.663 170.905C116.663 170.925 116.67 170.943 116.684 170.957C116.698 170.97 116.716 170.978 116.735 170.978C119.646 170.785 122.614 170.753 125.235 172.208C127.418 173.39 129.123 175.291 130.061 177.588C130.953 179.945 130.965 182.544 130.093 184.908C129.221 187.273 127.525 189.242 125.316 190.455C124.028 191.121 122.617 191.516 121.171 191.617C119.724 191.718 118.272 191.522 116.904 191.042C116.792 191.002 116.711 191.155 116.816 191.203C118.664 191.932 120.678 192.131 122.633 191.78C124.589 191.429 126.407 190.54 127.886 189.214C129.365 187.888 130.446 186.176 131.008 184.271C131.569 182.365 131.589 180.341 131.066 178.425H131.05Z" fill="#263238"/>
<path d="M81.496 190.303C81.496 190.303 77.1052 181.272 81.2226 176.286C83.5548 173.463 90.9372 174.106 90.9372 174.106C90.9372 174.106 93.4704 169.949 99.6465 168.767C105.823 167.584 113.109 171.453 113.109 171.453C113.109 171.453 119.108 168.308 124.496 171.654C132.015 176.318 130.632 187.971 122.767 191.445C117.25 193.857 110.061 188.823 110.061 188.823C109.345 188.895 101.93 192.997 96.6871 186.33C96.6871 186.33 92.0872 190.126 88.1869 187.207C87.5233 188.346 86.5257 189.254 85.3289 189.808C84.1322 190.362 82.7942 190.535 81.496 190.303Z" fill="#263238"/>
<path d="M84.6563 206.33C84.6563 206.33 80.4826 197.484 76.5502 198.803C72.6177 200.122 74.797 212.362 78.7375 214.662C79.2237 214.991 79.7716 215.22 80.3482 215.332C80.9249 215.445 81.5183 215.44 82.093 215.318C82.6676 215.195 83.2116 214.958 83.6922 214.62C84.1728 214.282 84.58 213.85 84.8896 213.351L84.6563 206.33Z" fill="#AD6359"/>
<path d="M77.2579 202.285C77.1936 202.285 77.1614 202.366 77.2579 202.398C80.0082 204.103 81.0939 207.118 81.689 210.15C81.0054 208.904 79.9037 208.099 78.2632 208.888C78.2462 208.899 78.2332 208.915 78.226 208.934C78.2188 208.953 78.2179 208.974 78.2232 208.993C78.2286 209.013 78.24 209.03 78.2558 209.043C78.2716 209.056 78.2911 209.063 78.3114 209.064C78.8606 208.99 79.4193 209.087 79.9115 209.341C80.4037 209.596 80.8054 209.997 81.0617 210.488C81.4786 211.314 81.8074 212.182 82.0428 213.077C82.1393 213.367 82.6379 213.302 82.5897 212.981C82.5934 212.957 82.5934 212.932 82.5897 212.908C83.2652 209.153 81.2467 203.371 77.2579 202.285Z" fill="#263238"/>
<path d="M93.7518 224.143L85.8306 220.725L79.4614 212.796L80.6838 211.807L86.8117 219.438L94.3791 222.703L93.7518 224.143Z" fill="#C7C7C7"/>
<path d="M92.9072 222.88C93.7114 220.572 100.145 221.425 98.9788 224.915C97.8127 228.405 92.1271 225.172 92.9072 222.88Z" fill="#37474F"/>
<path d="M76.4297 198.561C76.4297 198.561 75.5692 185.59 79.365 178.457C83.595 170.487 101.126 162.904 113.141 171.468C113.141 171.468 93.6232 167.978 84.5278 179.028C80.6999 183.676 80.7964 198.923 80.7964 198.923L76.4297 198.561Z" fill="#C7C7C7"/>
<path d="M78.1995 217.192C83.9996 217.134 88.6483 211.73 88.5826 205.121C88.5168 198.513 83.7615 193.203 77.9614 193.26C72.1612 193.318 67.5125 198.722 67.5783 205.33C67.644 211.939 72.3993 217.249 78.1995 217.192Z" fill="#C7C7C7"/>
<path d="M85.5169 204.778C85.5732 210.721 81.3994 215.578 76.1883 215.627C70.9772 215.675 66.6989 210.906 66.6427 204.963C66.5864 199.02 70.7601 194.163 75.9712 194.115C81.1823 194.066 85.4606 198.835 85.5169 204.778Z" fill="#455A64"/>
<path d="M102.944 237.621L97.2742 251.935L79.4373 233.938L74.4353 239.76C74.4353 239.76 91.9263 268.397 92.0309 267.102L97.8612 254.758L106.402 263.291L105.597 241.787L102.944 237.621Z" fill="#EBEBEB"/>
<path d="M106.611 252.635C106.362 249.088 106.217 245.51 105.807 241.979C105.807 241.859 105.598 241.803 105.565 241.979C104.874 245.413 105.895 258.964 105.895 262.221H105.855C105.501 261.851 97.9417 254.718 97.8693 254.83C96.6068 256.793 92.3204 265.775 92.0309 266.596C89.2645 262.044 77.5556 244.119 74.2584 239.816C74.2424 239.789 74.2161 239.768 74.1852 239.76C74.1543 239.752 74.1213 239.756 74.0936 239.772C74.0659 239.788 74.0456 239.814 74.0373 239.845C74.029 239.876 74.0334 239.909 74.0494 239.937C76.4619 244.762 91.661 268.413 91.8701 268.349C94.1264 264.108 96.1637 259.754 97.9739 255.305C99.2525 256.857 106.876 264.915 106.9 264.384C107.011 260.465 106.915 256.543 106.611 252.635Z" fill="#263238"/>
<path d="M297.79 199.985H272.916C270.505 199.982 268.193 199.024 266.487 197.318C264.782 195.613 263.823 193.301 263.821 190.889C263.821 188.477 264.779 186.164 266.485 184.458C268.191 182.752 270.504 181.794 272.916 181.794H297.79C300.202 181.794 302.515 182.752 304.221 184.458C305.927 186.164 306.885 188.477 306.885 190.889C306.885 192.084 306.65 193.266 306.193 194.37C305.736 195.473 305.066 196.476 304.221 197.321C303.377 198.165 302.374 198.835 301.27 199.292C300.167 199.749 298.984 199.985 297.79 199.985Z" fill="#455A64"/>
<path d="M278.353 190.729C278.37 190.441 278.465 190.163 278.626 189.924L278.851 189.595L279.326 189.12L279.881 188.718C280.645 188.232 281.498 187.901 282.39 187.745C284.447 187.335 286.565 187.335 288.622 187.745C289.503 187.896 290.345 188.221 291.099 188.702C291.292 188.831 291.485 188.975 291.67 189.112L292.137 189.579C292.258 189.755 292.371 189.937 292.474 190.125C292.553 190.319 292.617 190.518 292.667 190.721H288.59C288.558 190.725 288.526 190.718 288.499 190.702C288.471 190.686 288.449 190.662 288.437 190.632C288.326 190.416 288.159 190.233 287.955 190.102C287.75 189.97 287.514 189.895 287.271 189.884C286.085 189.808 284.895 189.808 283.709 189.884C283.467 189.894 283.233 189.968 283.03 190.098C282.827 190.228 282.661 190.409 282.551 190.624C282.551 190.68 282.494 190.721 282.414 190.721H278.353V190.729Z" fill="white"/>
<path d="M278.353 193.004V191.517H282.374C282.374 191.605 282.374 191.702 282.374 191.806V193.004C282.385 193.074 282.379 193.146 282.357 193.214C282.335 193.281 282.298 193.342 282.247 193.393C282.197 193.443 282.136 193.48 282.068 193.502C282.001 193.524 281.929 193.53 281.859 193.519H278.86C278.79 193.53 278.718 193.525 278.651 193.503C278.584 193.481 278.523 193.443 278.473 193.393C278.423 193.342 278.387 193.281 278.366 193.213C278.345 193.146 278.34 193.074 278.353 193.004Z" fill="white"/>
<path d="M288.622 193.053C288.622 192.546 288.622 192.04 288.622 191.541H292.603V191.629C292.603 192.096 292.603 192.57 292.603 193.037C292.611 193.104 292.603 193.172 292.581 193.236C292.558 193.3 292.522 193.358 292.474 193.406C292.426 193.454 292.368 193.491 292.304 193.513C292.24 193.536 292.172 193.543 292.104 193.535H289.072C289.01 193.538 288.947 193.527 288.889 193.503C288.831 193.48 288.779 193.444 288.736 193.398C288.693 193.352 288.661 193.297 288.641 193.238C288.622 193.178 288.615 193.115 288.622 193.053Z" fill="white"/>
<path d="M195.739 353.037H190.222V356.64H195.739V353.037Z" fill="#455A64"/>
<path d="M202.888 352.796H197.371V356.399H202.888V352.796Z" fill="#455A64"/>
<path d="M210.045 352.555H204.529V356.157H210.045V352.555Z" fill="#455A64"/>
<path d="M217.202 352.322H211.686V355.924H217.202V352.322Z" fill="#455A64"/>
<path d="M224.359 352.08H218.843V355.683H224.359V352.08Z" fill="#455A64"/>
<path d="M231.517 351.847H226V355.45H231.517V351.847Z" fill="#455A64"/>
<path d="M238.674 351.606H233.157V355.208H238.674V351.606Z" fill="#455A64"/>
<path d="M245.831 351.365H240.315V354.967H245.831V351.365Z" fill="#455A64"/>
<path d="M252.98 351.131H247.464V354.734H252.98V351.131Z" fill="#455A64"/>
<path d="M254.34 358.707H188.863V354.324L254.34 352.499V358.707Z" fill="#37474F"/>
<path d="M318.24 341.425H210.157L227.343 260.958H335.425L318.24 341.425Z" fill="#455A64"/>
<path d="M322.237 341.425H214.155L231.34 260.958H339.422L322.237 341.425Z" fill="#37474F"/>
<path d="M283.639 301.048C286.572 298.338 287.072 294.111 284.757 291.606C282.442 289.1 278.189 289.266 275.256 291.976C272.324 294.686 271.823 298.913 274.138 301.419C276.453 303.924 280.707 303.758 283.639 301.048Z" fill="#263238"/>
<path d="M291.67 362.438H238.513V358.305L291.67 356.592V362.438Z" fill="#455A64"/>
<path d="M306.121 362.43H277.581L260.387 317.339H288.928L306.121 362.43Z" fill="#455A64"/>
<path d="M310.817 362.43H282.277L265.091 317.339H293.632L310.817 362.43Z" fill="#263238"/>
<path d="M186.844 363.532H132.039C127.367 363.532 134.13 350.214 151.203 345.108C168.276 340.001 192.232 358.538 186.844 363.532Z" fill="#37474F"/>
<path d="M165.341 363.532C165.385 362.014 165.636 360.51 166.088 359.06C166.53 357.599 167.148 356.198 167.93 354.887C168.717 353.57 169.698 352.379 170.841 351.356C171.972 350.33 173.276 349.513 174.693 348.944C174.106 349.426 173.439 349.748 172.9 350.287L172.096 351.003L171.292 351.807C170.275 352.867 169.385 354.041 168.638 355.305C167.879 356.57 167.228 357.896 166.692 359.27C166.146 360.658 165.695 362.082 165.341 363.532Z" fill="#263238"/>
<path d="M171.83 350.858C175.085 351.935 178.166 353.482 180.974 355.45C182.393 356.43 183.677 357.593 184.794 358.908C185.342 359.58 185.814 360.311 186.201 361.087C186.583 361.863 186.802 362.708 186.844 363.572C186.652 362.753 186.317 361.975 185.855 361.272C185.417 360.568 184.905 359.912 184.327 359.318C183.155 358.131 181.877 357.054 180.507 356.101C179.148 355.12 177.709 354.244 176.269 353.375C175.545 352.941 174.806 352.523 174.066 352.12C173.326 351.718 172.578 351.268 171.83 350.858Z" fill="#263238"/>
<path d="M190.768 180.853C190.296 185.339 188.586 189.604 185.83 193.175C183.075 196.745 179.381 199.48 175.162 201.073C170.943 202.667 166.364 203.057 161.936 202.201C157.508 201.344 153.405 199.274 150.085 196.221L137.885 198.039L143.981 187.512C142.458 183.803 141.883 179.774 142.308 175.787C142.621 172.59 143.562 169.487 145.079 166.656C146.595 163.825 148.657 161.322 151.145 159.291C153.633 157.26 156.499 155.741 159.576 154.822C162.654 153.903 165.882 153.602 169.077 153.936C172.271 154.27 175.368 155.233 178.189 156.769C181.009 158.305 183.498 160.384 185.512 162.886C187.526 165.388 189.025 168.263 189.923 171.347C190.821 174.431 191.1 177.661 190.744 180.853H190.768Z" fill="white"/>
<path d="M190.769 180.853C190.301 185.342 188.6 189.615 185.855 193.197C185.173 194.089 184.437 194.937 183.652 195.739C182.837 196.512 181.978 197.237 181.078 197.91C179.287 199.274 177.31 200.376 175.208 201.183C173.106 202.006 170.9 202.531 168.654 202.743C167.528 202.849 166.397 202.87 165.268 202.807C164.137 202.781 163.011 202.665 161.898 202.462C157.403 201.637 153.226 199.576 149.836 196.511L150.125 196.599L137.958 198.473L137.081 198.634L137.524 197.83L143.587 187.271V187.689C142.164 184.23 141.549 180.492 141.789 176.759C142.028 173.027 143.116 169.398 144.969 166.149C146.822 162.9 149.392 160.117 152.483 158.011C155.574 155.905 159.104 154.532 162.806 153.996C166.508 153.46 170.283 153.775 173.844 154.918C177.405 156.06 180.659 158.001 183.358 160.59C186.056 163.18 188.129 166.351 189.417 169.862C190.706 173.374 191.176 177.133 190.793 180.853H190.769ZM190.769 180.853C191.15 177.188 190.688 173.484 189.416 170.026C188.144 166.568 186.097 163.447 183.431 160.902C180.766 158.358 177.553 156.458 174.039 155.348C170.526 154.239 166.804 153.948 163.161 154.5C159.548 155.039 156.107 156.398 153.101 158.473C150.128 160.565 147.642 163.275 145.815 166.418C144.017 169.577 142.955 173.101 142.711 176.728C142.486 180.361 143.077 183.999 144.44 187.375L144.528 187.592L144.407 187.785L138.28 198.296L137.845 197.653L150.037 195.948H150.206L150.326 196.06C153.58 199.106 157.618 201.187 161.987 202.068C163.077 202.287 164.182 202.421 165.292 202.47C166.401 202.546 167.513 202.546 168.621 202.47C170.846 202.3 173.036 201.818 175.127 201.038C177.229 200.279 179.207 199.214 180.998 197.878C181.895 197.211 182.754 196.494 183.571 195.731C184.359 194.938 185.098 194.097 185.783 193.214C188.558 189.635 190.284 185.356 190.769 180.853Z" fill="#263238"/>
<path d="M180.129 179.06C180.131 179.644 179.959 180.215 179.636 180.702C179.312 181.188 178.852 181.568 178.313 181.792C177.774 182.017 177.18 182.077 176.607 181.964C176.034 181.851 175.507 181.57 175.094 181.158C174.68 180.745 174.398 180.22 174.284 179.647C174.169 179.074 174.227 178.48 174.45 177.94C174.674 177.401 175.052 176.939 175.537 176.615C176.023 176.29 176.594 176.117 177.178 176.117C177.565 176.116 177.949 176.191 178.307 176.338C178.665 176.486 178.99 176.703 179.264 176.976C179.539 177.249 179.756 177.574 179.904 177.932C180.053 178.289 180.129 178.673 180.129 179.06Z" fill="#263238"/>
<path d="M169.562 179.06C169.564 179.644 169.392 180.216 169.068 180.703C168.745 181.189 168.284 181.569 167.744 181.793C167.205 182.018 166.61 182.077 166.037 181.963C165.464 181.849 164.937 181.568 164.524 181.155C164.111 180.742 163.83 180.215 163.716 179.642C163.602 179.069 163.661 178.475 163.886 177.935C164.11 177.395 164.49 176.934 164.976 176.611C165.463 176.287 166.035 176.115 166.619 176.117C167.4 176.117 168.148 176.427 168.7 176.979C169.252 177.531 169.562 178.279 169.562 179.06Z" fill="#263238"/>
<path d="M159.003 179.06C159.005 179.644 158.833 180.215 158.51 180.702C158.186 181.188 157.726 181.568 157.187 181.792C156.648 182.017 156.054 182.077 155.481 181.964C154.908 181.851 154.381 181.57 153.968 181.158C153.554 180.745 153.272 180.22 153.158 179.647C153.043 179.074 153.101 178.48 153.324 177.94C153.548 177.401 153.926 176.939 154.411 176.615C154.897 176.29 155.468 176.117 156.052 176.117C156.833 176.117 157.583 176.427 158.136 176.978C158.689 177.53 159.001 178.279 159.003 179.06Z" fill="#263238"/>
<path d="M201.086 54.58C201.559 59.0651 203.269 63.3307 206.024 66.9013C208.779 70.472 212.471 73.2073 216.69 74.8025C220.908 76.3976 225.487 76.7899 229.915 75.9356C234.344 75.0813 238.448 73.014 241.77 69.9641L253.945 71.7494L247.858 61.2226C249.254 57.7947 249.85 54.0937 249.601 50.4008C249.352 46.7079 248.265 43.1203 246.422 39.9107C244.578 36.7011 242.028 33.9539 238.963 31.8779C235.899 29.8019 232.402 28.4518 228.738 27.9301C225.073 27.4084 221.338 27.7289 217.816 28.8673C214.295 30.0056 211.079 31.9318 208.413 34.4995C205.747 37.0672 203.702 40.2088 202.432 43.6855C201.163 47.1623 200.702 50.8827 201.086 54.564V54.58Z" fill="white"/>
<path d="M208.372 34.4675C211.024 31.8521 214.242 29.8813 217.777 28.7072C221.312 27.5331 225.069 27.1873 228.759 27.6963C232.474 28.1863 236.028 29.5205 239.149 31.5966C243.876 34.7519 247.366 39.4441 249.03 44.8785C250.693 50.3129 250.427 56.1552 248.276 61.4158V60.9976L254.324 71.5726L254.766 72.3768L253.889 72.2401L241.714 70.3744L242.003 70.2859C238.613 73.3513 234.436 75.412 229.941 76.2369C228.828 76.4408 227.702 76.5564 226.571 76.5827C225.445 76.6417 224.316 76.6202 223.194 76.5184C218.683 76.0883 214.38 74.4183 210.761 71.6933C209.861 71.0205 209.002 70.2955 208.188 69.522C207.404 68.7187 206.668 67.8702 205.984 66.9807C202.339 62.2179 200.567 56.2834 201.004 50.3016C201.441 44.3197 204.057 38.706 208.356 34.5238L208.372 34.4675ZM206.072 66.8681C206.758 67.749 207.496 68.5869 208.284 69.3772C209.097 70.1452 209.956 70.8623 210.857 71.5244C212.648 72.8676 214.63 73.9355 216.736 74.6929C218.825 75.4688 221.012 75.9506 223.234 76.1243C224.345 76.2007 225.46 76.2007 226.571 76.1243C227.679 76.0752 228.781 75.9407 229.868 75.7222C234.238 74.8412 238.275 72.7611 241.529 69.715L241.65 69.6024H241.819L254.01 71.3073L253.576 71.9506L247.448 61.4399L247.327 61.2389L247.416 61.0217C248.781 57.6591 249.366 54.0308 249.128 50.4095C248.89 46.7881 247.834 43.2678 246.04 40.1129C244.215 36.9684 241.73 34.2576 238.755 32.1676C235.751 30.0941 232.312 28.7352 228.702 28.1949C223.931 27.4581 219.048 28.1729 214.688 30.2465C210.328 32.32 206.692 35.6564 204.252 39.8226C201.812 43.9888 200.681 48.7923 201.005 53.6095C201.33 58.4266 203.096 63.0349 206.072 66.836V66.8681Z" fill="#263238"/>
<path d="M227.472 55.0227V58.0625C227.478 58.3653 227.423 58.6663 227.311 58.9474C227.198 59.2284 227.029 59.4837 226.815 59.6978C226.601 59.912 226.346 60.0806 226.064 60.1934C225.783 60.3063 225.482 60.3611 225.18 60.3545C224.572 60.3524 223.991 60.1102 223.561 59.6808C223.132 59.2515 222.89 58.6697 222.888 58.0625V53.2374C222.888 53.1892 222.936 53.1892 222.936 53.1409C222.936 53.0927 222.888 53.0927 222.888 53.0525C222.904 52.4497 223.151 51.8762 223.577 51.4498C224.003 51.0235 224.577 50.7768 225.18 50.7605C225.901 50.8171 226.625 50.724 227.309 50.487C227.992 50.25 228.619 49.8742 229.15 49.3833C229.681 48.8923 230.104 48.2969 230.394 47.6343C230.684 46.9718 230.833 46.2565 230.833 45.5333C230.833 44.8102 230.684 44.0949 230.394 43.4323C230.104 42.7698 229.681 42.1743 229.15 41.6834C228.619 41.1925 227.992 40.8167 227.309 40.5797C226.625 40.3427 225.901 40.2495 225.18 40.3061C224.271 40.3025 223.378 40.5385 222.59 40.9903C221.803 41.4421 221.148 42.0938 220.692 42.8795C220.536 43.1456 220.328 43.3778 220.081 43.5627C219.834 43.7476 219.552 43.8813 219.253 43.9562C218.953 44.031 218.642 44.0455 218.337 43.9987C218.032 43.9519 217.739 43.8449 217.476 43.6837C217.216 43.5311 216.99 43.3288 216.809 43.0883C216.628 42.8479 216.496 42.5741 216.422 42.2827C216.347 41.9912 216.331 41.6879 216.373 41.3901C216.416 41.0923 216.518 40.8059 216.671 40.5474C217.485 39.1352 218.637 37.9476 220.024 37.0915C221.411 36.2354 222.989 35.7376 224.616 35.643C226.243 35.5484 227.868 35.86 229.345 36.5497C230.821 37.2394 232.103 38.2855 233.075 39.5939C234.047 40.9022 234.678 42.4317 234.912 44.0447C235.145 45.6577 234.974 47.3034 234.414 48.8338C233.853 50.3641 232.921 51.731 231.7 52.8114C230.48 53.8918 229.01 54.6517 227.423 55.0227H227.472ZM227.472 65.26V66.0642C227.479 66.3673 227.425 66.6688 227.313 66.9503C227.2 67.2319 227.032 67.4877 226.818 67.702C226.603 67.9164 226.347 68.085 226.066 68.1974C225.784 68.3099 225.483 68.3638 225.18 68.3561C224.572 68.3561 223.989 68.1146 223.559 67.6848C223.129 67.255 222.888 66.672 222.888 66.0642V65.26C222.896 64.6547 223.14 64.0766 223.568 63.6486C223.996 63.2205 224.574 62.9764 225.18 62.9681C225.482 62.9648 225.781 63.0219 226.061 63.136C226.34 63.25 226.594 63.4187 226.807 63.6322C227.021 63.8456 227.19 64.0996 227.304 64.3791C227.418 64.6586 227.475 64.9581 227.472 65.26Z" fill="#2828C2"/>
</g>
<defs>
<linearGradient id="paint0_linear_0_1" x1="-38" y1="-212" x2="-38" y2="811" gradientUnits="userSpaceOnUse">
<stop stop-color="#F5F5F5"/>
<stop offset="1" stop-color="white" stop-opacity="0"/>
</linearGradient>
<linearGradient id="paint1_linear_0_1" x1="44.8896" y1="0" x2="44.8896" y2="108.991" gradientUnits="userSpaceOnUse">
<stop stop-color="#C7C7C7" stop-opacity="0"/>
<stop offset="1" stop-color="#C7C7C7"/>
</linearGradient>
<linearGradient id="paint2_linear_0_1" x1="126.153" y1="0" x2="126.153" y2="87.4069" gradientUnits="userSpaceOnUse">
<stop stop-color="#C7C7C7" stop-opacity="0"/>
<stop offset="1" stop-color="#C7C7C7"/>
</linearGradient>
<clipPath id="clip0_0_1">
<rect width="1440" height="1870" fill="white" transform="translate(-758 -634)"/>
</clipPath>
</defs>
</svg>
