<svg width="29" height="40" viewBox="0 0 29 40" fill="none" xmlns="http://www.w3.org/2000/svg">
<path d="M0.292999 24.293C0.104999 24.48 0 24.735 0 25V37C0 38.654 1.346 40 3 40H26C27.654 40 29 38.654 29 37V3C29 1.346 27.654 0 26 0H22H18H14H10H6C4.346 0 3 1.346 3 3V9.667L0.200001 13.4C0.0700008 13.573 0 13.784 0 14V19C0 19.552 0.447 20 1 20H2V22.586L0.292999 24.293ZM19 8V2H21V10H19V8ZM17 7H15V2H17V7ZM13 2V8V10H11V2H13ZM3 18H2V14.333L4.8 10.6C4.93 10.427 5 10.216 5 10V3C5 2.449 5.448 2 6 2H9V11C9 11.552 9.447 12 10 12H14C14.553 12 15 11.552 15 11V9H17V11C17 11.552 17.447 12 18 12H22C22.553 12 23 11.552 23 11V2H26C26.552 2 27 2.449 27 3V37C27 37.551 26.552 38 26 38H3C2.448 38 2 37.551 2 37V25.414L3.707 23.707C3.895 23.52 4 23.265 4 23V19C4 18.448 3.553 18 3 18Z" fill="white"/>
</svg>
