<svg width="610" height="501" viewBox="0 0 610 501" fill="none" xmlns="http://www.w3.org/2000/svg">
<g id="Image">
<path id="Vector" d="M397.152 424.365C560.238 464.491 583.699 295.408 557.406 200.077C531.503 106.159 460.997 11.3705 333.742 46.4677C6.39595 136.75 117.066 355.718 397.152 424.365Z" fill="url(#paint0_linear_9_78)"/>
<g id="design-stats/rafiki">
<g id="background-complete">
<path id="Vector_2" d="M525.218 432.593H0V432.856H525.218V432.593Z" fill="#EBEBEB"/>
<path id="Vector_3" d="M89.8964 442.593H55.106V442.856H89.8964V442.593Z" fill="#EBEBEB"/>
<path id="Vector_4" d="M188.898 439.747H161.177V440.01H188.898V439.747Z" fill="#EBEBEB"/>
<path id="Vector_5" d="M142.744 448.791H94.5078V449.054H142.744V448.791Z" fill="#EBEBEB"/>
<path id="Vector_6" d="M472.589 450.587H449.9V450.85H472.589V450.587Z" fill="#EBEBEB"/>
<path id="Vector_7" d="M444.795 450.587H411.212V450.85H444.795V450.587Z" fill="#EBEBEB"/>
<path id="Vector_8" d="M349.09 446.154H291.189V446.417H349.09V446.154Z" fill="#EBEBEB"/>
<path id="Vector_9" d="M248.953 385.744H46.1247C44.5357 385.741 43.0128 385.108 41.8903 383.983C40.7677 382.859 40.1372 381.335 40.1372 379.746V94.6256C40.151 93.0458 40.7876 91.5352 41.9087 90.422C43.0298 89.3088 44.5448 88.6829 46.1247 88.6802H248.953C250.544 88.6802 252.07 89.3121 253.195 90.4369C254.32 91.5618 254.951 93.0874 254.951 94.6782V379.746C254.951 381.336 254.32 382.862 253.195 383.987C252.07 385.112 250.544 385.744 248.953 385.744ZM46.1247 88.8903C44.6054 88.893 43.1493 89.4985 42.076 90.5738C41.0026 91.6491 40.3998 93.1063 40.3998 94.6256V379.746C40.3998 381.265 41.0026 382.722 42.076 383.797C43.1493 384.873 44.6054 385.478 46.1247 385.481H248.953C250.474 385.478 251.931 384.873 253.006 383.798C254.081 382.723 254.686 381.266 254.689 379.746V94.6256C254.686 93.1054 254.081 91.6482 253.006 90.5732C251.931 89.4982 250.474 88.893 248.953 88.8903H46.1247Z" fill="#EBEBEB"/>
<path id="Vector_10" d="M476.171 385.744H273.332C271.742 385.741 270.218 385.108 269.094 383.984C267.97 382.86 267.337 381.336 267.334 379.746V94.6256C267.351 93.0449 267.989 91.5343 269.112 90.4214C270.235 89.3085 271.751 88.6829 273.332 88.6802H476.171C477.749 88.6856 479.262 89.3128 480.38 90.4257C481.499 91.5386 482.134 93.0476 482.148 94.6256V379.746C482.148 381.333 481.519 382.855 480.399 383.979C479.279 385.104 477.758 385.738 476.171 385.744ZM273.332 88.8903C271.812 88.893 270.355 89.4982 269.28 90.5732C268.205 91.6482 267.599 93.1054 267.597 94.6256V379.746C267.599 381.266 268.205 382.723 269.28 383.798C270.355 384.873 271.812 385.478 273.332 385.481H476.171C477.692 385.478 479.149 384.873 480.224 383.798C481.299 382.723 481.904 381.266 481.907 379.746V94.6256C481.904 93.1054 481.299 91.6482 480.224 90.5732C479.149 89.4982 477.692 88.893 476.171 88.8903H273.332Z" fill="#EBEBEB"/>
<path id="Vector_11" d="M73.9169 261.845L358.123 261.845V103.617L73.9169 103.617V261.845Z" fill="#E0E0E0"/>
<path id="Vector_12" d="M58.3183 261.845L356.695 261.845V103.617L58.3183 103.617V261.845Z" fill="#F5F5F5"/>
<path id="Vector_13" d="M351.81 256.96V108.492L63.1816 108.492V256.96H351.81Z" fill="white"/>
<path id="Vector_14" d="M234.949 256.971L180.453 108.492H270.391L324.888 256.971H234.949Z" fill="#F5F5F5"/>
<path id="Vector_15" d="M148.385 256.97L93.8882 108.491H161.736L216.222 256.97H148.385Z" fill="#F5F5F5"/>
<path id="Vector_16" d="M454.312 427.688H470.488V318.831H454.312V427.688Z" fill="#F0F0F0"/>
<path id="Vector_17" d="M289.729 432.593H467.369V427.688H289.729V432.593Z" fill="#F0F0F0"/>
<path id="Vector_18" d="M454.312 318.82H286.631V427.677H454.312V318.82Z" fill="#F5F5F5"/>
<path id="Vector_19" d="M455.993 318.82H472.526V314.535H455.993V318.82Z" fill="#F0F0F0"/>
<path id="Vector_20" d="M455.982 314.545H284.593V318.831H455.982V314.545Z" fill="#FAFAFA"/>
<path id="Vector_21" d="M448.608 370.418H292.324V327.697H448.608V370.418ZM293.648 369.147H447.285V329.02H293.648V369.147Z" fill="#E0E0E0"/>
<path id="Vector_22" d="M448.608 418.812H292.324V376.679H448.608V418.812ZM293.648 417.467H447.285V378.002H293.648V417.467Z" fill="#E0E0E0"/>
<path id="Vector_23" d="M323.322 336.216H417.609C418.072 336.216 418.515 336.032 418.842 335.705C419.169 335.378 419.353 334.934 419.353 334.472C419.35 334.011 419.165 333.571 418.839 333.246C418.512 332.921 418.07 332.739 417.609 332.739H323.322C322.862 332.739 322.422 332.921 322.097 333.246C321.772 333.571 321.589 334.012 321.589 334.472C321.588 334.7 321.631 334.927 321.718 335.139C321.804 335.35 321.932 335.542 322.093 335.704C322.254 335.866 322.445 335.995 322.656 336.083C322.867 336.171 323.094 336.216 323.322 336.216Z" fill="#E0E0E0"/>
<path id="Vector_24" d="M323.322 385.208H417.609C418.071 385.205 418.513 385.021 418.839 384.694C419.166 384.368 419.35 383.926 419.353 383.464C419.35 383.003 419.166 382.561 418.839 382.234C418.513 381.908 418.071 381.723 417.609 381.721H323.322C322.861 381.723 322.421 381.908 322.096 382.235C321.771 382.562 321.589 383.004 321.589 383.464C321.589 383.925 321.771 384.367 322.096 384.694C322.421 385.02 322.861 385.205 323.322 385.208Z" fill="#E0E0E0"/>
<path id="Vector_25" d="M148.752 302.045H121.599C116.816 302.11 112.19 303.763 108.449 306.745C104.709 309.727 102.066 313.867 100.936 318.516L93.762 348.463L79.0559 348.411C75.6407 348.406 72.3304 349.59 69.693 351.76C67.0556 353.93 65.2556 356.95 64.6018 360.302L62.648 370.565C61.1629 370.787 59.7774 371.445 58.6681 372.457C57.5587 373.47 56.7758 374.789 56.4189 376.248H129.204C133.981 376.181 138.6 374.529 142.336 371.551C146.073 368.574 148.714 364.439 149.845 359.798L160.139 316.793C160.606 315.051 160.665 313.225 160.311 311.457C159.957 309.689 159.2 308.026 158.098 306.599C156.996 305.172 155.579 304.018 153.958 303.228C152.337 302.438 150.556 302.033 148.752 302.045ZM77.4382 370.481H66.5452L68.3729 361.027C68.8462 358.559 70.164 356.332 72.0999 354.73C74.0359 353.127 76.4692 352.249 78.9823 352.245H92.8061L91.0623 359.535C90.325 362.611 88.5869 365.355 86.1209 367.336C83.655 369.317 80.6009 370.423 77.4382 370.481Z" fill="#E6E6E6"/>
<path id="Vector_26" d="M127.418 376.248H130.528L142.765 432.593H139.656L127.418 376.248Z" fill="#E0E0E0"/>
<path id="Vector_27" d="M115.748 376.248H118.857L131.094 432.593H127.985L115.748 376.248Z" fill="#E0E0E0"/>
<path id="Vector_28" d="M69.9382 376.248H66.8289L54.5913 432.593H57.7006L69.9382 376.248Z" fill="#E0E0E0"/>
<path id="Vector_29" d="M81.6086 376.248H78.4993L66.2617 432.593H69.371L81.6086 376.248Z" fill="#E0E0E0"/>
<path id="Vector_30" d="M249.561 302.045H222.417C217.634 302.11 213.009 303.764 209.268 306.745C205.528 309.727 202.885 313.868 201.755 318.516L194.581 348.464L179.875 348.411C176.469 348.412 173.17 349.599 170.545 351.77C167.92 353.94 166.134 356.957 165.494 360.302L163.53 370.565C162.046 370.791 160.663 371.451 159.554 372.463C158.446 373.474 157.661 374.791 157.301 376.248H230.044C234.822 376.182 239.443 374.53 243.181 371.553C246.919 368.575 249.562 364.441 250.695 359.798L260.989 316.793C261.458 315.048 261.516 313.218 261.16 311.447C260.803 309.676 260.042 308.011 258.935 306.583C257.829 305.154 256.406 304.002 254.78 303.214C253.154 302.427 251.367 302.027 249.561 302.045ZM178.246 370.481H167.353L169.181 361.027C169.657 358.558 170.977 356.331 172.914 354.729C174.852 353.127 177.287 352.249 179.801 352.245H193.635L191.881 359.535C191.147 362.615 189.408 365.362 186.939 367.344C184.47 369.326 181.412 370.43 178.246 370.481Z" fill="#E6E6E6"/>
<path id="Vector_31" d="M228.227 376.248H231.346L243.584 432.593H240.475L228.227 376.248Z" fill="#E0E0E0"/>
<path id="Vector_32" d="M216.556 376.248H219.665L231.914 432.593H228.804L216.556 376.248Z" fill="#E0E0E0"/>
<path id="Vector_33" d="M170.757 376.248H167.648L155.41 432.593H158.519L170.757 376.248Z" fill="#E0E0E0"/>
<path id="Vector_34" d="M182.427 376.248H179.318L167.081 432.593H170.19L182.427 376.248Z" fill="#E0E0E0"/>
<path id="Vector_35" d="M378.312 314.503H429.049L433.166 269.271H382.43L378.312 314.503Z" fill="#E6E6E6"/>
<path id="Vector_36" d="M376.59 314.503H427.326L431.433 269.271H380.708L376.59 314.503Z" fill="#F0F0F0"/>
<path id="Vector_37" d="M422.767 309.493L425.971 274.271H385.256L382.052 309.493H422.767Z" fill="white"/>
<path id="Vector_38" d="M366.569 281.467L363.564 314.503H387.872L390.886 281.467H366.569Z" fill="#E6E6E6"/>
<path id="Vector_39" d="M365.308 281.467L362.304 314.503H386.622L389.626 281.467H365.308Z" fill="#F0F0F0"/>
<path id="Vector_40" d="M368.638 285.123L366.296 310.837H383.292L385.634 285.123H368.638Z" fill="white"/>
</g>
<g id="Shadow">
<path id="path" d="M262.609 480.031C375.092 480.031 466.278 474.707 466.278 468.14C466.278 461.573 375.092 456.249 262.609 456.249C150.126 456.249 58.9399 461.573 58.9399 468.14C58.9399 474.707 150.126 480.031 262.609 480.031Z" fill="#F5F5F5"/>
</g>
<g id="design-stats">
<path id="Vector_41" d="M428.168 359.094H151.452C149.824 359.106 148.211 358.783 146.713 358.145C145.216 357.507 143.865 356.567 142.746 355.385C141.627 354.203 140.763 352.803 140.208 351.272C139.652 349.742 139.418 348.114 139.519 346.489L149.845 135.351C150.036 131.973 151.502 128.793 153.947 126.453C156.392 124.113 159.633 122.788 163.017 122.746H439.734C441.362 122.733 442.976 123.055 444.474 123.692C445.973 124.33 447.324 125.269 448.443 126.452C449.563 127.635 450.427 129.035 450.981 130.566C451.536 132.097 451.769 133.726 451.667 135.351L441.341 346.489C441.147 349.867 439.68 353.045 437.236 355.385C434.792 357.724 431.551 359.049 428.168 359.094Z" fill="#407BFF"/>
<path id="Vector_42" opacity="0.7" d="M428.168 359.094H151.452C149.824 359.106 148.211 358.783 146.713 358.145C145.216 357.507 143.865 356.567 142.746 355.385C141.627 354.203 140.763 352.803 140.208 351.272C139.652 349.742 139.418 348.114 139.519 346.489L149.845 135.351C150.036 131.973 151.502 128.793 153.947 126.453C156.392 124.113 159.633 122.788 163.017 122.746H439.734C441.362 122.733 442.976 123.055 444.474 123.692C445.973 124.33 447.324 125.269 448.443 126.452C449.563 127.635 450.427 129.035 450.981 130.566C451.536 132.097 451.769 133.726 451.667 135.351L441.341 346.489C441.147 349.867 439.68 353.045 437.236 355.385C434.792 357.724 431.551 359.049 428.168 359.094Z" fill="white"/>
<path id="Vector_43" d="M450.448 125.025C448.974 123.393 447.135 122.133 445.08 121.349L445.458 120.361C447.659 121.215 449.633 122.567 451.225 124.311L450.448 125.025Z" fill="#407BFF"/>
<path id="Vector_44" d="M439.87 119.342H417.748V120.393H439.87V119.342Z" fill="#407BFF"/>
<path id="Vector_45" d="M439.734 122.809H163.017C159.633 122.851 156.392 124.176 153.947 126.516C151.502 128.855 150.036 132.035 149.845 135.414H451.688C451.79 133.787 451.556 132.156 451 130.624C450.445 129.091 449.579 127.69 448.457 126.507C447.335 125.324 445.982 124.385 444.481 123.749C442.98 123.112 441.364 122.792 439.734 122.809Z" fill="#407BFF"/>
<path id="Vector_46" d="M147.964 344.85L157.565 149.605C157.655 148.031 158.34 146.551 159.481 145.462C160.622 144.374 162.134 143.76 163.71 143.744H436.981C437.74 143.735 438.493 143.883 439.193 144.179C439.892 144.474 440.523 144.91 441.046 145.46C441.57 146.01 441.974 146.662 442.234 147.375C442.495 148.088 442.605 148.848 442.559 149.605L433.01 344.861C432.92 346.437 432.234 347.921 431.091 349.011C429.948 350.101 428.434 350.716 426.855 350.733H153.542C152.781 350.74 152.027 350.59 151.327 350.293C150.627 349.996 149.995 349.558 149.472 349.006C148.949 348.454 148.545 347.8 148.285 347.085C148.026 346.37 147.916 345.609 147.964 344.85Z" fill="white"/>
<path id="Vector_47" opacity="0.3" d="M186.746 210.678H174.141C173.868 210.681 173.598 210.628 173.346 210.523C173.094 210.417 172.867 210.261 172.678 210.064C172.489 209.867 172.342 209.634 172.247 209.378C172.152 209.122 172.11 208.849 172.124 208.577L173.175 186.518C173.212 185.951 173.462 185.419 173.875 185.03C174.288 184.64 174.834 184.421 175.402 184.417H188.007C188.281 184.412 188.553 184.464 188.806 184.569C189.059 184.674 189.287 184.829 189.477 185.026C189.668 185.223 189.815 185.458 189.911 185.714C190.007 185.971 190.049 186.244 190.034 186.518L188.984 208.577C188.947 209.145 188.695 209.679 188.279 210.069C187.864 210.459 187.316 210.676 186.746 210.678Z" fill="#407BFF"/>
<path id="Vector_48" opacity="0.3" d="M211.978 210.678H199.373C199.1 210.68 198.829 210.626 198.578 210.52C198.326 210.414 198.099 210.258 197.909 210.062C197.72 209.865 197.572 209.632 197.475 209.377C197.378 209.122 197.334 208.85 197.346 208.577L198.617 182.526C198.659 181.959 198.912 181.429 199.326 181.04C199.74 180.651 200.286 180.432 200.854 180.425H213.459C213.732 180.424 214.003 180.477 214.254 180.583C214.506 180.689 214.733 180.845 214.923 181.042C215.112 181.238 215.26 181.471 215.357 181.726C215.454 181.981 215.498 182.253 215.487 182.526L214.216 208.577C214.173 209.144 213.92 209.674 213.506 210.063C213.092 210.452 212.546 210.672 211.978 210.678Z" fill="#407BFF"/>
<path id="Vector_49" opacity="0.3" d="M237.21 210.678H224.604C224.331 210.679 224.061 210.626 223.809 210.52C223.558 210.414 223.33 210.258 223.141 210.062C222.951 209.865 222.803 209.632 222.707 209.377C222.61 209.122 222.566 208.85 222.577 208.577L223.985 179.806C224.027 179.239 224.28 178.708 224.694 178.319C225.108 177.93 225.654 177.711 226.222 177.705H238.827C239.1 177.703 239.371 177.757 239.622 177.863C239.874 177.969 240.101 178.125 240.291 178.321C240.48 178.517 240.628 178.75 240.725 179.005C240.822 179.261 240.866 179.533 240.855 179.806L239.499 208.545C239.464 209.127 239.207 209.673 238.781 210.07C238.355 210.466 237.792 210.684 237.21 210.678Z" fill="#407BFF"/>
<path id="Vector_50" opacity="0.3" d="M262.451 210.678H249.846C249.574 210.679 249.304 210.626 249.053 210.519C248.802 210.413 248.575 210.257 248.386 210.061C248.197 209.864 248.051 209.631 247.955 209.376C247.859 209.121 247.817 208.849 247.829 208.577L249.353 177.337C249.395 176.77 249.648 176.24 250.062 175.851C250.476 175.462 251.022 175.242 251.59 175.236H264.195C264.468 175.234 264.739 175.288 264.99 175.394C265.242 175.5 265.469 175.656 265.659 175.852C265.848 176.049 265.996 176.281 266.093 176.537C266.19 176.792 266.234 177.064 266.223 177.337L264.71 208.545C264.68 209.123 264.429 209.667 264.008 210.064C263.588 210.461 263.03 210.681 262.451 210.678Z" fill="#407BFF"/>
<path id="Vector_51" d="M287.683 210.678H275.078C274.805 210.679 274.535 210.626 274.283 210.52C274.031 210.414 273.804 210.258 273.614 210.061C273.425 209.865 273.277 209.632 273.18 209.377C273.083 209.122 273.039 208.85 273.051 208.577L275.046 167.809C275.086 167.242 275.339 166.71 275.753 166.321C276.168 165.931 276.715 165.712 277.284 165.709H289.889C290.162 165.707 290.432 165.761 290.684 165.867C290.936 165.973 291.163 166.128 291.353 166.325C291.542 166.521 291.69 166.754 291.787 167.009C291.884 167.264 291.928 167.537 291.916 167.809L289.921 208.545C289.886 209.118 289.636 209.656 289.221 210.051C288.806 210.447 288.257 210.671 287.683 210.678Z" fill="#407BFF"/>
<path id="Vector_52" d="M284.395 161.328L285.592 159.417C285.658 159.313 285.695 159.194 285.699 159.071C285.704 158.949 285.674 158.827 285.615 158.72C285.556 158.612 285.469 158.523 285.364 158.461C285.258 158.398 285.137 158.366 285.015 158.366H282.798C282.674 158.362 282.551 158.392 282.442 158.452C282.333 158.513 282.243 158.602 282.181 158.71C282.12 158.819 282.089 158.942 282.092 159.066C282.095 159.19 282.132 159.312 282.199 159.417L283.25 161.328C283.31 161.426 283.394 161.507 283.495 161.563C283.595 161.619 283.708 161.648 283.822 161.648C283.937 161.648 284.05 161.619 284.15 161.563C284.251 161.507 284.335 161.426 284.395 161.328Z" fill="#263238"/>
<path id="Vector_53" opacity="0.3" d="M312.915 210.678H300.309C300.036 210.679 299.766 210.626 299.514 210.52C299.263 210.414 299.035 210.258 298.846 210.061C298.656 209.865 298.509 209.632 298.412 209.377C298.315 209.122 298.271 208.85 298.282 208.577L299.963 174.238C300.005 173.671 300.258 173.141 300.672 172.752C301.087 172.363 301.632 172.144 302.2 172.137H314.805C315.078 172.136 315.349 172.189 315.6 172.295C315.852 172.401 316.079 172.557 316.269 172.754C316.459 172.95 316.606 173.183 316.703 173.438C316.8 173.693 316.844 173.965 316.833 174.238L315.131 208.545C315.099 209.115 314.853 209.652 314.442 210.047C314.031 210.443 313.485 210.668 312.915 210.678Z" fill="#407BFF"/>
<path id="Vector_54" opacity="0.1" d="M314.017 217.527H172.408C172.318 217.528 172.228 217.511 172.145 217.477C172.062 217.442 171.987 217.391 171.925 217.325C171.863 217.26 171.815 217.183 171.784 217.098C171.753 217.014 171.74 216.923 171.746 216.834C171.759 216.647 171.842 216.472 171.978 216.343C172.115 216.215 172.294 216.142 172.481 216.14H314.08C314.17 216.139 314.26 216.156 314.343 216.19C314.426 216.225 314.501 216.277 314.563 216.342C314.625 216.407 314.673 216.484 314.704 216.569C314.735 216.654 314.748 216.744 314.742 216.834C314.734 217.02 314.654 217.197 314.519 217.326C314.384 217.455 314.204 217.527 314.017 217.527Z" fill="#263238"/>
<path id="Vector_55" opacity="0.1" d="M324.101 340.344L333.219 154.101C333.227 153.923 333.304 153.755 333.433 153.631C333.562 153.508 333.734 153.439 333.912 153.44H333.975C334.061 153.438 334.147 153.454 334.226 153.487C334.305 153.52 334.377 153.57 334.436 153.632C334.495 153.694 334.541 153.768 334.57 153.849C334.599 153.93 334.612 154.016 334.606 154.101L325.498 340.344C325.488 340.522 325.411 340.69 325.283 340.815C325.154 340.939 324.984 341.011 324.805 341.016H324.732C324.646 341.015 324.561 340.996 324.482 340.961C324.404 340.927 324.333 340.876 324.274 340.814C324.215 340.751 324.169 340.677 324.14 340.596C324.11 340.515 324.097 340.43 324.101 340.344Z" fill="#263238"/>
<path id="Vector_56" d="M370.856 188.787C369.897 193.832 370.792 199.055 373.377 203.493L367.138 207.38C363.718 201.482 362.528 194.552 363.787 187.852C365.082 180.992 368.643 174.766 373.897 170.17C379.152 165.574 385.797 162.875 392.768 162.505V169.669C387.499 169.928 382.47 171.956 378.494 175.425C374.518 178.893 371.828 183.601 370.856 188.787Z" fill="#407BFF"/>
<path id="Vector_57" opacity="0.3" d="M420.175 180.551L413.41 183.283C412.113 179.714 409.859 176.572 406.894 174.2C403.929 171.828 400.369 170.319 396.603 169.837C395.336 169.663 394.057 169.603 392.779 169.658V162.494C398.668 162.221 404.492 163.821 409.415 167.066C414.337 170.31 418.104 175.032 420.175 180.551Z" fill="#407BFF"/>
<path id="Vector_58" d="M421.372 195.551C418.473 211.455 403.094 222.789 387.296 220.678C383.144 220.143 379.17 218.667 375.677 216.363C372.183 214.058 369.263 210.985 367.138 207.379L373.377 203.535C374.976 206.26 377.178 208.583 379.815 210.324C382.452 212.065 385.453 213.178 388.588 213.577C394.472 214.27 400.399 212.703 405.173 209.193C409.946 205.683 413.209 200.492 414.302 194.669C415.013 190.88 414.694 186.969 413.378 183.345L420.143 180.614C421.868 185.397 422.292 190.551 421.372 195.551Z" fill="#263238"/>
<path id="Vector_59" d="M370.678 167.169C370.606 167.17 370.534 167.157 370.468 167.13C370.401 167.102 370.34 167.062 370.289 167.011L365.636 162.106H349.648C349.509 162.106 349.375 162.05 349.277 161.952C349.178 161.853 349.123 161.72 349.123 161.58C349.123 161.441 349.178 161.308 349.277 161.209C349.375 161.111 349.509 161.055 349.648 161.055H365.857C365.928 161.055 365.998 161.07 366.064 161.099C366.129 161.128 366.187 161.17 366.235 161.223L371.056 166.286C371.13 166.359 371.181 166.452 371.201 166.554C371.221 166.656 371.21 166.762 371.169 166.857C371.128 166.953 371.06 167.033 370.972 167.089C370.884 167.145 370.782 167.172 370.678 167.169Z" fill="#263238"/>
<path id="Vector_60" opacity="0.3" d="M401.088 250.195C396.699 247.479 391.472 246.452 386.382 247.306L385.604 240.216C392.334 239.123 399.233 240.479 405.048 244.039C416.802 251.329 421.246 266.393 415.552 279.576L408.987 277.013C413.262 267.254 410.143 255.804 401.088 250.195Z" fill="#407BFF"/>
<path id="Vector_61" d="M386.844 298.316L387.327 291.141C391.263 291.18 395.145 290.22 398.609 288.352C402.074 286.484 405.008 283.768 407.139 280.458C407.856 279.365 408.478 278.212 408.998 277.013L415.563 279.576C414.876 281.17 414.053 282.702 413.105 284.156C410.275 288.536 406.383 292.131 401.792 294.607C397.202 297.082 392.06 298.358 386.844 298.316Z" fill="#263238"/>
<path id="Vector_62" d="M372.495 294.146C359.154 285.879 355.541 267.759 364.48 254.019C366.847 250.366 369.953 247.25 373.599 244.872C377.245 242.495 381.349 240.908 385.646 240.216L386.424 247.307C383.18 247.825 380.081 249.019 377.328 250.812C374.575 252.606 372.231 254.958 370.447 257.717C363.661 268.158 366.371 281.719 376.497 288.001C379.752 290.019 383.497 291.108 387.327 291.152L386.844 298.326C381.771 298.257 376.811 296.812 372.495 294.146Z" fill="#407BFF"/>
<path id="Vector_63" d="M366.886 244.575C366.742 244.571 366.607 244.511 366.507 244.407L361.843 239.502H345.856C345.716 239.502 345.583 239.446 345.484 239.348C345.386 239.249 345.331 239.116 345.331 238.976C345.331 238.837 345.386 238.703 345.484 238.605C345.583 238.506 345.716 238.451 345.856 238.451H362.075C362.218 238.455 362.354 238.516 362.453 238.619L367.264 243.682C367.313 243.731 367.352 243.789 367.379 243.853C367.405 243.917 367.419 243.986 367.419 244.055C367.419 244.125 367.405 244.193 367.379 244.257C367.352 244.321 367.313 244.379 367.264 244.428C367.16 244.522 367.025 244.574 366.886 244.575Z" fill="#263238"/>
<path id="Vector_64" d="M353.009 324.408H347.694C346.975 324.42 346.288 324.702 345.768 325.199C345.248 325.695 344.934 326.37 344.889 327.087L344.627 332.413C344.607 332.759 344.658 333.106 344.777 333.432C344.897 333.757 345.082 334.055 345.321 334.306C345.561 334.557 345.849 334.757 346.169 334.892C346.488 335.027 346.832 335.095 347.179 335.091H352.495C353.215 335.082 353.906 334.801 354.428 334.304C354.95 333.807 355.265 333.132 355.31 332.413L355.572 327.087C355.591 326.74 355.538 326.393 355.418 326.067C355.297 325.741 355.111 325.444 354.871 325.193C354.631 324.942 354.341 324.743 354.021 324.608C353.701 324.473 353.357 324.405 353.009 324.408Z" fill="#407BFF"/>
<path id="Vector_65" d="M382.821 324.409H377.506C376.778 324.418 376.082 324.705 375.559 325.211C375.036 325.716 374.725 326.402 374.69 327.129L374.438 332.455C374.418 332.8 374.469 333.146 374.588 333.471C374.707 333.796 374.891 334.094 375.129 334.345C375.368 334.596 375.655 334.795 375.973 334.931C376.292 335.067 376.634 335.135 376.98 335.133H382.359C383.077 335.122 383.765 334.839 384.285 334.343C384.805 333.846 385.119 333.172 385.163 332.455L385.426 327.129C385.453 326.775 385.405 326.419 385.285 326.084C385.165 325.75 384.976 325.445 384.73 325.188C384.484 324.931 384.187 324.729 383.858 324.595C383.529 324.461 383.176 324.397 382.821 324.409Z" fill="#263238"/>
<path id="Vector_66" opacity="0.3" d="M412.643 324.409H407.317C406.598 324.421 405.911 324.703 405.391 325.199C404.871 325.696 404.557 326.37 404.512 327.087L404.25 332.413C404.23 332.759 404.281 333.105 404.4 333.43C404.518 333.755 404.703 334.052 404.941 334.303C405.179 334.554 405.466 334.753 405.785 334.889C406.103 335.025 406.446 335.094 406.792 335.092H412.118C412.842 335.082 413.536 334.796 414.057 334.292C414.578 333.789 414.888 333.105 414.922 332.382L415.185 327.056C415.201 326.713 415.146 326.37 415.026 326.049C414.905 325.728 414.72 325.434 414.482 325.187C414.244 324.939 413.959 324.743 413.642 324.609C413.326 324.475 412.986 324.407 412.643 324.409Z" fill="#407BFF"/>
<g id="25.54%">
<text transform="matrix(1 0 -0.0499376 0.998752 180.946 250.094)" fill="#263238" xml:space="preserve" style="white-space: pre" font-family="Inter" font-size="10.7732" font-weight="bold" letter-spacing="0em"><tspan x="0" y="10.4175">25.54</tspan></text>
<text transform="matrix(1 0 -0.0499376 0.998752 180.946 250.094)" fill="#263238" xml:space="preserve" style="white-space: pre" font-family="Inter" font-size="7.17766" font-weight="bold" letter-spacing="0em"><tspan x="30.8678" y="10.4175">%</tspan></text>
</g>
<path id="Vector_67" d="M226.631 277.538H226.505C226.438 277.523 226.374 277.495 226.318 277.455C226.261 277.415 226.213 277.364 226.177 277.305C226.141 277.247 226.117 277.181 226.106 277.113C226.096 277.045 226.099 276.975 226.117 276.908C229.667 261.981 237.199 246.687 246.075 246.193C252.01 245.857 255.392 250.815 259.31 256.54C262.147 260.668 265.35 265.343 270.046 268.872C273.281 271.299 276.58 271.929 279.857 270.752C287.157 268.116 294.143 256.235 298.093 239.754C298.109 239.685 298.139 239.62 298.181 239.563C298.222 239.505 298.275 239.457 298.335 239.419C298.396 239.382 298.463 239.358 298.533 239.347C298.603 239.335 298.675 239.338 298.744 239.355C298.813 239.371 298.878 239.401 298.935 239.443C298.993 239.485 299.041 239.537 299.078 239.598C299.115 239.658 299.14 239.725 299.151 239.795C299.162 239.865 299.16 239.937 299.143 240.006C295.057 257.076 287.987 268.946 280.235 271.74C276.601 273.042 272.966 272.359 269.437 269.712C264.605 266.088 261.348 261.309 258.47 257.107C254.562 251.414 251.495 246.928 246.159 247.212C237.871 247.674 230.676 262.569 227.251 277.118C227.238 277.186 227.212 277.252 227.174 277.31C227.136 277.369 227.087 277.419 227.029 277.458C226.972 277.497 226.907 277.524 226.838 277.538C226.77 277.552 226.7 277.552 226.631 277.538Z" fill="#407BFF"/>
<path id="Vector_68" opacity="0.1" d="M303.576 284.807H176.316C175.229 284.814 174.151 284.599 173.15 284.174C172.149 283.749 171.246 283.124 170.496 282.336C169.746 281.549 169.165 280.617 168.79 279.596C168.414 278.576 168.251 277.489 168.312 276.404L170.171 239.344C170.296 237.091 171.273 234.969 172.903 233.409C174.533 231.849 176.696 230.966 178.952 230.941H306.16C307.248 230.933 308.325 231.149 309.326 231.573C310.327 231.998 311.23 232.624 311.98 233.411C312.73 234.198 313.311 235.131 313.687 236.152C314.062 237.172 314.225 238.258 314.165 239.344L312.358 276.393C312.235 278.648 311.26 280.772 309.629 282.335C307.998 283.897 305.835 284.781 303.576 284.807ZM178.9 232.023C176.921 232.045 175.024 232.816 173.59 234.18C172.156 235.544 171.291 237.4 171.169 239.376L169.362 276.425C169.3 277.373 169.434 278.323 169.756 279.217C170.078 280.111 170.582 280.928 171.234 281.619C171.887 282.309 172.675 282.857 173.55 283.228C174.424 283.6 175.366 283.787 176.316 283.778H303.576C305.555 283.755 307.452 282.984 308.887 281.62C310.321 280.256 311.186 278.4 311.307 276.425L313.125 239.376C313.184 238.427 313.047 237.477 312.723 236.584C312.399 235.691 311.895 234.874 311.242 234.185C310.588 233.495 309.8 232.947 308.926 232.575C308.052 232.203 307.11 232.015 306.16 232.023H178.9Z" fill="#263238"/>
<path id="Vector_69" opacity="0.1" d="M203.848 241.477H183.28C182.967 241.477 182.657 241.414 182.37 241.29C182.082 241.167 181.822 240.986 181.607 240.759C181.392 240.532 181.225 240.263 181.117 239.969C181.009 239.675 180.962 239.363 180.98 239.05C181.014 238.411 181.291 237.809 181.753 237.366C182.215 236.923 182.829 236.673 183.469 236.666H204.026C204.34 236.664 204.651 236.726 204.94 236.849C205.229 236.972 205.489 237.152 205.706 237.379C205.922 237.607 206.09 237.876 206.199 238.17C206.307 238.465 206.354 238.779 206.337 239.092C206.3 239.73 206.023 240.331 205.561 240.774C205.099 241.216 204.487 241.467 203.848 241.477ZM183.469 237.716C183.1 237.723 182.748 237.869 182.481 238.123C182.215 238.378 182.054 238.724 182.03 239.092C182.017 239.264 182.04 239.437 182.098 239.6C182.156 239.763 182.247 239.912 182.366 240.037C182.485 240.159 182.627 240.256 182.784 240.323C182.941 240.39 183.11 240.425 183.28 240.426H203.848C204.216 240.417 204.567 240.27 204.833 240.016C205.099 239.762 205.261 239.417 205.287 239.05C205.298 238.877 205.272 238.704 205.213 238.541C205.153 238.378 205.06 238.23 204.94 238.105C204.824 237.979 204.682 237.88 204.524 237.813C204.367 237.746 204.197 237.713 204.026 237.716H183.469Z" fill="#263238"/>
<path id="Vector_70" d="M185.192 272.717H179.855L179.593 278.053H184.929L185.192 272.717Z" fill="#407BFF"/>
<path id="Vector_71" opacity="0.3" d="M191.043 340.964H180.16C179.69 340.967 179.223 340.874 178.79 340.691C178.357 340.507 177.965 340.237 177.641 339.896C177.316 339.556 177.064 339.152 176.901 338.711C176.739 338.269 176.668 337.799 176.694 337.329L177.229 326.436C177.288 325.46 177.713 324.541 178.42 323.865C179.127 323.189 180.064 322.805 181.042 322.791H191.936C192.407 322.787 192.873 322.881 193.307 323.065C193.74 323.249 194.131 323.521 194.456 323.863C194.78 324.204 195.03 324.609 195.191 325.052C195.352 325.495 195.42 325.966 195.391 326.436L194.866 337.329C194.803 338.305 194.374 339.221 193.665 339.894C192.957 340.568 192.02 340.95 191.043 340.964Z" fill="#407BFF"/>
<path id="Vector_72" opacity="0.1" d="M232.798 335.018H204.719C204.311 335.022 203.907 334.941 203.531 334.782C203.155 334.623 202.816 334.389 202.534 334.093C202.253 333.798 202.035 333.448 201.894 333.065C201.753 332.682 201.692 332.274 201.715 331.867C201.755 331.024 202.116 330.228 202.723 329.643C203.33 329.057 204.138 328.725 204.982 328.715H233.05C233.458 328.713 233.862 328.795 234.238 328.954C234.613 329.114 234.953 329.348 235.235 329.643C235.517 329.938 235.736 330.287 235.879 330.669C236.021 331.052 236.084 331.459 236.064 331.867C236.024 332.709 235.664 333.505 235.057 334.091C234.449 334.677 233.641 335.008 232.798 335.018ZM204.982 329.766C204.416 329.775 203.873 329.995 203.461 330.384C203.049 330.773 202.797 331.302 202.755 331.867C202.743 332.133 202.784 332.4 202.876 332.651C202.968 332.901 203.109 333.131 203.291 333.327C203.476 333.518 203.698 333.67 203.944 333.773C204.189 333.876 204.453 333.928 204.719 333.926H232.798C233.364 333.921 233.909 333.702 234.32 333.312C234.731 332.922 234.979 332.39 235.014 331.825C235.033 331.557 234.995 331.289 234.902 331.037C234.81 330.786 234.665 330.556 234.478 330.365C234.295 330.17 234.073 330.016 233.828 329.911C233.582 329.806 233.317 329.753 233.05 329.755L204.982 329.766Z" fill="#263238"/>
<path id="Vector_73" d="M185.927 335.018C185.858 335.015 185.79 334.999 185.728 334.97C185.665 334.941 185.608 334.9 185.562 334.849C185.515 334.799 185.478 334.739 185.455 334.674C185.431 334.61 185.42 334.541 185.423 334.472L185.654 329.818C185.654 329.749 185.668 329.68 185.696 329.616C185.724 329.553 185.765 329.496 185.817 329.449C185.868 329.403 185.929 329.367 185.995 329.346C186.061 329.324 186.131 329.317 186.2 329.325C186.269 329.327 186.337 329.344 186.4 329.373C186.462 329.401 186.519 329.442 186.565 329.493C186.612 329.544 186.649 329.603 186.673 329.668C186.696 329.733 186.707 329.802 186.704 329.871L186.473 334.524C186.465 334.662 186.403 334.79 186.301 334.883C186.199 334.975 186.065 335.024 185.927 335.018Z" fill="#407BFF"/>
<path id="Vector_74" d="M183.921 331.94C183.777 331.936 183.642 331.876 183.543 331.772C183.493 331.723 183.454 331.665 183.428 331.601C183.401 331.537 183.387 331.469 183.387 331.399C183.387 331.33 183.401 331.261 183.428 331.197C183.454 331.133 183.493 331.075 183.543 331.026L185.79 328.925C185.892 328.829 186.028 328.776 186.169 328.778C186.308 328.787 186.439 328.847 186.536 328.946L188.574 331.047C188.67 331.149 188.722 331.285 188.718 331.425C188.714 331.564 188.655 331.697 188.553 331.793C188.451 331.889 188.316 331.941 188.176 331.937C188.036 331.933 187.903 331.874 187.807 331.772L186.137 330.007L184.267 331.793C184.172 331.88 184.05 331.932 183.921 331.94Z" fill="#407BFF"/>
<text id="$323,078.00" transform="matrix(1 0 -0.0499376 0.998752 178.551 298.929)" fill="#263238" xml:space="preserve" style="white-space: pre" font-family="Inter" font-size="10.7732" font-weight="bold" letter-spacing="0em"><tspan x="0" y="10.4175">$323,078.00</tspan></text>
<path id="Vector_75" opacity="0.4" d="M262.85 322.791H251.968C250.989 322.805 250.051 323.188 249.342 323.864C248.633 324.54 248.205 325.459 248.144 326.436L247.619 337.329C247.592 337.799 247.661 338.269 247.823 338.71C247.984 339.151 248.235 339.555 248.559 339.896C248.883 340.236 249.273 340.507 249.706 340.691C250.139 340.874 250.605 340.967 251.075 340.964H261.968C262.945 340.95 263.88 340.568 264.587 339.894C265.294 339.22 265.72 338.304 265.781 337.329L266.317 326.436C266.344 325.965 266.275 325.494 266.112 325.051C265.95 324.609 265.699 324.204 265.374 323.862C265.049 323.52 264.657 323.249 264.223 323.065C263.789 322.881 263.322 322.787 262.85 322.791Z" fill="#263238"/>
<path id="Vector_76" opacity="0.1" d="M303.712 335.018H275.645C275.237 335.02 274.833 334.939 274.457 334.779C274.081 334.62 273.742 334.385 273.46 334.09C273.178 333.796 272.959 333.446 272.816 333.064C272.673 332.682 272.61 332.274 272.63 331.867C272.67 331.024 273.031 330.228 273.638 329.643C274.245 329.057 275.053 328.725 275.897 328.715H303.975C304.383 328.715 304.786 328.797 305.161 328.957C305.536 329.117 305.875 329.351 306.157 329.646C306.438 329.941 306.658 330.289 306.801 330.671C306.944 331.053 307.008 331.459 306.99 331.867C306.947 332.71 306.584 333.506 305.975 334.092C305.366 334.677 304.557 335.008 303.712 335.018ZM275.897 329.766C275.332 329.775 274.79 329.996 274.38 330.385C273.969 330.774 273.72 331.303 273.681 331.867C273.668 332.133 273.709 332.4 273.801 332.651C273.893 332.901 274.034 333.131 274.216 333.327C274.401 333.519 274.623 333.671 274.869 333.774C275.114 333.877 275.378 333.928 275.645 333.925H303.712C304.28 333.921 304.826 333.702 305.239 333.313C305.652 332.923 305.902 332.391 305.939 331.825C305.96 331.555 305.924 331.284 305.834 331.029C305.745 330.774 305.603 330.541 305.418 330.343C305.234 330.146 305.01 329.989 304.762 329.882C304.513 329.775 304.245 329.722 303.975 329.724L275.897 329.766Z" fill="#263238"/>
<path id="Vector_77" d="M256.863 334.482C256.794 334.48 256.726 334.463 256.664 334.435C256.601 334.406 256.545 334.365 256.498 334.314C256.451 334.263 256.414 334.204 256.391 334.139C256.367 334.074 256.356 334.005 256.359 333.936L256.59 329.283C256.59 329.213 256.604 329.144 256.632 329.08C256.66 329.016 256.701 328.958 256.752 328.911C256.804 328.863 256.864 328.827 256.93 328.804C256.996 328.782 257.066 328.773 257.136 328.779C257.276 328.787 257.408 328.85 257.502 328.954C257.596 329.058 257.646 329.195 257.64 329.335L257.409 333.978C257.407 334.047 257.39 334.115 257.361 334.178C257.332 334.24 257.291 334.297 257.241 334.344C257.19 334.39 257.13 334.427 257.066 334.451C257.001 334.474 256.932 334.485 256.863 334.482Z" fill="white"/>
<path id="Vector_78" d="M256.842 335.018C256.704 335.013 256.573 334.957 256.474 334.86L254.437 332.76C254.387 332.711 254.348 332.653 254.322 332.589C254.295 332.525 254.281 332.456 254.281 332.387C254.281 332.317 254.295 332.249 254.322 332.185C254.348 332.121 254.387 332.063 254.437 332.014C254.485 331.965 254.544 331.925 254.608 331.899C254.672 331.872 254.74 331.858 254.81 331.858C254.879 331.858 254.948 331.872 255.012 331.899C255.076 331.925 255.134 331.965 255.182 332.014L256.853 333.779L258.722 331.993C258.771 331.944 258.829 331.904 258.893 331.878C258.957 331.851 259.026 331.837 259.095 331.837C259.165 331.837 259.233 331.851 259.297 331.878C259.361 331.904 259.419 331.944 259.468 331.993C259.517 332.041 259.556 332.098 259.582 332.161C259.609 332.224 259.623 332.292 259.623 332.36C259.623 332.429 259.609 332.497 259.582 332.56C259.556 332.623 259.517 332.68 259.468 332.728L257.22 334.881C257.116 334.973 256.981 335.021 256.842 335.018Z" fill="white"/>
</g>
<g id="Character">
<path id="Vector_79" d="M117.765 151.706C113.563 157.179 112.785 164.721 113.027 168.576C113.321 173.356 107.071 173.576 108.825 181.896C110.327 189.102 105.947 191.35 106.052 196.99C106.283 210.068 118.017 213.934 139.897 210.068C161.778 206.203 148.637 186.224 151.557 178.356C154.477 170.488 152.166 152.042 146.305 152.872C146.946 138.985 126.2 140.792 117.765 151.706Z" fill="#263238"/>
<path id="Vector_80" d="M125.16 210.531C125.013 213.188 124.729 215.583 124.382 218.094C124.036 220.605 123.584 223.042 123.027 225.5C122.471 227.958 121.84 230.437 121.063 232.853C120.271 235.364 119.313 237.821 118.195 240.206L117.954 240.731C117.392 241.951 116.385 242.91 115.138 243.41C113.892 243.91 112.501 243.914 111.252 243.42C109.814 242.828 108.411 242.155 107.05 241.403C105.716 240.689 104.487 239.891 103.248 239.113C102.008 238.336 100.842 237.464 99.6865 236.582C98.5311 235.699 97.4176 234.796 96.3146 233.767C95.8519 233.277 95.5546 232.655 95.4647 231.987C95.3749 231.319 95.4971 230.64 95.814 230.046C96.131 229.452 96.6267 228.972 97.231 228.674C97.8354 228.377 98.518 228.277 99.1823 228.388H99.2874C100.632 228.693 101.987 229.092 103.311 229.439L107.25 230.594L111.084 231.718C112.323 232.075 113.563 232.38 114.666 232.622L107.712 235.836C108.395 233.882 108.951 231.792 109.477 229.649C110.002 227.506 110.39 225.289 110.779 223.063C111.168 220.836 111.493 218.577 111.83 216.308C112.166 214.039 112.397 211.707 112.638 209.596V209.48C112.778 207.809 113.575 206.261 114.856 205.178C116.136 204.094 117.795 203.564 119.466 203.703C121.138 203.842 122.686 204.64 123.769 205.92C124.853 207.201 125.383 208.859 125.244 210.531H125.16Z" fill="#B55B52"/>
<path id="Vector_81" d="M95.4848 224.764L92.9007 223.85C92.5836 223.738 92.2473 223.69 91.9116 223.709C91.5758 223.728 91.2472 223.814 90.945 223.962C90.6428 224.11 90.3731 224.316 90.1516 224.569C89.93 224.822 89.7612 225.117 89.6548 225.436L88.6674 228.388C88.4772 228.957 88.4965 229.576 88.7218 230.132C88.9471 230.689 89.3637 231.147 89.8964 231.424L93.1318 233.125C93.1318 233.125 98.384 237.159 101.021 234.69L102.46 230.489L98.5625 226.697C97.6868 225.84 96.6372 225.18 95.4848 224.764Z" fill="#B55B52"/>
<path id="Vector_82" d="M123.878 196.077C116.136 197.537 114.498 200.699 108.794 212.453C110.517 220.184 125.212 226.98 125.212 226.98C125.212 226.98 136.641 206.077 123.878 196.077Z" fill="#263238"/>
<path id="Vector_83" d="M137.166 461.281C142.019 454.81 142.418 453.024 145.475 449.621C147.154 447.67 149.058 445.924 151.147 444.421C153.185 442.772 151.967 440.387 150.097 439.379C148.637 438.602 147.029 437.908 145.265 436.879L137.26 443.413C138.048 447.121 136.399 454.852 133.059 459.999C130.611 463.686 135.223 463.865 137.166 461.281Z" fill="#263238"/>
<path id="Vector_84" d="M113.531 254.933C113.531 254.933 106.073 307.265 100.516 342.97C99.3842 349.916 100.064 357.036 102.491 363.642C111.998 388.968 136.641 444.032 136.641 444.032C137.775 445.146 144.593 438.664 145.254 436.879C145.254 436.879 136.735 367.287 123.489 351.688C150.517 295.931 150.097 254.933 150.097 254.933H113.531Z" fill="#407BFF"/>
<g id="Group" opacity="0.2">
<path id="Vector_85" d="M150.076 256.487L130.118 257.884C130.118 257.884 126.252 315.364 125.422 347.592C147.576 300.175 149.845 264.219 150.076 256.487Z" fill="black"/>
<path id="Vector_86" d="M125.307 354.188C125.034 370.712 124.204 392.214 122.576 412.078C127.628 423.706 132.177 433.99 134.666 439.578C137.061 432.656 139.729 424.389 142.135 415.628C138.784 395.408 132.912 366.247 125.307 354.188Z" fill="black"/>
</g>
<path id="Vector_87" d="M133.112 441.312C133.721 442.205 134.782 443.812 135.517 445.03C135.583 445.126 135.668 445.208 135.766 445.27C135.864 445.332 135.974 445.374 136.089 445.393C136.204 445.411 136.321 445.406 136.434 445.378C136.547 445.35 136.653 445.3 136.746 445.23C140.111 442.828 143.273 440.155 146.2 437.236C146.34 437.105 146.438 436.935 146.481 436.748C146.524 436.56 146.51 436.365 146.442 436.186L144.835 432.53C144.775 432.412 144.689 432.309 144.583 432.23C144.477 432.15 144.355 432.096 144.225 432.072C144.095 432.047 143.961 432.053 143.833 432.089C143.706 432.125 143.588 432.189 143.49 432.278L133.406 440.062C133.21 440.196 133.072 440.399 133.018 440.63C132.963 440.861 132.997 441.104 133.112 441.312Z" fill="#407BFF"/>
<path id="Vector_88" opacity="0.3" d="M133.112 441.312C133.721 442.205 134.782 443.812 135.517 445.03C135.583 445.126 135.668 445.208 135.766 445.27C135.864 445.332 135.974 445.374 136.089 445.393C136.204 445.411 136.321 445.406 136.434 445.378C136.547 445.35 136.653 445.3 136.746 445.23C140.111 442.828 143.273 440.155 146.2 437.236C146.34 437.105 146.438 436.935 146.481 436.748C146.524 436.56 146.51 436.365 146.442 436.186L144.835 432.53C144.775 432.412 144.689 432.309 144.583 432.23C144.477 432.15 144.355 432.096 144.225 432.072C144.095 432.047 143.961 432.053 143.833 432.089C143.706 432.125 143.588 432.189 143.49 432.278L133.406 440.062C133.21 440.196 133.072 440.399 133.018 440.63C132.963 440.861 132.997 441.104 133.112 441.312Z" fill="white"/>
<path id="Vector_89" d="M109.319 463.865C116.945 465.377 119.886 465.85 124.235 466.564C127.954 467.163 128.647 467.783 131.588 468.308C134.067 468.739 134.949 466.47 135.307 463.717C135.496 462.341 135.832 458.948 136.22 456.743L124.403 456.112C121.588 458.675 114.077 459.516 109.55 459.264C105.254 458.927 106.283 463.255 109.319 463.865Z" fill="#263238"/>
<path id="Vector_90" d="M124.498 254.933C124.498 254.933 128.416 322.161 129.141 352.623C129.887 384.609 129.277 434.557 123.479 455.839C125.065 456.89 132.418 456.89 136.252 455.776C136.252 455.776 160.129 388.023 151.137 354.041C169.236 279.187 158.49 261.508 155.475 254.964L124.498 254.933Z" fill="#407BFF"/>
<path id="Vector_91" d="M124.488 451.459C124.003 452.896 123.424 454.3 122.754 455.661C122.688 455.759 122.647 455.871 122.634 455.988C122.62 456.106 122.635 456.224 122.678 456.335C122.72 456.445 122.788 456.543 122.876 456.622C122.965 456.7 123.071 456.756 123.185 456.785C127.271 457.835 133.805 457.446 135.895 457.278C136.098 457.258 136.292 457.187 136.459 457.071C136.626 456.955 136.761 456.799 136.851 456.617L138.732 452.688C138.8 452.58 138.839 452.456 138.844 452.328C138.849 452.2 138.821 452.073 138.761 451.96C138.701 451.847 138.612 451.752 138.504 451.684C138.396 451.616 138.271 451.579 138.143 451.575L125.643 450.671C125.393 450.666 125.147 450.74 124.94 450.881C124.733 451.022 124.575 451.224 124.488 451.459Z" fill="#407BFF"/>
<path id="Vector_92" opacity="0.3" d="M124.488 451.459C124.003 452.896 123.424 454.3 122.754 455.661C122.688 455.759 122.647 455.871 122.634 455.988C122.62 456.106 122.635 456.224 122.678 456.335C122.72 456.445 122.788 456.543 122.876 456.622C122.965 456.7 123.071 456.756 123.185 456.785C127.271 457.835 133.805 457.446 135.895 457.278C136.098 457.258 136.292 457.187 136.459 457.071C136.626 456.955 136.761 456.799 136.851 456.617L138.732 452.688C138.8 452.58 138.839 452.456 138.844 452.328C138.849 452.2 138.821 452.073 138.761 451.96C138.701 451.847 138.612 451.752 138.504 451.684C138.396 451.616 138.271 451.579 138.143 451.575L125.643 450.671C125.393 450.666 125.147 450.74 124.94 450.881C124.733 451.022 124.575 451.224 124.488 451.459Z" fill="white"/>
<path id="Vector_93" d="M155.181 195.52C153.511 195.352 151.757 195.205 149.929 195.121C143.589 194.669 137.225 194.669 130.885 195.121C128.784 195.31 126.683 195.573 124.582 195.856C120.961 196.384 117.636 198.156 115.178 200.869C112.721 203.581 111.285 207.064 111.115 210.72C110.989 214.848 111.882 221.077 112.744 230.899C113.878 243.704 110.758 250.216 113.489 254.933C118.836 260.017 143.385 257.475 155.433 254.933C159.057 250.269 151.967 238.126 163.501 208.23C165.854 202.253 161.4 196.15 155.181 195.52Z" fill="#263238"/>
<path id="Vector_94" d="M130.254 205.341C130.034 206.129 129.582 206.675 129.204 206.581C128.826 206.486 128.752 205.772 128.973 204.995C129.193 204.217 129.655 203.661 130.023 203.755C130.391 203.85 130.485 204.564 130.254 205.341Z" fill="white"/>
<path id="Vector_95" d="M128.721 211.823C128.616 212.632 128.248 213.251 127.891 213.199C127.534 213.146 127.334 212.474 127.429 211.665C127.523 210.856 127.901 210.247 128.248 210.289C128.595 210.331 128.815 211.014 128.721 211.823Z" fill="white"/>
<path id="Vector_96" d="M145.917 174.333C145.727 180.635 144.919 191.034 148.9 195.121C148.9 195.121 143.091 194.249 130.769 201.875C127.198 196.749 129.845 195.121 129.845 195.121C130.79 194.983 131.69 194.626 132.473 194.078C133.256 193.53 133.9 192.807 134.353 191.966C134.806 191.124 135.057 190.189 135.084 189.234C135.111 188.279 134.914 187.33 134.509 186.465L145.917 174.333Z" fill="#B55B52"/>
<path id="Vector_97" d="M133.406 200.341C137.471 200.919 138.742 207.043 138.742 207.043C138.742 207.043 148.49 200.152 151.578 195.289C150.352 194.6 149.163 193.846 148.017 193.03C148.017 193.03 135.727 197.999 133.406 200.341Z" fill="white"/>
<path id="Vector_98" d="M129.498 199.68C129.498 199.68 126.273 200.384 124.655 204.869C123.731 195.93 127.964 195.1 127.964 195.1C129.085 194.483 130.392 194.296 131.641 194.575C130.745 195.043 130.04 195.809 129.649 196.741C129.258 197.673 129.204 198.713 129.498 199.68Z" fill="white"/>
<path id="Vector_99" opacity="0.2" d="M138.784 182.652L137.177 183.629L134.509 186.465C135.2 187.908 135.291 189.567 134.761 191.076C137.807 189.9 140.874 187.516 141.683 184.942C141.805 184.56 141.806 184.149 141.689 183.766C141.571 183.382 141.34 183.044 141.025 182.795C140.71 182.547 140.327 182.4 139.927 182.374C139.527 182.349 139.128 182.445 138.784 182.652Z" fill="black"/>
<path id="Vector_100" d="M143.91 159.469C146.841 169.101 148.28 173.124 145.475 179.931C141.274 190.194 129.151 192.242 123.49 183.818C118.406 176.223 114.466 161.759 121.998 154.133C123.558 152.44 125.542 151.195 127.746 150.529C129.949 149.863 132.29 149.798 134.527 150.343C136.763 150.888 138.813 152.021 140.463 153.626C142.113 155.231 143.303 157.248 143.91 159.469Z" fill="#B55B52"/>
<path id="Vector_101" opacity="0.4" d="M133.669 153.807C131.2 160.383 137.051 168.566 145.423 167.935C149.32 160.488 146.957 154.794 144.877 152.473C142.797 150.151 136.494 149.752 133.669 153.807Z" fill="#263238"/>
<path id="Vector_102" d="M144.824 153.744C143.7 161.717 117.818 156.78 116.41 164.773C116.347 154.332 128.017 140.382 144.824 153.744Z" fill="#263238"/>
<path id="Vector_103" d="M131.199 169.301C131.473 170.1 131.304 170.919 130.811 171.129C130.317 171.339 129.687 170.866 129.403 170.079C129.12 169.291 129.298 168.461 129.792 168.24C130.286 168.02 130.916 168.513 131.199 169.301Z" fill="#263238"/>
<path id="Vector_104" d="M121.494 172.337C121.777 173.135 121.609 173.955 121.115 174.165C120.622 174.375 119.991 173.902 119.708 173.114C119.424 172.326 119.603 171.497 120.097 171.286C120.59 171.076 121.221 171.539 121.494 172.337Z" fill="#263238"/>
<path id="Vector_105" d="M120.328 171.223L118.321 171.454C118.321 171.454 119.75 172.547 120.328 171.223Z" fill="#263238"/>
<path id="Vector_106" d="M124.214 171.885C124.181 173.999 123.878 176.099 123.311 178.135C123.809 178.257 124.328 178.263 124.828 178.154C125.329 178.045 125.798 177.823 126.2 177.505L124.214 171.885Z" fill="#A02724"/>
<path id="Vector_107" d="M128.721 180.131C128.289 180.31 127.843 180.451 127.387 180.551C127.356 180.559 127.324 180.56 127.294 180.554C127.263 180.549 127.233 180.537 127.207 180.519C127.181 180.501 127.16 180.477 127.144 180.45C127.127 180.423 127.117 180.393 127.114 180.362C127.104 180.297 127.119 180.231 127.156 180.176C127.193 180.122 127.249 180.083 127.313 180.068C128.342 179.842 129.306 179.387 130.135 178.738C130.964 178.089 131.637 177.262 132.103 176.318C132.111 176.283 132.125 176.251 132.147 176.223C132.168 176.195 132.195 176.172 132.226 176.155C132.257 176.139 132.292 176.129 132.327 176.127C132.362 176.125 132.397 176.131 132.43 176.145C132.463 176.158 132.492 176.178 132.516 176.204C132.54 176.23 132.558 176.26 132.569 176.294C132.58 176.327 132.584 176.363 132.579 176.398C132.575 176.433 132.563 176.467 132.544 176.496C131.763 178.139 130.401 179.434 128.721 180.131Z" fill="#263238"/>
<path id="Vector_108" d="M150.034 167.747C150.091 168.711 149.945 169.678 149.605 170.582C149.264 171.487 148.738 172.31 148.059 172.999C146.316 174.616 144.194 172.757 143.626 170.068C143.122 167.652 143.416 163.891 145.727 163.345C148.038 162.799 149.971 165.152 150.034 167.747Z" fill="#B55B52"/>
<path id="Vector_109" d="M131 164.711C130.938 164.723 130.874 164.722 130.812 164.708C130.751 164.693 130.693 164.666 130.643 164.627C130.174 164.252 129.619 164.001 129.029 163.894C128.438 163.788 127.831 163.83 127.261 164.017C127.203 164.042 127.141 164.055 127.078 164.053C127.015 164.052 126.954 164.038 126.897 164.011C126.84 163.984 126.79 163.946 126.75 163.898C126.709 163.85 126.679 163.794 126.662 163.734C126.623 163.607 126.632 163.47 126.689 163.349C126.745 163.229 126.844 163.134 126.966 163.083C127.683 162.837 128.449 162.775 129.196 162.901C129.943 163.028 130.646 163.339 131.242 163.807C131.344 163.892 131.409 164.012 131.423 164.144C131.436 164.276 131.398 164.408 131.315 164.511C131.236 164.611 131.125 164.682 131 164.711Z" fill="#263238"/>
<path id="Vector_110" d="M117.071 169.658C116.957 169.705 116.829 169.705 116.714 169.658C116.655 169.635 116.6 169.6 116.554 169.556C116.508 169.512 116.471 169.459 116.446 169.4C116.421 169.341 116.407 169.278 116.406 169.215C116.405 169.151 116.417 169.087 116.441 169.028C116.694 168.274 117.114 167.587 117.671 167.02C118.228 166.452 118.906 166.018 119.655 165.751C119.717 165.735 119.781 165.733 119.843 165.743C119.906 165.754 119.966 165.777 120.019 165.811C120.072 165.846 120.118 165.891 120.153 165.944C120.188 165.996 120.212 166.056 120.223 166.118C120.247 166.247 120.222 166.38 120.155 166.493C120.087 166.605 119.98 166.689 119.855 166.728C119.262 166.94 118.726 167.287 118.289 167.741C117.851 168.194 117.525 168.743 117.334 169.343C117.313 169.411 117.28 169.473 117.235 169.527C117.19 169.582 117.134 169.626 117.071 169.658Z" fill="#263238"/>
<path id="Vector_111" d="M130.023 168.198L128.017 168.419C128.017 168.419 129.477 169.564 130.023 168.198Z" fill="#263238"/>
<path id="Vector_112" d="M161.547 217.695C161.547 218.252 161.547 218.514 161.547 218.892V219.943C161.547 220.615 161.453 221.277 161.379 221.939C161.237 223.251 161.027 224.556 160.749 225.846C160.201 228.479 159.366 231.043 158.259 233.493C157.121 236.059 155.629 238.453 153.826 240.605C151.979 242.829 149.779 244.734 147.314 246.246L146.936 246.477C146.607 246.671 146.254 246.819 145.885 246.918C144.101 247.433 142.207 247.433 140.423 246.918C139.24 246.584 138.099 246.119 137.019 245.531C135.277 244.553 133.637 243.403 132.124 242.096C130.732 240.899 129.413 239.619 128.175 238.262C126.95 236.929 125.803 235.526 124.74 234.061C124.274 233.474 124.033 232.74 124.06 231.991C124.086 231.242 124.378 230.527 124.884 229.975C125.39 229.422 126.077 229.068 126.82 228.975C127.564 228.883 128.316 229.058 128.942 229.47L129.057 229.544L133.259 232.012C134.656 232.811 136.053 233.598 137.461 234.281C138.714 234.931 140.017 235.479 141.358 235.92C141.807 236.08 142.278 236.169 142.755 236.183C143.059 236.183 143.038 235.993 142.314 236.183L140.938 236.855C142.232 235.825 143.368 234.611 144.31 233.252C144.802 232.558 145.241 231.828 145.623 231.067C146.043 230.29 146.411 229.487 146.726 228.661C147.387 226.937 147.897 225.159 148.249 223.346C148.438 222.422 148.574 221.487 148.7 220.552C148.753 220.079 148.805 219.617 148.847 219.155L148.931 217.989V217.432C148.979 215.761 149.688 214.176 150.904 213.028C152.119 211.879 153.741 211.261 155.413 211.308C157.084 211.356 158.668 212.065 159.817 213.28C160.965 214.496 161.584 216.118 161.537 217.789L161.547 217.695Z" fill="#B55B52"/>
<path id="Vector_113" d="M122.198 239.081H99.4452C98.4326 239.097 97.4432 238.778 96.6304 238.174C95.8175 237.57 95.2266 236.715 94.9493 235.741L92.1657 221.308C91.8085 219.48 93.2161 217.999 95.38 217.999H118.122C119.131 217.978 120.119 218.291 120.932 218.889C121.745 219.488 122.338 220.338 122.618 221.308L125.412 235.741C125.759 237.6 124.32 239.081 122.198 239.081Z" fill="#407BFF"/>
<path id="Vector_114" d="M121.494 238.147H99.4344C98.6593 238.164 97.8993 237.93 97.2686 237.48C96.6378 237.029 96.1704 236.386 95.9364 235.646L93.2158 221.602C93.1653 221.362 93.1693 221.114 93.2275 220.876C93.2856 220.638 93.3965 220.416 93.5519 220.226C93.7959 219.964 94.0945 219.758 94.4267 219.624C94.7588 219.489 95.1164 219.43 95.4742 219.449H117.533C118.306 219.434 119.064 219.667 119.694 220.116C120.324 220.564 120.793 221.203 121.031 221.938L123.741 235.983C123.797 236.222 123.796 236.47 123.739 236.709C123.683 236.947 123.572 237.17 123.416 237.359C123.172 237.622 122.874 237.829 122.542 237.965C122.21 238.101 121.852 238.163 121.494 238.147ZM95.4217 219.711C95.1022 219.693 94.7826 219.745 94.4852 219.863C94.1877 219.981 93.9194 220.162 93.699 220.394C93.5692 220.556 93.4773 220.744 93.43 220.946C93.3828 221.148 93.3814 221.358 93.4259 221.56L96.136 235.594C96.3651 236.267 96.804 236.848 97.3884 237.253C97.9727 237.658 98.6714 237.864 99.3818 237.842H121.441C121.76 237.861 122.079 237.808 122.375 237.688C122.671 237.568 122.937 237.384 123.153 237.149C123.287 236.991 123.382 236.805 123.431 236.604C123.48 236.404 123.482 236.195 123.437 235.993L120.8 221.991C120.579 221.313 120.144 220.725 119.561 220.314C118.978 219.903 118.278 219.692 117.565 219.711H95.4217Z" fill="white"/>
<path id="Vector_115" d="M122.681 225.321L120.013 224.648C119.686 224.567 119.347 224.552 119.015 224.604C118.683 224.655 118.364 224.772 118.077 224.948C117.791 225.124 117.542 225.356 117.346 225.629C117.15 225.902 117.01 226.211 116.935 226.539L116.242 229.575C116.108 230.159 116.187 230.772 116.464 231.303C116.741 231.834 117.199 232.25 117.754 232.474L121.137 233.861C121.137 233.861 126.799 237.359 129.152 234.659L130.202 230.331L126 226.928C125.026 226.153 123.893 225.604 122.681 225.321Z" fill="#B55B52"/>
<path id="Vector_116" d="M155.57 195.572C164.782 196.118 167.618 205.73 164.551 223.209C163.059 229.774 144.656 220.804 144.656 220.804C144.656 220.804 144.015 202.127 155.57 195.572Z" fill="#263238"/>
</g>
<g id="Plant">
<path id="Vector_117" d="M415.847 382.235C412.496 361.227 421.677 333.674 433.315 335.701C442.958 337.382 417.843 375.817 415.847 382.235Z" fill="#407BFF"/>
<path id="Vector_118" d="M412.181 392.95C423.126 377.393 416.382 345.417 404.828 344.693C393.273 343.968 411.235 385.124 412.181 392.95Z" fill="#263238"/>
<path id="Vector_119" d="M412.727 402.057C411.477 368.443 431.95 351.542 441.088 355.554C450.49 359.693 419.88 383.454 412.727 402.057Z" fill="#407BFF"/>
<path id="Vector_120" d="M409.975 422.992C420.92 399.326 411.54 362.34 394.134 366.342C379.701 369.662 407.391 413.034 409.975 422.992Z" fill="#407BFF"/>
<path id="Vector_121" d="M410.721 430.072C409.513 407.383 402.632 378.454 388.493 381.132C375.006 383.653 406.519 410.229 410.721 430.072Z" fill="#263238"/>
<path id="Vector_122" d="M407.254 441.175C410.721 407.698 439.377 389.01 439.083 401.71C438.778 415.271 416.887 424.106 407.254 441.175Z" fill="#407BFF"/>
<path id="Vector_123" d="M410.038 434.085C414.061 422.11 404.607 405.849 394.68 409.326C386.455 412.215 407.454 429.715 410.038 434.085Z" fill="#407BFF"/>
<path id="Vector_124" d="M410.3 429.61C405.973 403.937 428.095 359.756 448.053 369.252C467.444 378.485 419.754 400.114 410.3 429.61Z" fill="#263238"/>
<path id="Vector_125" d="M420.175 468.361H401.057C399.388 468.364 397.762 467.831 396.419 466.84C395.076 465.849 394.087 464.452 393.599 462.856C391.099 455.218 389.955 447.201 390.216 439.169C390.35 436.636 390.701 434.12 391.267 431.648C391.376 431.154 391.649 430.711 392.042 430.393C392.435 430.074 392.925 429.898 393.431 429.894H427.853C428.358 429.897 428.847 430.073 429.239 430.392C429.63 430.711 429.901 431.154 430.007 431.648C430.572 434.12 430.923 436.636 431.057 439.169C431.317 447.201 430.176 455.216 427.685 462.856C427.191 464.459 426.193 465.86 424.841 466.851C423.488 467.843 421.852 468.372 420.175 468.361Z" fill="#407BFF"/>
<path id="Vector_126" opacity="0.5" d="M430.994 439.169H390.216C390.35 436.636 390.701 434.12 391.266 431.648C391.375 431.154 391.649 430.711 392.042 430.393C392.435 430.074 392.924 429.898 393.43 429.894H427.853C428.358 429.897 428.847 430.073 429.239 430.392C429.63 430.711 429.901 431.154 430.006 431.648C430.55 434.122 430.881 436.638 430.994 439.169Z" fill="white"/>
</g>
</g>
</g>
<defs>
<linearGradient id="paint0_linear_9_78" x1="154.721" y1="305.44" x2="555.946" y2="194.782" gradientUnits="userSpaceOnUse">
<stop stop-color="white"/>
<stop offset="1" stop-color="white" stop-opacity="0.06"/>
</linearGradient>
</defs>
</svg>
