<svg width="519" height="518" viewBox="0 0 519 518" fill="none" xmlns="http://www.w3.org/2000/svg">
<g id="Group 225">
<g id="Group">
<path id="Vector" d="M207.639 318.283H5.95342C2.7156 318.283 0 315.357 0 311.868V6.41519C0 2.92623 2.7156 0 5.95342 0H207.639C210.981 0 213.592 2.92623 213.592 6.41519V311.868C213.592 315.357 210.877 318.283 207.639 318.283ZM5.95342 0.225094C2.82004 0.225094 0.313338 2.92623 0.313338 6.41519V311.868C0.313338 315.245 2.82004 318.058 5.95342 318.058H207.639C210.772 318.058 213.383 315.357 213.383 311.868V6.41519C213.383 3.03877 210.877 0.225094 207.639 0.225094H5.95342Z" fill="#E6E6E6"/>
<path id="Vector_2" d="M433.556 318.283H231.87C228.528 318.283 225.917 315.357 225.917 311.868V6.41519C225.917 2.92623 228.633 0 231.87 0H433.556C436.794 0 439.509 2.81368 439.509 6.41519V311.868C439.509 315.357 436.794 318.283 433.556 318.283ZM231.87 0.225094C228.737 0.225094 226.126 2.92623 226.126 6.41519V311.868C226.126 315.245 228.633 318.058 231.87 318.058H433.556C436.689 318.058 439.3 315.357 439.3 311.868V6.41519C439.3 3.03877 436.794 0.225094 433.556 0.225094H231.87Z" fill="#E6E6E6"/>
</g>
<g id="Group 113">
<ellipse id="Ellipse 2" cx="286.508" cy="496.5" rx="222" ry="21.5" fill="#D9D9D9"/>
<g id="Frame" clip-path="url(#clip0_61_2)">
<path id="Vector_3" d="M418.601 117.562H98.8447V436.073H418.601V117.562Z" fill="#407BFF"/>
<g id="plant_1_">
<g id="Group_2">
<g id="Group_3">
<path id="Vector_4" d="M141.827 479.863C126.038 479.863 113.227 467.051 113.227 451.262V412.273H170.428V451.262C170.428 467.051 157.617 479.863 141.827 479.863Z" fill="#5896FA"/>
<path id="Vector_5" d="M113.227 441.751H110.064V502.254H113.227V441.751Z" fill="#0E0E0E"/>
<path id="Vector_6" d="M173.591 441.751H170.429V502.254H173.591V441.751Z" fill="#0E0E0E"/>
<path id="Vector_7" d="M149.33 441.751H146.168V502.254H149.33V441.751Z" fill="#0E0E0E"/>
</g>
<path id="Vector_8" d="M170.567 479.863H110.064V483.025H170.567V479.863Z" fill="#0E0E0E"/>
</g>
<g id="Group_4">
<path id="Vector_9" d="M186.356 347.892C189.819 352.855 182.871 357.149 181.786 364.028C180.701 370.907 188.596 374.785 180.216 383.811C175.069 389.374 170.706 381.987 166.528 390.505C162.326 399.023 165.65 400.454 160.918 403.524C152.7 408.857 140.143 397.061 144.367 388.543C148.591 380.048 157.132 380.787 153.185 373.792C149.238 366.798 147.76 363.774 154.57 360.173C163.019 355.718 170.452 359.804 171.121 353.294C171.837 346.807 181.809 341.314 186.356 347.892Z" fill="white"/>
<path id="Vector_10" d="M150.299 411.904L148.868 411.627C155.516 377.994 177.584 354.448 177.792 354.217L178.831 355.21C178.646 355.418 156.855 378.686 150.299 411.904Z" fill="#0E0E0E"/>
</g>
<g id="Group_5">
<path id="Vector_11" d="M75.7618 335.45C72.1838 342.722 82.2484 346.992 85.0646 355.903C87.8808 364.813 77.5162 367.952 90.3969 378.202C98.3378 384.527 99.9998 380.579 102.908 394.706C105.471 407.149 114.935 395.307 121.999 402.601C131.117 412.019 145.359 391.336 138.065 380.949C130.77 370.538 122.253 373.239 126.061 363.174C129.893 353.11 125.323 345.538 115.581 342.145C103.509 337.943 99.1688 348.077 96.9758 339.606C94.7829 331.111 80.494 325.848 75.7618 335.45Z" fill="#E6E6E6"/>
<path id="Vector_12" d="M136.38 412.92C121.006 370.284 87.5116 343.899 87.1885 343.645L88.3888 342.122C88.7351 342.376 122.645 369.107 138.227 412.273L136.38 412.92Z" fill="#0E0E0E"/>
</g>
</g>
<g id="Group_6">
<g id="Group_7">
<path id="Vector_13" d="M178.299 294.846C245.842 294.846 300.597 240.091 300.597 172.548C300.597 105.005 245.842 50.25 178.299 50.25C110.756 50.25 56.001 105.005 56.001 172.548C56.001 240.091 110.756 294.846 178.299 294.846Z" stroke="#2E77E6" stroke-width="8.7306" stroke-miterlimit="10" stroke-dasharray="13.1 13.1"/>
<path id="Vector_14" d="M209.254 164.538C209.393 163.592 209.485 162.622 209.485 161.63C209.485 149.718 199.836 140.069 187.925 140.069C178.992 140.069 171.328 145.494 168.073 153.25C165.418 150.873 161.91 149.418 158.078 149.418C149.767 149.418 143.027 156.159 143.027 164.469H140.211C132.201 164.469 125.668 171.002 125.668 179.012C125.668 186.999 132.201 193.554 140.211 193.554H208.169C216.156 193.554 222.712 187.022 222.712 179.012C222.712 171.371 216.757 165.092 209.254 164.538Z" fill="white"/>
<g id="Group_8">
<path id="Vector_15" d="M222.62 322.731H131.577C128.507 322.731 126.037 320.238 126.037 317.191V240.807C126.037 237.737 128.53 235.267 131.577 235.267H222.62C225.69 235.267 228.16 237.76 228.16 240.807V317.191C228.183 320.238 225.69 322.731 222.62 322.731Z" fill="#5896FA"/>
<g id="Group_9">
<g id="Group_10">
<path id="Vector_16" d="M208.031 288.082H146.466C144.458 288.082 142.796 286.443 142.796 284.412C142.796 282.404 144.435 280.742 146.466 280.742H208.031C210.039 280.742 211.701 282.381 211.701 284.412C211.701 286.42 210.039 288.082 208.031 288.082Z" fill="white"/>
<path id="Vector_17" d="M208.031 299.878H146.466C144.458 299.878 142.796 298.239 142.796 296.208C142.796 294.2 144.435 292.538 146.466 292.538H208.031C210.039 292.538 211.701 294.177 211.701 296.208C211.701 298.216 210.039 299.878 208.031 299.878Z" fill="white"/>
<g id="Group_11">
<path id="Vector_18" d="M156.67 297.824C157.384 297.824 157.962 297.245 157.962 296.531C157.962 295.817 157.384 295.238 156.67 295.238C155.956 295.238 155.377 295.817 155.377 296.531C155.377 297.245 155.956 297.824 156.67 297.824Z" fill="#80B2FF"/>
<path id="Vector_19" d="M161.079 297.824C161.793 297.824 162.372 297.245 162.372 296.531C162.372 295.817 161.793 295.238 161.079 295.238C160.365 295.238 159.786 295.817 159.786 296.531C159.786 297.245 160.365 297.824 161.079 297.824Z" fill="#80B2FF"/>
<path id="Vector_20" d="M165.51 297.824C166.224 297.824 166.803 297.245 166.803 296.531C166.803 295.817 166.224 295.238 165.51 295.238C164.797 295.238 164.218 295.817 164.218 296.531C164.218 297.245 164.797 297.824 165.51 297.824Z" fill="#80B2FF"/>
<path id="Vector_21" d="M169.92 297.824C170.634 297.824 171.212 297.245 171.212 296.531C171.212 295.817 170.634 295.238 169.92 295.238C169.206 295.238 168.627 295.817 168.627 296.531C168.627 297.245 169.206 297.824 169.92 297.824Z" fill="#80B2FF"/>
<path id="Vector_22" d="M174.352 297.824C175.066 297.824 175.645 297.245 175.645 296.531C175.645 295.817 175.066 295.238 174.352 295.238C173.638 295.238 173.06 295.817 173.06 296.531C173.06 297.245 173.638 297.824 174.352 297.824Z" fill="#80B2FF"/>
<path id="Vector_23" d="M178.784 297.824C179.498 297.824 180.077 297.245 180.077 296.531C180.077 295.817 179.498 295.238 178.784 295.238C178.07 295.238 177.491 295.817 177.491 296.531C177.491 297.245 178.07 297.824 178.784 297.824Z" fill="#80B2FF"/>
<path id="Vector_24" d="M183.193 297.824C183.907 297.824 184.486 297.245 184.486 296.531C184.486 295.817 183.907 295.238 183.193 295.238C182.479 295.238 181.9 295.817 181.9 296.531C181.9 297.245 182.479 297.824 183.193 297.824Z" fill="#80B2FF"/>
<path id="Vector_25" d="M187.625 297.824C188.339 297.824 188.917 297.245 188.917 296.531C188.917 295.817 188.339 295.238 187.625 295.238C186.911 295.238 186.332 295.817 186.332 296.531C186.332 297.245 186.911 297.824 187.625 297.824Z" fill="#80B2FF"/>
<path id="Vector_26" d="M192.034 297.824C192.748 297.824 193.327 297.245 193.327 296.531C193.327 295.817 192.748 295.238 192.034 295.238C191.32 295.238 190.741 295.817 190.741 296.531C190.741 297.245 191.32 297.824 192.034 297.824Z" fill="#80B2FF"/>
</g>
<g id="Group_12">
<path id="Vector_27" d="M177.26 270.493C185.075 270.493 191.41 264.157 191.41 256.342C191.41 248.527 185.075 242.192 177.26 242.192C169.445 242.192 163.109 248.527 163.109 256.342C163.109 264.157 169.445 270.493 177.26 270.493Z" fill="white"/>
<g id="Group_13">
<g id="Group_14">
<path id="Vector_28" d="M177.282 255.765C178.667 255.765 179.937 255.096 180.745 254.057C181.345 253.318 181.691 252.349 181.691 251.287C181.691 248.84 179.706 246.832 177.259 246.832C174.789 246.832 172.804 248.863 172.804 251.287C172.804 252.349 173.15 253.318 173.75 254.057C174.581 255.096 175.874 255.765 177.282 255.765Z" fill="#005CEA"/>
</g>
<path id="Vector_29" d="M185.131 263.729C185.131 266.545 169.388 266.545 169.388 263.729V260.451C170.011 255.973 183.838 255.765 185.131 260.451V263.729Z" fill="#005CEA"/>
</g>
</g>
<path id="Vector_30" d="M149.514 295.538V295.331C149.514 294.546 148.867 293.899 148.082 293.899C147.297 293.899 146.651 294.546 146.651 295.331V295.538H146.443V298.147C146.443 298.585 149.767 298.585 149.767 298.147V295.538H149.514ZM147.136 295.331C147.136 294.823 147.436 294.384 148.059 294.384C148.682 294.384 149.006 294.8 149.006 295.331V295.538H147.136V295.331ZM148.313 296.831V297.593C148.313 297.731 148.198 297.824 148.059 297.824C147.921 297.824 147.828 297.731 147.828 297.593V296.831C147.69 296.762 147.598 296.623 147.598 296.439C147.598 296.185 147.805 295.977 148.059 295.977C148.313 295.977 148.521 296.185 148.521 296.439C148.521 296.623 148.429 296.762 148.313 296.831Z" fill="#5896FA"/>
<g id="Group_15">
<g id="Group_16">
<g id="Group_17">
<path id="Vector_31" d="M148.083 284.135C148.383 284.135 148.637 283.997 148.821 283.766C148.96 283.604 149.029 283.396 149.029 283.189C149.029 282.681 148.613 282.242 148.106 282.242C147.575 282.242 147.159 282.658 147.159 283.189C147.159 283.419 147.228 283.604 147.367 283.766C147.505 283.997 147.782 284.135 148.083 284.135Z" fill="#5896FA"/>
</g>
<path id="Vector_32" d="M149.721 285.82C149.721 286.42 146.374 286.42 146.374 285.82L146.397 285.128C146.536 284.181 149.444 284.135 149.721 285.128V285.82Z" fill="#5896FA"/>
</g>
<path id="Vector_33" d="M169.643 285.474H156.139C155.538 285.474 155.054 284.989 155.054 284.389C155.054 283.789 155.538 283.304 156.139 283.304H169.643C170.243 283.304 170.728 283.789 170.728 284.389C170.705 284.989 170.243 285.474 169.643 285.474Z" fill="#80B2FF"/>
<path id="Vector_34" d="M187.441 285.474H173.937C173.336 285.474 172.852 284.989 172.852 284.389C172.852 283.789 173.336 283.304 173.937 283.304H187.441C188.041 283.304 188.525 283.789 188.525 284.389C188.502 284.989 188.018 285.474 187.441 285.474Z" fill="#80B2FF"/>
</g>
</g>
<path id="Vector_35" d="M181.761 311.305H169.527C167.796 311.305 166.388 309.897 166.388 308.165C166.388 306.434 167.796 305.026 169.527 305.026H181.761C183.493 305.026 184.901 306.434 184.901 308.165C184.901 309.897 183.493 311.305 181.761 311.305Z" fill="#1251B3"/>
</g>
</g>
<g id="Group_18">
<g id="Group_19">
<g id="Group_20">
<g id="Group_21">
<path id="Vector_36" d="M51.9387 167.262C44.9212 174.764 33.7255 180.927 21.7681 183.559C21.7681 184.367 21.7451 188.799 21.6527 209.205C21.5373 236.444 47.4604 249.763 51.477 251.818C55.3781 250.017 81.6475 236.721 81.7629 209.482C81.8552 189.053 81.8783 184.621 81.8783 183.836C69.9209 181.089 58.8869 174.833 51.9387 167.262Z" fill="white"/>
</g>
</g>
<g id="Group_22">
<g id="Group_23">
<path id="Vector_37" d="M51.8698 172.179C44.9908 178.481 35.4803 183.421 25.0234 186.121L24.931 209.205C24.8849 219.777 29.0861 229.334 37.3963 237.598C42.8671 243.046 48.615 246.416 51.5236 247.94C51.639 247.87 51.7775 247.801 51.916 247.732V172.248C51.8929 172.225 51.8698 172.202 51.8698 172.179Z" fill="#296ACC"/>
</g>
<g id="Group_24">
<path id="Vector_38" d="M51.916 172.248V247.778C54.94 246.208 60.457 242.931 65.7432 237.783C74.1457 229.565 78.4162 220.055 78.4624 209.482L78.5547 186.398C68.167 183.582 58.7257 178.573 51.916 172.248Z" fill="#2E77E6"/>
</g>
</g>
</g>
<g id="Group_25">
<path id="Vector_39" d="M39.75 205.512V223.402C39.75 225.387 64.0572 225.387 64.0572 223.402V205.512H39.75ZM53.1386 214.999V220.078C53.1386 220.747 52.5846 221.324 51.9152 221.324C51.2226 221.324 50.6686 220.77 50.6686 220.078V214.999C49.6299 214.537 48.8912 213.476 48.8912 212.275C48.8912 210.613 50.23 209.274 51.8921 209.274C53.5541 209.274 54.893 210.613 54.893 212.275C54.916 213.476 54.2004 214.537 53.1386 214.999Z" fill="white"/>
<path id="Vector_40" d="M61.9569 204.242H59.4869V203.042C59.4869 198.864 56.0936 195.47 51.9155 195.47C47.7373 195.47 44.344 198.864 44.344 203.042V204.242H41.874V203.042C41.874 197.502 46.3754 193.023 51.8924 193.023C57.4325 193.023 61.9107 197.525 61.9107 203.042V204.242H61.9569Z" fill="white"/>
</g>
</g>
<g id="Group_26">
<g id="Group_27">
<path id="Vector_41" d="M231.923 20.0566H187.994V74.8806H231.923V20.0566Z" fill="#296ACC"/>
</g>
<g id="Group_28">
<path id="Vector_42" d="M237.601 25.7124H193.673V80.5364H237.601V25.7124Z" fill="white" stroke="#5896FA" stroke-width="6.3406" stroke-miterlimit="10"/>
</g>
<g id="Group_29">
<path id="Vector_43" d="M244.849 31.2754H200.921V86.0994H244.849V31.2754Z" fill="white" stroke="#5896FA" stroke-width="6.3406" stroke-miterlimit="10"/>
</g>
<g id="Group_30">
<path id="Vector_44" d="M250.113 36.9307H206.185V91.7547H250.113V36.9307Z" fill="#5896FA"/>
<path id="Vector_45" d="M243.257 45.9331H220.543V49.488H243.257V45.9331Z" fill="#005CEA"/>
<path id="Vector_46" d="M243.257 54.313H213.825V57.8679H243.257V54.313Z" fill="#005CEA"/>
<path id="Vector_47" d="M243.257 62.6924H213.825V66.2473H243.257V62.6924Z" fill="#005CEA"/>
<path id="Vector_48" d="M243.257 71.0718H213.825V74.6267H243.257V71.0718Z" fill="#005CEA"/>
<path id="Vector_49" d="M243.257 79.4512H213.825V83.0061H243.257V79.4512Z" fill="#005CEA"/>
</g>
</g>
<g id="Group_31">
<path id="Vector_50" d="M91.6197 95.2404C100.187 95.2404 107.132 88.2953 107.132 79.7281C107.132 71.1609 100.187 64.2158 91.6197 64.2158C83.0525 64.2158 76.1074 71.1609 76.1074 79.7281C76.1074 88.2953 83.0525 95.2404 91.6197 95.2404Z" fill="white"/>
<g id="Group_32">
<path id="Vector_51" d="M116.112 94.4787C118.121 91.1315 119.39 87.5305 119.921 83.9063L121.075 84.0679L123.361 84.4142H123.384C124.007 80.2591 123.799 76.0348 122.784 72.0182L119.39 72.8492C118.49 69.202 116.874 65.7394 114.589 62.6923L117.405 60.5917C115.004 57.3138 111.911 54.4745 108.218 52.2354L106.394 55.2363C103.047 53.228 99.4459 51.9584 95.8217 51.4274L96.3296 47.9649C92.1745 47.3416 87.9501 47.5724 83.9336 48.5651L84.7646 51.9584C81.1173 52.8586 77.6548 54.4745 74.6077 56.7598L72.5071 53.9436C69.2292 56.3443 66.3899 59.4375 64.1508 63.1309L67.1517 64.9545C65.1434 68.3017 63.8738 71.9028 63.3428 75.5269L60.896 75.1576L59.9034 75.0191C59.2801 79.1742 59.5109 83.3985 60.5035 87.4151L63.8968 86.584C64.7971 90.2313 66.413 93.6938 68.7214 96.764L65.9051 98.8646C68.3059 102.143 71.3991 104.982 75.0694 107.198L76.893 104.197C80.2402 106.205 83.8412 107.475 87.4885 108.006L87.096 110.707L86.9806 111.468C91.1357 112.092 95.337 111.861 99.3535 110.868L98.5225 107.475C102.17 106.575 105.632 104.959 108.702 102.673L110.803 105.49C114.058 103.066 116.92 99.9957 119.136 96.3023L116.112 94.4787ZM83.6104 93.0244C76.2698 88.5923 73.9152 79.0587 78.3242 71.7181C82.7563 64.3774 92.2668 62.0229 99.6075 66.455C106.948 70.8871 109.303 80.3976 104.871 87.7382C100.485 95.0789 90.951 97.4334 83.6104 93.0244Z" fill="#EBEBEB"/>
</g>
<g id="Group_33">
<path id="Vector_52" d="M58.0331 92.4243C56.902 90.7161 55.4708 89.308 53.8549 88.223L54.2012 87.7152L54.8706 86.6995V86.6764C53.0239 85.453 50.9695 84.5989 48.8458 84.1603L48.4764 85.9608C46.5374 85.5684 44.5291 85.5453 42.567 85.9377L42.1976 84.1372C40.097 84.5527 38.0425 85.3606 36.1497 86.6303L37.1654 88.1769C35.4572 89.308 34.0491 90.7392 32.9641 92.355L31.4406 91.3393C30.2171 93.186 29.363 95.2405 28.9245 97.3642L30.725 97.7336C30.3326 99.6726 30.3095 101.681 30.7019 103.643L28.9014 104.012C29.3169 106.113 30.1248 108.167 31.3944 110.06L32.941 109.045C34.0721 110.753 35.5033 112.161 37.1192 113.246L36.4036 114.331L36.1035 114.769C37.9502 115.993 40.0047 116.847 42.1284 117.286L42.4977 115.485C44.4368 115.877 46.445 115.9 48.4302 115.485L48.7996 117.286C50.9002 116.87 52.9547 116.062 54.8475 114.816L53.8319 113.269C55.5401 112.138 56.9712 110.707 58.0331 109.091L59.2335 109.899L59.5797 110.13C60.8032 108.283 61.6573 106.228 62.0959 104.105L60.2953 103.735C60.6877 101.796 60.7108 99.788 60.3184 97.8028L62.1189 97.4335C61.7034 95.3328 60.8955 93.2784 59.6259 91.3855L58.0331 92.4243ZM49.9999 107.544C46.2373 110.037 41.1589 108.998 38.6889 105.236C36.1958 101.473 37.2346 96.4178 40.9973 93.9247C44.7599 91.4317 49.8153 92.4705 52.3083 96.2331C54.8014 99.9958 53.7626 105.051 49.9999 107.544Z" fill="#F5F5F5"/>
</g>
</g>
<g id="Group_34">
<path id="Vector_53" d="M311.769 123.957H274.05C273.266 123.957 272.619 123.311 272.619 122.526V101.127C272.619 100.342 273.266 99.6958 274.05 99.6958H311.769C312.554 99.6958 313.2 100.342 313.2 101.127V122.526C313.2 123.311 312.554 123.957 311.769 123.957Z" fill="#005CEA"/>
<path id="Vector_54" d="M313.2 104.267H272.619V108.445H313.2V104.267Z" fill="#5896FA"/>
<path id="Vector_55" d="M281.899 119.294H275.92C275.551 119.294 275.228 119.594 275.228 119.986C275.228 120.356 275.528 120.679 275.92 120.679H281.899C282.268 120.679 282.591 120.379 282.591 119.986C282.591 119.594 282.291 119.294 281.899 119.294Z" fill="#D1F5FF"/>
<path id="Vector_56" d="M291.086 119.294H285.108C284.738 119.294 284.415 119.594 284.415 119.986C284.415 120.356 284.715 120.679 285.108 120.679H291.086C291.456 120.679 291.779 120.379 291.779 119.986C291.779 119.594 291.456 119.294 291.086 119.294Z" fill="#D1F5FF"/>
<path id="Vector_57" d="M300.274 119.294H294.295C293.926 119.294 293.603 119.594 293.603 119.986C293.603 120.356 293.903 120.679 294.295 120.679H300.274C300.643 120.679 300.966 120.379 300.966 119.986C300.943 119.594 300.643 119.294 300.274 119.294Z" fill="#D1F5FF"/>
<path id="Vector_58" d="M309.438 119.294H303.459C303.09 119.294 302.767 119.594 302.767 119.986C302.767 120.356 303.067 120.679 303.459 120.679H309.438C309.807 120.679 310.13 120.379 310.13 119.986C310.13 119.594 309.83 119.294 309.438 119.294Z" fill="#D1F5FF"/>
<path id="Vector_59" d="M275.666 100.919C275.251 100.919 274.904 101.266 274.904 101.681V101.958C274.904 102.374 275.251 102.72 275.666 102.72C276.082 102.72 276.428 102.374 276.428 101.958V101.681C276.428 101.243 276.082 100.919 275.666 100.919Z" fill="#D1F5FF"/>
<path id="Vector_60" d="M277.305 101.796C277.305 102.281 277.697 102.697 278.205 102.697H281.367C281.852 102.697 282.268 102.304 282.268 101.796C282.268 101.312 281.875 100.896 281.367 100.896H278.205C277.697 100.919 277.305 101.312 277.305 101.796Z" fill="#D1F5FF"/>
<path id="Vector_61" d="M276.89 110.707H280.976C281.622 110.707 282.153 111.237 282.153 111.884V115.393C282.153 116.039 281.622 116.57 280.976 116.57H276.89C276.244 116.57 275.713 116.039 275.713 115.393V111.884C275.69 111.237 276.22 110.707 276.89 110.707Z" fill="#5896FA"/>
</g>
<g id="Group_35">
<g id="Group_36">
<path id="Vector_62" d="M296.834 185.776V183.006C296.834 181.736 295.819 180.72 294.549 180.72H270.265C268.995 180.72 267.979 181.736 267.979 183.006V232.012H330.767V185.776H296.834Z" fill="#1251B3"/>
<path id="Vector_63" d="M333.376 187.46H271.835L268.003 232.035H330.468L333.376 187.46Z" fill="white"/>
<path id="Vector_64" d="M330.767 232.036H267.979L274.651 188.038C274.835 186.745 275.943 185.799 277.259 185.799H334.715C336.331 185.799 337.554 187.23 337.323 188.823L330.767 232.036Z" fill="#3383FF"/>
</g>
<g id="Group_37">
<g id="Group_38">
<path id="Vector_65" d="M337.347 201.841C345.29 201.841 351.728 195.403 351.728 187.46C351.728 179.518 345.29 173.079 337.347 173.079C329.404 173.079 322.966 179.518 322.966 187.46C322.966 195.403 329.404 201.841 337.347 201.841Z" fill="#005CEA"/>
<path id="Vector_66" d="M337.347 202.373C329.129 202.373 322.435 195.678 322.435 187.46C322.435 179.243 329.129 172.548 337.347 172.548C345.565 172.548 352.259 179.243 352.259 187.46C352.259 195.678 345.565 202.373 337.347 202.373ZM337.347 173.61C329.706 173.61 323.496 179.82 323.496 187.46C323.496 195.101 329.706 201.311 337.347 201.311C344.987 201.311 351.197 195.101 351.197 187.46C351.197 179.82 344.987 173.61 337.347 173.61Z" fill="white"/>
</g>
<g id="Group_39">
<path id="Vector_67" d="M330.422 184.875V195.055C330.422 196.186 344.272 196.186 344.272 195.055V184.875H330.422ZM338.04 190.277V193.162C338.04 193.555 337.716 193.855 337.347 193.855C336.955 193.855 336.654 193.531 336.654 193.162V190.277C336.054 190 335.639 189.399 335.639 188.73C335.639 187.784 336.401 187.022 337.347 187.022C338.293 187.022 339.055 187.784 339.055 188.73C339.055 189.399 338.64 190 338.04 190.277Z" fill="white"/>
<path id="Vector_68" d="M343.049 184.136H341.641V183.444C341.641 181.066 339.702 179.127 337.324 179.127C334.947 179.127 333.008 181.066 333.008 183.444V184.136H331.6V183.444C331.6 180.304 334.162 177.742 337.301 177.742C340.441 177.742 343.003 180.304 343.003 183.444V184.136H343.049Z" fill="white"/>
</g>
</g>
</g>
</g>
<path id="Vector_69" d="M287.394 72.6185C290.441 72.6185 292.911 70.1485 292.911 67.1015C292.911 64.0545 290.441 61.5845 287.394 61.5845C284.347 61.5845 281.877 64.0545 281.877 67.1015C281.877 70.1485 284.347 72.6185 287.394 72.6185Z" fill="#AAE0FF"/>
<path id="Vector_70" d="M142.796 93.163C145.843 93.163 148.313 90.6929 148.313 87.6459C148.313 84.599 145.843 82.1289 142.796 82.1289C139.749 82.1289 137.279 84.599 137.279 87.6459C137.279 90.6929 139.749 93.163 142.796 93.163Z" fill="#AAE0FF"/>
<path id="Vector_71" d="M326.012 163.846C327.606 163.846 328.898 162.554 328.898 160.96C328.898 159.367 327.606 158.075 326.012 158.075C324.419 158.075 323.127 159.367 323.127 160.96C323.127 162.554 324.419 163.846 326.012 163.846Z" fill="white"/>
<path id="Vector_72" d="M24.5154 169.247C26.109 169.247 27.4008 167.955 27.4008 166.362C27.4008 164.768 26.109 163.476 24.5154 163.476C22.9218 163.476 21.6299 164.768 21.6299 166.362C21.6299 167.955 22.9218 169.247 24.5154 169.247Z" fill="#AAE0FF"/>
<path id="Vector_73" d="M69.5746 276.864C72.6216 276.864 75.0917 274.394 75.0917 271.347C75.0917 268.3 72.6216 265.83 69.5746 265.83C66.5277 265.83 64.0576 268.3 64.0576 271.347C64.0576 274.394 66.5277 276.864 69.5746 276.864Z" fill="#AAE0FF"/>
<g id="Group_40">
<path id="Vector_74" d="M157.963 32.9606C157.432 32.9606 157.017 32.5221 157.017 32.0142V21.8112C157.017 21.2803 157.455 20.8647 157.963 20.8647C158.494 20.8647 158.909 21.3033 158.909 21.8112V32.0373C158.909 32.5451 158.471 32.9606 157.963 32.9606Z" fill="#AAE0FF"/>
<path id="Vector_75" d="M151.892 26.9127C151.892 26.3818 152.33 25.9663 152.838 25.9663H163.064C163.595 25.9663 164.011 26.4049 164.011 26.9127C164.011 27.4437 163.572 27.8592 163.064 27.8592H152.838C152.307 27.8592 151.892 27.4437 151.892 26.9127Z" fill="#AAE0FF"/>
</g>
<g id="Group_41">
<path id="Vector_76" d="M266.549 164.146C266.018 164.146 265.603 163.707 265.603 163.199V152.973C265.603 152.442 266.041 152.027 266.549 152.027C267.08 152.027 267.495 152.465 267.495 152.973V163.176C267.495 163.707 267.08 164.146 266.549 164.146Z" fill="white"/>
<path id="Vector_77" d="M260.478 158.075C260.478 157.544 260.916 157.128 261.424 157.128H271.65C272.181 157.128 272.597 157.567 272.597 158.075C272.597 158.606 272.158 159.021 271.65 159.021H261.424C260.916 159.021 260.478 158.606 260.478 158.075Z" fill="white"/>
</g>
<g id="Group_42">
<path id="Vector_78" d="M256.161 298.678C255.63 298.678 255.215 298.239 255.215 297.732V287.506C255.215 286.975 255.653 286.559 256.161 286.559C256.692 286.559 257.108 286.998 257.108 287.506V297.732C257.108 298.263 256.692 298.678 256.161 298.678Z" fill="white"/>
<path id="Vector_79" d="M250.09 292.63C250.09 292.099 250.528 291.684 251.036 291.684H261.262C261.793 291.684 262.209 292.122 262.209 292.63C262.209 293.161 261.77 293.576 261.262 293.576H251.036C250.528 293.576 250.09 293.161 250.09 292.63Z" fill="white"/>
</g>
<path id="Vector_80" d="M171.144 225.479C172.827 225.479 174.191 224.115 174.191 222.432C174.191 220.749 172.827 219.385 171.144 219.385C169.461 219.385 168.097 220.749 168.097 222.432C168.097 224.115 169.461 225.479 171.144 225.479Z" stroke="white" stroke-width="4.2257" stroke-miterlimit="10"/>
</g>
<g id="Group_43">
<g id="Group_44">
<path id="Vector_81" d="M246.212 502.208H234.254L233.008 476.238H247.435L246.212 502.208Z" fill="#0E0E0E"/>
<path id="Vector_82" d="M453.943 502.208H441.986L440.739 476.238H455.167L453.943 502.208Z" fill="#0E0E0E"/>
<path id="Vector_83" d="M443.509 431.133C442.194 435.218 440.762 439.42 439.193 443.713H240.764C240.764 443.713 215.165 339.49 240.764 320.423C241.411 319.938 242.196 319.453 243.119 318.992C277.606 301.263 415.878 297.108 443.948 319.915C444.156 320.076 444.363 320.261 444.548 320.446C454.913 329.91 463.892 367.814 443.509 431.133Z" fill="#D3D3D3"/>
<path id="Vector_84" d="M315.579 443.713H240.811L248.105 370.653C261.147 376.309 295.842 406.179 315.579 443.713Z" fill="#C6C4C4"/>
<path id="Vector_85" d="M443.509 431.132C442.193 435.218 440.762 439.419 439.193 443.713H367.125C379.521 420.722 409.576 385.911 438.754 369.891L443.509 431.132Z" fill="#D5D5D5"/>
<path id="Vector_86" d="M468.37 369.637H440.854C436.238 369.637 432.313 373.054 431.713 377.647L422.941 443.99H262.186L253.414 377.647C252.814 373.054 248.89 369.637 244.273 369.637H216.757C211.009 369.637 206.669 374.831 207.685 380.464L222.967 490.942H238.063H461.699H462.184L477.465 380.464C478.458 374.831 474.118 369.637 468.37 369.637Z" fill="#EBEBEB"/>
<g id="Group_45">
<g id="Group_46">
<path id="Vector_87" d="M421.349 407.749C434.299 412.089 431.759 439.489 421.349 443.713H264.31C252.583 440.689 251.59 404.425 268.511 407.149C372.019 426.608 377.028 395.561 421.349 407.749Z" fill="#E6E6E6"/>
</g>
</g>
</g>
<g id="Group_47">
<path id="Vector_88" d="M301.659 379.979C301.613 387.066 301.982 393.714 302.744 399.554H376.381L380.744 327.648C376.358 301.379 364.401 295.031 345.449 295.031C328.482 295.031 317.195 308.858 310.316 327.394C304.383 343.368 301.751 362.874 301.659 379.979Z" fill="#3383FF"/>
<path id="Vector_89" d="M301.659 381.364L328.298 379.771C313.501 374.924 312.324 352.232 327.375 338.105L310.316 327.394C304.383 343.368 301.752 364.259 301.659 381.364Z" fill="#005459"/>
<path id="Vector_90" d="M296.581 414.397H397.757V379.979H306.622L296.581 414.397Z" fill="#0E0E0E"/>
<g id="Group_48">
<g id="Group_49">
<path id="Vector_91" d="M410.684 403.478L383.514 502.231H362.323C369.041 460.218 367.54 432.887 373.842 398.007C379.359 369.36 417.263 376.932 410.684 403.478Z" fill="#0E0E0E"/>
</g>
<g id="Group_50">
<path id="Vector_92" d="M375.896 502.207C375.896 502.138 375.896 502.069 375.896 502.023C375.896 494.705 381.829 488.772 389.147 488.772C396.464 488.772 402.397 494.705 402.397 502.023C402.397 502.092 402.397 502.161 402.397 502.207H375.896Z" fill="#407BFF"/>
<path id="Vector_93" d="M391.709 489.026L386.884 487.549C383.699 481.293 370.149 482.078 372.042 489.673C366.709 490.458 363.916 487.826 363.916 487.826L362.323 502.23H391.063L391.709 489.026Z" fill="#407BFF"/>
</g>
</g>
<g id="Group_51">
<g id="Group_52">
<path id="Vector_94" d="M291.364 403.478L318.534 502.231H339.725C333.007 460.218 334.508 432.887 328.206 398.007C322.666 369.36 284.762 376.932 291.364 403.478Z" fill="#0E0E0E"/>
</g>
<g id="Group_53">
<path id="Vector_95" d="M326.152 502.207C326.152 502.138 326.152 502.069 326.152 502.023C326.152 494.705 320.219 488.772 312.901 488.772C305.584 488.772 299.651 494.705 299.651 502.023C299.651 502.092 299.651 502.161 299.651 502.207H326.152Z" fill="#407BFF"/>
<path id="Vector_96" d="M310.339 489.026L315.163 487.549C318.349 481.293 331.899 482.078 330.006 489.673C335.339 490.458 338.132 487.826 338.132 487.826L339.725 502.23H310.985L310.339 489.026Z" fill="#407BFF"/>
</g>
</g>
<path id="Vector_97" d="M334.092 297.316C344.041 303.341 345.449 321.254 340.347 328.387L311.977 349.508L340.855 364.374L336.169 379.725C336.169 379.725 306.022 377.278 291.271 362.135C277.121 347.639 311.654 304.957 334.092 297.316Z" fill="#3383FF"/>
<path id="Vector_98" d="M354.267 324.485C345.772 313.821 351.636 297.316 362.485 297.8C397.78 310.22 408.676 344.707 397.48 360.196C387.9 373.469 345.772 378.571 345.772 378.571V364.051L375.043 357.726C375.02 357.726 359.946 334.342 354.267 324.485Z" fill="#3383FF"/>
<g id="Group_54">
<path id="Vector_99" d="M323.334 374.901C322.78 370.03 325.643 363.959 332.96 362.62C345.749 360.289 350.366 367.306 351.589 372.338C351.912 373.654 350.712 375.016 349.627 374.901C348.519 374.785 347.757 374.162 347.572 373.169C347.342 371.969 346.718 370.492 345.333 369.707C346.649 372.292 346.095 374.901 342.494 374.901H323.334Z" fill="#F7A594"/>
<g id="Group_55">
<path id="Vector_100" d="M352.212 374.901L362.277 324.439H364.401C363.708 327.925 353.828 378.386 353.505 379.979C350.873 379.979 326.636 379.979 323.358 379.979L320.057 374.901H352.212Z" fill="#99C1FF"/>
<path id="Vector_101" d="M364.4 324.439H439.261L428.204 379.979H353.505L364.4 324.439Z" fill="white"/>
</g>
</g>
<g id="Group_56">
<g id="Group_57">
<path id="Vector_102" d="M342.563 300.94C342.563 306.688 359.784 310.497 365.393 304.449C366.247 303.548 366.825 302.417 367.055 301.032L370.287 286.49L349.743 278.733L349.119 280.626L342.563 300.94Z" fill="#F7A594"/>
<path id="Vector_103" d="M367.055 301.055L370.287 286.512L350.85 281.272C345.818 296.254 363.777 308.211 367.055 301.055Z" fill="#F4856D"/>
</g>
<path id="Vector_104" d="M348.243 273.17C347.158 287.459 358.446 300.04 367.933 300.686C377.42 301.332 390.463 290.737 391.548 276.448C392.633 262.159 383.815 249.832 371.857 248.932C359.877 248.032 349.304 258.881 348.243 273.17Z" fill="#F7A594"/>
<path id="Vector_105" d="M364.078 250.017C377.189 241.73 384.391 249.532 390.924 257.796C395.495 263.614 398.749 267.769 404.451 268.646C393.486 282.473 371.557 273.355 364.655 259.505C363.985 267.399 354.683 273.932 348.242 273.17C346.142 264.398 352.236 246.647 364.078 250.017Z" fill="#0E0E0E"/>
<path id="Vector_106" d="M350.735 279.057C353.884 279.057 356.437 276.504 356.437 273.355C356.437 270.206 353.884 267.653 350.735 267.653C347.586 267.653 345.033 270.206 345.033 273.355C345.033 276.504 347.586 279.057 350.735 279.057Z" fill="#F7A594"/>
</g>
</g>
</g>
</g>
</g>
</g>
<defs>
<clipPath id="clip0_61_2">
<rect width="517.4" height="487.853" fill="white" transform="translate(1.1084 20.0566)"/>
</clipPath>
</defs>
</svg>
