<svg width="38" height="38" viewBox="0 0 38 38" fill="none" xmlns="http://www.w3.org/2000/svg">
<path d="M34.2 0H11.4C9.31 0 7.6 1.71 7.6 3.8V26.6C7.6 28.69 9.31 30.4 11.4 30.4H34.2C36.29 30.4 38 28.69 38 26.6V3.8C38 1.71 36.29 0 34.2 0ZM34.2 26.6H11.4V3.8H34.2V26.6ZM3.8 7.6H0V34.2C0 36.29 1.71 38 3.8 38H30.4V34.2H3.8V7.6ZM26.6 19V13.3C26.6 12.255 25.745 11.4 24.7 11.4H20.9V20.9H24.7C25.745 20.9 26.6 20.045 26.6 19ZM22.8 13.3H24.7V19H22.8V13.3ZM30.4 17.1H32.3V15.2H30.4V13.3H32.3V11.4H28.5V20.9H30.4V17.1ZM15.2 17.1H17.1C18.145 17.1 19 16.245 19 15.2V13.3C19 12.255 18.145 11.4 17.1 11.4H13.3V20.9H15.2V17.1ZM15.2 13.3H17.1V15.2H15.2V13.3Z" fill="#263238"/>
</svg>
