<svg width="275" height="277" viewBox="0 0 275 277" fill="none" xmlns="http://www.w3.org/2000/svg">
<ellipse cx="138.259" cy="247" rx="136.5" ry="30" fill="white"/>
<path d="M196.721 6.47869L180.897 14.4154C180.317 14.6617 179.823 15.0732 179.475 15.5985C179.128 16.1237 178.943 16.7396 178.943 17.3693V24.7704C178.929 31.4987 180.891 38.083 184.586 43.7059C187.437 48.034 191.219 53.6011 197.511 56.7768H200.346C207.352 54.6128 212.578 48.9484 215.77 44.0792C219.465 38.456 221.427 31.8719 221.413 25.1437V17.3693C221.413 16.7404 221.229 16.1252 220.882 15.6002C220.536 15.0751 220.044 14.6631 219.465 14.4154L201.439 6.73296C200.633 6.39212 197.522 6.13785 196.721 6.47869Z" fill="#E0E0E0"/>
<path d="M196.082 6.73311L178.056 14.4155C177.476 14.6619 176.982 15.0733 176.635 15.5986C176.287 16.1239 176.102 16.7398 176.103 17.3695V24.7705C176.103 31.6272 178.137 38.3297 181.948 44.0299C185.759 49.7301 191.175 54.1719 197.51 56.7932C204.511 54.6291 209.737 48.9647 212.935 44.0956C216.63 38.4667 218.592 31.8772 218.578 25.1438V17.3695C218.578 16.7398 218.393 16.1239 218.046 15.5986C217.698 15.0733 217.204 14.6619 216.625 14.4155L198.598 6.73311C198.2 6.56572 197.772 6.47949 197.34 6.47949C196.908 6.47949 196.48 6.56572 196.082 6.73311Z" fill="#F5F5F5"/>
<path d="M218.518 23.1365C218.543 23.2484 218.554 23.3628 218.551 23.4773C218.551 23.7316 218.578 24.0562 218.594 24.4566C218.61 24.8569 218.637 25.4033 218.594 26.0093C218.551 26.6152 218.594 27.3077 218.497 28.0651C218.399 28.8225 218.372 29.6882 218.215 30.5484C218.145 30.992 218.091 31.4519 217.999 31.9226C217.907 32.3932 217.793 32.8693 217.69 33.3617C217.192 35.4977 216.494 37.5825 215.607 39.5887C214.696 41.5852 213.61 43.497 212.361 45.3018C211.761 46.1134 211.204 46.9249 210.609 47.5687C210.316 47.9095 210.067 48.2558 209.77 48.5588L208.948 49.4298C208.434 49.9708 207.909 50.4469 207.471 50.8689C207.032 51.2909 206.632 51.6209 206.302 51.886L205.593 52.5028C205.509 52.5797 205.417 52.6469 205.317 52.7029C205.389 52.6131 205.471 52.5315 205.561 52.4595L206.291 51.8048C206.61 51.5289 207 51.1827 207.422 50.7228C207.844 50.263 208.363 49.841 208.861 49.2675L209.667 48.3856C209.943 48.0827 210.208 47.7364 210.489 47.3956C211.074 46.7193 211.615 45.9348 212.205 45.1233C213.429 43.3267 214.497 41.4279 215.396 39.4481C216.273 37.4565 216.97 35.3906 217.479 33.2751L217.799 31.8468C217.896 31.3815 217.955 30.9217 218.031 30.4835C218.194 29.607 218.258 28.7793 218.34 28.0218C218.421 27.2644 218.432 26.5827 218.475 25.9768C218.518 25.3709 218.513 24.8569 218.513 24.4295C218.513 24.0021 218.513 23.7045 218.513 23.4503C218.504 23.3458 218.506 23.2406 218.518 23.1365Z" fill="#E0E0E0"/>
<path d="M195.996 39.2263L185.657 31.0083L188.525 27.3997L195.46 32.9126L205.588 21.5784L209.024 24.6513L195.996 39.2263Z" fill="white"/>
<path d="M244.839 46.979H242.881V36.3264C242.881 35.1211 242.402 33.9652 241.549 33.1129C240.697 32.2607 239.541 31.7819 238.336 31.7819C237.131 31.7819 235.975 32.2607 235.123 33.1129C234.27 33.9652 233.791 35.1211 233.791 36.3264V46.979H231.833V36.3264C231.833 34.6046 232.517 32.9533 233.735 31.7357C234.952 30.5182 236.603 29.8342 238.325 29.8342C240.047 29.8342 241.698 30.5182 242.916 31.7357C244.133 32.9533 244.817 34.6046 244.817 36.3264L244.839 46.979Z" fill="#EBEBEB"/>
<path d="M245.428 39.7512H231.238C230.317 39.7512 229.571 40.4973 229.571 41.4175V51.8213C229.571 52.7415 230.317 53.4876 231.238 53.4876H245.428C246.349 53.4876 247.095 52.7415 247.095 51.8213V41.4175C247.095 40.4973 246.349 39.7512 245.428 39.7512Z" fill="#EBEBEB"/>
<path d="M239.677 46.9736C239.851 46.7966 239.989 46.587 240.082 46.3567C240.175 46.1265 240.221 45.8801 240.218 45.6318C240.221 45.2719 240.123 44.9183 239.935 44.6111C239.747 44.3039 239.478 44.0553 239.156 43.8932C238.835 43.7312 238.474 43.6622 238.116 43.6941C237.757 43.726 237.415 43.8574 237.127 44.0736C236.839 44.2898 236.617 44.5822 236.487 44.9176C236.356 45.2531 236.322 45.6184 236.388 45.9723C236.454 46.3262 236.618 46.6545 236.861 46.9204C237.103 47.1862 237.416 47.3789 237.762 47.4767L237.351 49.3053H239.185L238.817 47.4767C239.137 47.3852 239.428 47.2118 239.661 46.9736" fill="#FAFAFA"/>
<path d="M22.4226 202.456C20.3214 201.141 17.9469 200.325 15.4814 200.07C14.3452 199.951 13.1063 199.983 12.1974 200.671C12.0919 200.731 12.0046 200.818 11.9446 200.924C11.8846 201.03 11.8542 201.15 11.8566 201.271C11.912 201.443 12.0272 201.588 12.1812 201.682C13.655 202.734 15.3886 203.362 17.1939 203.498C18.9993 203.635 20.8075 203.274 22.4226 202.456Z" fill="#E0E0E0"/>
<path d="M22.2437 202.261C20.6366 201.08 19.1359 199.76 17.7587 198.317C16.3787 196.864 15.4097 195.069 14.9508 193.118C14.8595 192.829 14.832 192.523 14.8703 192.223C14.9086 191.922 15.0118 191.633 15.1727 191.376C18.7434 194.168 21.5512 197.782 22.2437 202.261Z" fill="#E0E0E0"/>
<path d="M22.3841 202.429C22.0548 200.476 22.0842 198.479 22.4707 196.537C22.868 194.579 23.9859 192.841 25.6032 191.668C26.2199 193.112 25.9548 194.779 25.522 196.283C24.8493 198.62 23.7985 200.831 22.4112 202.829" fill="#E0E0E0"/>
<path d="M25.8903 208.71C23.7874 209.05 21.8421 210.035 20.3233 211.529C18.7258 212.98 17.6134 214.888 17.1367 216.993C19.225 216.863 20.9942 215.37 22.2764 213.747C23.5586 212.124 24.4404 210.29 25.8633 208.748" fill="#E0E0E0"/>
<path d="M26.6528 209.711C25.8153 207.586 25.5216 205.285 25.7984 203.018C26.0752 200.75 26.9138 198.588 28.238 196.727C29.4498 201.055 29.0008 205.924 26.6528 209.711Z" fill="#E0E0E0"/>
<path d="M31.2784 215.224C29.3341 215.106 27.398 215.561 25.7102 216.534C24.0224 217.506 22.6571 218.952 21.7836 220.693C21.67 220.926 21.5618 221.234 21.7241 221.435C21.8055 221.515 21.9053 221.573 22.0148 221.605C22.1243 221.637 22.24 221.642 22.3517 221.619C24.2236 221.5 25.8791 220.374 27.2479 219.092C28.6166 217.81 29.8123 216.327 31.3217 215.218" fill="#E0E0E0"/>
<path d="M31.132 214.932C30.1352 211.722 30.0732 208.296 30.9535 205.053C31.3051 203.781 31.8894 202.445 33.0634 201.85C33.1105 201.818 33.1636 201.796 33.2195 201.786C33.2754 201.776 33.3327 201.777 33.388 201.79C33.483 201.841 33.5547 201.926 33.5882 202.028C33.985 202.916 34.156 203.888 34.0859 204.858C34.0165 205.826 33.8682 206.787 33.6423 207.731C33.2744 209.484 33.1013 211.366 32.1112 212.881C31.8852 213.246 31.6811 213.623 31.4999 214.012C31.3213 214.396 31.3213 214.553 31.1536 214.834" fill="#E0E0E0"/>
<path d="M43.3866 216.749C42.9747 214.946 42.9612 213.075 43.3472 211.266C43.7331 209.457 44.5091 207.754 45.621 206.275C45.7779 206.064 45.9889 205.843 46.254 205.864C46.6544 205.902 46.7572 206.438 46.7409 206.838C46.575 210.39 45.4125 213.822 43.3866 216.744" fill="#E0E0E0"/>
<path d="M44.4902 217.507C46.6341 218.013 48.8623 218.048 51.0209 217.608C53.1795 217.169 55.2171 216.267 56.9931 214.964C54.9012 213.912 52.5088 213.62 50.225 214.136C47.9635 214.677 45.8969 215.662 44.4902 217.507Z" fill="#E0E0E0"/>
<path d="M45.4209 215.208C47.7743 211.377 52.281 208.878 56.7822 208.645C56.2412 210.474 54.7642 211.891 53.0708 212.751C51.3349 213.53 49.4998 214.065 47.6174 214.342C46.8925 214.483 45.897 214.639 45.4534 215.208" fill="#E0E0E0"/>
<path d="M43.619 204.047C44.3326 201.889 44.8185 199.662 45.0689 197.403C45.3204 195.13 44.8591 192.834 43.7488 190.835C41.5523 195.082 41.3305 200.032 43.5541 204.279" fill="#E0E0E0"/>
<path d="M51.0098 200.324C53.5796 195.661 58.8166 191.933 64.1131 191.408C62.0681 196.499 56.4957 200.433 51.0098 200.324Z" fill="#E0E0E0"/>
<path d="M49.3975 201.228C53.2224 201.812 56.4848 204.257 60.0609 205.74C60.8119 206.099 61.6432 206.258 62.4738 206.2C62.8596 206.195 63.2347 206.072 63.5485 205.847C63.8622 205.622 64.0996 205.307 64.2287 204.943C64.3578 204.58 64.3723 204.185 64.2704 203.813C64.1685 203.441 63.955 203.109 63.6586 202.862C63.1524 202.388 62.5564 202.02 61.9057 201.78C58.0104 200.157 53.8284 200.119 49.7275 201.103" fill="#E0E0E0"/>
<path d="M47.1787 203.911C48.0443 204.16 48.3419 204.609 49.029 205.193C51.3761 207.188 54.1541 208.61 57.1442 209.348C57.4526 209.424 57.8583 209.457 58.0152 209.181C58.1721 208.905 57.9774 208.64 57.8042 208.423C56.5093 206.9 54.8271 205.754 52.9351 205.107C51.0686 204.409 49.451 203.57 47.222 203.754" fill="#E0E0E0"/>
<path d="M44.6797 187.697C46.2499 189.144 48.1055 190.247 50.1274 190.935C52.1493 191.623 54.2926 191.88 56.4197 191.69C56.6173 191.696 56.8102 191.628 56.9607 191.5C57.2583 191.176 56.9012 190.678 56.5604 190.418C53.1087 187.713 48.9267 186.631 44.6905 187.713" fill="#E0E0E0"/>
<path d="M47.6445 186.61C49.7226 185.081 52.1326 184.066 54.6778 183.647C57.223 183.227 59.8313 183.416 62.2898 184.197C60.3729 185.972 57.9147 187.05 55.3107 187.259C52.737 187.495 50.1418 187.276 47.6445 186.61Z" fill="#E0E0E0"/>
<path d="M46.4655 179.16C46.1301 175.713 46.3465 172.998 46.1085 169.535C46.1085 169.259 46.0327 168.929 45.773 168.826C45.4106 168.691 45.113 169.129 44.994 169.497C44.4919 171.101 44.3629 172.799 44.617 174.46C44.8711 176.122 45.5015 177.703 46.4601 179.084" fill="#E0E0E0"/>
<path d="M46.2158 179.539C48.4753 178.089 50.4231 176.204 51.9452 173.993C53.0705 172.451 54.0227 170.606 53.7684 168.713C52.9747 168.734 52.1951 168.928 51.4841 169.281C50.773 169.634 50.1475 170.138 49.6513 170.758C48.6687 172.005 47.9541 173.442 47.5521 174.978C47.0977 176.493 46.7785 178.051 46.2375 179.539" fill="#E0E0E0"/>
<path d="M51.827 177.981C56.9718 176.082 61.7357 173.279 65.8934 169.703C64.2162 169.027 62.2956 169.433 60.6185 170.109C56.811 171.551 53.6654 174.34 51.7783 177.948" fill="#E0E0E0"/>
<path d="M47.7959 181.427C50.3808 181.794 53.0036 181.806 55.5919 181.464C58.1185 181.043 60.5097 180.036 62.8686 179.046C63.0749 178.985 63.2519 178.85 63.3663 178.667C63.4019 178.558 63.4039 178.44 63.3721 178.329C63.3403 178.218 63.2761 178.119 63.1878 178.045C63.0051 177.902 62.7924 177.802 62.5656 177.753C59.9958 177.039 57.2258 177.374 54.6992 178.224C52.2929 179.048 49.9792 180.121 47.7959 181.427Z" fill="#E0E0E0"/>
<path d="M33.0103 187.816C31.2412 184.245 31.3872 180.08 32.8859 176.401C33.9679 178.024 34.0923 180.123 33.8975 182.076C33.7028 184.029 33.1077 186.031 33.0644 187.989" fill="#E0E0E0"/>
<path d="M25.9281 184.251C23.7144 184.221 21.5189 184.654 19.4823 185.523C17.4457 186.391 15.613 187.675 14.1016 189.293C16.3374 189.561 18.6019 189.142 20.5937 188.092C22.5657 187.045 24.4256 185.8 26.1446 184.375" fill="#E0E0E0"/>
<path d="M21.178 182.66C19.0139 182.487 16.9418 182.222 14.8643 182.855C13.8161 183.15 12.8439 183.668 12.0139 184.372C11.1839 185.077 10.5156 185.953 10.0547 186.939C12.0923 187.103 14.1363 186.716 15.9734 185.82C17.7996 184.925 19.5414 183.867 21.178 182.66Z" fill="#E0E0E0"/>
<path d="M28.2115 182.736C26.2693 181.464 24.2729 180.166 22.0115 179.636C19.75 179.106 17.1423 179.501 15.5518 181.205C17.3804 182.287 19.604 182.406 21.7301 182.406C23.8563 182.406 26.4532 182.379 28.455 183.088" fill="#E0E0E0"/>
<path d="M28.2221 182.839C24.9003 179.593 23.6451 173.717 24.976 169.259C27.5973 173.274 28.7445 178.073 28.2221 182.839Z" fill="#E0E0E0"/>
<path d="M37.3379 173.598C37.9655 172.137 38.4199 170.612 38.9609 169.129C39.4731 167.625 40.2601 166.229 41.2819 165.012C42.317 163.778 43.7958 163.001 45.399 162.848C44.8869 165.095 43.9124 167.211 42.5376 169.061C41.1627 170.911 39.4177 172.454 37.4136 173.593" fill="#E0E0E0"/>
<path d="M35.7144 175.524C34.681 174.096 33.48 172.159 32.0733 171.093C30.6667 170.027 28.8272 169.384 27.123 169.789C28.0118 171.346 29.2508 172.675 30.7419 173.671C32.2331 174.666 33.9355 175.301 35.7144 175.524Z" fill="#E0E0E0"/>
<path d="M36.0342 173.717C35.2978 172.014 34.7535 170.234 34.4112 168.41C34.0712 166.564 34.3648 164.658 35.2443 163C37.0676 166.446 37.6573 170.147 36.1478 173.744" fill="#E0E0E0"/>
<path d="M37.376 162.994C38.4093 159.58 41.5364 157.043 44.9177 155.907C45.3353 155.735 45.7885 155.669 46.2378 155.712C46.4624 155.735 46.675 155.825 46.8484 155.969C47.0219 156.114 47.1483 156.307 47.2116 156.524C47.3361 157.103 46.8546 157.606 46.4001 158.011C43.7609 160.267 40.6906 161.962 37.376 162.994Z" fill="#E0E0E0"/>
<path d="M37.4145 160.219C37.5443 158.012 37.6795 155.777 38.3991 153.689C39.1186 151.601 40.4982 149.647 42.5054 148.733C42.8462 150.957 41.867 153.169 40.6822 155.085C39.4974 157 38.0691 158.807 37.3604 160.944" fill="#E0E0E0"/>
<path d="M37.3382 161.734C36.4833 159.245 36.3968 156.08 34.9036 153.911C33.8594 152.396 32.1985 151.362 31.295 149.756C30.7525 151.296 30.8281 152.987 31.506 154.473C32.1843 155.943 33.1186 157.28 34.2652 158.423C35.3472 159.602 36.3102 160.489 37.3382 161.734Z" fill="#E0E0E0"/>
<path d="M37.3763 235.068C37.3114 235.068 37.2519 218.459 37.2465 197.971C37.2411 177.483 37.2952 160.868 37.3601 160.868C37.425 160.868 37.4845 177.472 37.4899 197.971C37.4953 218.47 37.4412 235.068 37.3763 235.068Z" fill="#E0E0E0"/>
<path d="M51.8915 185.306C51.693 185.406 51.4844 185.486 51.2693 185.544L49.5489 186.123C48.099 186.615 46.108 187.329 43.9494 188.216C41.7907 189.104 39.789 189.877 38.642 190.873C38.1773 191.254 37.8069 191.737 37.56 192.285C37.3923 192.674 37.3652 192.912 37.3436 192.912C37.322 192.912 37.3436 192.847 37.3436 192.734C37.3711 192.57 37.4127 192.409 37.468 192.252C37.6847 191.673 38.0416 191.156 38.5068 190.748C39.2007 190.162 39.9773 189.68 40.8115 189.32C41.7312 188.887 42.7538 188.438 43.8358 187.995C45.9998 187.107 48.007 186.415 49.4732 185.96C50.2089 185.733 50.8041 185.565 51.2206 185.452C51.4392 185.382 51.6638 185.333 51.8915 185.306Z" fill="#E0E0E0"/>
<path d="M56.6526 173.62C56.6018 173.689 56.5418 173.751 56.4741 173.804L55.9331 174.307L53.9421 176.114L47.3201 182.011C44.7341 184.315 42.4997 186.512 40.9524 188.168C40.1733 188.995 39.562 189.682 39.1454 190.158L38.6639 190.699C38.6136 190.768 38.5534 190.828 38.4854 190.878C38.5257 190.802 38.5747 190.731 38.6314 190.667C38.7288 190.532 38.8749 190.332 39.0751 190.088C39.47 189.59 40.0651 188.887 40.8279 188.043C42.8263 185.859 44.9392 183.782 47.1578 181.821C49.7547 179.527 52.1135 177.461 53.8285 175.978C54.6725 175.253 55.365 174.664 55.8682 174.226L56.4092 173.76C56.4835 173.702 56.5654 173.655 56.6526 173.62Z" fill="#E0E0E0"/>
<path d="M44.5394 184.354C44.4691 184.321 45.0101 183.077 45.5511 181.497C46.0921 179.917 46.3464 178.592 46.4167 178.603C46.3606 179.62 46.1452 180.622 45.7783 181.573C45.546 182.247 45.2769 182.908 44.9722 183.553C44.8635 183.838 44.718 184.107 44.5394 184.354Z" fill="#E0E0E0"/>
<path d="M37.3922 194.406C37.2405 194.269 37.1061 194.115 36.9918 193.946L35.9693 192.637C35.1145 191.527 33.9297 189.996 32.5988 188.308C31.2679 186.62 30.0506 185.133 29.1633 184.045L28.1408 182.768C28.0039 182.617 27.8825 182.452 27.7783 182.276C27.9363 182.406 28.0812 182.551 28.2111 182.709C28.4762 182.996 28.8549 183.423 29.2932 183.953C30.2129 185.035 31.4572 186.496 32.7881 188.173C34.119 189.85 35.2822 191.419 36.1045 192.534C36.5211 193.075 36.8457 193.567 37.0675 193.892C37.1929 194.052 37.3017 194.224 37.3922 194.406Z" fill="#E0E0E0"/>
<path d="M34.2059 190.321C33.5645 189.611 33.1074 188.755 32.875 187.827C32.6219 187.012 32.5193 186.158 32.5721 185.306H32.6803C32.6655 185.409 32.6306 185.508 32.5775 185.598C32.5775 185.598 32.5775 185.484 32.5775 185.29H32.6857C32.7362 186.119 32.8778 186.941 33.1077 187.74C33.4111 188.626 33.7781 189.488 34.2059 190.321Z" fill="#E0E0E0"/>
<path d="M30.0993 185.176C29.8115 184.96 29.4992 184.778 29.1688 184.635C28.3314 184.382 27.4495 184.312 26.5827 184.429C25.705 184.493 24.8343 184.633 23.9805 184.846C23.6256 184.955 23.2642 185.042 22.8984 185.106C23.2143 184.911 23.5596 184.768 23.921 184.684C24.7775 184.418 25.6614 184.251 26.5557 184.186C27.4531 184.067 28.366 184.165 29.2175 184.473C29.584 184.598 29.8957 184.846 30.0993 185.176Z" fill="#E0E0E0"/>
<path d="M29.1257 183.899C29.1257 183.937 28.5847 183.683 27.6974 183.358C25.3853 182.571 22.9111 182.385 20.5073 182.817C19.5876 182.979 19.0358 183.153 19.0195 183.115C19.1359 183.04 19.2639 182.985 19.3982 182.952C19.7521 182.828 20.1135 182.727 20.4803 182.649C21.6892 182.384 22.9304 182.297 24.1646 182.39C25.3966 182.486 26.6083 182.759 27.7623 183.201C28.1108 183.335 28.4505 183.49 28.7794 183.666C28.9061 183.726 29.0229 183.804 29.1257 183.899Z" fill="#E0E0E0"/>
<path d="M37.3386 178.603C36.915 177.422 36.568 176.214 36.2998 174.989C35.9503 173.783 35.6792 172.556 35.4883 171.315C35.9123 172.497 36.261 173.704 36.5324 174.929C36.8788 176.135 37.148 177.362 37.3386 178.603Z" fill="#E0E0E0"/>
<path d="M37.4254 178.603C37.0928 177.855 36.7077 177.132 36.273 176.438C35.7858 175.782 35.2147 175.193 34.5742 174.686C34.8157 174.747 35.0397 174.864 35.2288 175.026C35.711 175.377 36.13 175.807 36.4678 176.298C36.9847 176.968 37.315 177.763 37.4254 178.603Z" fill="#E0E0E0"/>
<path d="M37.3763 226.212C37.3763 226.212 37.3005 225.812 37.1112 225.13C36.8459 224.137 36.4835 223.173 36.0291 222.252C34.4295 219.247 32.4513 216.46 30.1429 213.958C28.8282 212.454 27.5514 211.037 26.4694 209.679C25.4954 208.487 24.6163 207.221 23.8401 205.891C23.318 204.994 22.8746 204.052 22.5146 203.078C22.3902 202.732 22.3036 202.461 22.2549 202.277C22.2233 202.184 22.1997 202.088 22.1846 201.991C22.1846 201.991 22.3252 202.369 22.6011 203.046C22.9943 203.998 23.4572 204.921 23.9861 205.805C24.7789 207.113 25.6648 208.362 26.6371 209.543C27.7192 210.885 29.0068 212.292 30.3214 213.796C32.6467 216.313 34.6196 219.134 36.186 222.181C36.6382 223.117 36.9883 224.098 37.2302 225.108C37.2943 225.383 37.343 225.661 37.3763 225.941C37.3846 226.031 37.3846 226.122 37.3763 226.212Z" fill="#E0E0E0"/>
<path d="M50.4962 211.399C50.2739 211.538 50.0446 211.667 49.8091 211.783C49.1857 212.131 48.5889 212.526 48.0238 212.962C47.1864 213.61 46.403 214.325 45.6812 215.099C44.8588 215.965 44.0148 216.971 43.1492 218.053C41.4234 220.217 39.8057 222.143 38.8211 223.674C38.3288 224.432 37.9717 225.07 37.7391 225.519C37.6279 225.758 37.5014 225.989 37.3604 226.212C37.3604 226.212 37.3604 226.141 37.4253 226.017C37.4902 225.893 37.5443 225.709 37.6525 225.476C37.9595 224.826 38.3064 224.195 38.6912 223.588C40.0054 221.615 41.4306 219.718 42.9599 217.907C43.8255 216.825 44.6857 215.819 45.5243 214.948C46.2621 214.176 47.0639 213.469 47.921 212.832C48.5056 212.395 49.1284 212.011 49.7821 211.685C49.9575 211.595 50.1382 211.516 50.3231 211.447C50.4349 211.404 50.4926 211.388 50.4962 211.399Z" fill="#E0E0E0"/>
<path d="M50.7497 216.203C50.2703 216.308 49.784 216.379 49.2944 216.414C48.1269 216.533 46.9732 216.762 45.8481 217.096C44.7353 217.457 43.6924 218.006 42.7644 218.719C42.0556 219.26 41.7202 219.72 41.6823 219.698C41.6445 219.676 41.7364 219.563 41.8933 219.362C42.1193 219.08 42.373 218.821 42.6507 218.589C43.5712 217.82 44.631 217.236 45.7724 216.868C46.9115 216.529 48.0861 216.322 49.2728 216.252C49.7626 216.19 50.257 216.174 50.7497 216.203Z" fill="#E0E0E0"/>
<path d="M42.1095 219.162C42.0338 219.119 42.6884 218.118 43.1916 216.771C43.6947 215.424 43.7813 214.223 43.8624 214.239C43.9086 214.497 43.9086 214.761 43.8624 215.018C43.7886 215.645 43.6471 216.262 43.4404 216.858C43.2179 217.446 42.9351 218.01 42.5964 218.54C42.4706 218.774 42.306 218.984 42.1095 219.162Z" fill="#E0E0E0"/>
<path d="M54.7433 198.49C54.6728 198.544 54.5942 198.586 54.5107 198.615L53.829 198.923C53.526 199.053 53.1635 199.215 52.747 199.432C52.3304 199.648 51.8543 199.864 51.3565 200.162L50.5667 200.611C50.2907 200.773 50.0256 200.957 49.7281 201.152C49.1438 201.504 48.5595 201.942 47.9319 202.386C46.6059 203.392 45.3547 204.493 44.1881 205.68C43.0433 206.881 41.989 208.165 41.034 209.522C40.6066 210.165 40.19 210.766 39.8546 211.361C39.6869 211.653 39.5083 211.934 39.3568 212.216L38.9619 213.027C38.6806 213.536 38.4804 214.023 38.2802 214.439C38.08 214.856 37.9286 215.224 37.8095 215.521C37.6905 215.819 37.5985 216.03 37.5228 216.214C37.4931 216.297 37.455 216.377 37.4092 216.452C37.4195 216.364 37.4432 216.278 37.4795 216.198L37.723 215.489C37.8312 215.181 37.9664 214.802 38.1558 214.38C38.3451 213.958 38.5345 213.46 38.8104 212.946C38.9403 212.681 39.0809 212.405 39.2216 212.124C39.3622 211.842 39.5408 211.583 39.7139 211.258C40.0439 210.652 40.4551 210.046 40.8771 209.397C42.7761 206.62 45.1301 204.184 47.8399 202.191C48.4729 201.747 49.068 201.314 49.6578 200.968C49.9553 200.79 50.2312 200.6 50.5071 200.427L51.3133 199.983C51.8218 199.697 52.3087 199.486 52.7253 199.286C53.0775 199.11 53.4387 198.953 53.8073 198.815L54.5107 198.544C54.5862 198.519 54.6642 198.501 54.7433 198.49Z" fill="#E0E0E0"/>
<path d="M44.3711 205.448C44.4568 205.114 44.6463 204.817 44.9121 204.598C45.5521 204.041 46.3686 203.729 47.2168 203.716C48.0461 203.713 48.8679 203.872 49.6352 204.187C49.9592 204.291 50.2669 204.441 50.5495 204.631C50.2183 204.568 49.894 204.474 49.5811 204.349C48.8223 204.087 48.025 203.954 47.2222 203.954C46.4263 203.971 45.6567 204.243 45.0257 204.728C44.7888 204.95 44.5699 205.191 44.3711 205.448Z" fill="#E0E0E0"/>
<path d="M42.8076 207.049C43.1156 206.371 43.3356 205.657 43.4622 204.923C43.5061 204.18 43.457 203.435 43.3162 202.705C43.4554 202.887 43.5482 203.101 43.5867 203.327C43.8665 204.397 43.7332 205.532 43.2134 206.508C43.0078 206.876 42.8293 207.065 42.8076 207.049Z" fill="#E0E0E0"/>
<path d="M25.9014 228.592C26.2584 234.944 28.1736 241.398 31.1168 247.928H43.9118C46.7196 241.463 48.4996 235.02 48.8133 228.592H25.9014Z" fill="#E0E0E0"/>
<path d="M46.7413 238.866C46.7413 238.931 42.5268 238.985 37.3331 238.985C32.1393 238.985 27.9248 238.931 27.9248 238.866C27.9248 238.801 32.1339 238.736 37.3385 238.736C42.543 238.736 46.7413 238.801 46.7413 238.866Z" fill="#FAFAFA"/>
<path d="M46.454 241.165C46.454 241.23 42.5046 241.284 37.6355 241.284C32.7663 241.284 28.8115 241.23 28.8115 241.165C28.8115 241.1 32.7609 241.046 37.6355 241.046C42.51 241.046 46.454 241.1 46.454 241.165Z" fill="#FAFAFA"/>
<path d="M31.3222 232.785C31.4809 234.746 31.4809 236.716 31.3222 238.677C31.1634 236.716 31.1634 234.746 31.3222 232.785Z" fill="#FAFAFA"/>
<path d="M38.1766 232.785C38.3354 234.816 38.3354 236.857 38.1766 238.888C38.0179 236.857 38.0179 234.816 38.1766 232.785Z" fill="#FAFAFA"/>
<path d="M44.6151 232.709C44.7738 234.782 44.7738 236.864 44.6151 238.937C44.4564 236.864 44.4564 234.782 44.6151 232.709Z" fill="#FAFAFA"/>
<path d="M48.4074 232.785C48.4074 232.85 43.4679 232.904 37.3761 232.904C31.2843 232.904 26.334 232.85 26.334 232.785C26.334 232.72 31.2789 232.666 37.3761 232.666C43.4733 232.666 48.4074 232.693 48.4074 232.785Z" fill="#FAFAFA"/>
<path d="M246.922 173.56C248.093 173.043 249.086 172.194 249.78 171.118C250.473 170.042 250.836 168.786 250.823 167.506C250.823 163.892 248.118 160.949 244.715 160.939C241.312 160.928 238.563 163.838 238.553 167.431C238.528 168.721 238.886 169.989 239.581 171.076C240.276 172.163 241.277 173.02 242.459 173.539C233.018 174.962 233.445 185.219 233.445 185.219L255.773 185.322C255.773 185.322 256.282 174.972 246.922 173.56Z" fill="#EBEBEB"/>
<path d="M146.552 24.3918C147.374 24.2303 148.132 23.8335 148.733 23.2496C149.335 22.6657 149.753 21.9198 149.939 21.1025C150.093 20.578 150.138 20.0276 150.072 19.485C150.007 18.9423 149.831 18.4187 149.556 17.9462C149.282 17.4736 148.914 17.0619 148.475 16.7362C148.036 16.4106 147.535 16.1777 147.003 16.0519C146.471 15.9261 145.919 15.91 145.381 16.0045C144.842 16.099 144.329 16.3021 143.871 16.6016C143.414 16.901 143.023 17.2905 142.721 17.7462C142.419 18.2019 142.213 18.7143 142.116 19.2522C141.908 20.0725 141.948 20.9361 142.231 21.7335C142.514 22.531 143.027 23.2265 143.706 23.7318C137.468 23.2395 136.229 29.8507 136.229 29.8507L150.458 33.2212C150.458 33.2212 152.319 26.6587 146.552 24.3918Z" fill="#EBEBEB"/>
<path d="M247.533 79.4671C248.215 79.0404 248.757 78.4228 249.092 77.691C249.427 76.9591 249.539 76.1452 249.416 75.35C249.375 74.8235 249.227 74.3111 248.98 73.8441C248.734 73.3772 248.394 72.9658 247.983 72.6353C247.571 72.3047 247.096 72.0621 246.587 71.9224C246.077 71.7827 245.545 71.7488 245.022 71.8229C244.499 71.897 243.997 72.0775 243.547 72.3532C243.097 72.6289 242.708 72.994 242.404 73.4259C242.101 73.8579 241.889 74.3475 241.782 74.8645C241.675 75.3815 241.675 75.915 241.782 76.432C241.882 77.2371 242.218 77.9944 242.749 78.608C243.28 79.2215 243.981 79.6636 244.763 79.8783C239.023 81.6149 240.208 87.9556 240.208 87.9556L254.101 86.0134C254.101 86.0134 253.479 79.505 247.533 79.4671Z" fill="#F5F5F5"/>
<path d="M24.6132 81.4308L17.1094 75.4634L19.1869 72.8449L24.2237 76.843L31.5707 68.625L34.0648 70.854L24.6132 81.4308Z" fill="#F5F5F5"/>
<path d="M251.936 248.117C251.936 248.199 197.754 248.258 130.938 248.258C64.1231 248.258 9.92969 248.199 9.92969 248.117C9.92969 248.036 64.0961 247.977 130.938 247.977C197.781 247.977 251.936 248.042 251.936 248.117Z" fill="#263238"/>
<path d="M34.8493 90.071L18.2564 98.3972C17.6544 98.6594 17.1425 99.0922 16.7839 99.6422C16.4252 100.192 16.2356 100.835 16.2384 101.492V109.255C16.2194 116.317 18.2756 123.229 22.1517 129.132C25.1435 133.688 29.1092 139.509 35.7041 142.836H38.6797C46.0267 140.596 51.5072 134.629 54.8561 129.522C58.7338 123.619 60.7919 116.707 60.7748 109.645V101.492C60.7739 100.833 60.5797 100.188 60.2162 99.6379C59.8527 99.0878 59.3359 98.6565 58.7297 98.3972L39.7996 90.3415C38.961 89.9844 35.7149 89.7139 34.8493 90.071Z" fill="#2828C2"/>
<path d="M34.184 90.3415L15.2755 98.3972C14.6693 98.6564 14.1525 99.0878 13.789 99.6378C13.4255 100.188 13.2313 100.832 13.2305 101.492V109.255C13.2309 116.445 15.3638 123.474 19.3594 129.451C23.355 135.429 29.0337 140.087 35.6772 142.836C43.0187 140.596 48.4992 134.629 51.8535 129.522C55.7312 123.619 57.7893 116.707 57.7722 109.645V101.492C57.7718 100.833 57.5784 100.189 57.2159 99.6389C56.8535 99.089 56.3378 98.6573 55.7326 98.3972L36.7971 90.3415C36.3834 90.1678 35.9392 90.0784 35.4905 90.0784C35.0419 90.0784 34.5977 90.1678 34.184 90.3415Z" fill="#01E4F6"/>
<path opacity="0.3" d="M39.988 125.555C46.3701 123.079 49.5371 115.899 47.0616 109.517C44.5862 103.135 37.4057 99.9676 31.0236 102.443C24.6415 104.919 21.4745 112.099 23.95 118.481C26.4254 124.863 33.6059 128.03 39.988 125.555Z" fill="black"/>
<path d="M35.4986 114.687C38.3401 114.687 40.6436 112.384 40.6436 109.542C40.6436 106.7 38.3401 104.397 35.4986 104.397C32.657 104.397 30.3535 106.7 30.3535 109.542C30.3535 112.384 32.657 114.687 35.4986 114.687Z" fill="white"/>
<path d="M26.1064 122.078C26.9339 120.346 28.2398 118.888 29.8696 117.876C31.4995 116.864 33.3852 116.339 35.3037 116.364C37.271 116.365 39.2018 116.896 40.8928 117.901C42.5837 118.906 43.9723 120.349 44.9121 122.078C44.9121 122.078 41.877 126.568 35.1739 126.406C33.4366 126.399 31.7225 126.007 30.1547 125.259C28.5869 124.51 27.2044 123.424 26.1064 122.078Z" fill="white"/>
<path d="M47.8936 114C47.8874 113.934 47.8874 113.867 47.8936 113.8C47.8936 113.654 47.8936 113.459 47.8449 113.216C47.8449 113.086 47.8449 112.94 47.8449 112.783C47.8449 112.626 47.7908 112.453 47.7637 112.242C47.7073 111.812 47.6206 111.388 47.5041 110.97C47.2099 109.815 46.7449 108.71 46.1245 107.692C45.3107 106.341 44.2455 105.158 42.9866 104.208C41.4657 103.051 39.6939 102.269 37.8145 101.925C35.6568 101.528 33.4322 101.714 31.371 102.466C30.8132 102.659 30.2707 102.894 29.748 103.169C29.2253 103.455 28.7228 103.777 28.2439 104.132C27.7569 104.498 27.2926 104.894 26.8535 105.317C26.4232 105.763 26.022 106.237 25.6525 106.734C24.8951 107.76 24.3053 108.9 23.905 110.11C23.0609 112.62 23.0609 115.337 23.905 117.847C24.3029 119.058 24.8929 120.198 25.6525 121.223C26.022 121.722 26.4231 122.197 26.8535 122.646C27.2912 123.068 27.7557 123.462 28.2439 123.825C29.1832 124.541 30.2293 125.105 31.344 125.497C33.4052 126.248 35.6298 126.435 37.7874 126.038C39.501 125.715 41.1271 125.034 42.5592 124.039C43.9913 123.044 45.197 121.758 46.0974 120.265C46.711 119.254 47.1688 118.156 47.4554 117.008C47.5714 116.589 47.6582 116.162 47.7151 115.731C47.7151 115.547 47.78 115.374 47.7962 115.19C47.8124 115.006 47.7962 114.887 47.7962 114.758L47.8449 114.168C47.8394 114.101 47.8394 114.034 47.8449 113.968C47.8507 114.034 47.8507 114.101 47.8449 114.168C47.8449 114.319 47.8449 114.514 47.8449 114.763C47.8449 114.893 47.8449 115.039 47.8449 115.196C47.8449 115.353 47.8016 115.531 47.7746 115.737C47.7313 116.174 47.6517 116.606 47.5365 117.03C47.262 118.202 46.8076 119.324 46.1894 120.357C44.7192 122.867 42.4161 124.783 39.6804 125.771C36.9446 126.759 33.949 126.758 31.2141 125.767C30.6572 125.567 30.1149 125.328 29.5911 125.053C29.0585 124.753 28.5486 124.415 28.0654 124.041C27.5622 123.672 27.085 123.269 26.6371 122.835C26.2065 122.385 25.8053 121.908 25.4361 121.407C24.6573 120.359 24.0509 119.194 23.6399 117.955C23.229 116.676 23.012 115.343 22.9961 114C23.0111 112.657 23.23 111.323 23.6453 110.045C24.0522 108.806 24.6569 107.64 25.4361 106.594C25.8164 106.085 26.2284 105.601 26.6696 105.144C27.1158 104.71 27.5912 104.306 28.0925 103.937C28.5722 103.571 29.0765 103.239 29.6019 102.942C30.1256 102.665 30.6679 102.424 31.2249 102.222C33.3288 101.46 35.5981 101.273 37.7983 101.681C39.5435 102.017 41.1969 102.721 42.6478 103.748C44.0987 104.774 45.3135 106.098 46.211 107.632C46.8293 108.667 47.2838 109.791 47.5582 110.965C47.6733 111.387 47.7529 111.818 47.7962 112.253C47.7962 112.442 47.8557 112.615 47.8665 112.794V113.232C47.8665 113.481 47.8665 113.676 47.8665 113.822C47.8805 113.88 47.8896 113.94 47.8936 114Z" fill="#263238"/>
<path d="M57.7068 107.54C57.732 107.659 57.7447 107.781 57.7447 107.903C57.7447 108.162 57.7447 108.503 57.7879 108.931C57.8312 109.358 57.8312 109.921 57.7879 110.554C57.7879 110.873 57.7879 111.208 57.7879 111.571C57.7879 111.933 57.7879 112.312 57.7176 112.707C57.6419 113.502 57.5878 114.379 57.4201 115.309C57.3497 115.775 57.2902 116.256 57.1928 116.748C57.0954 117.241 56.9764 117.744 56.8682 118.263C56.348 120.5 55.6236 122.684 54.7042 124.788C53.7541 126.881 52.6188 128.886 51.312 130.777C50.6844 131.626 50.1055 132.449 49.478 133.157C49.175 133.514 48.8937 133.877 48.5961 134.196L47.7359 135.105C47.1949 135.706 46.6539 136.187 46.1886 136.614C45.7993 136.997 45.3893 137.358 44.9605 137.696L44.1598 138.346C44.072 138.424 43.9758 138.493 43.873 138.551C43.95 138.461 44.0351 138.377 44.1273 138.302L44.8902 137.615C45.231 137.323 45.6368 136.961 46.0804 136.533C46.524 136.106 47.065 135.603 47.5898 135.002L48.4338 134.082C48.7259 133.763 48.9748 133.401 49.2994 133.044C49.9108 132.335 50.4788 131.513 51.101 130.658C52.3852 128.774 53.5038 126.783 54.4445 124.707C55.3587 122.612 56.083 120.439 56.6085 118.215L56.944 116.71C57.0413 116.224 57.1063 115.742 57.1874 115.282C57.3605 114.362 57.4255 113.491 57.512 112.702C57.5607 112.307 57.5932 111.928 57.604 111.571L57.6527 110.559C57.7014 109.926 57.6906 109.38 57.6906 108.936C57.6906 108.492 57.6906 108.173 57.6906 107.908C57.6867 107.785 57.6921 107.662 57.7068 107.54Z" fill="#263238"/>
<path d="M189.26 248.118H61.3319C60.4938 248.103 59.6666 247.924 58.8978 247.59C58.1289 247.256 57.4334 246.774 56.8511 246.171C56.2687 245.568 55.8109 244.856 55.5039 244.076C55.1968 243.296 55.0465 242.463 55.0616 241.625V46.0918C55.0465 45.2537 55.1968 44.4208 55.5039 43.6408C55.8109 42.8608 56.2687 42.149 56.8511 41.546C57.4334 40.9431 58.1289 40.4608 58.8978 40.1268C59.6666 39.7928 60.4938 39.6137 61.3319 39.5996H189.26C190.098 39.6137 190.925 39.7929 191.694 40.1269C192.462 40.461 193.157 40.9433 193.739 41.5463C194.321 42.1494 194.778 42.8612 195.085 43.6412C195.391 44.4212 195.541 45.2539 195.525 46.0918V241.636C195.54 242.473 195.389 243.305 195.082 244.083C194.775 244.862 194.317 245.573 193.735 246.175C193.154 246.777 192.459 247.258 191.691 247.591C190.923 247.925 190.097 248.103 189.26 248.118Z" fill="#263238"/>
<path d="M127.747 238.633C127.768 239.815 127.436 240.975 126.795 241.967C126.153 242.959 125.231 243.738 124.146 244.204C123.06 244.671 121.86 244.803 120.699 244.585C119.538 244.367 118.468 243.809 117.626 242.981C116.783 242.153 116.206 241.093 115.968 239.936C115.73 238.778 115.841 237.577 116.289 236.483C116.736 235.39 117.498 234.454 118.479 233.796C119.46 233.137 120.615 232.785 121.796 232.785C123.36 232.772 124.866 233.381 125.982 234.478C127.098 235.574 127.733 237.069 127.747 238.633Z" fill="#455A64"/>
<path d="M139.688 50.6256H111.014C110.747 50.6214 110.483 50.5645 110.238 50.4584C109.993 50.3522 109.771 50.1988 109.585 50.0069C109.399 49.815 109.253 49.5883 109.154 49.3399C109.056 49.0914 109.008 48.8261 109.012 48.5589C109.003 48.0189 109.209 47.4974 109.584 47.109C109.96 46.7205 110.474 46.4968 111.014 46.4868H139.688C140.228 46.4968 140.742 46.7205 141.117 47.109C141.492 47.4974 141.698 48.0189 141.689 48.5589C141.694 48.8261 141.645 49.0914 141.547 49.3399C141.449 49.5883 141.302 49.815 141.117 50.0069C140.931 50.1988 140.709 50.3522 140.464 50.4584C140.218 50.5645 139.955 50.6214 139.688 50.6256Z" fill="#455A64"/>
<path d="M190.98 54.4829H59.373V228.614H190.98V54.4829Z" fill="white"/>
<path d="M190.981 54.4829H185.365V228.614H190.981V54.4829Z" fill="#F5F5F5"/>
<path d="M188.167 117.046C187.703 117.045 187.259 116.859 186.931 116.531C186.604 116.202 186.42 115.757 186.42 115.293V76.7783C186.42 76.3143 186.604 75.8693 186.931 75.5407C187.259 75.2121 187.703 75.0268 188.167 75.0254C188.632 75.0254 189.078 75.2101 189.407 75.5388C189.736 75.8675 189.92 76.3134 189.92 76.7783V115.293C189.92 115.758 189.736 116.204 189.407 116.533C189.078 116.861 188.632 117.046 188.167 117.046Z" fill="#E0E0E0"/>
<path d="M173.814 94.1123H76.778C76.0376 94.1123 75.3275 93.8182 74.804 93.2947C74.2804 92.7711 73.9863 92.0611 73.9863 91.3207C73.9863 90.5803 74.2804 89.8702 74.804 89.3467C75.3275 88.8232 76.0376 88.5291 76.778 88.5291H173.814C174.555 88.5291 175.265 88.8232 175.788 89.3467C176.312 89.8702 176.606 90.5803 176.606 91.3207C176.606 92.0611 176.312 92.7711 175.788 93.2947C175.265 93.8182 174.555 94.1123 173.814 94.1123Z" fill="#E0E0E0"/>
<path d="M158.888 73.7268H97.8453C97.105 73.7268 96.3949 73.4327 95.8714 72.9092C95.3478 72.3856 95.0537 71.6756 95.0537 70.9352C95.0537 70.1948 95.3478 69.4847 95.8714 68.9612C96.3949 68.4377 97.105 68.1436 97.8453 68.1436H158.888C159.628 68.1436 160.338 68.4377 160.862 68.9612C161.386 69.4847 161.68 70.1948 161.68 70.9352C161.68 71.6756 161.386 72.3856 160.862 72.9092C160.338 73.4327 159.628 73.7268 158.888 73.7268Z" fill="#2828C2"/>
<path d="M160.035 105.349H90.5582C89.8178 105.349 89.1078 105.055 88.5842 104.531C88.0607 104.008 87.7666 103.298 87.7666 102.557C87.7666 101.817 88.0607 101.107 88.5842 100.584C89.1078 100.06 89.8178 99.7659 90.5582 99.7659H160.035C160.402 99.7659 160.765 99.8381 161.104 99.9784C161.442 100.119 161.75 100.324 162.009 100.584C162.269 100.843 162.474 101.15 162.614 101.489C162.755 101.828 162.827 102.191 162.827 102.557C162.827 102.924 162.755 103.287 162.614 103.626C162.474 103.965 162.269 104.272 162.009 104.531C161.75 104.791 161.442 104.996 161.104 105.137C160.765 105.277 160.402 105.349 160.035 105.349Z" fill="#E0E0E0"/>
<path d="M128.666 154.338H75.2086C74.4682 154.338 73.7582 154.044 73.2346 153.521C72.7111 152.997 72.417 152.287 72.417 151.547C72.417 151.18 72.4892 150.817 72.6295 150.478C72.7698 150.14 72.9754 149.832 73.2346 149.573C73.4939 149.313 73.8016 149.108 74.1403 148.967C74.479 148.827 74.842 148.755 75.2086 148.755H128.666C129.033 148.755 129.396 148.827 129.735 148.967C130.073 149.108 130.381 149.313 130.64 149.573C130.9 149.832 131.105 150.14 131.245 150.478C131.386 150.817 131.458 151.18 131.458 151.547C131.458 152.287 131.164 152.997 130.64 153.521C130.117 154.044 129.407 154.338 128.666 154.338Z" fill="#E0E0E0"/>
<path d="M172.245 142.636H75.2086C74.4682 142.636 73.7582 142.342 73.2346 141.818C72.7111 141.295 72.417 140.585 72.417 139.844C72.417 139.478 72.4892 139.115 72.6296 138.777C72.77 138.438 72.9757 138.131 73.235 137.872C73.4943 137.613 73.8021 137.408 74.1407 137.269C74.4794 137.129 74.8423 137.057 75.2086 137.058H172.245C172.611 137.057 172.974 137.129 173.313 137.269C173.652 137.408 173.959 137.613 174.219 137.872C174.478 138.131 174.684 138.438 174.824 138.777C174.964 139.115 175.037 139.478 175.037 139.844C175.037 140.211 174.964 140.574 174.824 140.913C174.684 141.251 174.478 141.559 174.219 141.818C173.96 142.078 173.652 142.283 173.313 142.423C172.975 142.564 172.612 142.636 172.245 142.636Z" fill="#E0E0E0"/>
<path d="M172.246 174.707H87.3121C85.7704 174.707 84.5205 175.957 84.5205 177.499C84.5205 179.041 85.7704 180.291 87.3121 180.291H172.246C173.788 180.291 175.038 179.041 175.038 177.499C175.038 175.957 173.788 174.707 172.246 174.707Z" fill="#E0E0E0"/>
<path d="M172.245 192.209H75.2086C74.4682 192.209 73.7582 191.915 73.2346 191.392C72.7111 190.868 72.417 190.158 72.417 189.418C72.4199 188.679 72.7152 187.972 73.2385 187.451C73.7617 186.929 74.4701 186.637 75.2086 186.637H172.245C172.612 186.637 172.975 186.709 173.313 186.849C173.652 186.99 173.96 187.195 174.219 187.454C174.478 187.714 174.684 188.021 174.824 188.36C174.964 188.699 175.037 189.062 175.037 189.428C175.034 190.167 174.738 190.874 174.215 191.395C173.692 191.917 172.984 192.209 172.245 192.209Z" fill="#E0E0E0"/>
<path d="M172.245 204.339H75.2086C74.4682 204.339 73.7582 204.045 73.2346 203.521C72.7111 202.997 72.417 202.287 72.417 201.547C72.417 200.807 72.7111 200.097 73.2346 199.573C73.7582 199.049 74.4682 198.755 75.2086 198.755H172.245C172.612 198.755 172.975 198.828 173.313 198.968C173.652 199.108 173.96 199.314 174.219 199.573C174.478 199.832 174.684 200.14 174.824 200.479C174.964 200.817 175.037 201.18 175.037 201.547C175.037 202.287 174.743 202.997 174.219 203.521C173.695 204.045 172.985 204.339 172.245 204.339Z" fill="#E0E0E0"/>
<path d="M79.5751 177.499C79.5751 178.073 79.4049 178.634 79.086 179.111C78.7671 179.588 78.3139 179.959 77.7837 180.179C77.2535 180.398 76.6702 180.455 76.1075 180.343C75.5448 180.23 75.0282 179.954 74.6228 179.548C74.2175 179.141 73.9417 178.624 73.8305 178.061C73.7192 177.499 73.7774 176.915 73.9977 176.385C74.218 175.856 74.5905 175.403 75.0681 175.085C75.5457 174.767 76.1069 174.598 76.6806 174.599C77.4488 174.601 78.185 174.907 78.7276 175.45C79.2703 175.994 79.5751 176.731 79.5751 177.499Z" fill="#2828C2"/>
<path d="M172.246 131.735H87.3063C86.5659 131.735 85.8558 131.441 85.3323 130.917C84.8088 130.393 84.5146 129.683 84.5146 128.943C84.5146 128.203 84.8088 127.493 85.3323 126.969C85.8558 126.445 86.5659 126.151 87.3063 126.151H172.246C172.612 126.151 172.975 126.224 173.314 126.364C173.653 126.504 173.96 126.71 174.22 126.969C174.479 127.228 174.684 127.536 174.825 127.875C174.965 128.213 175.037 128.576 175.037 128.943C175.037 129.31 174.965 129.673 174.825 130.011C174.684 130.35 174.479 130.658 174.22 130.917C173.96 131.176 173.653 131.382 173.314 131.522C172.975 131.662 172.612 131.735 172.246 131.735Z" fill="#E0E0E0"/>
<path d="M76.6811 131.843C78.2826 131.843 79.5809 130.544 79.5809 128.943C79.5809 127.341 78.2826 126.043 76.6811 126.043C75.0796 126.043 73.7812 127.341 73.7812 128.943C73.7812 130.544 75.0796 131.843 76.6811 131.843Z" fill="#2828C2"/>
<path d="M169.535 222.089H147.76C146.58 222.089 145.449 221.621 144.615 220.787C143.781 219.953 143.312 218.822 143.312 217.642C143.312 216.463 143.781 215.332 144.615 214.498C145.449 213.664 146.58 213.195 147.76 213.195H169.535C170.715 213.195 171.846 213.664 172.68 214.498C173.514 215.332 173.983 216.463 173.983 217.642C173.983 218.822 173.514 219.953 172.68 220.787C171.846 221.621 170.715 222.089 169.535 222.089Z" fill="#2828C2"/>
<path d="M57.3556 12.2406L34.7845 23.564C33.9585 23.9152 33.254 24.5014 32.7587 25.2497C32.2633 25.9981 31.9988 26.8756 31.9982 27.7731V38.3337C31.9715 47.9449 34.771 57.3518 40.0485 65.3845C44.117 71.5628 49.5055 79.4833 58.4809 84.0062H62.5277C72.5148 80.9603 79.97 72.8396 84.5308 65.8984C89.8083 57.8658 92.6078 48.4588 92.5811 38.8477V27.7731C92.5823 26.8781 92.3211 26.0023 91.8297 25.2542C91.3383 24.5061 90.6384 23.9184 89.8165 23.564L64.0858 12.5922C62.9389 12.1216 58.5026 11.7537 57.3556 12.2406Z" fill="#01E4F6"/>
<path d="M56.4464 12.5923L30.732 23.5641C29.9066 23.9154 29.2029 24.5019 28.7084 25.2503C28.214 25.9988 27.9506 26.8761 27.9512 27.7732V38.3338C27.9525 48.1125 30.8537 57.6712 36.288 65.8009C41.7223 73.9306 49.4454 80.2662 58.4806 84.0062C68.4678 80.9603 75.923 72.8397 80.4783 65.8985C85.7581 57.8669 88.5578 48.4593 88.5286 38.8477V27.7732C88.5292 26.8761 88.2658 25.9988 87.7713 25.2503C87.2769 24.5019 86.5731 23.9154 85.7478 23.5641L60.0604 12.5923C59.4894 12.3476 58.8746 12.2214 58.2534 12.2214C57.6322 12.2214 57.0174 12.3476 56.4464 12.5923Z" fill="#2828C2"/>
<path d="M88.4472 36.002C88.4539 36.0432 88.4539 36.0852 88.4472 36.1264C88.4472 36.2238 88.4472 36.3428 88.4472 36.4889C88.4472 36.8351 88.4743 37.3004 88.4959 37.8901C88.5175 38.4798 88.55 39.2372 88.4959 40.1028C88.4959 40.5357 88.4959 40.9955 88.4526 41.4824C88.4526 41.7313 88.4526 41.9802 88.4526 42.2399C88.4526 42.4995 88.4039 42.7809 88.3769 43.0351C88.2687 44.1172 88.1983 45.3074 87.9711 46.568C87.8683 47.1956 87.7872 47.8556 87.6573 48.521C87.5275 49.1865 87.3652 49.8736 87.2137 50.5769C86.4991 53.6179 85.5049 56.5863 84.2435 59.4441C82.9546 62.289 81.4157 65.0137 79.6449 67.5864C78.7901 68.7442 78.0219 69.8641 77.1562 70.8325C76.7397 71.3194 76.3609 71.8117 75.9552 72.2445L74.7866 73.4889C74.0616 74.3004 73.315 74.9442 72.6929 75.5447C72.3737 75.8369 72.0869 76.1182 71.811 76.3617L71.0536 76.973L69.9716 77.8603L69.6848 78.0875C69.6199 78.1362 69.582 78.1578 69.582 78.1524C69.582 78.147 69.582 78.12 69.6632 78.0604L69.9337 77.817L70.9778 76.8919L71.7407 76.2264C72.0166 75.9829 72.2817 75.6854 72.6063 75.3932C73.2176 74.7873 73.948 74.1381 74.6622 73.3212L75.8145 72.066C76.2149 71.6332 76.5882 71.1409 76.9939 70.654C77.8325 69.6909 78.617 68.571 79.4501 67.4079C81.2036 64.8407 82.7297 62.1253 84.0109 59.2926C85.2613 56.4492 86.2553 53.4998 86.9811 50.4795C87.138 49.7816 87.284 49.0999 87.4355 48.4399C87.587 47.7798 87.6519 47.1198 87.7601 46.4922C87.9982 45.2371 88.0793 44.0523 88.1983 42.9756C88.2308 42.7105 88.2579 42.4346 88.2849 42.1912C88.312 41.9477 88.2849 41.6826 88.3174 41.4392C88.339 40.9522 88.3607 40.4924 88.3823 40.0596C88.4418 39.1994 88.4256 38.4365 88.4256 37.8522V36.4943V36.1264C88.4246 36.0839 88.4319 36.0416 88.4472 36.002Z" fill="#263238"/>
<path d="M68.4241 50.1927H65.6811V35.2661C65.6328 33.6087 64.9405 32.0354 63.751 30.8801C62.5616 29.7248 60.9688 29.0786 59.3107 29.0786C57.6525 29.0786 56.0597 29.7248 54.8703 30.8801C53.6809 32.0354 52.9885 33.6087 52.9402 35.2661V50.1927H50.1973V35.2661C50.2552 32.8875 51.2408 30.6259 52.9436 28.9641C54.6464 27.3023 56.9314 26.3721 59.3107 26.3721C61.6899 26.3721 63.9749 27.3023 65.6777 28.9641C67.3805 30.6259 68.3661 32.8875 68.4241 35.2661V50.1927Z" fill="#F5F5F5"/>
<path d="M68.451 40.0649H50.1755C48.4395 40.0649 47.0322 41.4722 47.0322 43.2082V56.171C47.0322 57.9069 48.4395 59.3142 50.1755 59.3142H68.451C70.187 59.3142 71.5943 57.9069 71.5943 56.171V43.2082C71.5943 41.4722 70.187 40.0649 68.451 40.0649Z" fill="white"/>
<path d="M68.4513 59.3142C68.7263 59.2851 68.9992 59.2381 69.2682 59.1735C69.9236 58.9844 70.499 58.5858 70.9065 58.0386C71.3139 57.4915 71.5309 56.826 71.5242 56.1438C71.5242 55.5108 71.5242 54.8238 71.5242 54.0826C71.5242 52.6056 71.5242 50.923 71.5242 49.0619C71.5242 47.2009 71.5242 45.172 71.5242 42.9863C71.4835 42.4416 71.2961 41.918 70.9817 41.4713C70.6674 41.0245 70.2379 40.6713 69.7389 40.449C69.2066 40.2299 68.6298 40.1409 68.0563 40.1893H66.2385L50.1758 40.1839C49.5006 40.1836 48.8451 40.411 48.315 40.8291C47.7849 41.2473 47.4112 41.8319 47.2543 42.4886C47.1841 42.8155 47.155 43.1499 47.1677 43.4841V46.53C47.1677 49.2351 47.1677 51.7887 47.1677 54.2503C47.2164 55.473 46.9622 56.7335 47.5897 57.6965C47.8676 58.1696 48.2682 58.5586 48.7492 58.8225C49.2302 59.0863 49.7736 59.2151 50.3219 59.1952H56.4083L65.2214 59.2438H67.6127H68.2349C68.3068 59.237 68.3793 59.237 68.4513 59.2438C68.3793 59.2519 68.3068 59.2519 68.2349 59.2438H67.6127H65.2214L56.4083 59.2871H50.3219C49.8748 59.3072 49.4284 59.2354 49.0103 59.0761C48.5921 58.9169 48.211 58.6735 47.8906 58.3612C47.5701 58.0489 47.3171 57.6742 47.1472 57.2602C46.9773 56.8463 46.8941 56.4019 46.9026 55.9545V54.2503C46.9026 51.7887 46.9026 49.208 46.9026 46.53V43.5057C46.8864 43.1426 46.9173 42.7789 46.9946 42.4237C47.1704 41.7146 47.5802 41.0856 48.1578 40.6383C48.7401 40.1777 49.4604 39.9262 50.2028 39.9242H66.206H68.0239C68.6338 39.8776 69.246 39.9778 69.8092 40.2164C70.3474 40.4566 70.81 40.8389 71.1474 41.3221C71.4848 41.8053 71.6842 42.3713 71.7244 42.9593C71.7244 45.1666 71.7244 47.19 71.7244 49.0511C71.7244 50.9122 71.7244 52.5948 71.7244 54.0717C71.7244 54.8129 71.7244 55.5 71.7244 56.133C71.725 56.7255 71.5601 57.3064 71.2483 57.8102C70.8241 58.5098 70.1422 59.0149 69.3493 59.2168C69.0587 59.305 68.7541 59.338 68.4513 59.3142Z" fill="#263238"/>
<path d="M61.1965 50.1873C61.4441 49.9404 61.6404 49.6469 61.7741 49.3238C61.9078 49.0007 61.9763 48.6543 61.9755 48.3046C61.9787 47.8006 61.841 47.3057 61.5779 46.8757C61.3148 46.4458 60.9369 46.0979 60.4866 45.8713C60.0364 45.6447 59.5318 45.5484 59.0298 45.5933C58.5277 45.6381 58.0482 45.8223 57.6453 46.1252C57.2424 46.428 56.9321 46.8374 56.7494 47.3072C56.5667 47.7769 56.5189 48.2884 56.6113 48.7839C56.7038 49.2794 56.9329 49.7392 57.2727 50.1114C57.6126 50.4837 58.0496 50.7536 58.5347 50.8907L57.9558 53.4551H60.5256L59.9846 50.8907C60.4336 50.7624 60.8418 50.5201 61.1694 50.1873" fill="#01E4F6"/>
<path d="M228.759 69.4906V91.4126C228.808 95.1997 229.365 101.151 223.349 100.956C218.161 100.415 216.781 95.4756 216.743 91.9373C216.743 90.2602 216.706 88.859 216.689 88.6913C216.689 88.6913 211.009 88.226 210.527 82.6102C210.295 79.9052 210.273 74.2732 210.311 69.1823C210.334 66.5456 211.348 64.0142 213.153 62.0915C214.957 60.1689 217.419 58.9958 220.049 58.8056L220.59 58.7677C226.471 58.6812 228.857 63.6206 228.759 69.4906Z" fill="#FFBF9D"/>
<path d="M216.706 88.6914C219.301 88.492 221.785 87.5533 223.864 85.9863C223.864 85.9863 222.381 90.2225 216.739 90.1251L216.706 88.6914Z" fill="#FF9A6C"/>
<path d="M219.925 71.487C220.039 71.6006 220.688 71.0758 221.624 71.0542C222.56 71.0325 223.247 71.487 223.366 71.3679C223.485 71.2489 223.301 71.1028 222.992 70.8919C222.581 70.6153 222.092 70.4752 221.597 70.4915C221.105 70.507 220.631 70.6795 220.244 70.9838C219.963 71.2219 219.871 71.4329 219.925 71.487Z" fill="#263238"/>
<path d="M219.909 74.1434C219.92 74.3424 220.01 74.529 220.157 74.6627C220.305 74.7964 220.5 74.8664 220.699 74.8575C220.796 74.8583 220.892 74.8395 220.982 74.8024C221.072 74.7653 221.153 74.7106 221.221 74.6414C221.289 74.5723 221.343 74.4902 221.379 74.4C221.414 74.3098 221.432 74.2134 221.429 74.1164C221.417 73.9188 221.328 73.7338 221.182 73.6006C221.035 73.4673 220.843 73.3962 220.645 73.4022C220.548 73.4022 220.452 73.4214 220.362 73.4587C220.273 73.496 220.191 73.5507 220.123 73.6196C220.054 73.6885 220 73.7703 219.964 73.8602C219.927 73.9501 219.908 74.0463 219.909 74.1434Z" fill="#263238"/>
<path d="M217.572 78.0549C217.105 77.9463 216.628 77.8954 216.149 77.9034C215.927 77.9034 215.716 77.8655 215.667 77.7194C215.631 77.4929 215.665 77.2607 215.765 77.054C215.938 76.513 216.111 75.9341 216.306 75.3281C217.036 72.8719 217.55 70.8594 217.453 70.8323C217.355 70.8053 216.679 72.7691 215.949 75.2254C215.776 75.8313 215.608 76.4102 215.445 76.962C215.328 77.2377 215.311 77.5459 215.397 77.833C215.433 77.9092 215.487 77.9757 215.554 78.0274C215.62 78.079 215.698 78.1144 215.781 78.1306C215.907 78.1454 216.034 78.1454 216.16 78.1306C216.632 78.1616 217.106 78.1361 217.572 78.0549Z" fill="#263238"/>
<path d="M220.325 67.4834C220.417 67.6944 221.169 67.5375 222.073 67.5808C222.976 67.6241 223.696 67.8243 223.82 67.6241C223.863 67.5321 223.723 67.3374 223.42 67.1534C223.016 66.9269 222.564 66.7991 222.102 66.7803C221.639 66.7615 221.179 66.8522 220.758 67.0452C220.439 67.2021 220.287 67.3861 220.325 67.4834Z" fill="#263238"/>
<path d="M211.393 68.8903C211.496 69.0634 212.226 68.8903 213.119 68.847C214.012 68.8037 214.742 68.9336 214.839 68.755C214.877 68.6685 214.731 68.517 214.423 68.3817C214.006 68.2151 213.557 68.1413 213.108 68.1653C212.654 68.1778 212.207 68.2886 211.799 68.4899C211.496 68.6468 211.35 68.8091 211.393 68.8903Z" fill="#263238"/>
<path d="M202.889 64.1455C202.92 64.0314 202.974 63.9247 203.048 63.8318C203.121 63.7389 203.212 63.6616 203.316 63.6045C203.765 63.4003 204.26 63.32 204.75 63.3718C206.248 63.3442 207.709 62.9002 208.97 62.0896C209.558 61.2439 210.215 60.4478 210.934 59.7092C212.638 57.9563 214.034 56.7606 215.484 56.1763C217.355 55.4243 220.488 55.0943 222.441 55.6353C224.394 56.1763 226.147 57.7345 226.423 59.7308C227.505 58.8057 229.16 58.8165 230.497 59.3521H230.529C232.012 59.8931 232.856 61.4512 233.294 62.9661C233.732 64.4809 233.921 66.104 234.722 67.4619C234.89 67.7432 235.09 68.0841 234.944 68.3816C234.876 68.4894 234.777 68.574 234.66 68.6242C234.543 68.6745 234.414 68.688 234.289 68.663C234.039 68.6093 233.802 68.5023 233.597 68.3492C233.764 68.7495 233.927 69.1445 234.094 69.5394C233.553 69.6337 232.997 69.5984 232.471 69.4366C232.199 70.7871 231.846 72.1204 231.416 73.4293C230.863 73.364 230.304 73.5004 229.842 73.8134C229.301 74.2841 229.09 75.166 228.219 74.8305C227.781 74.6574 227.38 73.7485 227.229 73.2886C226.25 70.2923 225.927 67.1206 226.282 63.9886C225.667 63.3333 224.932 62.8009 224.118 62.4197L224.183 62.4792C222.614 61.9382 220.84 61.3971 219.352 62.1329C218.199 62.7064 217.523 63.902 216.647 64.838C215.853 65.7277 214.888 66.4468 213.808 66.9518C212.728 67.4568 211.557 67.7371 210.366 67.7757C210.284 69.3555 210.414 71.5899 210.333 73.1859L209.002 70.6539C208.898 70.4785 208.802 70.2979 208.715 70.1129V70.0588C208.582 69.7498 208.432 69.4482 208.266 69.1553C208.082 69.3033 207.851 69.3806 207.615 69.3731C207.379 69.3656 207.153 69.2738 206.978 69.1144C206.804 68.9549 206.692 68.7383 206.663 68.5037C206.635 68.2691 206.691 68.032 206.822 67.8352C206.955 67.6515 207.116 67.4891 207.298 67.3537C207.105 67.5418 206.866 67.6761 206.605 67.7435C206.344 67.8109 206.07 67.8089 205.81 67.7378C205.553 67.6593 205.328 67.498 205.172 67.2789C205.015 67.0598 204.935 66.7951 204.945 66.526C204.967 66.345 205.036 66.173 205.145 66.0269C205.254 65.8808 205.4 65.7657 205.567 65.6928C204.87 65.7487 204.173 65.5942 203.565 65.2492C203.132 65.0165 202.743 64.6432 202.889 64.1455Z" fill="#263238"/>
<path d="M224.643 60.3855C224.838 60.5498 225.019 60.7308 225.184 60.9265C225.628 61.461 225.925 62.1027 226.044 62.7876C226.142 63.2573 226.191 63.736 226.19 64.2159C226.19 64.7569 226.152 65.2979 226.109 65.8714C226.058 66.4831 226.045 67.0975 226.071 67.7108C226.086 68.0383 226.128 68.3639 226.195 68.6847C226.246 69.0267 226.382 69.3504 226.59 69.626C226.689 69.7352 226.814 69.8171 226.953 69.8635C227.092 69.91 227.241 69.9195 227.386 69.8911C227.66 69.8409 227.91 69.6999 228.094 69.4908C228.4 69.0722 228.587 68.5787 228.635 68.0625H228.522C228.689 68.4873 228.919 68.8848 229.203 69.2419C229.476 69.5703 229.862 69.783 230.285 69.837C230.484 69.8568 230.684 69.8213 230.864 69.7342C231.032 69.6467 231.169 69.5111 231.259 69.3447C231.34 69.1916 231.381 69.0203 231.378 68.847C231.37 68.6856 231.305 68.5323 231.194 68.4142L231.135 68.4683C231.469 68.8504 231.88 69.1582 232.341 69.3718C232.504 69.4439 232.628 69.4926 232.715 69.5178L232.85 69.5503L232.725 69.4962C232.639 69.4583 232.514 69.4096 232.363 69.3339C231.916 69.1076 231.519 68.7949 231.194 68.4142L231.135 68.4683C231.227 68.586 231.28 68.7295 231.287 68.8788C231.294 69.0281 231.254 69.1758 231.173 69.3014C231.093 69.4481 230.97 69.567 230.821 69.6423C230.653 69.7232 230.465 69.7533 230.28 69.7288C229.885 69.6835 229.521 69.4902 229.263 69.1878C228.991 68.8368 228.77 68.4488 228.608 68.0354L228.527 67.8569L228.489 68.0517C228.431 68.5457 228.245 69.0158 227.948 69.415C227.779 69.5987 227.555 69.7237 227.31 69.7721C227.188 69.7969 227.061 69.7896 226.942 69.7507C226.824 69.7118 226.717 69.6427 226.634 69.5503C226.439 69.2924 226.314 68.9887 226.271 68.6684C226.204 68.3547 226.161 68.0364 226.141 67.7162C226.115 67.1065 226.128 66.4958 226.179 65.8876C226.212 65.3033 226.249 64.7515 226.244 64.2267C226.241 63.7408 226.186 63.2567 226.082 62.7822C225.95 62.0844 225.634 61.4344 225.167 60.8995C225.023 60.6995 224.846 60.5257 224.643 60.3855Z" fill="#455A64"/>
<path d="M207.271 65.8443L207.319 65.8821C207.364 65.9198 207.411 65.9541 207.46 65.9849C207.534 66.0452 207.613 66.0978 207.698 66.1418C207.808 66.207 207.922 66.2666 208.039 66.3203C208.791 66.6615 209.617 66.8103 210.441 66.7532C211.667 66.6704 212.843 66.2345 213.828 65.498C215.018 64.592 216.009 63.4501 216.738 62.1437C217.149 61.4674 217.479 60.7695 217.82 60.1257C218.17 59.4971 218.607 58.9215 219.119 58.4161C219.569 57.9573 220.127 57.6187 220.742 57.4315C221.02 57.3544 221.308 57.3216 221.597 57.3341C221.859 57.354 222.117 57.4085 222.365 57.4964C222.802 57.6447 223.202 57.8845 223.539 58.1997C223.793 58.4375 224.007 58.7153 224.172 59.0221C224.303 59.2901 224.399 59.5737 224.459 59.866C224.459 59.866 224.459 59.866 224.459 59.8065C224.459 59.747 224.459 59.7037 224.431 59.6334C224.386 59.4141 224.314 59.2014 224.215 59.0004C223.836 58.2561 223.185 57.6865 222.397 57.4098C222.137 57.3192 221.866 57.2629 221.591 57.2421C221.292 57.2295 220.993 57.2624 220.704 57.3395C220.071 57.5263 219.496 57.8707 219.032 58.3404C218.522 58.8513 218.09 59.4346 217.75 60.0716C217.377 60.7208 217.041 61.4133 216.641 62.0896C215.917 63.3789 214.939 64.5088 213.768 65.4114C212.805 66.1415 211.652 66.5791 210.446 66.672C209.635 66.736 208.82 66.6023 208.071 66.2825C207.795 66.1532 207.528 66.0068 207.271 65.8443Z" fill="#455A64"/>
<path d="M206.762 63.3773C206.762 63.3773 206.827 63.4368 206.962 63.5179C207.153 63.6335 207.351 63.7348 207.557 63.8209C207.863 63.951 208.18 64.0542 208.504 64.1293C208.9 64.2225 209.304 64.2768 209.71 64.2916C210.118 64.3016 210.525 64.2745 210.928 64.2104C211.253 64.1555 211.574 64.0722 211.885 63.9616C212.097 63.8891 212.303 63.8005 212.502 63.6965C212.577 63.6629 212.647 63.6211 212.713 63.572C212.713 63.572 212.394 63.7073 211.858 63.875C211.546 63.968 211.228 64.0403 210.906 64.0914C210.512 64.1463 210.114 64.1698 209.716 64.1618C209.318 64.1441 208.921 64.0953 208.531 64.0157C208.212 63.9455 207.899 63.8515 207.595 63.7343C207.076 63.5342 206.773 63.3556 206.762 63.3773Z" fill="#455A64"/>
<path d="M211.355 71.4872C211.463 71.6008 212.113 71.076 213.054 71.0544C213.995 71.0327 214.677 71.4872 214.796 71.3681C214.915 71.2491 214.726 71.103 214.423 70.8921C214.009 70.6157 213.519 70.4758 213.021 70.4917C212.531 70.5068 212.059 70.6795 211.674 70.984C211.388 71.2221 211.296 71.4331 211.355 71.4872Z" fill="#263238"/>
<path d="M212.313 74.1434C212.325 74.341 212.414 74.5259 212.56 74.6592C212.707 74.7924 212.899 74.8636 213.097 74.8575C213.194 74.8583 213.291 74.8396 213.381 74.8025C213.471 74.7655 213.552 74.7108 213.621 74.6418C213.689 74.5727 213.743 74.4907 213.78 74.4004C213.816 74.3102 213.834 74.2136 213.833 74.1164C213.819 73.9183 213.729 73.7334 213.582 73.6002C213.434 73.4671 213.241 73.3961 213.043 73.4022C212.946 73.4022 212.85 73.4215 212.761 73.4588C212.672 73.4962 212.591 73.551 212.523 73.6199C212.455 73.6889 212.401 73.7707 212.365 73.8606C212.329 73.9505 212.311 74.0466 212.313 74.1434Z" fill="#263238"/>
<path d="M228.614 73.6836C228.706 73.6349 232.401 72.2607 232.547 76.1073C232.694 79.9539 228.809 79.3156 228.798 79.2074C228.787 79.0992 228.614 73.6836 228.614 73.6836Z" fill="#FFBF9D"/>
<path d="M229.939 77.7032C229.939 77.7032 230.009 77.7464 230.123 77.7951C230.285 77.8577 230.464 77.8577 230.626 77.7951C230.868 77.6272 231.06 77.3977 231.184 77.1305C231.308 76.8633 231.358 76.5679 231.329 76.2749C231.329 75.9447 231.253 75.619 231.107 75.3227C231.065 75.2021 230.994 75.094 230.899 75.008C230.805 74.922 230.69 74.861 230.566 74.8304C230.489 74.8151 230.409 74.8266 230.339 74.863C230.269 74.8994 230.214 74.9585 230.182 75.0305C230.134 75.1387 230.182 75.2145 230.139 75.2253C230.096 75.2361 230.058 75.1658 230.08 75.0035C230.099 74.908 230.149 74.821 230.22 74.7546C230.325 74.6729 230.456 74.6325 230.588 74.641C230.747 74.6666 230.897 74.7322 231.024 74.8316C231.151 74.9309 231.25 75.0608 231.313 75.2091C231.494 75.5409 231.589 75.913 231.589 76.2911C231.589 77.0648 231.232 77.8059 230.68 77.9899C230.578 78.0242 230.47 78.0351 230.363 78.022C230.256 78.0089 230.154 77.9721 230.063 77.9142C229.939 77.7951 229.901 77.7086 229.939 77.7032Z" fill="#FF9A6C"/>
<path d="M220.309 78.8232C220.342 78.8232 220.342 79.0504 220.212 79.3642C220.023 79.7864 219.715 80.1439 219.325 80.3921C218.945 80.6478 218.494 80.7766 218.037 80.76C217.685 80.7275 217.496 80.6085 217.496 80.5815C217.496 80.5544 217.712 80.5815 218.037 80.5815C218.45 80.551 218.848 80.417 219.195 80.1919C219.545 79.9672 219.839 79.6656 220.055 79.3101C220.201 79.0125 220.266 78.8124 220.309 78.8232Z" fill="#263238"/>
<path d="M239.677 230.94L240.824 243.925L244.892 253.966C244.959 254.141 244.988 254.328 244.977 254.515C244.966 254.702 244.915 254.884 244.828 255.05C244.741 255.216 244.62 255.361 244.472 255.476C244.325 255.592 244.154 255.674 243.972 255.719C243.757 255.783 243.53 255.797 243.309 255.759C243.088 255.722 242.878 255.634 242.696 255.502C240.375 253.815 232.005 247.604 231.913 246.798C231.794 245.748 229.657 232.964 229.657 232.964L239.677 230.94Z" fill="#455A64"/>
<path d="M244.006 255.735L231.714 245.331L231.838 246.294C231.919 246.835 231.93 247.106 232.298 247.436C235.565 250.395 238.997 253.166 242.577 255.735C242.798 255.838 243.038 255.891 243.281 255.891C243.524 255.891 243.764 255.838 243.984 255.735H244.006Z" fill="#263238"/>
<path d="M234.106 241.274C234.285 241.367 234.423 241.525 234.489 241.717C234.556 241.908 234.546 242.117 234.463 242.302C234.354 242.48 234.185 242.613 233.986 242.676C233.787 242.739 233.572 242.727 233.381 242.643C233.193 242.543 233.05 242.376 232.982 242.175C232.913 241.974 232.924 241.754 233.013 241.561C233.144 241.385 233.335 241.264 233.55 241.221C233.764 241.178 233.987 241.216 234.176 241.328" fill="white"/>
<path d="M240.186 250.379C240.268 250.411 240.5 249.697 241.268 249.254C241.756 249.016 242.282 248.864 242.821 248.805C242.821 248.772 242.643 248.691 242.318 248.68C241.89 248.677 241.469 248.791 241.101 249.01C240.742 249.218 240.452 249.527 240.268 249.898C240.149 250.179 240.149 250.374 240.186 250.379Z" fill="#263238"/>
<path d="M241.366 252.018C241.436 252.072 241.831 251.602 242.523 251.342C242.96 251.215 243.405 251.116 243.854 251.044C243.627 250.94 243.378 250.889 243.128 250.895C242.878 250.9 242.632 250.963 242.41 251.077C241.62 251.38 241.301 251.991 241.366 252.018Z" fill="#263238"/>
<path d="M238.103 248.339C238.645 247.909 239.218 247.52 239.818 247.176C240.467 246.911 241.134 246.692 241.814 246.521C241.077 246.411 240.324 246.552 239.677 246.922C238.563 247.457 238.054 248.307 238.103 248.339Z" fill="#263238"/>
<path d="M237.405 244.412C237.449 244.487 238.179 244.109 239.164 243.979C240.148 243.849 240.965 243.979 240.987 243.908C240.406 243.63 239.749 243.554 239.12 243.692C238.483 243.73 237.879 243.984 237.405 244.412Z" fill="#263238"/>
<path d="M236.972 240.603C237.541 240.317 238.162 240.148 238.797 240.105C239.433 240.062 240.07 240.147 240.673 240.354C240.673 240.322 240.527 240.176 240.186 240.035C239.737 239.859 239.255 239.785 238.774 239.818C238.294 239.846 237.827 239.985 237.41 240.224C237.086 240.408 236.94 240.576 236.972 240.603Z" fill="#263238"/>
<path d="M238.677 239.38C238.677 239.38 238.71 239.202 238.645 238.888C238.55 238.441 238.366 238.018 238.104 237.643C237.925 237.348 237.656 237.118 237.335 236.989C237.224 236.956 237.106 236.955 236.994 236.988C236.883 237.021 236.784 237.085 236.708 237.173C236.643 237.26 236.597 237.358 236.571 237.463C236.545 237.568 236.54 237.677 236.556 237.784C236.65 238.23 236.896 238.629 237.251 238.914C237.606 239.199 238.049 239.352 238.504 239.348C238.959 239.355 239.406 239.229 239.79 238.986C240.175 238.743 240.48 238.393 240.668 237.979C240.711 237.878 240.73 237.768 240.725 237.659C240.719 237.549 240.689 237.442 240.636 237.346C240.566 237.252 240.471 237.181 240.361 237.141C240.251 237.102 240.132 237.096 240.019 237.124C239.691 237.23 239.396 237.416 239.159 237.665C238.822 237.975 238.542 238.341 238.331 238.747C238.244 238.891 238.188 239.051 238.169 239.218C238.478 238.69 238.862 238.211 239.31 237.795C239.523 237.585 239.782 237.429 240.068 237.34C240.129 237.323 240.194 237.325 240.254 237.347C240.314 237.368 240.366 237.407 240.403 237.46C240.433 237.525 240.448 237.596 240.448 237.668C240.448 237.74 240.433 237.811 240.403 237.876C240.231 238.227 239.964 238.523 239.632 238.729C239.3 238.936 238.917 239.045 238.526 239.045C238.14 239.046 237.765 238.918 237.46 238.68C237.156 238.443 236.941 238.11 236.849 237.735C236.822 237.587 236.853 237.434 236.935 237.308C236.976 237.258 237.03 237.221 237.092 237.203C237.154 237.185 237.22 237.185 237.281 237.205C237.553 237.314 237.785 237.503 237.947 237.746C238.289 238.241 238.537 238.795 238.677 239.38Z" fill="#263238"/>
<path d="M206.925 231.611L207.433 242.621C207.433 242.621 195.699 246.808 195.585 248.853L218.335 248.686L218.286 231.498L206.925 231.611Z" fill="#455A64"/>
<path d="M214.461 241.642C214.675 241.695 214.861 241.827 214.981 242.011C215.102 242.196 215.148 242.42 215.11 242.637C215.044 242.85 214.901 243.031 214.709 243.145C214.517 243.258 214.289 243.295 214.071 243.248C213.845 243.193 213.649 243.054 213.523 242.859C213.396 242.664 213.348 242.428 213.389 242.199C213.479 241.98 213.648 241.802 213.862 241.702C214.077 241.602 214.322 241.586 214.547 241.658" fill="#E0E0E0"/>
<path d="M218.335 248.686L218.259 246.954L196.472 247.76C196.472 247.76 195.466 248.182 195.585 248.842L218.335 248.686Z" fill="#263238"/>
<path d="M207.065 242.523C207.065 242.626 207.606 242.669 208.147 242.999C208.688 243.329 208.991 243.768 209.094 243.724C209.197 243.681 209.024 243.081 208.353 242.691C207.682 242.302 207.038 242.421 207.065 242.523Z" fill="#263238"/>
<path d="M204.684 243.459C204.684 243.562 205.143 243.735 205.522 244.173C205.901 244.612 206.02 245.082 206.128 245.077C206.236 245.071 206.307 244.476 205.82 243.941C205.333 243.405 204.689 243.362 204.684 243.459Z" fill="#263238"/>
<path d="M203.354 246.154C203.457 246.154 203.603 245.656 203.316 245.072C203.029 244.487 202.505 244.282 202.456 244.368C202.407 244.455 202.737 244.758 202.965 245.229C203.192 245.699 203.246 246.148 203.354 246.154Z" fill="#263238"/>
<path d="M207.243 239.992C207.292 240.089 207.784 239.943 208.428 239.992C209.072 240.04 209.548 240.208 209.602 240.121C209.656 240.035 209.191 239.662 208.45 239.629C207.709 239.597 207.216 239.91 207.243 239.992Z" fill="#263238"/>
<path d="M202.964 152.542C202.964 153.175 205.604 241.187 205.604 241.187H219.67L222.522 165.9C222.522 165.9 225.849 205.264 225.849 206.113C225.849 206.963 228.781 241.609 228.781 241.609L241.82 240.608L240.959 161.371L239.369 149.75L202.964 152.542Z" fill="#263238"/>
<path d="M223.988 163.113C223.81 163.214 223.619 163.291 223.42 163.34C223.047 163.47 222.5 163.649 221.829 163.881L221.705 163.919V163.795C221.629 162.74 221.537 161.322 221.456 159.77C221.364 158.087 221.299 156.567 221.267 155.442C221.267 154.901 221.24 154.441 221.24 154.132C221.224 153.971 221.235 153.808 221.272 153.651C221.317 153.806 221.343 153.966 221.348 154.127C221.386 154.435 221.424 154.884 221.461 155.431C221.548 156.513 221.645 158.055 221.732 159.759C221.818 161.312 221.878 162.729 221.91 163.789L221.775 163.703C222.457 163.514 223.009 163.362 223.398 163.265C223.589 163.195 223.787 163.144 223.988 163.113Z" fill="#455A64"/>
<path d="M222.906 153.965C222.906 153.965 222.95 153.895 223.096 153.846C223.301 153.792 223.519 153.811 223.713 153.9C223.858 153.953 223.982 154.052 224.067 154.182C224.152 154.311 224.193 154.465 224.183 154.619C224.165 154.815 224.083 154.999 223.95 155.144C223.817 155.288 223.641 155.386 223.447 155.42C223.251 155.45 223.05 155.424 222.866 155.347C222.683 155.27 222.525 155.143 222.409 154.982C222.327 154.857 222.284 154.712 222.284 154.563C222.284 154.414 222.327 154.268 222.409 154.143C222.521 153.976 222.684 153.848 222.874 153.781C223.015 153.732 223.096 153.743 223.101 153.754C223.107 153.765 222.782 153.857 222.587 154.225C222.53 154.323 222.503 154.435 222.508 154.549C222.514 154.662 222.553 154.771 222.62 154.863C222.707 154.979 222.824 155.069 222.958 155.124C223.092 155.179 223.239 155.197 223.383 155.177C223.516 155.151 223.64 155.086 223.736 154.989C223.833 154.893 223.898 154.77 223.924 154.636C223.934 154.525 223.91 154.413 223.855 154.316C223.8 154.22 223.716 154.142 223.615 154.095C223.399 153.977 223.15 153.932 222.906 153.965Z" fill="#455A64"/>
<path d="M229.366 154.879C229.29 154.879 229.182 154.5 229.128 154.024C229.073 153.548 229.09 153.153 229.165 153.148C229.241 153.142 229.349 153.521 229.403 153.997C229.458 154.473 229.441 154.879 229.366 154.879Z" fill="#455A64"/>
<path d="M230.34 154.776C230.264 154.776 230.199 154.371 230.199 153.867C230.199 153.364 230.253 152.958 230.334 152.958C230.416 152.958 230.475 153.364 230.475 153.867C230.475 154.371 230.421 154.776 230.34 154.776Z" fill="#455A64"/>
<path d="M213.389 155.382C213.313 155.382 213.194 154.933 213.124 154.365C213.054 153.797 213.059 153.321 213.124 153.315C213.189 153.31 213.319 153.765 213.389 154.338C213.459 154.911 213.465 155.377 213.389 155.382Z" fill="#455A64"/>
<path d="M214.574 155.469C214.324 155.166 214.2 154.778 214.228 154.387C214.169 154.008 214.256 153.622 214.471 153.305C214.552 153.305 214.471 153.802 214.509 154.387C214.547 154.971 214.65 155.447 214.574 155.469Z" fill="#455A64"/>
<path d="M210.127 154.295C210.133 154.424 210.116 154.554 210.078 154.679C210.01 155.03 209.916 155.375 209.797 155.712C209.396 156.848 208.807 157.909 208.055 158.85C207.274 159.82 206.347 160.664 205.306 161.349C204.987 161.561 204.654 161.752 204.311 161.923C204.186 161.993 204.053 162.049 203.916 162.091C203.916 162.058 204.425 161.777 205.198 161.22C206.193 160.513 207.086 159.672 207.849 158.72C208.586 157.792 209.186 156.763 209.629 155.663C209.959 154.825 210.084 154.284 210.127 154.295Z" fill="#455A64"/>
<path d="M240.532 160.224C240.393 160.265 240.249 160.287 240.104 160.289C239.712 160.32 239.317 160.32 238.925 160.289C237.641 160.165 236.405 159.735 235.322 159.034C234.296 158.362 233.468 157.428 232.925 156.329C232.767 156.009 232.644 155.674 232.557 155.328C232.513 155.207 232.493 155.078 232.498 154.949C232.541 154.949 232.66 155.49 233.087 156.264C233.658 157.31 234.478 158.2 235.473 158.855C236.522 159.532 237.709 159.969 238.947 160.132C239.915 160.24 240.526 160.181 240.532 160.224Z" fill="#455A64"/>
<path d="M217.62 204.793C217.62 204.853 215.272 204.344 212.415 203.668C209.559 202.992 207.254 202.386 207.276 202.326C207.297 202.267 209.624 202.77 212.48 203.451C215.337 204.133 217.636 204.734 217.62 204.793Z" fill="#455A64"/>
<path d="M240.278 201.59C240.311 201.644 238.282 202.699 235.75 203.955C233.218 205.21 231.13 206.178 231.097 206.119C231.065 206.059 233.093 205.004 235.625 203.754C238.157 202.505 240.246 201.536 240.278 201.59Z" fill="#455A64"/>
<path d="M196.137 122.737L198.057 125.145V121.006H204.117C204.117 121.006 204.788 130.479 204.658 132.497C204.514 133.549 204.266 134.584 203.917 135.587C203.736 136.17 203.407 136.697 202.963 137.117C202.519 137.536 201.975 137.834 201.382 137.982C200.79 138.13 200.169 138.123 199.58 137.961C198.991 137.799 198.453 137.488 198.019 137.058C197.341 136.398 196.709 135.693 196.126 134.948C193.421 131.486 188.963 123.046 188.963 123.046L193.637 120.254L196.137 122.737Z" fill="#FFBF9D"/>
<path d="M195.752 122.294C195.981 122.678 196.245 123.04 196.542 123.376C197.083 124.009 197.765 124.88 198.571 125.821C199.377 126.762 200.145 127.595 200.735 128.164C201.034 128.491 201.38 128.772 201.763 128.997C201.488 128.653 201.192 128.328 200.875 128.023C200.334 127.428 199.588 126.578 198.782 125.637C197.186 123.722 195.822 122.229 195.752 122.294Z" fill="#FF9A6C"/>
<path d="M209.954 93.6362L216.343 91.1259L228.111 90.4604L233.64 92.565L226.06 96.7741L219.525 96.5361L209.954 93.6362Z" fill="#FFBF9D"/>
<path d="M202.418 153.743C202.997 153.84 241.55 155.48 241.55 155.48L240.219 120.795L240.105 113.989L237.941 93.371C237.941 93.371 232.174 91.3855 229.236 90.4387C229.236 90.4387 226.141 93.6848 220.255 93.5766C214.504 93.4955 213.303 92.197 213.303 92.197L205.264 95.2808C205.264 95.2808 199.545 97.3312 198.561 99.8632C197.576 102.395 195.855 116.391 195.855 116.391H204.193L203.971 141.262L202.418 153.743Z" fill="#455A64"/>
<g opacity="0.2">
<path d="M226.66 107.475L227.856 116.218L233.639 118.799L237.913 115.158V107.042L226.66 107.475Z" fill="black"/>
</g>
<path d="M237.762 109.975C237.762 110.045 235.36 110.105 232.395 110.105C229.43 110.105 227.022 110.045 227.022 109.975C228.81 109.839 230.603 109.794 232.395 109.839C234.185 109.794 235.976 109.839 237.762 109.975Z" fill="#263238"/>
<path d="M199.82 103.483C199.848 103.558 199.87 103.636 199.885 103.715C199.923 103.888 199.972 104.105 200.037 104.381C200.245 105.216 200.501 106.038 200.805 106.842C201.189 107.876 201.73 109.093 202.396 110.456C203.061 111.82 203.591 113.448 204.181 115.179C204.181 117.257 204.181 119.508 204.138 121.904C204.084 127.206 204.029 132.005 203.997 135.505C203.964 137.226 203.943 138.627 203.921 139.628C203.921 140.093 203.91 140.466 203.889 140.748C203.891 140.878 203.882 141.009 203.862 141.137C203.852 141.006 203.852 140.874 203.862 140.742C203.862 140.468 203.862 140.095 203.862 139.622C203.862 138.627 203.862 137.22 203.862 135.5C203.862 132 203.905 127.201 203.932 121.904C203.932 119.529 203.975 117.257 203.992 115.179V115.217C203.413 113.486 202.855 111.879 202.249 110.5C201.671 109.312 201.154 108.095 200.702 106.853C200.41 106.041 200.173 105.209 199.993 104.365C199.939 104.067 199.896 103.824 199.874 103.683C199.85 103.618 199.832 103.551 199.82 103.483Z" fill="#263238"/>
<path d="M240.695 99.4358C240.713 99.6825 240.713 99.9303 240.695 100.177C240.695 100.718 240.651 101.378 240.619 102.19C240.548 103.932 240.456 106.258 240.354 108.828C240.251 111.398 240.132 113.729 240.056 115.471C240.007 116.283 239.97 116.959 239.937 117.484C239.936 117.731 239.911 117.978 239.861 118.22C239.842 117.973 239.842 117.725 239.861 117.479C239.861 116.938 239.861 116.278 239.899 115.466C239.943 113.762 240.018 111.414 240.126 108.822C240.235 106.231 240.354 103.878 240.462 102.184C240.516 101.335 240.57 100.648 240.619 100.172C240.622 99.9246 240.648 99.6783 240.695 99.4358Z" fill="#263238"/>
<g opacity="0.3">
<path d="M199.843 104.754C199.696 108.561 201.057 112.272 203.63 115.082C202.845 111.506 200.887 108.179 199.843 104.754Z" fill="black"/>
</g>
<g opacity="0.3">
<path d="M216.776 139.071C218.589 138.829 220.242 137.909 221.402 136.495C222.622 135.132 223.668 133.622 224.513 132C225.604 129.793 226.223 127.383 226.331 124.923C224.085 130.945 220.796 135.706 216.776 139.071Z" fill="black"/>
</g>
<path d="M227.045 122.299C227.041 122.374 227.03 122.448 227.012 122.521C226.975 122.694 226.926 122.9 226.872 123.149C226.818 123.397 226.731 123.749 226.612 124.128C226.493 124.507 226.379 124.939 226.206 125.41C225.827 126.517 225.383 127.601 224.875 128.656C223.634 131.238 222.041 133.636 220.142 135.781C219.366 136.657 218.535 137.481 217.653 138.248C217.29 138.589 216.928 138.86 216.62 139.108C216.311 139.357 216.041 139.558 215.808 139.714L215.267 140.077C215.143 140.153 215.078 140.196 215.072 140.185C215.12 140.128 215.174 140.077 215.235 140.034L215.738 139.633C215.96 139.471 216.225 139.26 216.522 139C216.82 138.741 217.171 138.459 217.528 138.118C218.383 137.334 219.194 136.503 219.958 135.63C220.883 134.552 221.744 133.421 222.538 132.243C223.314 131.056 224.022 129.826 224.659 128.559C225.171 127.518 225.628 126.45 226.028 125.361C226.212 124.901 226.342 124.469 226.466 124.095C226.59 123.722 226.693 123.397 226.769 123.132C226.845 122.867 226.899 122.689 226.953 122.521C227.007 122.353 227.034 122.294 227.045 122.299Z" fill="#263238"/>
<path d="M225.93 111.446C225.922 111.566 225.906 111.686 225.882 111.803C225.838 112.058 225.779 112.393 225.709 112.81C225.638 113.226 225.53 113.778 225.373 114.389C225.216 115.001 225.076 115.709 224.832 116.467C224.724 116.846 224.605 117.246 224.48 117.663C224.356 118.079 224.194 118.501 224.042 118.939C223.755 119.832 223.366 120.752 222.96 121.726C221.183 125.929 218.795 129.847 215.873 133.352C215.186 134.142 214.542 134.91 213.882 135.57C213.557 135.906 213.254 136.241 212.941 136.539C212.627 136.836 212.329 137.128 212.037 137.399C211.496 137.94 210.912 138.41 210.414 138.822C209.916 139.233 209.516 139.574 209.159 139.839L208.342 140.455C208.253 140.534 208.155 140.601 208.05 140.656C208.129 140.568 208.216 140.489 208.309 140.418L209.094 139.763C209.44 139.487 209.862 139.146 210.322 138.719C210.782 138.291 211.339 137.837 211.896 137.269L212.784 136.403C213.092 136.1 213.39 135.765 213.709 135.429C214.363 134.764 214.996 133.996 215.678 133.2C218.575 129.701 220.958 125.806 222.755 121.634C223.155 120.665 223.544 119.756 223.837 118.874C223.994 118.431 224.156 118.014 224.286 117.603C224.415 117.192 224.535 116.797 224.654 116.418C224.902 115.666 225.059 114.968 225.227 114.357C225.395 113.746 225.514 113.221 225.6 112.788C225.687 112.355 225.768 112.047 225.822 111.793C225.846 111.674 225.882 111.557 225.93 111.446Z" fill="#263238"/>
<path d="M195.466 100.664L210.312 123.235C210.383 123.342 210.421 123.466 210.423 123.594C210.425 123.722 210.39 123.848 210.322 123.957C210.254 124.065 210.156 124.152 210.04 124.206C209.924 124.261 209.795 124.28 209.668 124.263L192.572 122.099C192.482 122.086 192.395 122.056 192.317 122.01C192.239 121.963 192.171 121.901 192.117 121.828L175.789 99.5278C175.709 99.4246 175.66 99.3 175.649 99.1694C175.638 99.0388 175.666 98.9078 175.728 98.7927C175.791 98.6776 175.886 98.5834 176.002 98.5217C176.117 98.4601 176.249 98.4336 176.379 98.4457L193.968 99.7442C194.271 99.7717 194.565 99.869 194.825 100.029C195.085 100.188 195.304 100.406 195.466 100.664Z" fill="#E0E0E0"/>
<path d="M195.466 100.664C195.429 100.59 195.383 100.521 195.33 100.458C195.18 100.272 194.996 100.114 194.789 99.9932C194.437 99.8093 194.045 99.7145 193.648 99.7173L192.068 99.5874L181.929 98.7922L178.57 98.5325L176.784 98.3972C176.627 98.3972 176.492 98.3972 176.314 98.3972C176.131 98.4032 175.956 98.4742 175.821 98.5974C175.684 98.7226 175.596 98.8924 175.572 99.0767C175.548 99.261 175.591 99.4477 175.692 99.6037L180.442 106.123C183.796 110.705 187.475 115.742 191.343 121.033C191.592 121.363 191.814 121.682 192.084 122.029C192.167 122.121 192.271 122.191 192.387 122.234C192.494 122.272 192.605 122.293 192.717 122.299L193.323 122.375L195.714 122.678L200.389 123.262L209.229 124.344C209.413 124.344 209.564 124.393 209.77 124.404C209.875 124.405 209.98 124.384 210.077 124.344C210.175 124.305 210.264 124.246 210.338 124.171C210.48 124.026 210.563 123.833 210.571 123.63C210.563 123.432 210.49 123.242 210.365 123.089L209.218 121.336L207.054 118.09L203.181 112.231C200.811 108.666 198.896 105.771 197.559 103.764L196.017 101.465C195.844 101.216 195.709 101.016 195.606 100.875C195.563 100.805 195.514 100.738 195.46 100.675C195.497 100.749 195.539 100.822 195.585 100.891L195.969 101.497C196.315 102.038 196.818 102.823 197.462 103.824L203.013 112.345L206.859 118.22L209.023 121.493L210.149 123.208C210.246 123.322 210.303 123.465 210.311 123.614C210.306 123.756 210.248 123.891 210.149 123.993C210.048 124.093 209.912 124.149 209.77 124.15C209.624 124.15 209.424 124.106 209.256 124.09L200.4 122.959L195.725 122.37L193.334 122.067L192.734 121.991C192.644 121.983 192.555 121.967 192.468 121.942C192.392 121.913 192.324 121.867 192.268 121.807C192.03 121.482 191.792 121.163 191.554 120.833C187.68 115.553 183.98 110.521 180.636 105.939C178.954 103.656 177.363 101.481 175.87 99.4468C175.814 99.3664 175.781 99.2725 175.775 99.1749C175.768 99.0773 175.788 98.9798 175.832 98.8927C175.877 98.8055 175.944 98.732 176.027 98.68C176.11 98.6281 176.205 98.5995 176.303 98.5974C176.427 98.5974 176.6 98.5974 176.747 98.6244L178.532 98.7543L181.897 98.9923L192.068 99.6956L193.659 99.8039C194.046 99.7908 194.431 99.8745 194.779 100.047C195.049 100.201 195.284 100.411 195.466 100.664Z" fill="#263238"/>
<path d="M175.789 99.5441C175.906 99.5742 176.026 99.5923 176.146 99.5982L177.185 99.7064L181.048 100.047L194.184 101.129L194.081 101.07C194.903 102.292 195.753 103.558 196.602 104.857C200.07 110.186 203.094 115.087 205.383 118.572C206.519 120.319 207.465 121.715 208.126 122.678L208.894 123.76C208.977 123.892 209.073 124.015 209.181 124.128C209.109 123.99 209.03 123.856 208.942 123.727L208.217 122.597L205.55 118.447C203.31 114.936 200.308 110.024 196.84 104.689C195.991 103.374 195.136 102.109 194.308 100.902L194.27 100.848H194.232L181.091 99.8741L177.223 99.6144L176.179 99.5549C176.049 99.5417 175.919 99.538 175.789 99.5441Z" fill="#263238"/>
<path d="M185.966 102.99C185.976 102.945 185.995 102.903 186.022 102.866C186.049 102.828 186.083 102.797 186.122 102.773C186.162 102.749 186.206 102.734 186.251 102.727C186.297 102.721 186.343 102.724 186.388 102.736C186.562 102.776 186.721 102.864 186.848 102.99C186.928 103.064 186.98 103.163 186.995 103.271C187.01 103.378 186.986 103.488 186.929 103.58C186.761 103.791 186.388 103.71 186.204 103.537C186.121 103.474 186.055 103.39 186.014 103.295C185.972 103.199 185.956 103.094 185.966 102.99Z" fill="white"/>
<path d="M193.951 115.639C193.951 115.639 194.621 114.016 192.912 113.821C190.845 113.714 188.773 113.714 186.706 113.821C186.706 113.821 184.245 114.081 184.764 115.845C184.764 115.845 183.314 117.143 184.093 118.55C184.872 119.956 185.175 119.534 185.175 119.534C185.175 119.534 184.97 121.249 186.257 121.504C186.257 121.504 187.664 123.165 188.962 123.062C190.261 122.959 195.752 120.313 196.115 119.816C196.477 119.318 196.996 119.004 196.688 118.425C196.688 118.425 197.359 116.905 195.909 116.672C195.92 116.645 195.817 115.385 193.951 115.639Z" fill="#FFBF9D"/>
<path d="M186.149 116.218C186.53 116.297 186.919 116.327 187.307 116.305C188.021 116.305 189.006 116.305 190.093 116.305C191.031 116.332 191.968 116.278 192.896 116.142C193.632 115.969 193.924 115.536 193.891 115.526C193.574 115.727 193.221 115.868 192.853 115.942C192.176 116.056 191.175 115.985 190.088 116.023C189.001 116.061 188.016 116.072 187.302 116.105C186.914 116.096 186.528 116.134 186.149 116.218Z" fill="#FF9A6C"/>
<path d="M187.372 118.815C187.486 118.882 187.614 118.924 187.745 118.939C188.101 119.012 188.465 119.035 188.827 119.01C189.355 118.969 189.878 118.873 190.386 118.723C190.959 118.566 191.57 118.344 192.214 118.149C192.812 117.951 193.431 117.823 194.059 117.765C194.601 117.816 195.147 117.707 195.628 117.452C195.816 117.324 195.949 117.131 196.001 116.911C196.036 116.746 196.013 116.574 195.936 116.424C195.801 116.18 195.617 116.164 195.623 116.175C195.628 116.186 195.752 116.251 195.834 116.472C195.885 116.623 195.882 116.787 195.823 116.935C195.765 117.082 195.655 117.204 195.514 117.278C195.052 117.482 194.544 117.558 194.043 117.5C193.393 117.541 192.751 117.664 192.133 117.868L190.315 118.469C189.824 118.621 189.321 118.734 188.811 118.804C188.332 118.837 187.852 118.84 187.372 118.815Z" fill="#FF9A6C"/>
<path d="M189.212 121.006C189.606 120.984 189.995 120.909 190.37 120.784C191.073 120.606 192.036 120.33 193.075 119.989C194.114 119.648 195.066 119.297 195.737 119.021C196.118 118.901 196.482 118.732 196.819 118.518C196.786 118.442 195.098 119.059 193.032 119.713C190.965 120.368 189.19 120.93 189.212 121.006Z" fill="#FF9A6C"/>
<path d="M188.773 123.04C189.096 123.069 189.421 123.032 189.73 122.932C190.485 122.749 191.219 122.49 191.921 122.159C192.744 121.785 193.463 121.401 193.982 121.125C194.279 121 194.556 120.832 194.805 120.627C193.769 120.962 192.764 121.388 191.802 121.899C190.185 122.678 188.762 122.959 188.773 123.04Z" fill="#FF9A6C"/>
<path d="M243.427 107.573C243.427 107.573 239.932 121.574 235.566 126.746C231.336 131.756 224.708 129.451 222.414 122.959C220.12 116.467 216.03 101.692 216.03 101.692L221.051 97.8506L229.707 114.671L233.619 103.207L243.427 107.573Z" fill="#FFBF9D"/>
<path d="M216.262 102.092L212.577 96.7523C212.041 96.6366 211.516 96.4736 211.009 96.2654C210.592 96.022 210.181 93.9012 210.192 93.49C210.202 93.0789 209.477 92.1104 209.77 91.8345C210.062 91.5586 211.046 91.5424 210.992 91.1474C210.992 91.0609 210.262 90.1736 210.835 89.5244C211.152 89.3154 211.504 89.1668 211.874 89.0862L211.815 87.0465C211.815 87.0465 212.897 84.6444 214.038 85.5155C214.038 85.5155 218.274 88.7616 218.702 89.3026C219.129 89.8436 220.763 96.6009 221.05 97.8722" fill="#FFBF9D"/>
<path d="M221.05 97.8616C221.044 97.7411 221.026 97.6214 220.996 97.5045C220.937 97.2449 220.866 96.9094 220.774 96.4874C220.58 95.6002 220.282 94.3234 219.882 92.749C219.676 91.9591 219.454 91.126 219.168 90.1792C219.097 89.952 219.021 89.7193 218.924 89.4813C218.812 89.2388 218.641 89.0286 218.426 88.87C218.037 88.5291 217.631 88.1937 217.214 87.8528C216.376 87.1766 215.483 86.4732 214.558 85.7537C214.325 85.5457 214.062 85.3726 213.779 85.2397C213.614 85.2001 213.441 85.2 213.276 85.2395C213.11 85.279 212.957 85.3569 212.827 85.467C212.344 85.8874 211.958 86.408 211.696 86.9926V87.0251C211.696 87.2253 211.696 87.4363 211.696 87.6473C211.696 88.1233 211.696 88.5994 211.739 89.0647L211.837 88.9349C211.581 88.9966 211.332 89.0798 211.09 89.1837C210.956 89.2397 210.833 89.3204 210.728 89.4218C210.634 89.5308 210.564 89.6579 210.522 89.7951C210.453 90.0653 210.476 90.3508 210.587 90.6066C210.632 90.7288 210.688 90.8465 210.755 90.9583L210.847 91.1152V91.153C210.849 91.1655 210.849 91.1784 210.847 91.1909C210.847 91.2342 210.739 91.2991 210.636 91.337C210.533 91.3748 210.419 91.4127 210.306 91.4506C210.188 91.4819 210.073 91.5199 209.959 91.5642C209.818 91.6051 209.694 91.6928 209.608 91.8131C209.551 91.9518 209.551 92.1071 209.608 92.2459C209.64 92.3626 209.682 92.4765 209.732 92.5867C209.824 92.8031 209.927 93.0087 210.003 93.2089C210.041 93.2999 210.063 93.397 210.068 93.4956C210.07 93.6117 210.081 93.7274 210.1 93.8419C210.133 94.0637 210.17 94.2801 210.219 94.4965C210.303 94.9135 210.417 95.3239 210.56 95.7246C210.629 95.934 210.739 96.1273 210.885 96.2927C211.061 96.407 211.255 96.4928 211.458 96.5469C211.831 96.6606 212.199 96.7525 212.54 96.8337L212.481 96.7958L215.186 100.669L215.943 101.719C216.027 101.846 216.121 101.965 216.224 102.076C216.155 101.942 216.077 101.811 215.992 101.687L215.278 100.605C214.634 99.647 213.73 98.3107 212.621 96.6768V96.6443H212.627C212.28 96.5578 211.918 96.4604 211.545 96.3468C211.371 96.2974 211.206 96.2246 211.052 96.1304C210.936 95.9879 210.848 95.8244 210.793 95.6489C210.655 95.2572 210.546 94.8557 210.468 94.4478C210.425 94.2368 210.387 94.0258 210.354 93.8094C210.354 93.7066 210.354 93.593 210.354 93.4956C210.35 93.3696 210.324 93.2453 210.279 93.1277C210.198 92.9059 210.095 92.7003 210.008 92.4893C209.961 92.3903 209.923 92.287 209.895 92.181C209.865 92.1006 209.865 92.0124 209.895 91.9321C209.957 91.8673 210.035 91.8206 210.122 91.7968C210.23 91.7543 210.34 91.7182 210.452 91.6886C210.565 91.6508 210.684 91.6183 210.803 91.5696C210.952 91.5235 211.077 91.4204 211.15 91.2829C211.169 91.2387 211.179 91.1906 211.177 91.1422C211.175 91.1081 211.166 91.0748 211.15 91.0448V91.0015L211.058 90.8447C211 90.742 210.949 90.6354 210.906 90.5255C210.819 90.3223 210.8 90.0965 210.852 89.8816C210.881 89.7776 210.933 89.6814 211.004 89.6003C211.085 89.5288 211.179 89.472 211.28 89.4326C211.507 89.3347 211.742 89.2551 211.983 89.1946L212.08 89.1675V89.0647C212.08 88.5994 212.053 88.1288 212.037 87.6527C212.037 87.4417 212.037 87.2253 212.037 87.0305V87.09C212.278 86.544 212.634 86.0566 213.081 85.6617C213.177 85.573 213.293 85.5094 213.42 85.4763C213.546 85.4433 213.679 85.4419 213.806 85.4724C214.058 85.5961 214.293 85.7526 214.504 85.9377C215.435 86.6572 216.327 87.3551 217.166 88.026C217.588 88.3614 217.994 88.6914 218.378 89.0214C218.572 89.1594 218.727 89.346 218.827 89.5624C218.919 89.7843 218.994 90.0169 219.07 90.2387C219.357 91.1476 219.611 92.0078 219.806 92.7869C220.212 94.3396 220.547 95.6002 220.78 96.5037C220.893 96.9203 220.98 97.2557 221.045 97.51C221.035 97.627 221.036 97.7449 221.05 97.8616Z" fill="#FF9A6C"/>
<path d="M211.875 89.0862C211.875 89.1295 212.302 89.0862 212.957 89.1619C213.349 89.2224 213.736 89.311 214.115 89.427C214.612 89.4975 215.116 89.4975 215.613 89.427C216.04 89.367 216.475 89.4051 216.884 89.5382C217.294 89.6713 217.668 89.896 217.978 90.1953C218.217 90.4616 218.41 90.7672 218.546 91.0988C218.548 90.9061 218.511 90.7149 218.437 90.5371C218.362 90.3594 218.252 90.1988 218.113 90.0654C217.831 89.7558 217.484 89.5136 217.096 89.3567C216.619 89.1718 216.105 89.1068 215.597 89.1673C215.121 89.2266 214.64 89.2266 214.163 89.1673C213.773 89.0585 213.372 88.9878 212.968 88.9563C212.599 88.927 212.227 88.9711 211.875 89.0862Z" fill="#FF9A6C"/>
<path d="M213.373 88.9726C213.433 89.005 213.606 88.7562 213.584 88.4045C213.562 88.0528 213.362 87.831 213.308 87.8635C213.254 87.896 213.308 88.134 213.308 88.4045C213.308 88.675 213.303 88.9455 213.373 88.9726Z" fill="#FF9A6C"/>
<path d="M210.862 91.2232C211.933 91.3254 213.013 91.2412 214.054 90.9743C214.433 90.8502 214.831 90.7988 215.228 90.8229C215.536 90.8907 215.808 91.0699 215.991 91.326C216.151 91.5807 216.292 91.8465 216.413 92.1213C216.432 91.7935 216.338 91.4691 216.148 91.2016C215.953 90.8866 215.642 90.6611 215.282 90.574C214.853 90.5237 214.417 90.5661 214.006 90.6984C212.291 91.088 210.862 91.1475 210.862 91.2232Z" fill="#FF9A6C"/>
<path d="M210.3 93.1493C210.558 93.2095 210.826 93.2095 211.084 93.1493C211.566 93.0952 212.215 92.9275 212.918 92.7868C213.243 92.7144 213.576 92.6817 213.908 92.6894C214.167 92.694 214.417 92.7854 214.617 92.9491C214.796 93.1147 214.919 93.3322 214.969 93.5713C214.969 93.5713 215.017 93.5009 215.012 93.3549C214.99 93.149 214.896 92.9575 214.747 92.8138C214.528 92.5977 214.237 92.4689 213.93 92.4514C213.567 92.4263 213.203 92.4537 212.848 92.5325C212.123 92.6732 211.495 92.8679 211.03 92.9653C210.781 93.0017 210.536 93.0633 210.3 93.1493Z" fill="#FF9A6C"/>
<path d="M211.544 94.675C211.501 94.7075 211.864 95.0862 212.524 95.0862L212.394 94.9726C212.394 95.0862 212.394 95.1998 212.432 95.3134C212.449 95.7773 212.552 96.2339 212.735 96.6606C212.807 96.2039 212.792 95.7377 212.691 95.2864L212.643 94.9456V94.8265H212.529C212.196 94.8128 211.866 94.762 211.544 94.675Z" fill="#FF9A6C"/>
<path d="M237.898 93.3926C237.898 93.3926 245.055 95.1238 245.039 104.619C245.023 114.113 242.875 118.799 242.875 118.799L229.68 111.598L232.644 104.224L237.898 93.3926Z" fill="#455A64"/>
<path d="M242.875 118.799C242.78 118.771 242.689 118.731 242.605 118.68L241.837 118.29L239.023 116.808L229.615 111.738L229.507 111.684L229.55 111.571L230.259 109.721C231.103 107.529 231.882 105.441 232.639 103.542C233.007 102.595 233.353 101.692 233.683 100.837C233.971 100.043 234.321 99.2724 234.728 98.5323C235.271 97.425 236.091 96.4766 237.108 95.7786C237.394 95.5998 237.709 95.4734 238.039 95.4053C238.122 95.3873 238.207 95.3765 238.293 95.3728H238.385C237.952 95.4629 237.539 95.6316 237.168 95.8705C236.191 96.5845 235.412 97.5336 234.901 98.6297C234.512 99.3672 234.177 100.132 233.9 100.918C233.581 101.768 233.24 102.671 232.877 103.623L230.519 109.812L229.81 111.663L229.745 111.49L239.137 116.646L241.907 118.204L242.648 118.636C242.73 118.682 242.806 118.736 242.875 118.799Z" fill="#263238"/>
</svg>
