<svg width="444" height="331" viewBox="0 0 444 331" fill="none" xmlns="http://www.w3.org/2000/svg">
<path d="M443.951 290.165H0.816406V290.386H443.951V290.165Z" fill="#EBEBEB"/>
<path d="M399.549 304.425H370.195V304.646H399.549V304.425Z" fill="#EBEBEB"/>
<path d="M294.366 306.835H286.664V307.057H294.366V306.835Z" fill="#EBEBEB"/>
<path d="M369.31 296.2H352.303V296.422H369.31V296.2Z" fill="#EBEBEB"/>
<path d="M85.5885 297.689H47.3105V297.911H85.5885V297.689Z" fill="#EBEBEB"/>
<path d="M99.0945 297.689H93.4844V297.911H99.0945V297.689Z" fill="#EBEBEB"/>
<path d="M200.362 301.429H117.336V301.651H200.362V301.429Z" fill="#EBEBEB"/>
<path d="M210.863 250.637H39.7334C38.3928 250.635 37.1079 250.1 36.1607 249.152C35.2136 248.203 34.6816 246.917 34.6816 245.576V5.01628C34.6933 3.68336 35.2304 2.40886 36.1763 1.46963C37.1222 0.530395 38.4004 0.00228337 39.7334 0H210.863C212.205 0 213.492 0.533169 214.441 1.48221C215.391 2.43126 215.924 3.71844 215.924 5.0606V245.576C215.924 246.918 215.391 248.206 214.441 249.155C213.492 250.104 212.205 250.637 210.863 250.637ZM39.7334 0.177255C38.4515 0.179602 37.223 0.690461 36.3174 1.5977C35.4118 2.50494 34.9032 3.73443 34.9032 5.01628V245.576C34.9032 246.858 35.4118 248.088 36.3174 248.995C37.223 249.902 38.4515 250.413 39.7334 250.415H210.863C212.146 250.413 213.375 249.902 214.282 248.995C215.189 248.088 215.7 246.859 215.702 245.576V5.01628C215.7 3.73361 215.189 2.50415 214.282 1.59716C213.375 0.690174 212.146 0.179597 210.863 0.177255H39.7334Z" fill="#EBEBEB"/>
<path d="M402.572 250.637H231.434C230.092 250.635 228.806 250.101 227.858 249.152C226.909 248.204 226.375 246.918 226.373 245.576V5.01628C226.387 3.68255 226.926 2.40806 227.873 1.46907C228.821 0.530085 230.1 0.00225847 231.434 0H402.572C403.904 0.00461258 405.18 0.533755 406.124 1.47274C407.068 2.41172 407.603 3.68489 407.615 5.01628V245.576C407.615 246.915 407.084 248.2 406.139 249.148C405.194 250.097 403.911 250.632 402.572 250.637ZM231.434 0.177255C230.151 0.179597 228.922 0.690174 228.015 1.59716C227.108 2.50415 226.597 3.73361 226.595 5.01628V245.576C226.597 246.859 227.108 248.088 228.015 248.995C228.922 249.902 230.151 250.413 231.434 250.415H402.572C403.855 250.413 405.084 249.902 405.991 248.995C406.898 248.088 407.409 246.859 407.411 245.576V5.01628C407.409 3.73361 406.898 2.50415 405.991 1.59716C405.084 0.690174 403.855 0.179597 402.572 0.177255H231.434Z" fill="#EBEBEB"/>
<path d="M106.23 233.434V246.019L100.912 249.884H125.728L117.804 246.941V234.312L106.23 233.434Z" fill="#E0E0E0"/>
<path d="M62.3867 249.52V289.163H173.17V249.52H62.3867ZM171.176 265.048H84.4637V252.09H171.176V265.048Z" fill="#E0E0E0"/>
<path d="M81.7949 249.52V289.163H173.169V249.52H81.7949ZM171.175 265.048H84.4626V252.09H171.175V265.048Z" fill="#EBEBEB"/>
<path d="M171.175 252.09H153.299V265.048H171.175V252.09Z" fill="#E0E0E0"/>
<path d="M106.575 258.569H84.4629V265.048H106.575V258.569Z" fill="#E0E0E0"/>
<path d="M124.849 261.192H108.205V265.039H124.849V261.192Z" fill="#E0E0E0"/>
<path d="M144.551 257.177H128.695V265.048H144.551V257.177Z" fill="#E0E0E0"/>
<path d="M100.176 267.866L99.7067 269.417H93.3433L92.8647 267.866H84.4629V285.068H112.354V267.866H100.176Z" fill="#E0E0E0"/>
<path d="M133.321 267.866L132.843 269.417H126.479L126.001 267.866H113.832V285.068H141.723V267.866H133.321Z" fill="#E0E0E0"/>
<path d="M158.917 267.866L158.447 269.417H152.084L151.605 267.866H143.203V285.068H171.094V267.866H158.917Z" fill="#E0E0E0"/>
<path d="M156.968 187.375H74.5543C72.8265 187.375 71.4258 188.776 71.4258 190.504V237.822C71.4258 239.549 72.8265 240.95 74.5543 240.95H156.968C158.696 240.95 160.097 239.549 160.097 237.822V190.504C160.097 188.776 158.696 187.375 156.968 187.375Z" fill="#E0E0E0"/>
<path d="M159.051 187.375H76.6363C74.9085 187.375 73.5078 188.776 73.5078 190.504V237.822C73.5078 239.549 74.9085 240.95 76.6363 240.95H159.051C160.778 240.95 162.179 239.549 162.179 237.822V190.504C162.179 188.776 160.778 187.375 159.051 187.375Z" fill="#E6E6E6"/>
<path d="M159.572 238.353V189.981H76.1123V238.353H159.572Z" fill="#F0F0F0"/>
<path d="M276.333 182.731H355.689C357.736 182.73 359.763 183.132 361.654 183.914C363.546 184.697 365.264 185.844 366.712 187.291C368.16 188.738 369.308 190.456 370.092 192.347C370.875 194.238 371.279 196.265 371.279 198.312V260.28H260.752V198.312C260.752 194.179 262.393 190.216 265.315 187.294C268.237 184.372 272.2 182.731 276.333 182.731Z" fill="#E6E6E6"/>
<path d="M237.291 228.657H251.471C253.927 228.657 256.283 229.633 258.02 231.37C259.757 233.107 260.733 235.463 260.733 237.919V289.163H228.029V237.919C228.029 235.463 229.005 233.107 230.742 231.37C232.479 229.633 234.835 228.657 237.291 228.657Z" fill="#E0E0E0"/>
<path d="M237.291 228.657H237.583C240.04 228.657 242.395 229.633 244.132 231.37C245.869 233.107 246.845 235.463 246.845 237.919V289.163H228.029V237.919C228.029 235.463 229.005 233.107 230.742 231.37C232.479 229.633 234.835 228.657 237.291 228.657Z" fill="#EBEBEB"/>
<path d="M359.711 265.624H250.807V289.163H359.711V265.624Z" fill="#E6E6E6"/>
<path d="M355.688 244.096H250.656C245.458 244.096 241.244 248.31 241.244 253.508V259.384C241.244 264.583 245.458 268.797 250.656 268.797H355.688C360.886 268.797 365.1 264.583 365.1 259.384V253.508C365.1 248.31 360.886 244.096 355.688 244.096Z" fill="#F5F5F5"/>
<path d="M355.519 244.096H342.482C337.284 244.096 333.07 248.31 333.07 253.508V259.384C333.07 264.583 337.284 268.797 342.482 268.797H355.519C360.718 268.797 364.932 264.583 364.932 259.384V253.508C364.932 248.31 360.718 244.096 355.519 244.096Z" fill="#E0E0E0"/>
<path d="M356.91 228.657H371.09C373.547 228.657 375.902 229.633 377.639 231.37C379.376 233.107 380.352 235.463 380.352 237.919V289.163H347.648V237.919C347.648 236.703 347.888 235.498 348.353 234.375C348.819 233.251 349.501 232.23 350.361 231.37C351.221 230.51 352.242 229.828 353.366 229.362C354.489 228.897 355.694 228.657 356.91 228.657Z" fill="#E0E0E0"/>
<path d="M356.91 228.657H357.211C359.668 228.657 362.023 229.633 363.76 231.37C365.497 233.107 366.473 235.463 366.473 237.919V289.163H347.648V237.919C347.648 236.703 347.888 235.498 348.353 234.375C348.819 233.251 349.501 232.23 350.361 231.37C351.221 230.51 352.242 229.828 353.366 229.362C354.489 228.897 355.694 228.657 356.91 228.657Z" fill="#F0F0F0"/>
<path d="M272.079 154.175H377.217V45.5364L272.079 45.5364V154.175Z" fill="#EBEBEB"/>
<path d="M268.399 154.175H373.537V45.5364L268.399 45.5364V154.175Z" fill="#F0F0F0"/>
<path d="M370.887 48.1067H271.182V151.65H370.887V48.1067Z" fill="#E0E0E0"/>
<path d="M370.887 48.1067H273.672V151.65H370.887V48.1067Z" fill="#F5F5F5"/>
<path d="M321.274 151.658H323.25V48.1156H321.274V151.658Z" fill="#EBEBEB"/>
<path d="M309.948 48.1067L282.243 151.65H279.584L307.289 48.1067H309.948Z" fill="white"/>
<path d="M320.432 153.635H322.125V46.5114H320.432V153.635Z" fill="#F0F0F0"/>
<path d="M299.888 48.1067L273.672 146.093V92.234L285.477 48.1067H299.888Z" fill="white"/>
<path d="M370.888 57.5012V67.4452L348.35 151.65H345.691L370.888 57.5012Z" fill="white"/>
<path d="M370.887 77.5752V131.434L365.481 151.65H351.07L370.887 77.5752Z" fill="white"/>
<path d="M87.3705 129.191H151.031V51.7315L87.3705 51.7315V129.191Z" fill="#E6E6E6"/>
<path d="M101.942 110.004L135.389 77.1231L99.2031 71.1497L101.942 110.004Z" fill="#E0E0E0"/>
<path d="M134.581 102.205L136.238 76.9902L111.05 83.1764L109.225 102.47L134.581 102.205Z" fill="#F0F0F0"/>
<path d="M108.82 73.9202C112.79 69.9503 112.79 63.5138 108.82 59.544C104.85 55.5741 98.4138 55.5741 94.444 59.544C90.4741 63.5138 90.4741 69.9503 94.444 73.9202C98.4138 77.89 104.85 77.89 108.82 73.9202Z" fill="#FAFAFA"/>
<path d="M131.295 111.191C131.295 110.215 131.585 109.26 132.127 108.448C132.67 107.636 133.442 107.003 134.344 106.63C135.247 106.256 136.24 106.159 137.198 106.35C138.156 106.542 139.035 107.013 139.725 107.704C140.415 108.395 140.885 109.276 141.074 110.234C141.264 111.192 141.165 112.185 140.79 113.087C140.415 113.989 139.781 114.759 138.968 115.3C138.155 115.842 137.199 116.13 136.223 116.128C135.575 116.128 134.933 116 134.335 115.752C133.736 115.504 133.193 115.14 132.735 114.682C132.277 114.223 131.915 113.679 131.667 113.08C131.42 112.481 131.294 111.839 131.295 111.191Z" fill="#E0E0E0"/>
<path d="M135.05 119.859L120.816 111.191L132.781 101.336L135.05 119.859Z" fill="#F5F5F5"/>
<path d="M118.238 61.578H115.438V123.431H118.238V61.578Z" fill="#E0E0E0"/>
<path d="M145.056 61.578H141.432V120.692H145.056V61.578Z" fill="#EBEBEB"/>
<path d="M112.265 102.47H93.7598V120.976H112.265V102.47Z" fill="#EBEBEB"/>
<path d="M222.382 330.188C317.286 330.188 394.22 325.697 394.22 320.156C394.22 314.615 317.286 310.123 222.382 310.123C127.478 310.123 50.543 314.615 50.543 320.156C50.543 325.697 127.478 330.188 222.382 330.188Z" fill="#F5F5F5"/>
<path d="M177.503 160.415H362.166C362.663 160.415 363.155 160.513 363.615 160.703C364.074 160.893 364.491 161.172 364.842 161.523C365.194 161.875 365.472 162.292 365.663 162.751C365.853 163.21 365.951 163.702 365.951 164.199V297.786H173.719V164.234C173.714 163.735 173.809 163.239 173.997 162.775C174.185 162.312 174.463 161.891 174.815 161.536C175.167 161.18 175.585 160.898 176.047 160.706C176.508 160.514 177.003 160.415 177.503 160.415Z" fill="#263238"/>
<path d="M362.165 168.932H177.502V286.956H362.165V168.932Z" fill="#407BFF"/>
<path opacity="0.2" d="M268.152 166.867C269.17 166.867 269.995 166.041 269.995 165.023C269.995 164.005 269.17 163.18 268.152 163.18C267.134 163.18 266.309 164.005 266.309 165.023C266.309 166.041 267.134 166.867 268.152 166.867Z" fill="white"/>
<path opacity="0.2" d="M271.969 166.406C272.732 166.406 273.351 165.787 273.351 165.023C273.351 164.26 272.732 163.641 271.969 163.641C271.205 163.641 270.586 164.26 270.586 165.023C270.586 165.787 271.205 166.406 271.969 166.406Z" fill="white"/>
<path opacity="0.2" d="M270.589 289.376C270.347 289.291 270.092 289.246 269.836 289.243C269.357 289.243 268.889 289.385 268.491 289.651C268.093 289.916 267.783 290.294 267.6 290.736C267.417 291.179 267.369 291.665 267.463 292.134C267.556 292.604 267.786 293.035 268.125 293.373C268.463 293.712 268.894 293.942 269.364 294.035C269.833 294.129 270.319 294.081 270.761 293.898C271.204 293.715 271.581 293.404 271.847 293.007C272.113 292.609 272.255 292.141 272.255 291.662C272.26 291.618 272.26 291.574 272.255 291.529C271.793 291.38 271.386 291.095 271.089 290.71C270.791 290.326 270.617 289.861 270.589 289.376Z" fill="white"/>
<path d="M380.281 295.908V297.68C380.278 298.229 380.1 298.763 379.771 299.203C379.442 299.644 378.981 299.967 378.456 300.126L365.073 304.043C363.411 304.539 361.685 304.79 359.95 304.788H179.736C178.005 304.789 176.282 304.538 174.623 304.043L161.231 300.091C160.704 299.933 160.241 299.611 159.91 299.17C159.58 298.73 159.4 298.195 159.396 297.645V295.872L380.281 295.908Z" fill="#263238"/>
<path opacity="0.2" d="M380.281 295.908V297.68C380.278 298.229 380.1 298.763 379.771 299.203C379.442 299.644 378.981 299.967 378.456 300.126L365.073 304.043C363.411 304.539 361.685 304.79 359.95 304.788H179.736C178.005 304.789 176.282 304.538 174.623 304.043L161.231 300.091C160.704 299.933 160.241 299.611 159.91 299.17C159.58 298.73 159.4 298.195 159.396 297.645V295.872L380.281 295.908Z" fill="white"/>
<path opacity="0.2" d="M380.281 295.907V297.68C380.281 298.139 380.155 298.59 379.918 298.983H159.76C159.523 298.59 159.397 298.139 159.396 297.68V295.907H380.281Z" fill="white"/>
<path opacity="0.2" d="M285.38 295.907V296.67C285.38 296.769 285.361 296.867 285.323 296.958C285.285 297.049 285.23 297.132 285.16 297.202C285.09 297.272 285.007 297.328 284.915 297.366C284.824 297.404 284.726 297.423 284.627 297.423H255.061C254.961 297.424 254.862 297.406 254.77 297.368C254.678 297.331 254.593 297.276 254.523 297.206C254.452 297.135 254.395 297.052 254.357 296.96C254.319 296.868 254.299 296.769 254.299 296.67V295.907H285.38Z" fill="black"/>
<path opacity="0.1" d="M362.165 168.932C362.165 168.932 336.632 270.312 177.502 286.956V168.932H362.165Z" fill="white"/>
<path d="M344.688 122.722V233.736L326.2 252.223H253.101C252.345 252.221 251.622 251.919 251.089 251.384C250.555 250.849 250.256 250.125 250.256 249.37V122.722C250.256 121.966 250.555 121.242 251.089 120.707C251.622 120.172 252.345 119.87 253.101 119.868H341.816C342.193 119.866 342.566 119.938 342.914 120.08C343.262 120.222 343.579 120.432 343.846 120.698C344.113 120.963 344.324 121.278 344.469 121.626C344.613 121.973 344.688 122.346 344.688 122.722Z" fill="#407BFF"/>
<path opacity="0.6" d="M344.688 127.57V233.736L326.2 252.223H253.101C252.345 252.221 251.622 251.919 251.089 251.384C250.555 250.85 250.256 250.125 250.256 249.37V127.57H344.688Z" fill="white"/>
<path opacity="0.6" d="M342.207 123.395C342.208 123.669 342.129 123.937 341.978 124.166C341.827 124.394 341.612 124.573 341.359 124.679C341.107 124.785 340.828 124.814 340.56 124.761C340.291 124.709 340.044 124.578 339.85 124.385C339.655 124.192 339.523 123.946 339.469 123.677C339.415 123.409 339.441 123.13 339.546 122.877C339.65 122.624 339.827 122.408 340.055 122.255C340.282 122.103 340.55 122.022 340.824 122.022C341.005 122.02 341.185 122.055 341.352 122.124C341.52 122.192 341.673 122.293 341.801 122.421C341.93 122.549 342.032 122.7 342.101 122.868C342.171 123.035 342.207 123.214 342.207 123.395Z" fill="white"/>
<path opacity="0.6" d="M336.943 123.395C336.943 123.667 336.862 123.933 336.711 124.159C336.56 124.384 336.346 124.561 336.095 124.665C335.844 124.768 335.568 124.796 335.301 124.743C335.035 124.69 334.79 124.559 334.598 124.367C334.406 124.175 334.275 123.93 334.222 123.663C334.169 123.397 334.196 123.121 334.3 122.87C334.404 122.619 334.58 122.404 334.806 122.253C335.032 122.102 335.297 122.022 335.569 122.022C335.75 122.02 335.929 122.055 336.096 122.124C336.263 122.192 336.415 122.294 336.543 122.421C336.671 122.549 336.772 122.701 336.841 122.868C336.909 123.035 336.944 123.215 336.943 123.395Z" fill="white"/>
<path opacity="0.6" d="M331.685 123.395C331.687 123.67 331.607 123.938 331.456 124.167C331.304 124.396 331.089 124.574 330.836 124.68C330.583 124.786 330.304 124.814 330.035 124.761C329.766 124.708 329.519 124.576 329.325 124.382C329.131 124.188 328.999 123.941 328.946 123.672C328.893 123.403 328.921 123.124 329.027 122.871C329.133 122.618 329.311 122.402 329.54 122.251C329.769 122.1 330.037 122.02 330.311 122.022C330.676 122.022 331.025 122.166 331.283 122.424C331.54 122.682 331.685 123.031 331.685 123.395Z" fill="white"/>
<path d="M307.643 136.122H257.037C256.802 136.122 256.576 136.029 256.41 135.863C256.244 135.696 256.15 135.471 256.15 135.236C256.15 135.001 256.244 134.775 256.41 134.609C256.576 134.443 256.802 134.35 257.037 134.35H307.643C307.878 134.35 308.103 134.443 308.269 134.609C308.436 134.775 308.529 135.001 308.529 135.236C308.529 135.471 308.436 135.696 308.269 135.863C308.103 136.029 307.878 136.122 307.643 136.122Z" fill="#407BFF"/>
<path d="M293.339 140.97H257.002C256.766 140.97 256.541 140.877 256.375 140.71C256.209 140.544 256.115 140.319 256.115 140.084C256.115 139.849 256.209 139.623 256.375 139.457C256.541 139.291 256.766 139.198 257.002 139.198H293.339C293.574 139.198 293.799 139.291 293.965 139.457C294.131 139.623 294.225 139.849 294.225 140.084C294.225 140.319 294.131 140.544 293.965 140.71C293.799 140.877 293.574 140.97 293.339 140.97Z" fill="#407BFF"/>
<path d="M332.572 215.824H267.875C267.639 215.824 267.414 215.731 267.248 215.565C267.082 215.399 266.988 215.173 266.988 214.938C266.988 214.703 267.082 214.478 267.248 214.311C267.414 214.145 267.639 214.052 267.875 214.052H332.572C332.807 214.052 333.033 214.145 333.199 214.311C333.365 214.478 333.458 214.703 333.458 214.938C333.458 215.173 333.365 215.399 333.199 215.565C333.033 215.731 332.807 215.824 332.572 215.824Z" fill="#407BFF"/>
<path d="M321.752 235.189H257.054C256.819 235.189 256.594 235.096 256.428 234.93C256.261 234.764 256.168 234.538 256.168 234.303C256.168 234.068 256.261 233.843 256.428 233.676C256.594 233.51 256.819 233.417 257.054 233.417H321.752C321.987 233.417 322.212 233.51 322.379 233.676C322.545 233.843 322.638 234.068 322.638 234.303C322.638 234.538 322.545 234.764 322.379 234.93C322.212 235.096 321.987 235.189 321.752 235.189Z" fill="#407BFF"/>
<path d="M332.573 220.681H257.037C256.802 220.681 256.576 220.588 256.41 220.422C256.244 220.255 256.15 220.03 256.15 219.795C256.15 219.56 256.244 219.334 256.41 219.168C256.576 219.002 256.802 218.909 257.037 218.909H332.573C332.808 218.909 333.034 219.002 333.2 219.168C333.366 219.334 333.46 219.56 333.46 219.795C333.46 220.03 333.366 220.255 333.2 220.422C333.034 220.588 332.808 220.681 332.573 220.681Z" fill="#407BFF"/>
<path d="M332.573 225.511H257.037C256.802 225.511 256.576 225.418 256.41 225.252C256.244 225.086 256.15 224.86 256.15 224.625C256.15 224.39 256.244 224.165 256.41 223.998C256.576 223.832 256.802 223.739 257.037 223.739H332.573C332.808 223.739 333.034 223.832 333.2 223.998C333.366 224.165 333.46 224.39 333.46 224.625C333.46 224.86 333.366 225.086 333.2 225.252C333.034 225.418 332.808 225.511 332.573 225.511Z" fill="#407BFF"/>
<path d="M332.573 230.35H257.037C256.802 230.35 256.576 230.257 256.41 230.091C256.244 229.925 256.15 229.699 256.15 229.464C256.15 229.229 256.244 229.004 256.41 228.837C256.576 228.671 256.802 228.578 257.037 228.578H332.573C332.808 228.578 333.034 228.671 333.2 228.837C333.366 229.004 333.46 229.229 333.46 229.464C333.46 229.699 333.366 229.925 333.2 230.091C333.034 230.257 332.808 230.35 332.573 230.35Z" fill="#407BFF"/>
<path opacity="0.5" d="M344.671 233.736L326.184 252.224V233.736H344.671Z" fill="#407BFF"/>
<path opacity="0.4" d="M344.669 127.57H339.449V233.736H344.669V127.57Z" fill="black"/>
<path d="M342.031 183.041C341.521 183.041 341.031 182.839 340.671 182.478C340.31 182.117 340.107 181.628 340.107 181.118V170.27C340.119 169.768 340.327 169.29 340.686 168.939C341.046 168.588 341.528 168.391 342.031 168.391C342.283 168.391 342.533 168.441 342.767 168.538C343 168.634 343.212 168.776 343.391 168.955C343.569 169.133 343.711 169.345 343.807 169.578C343.904 169.812 343.954 170.062 343.954 170.314V181.162C343.942 181.665 343.735 182.143 343.375 182.494C343.016 182.845 342.533 183.041 342.031 183.041Z" fill="#407BFF"/>
<path d="M332.572 189.236H267.875C267.639 189.236 267.414 189.143 267.248 188.977C267.082 188.811 266.988 188.585 266.988 188.35C266.988 188.115 267.082 187.89 267.248 187.723C267.414 187.557 267.639 187.464 267.875 187.464H332.572C332.807 187.464 333.033 187.557 333.199 187.723C333.365 187.89 333.458 188.115 333.458 188.35C333.458 188.585 333.365 188.811 333.199 188.977C333.033 189.143 332.807 189.236 332.572 189.236Z" fill="#407BFF"/>
<path d="M321.752 208.601H257.054C256.819 208.601 256.594 208.508 256.428 208.342C256.261 208.175 256.168 207.95 256.168 207.715C256.168 207.48 256.261 207.255 256.428 207.088C256.594 206.922 256.819 206.829 257.054 206.829H321.752C321.987 206.829 322.212 206.922 322.379 207.088C322.545 207.255 322.638 207.48 322.638 207.715C322.638 207.95 322.545 208.175 322.379 208.342C322.212 208.508 321.987 208.601 321.752 208.601Z" fill="#407BFF"/>
<path d="M332.573 194.093H257.037C256.802 194.093 256.576 194 256.41 193.834C256.244 193.667 256.15 193.442 256.15 193.207C256.15 192.972 256.244 192.746 256.41 192.58C256.576 192.414 256.802 192.321 257.037 192.321H332.573C332.808 192.321 333.034 192.414 333.2 192.58C333.366 192.746 333.46 192.972 333.46 193.207C333.46 193.442 333.366 193.667 333.2 193.834C333.034 194 332.808 194.093 332.573 194.093Z" fill="#407BFF"/>
<path d="M332.573 198.923H257.037C256.802 198.923 256.576 198.83 256.41 198.664C256.244 198.497 256.15 198.272 256.15 198.037C256.15 197.802 256.244 197.576 256.41 197.41C256.576 197.244 256.802 197.151 257.037 197.151H332.573C332.808 197.151 333.034 197.244 333.2 197.41C333.366 197.576 333.46 197.802 333.46 198.037C333.46 198.272 333.366 198.497 333.2 198.664C333.034 198.83 332.808 198.923 332.573 198.923Z" fill="#407BFF"/>
<path d="M332.573 203.762H257.037C256.802 203.762 256.576 203.669 256.41 203.503C256.244 203.336 256.15 203.111 256.15 202.876C256.15 202.641 256.244 202.416 256.41 202.249C256.576 202.083 256.802 201.99 257.037 201.99H332.573C332.808 201.99 333.034 202.083 333.2 202.249C333.366 202.416 333.46 202.641 333.46 202.876C333.46 203.111 333.366 203.336 333.2 203.503C333.034 203.669 332.808 203.762 332.573 203.762Z" fill="#407BFF"/>
<path d="M332.565 146.74H256.807V175.012H332.565V146.74Z" fill="#407BFF"/>
<path opacity="0.2" d="M256.807 170.474H258.872V165.334H261.247V155.186H264.561V161.434H269.117V169.738H274.55V163.951H279.043L282.012 160.973V154.087H283.829V163.951H288.402V167.461H293.135V149.558L294.446 148.246V153.156H297.469V155.363L300.367 158.27V163.508H304.532V159.36H315.398V156.267H317.853V150.861H318.73V159.36H320.113L323.241 156.232H326.184V153.404H327.673V156.267H329.596V167.984H331.688V162.134L332.574 162.187V146.74H256.807V170.474Z" fill="black"/>
<path d="M332.573 179.487H312.189C311.954 179.487 311.729 179.394 311.562 179.228C311.396 179.062 311.303 178.836 311.303 178.601C311.303 178.366 311.396 178.141 311.562 177.974C311.729 177.808 311.954 177.715 312.189 177.715H332.573C332.808 177.715 333.034 177.808 333.2 177.974C333.366 178.141 333.459 178.366 333.459 178.601C333.459 178.836 333.366 179.062 333.2 179.228C333.034 179.394 332.808 179.487 332.573 179.487Z" fill="#407BFF"/>
<path opacity="0.2" d="M286.814 119.868V211.615L272.9 225.565H250.256V122.757C250.256 122.002 250.555 121.277 251.089 120.742C251.622 120.208 252.345 119.906 253.101 119.903L286.814 119.868Z" fill="black"/>
<path opacity="0.4" d="M342.031 183.041C341.521 183.041 341.031 182.839 340.671 182.478C340.31 182.117 340.107 181.628 340.107 181.118V170.27C340.119 169.768 340.327 169.29 340.686 168.939C341.046 168.588 341.528 168.391 342.031 168.391C342.283 168.391 342.533 168.441 342.767 168.538C343 168.634 343.212 168.776 343.391 168.955C343.569 169.133 343.711 169.345 343.807 169.578C343.904 169.812 343.954 170.062 343.954 170.314V181.162C343.942 181.665 343.735 182.143 343.375 182.494C343.016 182.845 342.533 183.041 342.031 183.041Z" fill="white"/>
<path d="M232.787 136.556V247.57L214.3 266.058H141.218C140.463 266.056 139.739 265.754 139.206 265.219C138.672 264.684 138.373 263.96 138.373 263.204V136.556C138.373 135.801 138.672 135.076 139.206 134.541C139.739 134.007 140.463 133.705 141.218 133.703H229.934C230.69 133.703 231.416 134.003 231.951 134.538C232.487 135.074 232.787 135.799 232.787 136.556Z" fill="#407BFF"/>
<path opacity="0.6" d="M232.787 141.413V247.579L214.3 266.067H141.218C140.463 266.064 139.739 265.763 139.206 265.228C138.672 264.693 138.373 263.968 138.373 263.213V141.413H232.787Z" fill="white"/>
<path opacity="0.6" d="M230.359 137.239C230.361 137.513 230.281 137.781 230.13 138.009C229.979 138.238 229.764 138.416 229.512 138.522C229.259 138.628 228.981 138.657 228.712 138.605C228.443 138.552 228.196 138.421 228.002 138.228C227.808 138.035 227.675 137.789 227.621 137.521C227.567 137.252 227.594 136.974 227.698 136.721C227.803 136.467 227.98 136.251 228.207 136.099C228.435 135.946 228.702 135.865 228.976 135.865C229.157 135.864 229.337 135.899 229.505 135.967C229.672 136.036 229.825 136.137 229.953 136.264C230.082 136.392 230.184 136.544 230.253 136.711C230.323 136.878 230.359 137.058 230.359 137.239Z" fill="white"/>
<path opacity="0.6" d="M225.041 137.239C225.042 137.513 224.962 137.781 224.811 138.01C224.66 138.239 224.444 138.417 224.191 138.523C223.938 138.629 223.659 138.657 223.39 138.604C223.121 138.551 222.874 138.419 222.68 138.225C222.486 138.031 222.355 137.784 222.302 137.515C222.248 137.246 222.277 136.967 222.382 136.714C222.488 136.461 222.667 136.246 222.895 136.094C223.124 135.943 223.393 135.863 223.667 135.865C223.848 135.864 224.027 135.899 224.194 135.967C224.361 136.036 224.513 136.137 224.641 136.265C224.769 136.393 224.87 136.544 224.938 136.712C225.007 136.879 225.042 137.058 225.041 137.239Z" fill="white"/>
<path opacity="0.6" d="M219.802 137.239C219.804 137.513 219.724 137.781 219.574 138.009C219.423 138.238 219.207 138.416 218.955 138.522C218.702 138.628 218.424 138.657 218.155 138.605C217.887 138.552 217.639 138.421 217.445 138.228C217.251 138.035 217.118 137.789 217.064 137.521C217.01 137.252 217.037 136.974 217.141 136.721C217.246 136.467 217.423 136.251 217.651 136.099C217.878 135.946 218.146 135.865 218.42 135.865C218.601 135.864 218.78 135.899 218.948 135.967C219.116 136.036 219.268 136.137 219.397 136.264C219.525 136.392 219.627 136.544 219.697 136.711C219.766 136.878 219.802 137.058 219.802 137.239Z" fill="white"/>
<path d="M160.876 150.444H145.154C144.919 150.444 144.693 150.351 144.527 150.185C144.361 150.018 144.268 149.793 144.268 149.558C144.268 149.323 144.361 149.097 144.527 148.931C144.693 148.765 144.919 148.672 145.154 148.672H160.876C161.111 148.672 161.337 148.765 161.503 148.931C161.669 149.097 161.763 149.323 161.763 149.558C161.763 149.793 161.669 150.018 161.503 150.185C161.337 150.351 161.111 150.444 160.876 150.444Z" fill="#407BFF"/>
<path d="M168.321 155.283H145.189C144.954 155.283 144.729 155.19 144.562 155.024C144.396 154.857 144.303 154.632 144.303 154.397C144.303 154.162 144.396 153.936 144.562 153.77C144.729 153.604 144.954 153.511 145.189 153.511H168.321C168.556 153.511 168.781 153.604 168.947 153.77C169.114 153.936 169.207 154.162 169.207 154.397C169.207 154.632 169.114 154.857 168.947 155.024C168.781 155.19 168.556 155.283 168.321 155.283Z" fill="#407BFF"/>
<path d="M161.134 160.122H145.181C144.946 160.122 144.721 160.029 144.555 159.863C144.388 159.696 144.295 159.471 144.295 159.236C144.295 159.001 144.388 158.775 144.555 158.609C144.721 158.443 144.946 158.35 145.181 158.35H161.134C161.369 158.35 161.595 158.443 161.761 158.609C161.927 158.775 162.02 159.001 162.02 159.236C162.02 159.471 161.927 159.696 161.761 159.863C161.595 160.029 161.369 160.122 161.134 160.122Z" fill="#407BFF"/>
<path d="M220.68 239.417H155.982C155.747 239.417 155.521 239.323 155.355 239.157C155.189 238.991 155.096 238.766 155.096 238.531C155.096 238.296 155.189 238.07 155.355 237.904C155.521 237.738 155.747 237.644 155.982 237.644H220.68C220.915 237.644 221.14 237.738 221.306 237.904C221.473 238.07 221.566 238.296 221.566 238.531C221.566 238.766 221.473 238.991 221.306 239.157C221.14 239.323 220.915 239.417 220.68 239.417Z" fill="#407BFF"/>
<path d="M185.231 244.256H145.154C144.919 244.256 144.693 244.162 144.527 243.996C144.361 243.83 144.268 243.604 144.268 243.369C144.268 243.134 144.361 242.909 144.527 242.743C144.693 242.577 144.919 242.483 145.154 242.483H185.231C185.466 242.483 185.691 242.577 185.858 242.743C186.024 242.909 186.117 243.134 186.117 243.369C186.117 243.604 186.024 243.83 185.858 243.996C185.691 244.162 185.466 244.256 185.231 244.256Z" fill="#407BFF"/>
<path opacity="0.5" d="M232.788 247.579L214.301 266.067V247.579H232.788Z" fill="#407BFF"/>
<path opacity="0.4" d="M232.788 141.413H227.568V247.579H232.788V141.413Z" fill="black"/>
<path d="M230.171 240.312C229.661 240.312 229.172 240.109 228.811 239.749C228.451 239.388 228.248 238.899 228.248 238.389V227.541C228.248 227.031 228.451 226.542 228.811 226.181C229.172 225.82 229.661 225.618 230.171 225.618C230.424 225.618 230.674 225.667 230.907 225.764C231.141 225.861 231.353 226.002 231.531 226.181C231.71 226.359 231.851 226.571 231.948 226.805C232.045 227.038 232.094 227.288 232.094 227.541V238.406C232.09 238.913 231.885 239.398 231.525 239.755C231.165 240.112 230.678 240.312 230.171 240.312Z" fill="#407BFF"/>
<path d="M220.68 150.444H208.511C208.276 150.444 208.051 150.351 207.885 150.185C207.718 150.018 207.625 149.793 207.625 149.558C207.625 149.323 207.718 149.097 207.885 148.931C208.051 148.765 208.276 148.672 208.511 148.672H220.68C220.915 148.672 221.14 148.765 221.306 148.931C221.473 149.097 221.566 149.323 221.566 149.558C221.566 149.793 221.473 150.018 221.306 150.185C221.14 150.351 220.915 150.444 220.68 150.444Z" fill="#407BFF"/>
<path d="M220.681 155.283H214.406C214.171 155.283 213.945 155.19 213.779 155.024C213.613 154.857 213.52 154.632 213.52 154.397C213.52 154.162 213.613 153.936 213.779 153.77C213.945 153.604 214.171 153.511 214.406 153.511H220.698C220.933 153.511 221.159 153.604 221.325 153.77C221.491 153.936 221.585 154.162 221.585 154.397C221.585 154.632 221.491 154.857 221.325 155.024C221.159 155.19 220.933 155.283 220.698 155.283H220.681Z" fill="#407BFF"/>
<path d="M220.68 172.947H155.982C155.747 172.947 155.521 172.853 155.355 172.687C155.189 172.521 155.096 172.295 155.096 172.06C155.096 171.825 155.189 171.6 155.355 171.434C155.521 171.267 155.747 171.174 155.982 171.174H220.68C220.915 171.174 221.14 171.267 221.306 171.434C221.473 171.6 221.566 171.825 221.566 172.06C221.566 172.295 221.473 172.521 221.306 172.687C221.14 172.853 220.915 172.947 220.68 172.947Z" fill="#407BFF"/>
<path d="M220.682 177.785H145.154C144.919 177.785 144.693 177.692 144.527 177.526C144.361 177.36 144.268 177.134 144.268 176.899C144.268 176.664 144.361 176.439 144.527 176.273C144.693 176.106 144.919 176.013 145.154 176.013H220.682C220.917 176.013 221.142 176.106 221.308 176.273C221.475 176.439 221.568 176.664 221.568 176.899C221.568 177.134 221.475 177.36 221.308 177.526C221.142 177.692 220.917 177.785 220.682 177.785Z" fill="#407BFF"/>
<path d="M176.368 182.625H145.154C144.919 182.625 144.693 182.531 144.527 182.365C144.361 182.199 144.268 181.973 144.268 181.738C144.268 181.503 144.361 181.278 144.527 181.112C144.693 180.945 144.919 180.852 145.154 180.852H176.368C176.603 180.852 176.829 180.945 176.995 181.112C177.161 181.278 177.255 181.503 177.255 181.738C177.255 181.973 177.161 182.199 176.995 182.365C176.829 182.531 176.603 182.625 176.368 182.625Z" fill="#407BFF"/>
<path opacity="0.7" d="M187.446 189.05H157.686V197.026H187.446V189.05Z" fill="#407BFF"/>
<path opacity="0.3" d="M171.166 198.799H157.686V228.25H171.166V198.799Z" fill="#407BFF"/>
<path opacity="0.3" d="M204.692 198.799H189.209V228.25H204.692V198.799Z" fill="#407BFF"/>
<path opacity="0.7" d="M220.68 189.05H189.209V197.026H220.68V189.05Z" fill="#407BFF"/>
<path opacity="0.3" d="M220.688 198.799H206.473V228.25H220.688V198.799Z" fill="#407BFF"/>
<path opacity="0.5" d="M155.914 198.799H145.154V228.25H155.914V198.799Z" fill="#407BFF"/>
<path d="M155.914 189.05H145.154V197.026H155.914V189.05Z" fill="#407BFF"/>
<path opacity="0.3" d="M187.437 198.799H172.938V228.25H187.437V198.799Z" fill="#407BFF"/>
<path opacity="0.4" d="M230.171 240.312C229.661 240.312 229.172 240.109 228.811 239.749C228.451 239.388 228.248 238.899 228.248 238.389V227.541C228.248 227.031 228.451 226.542 228.811 226.181C229.172 225.82 229.661 225.618 230.171 225.618C230.424 225.618 230.674 225.667 230.907 225.764C231.141 225.861 231.353 226.002 231.531 226.181C231.71 226.359 231.851 226.571 231.948 226.805C232.045 227.038 232.094 227.288 232.094 227.541V238.406C232.09 238.913 231.885 239.398 231.525 239.755C231.165 240.112 230.678 240.312 230.171 240.312Z" fill="white"/>
<path opacity="0.2" d="M232.786 136.556V228.906H179.318C178.562 228.903 177.839 228.601 177.305 228.067C176.772 227.532 176.473 226.807 176.473 226.052V133.703H229.932C230.689 133.703 231.415 134.003 231.95 134.538C232.486 135.074 232.786 135.799 232.786 136.556Z" fill="black"/>
<path d="M279.735 86.234V197.248L261.247 215.736H188.165C187.41 215.733 186.686 215.432 186.153 214.897C185.62 214.362 185.32 213.637 185.32 212.882V86.234C185.32 85.4787 185.62 84.7542 186.153 84.2192C186.686 83.6843 187.41 83.3826 188.165 83.3802H276.881C277.638 83.3802 278.364 83.6809 278.899 84.2161C279.434 84.7513 279.735 85.4772 279.735 86.234Z" fill="#407BFF"/>
<path opacity="0.6" d="M279.735 91.0819V197.248L261.247 215.736H188.165C187.41 215.733 186.686 215.432 186.153 214.897C185.62 214.362 185.32 213.637 185.32 212.882V91.0819H279.735Z" fill="white"/>
<path opacity="0.6" d="M275.887 88.2813C276.646 88.2813 277.261 87.6662 277.261 86.9075C277.261 86.1489 276.646 85.5338 275.887 85.5338C275.129 85.5338 274.514 86.1489 274.514 86.9075C274.514 87.6662 275.129 88.2813 275.887 88.2813Z" fill="white"/>
<path opacity="0.6" d="M270.624 88.2813C271.382 88.2813 271.997 87.6662 271.997 86.9075C271.997 86.1489 271.382 85.5338 270.624 85.5338C269.865 85.5338 269.25 86.1489 269.25 86.9075C269.25 87.6662 269.865 88.2813 270.624 88.2813Z" fill="white"/>
<path opacity="0.6" d="M266.742 86.9076C266.743 87.1818 266.664 87.4503 266.512 87.679C266.361 87.9077 266.145 88.0863 265.892 88.192C265.639 88.2978 265.361 88.3259 265.092 88.2728C264.823 88.2198 264.575 88.0879 264.381 87.894C264.188 87.7001 264.056 87.453 264.003 87.184C263.95 86.9149 263.978 86.6362 264.083 86.3832C264.189 86.1302 264.368 85.9144 264.597 85.7632C264.825 85.6119 265.094 85.5321 265.368 85.5338C265.549 85.5327 265.728 85.5674 265.895 85.636C266.062 85.7046 266.214 85.8058 266.342 85.9336C266.47 86.0614 266.571 86.2133 266.64 86.3805C266.708 86.5477 266.743 86.7268 266.742 86.9076Z" fill="white"/>
<path d="M238.887 100.148H220.834C220.598 100.148 220.373 100.055 220.207 99.8888C220.041 99.7226 219.947 99.4972 219.947 99.2621C219.947 99.0271 220.041 98.8016 220.207 98.6354C220.373 98.4692 220.598 98.3759 220.834 98.3759H238.887C239.122 98.3759 239.347 98.4692 239.514 98.6354C239.68 98.8016 239.773 99.0271 239.773 99.2621C239.773 99.4972 239.68 99.7226 239.514 99.8888C239.347 100.055 239.122 100.148 238.887 100.148Z" fill="#407BFF"/>
<path d="M246.314 104.952H213.433C213.198 104.952 212.973 104.859 212.806 104.692C212.64 104.526 212.547 104.301 212.547 104.066C212.547 103.831 212.64 103.605 212.806 103.439C212.973 103.273 213.198 103.179 213.433 103.179H246.314C246.549 103.179 246.774 103.273 246.94 103.439C247.107 103.605 247.2 103.831 247.2 104.066C247.2 104.301 247.107 104.526 246.94 104.692C246.774 104.859 246.549 104.952 246.314 104.952Z" fill="#407BFF"/>
<path d="M239.154 109.8H220.613C220.378 109.8 220.152 109.707 219.986 109.54C219.82 109.374 219.727 109.149 219.727 108.914C219.727 108.679 219.82 108.453 219.986 108.287C220.152 108.121 220.378 108.027 220.613 108.027H239.224C239.46 108.027 239.685 108.121 239.851 108.287C240.017 108.453 240.111 108.679 240.111 108.914C240.111 109.149 240.017 109.374 239.851 109.54C239.685 109.707 239.46 109.8 239.224 109.8H239.154Z" fill="#407BFF"/>
<path d="M267.628 122.615H202.886C202.651 122.615 202.426 122.522 202.26 122.356C202.093 122.19 202 121.964 202 121.729C202 121.494 202.093 121.269 202.26 121.102C202.426 120.936 202.651 120.843 202.886 120.843H267.584C267.819 120.843 268.044 120.936 268.211 121.102C268.377 121.269 268.47 121.494 268.47 121.729C268.47 121.964 268.377 122.19 268.211 122.356C268.044 122.522 267.819 122.615 267.584 122.615H267.628Z" fill="#407BFF"/>
<path d="M256.807 141.98H192.109C191.874 141.98 191.648 141.887 191.482 141.721C191.316 141.555 191.223 141.329 191.223 141.094C191.223 140.859 191.316 140.634 191.482 140.467C191.648 140.301 191.874 140.208 192.109 140.208H256.807C257.042 140.208 257.267 140.301 257.433 140.467C257.599 140.634 257.693 140.859 257.693 141.094C257.693 141.329 257.599 141.555 257.433 141.721C257.267 141.887 257.042 141.98 256.807 141.98Z" fill="#407BFF"/>
<path d="M267.628 127.454H192.091C191.856 127.454 191.631 127.361 191.465 127.195C191.298 127.029 191.205 126.803 191.205 126.568C191.205 126.333 191.298 126.108 191.465 125.941C191.631 125.775 191.856 125.682 192.091 125.682H267.628C267.863 125.682 268.089 125.775 268.255 125.941C268.421 126.108 268.514 126.333 268.514 126.568C268.514 126.803 268.421 127.029 268.255 127.195C268.089 127.361 267.863 127.454 267.628 127.454Z" fill="#407BFF"/>
<path d="M267.628 132.302H192.091C191.856 132.302 191.631 132.209 191.465 132.043C191.298 131.876 191.205 131.651 191.205 131.416C191.205 131.181 191.298 130.955 191.465 130.789C191.631 130.623 191.856 130.53 192.091 130.53H267.628C267.863 130.53 268.089 130.623 268.255 130.789C268.421 130.955 268.514 131.181 268.514 131.416C268.514 131.651 268.421 131.876 268.255 132.043C268.089 132.209 267.863 132.302 267.628 132.302Z" fill="#407BFF"/>
<path d="M267.628 137.141H192.091C191.856 137.141 191.631 137.048 191.465 136.882C191.298 136.716 191.205 136.49 191.205 136.255C191.205 136.02 191.298 135.795 191.465 135.628C191.631 135.462 191.856 135.369 192.091 135.369H267.628C267.863 135.369 268.089 135.462 268.255 135.628C268.421 135.795 268.514 136.02 268.514 136.255C268.514 136.49 268.421 136.716 268.255 136.882C268.089 137.048 267.863 137.141 267.628 137.141Z" fill="#407BFF"/>
<path d="M267.628 171.36H202.886C202.651 171.36 202.426 171.267 202.26 171.101C202.093 170.934 202 170.709 202 170.474C202 170.239 202.093 170.013 202.26 169.847C202.426 169.681 202.651 169.588 202.886 169.588H267.584C267.819 169.588 268.044 169.681 268.211 169.847C268.377 170.013 268.47 170.239 268.47 170.474C268.47 170.709 268.377 170.934 268.211 171.101C268.044 171.267 267.819 171.36 267.584 171.36H267.628Z" fill="#407BFF"/>
<path d="M256.807 190.725H192.109C191.874 190.725 191.648 190.632 191.482 190.466C191.316 190.299 191.223 190.074 191.223 189.839C191.223 189.604 191.316 189.378 191.482 189.212C191.648 189.046 191.874 188.953 192.109 188.953H256.807C257.042 188.953 257.267 189.046 257.433 189.212C257.599 189.378 257.693 189.604 257.693 189.839C257.693 190.074 257.599 190.299 257.433 190.466C257.267 190.632 257.042 190.725 256.807 190.725Z" fill="#407BFF"/>
<path d="M267.628 176.199H192.091C191.856 176.199 191.631 176.106 191.465 175.94C191.298 175.774 191.205 175.548 191.205 175.313C191.205 175.078 191.298 174.853 191.465 174.686C191.631 174.52 191.856 174.427 192.091 174.427H267.628C267.863 174.427 268.089 174.52 268.255 174.686C268.421 174.853 268.514 175.078 268.514 175.313C268.514 175.548 268.421 175.774 268.255 175.94C268.089 176.106 267.863 176.199 267.628 176.199Z" fill="#407BFF"/>
<path d="M267.628 181.047H192.091C191.856 181.047 191.631 180.954 191.465 180.788C191.298 180.621 191.205 180.396 191.205 180.161C191.205 179.926 191.298 179.7 191.465 179.534C191.631 179.368 191.856 179.275 192.091 179.275H267.628C267.863 179.275 268.089 179.368 268.255 179.534C268.421 179.7 268.514 179.926 268.514 180.161C268.514 180.396 268.421 180.621 268.255 180.788C268.089 180.954 267.863 181.047 267.628 181.047Z" fill="#407BFF"/>
<path d="M267.628 185.886H192.091C191.856 185.886 191.631 185.793 191.465 185.626C191.298 185.46 191.205 185.235 191.205 185C191.205 184.765 191.298 184.539 191.465 184.373C191.631 184.207 191.856 184.114 192.091 184.114H267.628C267.863 184.114 268.089 184.207 268.255 184.373C268.421 184.539 268.514 184.765 268.514 185C268.514 185.235 268.421 185.46 268.255 185.626C268.089 185.793 267.863 185.886 267.628 185.886Z" fill="#407BFF"/>
<path d="M267.629 98.1632H258.562V110.234H267.629V98.1632Z" fill="#407BFF"/>
<path d="M197.127 108.214C199.902 108.214 202.152 105.964 202.152 103.188C202.152 100.413 199.902 98.1632 197.127 98.1632C194.351 98.1632 192.102 100.413 192.102 103.188C192.102 105.964 194.351 108.214 197.127 108.214Z" fill="#407BFF"/>
<path d="M191.807 148.317C191.831 148.581 191.953 148.827 192.149 149.006C192.345 149.185 192.601 149.284 192.866 149.284C193.132 149.284 193.387 149.185 193.583 149.006C193.779 148.827 193.901 148.581 193.925 148.317C193.939 148.17 193.921 148.021 193.874 147.881C193.827 147.741 193.751 147.612 193.652 147.503C193.552 147.394 193.431 147.307 193.296 147.247C193.16 147.187 193.014 147.157 192.866 147.157C192.718 147.157 192.572 147.187 192.437 147.247C192.302 147.307 192.18 147.394 192.081 147.503C191.981 147.612 191.905 147.741 191.858 147.881C191.811 148.021 191.794 148.17 191.807 148.317Z" fill="#407BFF"/>
<path d="M191.807 153.156C191.805 153.367 191.866 153.574 191.982 153.75C192.098 153.927 192.264 154.064 192.459 154.146C192.654 154.228 192.868 154.249 193.075 154.209C193.283 154.168 193.473 154.066 193.622 153.917C193.771 153.768 193.873 153.578 193.914 153.37C193.954 153.163 193.933 152.949 193.851 152.754C193.769 152.559 193.632 152.393 193.456 152.277C193.279 152.161 193.072 152.1 192.861 152.102C192.582 152.102 192.313 152.213 192.116 152.411C191.918 152.608 191.807 152.877 191.807 153.156Z" fill="#407BFF"/>
<path d="M191.807 158.004C191.831 158.268 191.953 158.514 192.149 158.693C192.345 158.871 192.601 158.971 192.866 158.971C193.132 158.971 193.387 158.871 193.583 158.693C193.779 158.514 193.901 158.268 193.925 158.004C193.939 157.857 193.921 157.708 193.874 157.568C193.827 157.428 193.751 157.299 193.652 157.19C193.552 157.081 193.431 156.994 193.296 156.934C193.16 156.874 193.014 156.844 192.866 156.844C192.718 156.844 192.572 156.874 192.437 156.934C192.302 156.994 192.18 157.081 192.081 157.19C191.981 157.299 191.905 157.428 191.858 157.568C191.811 157.708 191.794 157.857 191.807 158.004Z" fill="#407BFF"/>
<path d="M191.807 162.843C191.831 163.107 191.953 163.353 192.149 163.532C192.345 163.71 192.601 163.81 192.866 163.81C193.132 163.81 193.387 163.71 193.583 163.532C193.779 163.353 193.901 163.107 193.925 162.843C193.939 162.696 193.921 162.547 193.874 162.407C193.827 162.267 193.751 162.138 193.652 162.029C193.552 161.92 193.431 161.833 193.296 161.773C193.16 161.713 193.014 161.682 192.866 161.682C192.718 161.682 192.572 161.713 192.437 161.773C192.302 161.833 192.18 161.92 192.081 162.029C191.981 162.138 191.905 162.267 191.858 162.407C191.811 162.547 191.794 162.696 191.807 162.843Z" fill="#407BFF"/>
<path d="M208.062 149.203H196.541C196.306 149.203 196.08 149.11 195.914 148.944C195.748 148.778 195.654 148.552 195.654 148.317C195.654 148.082 195.748 147.857 195.914 147.69C196.08 147.524 196.306 147.431 196.541 147.431H208.062C208.297 147.431 208.523 147.524 208.689 147.69C208.855 147.857 208.948 148.082 208.948 148.317C208.948 148.552 208.855 148.778 208.689 148.944C208.523 149.11 208.297 149.203 208.062 149.203Z" fill="#407BFF"/>
<path d="M218.884 154.042H196.523C196.288 154.042 196.063 153.949 195.896 153.783C195.73 153.617 195.637 153.391 195.637 153.156C195.637 152.921 195.73 152.696 195.896 152.529C196.063 152.363 196.288 152.27 196.523 152.27H218.884C219.119 152.27 219.344 152.363 219.51 152.529C219.676 152.696 219.77 152.921 219.77 153.156C219.77 153.391 219.676 153.617 219.51 153.783C219.344 153.949 219.119 154.042 218.884 154.042Z" fill="#407BFF"/>
<path d="M205.59 158.89H196.523C196.288 158.89 196.063 158.797 195.896 158.631C195.73 158.465 195.637 158.239 195.637 158.004C195.637 157.769 195.73 157.544 195.896 157.377C196.063 157.211 196.288 157.118 196.523 157.118H205.59C205.825 157.118 206.05 157.211 206.216 157.377C206.382 157.544 206.476 157.769 206.476 158.004C206.476 158.239 206.382 158.465 206.216 158.631C206.05 158.797 205.825 158.89 205.59 158.89Z" fill="#407BFF"/>
<path d="M215.338 163.729H196.523C196.288 163.729 196.063 163.636 195.896 163.47C195.73 163.304 195.637 163.078 195.637 162.843C195.637 162.608 195.73 162.383 195.896 162.216C196.063 162.05 196.288 161.957 196.523 161.957H215.338C215.574 161.957 215.799 162.05 215.965 162.216C216.131 162.383 216.225 162.608 216.225 162.843C216.225 163.078 216.131 163.304 215.965 163.47C215.799 163.636 215.574 163.729 215.338 163.729Z" fill="#407BFF"/>
<path opacity="0.5" d="M279.736 197.248L261.248 215.736V197.248H279.736Z" fill="#407BFF"/>
<path opacity="0.2" d="M267.629 98.1632L258.562 110.234H267.629V98.1632Z" fill="black"/>
<path opacity="0.2" d="M200.058 100.255H194.182V106.131H200.058V100.255Z" fill="black"/>
<path opacity="0.4" d="M279.726 91.0819H274.506V197.248H279.726V91.0819Z" fill="black"/>
<path d="M277.119 111.103C276.608 111.103 276.119 110.9 275.759 110.539C275.398 110.179 275.195 109.69 275.195 109.179V98.3758C275.195 97.8658 275.398 97.3766 275.759 97.0159C276.119 96.6553 276.608 96.4526 277.119 96.4526C277.629 96.4526 278.118 96.6553 278.478 97.0159C278.839 97.3766 279.042 97.8658 279.042 98.3758V109.224C279.03 109.726 278.822 110.204 278.463 110.555C278.104 110.906 277.621 111.103 277.119 111.103Z" fill="#407BFF"/>
<path opacity="0.4" d="M277.119 111.103C276.608 111.103 276.119 110.9 275.759 110.539C275.398 110.179 275.195 109.69 275.195 109.179V98.3758C275.195 97.8658 275.398 97.3766 275.759 97.0159C276.119 96.6553 276.608 96.4526 277.119 96.4526C277.629 96.4526 278.118 96.6553 278.478 97.0159C278.839 97.3766 279.042 97.8658 279.042 98.3758V109.224C279.03 109.726 278.822 110.204 278.463 110.555C278.104 110.906 277.621 111.103 277.119 111.103Z" fill="white"/>
<path d="M75.1115 136.423H106.06C107.25 136.426 108.391 136.9 109.232 137.743C110.072 138.585 110.545 139.727 110.545 140.917V170.997C110.545 172.186 110.072 173.327 109.231 174.168C108.39 175.009 107.249 175.481 106.06 175.481H93.4927L94.8487 184.548L88.6448 175.481H75.1115C74.5222 175.482 73.9386 175.367 73.394 175.142C72.8493 174.917 72.3545 174.587 71.9378 174.17C71.5212 173.754 71.1909 173.259 70.966 172.714C70.741 172.17 70.6258 171.586 70.627 170.997V140.917C70.6258 140.327 70.7409 139.743 70.9658 139.198C71.1906 138.653 71.5208 138.157 71.9373 137.74C72.3539 137.323 72.8486 136.991 73.3933 136.766C73.938 136.54 74.5218 136.423 75.1115 136.423Z" fill="#407BFF"/>
<path opacity="0.6" d="M75.1115 136.423H106.06C107.25 136.426 108.391 136.9 109.232 137.743C110.072 138.585 110.545 139.727 110.545 140.917V170.997C110.545 172.186 110.072 173.327 109.231 174.168C108.39 175.009 107.249 175.481 106.06 175.481H93.4927L94.8487 184.548L88.6448 175.481H75.1115C74.5222 175.482 73.9386 175.367 73.394 175.142C72.8493 174.917 72.3545 174.587 71.9378 174.17C71.5212 173.754 71.1909 173.259 70.966 172.714C70.741 172.17 70.6258 171.586 70.627 170.997V140.917C70.6258 140.327 70.7409 139.743 70.9658 139.198C71.1906 138.653 71.5208 138.157 71.9373 137.74C72.3539 137.323 72.8486 136.991 73.3933 136.766C73.938 136.54 74.5218 136.423 75.1115 136.423Z" fill="white"/>
<path d="M88.0332 149.7V152.102L89.274 152.217C89.4249 153.005 89.7258 153.757 90.1602 154.432L89.3715 155.39L91.0642 157.082L92.0303 156.294C92.7065 156.726 93.4582 157.026 94.2459 157.18L94.3612 158.412H96.7541L96.8782 157.18C97.6649 157.023 98.416 156.723 99.0938 156.294L100.051 157.082L101.744 155.39L100.955 154.432C101.386 153.755 101.686 153.004 101.841 152.217L103.073 152.102V149.7L101.841 149.584C101.686 148.797 101.386 148.046 100.955 147.369L101.744 146.412L100.078 144.71L99.1204 145.508C98.4426 145.079 97.6915 144.778 96.9048 144.621L96.7807 143.381H94.3878L94.2725 144.621C93.4848 144.775 92.7331 145.076 92.0569 145.508L91.0908 144.71L89.4424 146.412L90.2311 147.369C89.7967 148.044 89.4958 148.796 89.3449 149.584L88.0332 149.7ZM95.5842 147.652C96.2283 147.651 96.8583 147.84 97.3946 148.197C97.9308 148.554 98.3491 149.062 98.5964 149.656C98.8437 150.251 98.9088 150.906 98.7836 151.537C98.6584 152.169 98.3484 152.75 97.893 153.205C97.4376 153.66 96.8572 153.97 96.2254 154.096C95.5937 154.221 94.939 154.156 94.3443 153.908C93.7496 153.661 93.2417 153.243 92.8849 152.707C92.5282 152.17 92.3387 151.54 92.3405 150.896C92.3428 150.037 92.6853 149.213 93.2931 148.605C93.9009 147.997 94.7246 147.655 95.5842 147.652Z" fill="#F5F5F5"/>
<path d="M89.5854 167.204C90.2156 167.076 90.8167 166.833 91.3579 166.486L92.1112 167.106L93.4406 165.777L92.8202 165.023C93.1674 164.482 93.4108 163.881 93.5381 163.251L94.5042 163.162V161.301L93.5381 161.212C93.4143 160.581 93.1706 159.979 92.8202 159.44L93.4406 158.686L92.1112 157.357L91.3579 157.977C90.8206 157.623 90.218 157.379 89.5854 157.26L89.4967 156.285H87.6178L87.5204 157.26C86.8877 157.379 86.2851 157.623 85.7478 157.977L85.0034 157.357L83.6739 158.686L84.2943 159.44C83.9374 159.977 83.6904 160.579 83.5676 161.212L82.6016 161.301V163.18L83.5676 163.268C83.6939 163.9 83.9407 164.502 84.2943 165.041L83.6739 165.794L85.0034 167.124L85.7478 166.503C86.289 166.85 86.8901 167.094 87.5204 167.221L87.6178 168.187H89.4967L89.5854 167.204ZM86.0403 162.258C86.0474 161.753 86.2039 161.262 86.4902 160.846C86.7765 160.43 87.1796 160.109 87.6487 159.922C88.1177 159.736 88.6315 159.692 89.1252 159.798C89.6189 159.903 90.0703 160.152 90.4222 160.514C90.7742 160.876 91.011 161.334 91.1026 161.831C91.1942 162.327 91.1365 162.839 90.9369 163.303C90.7373 163.767 90.4047 164.161 89.9811 164.436C89.5575 164.71 89.0621 164.853 88.5573 164.846C88.2188 164.847 87.8834 164.781 87.5708 164.651C87.2583 164.521 86.9748 164.33 86.7371 164.089C86.4994 163.848 86.3121 163.562 86.1864 163.247C86.0607 162.933 85.9989 162.597 86.0048 162.258H86.0403Z" fill="#F5F5F5"/>
<path d="M84.693 156.604L85.2159 157.233L86.5187 156.347L86.1199 155.629C86.4991 155.251 86.8003 154.802 87.0062 154.308L87.8215 154.388L88.114 152.837L87.3252 152.607C87.3151 152.077 87.207 151.554 87.0062 151.064L87.6354 150.542L86.7491 149.239L86.0313 149.629C85.654 149.249 85.2051 148.948 84.7107 148.742L84.7905 147.927L83.2395 147.652L83.0091 148.432C82.4787 148.441 81.955 148.552 81.467 148.76L80.9441 148.131L79.6413 149.017L80.0312 149.735C79.6552 150.115 79.3545 150.564 79.1449 151.056L78.3296 150.985L78.0371 152.536L78.817 152.757C78.8267 153.29 78.938 153.817 79.1449 154.308L78.5157 154.831L79.402 156.134L80.1198 155.735C80.5007 156.111 80.9486 156.411 81.4404 156.621L81.3695 157.437L82.9205 157.729L83.142 156.94C83.6752 156.924 84.2009 156.81 84.693 156.604ZM80.9618 152.288C81.0664 151.73 81.388 151.238 81.8559 150.918C82.3238 150.598 82.8996 150.477 83.4567 150.581C84.0137 150.686 84.5064 151.008 84.8264 151.476C85.1463 151.943 85.2673 152.519 85.1627 153.076C85.1109 153.352 85.0053 153.615 84.8519 153.85C84.6985 154.085 84.5003 154.288 84.2686 154.446C84.037 154.604 83.7764 154.716 83.5017 154.773C83.227 154.831 82.9437 154.834 82.6679 154.782C82.392 154.731 82.1291 154.625 81.8941 154.472C81.6591 154.318 81.4566 154.12 81.2981 153.888C81.1397 153.657 81.0285 153.396 80.9708 153.121C80.9131 152.847 80.91 152.563 80.9618 152.288Z" fill="#F5F5F5"/>
<path d="M126.099 246.489C126.099 246.489 128.279 266.111 128.988 268.451C129.697 270.791 139.685 283.287 139.685 283.287L136.858 284.767C136.858 284.767 126.223 273.831 124.53 270.587C122.837 267.343 120.303 250.415 120.303 250.415L126.099 246.489Z" fill="#EBB376"/>
<path d="M124.106 237.751C127.784 239.7 128.989 266.935 128.989 266.935L130.85 269.798L125.196 273.857C123.835 271.613 122.649 269.266 121.651 266.838C120.525 263.807 117.857 248.847 117.857 248.847L124.106 237.751Z" fill="#263238"/>
<path opacity="0.1" d="M124.106 237.751C127.784 239.7 128.989 266.935 128.989 266.935L130.85 269.798L125.196 273.857C123.835 271.613 122.649 269.266 121.651 266.838C120.525 263.807 117.857 248.847 117.857 248.847L124.106 237.751Z" fill="white"/>
<path d="M124.363 273.831L130.851 268.69L132.242 271.606L126.26 275.869L124.363 273.831Z" fill="#407BFF"/>
<path opacity="0.4" d="M124.363 273.831L130.851 268.69L132.242 271.606L126.26 275.869L124.363 273.831Z" fill="white"/>
<path d="M109.607 272.865L116.236 283.349C129.38 280.292 171.504 273.866 176.671 288.321C183.105 306.277 136.638 320.599 110.928 321.476C85.2168 322.354 64.5756 307.713 80.8387 270.224L109.607 272.865Z" fill="#407BFF"/>
<path opacity="0.2" d="M109.607 272.865L116.236 283.349C129.38 280.292 171.504 273.866 176.671 288.321C183.105 306.277 136.638 320.599 110.928 321.476C85.2168 322.354 64.5756 307.713 80.8387 270.224L109.607 272.865Z" fill="black"/>
<path d="M169.21 313.739C169.182 313.757 169.15 313.766 169.117 313.766C169.084 313.766 169.052 313.757 169.024 313.739C168.999 313.722 168.982 313.696 168.974 313.667C168.966 313.638 168.968 313.607 168.979 313.58C169.059 313.287 169.91 310.815 170.752 310.558C170.843 310.535 170.939 310.537 171.029 310.563C171.12 310.59 171.201 310.64 171.266 310.708C171.386 310.807 171.479 310.937 171.533 311.083C171.587 311.229 171.602 311.387 171.576 311.541C171.434 312.002 171.152 312.408 170.77 312.702C170.283 313.096 169.761 313.444 169.21 313.739ZM169.431 313.261C170.233 312.906 170.883 312.278 171.266 311.488C171.287 311.382 171.277 311.273 171.238 311.172C171.198 311.072 171.131 310.985 171.044 310.921C171.02 310.892 170.988 310.871 170.952 310.86C170.915 310.849 170.877 310.848 170.84 310.859C170.771 310.889 170.705 310.928 170.645 310.974C170.116 311.651 169.711 312.416 169.449 313.234L169.431 313.261Z" fill="#407BFF"/>
<path d="M169.209 313.739C169.181 313.753 169.15 313.756 169.12 313.748C169.091 313.74 169.066 313.721 169.049 313.695C168.969 313.624 167.782 312.126 167.977 311.116C167.999 310.99 168.047 310.871 168.117 310.764C168.187 310.657 168.278 310.566 168.384 310.496C168.474 310.41 168.591 310.357 168.715 310.345C168.839 310.334 168.963 310.365 169.067 310.434C169.696 310.868 169.616 312.88 169.315 313.633V313.713L169.209 313.739ZM168.535 310.806C168.43 310.898 168.358 311.023 168.331 311.16C168.363 311.916 168.64 312.641 169.12 313.225C169.315 312.339 169.253 310.965 168.89 310.708C168.89 310.708 168.774 310.629 168.588 310.762L168.535 310.806Z" fill="#407BFF"/>
<path d="M124.009 317.922C124.026 317.893 124.051 317.87 124.081 317.855C124.111 317.841 124.145 317.837 124.178 317.843C124.207 317.846 124.234 317.86 124.255 317.881C124.276 317.901 124.289 317.929 124.293 317.958C124.355 318.25 124.807 320.829 124.178 321.503C124.112 321.569 124.028 321.614 123.937 321.634C123.846 321.655 123.752 321.649 123.664 321.618C123.511 321.59 123.368 321.522 123.25 321.42C123.132 321.319 123.042 321.189 122.99 321.042C122.89 320.572 122.939 320.082 123.132 319.642C123.367 319.041 123.661 318.465 124.009 317.922ZM124.009 318.445C123.48 319.141 123.213 320.001 123.256 320.874C123.289 320.977 123.351 321.068 123.434 321.137C123.517 321.206 123.618 321.25 123.726 321.264C123.76 321.28 123.798 321.285 123.835 321.277C123.872 321.269 123.906 321.249 123.93 321.219C123.981 321.163 124.021 321.097 124.045 321.024C124.206 320.173 124.212 319.299 124.063 318.445H124.009Z" fill="#407BFF"/>
<path d="M140.858 304.912L130.276 308.679L125.197 310.487L126.5 316.053L131.419 314.998L143.437 312.437L140.858 304.912Z" fill="#EBB376"/>
<path d="M127.882 316.31L126.996 309.751C126.984 309.664 126.954 309.58 126.909 309.504C126.864 309.428 126.804 309.362 126.733 309.31C126.662 309.258 126.581 309.221 126.495 309.2C126.409 309.18 126.32 309.178 126.233 309.193L122.999 309.733C122.999 309.733 118.567 310.15 117.681 311.276C115.12 314.581 116.715 329.134 118.425 329.648C119.046 329.834 119.702 328.983 119.976 328.389C120.863 326.51 122.36 321.609 123.096 320.05C123.982 318.233 126.322 317.346 127.386 317.027C127.542 316.989 127.679 316.895 127.77 316.763C127.862 316.631 127.902 316.469 127.882 316.31Z" fill="#263238"/>
<path d="M124.054 317.869C124.077 317.854 124.105 317.847 124.133 317.847C124.162 317.847 124.189 317.854 124.213 317.869C124.319 317.869 126.083 318.632 126.402 319.642C126.48 319.889 126.458 320.156 126.34 320.386C126.303 320.505 126.227 320.609 126.124 320.679C126.021 320.75 125.897 320.784 125.773 320.776C125.02 320.697 124.107 318.897 124 318.118V318.038C123.992 318.008 123.992 317.976 124.002 317.946C124.011 317.916 124.029 317.889 124.054 317.869ZM126.065 320.121C126.109 319.985 126.109 319.839 126.065 319.704C125.862 319.084 124.878 318.534 124.373 318.286C124.621 319.128 125.356 320.333 125.8 320.378C125.8 320.378 125.932 320.378 126.03 320.191V320.121H126.065Z" fill="#407BFF"/>
<path opacity="0.2" d="M140.857 304.912L130.275 308.679L131.419 314.998L143.436 312.437L140.857 304.912Z" fill="black"/>
<path d="M133.287 315.955L136.336 316.168L134.297 305.701L130.85 307.615L133.287 315.955Z" fill="#407BFF"/>
<path opacity="0.6" d="M133.287 315.955L136.336 316.168L134.297 305.701L130.85 307.615L133.287 315.955Z" fill="white"/>
<path opacity="0.2" d="M89.1602 275.275L105.007 292.85C105.007 292.85 122.528 292.46 143.799 302.856C143.799 302.856 166.62 293.426 168.721 285.592C171.468 275.329 116.236 283.349 116.236 283.349L89.1602 275.275Z" fill="black"/>
<path d="M163.484 287.683V290.289C163.484 290.953 162.695 291.228 162.039 291.228H110.006C109.342 291.228 108.535 290.953 108.535 290.289V287.683H163.484Z" fill="#263238"/>
<path opacity="0.4" d="M163.484 287.683V290.289C163.484 290.953 162.695 291.228 162.039 291.228H110.006C109.342 291.228 108.535 290.953 108.535 290.289V287.683H163.484Z" fill="white"/>
<path opacity="0.2" d="M163.483 287.683V290.289C163.483 290.953 162.694 291.228 162.038 291.228H127.722C127.057 291.228 126.26 290.953 126.26 290.289V287.683H163.483Z" fill="black"/>
<path d="M172.187 260.652L165.983 288.747C165.869 289.196 165.61 289.596 165.247 289.884C164.883 290.172 164.435 290.333 163.971 290.342H130.151C129.94 290.338 129.732 290.285 129.544 290.187C129.356 290.088 129.195 289.947 129.071 289.775C128.948 289.602 128.867 289.404 128.834 289.194C128.802 288.985 128.819 288.771 128.884 288.569L135.088 260.687C135.213 260.263 135.48 259.895 135.845 259.644C136.21 259.394 136.65 259.277 137.091 259.314H170.929C171.868 259.322 172.391 259.739 172.187 260.652Z" fill="#263238"/>
<path opacity="0.4" d="M172.187 260.652L165.983 288.747C165.869 289.196 165.61 289.596 165.246 289.884C164.883 290.172 164.435 290.333 163.971 290.342H131.303C131.091 290.337 130.883 290.284 130.695 290.185C130.508 290.087 130.345 289.946 130.221 289.775C130.096 289.603 130.013 289.405 129.978 289.196C129.943 288.987 129.957 288.772 130.018 288.569L136.222 260.687C136.35 260.273 136.614 259.913 136.97 259.665C137.327 259.418 137.756 259.297 138.19 259.322H170.875C171.868 259.322 172.391 259.739 172.187 260.652Z" fill="white"/>
<path opacity="0.2" d="M155.508 274.93C155.508 277.34 152.929 279.29 151.077 279.29C149.224 279.29 148.063 277.34 148.604 274.93C149.145 272.519 151.023 270.649 152.876 270.578C152.335 272.989 153.487 274.93 155.375 274.93C155.419 274.933 155.464 274.933 155.508 274.93Z" fill="black"/>
<path d="M148.203 316.948L159.281 318.773L164.599 319.651L166.15 314.156L161.338 312.685L149.586 309.113L148.203 316.948Z" fill="#EBB376"/>
<path d="M165.069 313.252L162.676 319.456C162.638 319.539 162.618 319.629 162.617 319.721C162.616 319.812 162.635 319.903 162.672 319.987C162.709 320.07 162.763 320.145 162.831 320.207C162.899 320.268 162.979 320.314 163.066 320.342L166.159 321.432C166.159 321.432 170.21 323.205 171.521 322.637C175.359 320.989 181.004 307.473 179.764 306.206C179.312 305.736 178.319 306.206 177.796 306.552C176.13 307.775 172.425 311.338 171.034 312.339C169.394 313.509 166.895 313.145 165.814 312.915C165.67 312.875 165.517 312.887 165.381 312.949C165.245 313.01 165.134 313.117 165.069 313.252Z" fill="#263238"/>
<path opacity="0.2" d="M148.203 316.948L159.281 318.773L161.338 312.685L149.586 309.113L148.203 316.948Z" fill="black"/>
<path d="M159.459 311.541C159.459 311.541 114.259 286.141 98.696 286.868C83.1331 287.594 80.8554 301.332 87.2897 309.911C93.724 318.49 105.6 320.599 105.6 320.599C105.6 320.599 97.5084 309.175 98.6782 305.958C99.8481 302.741 104.421 307.234 104.421 307.234C104.421 307.234 132.817 316.398 157.686 318.543L159.459 311.541Z" fill="#407BFF"/>
<path d="M160.161 310.841L157.608 309.122L154.32 319.217H158.264L160.161 310.841Z" fill="#407BFF"/>
<path opacity="0.6" d="M160.161 310.841L157.608 309.122L154.32 319.217H158.264L160.161 310.841Z" fill="white"/>
<path d="M80.8379 270.224L109.615 272.882C109.615 272.882 114.126 263.541 117.591 259.898C121.057 256.256 124.114 237.742 124.114 237.742C121.774 236.609 119.365 235.627 116.9 234.799C109.801 232.419 102.372 231.169 94.8853 231.095H94.7612C92.6164 231.095 91.3756 231.201 91.3756 231.201C90.5042 231.789 89.7991 232.592 89.3284 233.532C86.2441 238.85 83.7892 251.257 82.3357 260.164C81.3519 265.925 80.8379 270.224 80.8379 270.224Z" fill="#263238"/>
<path opacity="0.2" d="M82.293 260.173C88.6387 257.266 97.2975 252.348 96.8455 247.358C96.3581 241.881 91.9179 236.368 89.2856 233.541C86.2014 238.859 83.7465 251.266 82.293 260.173Z" fill="black"/>
<path d="M96.2852 231.13C96.2852 231.13 99.5644 241.925 108.533 243.095C117.502 244.265 118.991 235.562 118.991 235.562C118.991 235.562 107.443 229.225 96.2852 231.13Z" fill="#263238"/>
<path opacity="0.1" d="M96.2852 231.13C96.2852 231.13 99.5644 241.925 108.533 243.095C117.502 244.265 118.991 235.562 118.991 235.562C118.991 235.562 107.443 229.225 96.2852 231.13Z" fill="white"/>
<path d="M98.166 231.432C98.166 231.432 102.394 241.429 110.015 241.429C117.637 241.429 117.877 235.819 117.877 235.819C117.877 235.819 110.255 230.82 98.166 231.432Z" fill="#407BFF"/>
<path opacity="0.4" d="M98.166 231.432C98.166 231.432 102.394 241.429 110.015 241.429C117.637 241.429 117.877 235.819 117.877 235.819C117.877 235.819 110.255 230.82 98.166 231.432Z" fill="white"/>
<path d="M111.964 232.991C112.018 234.764 113.037 235.207 113.037 235.207C113.125 235.756 113.086 236.318 112.923 236.849C112.76 237.381 112.477 237.868 112.096 238.273C111.715 238.678 111.246 238.99 110.725 239.185C110.205 239.38 109.646 239.453 109.093 239.399C103.447 238.823 101.666 232.025 101.666 232.025C105.769 230.394 106.691 225.866 106.868 223.163C106.918 222.46 106.918 221.755 106.868 221.053L114.544 225.883C113.895 226.962 113.324 228.084 112.833 229.242C112.294 230.421 111.998 231.696 111.964 232.991Z" fill="#EBB376"/>
<path opacity="0.2" d="M114.074 225.29C113.539 226.439 113.083 227.623 112.709 228.835C112.294 230.057 112.131 231.35 112.231 232.637C107.914 232.974 106.195 223.446 106.195 223.446V223.384C106.176 222.68 106.105 221.978 105.982 221.284L114.074 225.29Z" fill="black"/>
<path d="M118.984 204.002C118.984 204.002 124.62 197.514 117.876 192.081C111.131 186.648 97.8108 189.094 95.3558 201.369C92.9009 213.644 96.2421 218.829 96.2421 218.829C96.2421 218.829 96.2421 211.012 98.4932 208.734C98.4932 208.734 97.8197 212.474 98.4932 214.717C99.1668 216.959 98.4932 215.541 98.4932 215.541C98.4932 215.541 100.567 205.747 110.564 208.557C120.561 211.366 118.984 204.002 118.984 204.002Z" fill="#263238"/>
<path d="M120.331 206.111C127.758 208.38 128.937 213.077 127.146 220.894C124.913 230.643 120.721 236.847 112.08 231.937C100.292 225.316 108.003 202.353 120.331 206.111Z" fill="#EBB376"/>
<path d="M122.475 219.015C122.728 220.306 123.136 221.562 123.689 222.755C123.38 222.996 123.01 223.146 122.621 223.19C122.231 223.234 121.837 223.169 121.482 223.003L122.475 219.015Z" fill="#D58745"/>
<path d="M118.116 217.03C117.939 217.641 117.469 218.049 117.061 217.916C116.654 217.783 116.459 217.207 116.627 216.595C116.795 215.984 117.274 215.576 117.682 215.709C118.089 215.842 118.284 216.409 118.116 217.03Z" fill="#263238"/>
<path d="M117.504 215.691L118.984 215.541C118.984 215.541 118.009 216.48 117.504 215.691Z" fill="#263238"/>
<path d="M125.781 219.033C125.612 219.644 125.143 220.052 124.735 219.919C124.327 219.786 124.132 219.21 124.301 218.598C124.469 217.987 124.948 217.579 125.355 217.712C125.763 217.845 125.958 218.421 125.781 219.033Z" fill="#263238"/>
<path d="M125.18 217.694L126.66 217.544C126.66 217.544 125.676 218.483 125.18 217.694Z" fill="#263238"/>
<path d="M116.032 212.341C115.964 212.338 115.899 212.314 115.845 212.272C115.791 212.23 115.752 212.173 115.732 212.107C115.713 212.042 115.714 211.972 115.736 211.908C115.758 211.843 115.8 211.787 115.855 211.748C116.443 211.419 117.1 211.234 117.773 211.206C118.445 211.179 119.115 211.309 119.728 211.588C119.804 211.623 119.863 211.686 119.893 211.764C119.923 211.842 119.921 211.928 119.888 212.005C119.871 212.044 119.847 212.08 119.817 212.109C119.786 212.139 119.75 212.163 119.711 212.179C119.671 212.194 119.628 212.202 119.586 212.201C119.543 212.2 119.501 212.19 119.462 212.173C118.947 211.944 118.387 211.835 117.824 211.854C117.261 211.872 116.709 212.018 116.21 212.279C116.16 212.32 116.097 212.342 116.032 212.341Z" fill="#263238"/>
<path d="M127.863 215.044C127.816 215.043 127.77 215.032 127.727 215.012C127.685 214.993 127.646 214.964 127.615 214.929C127.331 214.52 126.958 214.182 126.523 213.939C126.088 213.696 125.604 213.556 125.107 213.529C125.023 213.531 124.941 213.502 124.878 213.445C124.816 213.389 124.777 213.311 124.77 213.228C124.768 213.186 124.774 213.144 124.787 213.104C124.801 213.064 124.823 213.028 124.851 212.997C124.879 212.965 124.913 212.94 124.951 212.922C124.988 212.904 125.029 212.893 125.071 212.891C125.669 212.907 126.255 213.063 126.782 213.344C127.31 213.626 127.765 214.026 128.111 214.513C128.172 214.574 128.206 214.657 128.206 214.743C128.206 214.829 128.172 214.912 128.111 214.973C128.077 215.001 128.037 215.021 127.994 215.034C127.952 215.046 127.907 215.049 127.863 215.044Z" fill="#263238"/>
<path d="M108.401 216.152C108.401 216.152 113.719 211.109 114.605 206.244C114.605 206.244 131.152 204.719 127.323 219.874C127.323 219.874 132.809 207.05 120.135 202.867C107.462 198.684 101.851 217.366 106.753 224.935C106.753 224.935 105.095 219.307 108.401 216.152Z" fill="#263238"/>
<path d="M119.771 226.344C118.782 226.354 117.824 226.007 117.07 225.367C116.317 224.728 115.819 223.838 115.667 222.861C115.66 222.776 115.685 222.691 115.737 222.623C115.79 222.556 115.866 222.511 115.951 222.498C116.035 222.49 116.119 222.516 116.185 222.568C116.251 222.621 116.294 222.698 116.306 222.782C116.429 223.61 116.851 224.365 117.493 224.904C118.134 225.443 118.951 225.728 119.789 225.706C119.873 225.706 119.954 225.74 120.014 225.8C120.074 225.86 120.108 225.941 120.108 226.025C120.108 226.11 120.074 226.191 120.014 226.251C119.954 226.311 119.873 226.344 119.789 226.344H119.771Z" fill="#263238"/>
<path d="M107.115 214.663C107.104 214.712 107.109 214.762 107.13 214.807C107.151 214.852 107.186 214.889 107.23 214.912H107.284L114.844 216.684C114.722 217.403 114.843 218.141 115.188 218.783C115.533 219.425 116.083 219.934 116.749 220.229C117.616 220.661 118.61 220.759 119.545 220.506C120.479 220.253 121.288 219.665 121.818 218.855C121.911 218.698 121.989 218.532 122.049 218.359C122.184 218.249 122.34 218.166 122.507 218.118C122.675 218.069 122.851 218.055 123.024 218.075C123.118 218.117 123.202 218.18 123.269 218.258C123.337 218.336 123.386 218.428 123.414 218.528C123.311 219.237 123.442 219.961 123.787 220.59C124.133 221.218 124.674 221.717 125.328 222.011C126.196 222.439 127.191 222.535 128.125 222.281C129.059 222.026 129.867 221.438 130.398 220.628C130.626 220.234 130.768 219.795 130.814 219.342C130.861 218.888 130.81 218.43 130.666 217.998C130.522 217.565 130.287 217.169 129.978 216.834C129.669 216.499 129.293 216.233 128.873 216.055C128.007 215.623 127.012 215.525 126.077 215.778C125.143 216.031 124.334 216.618 123.804 217.429C123.711 217.586 123.634 217.752 123.573 217.925C123.467 217.814 123.336 217.73 123.192 217.677C122.862 217.592 122.513 217.63 122.208 217.783C122.328 217.063 122.204 216.325 121.858 215.683C121.511 215.041 120.961 214.533 120.294 214.238C119.427 213.806 118.433 213.708 117.498 213.961C116.564 214.214 115.755 214.802 115.225 215.612C115.104 215.819 115.006 216.039 114.932 216.267L107.408 214.495C107.347 214.479 107.282 214.487 107.227 214.519C107.172 214.55 107.132 214.602 107.115 214.663ZM124.22 217.597C124.684 216.89 125.391 216.377 126.208 216.155C127.024 215.933 127.893 216.017 128.652 216.392C129.018 216.548 129.348 216.781 129.618 217.075C129.888 217.369 130.093 217.717 130.218 218.095C130.344 218.474 130.388 218.875 130.347 219.272C130.306 219.669 130.181 220.052 129.981 220.398C129.517 221.105 128.809 221.617 127.993 221.838C127.176 222.058 126.307 221.971 125.55 221.594C125.183 221.438 124.854 221.206 124.584 220.913C124.314 220.62 124.109 220.273 123.983 219.895C123.858 219.517 123.814 219.117 123.855 218.721C123.895 218.324 124.02 217.941 124.22 217.597ZM115.641 215.824C116.105 215.117 116.812 214.604 117.628 214.382C118.445 214.16 119.314 214.244 120.073 214.619C120.439 214.776 120.769 215.009 121.039 215.303C121.309 215.596 121.514 215.944 121.639 216.323C121.765 216.701 121.809 217.102 121.768 217.499C121.727 217.896 121.602 218.28 121.402 218.625C120.939 219.334 120.232 219.848 119.415 220.07C118.599 220.292 117.729 220.207 116.971 219.83C116.603 219.672 116.274 219.439 116.004 219.144C115.734 218.85 115.529 218.501 115.403 218.122C115.278 217.742 115.234 217.341 115.275 216.943C115.316 216.546 115.441 216.161 115.641 215.816V215.824Z" fill="#263238"/>
<g opacity="0.3">
<path d="M107.115 214.663C107.104 214.712 107.109 214.762 107.13 214.807C107.151 214.852 107.186 214.889 107.23 214.912H107.284L114.844 216.684C114.722 217.403 114.843 218.141 115.188 218.783C115.533 219.425 116.083 219.934 116.749 220.229C117.616 220.661 118.61 220.759 119.545 220.506C120.479 220.253 121.288 219.665 121.818 218.855C121.911 218.698 121.989 218.532 122.049 218.359C122.184 218.249 122.34 218.166 122.507 218.118C122.675 218.069 122.851 218.055 123.024 218.075C123.118 218.117 123.202 218.18 123.269 218.258C123.337 218.336 123.386 218.428 123.414 218.528C123.311 219.237 123.442 219.961 123.787 220.59C124.133 221.218 124.674 221.717 125.328 222.011C126.196 222.439 127.191 222.535 128.125 222.281C129.059 222.026 129.867 221.438 130.398 220.628C130.626 220.234 130.768 219.795 130.814 219.342C130.861 218.888 130.81 218.43 130.666 217.998C130.522 217.565 130.287 217.169 129.978 216.834C129.669 216.499 129.293 216.233 128.873 216.055C128.007 215.623 127.012 215.525 126.077 215.778C125.143 216.031 124.334 216.618 123.804 217.429C123.711 217.586 123.634 217.752 123.573 217.925C123.467 217.814 123.336 217.73 123.192 217.677C122.862 217.592 122.513 217.63 122.208 217.783C122.328 217.063 122.204 216.325 121.858 215.683C121.511 215.041 120.961 214.533 120.294 214.238C119.427 213.806 118.433 213.708 117.498 213.961C116.564 214.214 115.755 214.802 115.225 215.612C115.104 215.819 115.006 216.039 114.932 216.267L107.408 214.495C107.347 214.479 107.282 214.487 107.227 214.519C107.172 214.55 107.132 214.602 107.115 214.663ZM124.22 217.597C124.684 216.89 125.391 216.377 126.208 216.155C127.024 215.933 127.893 216.017 128.652 216.392C129.018 216.548 129.348 216.781 129.618 217.075C129.888 217.369 130.093 217.717 130.218 218.095C130.344 218.474 130.388 218.875 130.347 219.272C130.306 219.669 130.181 220.052 129.981 220.398C129.517 221.105 128.809 221.617 127.993 221.838C127.176 222.058 126.307 221.971 125.55 221.594C125.183 221.438 124.854 221.206 124.584 220.913C124.314 220.62 124.109 220.273 123.983 219.895C123.858 219.517 123.814 219.117 123.855 218.721C123.895 218.324 124.02 217.941 124.22 217.597ZM115.641 215.824C116.105 215.117 116.812 214.604 117.628 214.382C118.445 214.16 119.314 214.244 120.073 214.619C120.439 214.776 120.769 215.009 121.039 215.303C121.309 215.596 121.514 215.944 121.639 216.323C121.765 216.701 121.809 217.102 121.768 217.499C121.727 217.896 121.602 218.28 121.402 218.625C120.939 219.334 120.232 219.848 119.415 220.07C118.599 220.292 117.729 220.207 116.971 219.83C116.603 219.672 116.274 219.439 116.004 219.144C115.734 218.85 115.529 218.501 115.403 218.122C115.278 217.742 115.234 217.341 115.275 216.943C115.316 216.546 115.441 216.161 115.641 215.816V215.824Z" fill="white"/>
</g>
<path d="M109.137 218.084C109.327 217.204 109.16 216.285 108.673 215.527C108.187 214.77 107.42 214.236 106.54 214.043C104.165 213.591 101.622 217.978 107.001 220.858C107.772 221.275 108.481 220.61 109.137 218.084Z" fill="#EBB376"/>
<path d="M94.761 240.906C94.761 240.906 95.6473 259.854 97.2514 264.108C98.8556 268.362 115.588 284.032 115.588 284.032C115.588 284.032 120.259 282.995 121.03 283.296C121.801 283.597 126.259 287.727 126.259 287.727H113.373L112.247 285.742C112.247 285.742 94.9294 272.909 93.0239 269.851C91.6148 267.591 87.0859 244.575 87.0859 244.575L94.761 240.906Z" fill="#EBB376"/>
<path d="M91.3336 231.21C94.338 229.65 95.7649 234.675 97.5995 244.841C98.6907 251.266 99.192 257.778 99.0973 264.294L101.667 268.859L95.18 274.832C92.1295 271.886 89.7924 268.281 88.3469 264.294C86.3439 258.179 80.8224 236.696 91.3336 231.21Z" fill="#263238"/>
<path opacity="0.1" d="M91.3336 231.21C94.338 229.65 95.7649 234.675 97.5995 244.841C98.6907 251.266 99.192 257.778 99.0973 264.294L101.667 268.859L95.18 274.832C92.1295 271.886 89.7924 268.281 88.3469 264.294C86.3439 258.179 80.8224 236.696 91.3336 231.21Z" fill="white"/>
<path d="M93.4863 274.832L101.667 267.52L103.599 270.223L96.2869 277.402L93.4863 274.832Z" fill="#407BFF"/>
<path opacity="0.4" d="M93.4863 274.832L101.667 267.52L103.599 270.223L96.2869 277.402L93.4863 274.832Z" fill="white"/>
</svg>
