<svg width="387" height="289" viewBox="0 0 387 289" fill="none" xmlns="http://www.w3.org/2000/svg">
<path d="M386.768 253.256H0V253.449H386.768V253.256Z" fill="#EBEBEB"/>
<path d="M244.183 258.523H224.488V258.717H244.183V258.523Z" fill="#EBEBEB"/>
<path d="M352.298 262.708H305.631V262.902H352.298V262.708Z" fill="#EBEBEB"/>
<path d="M220.295 258.616H172.08V258.81H220.295V258.616Z" fill="#EBEBEB"/>
<path d="M140.813 264.402H130.727V264.596H140.813V264.402Z" fill="#EBEBEB"/>
<path d="M196.548 264.402H150.615V264.596H196.548V264.402Z" fill="#EBEBEB"/>
<path d="M70.3225 261.138H40.5801V261.331H70.3225V261.138Z" fill="#EBEBEB"/>
<path d="M183.328 218.756H33.9658C32.7957 218.754 31.6742 218.288 30.8476 217.459C30.0209 216.631 29.5566 215.509 29.5566 214.339V4.37821C29.5668 3.21483 30.0356 2.10245 30.8612 1.28269C31.6867 0.462929 32.8024 0.00199293 33.9658 0H183.328C184.499 0 185.623 0.46535 186.451 1.29368C187.279 2.122 187.745 3.24546 187.745 4.41689V214.339C187.745 215.51 187.279 216.634 186.451 217.462C185.623 218.291 184.499 218.756 183.328 218.756ZM33.9658 0.154708C32.847 0.156757 31.7747 0.602635 30.9843 1.39447C30.1939 2.18631 29.75 3.25941 29.75 4.37821V214.339C29.75 215.458 30.1939 216.531 30.9843 217.323C31.7747 218.115 32.847 218.56 33.9658 218.562H183.328C184.447 218.56 185.52 218.115 186.312 217.323C187.104 216.532 187.549 215.459 187.551 214.339V4.37821C187.549 3.2587 187.104 2.18562 186.312 1.394C185.52 0.602383 184.447 0.156753 183.328 0.154708H33.9658Z" fill="#EBEBEB"/>
<path d="M350.652 218.756H201.282C200.111 218.754 198.989 218.288 198.161 217.46C197.333 216.632 196.867 215.51 196.865 214.339V4.37821C196.877 3.21413 197.348 2.10176 198.175 1.28221C199.002 0.462658 200.118 0.00197119 201.282 0H350.652C351.814 0.00402586 352.928 0.465861 353.751 1.28541C354.575 2.10495 355.043 3.21617 355.053 4.37821V214.339C355.053 215.508 354.59 216.629 353.765 217.457C352.94 218.285 351.821 218.752 350.652 218.756ZM201.282 0.154708C200.163 0.156753 199.09 0.602383 198.298 1.394C197.506 2.18562 197.061 3.2587 197.059 4.37821V214.339C197.061 215.459 197.506 216.532 198.298 217.323C199.09 218.115 200.163 218.56 201.282 218.562H350.652C351.771 218.56 352.844 218.115 353.636 217.323C354.428 216.532 354.873 215.459 354.875 214.339V4.37821C354.873 3.2587 354.428 2.18562 353.636 1.394C352.844 0.602383 351.771 0.156753 350.652 0.154708H201.282Z" fill="#EBEBEB"/>
<path d="M93.3043 155.922C93.3043 155.922 92.964 165.978 79.6746 165.978C66.3853 165.978 66.0449 155.922 66.0449 155.922H93.3043Z" fill="#F0F0F0"/>
<path d="M125.521 155.922C125.521 155.922 125.173 165.978 111.891 165.978C98.6098 165.978 98.2617 155.922 98.2617 155.922H125.521Z" fill="#F0F0F0"/>
<path d="M85.6841 172.615H55.1836V246.402H85.6841V172.615Z" fill="#F0F0F0"/>
<path d="M159.673 246.402H61.0391V253.256H159.673V246.402Z" fill="#F0F0F0"/>
<path d="M85.6849 246.41H165.529V172.622H85.6849L85.6849 246.41Z" fill="#F5F5F5"/>
<path d="M97.682 204.299H153.539V181.595H97.682V204.299Z" fill="#F0F0F0"/>
<path d="M97.682 233.469H153.539V210.765H97.682V233.469Z" fill="#F0F0F0"/>
<path d="M169.589 166.001H85.6836V172.614H169.589V166.001Z" fill="#F0F0F0"/>
<path d="M50.9209 172.622H85.6836V166.009H50.9209V172.622Z" fill="#E6E6E6"/>
<path d="M303.303 16.2134H147.861V127.804H303.303V16.2134Z" fill="#FAFAFA"/>
<path d="M156.703 127.804L196.246 16.2134H225.919L186.376 127.804H156.703Z" fill="white"/>
<path d="M236.492 127.804L276.028 16.2134H286.849L247.314 127.804H236.492Z" fill="white"/>
<path d="M310.713 12.3765H140.45C140.267 12.3765 140.091 12.4487 139.961 12.5776C139.83 12.7065 139.756 12.8816 139.754 13.0649C139.754 13.1563 139.772 13.2469 139.807 13.3313C139.842 13.4158 139.893 13.4925 139.958 13.5572C140.022 13.6218 140.099 13.6731 140.184 13.7081C140.268 13.7431 140.359 13.7611 140.45 13.7611H310.713C310.804 13.7611 310.895 13.7431 310.979 13.7081C311.064 13.6731 311.141 13.6218 311.205 13.5572C311.27 13.4925 311.321 13.4158 311.356 13.3313C311.391 13.2469 311.409 13.1563 311.409 13.0649C311.407 12.8816 311.333 12.7065 311.203 12.5776C311.072 12.4487 310.896 12.3765 310.713 12.3765Z" fill="#E0E0E0"/>
<path d="M224.665 128.043H226.506V15.9736H224.665V128.043Z" fill="#F0F0F0"/>
<path d="M226.499 128.043H227.42V15.9736H226.499V128.043Z" fill="#E0E0E0"/>
<path d="M146.787 71.0957V72.9368L304.38 72.9368V71.0957L146.787 71.0957Z" fill="#F0F0F0"/>
<path d="M304.38 127.038V15.1379H146.787V127.038V128.879H304.38V127.038ZM148.628 127.038V17.0176H302.562V127.038H148.628Z" fill="#F0F0F0"/>
<path d="M304.378 128.879H305.299V15.138H304.378V128.879Z" fill="#E0E0E0"/>
<path opacity="0.5" d="M281.527 10.6902V141.735H314.797L308.694 10.6902H281.527Z" fill="#EBEBEB"/>
<path opacity="0.5" d="M170.557 10.6902V141.735H137.287L143.39 10.6902H170.557Z" fill="#EBEBEB"/>
<path d="M355.092 159.093H191.752V186.02H355.092V159.093Z" fill="#EBEBEB"/>
<path d="M353.119 160.694H293.031V184.419H353.119V160.694Z" fill="#F5F5F5"/>
<path d="M290.895 160.694H230.807V184.419H290.895V160.694Z" fill="#F5F5F5"/>
<path d="M224.898 253.255H221.293L229.005 186.02H232.61L224.898 253.255Z" fill="#F5F5F5"/>
<path d="M193.128 253.255H189.516L197.228 186.02H200.84L193.128 253.255Z" fill="#F5F5F5"/>
<path d="M321.939 253.255H325.551L317.839 186.02H314.227L321.939 253.255Z" fill="#F5F5F5"/>
<path d="M353.706 253.255H357.319L349.607 186.02H345.994L353.706 253.255Z" fill="#F5F5F5"/>
<path d="M270.56 129.436H257.928L252.668 159.093H265.3L270.56 129.436Z" fill="#E0E0E0"/>
<path d="M298.655 103.654H228.008L230.158 146.631H300.805L298.655 103.654Z" fill="#E6E6E6"/>
<path d="M297.03 104.675H229.732L231.782 145.61H299.08L297.03 104.675Z" fill="#FAFAFA"/>
<path d="M316.484 155.504H317.853C318.161 155.504 318.41 155.255 318.41 154.947V154.916C318.41 154.608 318.161 154.359 317.853 154.359H316.484C316.176 154.359 315.927 154.608 315.927 154.916V154.947C315.927 155.255 316.176 155.504 316.484 155.504Z" fill="#E0E0E0"/>
<path d="M343.365 105.773L328.049 121.089C326.018 119.058 324.877 116.304 324.877 113.431C324.877 110.559 326.018 107.804 328.049 105.773C330.08 103.742 332.835 102.601 335.707 102.601C338.579 102.601 341.334 103.742 343.365 105.773Z" fill="#E6E6E6"/>
<path d="M322.092 107.521L328.064 113.493L335.799 105.758L329.827 99.7938C329.32 99.2849 328.717 98.8811 328.054 98.6056C327.39 98.33 326.678 98.1882 325.96 98.1882C325.241 98.1882 324.529 98.33 323.866 98.6056C323.202 98.8811 322.599 99.2849 322.092 99.7938C321.584 100.301 321.181 100.903 320.907 101.566C320.632 102.229 320.49 102.94 320.49 103.658C320.49 104.375 320.632 105.086 320.907 105.749C321.181 106.412 321.584 107.014 322.092 107.521Z" fill="#E6E6E6"/>
<path d="M295.696 124.272L296.609 125.185L322.098 99.6961L321.185 98.7827L295.696 124.272Z" fill="#E6E6E6"/>
<path d="M313.869 156.188L314.98 155.53L296.593 124.525L295.482 125.184L313.869 156.188Z" fill="#E6E6E6"/>
<path d="M322.093 102.052C323.323 102.052 324.321 101.055 324.321 99.8247C324.321 98.5943 323.323 97.5969 322.093 97.5969C320.863 97.5969 319.865 98.5943 319.865 99.8247C319.865 101.055 320.863 102.052 322.093 102.052Z" fill="#E6E6E6"/>
<path d="M296.124 126.179C296.911 126.179 297.548 125.542 297.548 124.756C297.548 123.97 296.911 123.333 296.124 123.333C295.338 123.333 294.701 123.97 294.701 124.756C294.701 125.542 295.338 126.179 296.124 126.179Z" fill="#E6E6E6"/>
<path d="M308.834 154.924H319.331L320.158 159.093H308.014L308.834 154.924Z" fill="#E6E6E6"/>
<path d="M193.383 288.188C276.215 288.188 343.364 284.268 343.364 279.432C343.364 274.596 276.215 270.676 193.383 270.676C110.551 270.676 43.4023 274.596 43.4023 279.432C43.4023 284.268 110.551 288.188 193.383 288.188Z" fill="#F5F5F5"/>
<path d="M265.561 152.224H81.0345C78.5582 152.205 76.1855 151.228 74.4144 149.497C72.6432 147.766 71.6114 145.417 71.5355 142.942L69.1143 38.4214C69.0833 37.2122 69.295 36.009 69.7369 34.883C70.1788 33.757 70.8419 32.731 71.687 31.8657C72.5322 31.0003 73.5422 30.3132 74.6575 29.8448C75.7727 29.3765 76.9705 29.1365 78.1801 29.1389H262.707C265.183 29.1578 267.556 30.1351 269.327 31.8659C271.098 33.5966 272.13 35.9462 272.206 38.4214L274.604 142.942C274.635 144.149 274.424 145.35 273.984 146.474C273.543 147.599 272.882 148.624 272.039 149.489C271.197 150.354 270.189 151.042 269.077 151.511C267.964 151.981 266.769 152.223 265.561 152.224Z" fill="#407BFF"/>
<path d="M265.562 152.611H81.0348C78.4601 152.592 75.993 151.575 74.1522 149.775C72.3115 147.975 71.2405 145.531 71.1645 142.957L68.7279 38.4292C68.6947 37.1683 68.9149 35.9135 69.3754 34.7392C69.8359 33.5649 70.5273 32.495 71.4087 31.5926C72.2901 30.6903 73.3435 29.974 74.5067 29.4862C75.6699 28.9983 76.9191 28.7487 78.1805 28.7522H262.707C265.286 28.7672 267.758 29.783 269.603 31.5854C271.447 33.3878 272.519 35.836 272.593 38.4137L275.014 142.934C275.047 144.195 274.827 145.45 274.367 146.624C273.906 147.798 273.215 148.868 272.334 149.77C271.452 150.673 270.399 151.389 269.236 151.877C268.072 152.365 266.823 152.614 265.562 152.611ZM78.1805 29.5258C77.022 29.5222 75.8746 29.7513 74.8063 30.1994C73.738 30.6474 72.7706 31.3053 71.9612 32.1342C71.1518 32.963 70.5171 33.9459 70.0946 35.0245C69.672 36.1032 69.4703 37.2557 69.5014 38.4137L71.938 142.934C72.0062 145.31 72.9946 147.566 74.6946 149.227C76.3947 150.888 78.6735 151.824 81.0503 151.837H265.562C266.719 151.84 267.865 151.61 268.933 151.162C270 150.714 270.967 150.057 271.776 149.229C272.585 148.401 273.22 147.42 273.643 146.343C274.067 145.265 274.27 144.114 274.241 142.957L271.82 38.4292C271.751 36.0533 270.763 33.7968 269.063 32.1357C267.363 30.4746 265.084 29.5388 262.707 29.5258H78.1805Z" fill="#407BFF"/>
<path d="M267.108 152.224H82.5814C80.1051 152.205 77.7324 151.228 75.9612 149.497C74.1901 147.766 73.1583 145.417 73.0823 142.942L70.6612 38.4214C70.6302 37.2122 70.8419 36.009 71.2837 34.883C71.7256 33.757 72.3887 32.731 73.2339 31.8657C74.0791 31.0003 75.0891 30.3132 76.2044 29.8448C77.3196 29.3765 78.5174 29.1365 79.727 29.1389H264.254C266.73 29.1578 269.103 30.1351 270.874 31.8659C272.645 33.5966 273.677 35.9462 273.753 38.4214L276.151 142.942C276.182 144.149 275.971 145.35 275.53 146.474C275.09 147.599 274.429 148.624 273.586 149.489C272.744 150.354 271.736 151.042 270.624 151.511C269.511 151.981 268.316 152.223 267.108 152.224Z" fill="#F5F5F5"/>
<path d="M267.109 152.611H82.5817C80.007 152.592 77.5398 151.575 75.6991 149.775C73.8584 147.975 72.7874 145.531 72.7114 142.957L70.2747 38.4292C70.2416 37.1683 70.4618 35.9135 70.9223 34.7392C71.3828 33.5649 72.0742 32.495 72.9556 31.5926C73.837 30.6903 74.8904 29.974 76.0536 29.4862C77.2168 28.9983 78.466 28.7487 79.7273 28.7522H264.254C266.833 28.7672 269.305 29.783 271.149 31.5854C272.994 33.3878 274.066 35.836 274.14 38.4137L276.561 142.934C276.594 144.195 276.374 145.45 275.914 146.624C275.453 147.798 274.762 148.868 273.88 149.77C272.999 150.673 271.946 151.389 270.782 151.877C269.619 152.365 268.37 152.614 267.109 152.611ZM79.7273 29.5258C78.5689 29.5222 77.4215 29.7513 76.3532 30.1994C75.2849 30.6474 74.3174 31.3053 73.5081 32.1342C72.6987 32.963 72.064 33.9459 71.6414 35.0245C71.2189 36.1032 71.0172 37.2557 71.0483 38.4137L73.4849 142.934C73.5531 145.31 74.5414 147.566 76.2415 149.227C77.9415 150.888 80.2203 151.824 82.5972 151.837H267.109C268.266 151.84 269.412 151.61 270.48 151.162C271.547 150.714 272.514 150.057 273.323 149.229C274.132 148.401 274.767 147.42 275.19 146.343C275.613 145.265 275.817 144.114 275.788 142.957L273.367 38.4292C273.298 36.0533 272.31 33.7968 270.61 32.1357C268.91 30.4746 266.631 29.5388 264.254 29.5258H79.7273Z" fill="#407BFF"/>
<path d="M106.924 58.3864L94.4473 46.7834C100.349 40.4094 110.838 40.4094 117.653 46.7834C119.832 48.8072 121.479 51.3363 122.449 54.1474L106.924 58.3864Z" fill="#E0E0E0"/>
<path opacity="0.2" d="M104.327 58.6415L88.0826 60.0725C87.6946 57.7201 87.832 55.3109 88.4848 53.0179C89.1309 50.7842 90.2883 48.7317 91.8652 47.0229L104.327 58.6415Z" fill="#407BFF"/>
<path d="M106.925 59.562L97.9212 69.2931C96.7074 68.1611 95.6859 66.8391 94.8967 65.379C94.1214 63.9309 93.5982 62.3614 93.3496 60.7378L106.925 59.562Z" fill="white"/>
<path opacity="0.6" d="M107.799 60.8848L123.355 56.6304C124.322 59.3087 124.546 62.1992 124.001 64.9943C123.456 67.7894 122.163 70.3845 120.261 72.5033C114.359 78.8772 103.87 78.8772 97.0547 72.5033L107.799 60.8848Z" fill="#407BFF"/>
<path opacity="0.2" d="M149.663 58.3864L137.186 46.7834C143.088 40.4094 153.577 40.4094 160.392 46.7834C162.573 48.807 164.222 51.336 165.195 54.1474L149.663 58.3864Z" fill="#407BFF"/>
<path d="M147.055 58.6415L130.811 60.0725C130.422 57.7197 130.562 55.3097 131.221 53.0179C131.861 50.7834 133.016 48.7301 134.594 47.0229L147.055 58.6415Z" fill="#E0E0E0"/>
<path opacity="0.6" d="M149.663 59.562L140.652 69.2931C139.438 68.1611 138.416 66.8391 137.627 65.379C136.852 63.9309 136.329 62.3614 136.08 60.7378L149.663 59.562Z" fill="#407BFF"/>
<path d="M150.53 60.8848L166.085 56.6304C167.055 59.3083 167.28 62.1994 166.735 64.995C166.19 67.7906 164.896 70.3858 162.991 72.5033C157.089 78.8772 146.6 78.8772 139.785 72.5033L150.53 60.8848Z" fill="white"/>
<g opacity="0.3">
<path d="M82.7138 137.202H82.6752C82.574 137.188 82.4817 137.137 82.4171 137.058C82.3525 136.979 82.3203 136.878 82.3271 136.777C83.2089 127.664 88.8557 118.931 97.4342 113.424C104.868 108.651 114.313 106.237 124.81 106.462C127.502 106.516 130.224 106.74 132.878 106.965C136.903 107.391 140.954 107.53 144.999 107.382C149.524 107.111 157.832 105.727 162.597 99.4612C164.201 97.1409 165.501 94.6244 166.465 91.9734C167.749 88.8792 169.071 85.6227 171.446 83.1319C174.602 79.8134 179.452 77.926 185.873 77.516C189.185 77.3648 192.503 77.3958 195.812 77.6088C198.667 77.7403 201.622 77.8796 204.522 77.7635C209.643 77.5624 216.721 76.3325 221.339 71.5753C223.459 69.4094 224.928 66.6401 226.352 63.9637C227.125 62.5713 227.86 61.1248 228.719 59.7634C231.657 55.1306 235.738 51.332 240.569 48.7327C240.613 48.7084 240.662 48.6931 240.712 48.6877C240.762 48.6823 240.813 48.687 240.861 48.7014C240.909 48.7158 240.954 48.7397 240.993 48.7716C241.032 48.8036 241.064 48.8429 241.088 48.8874C241.135 48.9781 241.145 49.0836 241.116 49.1817C241.088 49.2799 241.022 49.3629 240.933 49.4135C236.197 51.9632 232.2 55.6936 229.33 60.243C228.487 61.5812 227.721 63.0122 227.009 64.3968C225.563 67.1197 224.07 69.9354 221.865 72.1863C218.067 76.054 212.072 78.2895 204.522 78.5835C201.599 78.6995 198.628 78.5835 195.758 78.4288C192.475 78.2198 189.183 78.1888 185.896 78.336C179.707 78.7305 174.997 80.5405 171.972 83.7507C169.698 86.1332 168.406 89.297 167.145 92.3524C166.164 95.0674 164.835 97.644 163.192 100.018C158.234 106.524 149.679 107.962 145.014 108.241C140.936 108.39 136.851 108.248 132.793 107.815C130.163 107.599 127.44 107.374 124.771 107.32C114.46 107.104 105.131 109.478 97.8287 114.166C89.4513 119.581 83.9051 128.09 83.0774 136.947C83.0486 137.02 82.9987 137.084 82.934 137.129C82.8694 137.175 82.7928 137.2 82.7138 137.202Z" fill="#407BFF"/>
<path d="M242.185 52.5539H242.116C242.018 52.5268 241.934 52.462 241.883 52.3736C241.833 52.2853 241.819 52.1805 241.845 52.0821L242.688 48.7945C242.782 48.42 242.904 48.0528 243.052 47.6961C243.059 47.6832 243.063 47.6685 243.063 47.6536C243.063 47.6386 243.059 47.624 243.052 47.611C240.607 47.6748 238.175 47.9753 235.788 48.5083C235.739 48.5197 235.688 48.521 235.638 48.5123C235.588 48.5036 235.541 48.485 235.498 48.4576C235.456 48.4302 235.419 48.3946 235.39 48.3528C235.362 48.311 235.342 48.264 235.332 48.2144C235.321 48.1651 235.319 48.114 235.328 48.0642C235.337 48.0143 235.355 47.9667 235.383 47.9242C235.41 47.8817 235.446 47.8451 235.487 47.8165C235.529 47.788 235.576 47.7681 235.626 47.758C238.041 47.2167 240.501 46.9007 242.974 46.8143C243.113 46.8104 243.251 46.8409 243.375 46.903C243.499 46.9651 243.606 47.0568 243.686 47.1701C243.769 47.2896 243.821 47.4282 243.836 47.573C243.85 47.7177 243.828 47.8639 243.771 47.9978C243.641 48.3202 243.532 48.651 243.446 48.9879L242.595 52.2755C242.572 52.3634 242.518 52.4399 242.442 52.491C242.367 52.5421 242.276 52.5645 242.185 52.5539Z" fill="#407BFF"/>
</g>
<path d="M274.173 44.0065C274.173 44.0065 263.344 39.257 260.164 52.6469C257.589 63.43 252.174 67.4678 252.174 67.4678C252.174 67.4678 271.319 74.8628 281.994 66.1915L274.173 44.0065Z" fill="#263238"/>
<path d="M261.588 89.0882C261.193 90.1556 260.814 91.0684 260.397 92.0276C259.979 92.9868 259.546 93.9073 259.105 94.8355C258.215 96.692 257.21 98.4866 256.189 100.25C254.118 103.851 251.718 107.251 249.018 110.407L248.5 110.995C248.314 111.204 248.221 111.335 247.834 111.73C247.116 112.453 246.227 112.985 245.251 113.277C244.358 113.528 243.42 113.58 242.505 113.431C241.775 113.316 241.062 113.108 240.385 112.812C239.283 112.32 238.245 111.696 237.291 110.956C236.422 110.288 235.59 109.573 234.8 108.813C231.872 105.893 229.291 102.643 227.111 99.1287L229.857 97.0556C232.474 99.8322 235.286 102.417 238.273 104.791C239.559 105.841 240.999 106.687 242.543 107.297C243.162 107.506 243.588 107.413 243.479 107.382C243.371 107.351 243.379 107.382 243.402 107.382C243.425 107.382 243.572 107.158 243.696 106.988L244.121 106.431C246.384 103.405 248.426 100.22 250.232 96.9009C251.145 95.23 251.996 93.5205 252.824 91.8033C253.234 90.9446 253.636 90.086 254.023 89.2197C254.409 88.3533 254.796 87.4483 255.106 86.667L261.588 89.0882Z" fill="#FFC3BD"/>
<path d="M259.383 79.7826C256.49 79.6743 251.4 90.1944 251.4 90.1944L258.927 99.3143C258.927 99.3143 267.699 88.3069 266.5 84.7487C265.216 81.0434 263.591 79.9295 259.383 79.7826Z" fill="#263238"/>
<path opacity="0.2" d="M258.902 82.3196L254.988 94.5801L258.516 98.8423L258.902 82.3196Z" fill="black"/>
<path d="M229.239 100.39L221.232 98.3629L226.647 94.0852C226.647 94.0852 230.67 95.7792 230.925 98.5949L229.239 100.39Z" fill="#FFC3BD"/>
<path d="M217.48 94.9284L221.634 91.8342L226.616 94.0852L221.193 98.3629L217.48 94.9284Z" fill="#FFC3BD"/>
<path d="M279.811 268.595H273.02L273.352 252.861H280.144L279.811 268.595Z" fill="#FFC3BD"/>
<path d="M272.363 267.806H280.021C280.152 267.804 280.28 267.851 280.379 267.936C280.479 268.021 280.544 268.14 280.563 268.27L281.429 274.311C281.445 274.464 281.429 274.618 281.382 274.764C281.334 274.91 281.257 275.045 281.154 275.159C281.051 275.272 280.925 275.363 280.784 275.425C280.644 275.487 280.492 275.519 280.338 275.518C277.677 275.471 276.393 275.317 273.036 275.317C270.971 275.317 265.046 275.533 262.207 275.533C259.368 275.533 259.205 272.71 260.389 272.439C265.711 271.294 269.47 269.716 271.265 268.208C271.575 267.954 271.962 267.812 272.363 267.806Z" fill="#263238"/>
<g opacity="0.2">
<path d="M273.354 252.861L273.184 260.975H279.975L280.153 252.861H273.354Z" fill="black"/>
</g>
<path d="M256.652 83.1474C256.505 87.4483 257.247 97.4811 261.765 120.834L289.349 120.014C288.575 108.806 288.336 101.882 293.016 78.6841C289.13 78.0028 285.201 77.6021 281.258 77.4852C277.077 77.3124 272.889 77.4391 268.726 77.8642C265.54 78.251 262.097 78.9085 259.839 79.4113C258.968 79.591 258.181 80.0559 257.604 80.7326C257.027 81.4092 256.692 82.259 256.652 83.1474Z" fill="#263238"/>
<path d="M279.596 63.4299C278.923 67.4833 278.359 74.8937 281.259 77.4928C279.079 80.9255 275.647 83.373 271.691 84.3154C265.332 81.0898 268.728 77.8641 268.728 77.8641C273.191 76.6574 272.975 73.3235 272.101 70.2138L279.596 63.4299Z" fill="#FFC3BD"/>
<path d="M271.689 84.3155L272.509 82.7065L276.926 83.7044L271.689 84.3155Z" fill="#E0E0E0"/>
<path d="M272.51 82.7064C273.933 82.0566 280.493 77.7867 280.748 76.4485C281.266 77.0132 284.043 77.1833 284.043 77.1833C284.043 77.1833 282.38 84.8181 279.162 90.4031C276.965 85.4215 274.877 84.2535 272.51 82.7064Z" fill="white"/>
<path d="M271.69 84.3155L271.319 82.7065L268.611 82.8999L271.69 84.3155Z" fill="#E0E0E0"/>
<path d="M271.319 82.7066C269.13 81.2523 269.663 78.2123 269.88 76.8818C269.362 77.4388 266.585 77.609 266.585 77.609C266.585 77.609 262.655 84.8183 265.881 90.4032C267.405 86.3963 268.952 84.2536 271.319 82.7066Z" fill="white"/>
<path opacity="0.2" d="M276.54 66.1914L272.107 70.2138C272.319 70.9372 272.469 71.6773 272.556 72.4261C274.266 72.1244 276.571 70.1674 276.695 68.365C276.775 67.6371 276.723 66.9006 276.54 66.1914Z" fill="black"/>
<path d="M281.799 54.1474C281.714 60.8927 281.799 63.747 278.597 67.3594C273.739 72.7742 265.447 71.2271 263.544 64.5902C261.811 58.6262 262.237 48.6012 268.688 45.5998C270.107 44.9319 271.673 44.638 273.238 44.7459C274.803 44.8539 276.314 45.3602 277.628 46.2168C278.942 47.0733 280.015 48.2516 280.745 49.6397C281.475 51.0277 281.838 52.5795 281.799 54.1474Z" fill="#FFC3BD"/>
<path d="M281.25 57.3886L272.78 56.9709C272.754 56.9699 272.729 56.9639 272.706 56.9533C272.683 56.9426 272.662 56.9275 272.645 56.9088C272.628 56.8902 272.614 56.8683 272.606 56.8444C272.597 56.8205 272.593 56.7952 272.594 56.7698C272.595 56.7437 272.601 56.7181 272.612 56.6944C272.623 56.6708 272.639 56.6497 272.659 56.6323C272.678 56.615 272.701 56.6018 272.726 56.5935C272.751 56.5852 272.777 56.582 272.803 56.5841L281.273 57.0018C281.298 57.0038 281.323 57.0108 281.346 57.0223C281.369 57.0339 281.389 57.0498 281.405 57.0692C281.422 57.0887 281.434 57.1112 281.442 57.1354C281.45 57.1597 281.453 57.1853 281.451 57.2107C281.45 57.2358 281.444 57.2604 281.433 57.2831C281.422 57.3058 281.407 57.326 281.388 57.3427C281.37 57.3593 281.348 57.3719 281.324 57.3798C281.3 57.3877 281.275 57.3907 281.25 57.3886Z" fill="white"/>
<path d="M261.766 120.834C261.766 120.834 265.254 171.307 267.18 191.938C269.199 213.403 271.822 259.405 271.822 259.405H281.003C281.003 259.405 282.922 212.622 282.195 191.45C281.421 168.376 281.909 120.239 281.909 120.239L261.766 120.834Z" fill="#263238"/>
<path d="M281.853 259.73H271.078L270.281 256.296L282.356 255.87L281.853 259.73Z" fill="#407BFF"/>
<path opacity="0.2" d="M281.838 138.262C280.724 137.024 279.518 137.666 278.141 141.193C273.554 153.23 278.442 172.437 282.008 183.498C281.769 169.729 281.776 151.613 281.838 138.262Z" fill="black"/>
<path d="M270.737 57.056C270.737 57.6052 270.49 58.0616 270.134 58.0771C269.778 58.0926 269.469 57.6671 269.438 57.1179C269.407 56.5687 269.678 56.1123 270.041 56.0968C270.405 56.0814 270.737 56.5068 270.737 57.056Z" fill="#263238"/>
<path d="M264.55 57.2416C264.55 57.7908 264.302 58.2472 263.947 58.2627C263.591 58.2782 263.281 57.8527 263.25 57.3035C263.22 56.7543 263.49 56.2979 263.854 56.2824C264.217 56.267 264.55 56.6537 264.55 57.2416Z" fill="#263238"/>
<path d="M264 56.2669L262.67 55.9497C262.67 55.9497 263.397 56.9476 264 56.2669Z" fill="#263238"/>
<path d="M266.933 57.6516C266.509 58.9243 265.91 60.1322 265.154 61.2408C265.442 61.4295 265.769 61.5516 266.11 61.5985C266.451 61.6453 266.799 61.6156 267.127 61.5116L266.933 57.6516Z" fill="#ED847E"/>
<path d="M270.213 63.5072C269.958 63.5606 269.7 63.5942 269.44 63.6078C269.418 63.6088 269.397 63.6057 269.377 63.5985C269.357 63.5912 269.338 63.5801 269.323 63.5658C269.307 63.5514 269.294 63.534 269.285 63.5147C269.276 63.4954 269.271 63.4744 269.27 63.4531C269.271 63.4119 269.288 63.3727 269.316 63.3428C269.345 63.3129 269.383 63.2944 269.424 63.2907C270.106 63.2735 270.775 63.0949 271.374 62.7695C271.974 62.4441 272.488 61.9812 272.874 61.4187C272.885 61.4003 272.9 61.3844 272.917 61.3717C272.935 61.359 272.954 61.3499 272.975 61.3449C272.996 61.3398 273.018 61.339 273.039 61.3424C273.06 61.3457 273.08 61.3533 273.099 61.3646C273.117 61.3749 273.132 61.3888 273.145 61.4054C273.158 61.4221 273.167 61.4411 273.172 61.4613C273.177 61.4815 273.178 61.5026 273.174 61.5232C273.171 61.5438 273.164 61.5635 273.153 61.5811C272.818 62.0835 272.384 62.513 271.879 62.844C271.374 63.1749 270.808 63.4005 270.213 63.5072Z" fill="#263238"/>
<path d="M283.888 60.2274C283.692 60.842 283.376 61.4119 282.959 61.9043C282.543 62.3968 282.033 62.8022 281.459 63.0972C279.912 63.8708 278.813 62.579 278.96 60.9468C279.092 59.4848 280.051 57.3035 281.737 57.2029C282.106 57.1873 282.472 57.2641 282.804 57.4263C283.135 57.5884 283.42 57.8308 283.634 58.1313C283.848 58.4318 283.983 58.781 284.027 59.1471C284.071 59.5132 284.024 59.8845 283.888 60.2274Z" fill="#FFC3BD"/>
<path d="M273.16 55.1686C273.094 55.1835 273.025 55.1764 272.964 55.1485C272.902 55.1205 272.852 55.0733 272.82 55.0139C272.085 53.7221 270.174 53.521 270.159 53.5132C270.117 53.5092 270.077 53.497 270.04 53.4773C270.003 53.4576 269.97 53.4308 269.944 53.3985C269.917 53.3662 269.897 53.3289 269.885 53.2889C269.873 53.2488 269.869 53.2068 269.873 53.1652C269.877 53.1235 269.889 53.0831 269.909 53.0461C269.928 53.0092 269.955 52.9765 269.987 52.95C270.02 52.9234 270.057 52.9034 270.097 52.8912C270.137 52.8791 270.179 52.8749 270.221 52.8789C270.314 52.8789 272.479 53.111 273.377 54.6968C273.399 54.7331 273.413 54.7736 273.419 54.8157C273.425 54.8578 273.423 54.9007 273.412 54.9418C273.401 54.983 273.382 55.0215 273.356 55.0551C273.33 55.0888 273.298 55.1169 273.261 55.1377L273.16 55.1686Z" fill="#263238"/>
<path d="M262.555 54.0855C262.5 54.0985 262.443 54.096 262.39 54.0782C262.336 54.0605 262.289 54.0282 262.253 53.985C262.223 53.9554 262.198 53.9199 262.181 53.8807C262.165 53.8415 262.156 53.7994 262.156 53.7568C262.156 53.7142 262.165 53.672 262.181 53.6328C262.198 53.5936 262.223 53.5582 262.253 53.5286C262.623 53.1776 263.072 52.92 263.562 52.7774C264.051 52.6348 264.568 52.6112 265.069 52.7086C265.152 52.7305 265.223 52.7842 265.266 52.8581C265.31 52.932 265.322 53.0201 265.301 53.1032C265.277 53.185 265.223 53.2546 265.15 53.2978C265.077 53.341 264.989 53.3544 264.906 53.3352C264.509 53.2602 264.1 53.2822 263.714 53.3994C263.327 53.5166 262.975 53.7254 262.686 54.0082C262.649 54.044 262.604 54.0706 262.555 54.0855Z" fill="#263238"/>
<path d="M296.419 86.4814C297.324 90.0939 298.268 93.7759 299.235 97.396C300.202 101.016 301.261 104.629 302.429 108.125C303.597 111.621 305.044 115.087 306.382 118.645C307.72 122.203 309.082 125.793 310.312 129.42L307.218 130.882C305.206 127.603 303.35 124.269 301.517 120.881C300.614 119.189 299.732 117.477 298.871 115.744C297.997 114.035 297.169 112.194 296.435 110.33C294.957 106.663 293.727 102.973 292.629 99.2603C291.53 95.5473 290.525 91.8343 289.674 88.013L296.419 86.4814Z" fill="#FFC3BD"/>
<path d="M293.017 78.684C295.802 79.4576 299.407 88.856 299.407 88.856L288.91 96.8389C288.91 96.8389 284.764 89.0185 285.816 85.4061C286.922 81.6544 289.83 77.8177 293.017 78.684Z" fill="#263238"/>
<path d="M269.81 268.997C269.229 269.048 268.649 268.9 268.162 268.579C268.056 268.483 267.974 268.362 267.923 268.228C267.872 268.093 267.853 267.949 267.869 267.806C267.875 267.717 267.904 267.632 267.953 267.557C268.002 267.483 268.068 267.422 268.147 267.38C268.975 266.924 271.682 268.309 272.015 268.463C272.044 268.48 272.068 268.505 272.083 268.535C272.098 268.566 272.104 268.6 272.1 268.634C272.096 268.667 272.081 268.699 272.057 268.723C272.034 268.747 272.002 268.762 271.968 268.765C271.258 268.911 270.535 268.989 269.81 268.997ZM268.596 267.589C268.495 267.583 268.394 267.602 268.302 267.643C268.269 267.66 268.242 267.686 268.223 267.717C268.204 267.749 268.193 267.785 268.193 267.821C268.178 267.916 268.187 268.014 268.22 268.104C268.252 268.195 268.307 268.276 268.379 268.34C268.789 268.711 269.926 268.773 271.411 268.525C270.534 268.054 269.581 267.737 268.596 267.589Z" fill="#407BFF"/>
<path d="M271.914 268.757H271.852C271.04 268.386 269.438 266.924 269.531 266.158C269.531 265.973 269.694 265.748 270.135 265.702C270.295 265.683 270.458 265.698 270.613 265.746C270.767 265.794 270.91 265.874 271.032 265.98C271.883 266.692 272.037 268.518 272.045 268.595C272.048 268.623 272.042 268.652 272.03 268.678C272.018 268.704 271.999 268.726 271.976 268.742C271.956 268.751 271.935 268.756 271.914 268.757ZM270.297 266.004H270.204C269.91 266.004 269.887 266.151 269.879 266.189C269.81 266.653 270.893 267.806 271.72 268.309C271.656 267.537 271.353 266.805 270.854 266.212C270.701 266.076 270.502 266.001 270.297 266.004Z" fill="#407BFF"/>
<path d="M319.68 268.595H312.889L308.773 252.861H315.573L319.68 268.595Z" fill="#FFC3BD"/>
<path d="M319.742 267.806H312.107C312.046 267.801 311.984 267.809 311.926 267.831C311.869 267.853 311.817 267.887 311.775 267.932C311.733 267.977 311.701 268.03 311.682 268.089C311.663 268.147 311.658 268.209 311.666 268.27L312.13 274.311C312.18 274.639 312.343 274.938 312.59 275.158C312.837 275.378 313.153 275.506 313.484 275.518C316.137 275.472 317.351 275.317 320.739 275.317C322.805 275.317 324.862 275.534 327.701 275.534C330.54 275.534 330.084 272.71 328.838 272.439C323.261 271.295 323.076 269.717 320.948 268.208C320.596 267.956 320.175 267.816 319.742 267.806Z" fill="#263238"/>
<g opacity="0.2">
<path d="M308.781 252.861L310.893 260.975H317.692L315.573 252.861H308.781Z" fill="black"/>
</g>
<path d="M289.349 120.014C297.201 130.534 301.981 169.165 305.454 189.818C309.067 211.299 317.947 259.436 317.947 259.436H308.765C308.765 259.436 296.272 210.471 289.728 189.741C282.496 166.852 271.689 120.045 271.689 120.045L289.349 120.014Z" fill="#263238"/>
<path d="M318.605 259.73H307.822L307.033 256.296L319.108 255.87L318.605 259.73Z" fill="#407BFF"/>
<path d="M320.648 267.999C321.195 267.796 321.656 267.411 321.955 266.909C322.011 266.774 322.034 266.627 322.02 266.481C322.007 266.336 321.958 266.196 321.878 266.073C321.835 265.997 321.773 265.933 321.699 265.887C321.624 265.841 321.54 265.815 321.452 265.81C320.501 265.756 318.652 268.17 318.443 268.448C318.424 268.475 318.414 268.508 318.414 268.541C318.414 268.574 318.424 268.606 318.443 268.634C318.461 268.661 318.487 268.683 318.518 268.694C318.548 268.705 318.582 268.706 318.613 268.695C319.312 268.528 319.993 268.295 320.648 267.999ZM321.135 266.205C321.226 266.158 321.327 266.131 321.429 266.127C321.465 266.129 321.501 266.14 321.531 266.161C321.561 266.181 321.585 266.21 321.599 266.243C321.654 266.321 321.688 266.412 321.699 266.506C321.71 266.601 321.697 266.697 321.661 266.785C321.445 267.295 320.462 267.837 319 268.262C319.591 267.461 320.313 266.765 321.135 266.205Z" fill="#407BFF"/>
<path d="M318.643 268.688C318.663 268.679 318.682 268.666 318.697 268.649C319.269 267.968 320.081 265.957 319.64 265.315C319.532 265.16 319.316 265.013 318.867 265.168C318.715 265.221 318.576 265.305 318.457 265.414C318.339 265.523 318.244 265.655 318.178 265.802C317.714 266.808 318.364 268.525 318.387 268.603C318.398 268.629 318.414 268.651 318.436 268.669C318.458 268.687 318.484 268.698 318.511 268.703C318.533 268.711 318.556 268.714 318.579 268.711C318.601 268.708 318.623 268.7 318.643 268.688ZM318.913 265.508L319.006 265.47C319.285 265.369 319.354 265.47 319.37 265.47C319.64 265.849 319.153 267.357 318.596 268.169C318.32 267.445 318.277 266.653 318.472 265.903C318.565 265.721 318.722 265.58 318.913 265.508Z" fill="#407BFF"/>
<path d="M270.19 56.1201L268.859 55.803C268.859 55.803 269.586 56.8008 270.19 56.1201Z" fill="#263238"/>
<path d="M289.712 118.351L290.486 120.803C290.586 120.989 290.362 121.19 290.045 121.205L261.656 122.048C261.409 122.048 261.2 121.94 261.177 121.785L260.859 119.318C260.859 119.148 261.045 119.001 261.316 118.993L289.248 118.158C289.336 118.148 289.424 118.16 289.505 118.194C289.586 118.228 289.658 118.282 289.712 118.351Z" fill="#407BFF"/>
<path d="M286.054 121.623H286.827C286.974 121.623 287.082 121.538 287.075 121.445L286.626 118.243C286.626 118.15 286.479 118.08 286.332 118.08H285.558C285.412 118.08 285.303 118.165 285.311 118.258L285.76 121.461C285.775 121.554 285.907 121.623 286.054 121.623Z" fill="#263238"/>
<path d="M263.776 122.28H264.55C264.697 122.28 264.805 122.195 264.797 122.103L264.349 118.908C264.349 118.815 264.202 118.738 264.055 118.745H263.281C263.134 118.745 263.026 118.831 263.034 118.923L263.482 122.118C263.498 122.219 263.629 122.288 263.776 122.28Z" fill="#263238"/>
<path d="M274.915 121.948H275.688C275.835 121.948 275.944 121.863 275.936 121.762L275.487 118.568C275.487 118.475 275.34 118.405 275.193 118.405H274.42C274.273 118.405 274.165 118.49 274.172 118.583L274.621 121.778C274.605 121.886 274.768 121.956 274.915 121.948Z" fill="#263238"/>
<path d="M309.531 128.198L314.945 133.157L308.092 134.038C308.092 134.038 305.524 130.519 306.746 127.974L309.531 128.198Z" fill="#FFC3BD"/>
<path d="M315.866 138.795L310.087 139.221L308.076 134.038L314.93 133.164L315.866 138.795Z" fill="#FFC3BD"/>
<path d="M274.994 44.7103C274.994 44.7103 269.293 42.0957 263.004 50.0245C270.577 52.2755 275.667 50.7129 275.667 50.7129L274.994 44.7103Z" fill="#263238"/>
<path d="M274.174 44.0065C274.174 44.0065 275.551 63.9405 274.174 73.8727C282.172 71.3355 289.822 63.4223 289.822 63.4223C289.822 63.4223 288.701 41.6008 274.174 44.0065Z" fill="#263238"/>
<path d="M270.112 61.6739C268.317 61.6739 266.669 59.4539 266.43 56.7233C266.328 55.9904 266.374 55.2445 266.565 54.5297C266.757 53.8149 267.089 53.1457 267.543 52.5616C267.758 52.3085 268.024 52.1043 268.325 51.9628C268.625 51.8214 268.952 51.746 269.284 51.7417C271.079 51.7417 272.734 53.9617 272.974 56.6923C273.076 57.4258 273.03 58.1724 272.837 58.8874C272.644 59.6025 272.309 60.2713 271.852 60.8539C271.637 61.1071 271.371 61.3113 271.071 61.4528C270.771 61.5942 270.443 61.6696 270.112 61.6739ZM269.284 52.1285C269.007 52.1351 268.734 52.1997 268.484 52.3183C268.233 52.4369 268.01 52.6068 267.83 52.8169C267.412 53.362 267.108 53.9847 266.934 54.6488C266.76 55.3128 266.72 56.0049 266.816 56.6846C267.033 59.2141 268.518 61.2794 270.112 61.2794C270.39 61.2748 270.664 61.2102 270.915 61.0901C271.166 60.9699 271.388 60.7971 271.566 60.5832C271.985 60.0392 272.292 59.4167 272.467 58.7525C272.642 58.0883 272.683 57.3957 272.587 56.7155C272.363 54.1861 270.885 52.1285 269.284 52.1285Z" fill="white"/>
<path d="M263.374 61.6739C261.919 61.6739 260.589 59.5003 260.349 56.7233C260.187 54.859 260.573 53.165 261.355 52.3141C261.501 52.1398 261.683 51.9986 261.889 51.8999C262.094 51.8013 262.318 51.7473 262.546 51.7417C264 51.7417 265.323 53.9153 265.57 56.6923C265.725 58.5565 265.338 60.2429 264.557 61.1015C264.411 61.2748 264.23 61.4154 264.026 61.5141C263.823 61.6127 263.6 61.6672 263.374 61.6739ZM262.546 52.1285C262.371 52.1324 262.2 52.1746 262.043 52.2521C261.887 52.3296 261.75 52.4406 261.641 52.5771C260.937 53.3507 260.581 54.9596 260.736 56.6923C260.945 59.1831 262.159 61.2871 263.374 61.2871C263.546 61.2806 263.716 61.2372 263.871 61.1598C264.025 61.0824 264.162 60.9729 264.271 60.8385C264.975 60.0649 265.331 58.456 265.184 56.7233C264.967 54.2325 263.776 52.1285 262.546 52.1285Z" fill="white"/>
<path d="M266.622 56.9012H266.537C266.374 56.8145 266.192 56.7692 266.008 56.7692C265.823 56.7692 265.641 56.8145 265.478 56.9012C265.434 56.9272 265.383 56.9353 265.334 56.9238C265.284 56.9122 265.242 56.8819 265.215 56.8393C265.2 56.8186 265.19 56.7953 265.185 56.7707C265.18 56.7461 265.18 56.7208 265.185 56.6962C265.191 56.6716 265.2 56.6483 265.215 56.6277C265.229 56.6071 265.247 56.5896 265.269 56.5763C265.49 56.4611 265.735 56.4009 265.984 56.4009C266.233 56.4009 266.479 56.4611 266.7 56.5763C266.746 56.5982 266.782 56.6367 266.8 56.6841C266.819 56.7315 266.819 56.7842 266.8 56.8316C266.778 56.856 266.75 56.875 266.719 56.887C266.689 56.8991 266.655 56.9039 266.622 56.9012Z" fill="white"/>
<path d="M299.095 174.695H87.6641V181.912H299.095V174.695Z" fill="#407BFF"/>
<path opacity="0.8" d="M299.095 174.695H87.6641V181.912H299.095V174.695Z" fill="white"/>
<path opacity="0.3" d="M299.102 174.695H237.219V181.912H299.102V174.695Z" fill="#407BFF"/>
<path d="M252.303 278.218H248.18L242.695 181.912H252.303V278.218Z" fill="#407BFF"/>
<path d="M294.971 278.218H299.101L293.617 181.912H284.01L294.971 278.218Z" fill="#407BFF"/>
<path d="M91.7947 278.218H87.6641L93.1484 181.912H102.756L91.7947 278.218Z" fill="#407BFF"/>
<path d="M134.463 278.218H138.586L144.07 181.912H134.463V278.218Z" fill="#407BFF"/>
<path d="M233.955 140.118H188.842C188.316 140.135 187.811 140.33 187.411 140.672C187.01 141.014 186.737 141.481 186.638 141.998L181.703 170.255C181.653 170.484 181.657 170.72 181.712 170.948C181.768 171.175 181.874 171.386 182.023 171.566C182.171 171.746 182.359 171.89 182.572 171.988C182.784 172.085 183.016 172.133 183.25 172.127H228.354C228.88 172.111 229.384 171.917 229.784 171.577C230.185 171.237 230.458 170.771 230.559 170.255L235.494 141.998C235.545 141.77 235.542 141.533 235.488 141.306C235.434 141.078 235.328 140.866 235.18 140.685C235.032 140.504 234.845 140.359 234.633 140.261C234.42 140.163 234.189 140.114 233.955 140.118Z" fill="#407BFF"/>
<path opacity="0.2" d="M233.955 140.118H188.842C188.316 140.135 187.811 140.33 187.411 140.672C187.01 141.014 186.737 141.481 186.638 141.998L181.703 170.255C181.653 170.484 181.657 170.72 181.712 170.948C181.768 171.175 181.874 171.386 182.023 171.566C182.171 171.746 182.359 171.89 182.572 171.988C182.784 172.085 183.016 172.133 183.25 172.127H228.354C228.88 172.111 229.384 171.917 229.784 171.577C230.185 171.237 230.458 170.771 230.559 170.255L235.494 141.998C235.545 141.77 235.542 141.533 235.488 141.306C235.434 141.078 235.328 140.866 235.18 140.685C235.032 140.504 234.845 140.359 234.633 140.261C234.42 140.163 234.189 140.114 233.955 140.118Z" fill="white"/>
<path d="M233.09 140.118H187.969C187.443 140.135 186.938 140.33 186.538 140.672C186.137 141.013 185.864 141.481 185.765 141.998L180.83 170.255C180.78 170.484 180.784 170.72 180.839 170.947C180.894 171.174 181.001 171.386 181.149 171.566C181.298 171.746 181.486 171.89 181.699 171.987C181.911 172.085 182.143 172.132 182.377 172.127H227.481C228.016 172.123 228.533 171.934 228.944 171.593C229.356 171.252 229.637 170.78 229.74 170.255L234.675 141.998C234.727 141.766 234.724 141.525 234.667 141.294C234.61 141.063 234.501 140.848 234.347 140.666C234.194 140.484 234.001 140.34 233.782 140.245C233.564 140.15 233.327 140.107 233.09 140.118Z" fill="#407BFF"/>
<path opacity="0.4" d="M233.09 140.118H187.969C187.443 140.135 186.938 140.33 186.538 140.672C186.137 141.013 185.864 141.481 185.765 141.998L180.83 170.255C180.78 170.484 180.784 170.72 180.839 170.947C180.894 171.174 181.001 171.386 181.149 171.566C181.298 171.746 181.486 171.89 181.699 171.987C181.911 172.085 182.143 172.132 182.377 172.127H227.481C228.016 172.123 228.533 171.934 228.944 171.593C229.356 171.252 229.637 170.78 229.74 170.255L234.675 141.998C234.727 141.766 234.724 141.525 234.667 141.294C234.61 141.063 234.501 140.848 234.347 140.666C234.194 140.484 234.001 140.34 233.782 140.245C233.564 140.15 233.327 140.107 233.09 140.118Z" fill="white"/>
<path d="M182.398 171.354C182.28 171.359 182.162 171.338 182.052 171.292C181.942 171.247 181.844 171.178 181.764 171.091C181.689 170.991 181.637 170.877 181.61 170.755C181.583 170.634 181.583 170.508 181.609 170.387L186.545 142.129C186.613 141.793 186.791 141.488 187.052 141.264C187.312 141.04 187.64 140.909 187.983 140.892H233.088C233.207 140.888 233.326 140.91 233.435 140.957C233.545 141.004 233.643 141.074 233.722 141.162C233.798 141.262 233.851 141.376 233.877 141.497C233.904 141.619 233.904 141.745 233.877 141.866L228.965 170.116C228.897 170.453 228.718 170.757 228.458 170.981C228.197 171.205 227.87 171.336 227.526 171.354H182.398Z" fill="white"/>
<path d="M227.728 172.127H170.996C170.331 172.131 169.694 172.397 169.223 172.868C168.753 173.339 168.486 173.976 168.482 174.641H230.242C230.237 173.976 229.971 173.339 229.501 172.868C229.03 172.397 228.393 172.131 227.728 172.127Z" fill="#407BFF"/>
<path opacity="0.4" d="M227.728 172.127H170.996C170.331 172.131 169.694 172.397 169.223 172.868C168.753 173.339 168.486 173.976 168.482 174.641H230.242C230.237 173.976 229.971 173.339 229.501 172.868C229.03 172.397 228.393 172.131 227.728 172.127Z" fill="white"/>
<path opacity="0.8" d="M227.728 172.127H215.088C214.423 172.131 213.786 172.397 213.315 172.868C212.844 173.339 212.578 173.976 212.574 174.641H230.242C230.238 173.976 229.972 173.339 229.501 172.868C229.03 172.397 228.393 172.131 227.728 172.127Z" fill="#407BFF"/>
<path d="M257.439 162.071H249.155C248.647 162.071 248.234 162.483 248.234 162.992V173.775C248.234 174.283 248.647 174.695 249.155 174.695H257.439C257.948 174.695 258.36 174.283 258.36 173.775V162.992C258.36 162.483 257.948 162.071 257.439 162.071Z" fill="#407BFF"/>
<path d="M249.565 168.221L249.712 167.494H249.016V166.72H249.851L250.052 165.699H250.826L250.617 166.72H251.243L251.452 165.699H252.264L252.056 166.72H252.45V167.494H251.901L251.754 168.221H252.45V168.994H251.591L251.39 170H250.625L250.826 169.002H250.199L249.998 170.008H249.224L249.426 169.002H249.031V168.229L249.565 168.221ZM250.377 168.221H251.004L251.151 167.494H250.524L250.377 168.221Z" fill="white"/>
<path d="M255.576 165.691V169.946H254.4V167.153C254.228 167.289 254.045 167.408 253.851 167.509C253.633 167.61 253.408 167.695 253.178 167.764V166.813C253.512 166.714 253.826 166.557 254.106 166.349C254.324 166.171 254.498 165.946 254.617 165.691H255.576Z" fill="white"/>
<path d="M259.312 173.311C257.309 173.311 255.738 171.145 255.738 168.383C255.738 165.622 257.34 163.448 259.312 163.448C261.285 163.448 262.886 165.661 262.886 168.383C262.886 171.106 261.315 173.311 259.312 173.311ZM259.312 164.585C257.989 164.585 256.875 166.318 256.875 168.383C256.875 170.449 257.989 172.174 259.312 172.174C260.635 172.174 261.749 170.441 261.749 168.383C261.749 166.326 260.627 164.585 259.312 164.585Z" fill="#407BFF"/>
<path d="M140.436 138.548L139.716 139.662L138.943 140.884C138.44 141.704 137.953 142.539 137.465 143.383C136.506 145.069 135.578 146.778 134.719 148.511C132.993 151.923 131.547 155.47 130.395 159.116C130.117 160.014 129.869 160.911 129.622 161.808L129.305 163.162L129.173 163.835L129.103 164.175C129.103 164.284 129.057 164.43 129.057 164.4C129.057 164.369 128.995 164.4 128.918 164.198C128.835 164.019 128.707 163.865 128.546 163.75C128.415 163.672 128.392 163.75 128.461 163.819C128.621 163.965 128.801 164.087 128.995 164.183C129.656 164.508 130.355 164.747 131.076 164.895C131.951 165.099 132.837 165.256 133.729 165.366C135.57 165.606 137.597 165.722 139.5 165.823H139.693C140.32 165.856 140.916 166.104 141.38 166.527C141.844 166.949 142.147 167.519 142.238 168.14C142.329 168.761 142.203 169.394 141.88 169.932C141.557 170.47 141.057 170.879 140.467 171.091C138.331 171.857 136.123 172.404 133.876 172.723C131.365 173.132 128.798 173.067 126.311 172.529C125.507 172.332 124.729 172.044 123.99 171.671C123.057 171.197 122.214 170.564 121.5 169.799C120.665 168.892 120.046 167.807 119.689 166.627C119.387 165.562 119.279 164.451 119.372 163.348C119.372 163.054 119.372 162.945 119.419 162.798L119.473 162.373L119.573 161.507C119.659 160.942 119.736 160.369 119.829 159.805C120.022 158.675 120.239 157.554 120.509 156.455C121.568 152.108 123.056 147.877 124.95 143.823C125.885 141.828 126.883 139.863 127.974 137.952C128.516 136.993 129.088 136.049 129.676 135.113C129.97 134.642 130.271 134.178 130.589 133.706C130.906 133.234 131.2 132.808 131.602 132.251C132.435 131.131 133.669 130.376 135.045 130.143C136.422 129.91 137.835 130.219 138.99 131.003C140.145 131.788 140.952 132.988 141.243 134.354C141.534 135.719 141.286 137.144 140.552 138.331L140.436 138.548Z" fill="#407BFF"/>
<path d="M161.12 107.328C161.197 107.854 161.538 108.233 161.894 108.187C162.249 108.14 162.45 107.669 162.373 107.15C162.296 106.632 161.955 106.245 161.6 106.292C161.244 106.338 161.043 106.81 161.12 107.328Z" fill="#263238"/>
<path d="M161.492 108.241C162.352 109.743 163.414 111.12 164.648 112.333C164.33 112.64 163.948 112.875 163.53 113.019C163.112 113.163 162.667 113.214 162.227 113.168L161.492 108.241Z" fill="#A02724"/>
<path d="M158.838 104.714C158.904 104.708 158.965 104.678 159.009 104.629C159.279 104.348 159.612 104.136 159.981 104.011C160.35 103.886 160.743 103.851 161.128 103.909C161.209 103.925 161.293 103.909 161.362 103.865C161.432 103.82 161.481 103.75 161.499 103.669C161.515 103.589 161.499 103.506 161.454 103.438C161.409 103.37 161.339 103.323 161.26 103.306C160.774 103.225 160.277 103.263 159.809 103.417C159.342 103.57 158.918 103.835 158.575 104.188C158.518 104.247 158.486 104.326 158.486 104.408C158.486 104.49 158.518 104.569 158.575 104.629C158.61 104.661 158.652 104.686 158.697 104.7C158.743 104.715 158.791 104.72 158.838 104.714Z" fill="#263238"/>
<path d="M145.797 113.091C146.021 117.964 145.65 126.767 141.867 129.436C141.867 129.436 142.447 134.425 151.242 135.74C160.904 137.179 156.58 131.625 156.58 131.625C151.49 129.583 152.209 125.684 153.679 122.149L145.797 113.091Z" fill="#B55B52"/>
<path d="M140.35 131.385C139.971 129.18 139.577 126.666 141.24 126.28C143.065 125.854 152.518 127.115 155.504 129.374C158.49 131.633 156.958 135.562 156.958 135.562L140.35 131.385Z" fill="#E0E0E0"/>
<path d="M165.84 139.6C166.195 147.397 165.84 162.86 160.549 186.267H125.569C125.353 181.402 130.373 160.424 129.94 137.372C129.918 136.217 130.127 135.069 130.553 133.995C130.98 132.92 131.616 131.942 132.425 131.116C133.233 130.291 134.198 129.634 135.263 129.185C136.327 128.735 137.471 128.503 138.627 128.5C139.315 128.5 140.042 128.5 140.792 128.585C145.741 128.929 150.664 129.57 155.536 130.503C156.99 130.836 158.406 131.223 159.69 131.617C161.412 132.152 162.927 133.206 164.028 134.635C165.129 136.064 165.762 137.798 165.84 139.6Z" fill="#407BFF"/>
<path opacity="0.2" d="M160.555 153.632C159.998 157.592 158.714 164.461 163.348 172.057C163.874 168.909 164.299 165.962 164.647 163.208L160.555 153.632Z" fill="black"/>
<path d="M187.815 163.216L193.702 161.189L191.304 155.001C189.966 155.195 188.706 155.749 187.659 156.603C186.611 157.457 185.815 158.58 185.355 159.851L187.815 163.216Z" fill="#B55B52"/>
<path d="M196.818 159.426L197.445 154.429L191.303 154.939L193.701 161.151L196.818 159.426Z" fill="#B55B52"/>
<path d="M165.801 138.88C166.126 140.018 166.528 141.34 166.915 142.578C167.302 143.816 167.688 145.084 168.137 146.33C168.972 148.82 169.893 151.273 170.86 153.67C171.827 156.068 172.91 158.397 174.078 160.57C175.145 162.627 176.442 164.555 177.945 166.318L172.275 165.444C173.366 164.972 174.488 164.485 175.617 163.897C176.746 163.309 177.899 162.783 179.036 162.164L182.517 160.331C183.677 159.72 184.838 159.054 186.021 158.482L186.145 158.42C186.697 158.143 187.327 158.061 187.932 158.187C188.537 158.314 189.082 158.641 189.477 159.116C189.872 159.592 190.095 160.186 190.11 160.804C190.124 161.422 189.929 162.027 189.556 162.52C188.691 163.663 187.766 164.76 186.787 165.807C185.82 166.852 184.807 167.842 183.755 168.816C182.703 169.791 181.589 170.711 180.428 171.593C179.268 172.475 178.038 173.326 176.731 174.115C175.894 174.615 174.916 174.827 173.947 174.719C172.978 174.612 172.07 174.191 171.363 173.519L171.061 173.233C168.769 171.011 166.779 168.496 165.143 165.753C163.591 163.231 162.208 160.608 161.005 157.902C159.791 155.249 158.746 152.557 157.795 149.849C157.323 148.496 156.867 147.134 156.457 145.765C156.047 144.396 155.683 143.05 155.289 141.534C154.918 140.146 155.114 138.668 155.834 137.424C156.553 136.181 157.737 135.275 159.125 134.905C160.513 134.534 161.991 134.73 163.234 135.45C164.478 136.169 165.384 137.353 165.754 138.741L165.801 138.88Z" fill="#407BFF"/>
<path d="M143.552 108.829C144.906 115.172 145.37 118.954 149.099 121.762C154.707 125.986 162.179 121.871 162.751 115.241C163.262 109.277 160.972 99.9022 154.32 98.2855C152.854 97.9229 151.32 97.9411 149.863 98.3383C148.406 98.7355 147.075 99.4985 145.996 100.555C144.917 101.611 144.127 102.926 143.699 104.374C143.271 105.822 143.221 107.356 143.552 108.829Z" fill="#B55B52"/>
<path d="M157.222 109.494C160.254 109.262 160.076 107.862 159.395 106.833C158.715 105.804 157.887 102.107 157.887 102.107C157.887 102.107 162.103 103.221 161.236 99.1828C160.37 95.1449 154.677 90.0318 149.703 93.1647C139.794 91.5325 136.553 95.5317 138.1 99.2292C130.233 102.71 135.911 109.757 139.044 109.757C136.251 112.248 140.42 115.837 147.181 119.867C152.132 113.903 159.434 115.504 157.222 109.494Z" fill="#263238"/>
<path d="M151.096 95.1914C150.993 95.1899 150.891 95.168 150.797 95.1268C150.703 95.0856 150.617 95.0261 150.546 94.9516C149.394 93.7922 147.957 92.9556 146.38 92.5254C144.802 92.0951 143.14 92.0861 141.558 92.4995C141.359 92.546 141.15 92.5119 140.976 92.4047C140.802 92.2974 140.677 92.1257 140.63 91.927C140.583 91.7281 140.617 91.5188 140.725 91.3449C140.832 91.171 141.003 91.0466 141.202 90.9988C143.047 90.5279 144.984 90.5456 146.82 91.0501C148.657 91.5547 150.33 92.5287 151.676 93.8763C151.82 94.0213 151.901 94.2173 151.901 94.4217C151.901 94.626 151.82 94.8221 151.676 94.967C151.6 95.0425 151.509 95.1015 151.409 95.1401C151.309 95.1787 151.203 95.1962 151.096 95.1914Z" fill="#263238"/>
<path d="M140.845 116.804C140.743 116.804 140.643 116.785 140.548 116.746C140.454 116.708 140.368 116.651 140.296 116.58C138.115 114.383 137.202 112.665 137.48 111.165C137.61 110.598 137.879 110.072 138.263 109.634C138.646 109.197 139.132 108.862 139.677 108.658C139.863 108.57 140.076 108.559 140.27 108.628C140.463 108.697 140.622 108.84 140.71 109.026C140.798 109.212 140.809 109.425 140.74 109.618C140.671 109.812 140.528 109.97 140.342 110.059C139.53 110.445 139.097 110.894 139.004 111.428C138.911 111.961 139.221 113.3 141.394 115.481C141.467 115.553 141.524 115.639 141.564 115.733C141.603 115.827 141.623 115.928 141.623 116.03C141.623 116.132 141.603 116.234 141.564 116.328C141.524 116.422 141.467 116.508 141.394 116.58C141.322 116.651 141.236 116.708 141.142 116.746C141.048 116.785 140.947 116.804 140.845 116.804Z" fill="#263238"/>
<path d="M153.493 108.999C154.012 110.526 155.018 111.841 156.355 112.743C158.127 113.911 159.326 112.588 159.094 110.678C158.885 108.953 157.709 106.268 155.806 105.859C153.903 105.449 152.898 107.15 153.493 108.999Z" fill="#B55B52"/>
<path d="M213.977 272.555C214.812 272.555 215.624 272.439 215.895 272.068C215.965 271.968 216.002 271.849 216.002 271.728C216.002 271.606 215.965 271.487 215.895 271.387C215.843 271.297 215.772 271.218 215.689 271.156C215.605 271.093 215.509 271.048 215.408 271.024C214.317 270.73 212.035 272.029 211.935 272.091C211.908 272.106 211.886 272.129 211.874 272.157C211.861 272.185 211.858 272.216 211.865 272.246C211.869 272.277 211.882 272.306 211.903 272.33C211.923 272.353 211.951 272.37 211.981 272.377C212.64 272.491 213.308 272.551 213.977 272.555ZM215.013 271.287C215.113 271.287 215.211 271.3 215.307 271.325C215.371 271.338 215.432 271.363 215.485 271.401C215.538 271.438 215.583 271.486 215.617 271.542C215.725 271.735 215.686 271.828 215.617 271.882C215.307 272.308 213.652 272.315 212.437 272.145C213.242 271.692 214.128 271.4 215.044 271.287H215.013Z" fill="#407BFF"/>
<path d="M211.995 272.377H212.057C212.83 272.029 214.416 270.614 214.292 269.871C214.292 269.701 214.145 269.484 213.72 269.438C213.566 269.422 213.411 269.437 213.264 269.482C213.116 269.528 212.979 269.602 212.861 269.701C212.026 270.389 211.848 272.153 211.84 272.223C211.839 272.25 211.845 272.277 211.857 272.301C211.869 272.326 211.887 272.346 211.91 272.362C211.935 272.378 211.965 272.383 211.995 272.377ZM213.596 269.724H213.689C213.967 269.724 213.983 269.863 213.99 269.894C214.06 270.343 213 271.441 212.188 271.936C212.262 271.19 212.565 270.485 213.054 269.918C213.206 269.791 213.398 269.723 213.596 269.724Z" fill="#407BFF"/>
<path d="M204.562 272.223H211.106L209.861 257.077H203.316L204.562 272.223Z" fill="#B55B52"/>
<path d="M211.114 271.465H203.974C203.849 271.46 203.728 271.505 203.635 271.589C203.543 271.672 203.487 271.789 203.479 271.913L203.053 277.699C203.048 277.85 203.073 277.999 203.127 278.14C203.18 278.28 203.261 278.409 203.365 278.518C203.469 278.626 203.593 278.713 203.731 278.773C203.869 278.833 204.017 278.865 204.167 278.867C206.735 278.821 210.433 278.674 213.674 278.674C217.457 278.674 217.851 278.875 222.291 278.875C224.975 278.875 225.316 276.16 224.155 275.92C218.88 274.799 217.588 274.675 212.761 271.952C212.262 271.652 211.695 271.484 211.114 271.465Z" fill="#263238"/>
<path opacity="0.2" d="M209.853 257.084L210.503 264.889H203.958L203.316 257.084H209.853Z" fill="black"/>
<path d="M173.273 272.555C173.824 272.619 174.379 272.467 174.82 272.13C174.902 272.018 174.946 271.882 174.946 271.743C174.946 271.604 174.902 271.469 174.82 271.356C174.769 271.266 174.699 271.187 174.615 271.126C174.531 271.064 174.434 271.022 174.332 271.001C173.381 270.776 171.571 272.014 171.494 272.068C171.47 272.086 171.452 272.11 171.441 272.137C171.43 272.164 171.427 272.194 171.432 272.223C171.436 272.252 171.45 272.279 171.471 272.3C171.492 272.321 171.519 272.334 171.548 272.339C172.113 272.474 172.692 272.547 173.273 272.555ZM174.093 271.31C174.157 271.302 174.222 271.302 174.286 271.31C174.346 271.322 174.403 271.347 174.452 271.383C174.501 271.419 174.542 271.465 174.572 271.519C174.712 271.774 174.626 271.882 174.572 271.913C174.294 272.285 172.956 272.285 171.981 272.122C172.6 271.701 173.306 271.423 174.046 271.31H174.093Z" fill="#407BFF"/>
<path d="M171.585 272.377H171.655C172.336 272.006 173.643 270.575 173.504 269.848C173.481 269.733 173.419 269.63 173.329 269.555C173.239 269.481 173.126 269.439 173.009 269.438C172.891 269.423 172.772 269.434 172.658 269.469C172.545 269.503 172.44 269.561 172.351 269.639C171.578 270.258 171.431 272.145 171.431 272.223C171.427 272.251 171.432 272.28 171.445 272.306C171.457 272.332 171.476 272.354 171.5 272.37C171.527 272.38 171.557 272.383 171.585 272.377ZM172.9 269.724H172.97C173.171 269.724 173.194 269.84 173.202 269.879C173.279 270.312 172.429 271.426 171.771 271.906C171.818 271.16 172.088 270.446 172.545 269.856C172.644 269.772 172.77 269.725 172.9 269.724Z" fill="#407BFF"/>
<path d="M165.6 272.223H172.136L175.424 257.077H168.887L165.6 272.223Z" fill="#B55B52"/>
<path d="M172.599 271.465H165.259C165.128 271.464 165.001 271.508 164.9 271.589C164.798 271.671 164.728 271.786 164.702 271.913L163.41 277.699C163.378 277.841 163.379 277.988 163.412 278.129C163.446 278.27 163.511 278.402 163.602 278.514C163.694 278.626 163.81 278.717 163.941 278.778C164.073 278.839 164.216 278.87 164.361 278.867C166.929 278.821 168.175 278.674 171.408 278.674C173.396 278.674 175.941 278.875 178.687 278.875C181.433 278.875 181.781 276.16 180.667 275.92C175.632 274.814 175.253 273.298 173.667 271.844C173.369 271.591 172.99 271.456 172.599 271.465Z" fill="#263238"/>
<path d="M150.067 186.267C150.067 186.267 186.345 197.275 187.243 211.848C188.89 238.69 175.725 261.563 175.725 261.563H165.916C165.916 261.563 169.645 250.223 170.983 225.911C172.662 195.356 114.886 226.623 125.569 186.267H150.067Z" fill="black"/>
<g opacity="0.2">
<path d="M168.88 257.084H175.424L173.73 264.889H167.186L168.88 257.084Z" fill="black"/>
</g>
<path d="M160.548 186.267C160.548 186.267 207.463 189.361 209.319 214.262C211.447 242.882 212.065 261.563 212.065 261.563H202.35C202.35 261.563 197.353 244.012 193.067 218.779C191.776 211.222 175.748 209.922 160.579 209.025C147.506 208.251 137.466 207.478 136.367 192.997L136.537 186.267H160.548Z" fill="#263238"/>
<path d="M214.44 258.964C214.494 258.964 213.813 263.606 213.813 263.606H200.346L199.982 259.498L214.44 258.964Z" fill="#407BFF"/>
<path d="M178.687 258.964C178.742 258.964 177.45 263.606 177.45 263.606H163.99L164.238 259.498L178.687 258.964Z" fill="#407BFF"/>
<path d="M158.436 206.967L151.869 162.358C151.692 161.15 151.087 160.046 150.164 159.248C149.241 158.45 148.061 158.01 146.841 158.01H108.094C107.364 158.01 106.642 158.167 105.978 158.471C105.315 158.775 104.724 159.219 104.247 159.772C103.77 160.324 103.417 160.973 103.213 161.675C103.01 162.376 102.96 163.113 103.066 163.835L109.409 206.967C109.409 207.464 109.507 207.955 109.697 208.414C109.888 208.872 110.166 209.289 110.518 209.639C110.869 209.99 111.286 210.268 111.745 210.457C112.204 210.646 112.695 210.743 113.192 210.742H183.823C183.823 210.246 183.725 209.754 183.535 209.296C183.345 208.837 183.066 208.421 182.715 208.07C182.364 207.72 181.947 207.442 181.488 207.252C181.029 207.063 180.537 206.966 180.041 206.967H158.436Z" fill="#407BFF"/>
<path opacity="0.5" d="M158.436 206.967L151.869 162.358C151.692 161.15 151.087 160.046 150.164 159.248C149.241 158.45 148.061 158.01 146.841 158.01H108.094C107.364 158.01 106.642 158.167 105.978 158.471C105.315 158.775 104.724 159.219 104.247 159.772C103.77 160.324 103.417 160.973 103.213 161.675C103.01 162.376 102.96 163.113 103.066 163.835L109.409 206.967C109.409 207.464 109.507 207.955 109.697 208.414C109.888 208.872 110.166 209.289 110.518 209.639C110.869 209.99 111.286 210.268 111.745 210.457C112.204 210.646 112.695 210.743 113.192 210.742H183.823C183.823 210.246 183.725 209.754 183.535 209.296C183.345 208.837 183.066 208.421 182.715 208.07C182.364 207.72 181.947 207.442 181.488 207.252C181.029 207.063 180.537 206.966 180.041 206.967H158.436Z" fill="white"/>
<path opacity="0.3" d="M146.841 158.01H108.094C107.364 158.01 106.642 158.167 105.978 158.471C105.315 158.775 104.724 159.219 104.247 159.772C103.77 160.324 103.417 160.973 103.213 161.675C103.01 162.376 102.96 163.113 103.066 163.835L109.409 206.967C109.409 207.464 109.507 207.955 109.697 208.414C109.888 208.872 110.166 209.289 110.518 209.639C110.869 209.99 111.286 210.268 111.745 210.457C112.204 210.646 112.695 210.743 113.192 210.742H154.274L146.841 158.01Z" fill="#407BFF"/>
<path d="M109.904 279.432H107.715L113.191 210.742H115.388L109.904 279.432Z" fill="#407BFF"/>
<path opacity="0.6" d="M109.904 279.432H107.715L113.191 210.742H115.388L109.904 279.432Z" fill="white"/>
<path d="M147.15 279.432H144.961L150.445 210.742H152.634L147.15 279.432Z" fill="#407BFF"/>
<path opacity="0.6" d="M147.15 279.432H144.961L150.445 210.742H152.634L147.15 279.432Z" fill="white"/>
<path d="M150.523 279.432H148.326L142.85 210.742H145.039L150.523 279.432Z" fill="#407BFF"/>
<path opacity="0.7" d="M150.523 279.432H148.326L142.85 210.742H145.039L150.523 279.432Z" fill="white"/>
<path d="M187.769 279.432H185.58L180.096 210.742H182.285L187.769 279.432Z" fill="#407BFF"/>
<path opacity="0.7" d="M187.769 279.432H185.58L180.096 210.742H182.285L187.769 279.432Z" fill="white"/>
</svg>
