<svg width="380" height="284" viewBox="0 0 380 284" fill="none" xmlns="http://www.w3.org/2000/svg">
<path d="M380 248.824H0V249.014H380V248.824Z" fill="#E6E6E6"/>
<path d="M86.5327 254.919H60.3887V255.109H86.5327V254.919Z" fill="#E6E6E6"/>
<path d="M99.3558 254.919H91.543V255.109H99.3558V254.919Z" fill="#E6E6E6"/>
<path d="M137.901 251.188H123.188V251.377H137.901V251.188Z" fill="#E6E6E6"/>
<path d="M327.264 259.137H294.439V259.327H327.264V259.137Z" fill="#E6E6E6"/>
<path d="M338.846 259.137H334.035V259.327H338.846V259.137Z" fill="#E6E6E6"/>
<path d="M302.746 252.464H231.549V252.654H302.746V252.464Z" fill="#E6E6E6"/>
<path d="M180.119 214.928H33.3711C32.2214 214.926 31.1196 214.468 30.3074 213.654C29.4952 212.841 29.0391 211.738 29.0391 210.588V4.3016C29.0491 3.15858 29.5096 2.06566 30.3208 1.26025C31.1319 0.454828 32.228 0.00195805 33.3711 0H180.119C181.27 0 182.374 0.457207 183.188 1.27104C184.002 2.08487 184.459 3.18867 184.459 4.3396V210.588C184.459 211.739 184.002 212.843 183.188 213.657C182.374 214.471 181.27 214.928 180.119 214.928ZM33.3711 0.152001C32.2718 0.154014 31.2183 0.592089 30.4418 1.37007C29.6652 2.14806 29.2291 3.20237 29.2291 4.3016V210.588C29.2291 211.688 29.6652 212.742 30.4418 213.52C31.2183 214.298 32.2718 214.736 33.3711 214.738H180.119C181.219 214.736 182.274 214.298 183.051 213.52C183.829 212.743 184.267 211.688 184.269 210.588V4.3016C184.267 3.20167 183.829 2.14737 183.051 1.36961C182.274 0.591843 181.219 0.15401 180.119 0.152001H33.3711Z" fill="#E6E6E6"/>
<path d="M344.516 214.928H197.76C196.609 214.926 195.507 214.468 194.693 213.655C193.88 212.841 193.422 211.739 193.42 210.588V4.3016C193.432 3.15789 193.894 2.06498 194.707 1.25977C195.519 0.454563 196.616 0.0019367 197.76 0H344.516C345.657 0.00395542 346.751 0.457709 347.561 1.26291C348.37 2.06812 348.83 3.15989 348.84 4.3016V210.588C348.84 211.737 348.385 212.838 347.574 213.652C346.764 214.465 345.664 214.924 344.516 214.928ZM197.76 0.152001C196.66 0.15401 195.605 0.591843 194.828 1.36961C194.05 2.14737 193.612 3.20167 193.61 4.3016V210.588C193.612 211.688 194.05 212.743 194.828 213.52C195.605 214.298 196.66 214.736 197.76 214.738H344.516C345.615 214.736 346.67 214.298 347.448 213.52C348.225 212.743 348.663 211.688 348.665 210.588V4.3016C348.663 3.20167 348.225 2.14737 347.448 1.36961C346.67 0.591843 345.615 0.15401 344.516 0.152001H197.76Z" fill="#E6E6E6"/>
<path d="M318.454 145.244H265.201V248.824H318.454V145.244Z" fill="#F5F5F5"/>
<path d="M318.455 145.244H314.062V248.824H318.455V145.244Z" fill="#F0F0F0"/>
<path d="M146.696 170.574L269.307 170.574V148.2H146.696V170.574Z" fill="#E0E0E0"/>
<path d="M197.819 248.9H145.25C145.049 248.9 144.855 248.82 144.713 248.677C144.57 248.535 144.49 248.341 144.49 248.14C144.49 247.938 144.57 247.745 144.713 247.603C144.855 247.46 145.049 247.38 145.25 247.38H197.819C205.419 247.38 206.43 245.161 206.43 236.36V125.4C206.43 125.198 206.51 125.005 206.653 124.862C206.795 124.72 206.989 124.64 207.19 124.64C207.392 124.64 207.585 124.72 207.728 124.862C207.87 125.005 207.95 125.198 207.95 125.4V236.36C207.95 245.769 206.491 248.9 197.819 248.9Z" fill="#E0E0E0"/>
<path d="M151.407 153.414L317.254 153.414V145.646L151.407 145.646V153.414Z" fill="#F0F0F0"/>
<path d="M152.609 145.244H99.3555V248.824H152.609V145.244Z" fill="#F5F5F5"/>
<path d="M152.6 145.244H148.207V248.824H152.6V145.244Z" fill="#F0F0F0"/>
<path d="M114.896 248.824L114.896 64.3721H69.1977L69.1977 248.824H114.896Z" fill="#FAFAFA"/>
<path d="M112.389 110.443V69.7605H71.7059V110.443H112.389Z" fill="#F5F5F5"/>
<path d="M83.0371 69.2131H101.08C101.08 70.3318 100.635 71.4047 99.8441 72.1957C99.053 72.9867 97.9802 73.4311 96.8615 73.4311H87.2855C86.729 73.4351 86.1773 73.329 85.662 73.1188C85.1467 72.9086 84.6782 72.5986 84.2833 72.2065C83.8884 71.8144 83.5749 71.3481 83.3611 70.8343C83.1472 70.3206 83.0371 69.7696 83.0371 69.2131Z" fill="#E0E0E0"/>
<path d="M112.381 154.774V114.091H71.6981V154.774H112.381Z" fill="#F5F5F5"/>
<path d="M112.389 199.105V158.422H71.7059V199.105H112.389Z" fill="#F5F5F5"/>
<path d="M112.389 243.443V202.76H71.7059V243.443H112.389Z" fill="#F5F5F5"/>
<path d="M83.0371 113.552H101.08C101.077 114.67 100.632 115.741 99.8419 116.532C99.0513 117.322 97.9796 117.768 96.8615 117.77H87.2855C86.7293 117.773 86.178 117.666 85.6632 117.455C85.1484 117.245 84.6802 116.935 84.2855 116.543C83.8908 116.151 83.5773 115.685 83.3631 115.172C83.1489 114.658 83.0381 114.108 83.0371 113.552Z" fill="#E0E0E0"/>
<path d="M83.0371 157.882H101.08C101.08 159.001 100.635 160.074 99.8441 160.865C99.053 161.656 97.9802 162.1 96.8615 162.1H87.2855C86.729 162.104 86.1773 161.998 85.662 161.788C85.1467 161.578 84.6782 161.268 84.2833 160.876C83.8884 160.484 83.5749 160.017 83.3611 159.504C83.1472 158.99 83.0371 158.439 83.0371 157.882Z" fill="#E0E0E0"/>
<path d="M83.0371 202.213H101.08C101.08 203.332 100.635 204.405 99.8441 205.196C99.053 205.987 97.9802 206.431 96.8615 206.431H87.2855C86.729 206.435 86.1773 206.329 85.662 206.119C85.1467 205.909 84.6782 205.599 84.2833 205.207C83.8884 204.814 83.5749 204.348 83.3611 203.834C83.1472 203.321 83.0371 202.77 83.0371 202.213Z" fill="#E0E0E0"/>
<path d="M69.1973 248.824L69.1973 64.3721H46.3745L46.3745 248.824H69.1973Z" fill="#F0F0F0"/>
<path d="M200.937 145.243H189.453L192.242 122.884H203.734L200.937 145.243Z" fill="#F0F0F0"/>
<path d="M203.481 145.243H191.99L194.787 122.884H206.271L203.481 145.243Z" fill="#F5F5F5"/>
<path d="M228.122 145.244H219.815L218.227 142.713H226.526L228.122 145.244Z" fill="#F0F0F0"/>
<path d="M272.628 145.244H222.354L220.766 142.713H265.849L272.628 145.244Z" fill="#FAFAFA"/>
<path d="M164.51 138.829H168.142C169.844 138.829 171.475 139.505 172.678 140.708C173.881 141.911 174.557 143.542 174.557 145.244H158.08C158.08 144.4 158.246 143.565 158.57 142.785C158.893 142.006 159.367 141.298 159.964 140.702C160.561 140.107 161.27 139.634 162.05 139.313C162.83 138.992 163.666 138.827 164.51 138.829Z" fill="#F0F0F0"/>
<path d="M204.872 134.064H193.389L194.787 122.884H206.271L204.872 134.064Z" fill="#F0F0F0"/>
<path d="M162.641 131.389H243.961C244.121 131.389 244.279 131.355 244.425 131.289C244.571 131.224 244.701 131.127 244.807 131.007C244.912 130.887 244.991 130.746 245.038 130.593C245.085 130.44 245.098 130.278 245.078 130.12L238.815 80.0205C238.782 79.7477 238.65 79.4967 238.444 79.3147C238.238 79.1327 237.973 79.0323 237.698 79.0325H156.401C156.242 79.0324 156.084 79.0661 155.939 79.1315C155.793 79.1968 155.664 79.2923 155.558 79.4116C155.452 79.5308 155.373 79.6712 155.326 79.8233C155.279 79.9755 155.264 80.1359 155.284 80.2941L161.546 130.401C161.579 130.67 161.708 130.918 161.909 131.099C162.11 131.281 162.37 131.384 162.641 131.389Z" fill="#F0F0F0"/>
<path d="M163.87 131.389H245.137C245.297 131.389 245.455 131.355 245.601 131.289C245.747 131.224 245.877 131.127 245.983 131.007C246.089 130.887 246.168 130.746 246.215 130.593C246.261 130.44 246.275 130.278 246.254 130.12L239.992 80.0205C239.957 79.7484 239.824 79.4983 239.619 79.3166C239.414 79.1349 239.149 79.0339 238.875 79.0325H157.608C157.449 79.0324 157.291 79.0661 157.146 79.1315C157.001 79.1968 156.871 79.2923 156.765 79.4116C156.66 79.5308 156.58 79.6712 156.533 79.8233C156.486 79.9755 156.471 80.1359 156.491 80.2941L162.753 130.401C162.787 130.674 162.919 130.925 163.124 131.107C163.33 131.289 163.596 131.389 163.87 131.389Z" fill="#F5F5F5"/>
<path d="M243.632 128.615L237.773 81.7228C237.762 81.6462 237.723 81.5763 237.665 81.526C237.606 81.4757 237.531 81.4484 237.454 81.4492H159.424C159.38 81.4475 159.335 81.4558 159.294 81.4734C159.253 81.4909 159.216 81.5173 159.186 81.5507C159.157 81.5841 159.135 81.6236 159.122 81.6665C159.109 81.7094 159.106 81.7546 159.113 81.7988L164.972 128.698C164.982 128.774 165.019 128.844 165.076 128.895C165.134 128.945 165.208 128.973 165.284 128.972H243.321C243.366 128.971 243.41 128.961 243.45 128.942C243.491 128.923 243.527 128.896 243.556 128.863C243.585 128.829 243.607 128.79 243.621 128.747C243.634 128.704 243.638 128.659 243.632 128.615Z" fill="#E0E0E0"/>
<path d="M213.932 145.244H195.22V145.008C195.22 144.514 195.417 144.041 195.766 143.691C196.115 143.342 196.589 143.146 197.082 143.146H212.07C212.563 143.146 213.037 143.342 213.386 143.691C213.735 144.041 213.932 144.514 213.932 145.008V145.244Z" fill="#FAFAFA"/>
<path d="M197.402 145.244H184.71V145.008C184.71 144.514 184.907 144.041 185.256 143.691C185.605 143.342 186.079 143.146 186.572 143.146H195.54C196.034 143.146 196.508 143.342 196.857 143.691C197.206 144.041 197.402 144.514 197.402 145.008V145.244Z" fill="#F0F0F0"/>
<path d="M88.5091 43.5405V43.5025C88.6839 42.9173 88.8511 42.3245 88.9955 41.7317C89.2528 42.1415 89.6028 42.485 90.0174 42.7345C90.4319 42.984 90.8993 43.1326 91.3819 43.1681H91.5871C92.8563 43.0465 94.0723 41.8153 94.8399 39.8773C94.8547 39.8425 94.8624 39.805 94.8624 39.7671C94.8624 39.7292 94.8547 39.6918 94.8399 39.6569C94.803 39.5875 94.7402 39.5356 94.6651 39.5125C93.7541 39.2816 92.8046 39.2455 91.8787 39.4066C90.9528 39.5677 90.0714 39.9223 89.2919 40.4473C89.4059 39.8849 89.5047 39.3149 89.5883 38.7525C89.7887 38.7912 89.9922 38.8115 90.1963 38.8133C92.2635 38.8133 93.7835 36.9665 93.8595 36.8753C93.8862 36.8418 93.9048 36.8025 93.9135 36.7605C93.9223 36.7186 93.9211 36.6751 93.91 36.6337C93.8989 36.5923 93.8783 36.5541 93.8497 36.5221C93.8211 36.4901 93.7854 36.4653 93.7455 36.4497C93.2652 36.2113 92.74 36.0772 92.2043 36.0563C91.6685 36.0353 91.1344 36.128 90.6371 36.3281C90.1062 36.5981 89.6769 37.0327 89.4135 37.5669C89.0262 36.3777 88.3182 35.3184 87.3675 34.5057C86.4167 33.6931 85.2601 33.1587 84.0251 32.9613C83.9867 32.9523 83.9468 32.9523 83.9085 32.9616C83.8702 32.9708 83.8346 32.989 83.8047 33.0145C83.7728 33.0369 83.7466 33.0665 83.7281 33.1008C83.7097 33.1351 83.6994 33.1732 83.6983 33.2121C83.5919 35.0893 83.6527 37.3921 85.0587 38.4865C85.6468 38.9202 86.3654 39.1401 87.0955 39.1097C87.7495 39.094 88.3986 38.9917 89.0259 38.8057C88.8251 40.1639 88.5331 41.5071 88.1519 42.8261C86.7765 40.9521 84.8251 39.58 82.5963 38.9197C82.5258 38.9033 82.4517 38.9147 82.3895 38.9515C82.3272 38.9883 82.2815 39.0477 82.2619 39.1173C81.8363 40.7361 82.0567 42.0509 82.8927 42.9173C83.3178 43.2992 83.8155 43.5916 84.3561 43.777C84.8966 43.9624 85.469 44.0371 86.0391 43.9965C86.6518 43.9926 87.2627 43.929 87.8631 43.8065C87.5135 44.9161 87.1031 46.0029 86.7155 47.0365C85.8719 46.2765 83.3867 44.3917 80.6811 45.1821C80.6084 45.2062 80.5483 45.2581 80.5139 45.3265C80.499 45.3614 80.4914 45.3988 80.4914 45.4367C80.4914 45.4746 80.499 45.5121 80.5139 45.5469C81.2739 47.3405 82.0871 48.3361 83.1359 48.6781C83.4154 48.7703 83.708 48.8165 84.0023 48.8149C84.8054 48.7808 85.588 48.5512 86.2823 48.1461C85.7047 49.5217 85.0891 50.8061 84.5039 51.9461C83.8093 51.2378 82.9366 50.7298 81.9776 50.4757C81.0186 50.2216 80.0089 50.2307 79.0547 50.5021C78.9896 50.515 78.9316 50.5518 78.8923 50.6052C78.8529 50.6587 78.8349 50.7249 78.8419 50.7909C78.9091 51.3657 79.1264 51.9127 79.4719 52.3769C79.8174 52.8411 80.279 53.2063 80.8103 53.4357C81.2111 53.6081 81.6431 53.6961 82.0795 53.6941C82.6848 53.6865 83.2793 53.5327 83.8123 53.2457C83.2195 54.3477 82.6723 55.2673 82.2467 55.9665H77.0787C76.2579 54.5605 75.3079 52.8125 74.3807 50.8517C74.8125 50.9807 75.26 51.0497 75.7107 51.0569C76.2649 51.0638 76.8133 50.943 77.3133 50.7038C77.8133 50.4646 78.2515 50.1135 78.5939 49.6777C78.9364 49.2419 79.1739 48.7331 79.2881 48.1908C79.4023 47.6484 79.39 47.087 79.2523 46.5501C79.2345 46.4878 79.1946 46.4341 79.14 46.3991C79.0854 46.3641 79.0199 46.3502 78.9559 46.3601C77.9005 46.463 76.8854 46.8186 75.9964 47.3967C75.1075 47.9748 74.3708 48.7584 73.8487 49.6813C73.2407 48.3133 72.6479 46.8617 72.1311 45.3645C72.7889 45.7388 73.5258 45.9523 74.2819 45.9877C74.5819 45.9911 74.8802 45.9423 75.1635 45.8433C76.6835 45.3417 77.5575 43.5101 78.3023 41.6101C78.3191 41.5758 78.3278 41.5381 78.3278 41.4999C78.3278 41.4617 78.3191 41.424 78.3023 41.3897C78.2848 41.3548 78.2602 41.324 78.2301 41.2991C78.2 41.2743 78.165 41.2559 78.1275 41.2453C75.0875 40.3941 72.5871 43.3201 71.8119 44.3689C71.4065 43.1034 71.0691 41.8172 70.8011 40.5157C71.4397 40.6407 72.0884 40.7069 72.7391 40.7133C73.3857 40.7606 74.0352 40.6743 74.6471 40.4599C75.2589 40.2455 75.8202 39.9075 76.2959 39.4669C77.2155 38.4941 77.4359 37.0349 76.9419 35.2565C76.9331 35.2217 76.9174 35.1889 76.8956 35.1603C76.8739 35.1317 76.8465 35.1078 76.8153 35.09C76.784 35.0723 76.7495 35.061 76.7138 35.057C76.6781 35.0529 76.6419 35.0562 76.6075 35.0665C74.1821 35.8233 72.0709 37.3527 70.5959 39.4213L70.4819 38.7297C70.4738 38.6699 70.4473 38.6141 70.4059 38.5701C70.2805 38.1204 70.0622 37.7021 69.765 37.3421C69.4679 36.9821 69.0984 36.6884 68.6807 36.4801C68.1324 36.2686 67.5456 36.1755 66.9588 36.2069C66.3719 36.2384 65.7984 36.3936 65.2759 36.6625C65.2357 36.6799 65.1999 36.7059 65.171 36.7388C65.1421 36.7716 65.1208 36.8105 65.1087 36.8525C65.0993 36.8938 65.1 36.9367 65.1106 36.9777C65.1211 37.0187 65.1413 37.0565 65.1695 37.0881C65.2455 37.1869 66.9175 39.1629 69.1671 39.1629C69.4096 39.1598 69.6512 39.1343 69.8891 39.0869C69.9879 39.7329 70.1095 40.3789 70.2463 41.0173C69.3796 40.4468 68.4018 40.0664 67.3773 39.9014C66.3529 39.7363 65.3051 39.7903 64.3031 40.0597C64.228 40.0828 64.1651 40.1347 64.1283 40.2041C64.1132 40.2402 64.1055 40.279 64.1055 40.3181C64.1055 40.3573 64.1132 40.396 64.1283 40.4321C65.0023 42.5449 66.3551 43.8825 67.7535 43.9965H67.9435C68.6503 43.9965 69.6079 43.6697 70.5807 42.3701C70.9638 43.8478 71.4255 45.304 71.9639 46.7325C70.6491 46.1093 67.6927 45.0377 65.5799 46.6717C65.5508 46.6927 65.5263 46.7194 65.5078 46.7501C65.4894 46.7808 65.4773 46.8149 65.4723 46.8504C65.4673 46.8859 65.4696 46.922 65.4789 46.9566C65.4883 46.9912 65.5045 47.0236 65.5267 47.0517C66.8947 48.9137 68.1563 49.8181 69.3951 49.8181C70.4211 49.8181 71.4015 49.1721 72.3819 47.8953C72.9443 49.2937 73.5523 50.6313 74.1527 51.8625C72.8379 51.0493 71.3939 51.1785 69.6915 52.2501C69.6521 52.2737 69.6195 52.3071 69.5968 52.3471C69.5742 52.3871 69.5623 52.4322 69.5623 52.4781C69.5592 52.5228 69.5681 52.5676 69.5881 52.6077C69.6082 52.6478 69.6386 52.6818 69.6763 52.7061C70.6902 53.4369 71.8876 53.8712 73.1343 53.9601C73.7774 53.9729 74.4081 53.7813 74.9355 53.4129C75.4219 54.3477 75.9007 55.2065 76.3415 55.9741H73.9931V57.3117H74.8443L75.5511 64.3949H85.9555L86.6547 57.3117H87.5135V55.9741H82.8395C83.3563 55.1153 84.0175 53.9677 84.7243 52.6225C84.7454 52.5954 84.7609 52.5644 84.7699 52.5313C84.9523 52.1893 85.1271 51.8397 85.3095 51.4749C85.6186 51.9426 86.0351 52.3294 86.5244 52.6031C87.0136 52.8768 87.5612 53.0294 88.1215 53.0481C88.2379 53.0557 88.3547 53.0557 88.4711 53.0481C89.0902 52.9779 89.6778 52.7377 90.1688 52.3541C90.6597 51.9704 91.0349 51.4583 91.2527 50.8745C91.2751 50.8145 91.2752 50.7485 91.2529 50.6884C91.2305 50.6284 91.1873 50.5784 91.1311 50.5477C90.3342 50.0976 89.4416 49.8435 88.5272 49.8065C87.6127 49.7695 86.7025 49.9506 85.8719 50.3349C86.2671 49.5065 86.6319 48.6173 87.0271 47.6977C87.0569 47.6636 87.0755 47.6212 87.0803 47.5761C87.1867 47.3177 87.2855 47.0593 87.3919 46.8161C88.2963 47.9561 89.1931 48.5185 90.1279 48.5185C91.2603 48.5185 92.4079 47.6825 93.6391 45.9573C93.6818 45.8997 93.7002 45.8275 93.6903 45.7564C93.6803 45.6853 93.6428 45.621 93.5859 45.5773C91.6479 44.1257 89.0259 45.1213 87.7947 45.6989C88.0455 45.0149 88.2735 44.3233 88.4863 43.6165L88.5091 43.5405Z" fill="#E0E0E0"/>
<path d="M305.878 40.3333H267.012V83.0073H305.878V40.3333Z" fill="#E0E0E0"/>
<path d="M301.081 42.0812C301.048 42.0889 301.015 42.0889 300.982 42.0812C300.891 42.0204 291.71 36.5636 288.822 36.5636C285.934 36.5636 277.156 42.0204 277.065 42.0736C277.044 42.0873 277.021 42.0966 276.996 42.101C276.972 42.1053 276.947 42.1047 276.923 42.099C276.898 42.0933 276.876 42.0827 276.856 42.0679C276.836 42.053 276.819 42.0343 276.807 42.0128C276.781 41.9703 276.773 41.9195 276.784 41.8712C276.796 41.8229 276.825 41.781 276.867 41.7544C277.232 41.5264 285.797 36.1836 288.822 36.1836C291.847 36.1836 300.83 41.5036 301.21 41.7544C301.232 41.7669 301.25 41.7836 301.265 41.8035C301.28 41.8235 301.291 41.8463 301.296 41.8705C301.302 41.8947 301.303 41.9198 301.298 41.9443C301.294 41.9687 301.285 41.9921 301.271 42.0128C301.25 42.0416 301.22 42.0635 301.186 42.0757C301.152 42.0879 301.116 42.0898 301.081 42.0812Z" fill="#EBEBEB"/>
<path d="M310.081 40.3333H269.938V83.0073H310.081V40.3333Z" fill="#F5F5F5"/>
<path d="M306.721 79.6404V43.6924H273.304V79.6404H306.721Z" fill="white"/>
<path d="M296.484 68.1427C300.06 64.5663 300.06 58.7677 296.484 55.1913C292.907 51.6149 287.109 51.6149 283.532 55.1913C279.956 58.7677 279.956 64.5663 283.532 68.1427C287.109 71.7191 292.907 71.7191 296.484 68.1427Z" fill="#E0E0E0"/>
<path d="M289.232 197.03H323.296C326.421 197.033 329.423 195.809 331.655 193.622C333.888 191.435 335.174 188.459 335.235 185.334L336.512 122.968C336.535 121.811 336.327 120.66 335.9 119.584C335.474 118.508 334.836 117.528 334.026 116.702C333.216 115.875 332.248 115.218 331.181 114.77C330.114 114.322 328.968 114.091 327.81 114.091H306.454C304.317 114.091 302.256 114.877 300.662 116.3C299.068 117.723 298.054 119.682 297.813 121.805L289.232 197.03Z" fill="#E6E6E6"/>
<path d="M307.822 197.03H271.525C271.073 197.03 270.64 196.851 270.321 196.531C270.002 196.212 269.822 195.779 269.822 195.328V195.168C269.822 193.93 270.314 192.744 271.189 191.868C272.064 190.993 273.251 190.502 274.489 190.502H307.822V197.03Z" fill="#E6E6E6"/>
<path d="M304.958 249.675C304.781 249.679 304.608 249.621 304.47 249.512C304.331 249.402 304.235 249.248 304.198 249.075L293.558 197.79H275.014L264.374 249.075C264.332 249.276 264.213 249.453 264.041 249.567C263.869 249.68 263.659 249.72 263.458 249.679C263.256 249.638 263.079 249.518 262.966 249.346C262.853 249.174 262.812 248.965 262.854 248.763L273.631 196.878C273.666 196.704 273.762 196.547 273.9 196.436C274.039 196.325 274.213 196.266 274.391 196.27H294.151C294.328 196.266 294.502 196.325 294.641 196.436C294.779 196.547 294.875 196.704 294.911 196.878L305.68 248.763C305.72 248.96 305.681 249.164 305.572 249.332C305.462 249.5 305.291 249.618 305.095 249.66C305.05 249.671 305.004 249.676 304.958 249.675Z" fill="#E6E6E6"/>
<path d="M293.399 249.675C293.348 249.683 293.297 249.683 293.247 249.675C293.149 249.655 293.056 249.616 292.973 249.56C292.891 249.505 292.82 249.433 292.765 249.35C292.71 249.266 292.672 249.173 292.653 249.075C292.634 248.977 292.634 248.876 292.654 248.779L303.431 196.893C303.466 196.719 303.562 196.563 303.701 196.452C303.84 196.341 304.013 196.282 304.191 196.285H323.951C324.129 196.282 324.302 196.341 324.441 196.452C324.58 196.563 324.675 196.719 324.711 196.893L335.48 248.779C335.501 248.878 335.501 248.981 335.482 249.081C335.463 249.181 335.424 249.277 335.368 249.362C335.312 249.447 335.239 249.52 335.155 249.577C335.07 249.634 334.976 249.674 334.876 249.694C334.776 249.715 334.673 249.715 334.573 249.696C334.473 249.677 334.378 249.638 334.293 249.582C334.208 249.526 334.135 249.453 334.078 249.369C334.02 249.285 333.981 249.19 333.96 249.09L323.32 197.805H304.761L294.121 249.09C294.082 249.254 293.99 249.4 293.86 249.506C293.729 249.612 293.567 249.671 293.399 249.675Z" fill="#E6E6E6"/>
<path d="M190.001 283.146C271.384 283.146 337.357 279.294 337.357 274.542C337.357 269.791 271.384 265.939 190.001 265.939C108.618 265.939 42.6445 269.791 42.6445 274.542C42.6445 279.294 108.618 283.146 190.001 283.146Z" fill="#F5F5F5"/>
<path d="M203.004 267.52C202.766 267.519 202.535 267.437 202.351 267.286C202.167 267.135 202.04 266.925 201.993 266.692L187.553 195.586H162.405L147.965 266.692C147.896 266.945 147.733 267.163 147.51 267.3C147.286 267.438 147.019 267.486 146.762 267.434C146.504 267.381 146.277 267.233 146.125 267.019C145.973 266.805 145.908 266.541 145.943 266.281L160.55 194.347C160.599 194.114 160.726 193.905 160.909 193.755C161.093 193.604 161.323 193.521 161.561 193.519H188.389C188.627 193.519 188.858 193.602 189.042 193.753C189.226 193.904 189.353 194.114 189.4 194.347L204.015 266.281C204.068 266.549 204.014 266.828 203.863 267.056C203.712 267.283 203.477 267.442 203.209 267.497L203.004 267.52Z" fill="#407BFF"/>
<path d="M162.64 267.52C162.402 267.518 162.172 267.435 161.988 267.284C161.804 267.133 161.678 266.924 161.629 266.692L147.189 195.586H122.041L107.601 266.692C107.582 266.832 107.534 266.966 107.461 267.087C107.388 267.208 107.29 267.313 107.175 267.395C107.06 267.477 106.929 267.534 106.791 267.563C106.652 267.593 106.509 267.593 106.371 267.565C106.232 267.537 106.101 267.481 105.985 267.4C105.869 267.319 105.771 267.215 105.697 267.095C105.623 266.974 105.574 266.84 105.554 266.7C105.533 266.56 105.542 266.418 105.579 266.281L120.194 194.347C120.241 194.114 120.368 193.904 120.552 193.753C120.736 193.602 120.967 193.519 121.205 193.519H148.033C148.27 193.52 148.5 193.603 148.682 193.754C148.865 193.905 148.99 194.114 149.036 194.347L163.651 266.281C163.705 266.549 163.65 266.828 163.499 267.056C163.348 267.283 163.113 267.442 162.845 267.497L162.64 267.52Z" fill="#407BFF"/>
<path d="M168.288 194.56H122.08C117.838 194.561 113.766 192.899 110.736 189.931C107.707 186.962 105.962 182.924 105.876 178.684L104.159 108.46C104.126 106.89 104.408 105.33 104.986 103.87C105.564 102.41 106.427 101.081 107.526 99.959C108.624 98.8373 109.935 97.9459 111.383 97.3371C112.83 96.7284 114.384 96.4145 115.954 96.4138H144.925C147.825 96.4157 150.622 97.484 152.784 99.4153C154.947 101.347 156.324 104.006 156.652 106.887L168.288 194.56Z" fill="#407BFF"/>
<path d="M143.086 185.668H188.306C189.985 185.668 191.595 186.335 192.782 187.522C193.97 188.71 194.637 190.32 194.637 191.999V192.219C194.637 192.824 194.397 193.404 193.969 193.832C193.541 194.259 192.961 194.499 192.357 194.499H143.086V185.668Z" fill="#407BFF"/>
<g opacity="0.3">
<path d="M203.004 267.52C202.766 267.52 202.535 267.437 202.351 267.286C202.167 267.135 202.04 266.925 201.993 266.692L187.553 195.586H162.405L147.965 266.692C147.896 266.945 147.733 267.163 147.51 267.301C147.286 267.438 147.019 267.486 146.762 267.434C146.504 267.382 146.277 267.233 146.125 267.019C145.973 266.805 145.908 266.542 145.943 266.281L160.55 194.347C160.599 194.115 160.726 193.906 160.909 193.755C161.093 193.604 161.323 193.521 161.561 193.519H188.389C188.627 193.52 188.858 193.602 189.042 193.753C189.226 193.904 189.353 194.114 189.4 194.347L204.015 266.281C204.068 266.549 204.014 266.828 203.863 267.056C203.712 267.284 203.477 267.442 203.209 267.497L203.004 267.52Z" fill="black"/>
<path d="M162.64 267.52C162.402 267.518 162.172 267.435 161.988 267.284C161.804 267.134 161.678 266.925 161.629 266.692L147.189 195.586H122.041L107.601 266.692C107.582 266.832 107.534 266.967 107.461 267.088C107.388 267.209 107.29 267.313 107.175 267.395C107.06 267.477 106.929 267.534 106.791 267.564C106.652 267.593 106.509 267.593 106.371 267.565C106.232 267.537 106.101 267.481 105.985 267.4C105.869 267.319 105.771 267.215 105.697 267.095C105.623 266.975 105.574 266.84 105.554 266.7C105.533 266.56 105.542 266.418 105.579 266.281L120.194 194.347C120.241 194.114 120.368 193.904 120.552 193.753C120.736 193.602 120.967 193.52 121.205 193.519H148.033C148.27 193.52 148.5 193.603 148.682 193.754C148.865 193.905 148.99 194.115 149.036 194.347L163.651 266.281C163.705 266.549 163.65 266.828 163.499 267.056C163.348 267.284 163.113 267.442 162.845 267.497L162.64 267.52Z" fill="black"/>
<path d="M168.288 194.56H122.08C117.838 194.561 113.766 192.899 110.736 189.931C107.707 186.962 105.962 182.924 105.876 178.684L104.159 108.46C104.126 106.89 104.408 105.33 104.986 103.87C105.564 102.41 106.427 101.081 107.526 99.959C108.624 98.8373 109.935 97.9459 111.383 97.3371C112.83 96.7284 114.384 96.4145 115.954 96.4138H144.925C147.825 96.4157 150.622 97.484 152.784 99.4153C154.947 101.347 156.324 104.006 156.652 106.887L168.288 194.56Z" fill="black"/>
<path d="M143.086 185.668H188.306C189.985 185.668 191.595 186.335 192.782 187.522C193.97 188.71 194.637 190.32 194.637 191.999V192.219C194.637 192.824 194.397 193.404 193.969 193.832C193.541 194.259 192.961 194.499 192.357 194.499H143.086V185.668Z" fill="black"/>
</g>
<path d="M155.428 92.5376C155.428 92.5376 161.888 100.974 157.708 117.77C153.528 134.566 131.96 125.446 130.652 110.306C129.132 92.4616 149.166 104.766 152.692 88.8972L155.428 92.5376Z" fill="#263238"/>
<path d="M150.739 87.5293C147.935 89.5053 146.825 92.3781 149.926 95.1901C153.027 98.0021 157.45 97.9109 158.787 96.7557C160.125 95.6005 159.859 89.7333 159.859 89.7333L150.739 87.5293Z" fill="#407BFF"/>
<path opacity="0.8" d="M150.739 87.5293C147.935 89.5053 146.825 92.3781 149.926 95.1901C153.027 98.0021 157.45 97.9109 158.787 96.7557C160.125 95.6005 159.859 89.7333 159.859 89.7333L150.739 87.5293Z" fill="white"/>
<path d="M186.154 124.914C186.23 125.256 186.36 125.788 186.481 126.236L186.846 127.665C187.104 128.622 187.386 129.58 187.682 130.538C188.244 132.468 188.868 134.391 189.521 136.314C190.175 138.236 190.844 140.114 191.573 142.059C191.93 143.009 192.288 143.967 192.668 144.917L193.108 146.057C193.196 146.252 193.312 146.433 193.45 146.596C194.532 147.691 195.85 148.523 197.304 149.028C199.079 149.743 200.909 150.312 202.776 150.731C204.706 151.179 206.69 151.552 208.696 151.863C210.702 152.175 212.762 152.426 214.738 152.623L214.806 156.712C210.471 157.16 206.1 157.16 201.765 156.712C199.499 156.478 197.258 156.043 195.069 155.412C193.884 155.054 192.73 154.599 191.619 154.052C190.34 153.431 189.17 152.607 188.153 151.612C187.563 151.025 187.052 150.363 186.633 149.644C186.519 149.462 186.42 149.256 186.314 149.066L186.116 148.656L185.767 147.896C185.296 146.931 184.824 145.966 184.391 144.985C183.51 143.024 182.651 141.048 181.883 139.034C181.116 137.02 180.363 134.991 179.725 132.954C179.413 131.906 179.109 130.864 178.828 129.793L178.41 128.189C178.288 127.612 178.174 127.133 178.053 126.449L186.154 124.914Z" fill="#E58A7B"/>
<path d="M183.57 116.28C186.831 117.108 189.103 130.515 189.103 130.515L180.128 136.595C180.128 136.595 171.517 123.067 174.048 119.487C176.639 115.809 178.813 115.094 183.57 116.28Z" fill="#407BFF"/>
<path opacity="0.5" d="M183.57 116.28C186.831 117.108 189.103 130.515 189.103 130.515L180.128 136.595C180.128 136.595 171.517 123.067 174.048 119.487C176.639 115.809 178.813 115.094 183.57 116.28Z" fill="white"/>
<path opacity="0.2" d="M182.401 119.655L174.596 125.841C176.116 129.599 177.965 133.215 180.121 136.648L186.345 132.415L182.401 119.655Z" fill="#407BFF"/>
<path d="M183.572 116.28C183.572 116.28 187.372 117.602 179.772 163.985H147.685C148.224 150.921 148.24 142.865 142 116.044C146.493 115.119 151.047 114.52 155.627 114.251C160.482 113.905 165.356 113.905 170.211 114.251C176.474 114.851 183.572 116.28 183.572 116.28Z" fill="#407BFF"/>
<path opacity="0.5" d="M183.572 116.28C183.572 116.28 187.372 117.602 179.772 163.985H147.685C148.224 150.921 148.24 142.865 142 116.044C146.493 115.119 151.047 114.52 155.627 114.251C160.482 113.905 165.356 113.905 170.211 114.251C176.474 114.851 183.572 116.28 183.572 116.28Z" fill="white"/>
<path d="M213.561 152.585L219.162 146.9L219.922 154.911C219.922 154.911 215.72 157.753 212.816 156.226L213.561 152.585Z" fill="#E58A7B"/>
<path d="M225.775 146.057L226.025 152.79L219.915 154.911L219.178 146.9L225.775 146.057Z" fill="#E58A7B"/>
<path d="M216.189 260.148H224.093L225.309 241.84H217.405L216.189 260.148Z" fill="#E58A7B"/>
<path d="M185.6 260.148H193.504L196.042 241.84H188.138L185.6 260.148Z" fill="#E58A7B"/>
<path d="M193.997 259.228H185.113C184.96 259.225 184.811 259.278 184.695 259.378C184.578 259.477 184.503 259.616 184.482 259.768L183.471 266.798C183.453 266.976 183.473 267.155 183.528 267.325C183.584 267.494 183.674 267.65 183.794 267.783C183.913 267.915 184.06 268.021 184.223 268.094C184.386 268.166 184.562 268.204 184.741 268.204C187.834 268.151 189.301 267.968 193.23 267.968C195.631 267.968 201.795 268.219 205.116 268.219C208.437 268.219 208.612 264.936 207.229 264.64C201.035 263.302 197.402 261.47 195.312 259.715C194.946 259.402 194.48 259.229 193.997 259.228Z" fill="#263238"/>
<path d="M224.711 259.229H215.842C215.689 259.227 215.541 259.281 215.425 259.38C215.309 259.479 215.233 259.617 215.211 259.768L214.2 266.798C214.182 266.976 214.201 267.155 214.257 267.325C214.312 267.494 214.403 267.65 214.522 267.783C214.642 267.915 214.788 268.021 214.951 268.094C215.114 268.166 215.291 268.204 215.469 268.204C218.562 268.151 220.029 267.969 223.958 267.969C226.368 267.969 231.33 268.219 234.652 268.219C237.973 268.219 238.148 264.936 236.764 264.64C230.57 263.302 228.131 261.471 226.048 259.715C225.674 259.399 225.2 259.227 224.711 259.229Z" fill="#263238"/>
<path d="M177.271 81.8672C180.114 82.0496 181.558 96.3072 173.22 95.4788C164.883 94.6504 177.271 81.8672 177.271 81.8672Z" fill="#263238"/>
<path d="M225.31 241.84L224.679 251.279H216.775L217.399 241.84H225.31Z" fill="#CF6F64"/>
<path d="M188.139 241.84H196.051L194.736 251.279H186.824L188.139 241.84Z" fill="#CF6F64"/>
<path opacity="0.2" d="M145.207 130.956C145.967 134.847 146.507 138.206 146.917 141.231L148.794 126.707L145.207 130.956Z" fill="#407BFF"/>
<path d="M157.069 97.8652C157.989 102.554 158.908 111.15 155.625 114.281C155.625 114.281 156.909 119.039 165.627 119.039C175.21 119.039 170.187 114.281 170.187 114.281C164.95 113.035 165.087 109.151 165.999 105.511L157.069 97.8652Z" fill="#E58A7B"/>
<path d="M163.895 120.057L166.813 119.008L166.425 118.21L163.895 120.057Z" fill="#263238"/>
<path d="M169.556 119.449L166.812 119.009L167.405 118.119L169.556 119.449Z" fill="#263238"/>
<path d="M156.69 112.07L154.706 114C154.647 114.061 154.613 114.143 154.613 114.228C154.613 114.313 154.647 114.395 154.706 114.456L163.066 123.979C163.464 121.717 164.675 119.679 166.471 118.249C159.555 115.634 157.754 112.929 157.138 112.169C157.124 112.124 157.098 112.085 157.064 112.054C157.029 112.022 156.987 112.001 156.942 111.991C156.897 111.981 156.85 111.983 156.805 111.997C156.761 112.01 156.721 112.036 156.69 112.07Z" fill="#407BFF"/>
<path d="M168.637 113.529L171.1 114.198C171.174 114.218 171.24 114.258 171.294 114.313C171.347 114.367 171.385 114.435 171.404 114.509C172.099 117.633 171.969 120.884 171.024 123.941C170.674 122.649 169.504 119.556 167.406 118.119C169.686 116.546 168.767 114.517 168.44 113.749C168.429 113.721 168.427 113.69 168.432 113.66C168.438 113.63 168.452 113.602 168.472 113.58C168.492 113.557 168.519 113.54 168.548 113.531C168.577 113.522 168.608 113.522 168.637 113.529Z" fill="#407BFF"/>
<path d="M160.726 100.981L166.046 105.503C165.825 106.351 165.675 107.215 165.598 108.087C163.599 107.798 160.856 105.61 160.643 103.527C160.513 102.681 160.541 101.817 160.726 100.981Z" fill="#CF6F64"/>
<path d="M156.56 85.5078C155.656 93.2978 155.101 96.581 158.293 101.232C163.081 108.232 172.855 107.639 176.07 100.275C178.965 93.6474 179.953 82.0346 172.961 77.5962C171.423 76.6145 169.66 76.0423 167.838 75.9341C166.017 75.8259 164.198 76.1853 162.554 76.9781C160.911 77.7709 159.497 78.9707 158.448 80.4636C157.399 81.9566 156.749 83.693 156.56 85.5078Z" fill="#E58A7B"/>
<path d="M174.375 72.641C161.493 67.5566 151.818 73.2946 149.82 81.4494C146.681 94.111 156.705 95.0002 156.705 95.0002L157.959 91.7626C159.76 92.8494 164.799 92.3706 163.279 82.9694C162.382 77.6494 169.116 85.0594 177.658 84.231C179.931 84.0106 183.039 76.061 174.375 72.641Z" fill="#263238"/>
<path d="M178.76 75.7721C177.066 73.1653 173.6 70.9309 166.418 69.8745C166.418 69.8745 170.15 70.7181 171.358 73.4465C172.566 76.1749 180.805 78.9109 178.76 75.7721Z" fill="#263238"/>
<path d="M154.082 92.2488C154.03 92.998 154.126 93.7502 154.364 94.4622C154.603 95.1743 154.98 95.8323 155.473 96.3984C156.803 97.9184 158.551 96.9836 159.098 95.1596C159.585 93.5104 159.486 90.744 157.708 89.908C155.929 89.072 154.227 90.3944 154.082 92.2488Z" fill="#E58A7B"/>
<path d="M179.795 164.016C179.795 164.016 232.797 168.948 232.28 193.048C231.741 218.128 226.375 249.455 226.375 249.455H215.424C215.424 249.455 214.489 222.946 214.17 198.254C214.01 185.394 162.794 182.818 162.794 182.818L156.182 164.016H179.795Z" fill="#263238"/>
<path d="M171.312 164.016C171.312 164.016 205.565 175.378 206.431 189.438C208.02 215.323 196.642 249.478 196.642 249.478H185.858C185.858 249.478 186.474 226.83 187.758 203.376C189.384 173.903 137.385 202.966 147.683 164.038L171.312 164.016Z" fill="#263238"/>
<path d="M167.831 89.756C167.717 90.3792 167.96 90.9492 168.37 91.0252C168.781 91.1012 169.199 90.6452 169.313 90.022C169.427 89.3988 169.184 88.8212 168.773 88.7528C168.363 88.6844 167.96 89.1252 167.831 89.756Z" fill="#263238"/>
<path d="M174.923 91.0253C174.809 91.6485 175.052 92.2185 175.462 92.2945C175.873 92.3705 176.298 91.9145 176.412 91.2913C176.526 90.6681 176.283 90.0905 175.873 90.0221C175.462 89.9537 175.037 90.3945 174.923 91.0253Z" fill="#263238"/>
<path d="M175.682 90.0222L177.27 89.855C177.27 89.855 176.32 90.8962 175.682 90.0222Z" fill="#263238"/>
<path d="M172.856 91.7625C173.16 93.294 173.671 94.777 174.376 96.1704C174.018 96.3334 173.629 96.4178 173.236 96.4178C172.842 96.4178 172.454 96.3334 172.096 96.1704L172.856 91.7625Z" fill="#DF5753"/>
<path d="M169.48 98.1998C168.646 98.0675 167.855 97.7405 167.171 97.2453C166.487 96.7501 165.93 96.1007 165.544 95.3498C165.531 95.3205 165.53 95.2874 165.541 95.2575C165.553 95.2276 165.575 95.2034 165.604 95.1902C165.635 95.1797 165.668 95.1809 165.697 95.1935C165.727 95.2062 165.751 95.2294 165.764 95.2586C166.129 95.9683 166.656 96.5826 167.301 97.0524C167.946 97.5222 168.693 97.8345 169.48 97.9642C169.512 97.9714 169.54 97.9903 169.558 98.0171C169.576 98.0438 169.584 98.0765 169.579 98.1086C169.573 98.1318 169.561 98.1528 169.543 98.1691C169.526 98.1853 169.504 98.196 169.48 98.1998Z" fill="#263238"/>
<path d="M166.168 86.9518C166.135 86.953 166.102 86.9468 166.072 86.9337C166.041 86.9205 166.015 86.9007 165.993 86.8758C165.97 86.8545 165.952 86.8286 165.939 86.7998C165.926 86.771 165.92 86.74 165.92 86.7086C165.92 86.6772 165.926 86.6461 165.939 86.6174C165.952 86.5886 165.97 86.5627 165.993 86.5414C166.402 86.1414 166.902 85.8456 167.449 85.6789C167.997 85.5123 168.577 85.4797 169.139 85.5838C169.199 85.6015 169.249 85.6413 169.28 85.695C169.311 85.7487 169.321 85.8122 169.307 85.8726C169.299 85.9033 169.286 85.9322 169.268 85.9576C169.249 85.9831 169.226 86.0046 169.199 86.0209C169.172 86.0372 169.142 86.048 169.111 86.0525C169.08 86.0571 169.048 86.0553 169.018 86.0474C168.532 85.9616 168.033 85.9934 167.562 86.1402C167.092 86.287 166.663 86.5444 166.312 86.891C166.271 86.9257 166.221 86.947 166.168 86.9518Z" fill="#263238"/>
<path d="M178.798 88.1982C178.751 88.1999 178.704 88.1869 178.665 88.1611C178.625 88.1352 178.595 88.0977 178.578 88.0538C178.392 87.5976 178.101 87.1918 177.728 86.8695C177.356 86.5473 176.913 86.3176 176.434 86.1994C176.372 86.1882 176.317 86.1535 176.28 86.1025C176.244 86.0514 176.228 85.9881 176.237 85.9258C176.248 85.8623 176.284 85.8059 176.337 85.7688C176.389 85.7318 176.455 85.7172 176.518 85.7282C177.075 85.8572 177.592 86.1187 178.026 86.4905C178.46 86.8623 178.798 87.3334 179.011 87.8638C179.037 87.9223 179.038 87.9886 179.015 88.0483C178.993 88.1081 178.947 88.1565 178.889 88.183L178.798 88.1982Z" fill="#263238"/>
<path d="M146.794 127.513C146.102 129.793 145.357 132.073 144.696 134.414C144.035 136.754 143.336 139.034 142.735 141.352C142.135 143.67 141.565 145.966 141.139 148.192C140.934 149.317 140.744 150.434 140.638 151.483C140.577 152.008 140.547 152.502 140.539 152.958C140.539 153.064 140.539 152.958 140.463 152.783C140.37 152.577 140.242 152.389 140.083 152.228C139.695 151.894 139.551 151.954 139.726 152.008C140.044 152.085 140.371 152.118 140.699 152.106C141.722 152.071 142.739 151.942 143.739 151.719C146.002 151.22 148.233 150.583 150.419 149.811C154.911 148.291 159.471 146.437 163.909 144.544L165.87 148.124C161.659 150.885 157.258 153.343 152.699 155.481C150.339 156.594 147.903 157.542 145.411 158.316C144.023 158.738 142.598 159.026 141.155 159.174C140.254 159.267 139.344 159.244 138.449 159.106C137.855 159.017 137.275 158.851 136.724 158.612C136.012 158.304 135.366 157.86 134.824 157.305C133.77 156.194 133.166 154.732 133.129 153.201C133.091 152.441 133.083 151.681 133.129 150.997C133.182 149.591 133.311 148.261 133.486 146.961C133.851 144.362 134.322 141.854 134.9 139.361C135.477 136.868 136.093 134.459 136.769 132.042C137.446 129.626 138.175 127.254 139.049 124.838L146.794 127.513Z" fill="#E58A7B"/>
<path d="M196.703 260.559C196.003 260.541 195.307 260.444 194.628 260.27C194.603 260.265 194.58 260.253 194.561 260.234C194.543 260.216 194.531 260.193 194.526 260.167C194.521 260.142 194.524 260.116 194.534 260.092C194.544 260.068 194.561 260.048 194.583 260.034C194.849 259.859 197.22 258.324 198.124 258.727C198.219 258.77 198.301 258.838 198.359 258.924C198.418 259.009 198.453 259.11 198.459 259.213C198.497 259.382 198.49 259.558 198.439 259.723C198.389 259.888 198.296 260.037 198.17 260.156C197.744 260.459 197.224 260.601 196.703 260.559ZM194.993 260.087C196.46 260.391 197.562 260.353 197.988 259.958C198.08 259.868 198.148 259.756 198.186 259.632C198.223 259.509 198.228 259.378 198.2 259.251C198.198 259.192 198.178 259.134 198.145 259.084C198.111 259.035 198.065 258.995 198.01 258.97C197.433 258.712 195.829 259.571 194.993 260.087Z" fill="#407BFF"/>
<path d="M194.66 260.277H194.592C194.571 260.265 194.553 260.247 194.541 260.226C194.529 260.205 194.523 260.18 194.523 260.156C194.523 260.065 194.523 257.815 195.375 257.07C195.474 256.975 195.595 256.904 195.727 256.863C195.859 256.822 195.998 256.812 196.135 256.835C196.272 256.833 196.405 256.88 196.511 256.966C196.618 257.052 196.692 257.172 196.72 257.306C196.879 258.127 195.557 259.806 194.729 260.277H194.66ZM195.998 257.07C195.831 257.071 195.67 257.137 195.549 257.253C194.949 257.785 194.827 259.289 194.789 259.89C195.549 259.343 196.568 257.959 196.439 257.344C196.439 257.245 196.363 257.116 196.089 257.078L195.998 257.07Z" fill="#407BFF"/>
<path d="M227.681 260.558C226.846 260.54 226.014 260.446 225.196 260.277C225.169 260.27 225.145 260.256 225.126 260.236C225.107 260.216 225.094 260.19 225.089 260.163C225.085 260.135 225.09 260.107 225.104 260.082C225.118 260.057 225.139 260.038 225.165 260.026C225.515 259.844 228.638 258.248 229.588 258.765C229.671 258.811 229.741 258.876 229.791 258.956C229.842 259.036 229.871 259.127 229.877 259.221C229.899 259.379 229.881 259.54 229.825 259.69C229.769 259.84 229.678 259.974 229.558 260.08C229.005 260.449 228.343 260.618 227.681 260.558ZM225.636 260.087C226.655 260.262 228.676 260.513 229.376 259.89C229.463 259.808 229.53 259.707 229.571 259.595C229.612 259.483 229.625 259.362 229.611 259.244C229.611 259.192 229.596 259.142 229.569 259.098C229.543 259.053 229.505 259.017 229.459 258.993C228.836 258.658 226.738 259.548 225.636 260.087Z" fill="#407BFF"/>
<path d="M225.227 260.277C225.202 260.285 225.175 260.285 225.151 260.277C225.132 260.263 225.117 260.244 225.107 260.223C225.096 260.202 225.09 260.179 225.09 260.156C225.09 260.064 225.28 257.959 226.253 257.116C226.389 256.999 226.548 256.912 226.719 256.86C226.89 256.808 227.07 256.791 227.248 256.812C227.735 256.857 227.871 257.1 227.909 257.29C228.046 258.164 226.207 259.836 225.28 260.254L225.227 260.277ZM227.104 257.07C226.854 257.069 226.613 257.161 226.427 257.328C225.713 257.921 225.462 259.342 225.386 259.912C226.382 259.358 227.742 257.929 227.666 257.344C227.666 257.283 227.666 257.116 227.248 257.078L227.104 257.07Z" fill="#407BFF"/>
<path d="M163.728 144.666L171.221 142.766L167.649 149.963C167.649 149.963 162.58 150.184 160.908 147.357L163.728 144.666Z" fill="#E58A7B"/>
<path d="M177.278 145.495L173.964 151.362L167.648 149.963L171.22 142.766L177.278 145.495Z" fill="#E58A7B"/>
<path d="M168.584 88.7529L170.172 88.5857C170.172 88.5857 169.192 89.6269 168.584 88.7529Z" fill="#263238"/>
<path d="M147.204 162.131L146.946 165.004C146.84 165.232 147.098 165.46 147.47 165.46H179.953C180.242 165.46 180.477 165.315 180.5 165.133L180.789 162.26C180.789 162.063 180.553 161.895 180.242 161.895H147.729C147.629 161.887 147.528 161.904 147.436 161.945C147.344 161.987 147.265 162.05 147.204 162.131Z" fill="#407BFF"/>
<path d="M151.575 165.771H150.701C150.526 165.771 150.397 165.68 150.405 165.574L150.815 161.835C150.815 161.728 150.982 161.637 151.157 161.637H152.001C152.175 161.637 152.305 161.728 152.297 161.835L151.887 165.574C151.894 165.68 151.742 165.771 151.575 165.771Z" fill="#263238"/>
<path d="M177.507 165.771H176.633C176.458 165.771 176.329 165.68 176.336 165.574L176.747 161.835C176.747 161.728 176.914 161.637 177.089 161.637H177.955C178.13 161.637 178.259 161.728 178.251 161.835L177.841 165.574C177.841 165.68 177.674 165.771 177.507 165.771Z" fill="#263238"/>
<path d="M164.54 165.771H163.666C163.491 165.771 163.362 165.68 163.369 165.574L163.78 161.835C163.78 161.728 163.947 161.637 164.122 161.637H164.988C165.163 161.637 165.292 161.728 165.285 161.835L164.874 165.574C164.859 165.68 164.715 165.771 164.54 165.771Z" fill="#263238"/>
<path d="M141.999 116.075C138.777 117.055 134.916 128.128 134.916 128.128L145.29 138.259C145.29 138.259 151.948 127.809 150.61 123.652C149.189 119.32 145.67 114.965 141.999 116.075Z" fill="#407BFF"/>
<path opacity="0.5" d="M141.999 116.075C138.777 117.055 134.916 128.128 134.916 128.128L145.29 138.259C145.29 138.259 151.948 127.809 150.61 123.652C149.189 119.32 145.67 114.965 141.999 116.075Z" fill="white"/>
<path d="M314.382 156.119H253.916V273.729H314.382V156.119Z" fill="#407BFF"/>
<path opacity="0.6" d="M314.382 156.119H253.916V273.729H314.382V156.119Z" fill="white"/>
<path d="M197.243 156.119H136.777V273.729H197.243V156.119Z" fill="#407BFF"/>
<path opacity="0.6" d="M197.243 156.119H136.777V273.729H197.243V156.119Z" fill="white"/>
<path d="M316.646 156.119H311.66V273.729H316.646V156.119Z" fill="#407BFF"/>
<path opacity="0.3" d="M316.646 156.119H311.66V273.729H316.646V156.119Z" fill="black"/>
<path d="M197.965 164.943L318.189 164.943V156.119H197.965V164.943Z" fill="#407BFF"/>
<path opacity="0.3" d="M197.965 164.943L318.189 164.943V156.119H197.965V164.943Z" fill="black"/>
<path d="M199.515 156.119H194.529V273.729H199.515V156.119Z" fill="#407BFF"/>
<path opacity="0.3" d="M199.515 156.119H194.529V273.729H199.515V156.119Z" fill="black"/>
<path d="M197.677 184.254L314.154 184.254V158.848H197.677V184.254Z" fill="#407BFF"/>
<path opacity="0.3" d="M197.677 184.254L314.154 184.254V158.848H197.677V184.254Z" fill="black"/>
<path d="M314.412 277.149H280.842C278.563 277.147 276.378 276.241 274.767 274.629C273.155 273.018 272.249 270.833 272.247 268.554V162.64C272.247 160.624 271.446 158.691 270.021 157.266C268.596 155.841 266.662 155.04 264.647 155.04H254.6V154.28H264.639C266.856 154.28 268.983 155.161 270.551 156.729C272.118 158.296 272.999 160.423 272.999 162.64V268.554C273.001 270.631 273.827 272.623 275.296 274.092C276.765 275.561 278.757 276.387 280.835 276.389H314.412C314.983 276.39 315.54 276.211 316.004 275.877C316.467 275.543 316.813 275.071 316.993 274.528C317.172 273.986 317.176 273.4 317.003 272.856C316.83 272.311 316.49 271.835 316.03 271.495L316.479 270.887C317.065 271.322 317.5 271.931 317.72 272.627C317.941 273.323 317.936 274.071 317.707 274.765C317.478 275.458 317.037 276.062 316.445 276.49C315.853 276.918 315.142 277.149 314.412 277.149Z" fill="#407BFF"/>
<path opacity="0.3" d="M314.412 277.149H280.842C278.563 277.147 276.378 276.241 274.767 274.629C273.155 273.018 272.249 270.833 272.247 268.554V162.64C272.247 160.624 271.446 158.691 270.021 157.266C268.596 155.841 266.662 155.04 264.647 155.04H254.6V154.28H264.639C266.856 154.28 268.983 155.161 270.551 156.729C272.118 158.296 272.999 160.423 272.999 162.64V268.554C273.001 270.631 273.827 272.623 275.296 274.092C276.765 275.561 278.757 276.387 280.835 276.389H314.412C314.983 276.39 315.54 276.211 316.004 275.877C316.467 275.543 316.813 275.071 316.993 274.528C317.172 273.986 317.176 273.4 317.003 272.856C316.83 272.311 316.49 271.835 316.03 271.495L316.479 270.887C317.065 271.322 317.5 271.931 317.72 272.627C317.941 273.323 317.936 274.071 317.707 274.765C317.478 275.458 317.037 276.062 316.445 276.49C315.853 276.918 315.142 277.149 314.412 277.149Z" fill="black"/>
<path d="M319.307 190.821H318.547V205.512H319.307V190.821Z" fill="#407BFF"/>
<path opacity="0.3" d="M319.307 190.821H318.547V205.512H319.307V190.821Z" fill="black"/>
<path d="M319.307 182.149H318.547V186.01H319.307V182.149Z" fill="#407BFF"/>
<path opacity="0.3" d="M319.307 182.149H318.547V186.01H319.307V182.149Z" fill="black"/>
<path d="M263.644 121.007H207.297L199.135 154.28H255.474L263.644 121.007Z" fill="#407BFF"/>
<path opacity="0.4" d="M263.644 121.007H207.297L199.135 154.28H255.474L263.644 121.007Z" fill="white"/>
<path d="M200.86 154.28L200.632 156.119H178.523L178.751 154.28H200.86Z" fill="#407BFF"/>
<path opacity="0.4" d="M200.86 154.28L200.632 156.119H178.523L178.751 154.28H200.86Z" fill="white"/>
<path d="M257.205 154.28L256.977 156.119H200.631L200.859 154.28H257.205Z" fill="#407BFF"/>
<path opacity="0.5" d="M257.205 154.28L256.977 156.119H200.631L200.859 154.28H257.205Z" fill="black"/>
<path d="M265.376 121.007H209.03L200.867 154.28H257.206L265.376 121.007Z" fill="#407BFF"/>
<path opacity="0.5" d="M265.376 121.007H209.03L200.867 154.28H257.206L265.376 121.007Z" fill="black"/>
<path d="M287.134 147.736C287.134 147.736 278.843 133.441 290.319 122.063C290.319 122.063 293.321 124.024 293.275 126.623C293.23 129.223 290.06 129.922 290.737 132.111C291.413 134.299 294.415 136.465 292.447 138.282C290.478 140.098 292.766 141.709 292.629 143.929C292.492 146.148 287.134 147.736 287.134 147.736Z" fill="#407BFF"/>
<path d="M287.765 149.043C287.765 149.043 291.125 132.863 276.624 125.696C276.624 125.696 274.389 128.501 275.263 131.016C276.137 133.532 279.352 133.129 279.398 135.432C279.443 137.735 277.285 140.714 279.725 141.816C282.164 142.918 280.485 145.175 281.328 147.242C282.172 149.309 287.765 149.043 287.765 149.043Z" fill="#407BFF"/>
<path opacity="0.5" d="M287.765 149.043C287.765 149.043 291.125 132.863 276.624 125.696C276.624 125.696 274.389 128.501 275.263 131.016C276.137 133.532 279.352 133.129 279.398 135.432C279.443 137.735 277.285 140.714 279.725 141.816C282.164 142.918 280.485 145.175 281.328 147.242C282.172 149.309 287.765 149.043 287.765 149.043Z" fill="black"/>
<path d="M275.059 145.456C275.059 145.456 275.34 156.096 285.911 156.096C296.483 156.096 296.757 145.456 296.757 145.456H275.059Z" fill="#407BFF"/>
<path opacity="0.5" d="M275.059 145.456C275.059 145.456 275.34 156.096 285.911 156.096C296.483 156.096 296.757 145.456 296.757 145.456H275.059Z" fill="black"/>
<path d="M218.233 75.7417L209.205 64.0757L200.176 75.7417H204.424V90.8429H213.985V75.7417H218.233Z" fill="#407BFF"/>
<path d="M244.719 89.4597C244.719 83.8159 246.961 78.4032 250.952 74.4125C254.942 70.4217 260.355 68.1797 265.999 68.1797V73.7201C263.933 73.7191 261.888 74.1251 259.979 74.9149C258.07 75.7046 256.336 76.8627 254.875 78.323C253.414 79.7832 252.255 81.517 251.464 83.4253C250.674 85.3335 250.267 87.3789 250.267 89.4445L244.719 89.4597Z" fill="#407BFF"/>
<path d="M244.719 89.4595H250.267C250.267 93.6319 251.924 97.6333 254.875 100.584C257.825 103.534 261.826 105.191 265.999 105.191C268.759 105.197 271.471 104.467 273.857 103.079L276.639 107.92C273.404 109.788 269.734 110.771 265.998 110.771C262.263 110.771 258.593 109.787 255.358 107.92C252.123 106.052 249.437 103.365 247.569 100.13C245.702 96.8951 244.719 93.2254 244.719 89.4899V89.4595Z" fill="#407BFF"/>
<path opacity="0.5" d="M244.719 89.4595H250.267C250.267 93.6319 251.924 97.6333 254.875 100.584C257.825 103.534 261.826 105.191 265.999 105.191C268.759 105.197 271.471 104.467 273.857 103.079L276.639 107.92C273.404 109.788 269.734 110.771 265.998 110.771C262.263 110.771 258.593 109.787 255.358 107.92C252.123 106.052 249.437 103.365 247.569 100.13C245.702 96.8951 244.719 93.2254 244.719 89.4899V89.4595Z" fill="white"/>
<path d="M266 73.7201V68.1645C270.699 68.1465 275.273 69.6846 279.006 72.5389C282.739 75.3932 285.423 79.403 286.638 83.9427C287.853 88.4823 287.531 93.2965 285.722 97.634C283.914 101.971 280.72 105.588 276.64 107.92L273.866 103.109C276.888 101.389 279.254 98.7157 280.595 95.5076C281.935 92.2995 282.175 88.7375 281.276 85.3787C280.377 82.0199 278.39 79.0538 275.626 76.9443C272.862 74.8349 269.477 73.701 266 73.7201Z" fill="#407BFF"/>
<path opacity="0.7" d="M266 73.7201V68.1645C270.699 68.1465 275.273 69.6846 279.006 72.5389C282.739 75.3932 285.423 79.403 286.638 83.9427C287.853 88.4823 287.531 93.2965 285.722 97.634C283.914 101.971 280.72 105.588 276.64 107.92L273.866 103.109C276.888 101.389 279.254 98.7157 280.595 95.5076C281.935 92.2995 282.175 88.7375 281.276 85.3787C280.377 82.0199 278.39 79.0538 275.626 76.9443C272.862 74.8349 269.477 73.701 266 73.7201Z" fill="black"/>
<path d="M246.02 37.24H226.632C225.941 37.24 225.278 37.5146 224.789 38.0035C224.3 38.4924 224.025 39.1554 224.025 39.8468V75.696C224.031 76.3834 224.309 77.0406 224.797 77.5246C225.285 78.0085 225.945 78.28 226.632 78.28H251.446C252.136 78.278 252.797 78.0024 253.285 77.5138C253.772 77.0251 254.045 76.3632 254.045 75.6732V45.2732L246.02 37.24Z" fill="#263238"/>
<path d="M244.879 74.7155H228.759C228.457 74.7155 228.167 74.5954 227.953 74.3816C227.739 74.1678 227.619 73.8779 227.619 73.5755C227.621 73.2745 227.742 72.9865 227.956 72.7743C228.169 72.5622 228.458 72.4431 228.759 72.4431H244.886C245.187 72.4431 245.476 72.5622 245.69 72.7743C245.903 72.9865 246.024 73.2745 246.026 73.5755C246.024 73.8786 245.903 74.1685 245.688 74.3821C245.473 74.5957 245.182 74.7155 244.879 74.7155Z" fill="#407BFF"/>
<path d="M237.279 43.1147H228.759C228.458 43.1147 228.169 42.9956 227.956 42.7835C227.742 42.5713 227.621 42.2833 227.619 41.9823C227.619 41.6799 227.739 41.39 227.953 41.1762C228.167 40.9624 228.457 40.8423 228.759 40.8423H237.286C237.589 40.8423 237.879 40.9624 238.092 41.1762C238.306 41.39 238.426 41.6799 238.426 41.9823C238.425 42.132 238.395 42.28 238.337 42.418C238.278 42.5559 238.194 42.681 238.087 42.7862C237.981 42.8913 237.854 42.9745 237.716 43.0308C237.577 43.0872 237.428 43.1157 237.279 43.1147Z" fill="#407BFF"/>
<path d="M242.85 47.6291H228.759C228.458 47.6291 228.169 47.51 227.956 47.2979C227.742 47.0857 227.621 46.7977 227.619 46.4967C227.619 46.1943 227.739 45.9044 227.953 45.6906C228.167 45.4768 228.457 45.3567 228.759 45.3567H242.857C243.158 45.3587 243.446 45.4797 243.658 45.6933C243.87 45.9068 243.99 46.1957 243.99 46.4967C243.99 46.646 243.96 46.7939 243.903 46.9318C243.845 47.0697 243.761 47.1949 243.655 47.3001C243.549 47.4054 243.424 47.4886 243.285 47.5451C243.147 47.6015 242.999 47.6301 242.85 47.6291Z" fill="#407BFF"/>
<path d="M249.325 52.1435H228.759C228.458 52.1435 228.169 52.0244 227.956 51.8123C227.742 51.6001 227.621 51.3121 227.619 51.0111C227.619 50.7087 227.739 50.4188 227.953 50.205C228.167 49.9912 228.457 49.8711 228.759 49.8711H249.332C249.635 49.8711 249.925 49.9912 250.138 50.205C250.352 50.4188 250.472 50.7087 250.472 51.0111C250.471 51.1608 250.441 51.3088 250.383 51.4468C250.324 51.5847 250.24 51.7098 250.133 51.815C250.027 51.9201 249.9 52.0033 249.762 52.0596C249.623 52.116 249.474 52.1445 249.325 52.1435Z" fill="#407BFF"/>
<path d="M249.325 56.6579H237.363C237.062 56.6579 236.773 56.5388 236.559 56.3267C236.346 56.1145 236.225 55.8265 236.223 55.5255C236.223 55.2232 236.343 54.9332 236.557 54.7194C236.77 54.5056 237.06 54.3855 237.363 54.3855H249.325C249.627 54.3855 249.917 54.5056 250.131 54.7194C250.345 54.9332 250.465 55.2232 250.465 55.5255C250.463 55.8265 250.342 56.1145 250.128 56.3267C249.915 56.5388 249.626 56.6579 249.325 56.6579Z" fill="#407BFF"/>
<path d="M231.875 56.6579H228.759C228.458 56.6579 228.169 56.5388 227.956 56.3267C227.742 56.1145 227.621 55.8265 227.619 55.5255C227.619 55.2232 227.739 54.9332 227.953 54.7194C228.167 54.5056 228.457 54.3855 228.759 54.3855H231.883C232.185 54.3855 232.475 54.5056 232.689 54.7194C232.903 54.9332 233.023 55.2232 233.023 55.5255C233.022 55.6752 232.991 55.8233 232.933 55.9612C232.875 56.0991 232.79 56.2242 232.683 56.3294C232.577 56.4345 232.451 56.5177 232.312 56.574C232.173 56.6304 232.025 56.6589 231.875 56.6579Z" fill="#407BFF"/>
<path d="M249.325 61.1723H228.759C228.457 61.1723 228.167 61.0522 227.953 60.8384C227.739 60.6246 227.619 60.3347 227.619 60.0323C227.621 59.7313 227.742 59.4433 227.956 59.2311C228.169 59.019 228.458 58.8999 228.759 58.8999H249.332C249.633 58.8999 249.922 59.019 250.136 59.2311C250.349 59.4433 250.47 59.7313 250.472 60.0323C250.472 60.1827 250.443 60.3315 250.385 60.4703C250.327 60.6091 250.242 60.7351 250.136 60.8411C250.029 60.9471 249.903 61.0309 249.763 61.0877C249.624 61.1446 249.475 61.1733 249.325 61.1723Z" fill="#407BFF"/>
<path d="M241.383 65.6867H228.759C228.457 65.6867 228.167 65.5666 227.953 65.3528C227.739 65.139 227.619 64.849 227.619 64.5467C227.621 64.2457 227.742 63.9577 227.956 63.7455C228.169 63.5334 228.458 63.4143 228.759 63.4143H241.39C241.691 63.4143 241.98 63.5334 242.194 63.7455C242.407 63.9577 242.528 64.2457 242.53 64.5467C242.53 64.697 242.501 64.8459 242.443 64.9847C242.385 65.1235 242.3 65.2496 242.194 65.3555C242.087 65.4615 241.961 65.5453 241.821 65.6021C241.682 65.659 241.533 65.6877 241.383 65.6867Z" fill="#407BFF"/>
<path d="M249.325 65.6867H245.951C245.65 65.6847 245.362 65.5637 245.15 65.3501C244.937 65.1366 244.818 64.8477 244.818 64.5467C244.818 64.2464 244.938 63.9583 245.15 63.746C245.362 63.5336 245.65 63.4143 245.951 63.4143H249.325C249.626 63.4143 249.915 63.5334 250.129 63.7455C250.342 63.9577 250.463 64.2457 250.465 64.5467C250.465 64.849 250.345 65.139 250.131 65.3528C249.917 65.5666 249.628 65.6867 249.325 65.6867Z" fill="#407BFF"/>
<path d="M249.325 70.2011H228.759C228.457 70.2011 228.167 70.081 227.953 69.8672C227.739 69.6534 227.619 69.3635 227.619 69.0611C227.621 68.7601 227.742 68.4721 227.956 68.2599C228.169 68.0478 228.458 67.9287 228.759 67.9287H249.332C249.633 67.9287 249.922 68.0478 250.136 68.2599C250.349 68.4721 250.47 68.7601 250.472 69.0611C250.472 69.2115 250.443 69.3603 250.385 69.4991C250.327 69.6379 250.242 69.7639 250.136 69.8699C250.029 69.9759 249.903 70.0597 249.763 70.1165C249.624 70.1734 249.475 70.2021 249.325 70.2011Z" fill="#407BFF"/>
<g opacity="0.5">
<path d="M244.879 74.7155H228.759C228.457 74.7155 228.167 74.5954 227.953 74.3816C227.739 74.1678 227.619 73.8779 227.619 73.5755C227.621 73.2745 227.742 72.9865 227.956 72.7743C228.169 72.5622 228.458 72.4431 228.759 72.4431H244.886C245.187 72.4431 245.476 72.5622 245.69 72.7743C245.903 72.9865 246.024 73.2745 246.026 73.5755C246.024 73.8786 245.903 74.1685 245.688 74.3821C245.473 74.5957 245.182 74.7155 244.879 74.7155Z" fill="white"/>
</g>
<g opacity="0.5">
<path d="M237.279 43.1147H228.759C228.458 43.1147 228.169 42.9956 227.956 42.7835C227.742 42.5713 227.621 42.2833 227.619 41.9823C227.619 41.6799 227.739 41.39 227.953 41.1762C228.167 40.9624 228.457 40.8423 228.759 40.8423H237.286C237.589 40.8423 237.879 40.9624 238.092 41.1762C238.306 41.39 238.426 41.6799 238.426 41.9823C238.425 42.132 238.395 42.28 238.337 42.418C238.278 42.5559 238.194 42.681 238.087 42.7862C237.981 42.8913 237.854 42.9745 237.716 43.0308C237.577 43.0872 237.428 43.1157 237.279 43.1147Z" fill="white"/>
</g>
<g opacity="0.5">
<path d="M242.85 47.6291H228.759C228.458 47.6291 228.169 47.51 227.956 47.2979C227.742 47.0857 227.621 46.7977 227.619 46.4967C227.619 46.1943 227.739 45.9044 227.953 45.6906C228.167 45.4768 228.457 45.3567 228.759 45.3567H242.857C243.158 45.3587 243.446 45.4797 243.658 45.6933C243.87 45.9068 243.99 46.1957 243.99 46.4967C243.99 46.646 243.96 46.7939 243.903 46.9318C243.845 47.0697 243.761 47.1949 243.655 47.3001C243.549 47.4054 243.424 47.4886 243.285 47.5451C243.147 47.6015 242.999 47.6301 242.85 47.6291Z" fill="white"/>
</g>
<g opacity="0.5">
<path d="M249.325 52.1435H228.759C228.458 52.1435 228.169 52.0244 227.956 51.8123C227.742 51.6001 227.621 51.3121 227.619 51.0111C227.619 50.7087 227.739 50.4188 227.953 50.205C228.167 49.9912 228.457 49.8711 228.759 49.8711H249.332C249.635 49.8711 249.925 49.9912 250.138 50.205C250.352 50.4188 250.472 50.7087 250.472 51.0111C250.471 51.1608 250.441 51.3088 250.383 51.4468C250.324 51.5847 250.24 51.7098 250.133 51.815C250.027 51.9201 249.9 52.0033 249.762 52.0596C249.623 52.116 249.474 52.1445 249.325 52.1435Z" fill="white"/>
</g>
<g opacity="0.5">
<path d="M249.325 56.6579H237.363C237.062 56.6579 236.773 56.5388 236.559 56.3267C236.346 56.1145 236.225 55.8265 236.223 55.5255C236.223 55.2232 236.343 54.9332 236.557 54.7194C236.77 54.5056 237.06 54.3855 237.363 54.3855H249.325C249.627 54.3855 249.917 54.5056 250.131 54.7194C250.345 54.9332 250.465 55.2232 250.465 55.5255C250.463 55.8265 250.342 56.1145 250.128 56.3267C249.915 56.5388 249.626 56.6579 249.325 56.6579Z" fill="white"/>
</g>
<g opacity="0.5">
<path d="M231.875 56.6579H228.759C228.458 56.6579 228.169 56.5388 227.956 56.3267C227.742 56.1145 227.621 55.8265 227.619 55.5255C227.619 55.2232 227.739 54.9332 227.953 54.7194C228.167 54.5056 228.457 54.3855 228.759 54.3855H231.883C232.185 54.3855 232.475 54.5056 232.689 54.7194C232.903 54.9332 233.023 55.2232 233.023 55.5255C233.022 55.6752 232.991 55.8233 232.933 55.9612C232.875 56.0991 232.79 56.2242 232.683 56.3294C232.577 56.4345 232.451 56.5177 232.312 56.574C232.173 56.6304 232.025 56.6589 231.875 56.6579Z" fill="white"/>
</g>
<g opacity="0.5">
<path d="M249.325 61.1723H228.759C228.457 61.1723 228.167 61.0522 227.953 60.8384C227.739 60.6246 227.619 60.3347 227.619 60.0323C227.621 59.7313 227.742 59.4433 227.956 59.2311C228.169 59.019 228.458 58.8999 228.759 58.8999H249.332C249.633 58.8999 249.922 59.019 250.136 59.2311C250.349 59.4433 250.47 59.7313 250.472 60.0323C250.472 60.1827 250.443 60.3315 250.385 60.4703C250.327 60.6091 250.242 60.7351 250.136 60.8411C250.029 60.9471 249.903 61.0309 249.763 61.0877C249.624 61.1446 249.475 61.1733 249.325 61.1723Z" fill="white"/>
</g>
<g opacity="0.5">
<path d="M241.383 65.6867H228.759C228.457 65.6867 228.167 65.5666 227.953 65.3528C227.739 65.139 227.619 64.849 227.619 64.5467C227.621 64.2457 227.742 63.9577 227.956 63.7455C228.169 63.5334 228.458 63.4143 228.759 63.4143H241.39C241.691 63.4143 241.98 63.5334 242.194 63.7455C242.407 63.9577 242.528 64.2457 242.53 64.5467C242.53 64.697 242.501 64.8459 242.443 64.9847C242.385 65.1235 242.3 65.2496 242.194 65.3555C242.087 65.4615 241.961 65.5453 241.821 65.6021C241.682 65.659 241.533 65.6877 241.383 65.6867Z" fill="white"/>
</g>
<g opacity="0.5">
<path d="M249.325 65.6867H245.951C245.65 65.6847 245.362 65.5637 245.15 65.3501C244.937 65.1366 244.818 64.8477 244.818 64.5467C244.818 64.2464 244.938 63.9583 245.15 63.746C245.362 63.5336 245.65 63.4143 245.951 63.4143H249.325C249.626 63.4143 249.915 63.5334 250.129 63.7455C250.342 63.9577 250.463 64.2457 250.465 64.5467C250.465 64.849 250.345 65.139 250.131 65.3528C249.917 65.5666 249.628 65.6867 249.325 65.6867Z" fill="white"/>
</g>
<g opacity="0.5">
<path d="M249.325 70.2011H228.759C228.457 70.2011 228.167 70.081 227.953 69.8672C227.739 69.6534 227.619 69.3635 227.619 69.0611C227.621 68.7601 227.742 68.4721 227.956 68.2599C228.169 68.0478 228.458 67.9287 228.759 67.9287H249.332C249.633 67.9287 249.922 68.0478 250.136 68.2599C250.349 68.4721 250.47 68.7601 250.472 69.0611C250.472 69.2115 250.443 69.3603 250.385 69.4991C250.327 69.6379 250.242 69.7639 250.136 69.8699C250.029 69.9759 249.903 70.0597 249.763 70.1165C249.624 70.1734 249.475 70.2021 249.325 70.2011Z" fill="white"/>
</g>
<path d="M246.02 37.24V42.6664C246.019 43.009 246.085 43.3484 246.216 43.6652C246.347 43.9819 246.539 44.2697 246.781 44.5119C247.023 44.7542 247.311 44.9462 247.628 45.0768C247.944 45.2074 248.284 45.2742 248.626 45.2732H254.045L246.02 37.24Z" fill="#407BFF"/>
<path opacity="0.5" d="M246.02 37.24V42.6664C246.019 43.009 246.085 43.3484 246.216 43.6652C246.347 43.9819 246.539 44.2697 246.781 44.5119C247.023 44.7542 247.311 44.9462 247.628 45.0768C247.944 45.2074 248.284 45.2742 248.626 45.2732H254.045L246.02 37.24Z" fill="white"/>
</svg>
