<svg width="491" height="449" viewBox="0 0 491 449" fill="none" xmlns="http://www.w3.org/2000/svg">
<rect width="491" height="449" fill="#F5F5F5"/>
<rect width="1440" height="1035" transform="translate(-114 -273)" fill="white"/>
<path d="M-114 -273H606V762H-114V-273Z" fill="url(#paint0_linear_0_1)"/>
<path d="M243.246 448.452C367.052 448.452 467.416 442.597 467.416 435.375C467.416 428.152 367.052 422.297 243.246 422.297C119.44 422.297 19.0762 428.152 19.0762 435.375C19.0762 442.597 119.44 448.452 243.246 448.452Z" fill="#F5F5F5"/>
<path d="M229.835 331.566H6.58983C3.00589 331.566 0 328.557 0 324.969V10.8788C0 7.2912 3.00589 4.28223 6.58983 4.28223H229.835C233.534 4.28223 236.425 7.2912 236.425 10.8788V324.969C236.425 328.557 233.419 331.566 229.835 331.566ZM6.58983 4.51369C3.1215 4.51369 0.346833 7.2912 0.346833 10.8788V324.969C0.346833 328.441 3.1215 331.334 6.58983 331.334H229.835C233.303 331.334 236.193 328.557 236.193 324.969V10.8788C236.193 7.40693 233.419 4.51369 229.835 4.51369H6.58983Z" fill="#E6E6E6"/>
<path d="M479.901 331.566H256.656C252.957 331.566 250.066 328.557 250.066 324.969V10.8788C250.066 7.2912 253.072 4.28223 256.656 4.28223H479.901C483.485 4.28223 486.491 7.17547 486.491 10.8788V324.969C486.491 328.557 483.485 331.566 479.901 331.566ZM256.656 4.51369C253.188 4.51369 250.298 7.2912 250.298 10.8788V324.969C250.298 328.441 253.072 331.334 256.656 331.334H479.901C483.369 331.334 486.26 328.557 486.26 324.969V10.8788C486.26 7.40693 483.485 4.51369 479.901 4.51369H256.656Z" fill="#E6E6E6"/>
<path d="M194.343 164.8L192.84 300.898C187.29 346.148 107.056 382.14 107.056 382.14C107.056 382.14 26.9378 346.148 21.2729 300.898L19.6543 164.8L105.322 136.562L194.343 164.8Z" fill="#F5F5F5"/>
<path d="M183.244 173.479L181.857 295.574C177.001 335.038 107.056 366.4 107.056 366.4C107.056 366.4 37.1115 335.038 32.2559 295.574L30.7529 173.479L105.438 148.829L183.244 173.479Z" fill="#E0E0E0"/>
<path d="M178.273 181.118L177.001 293.26C172.377 330.293 106.941 359.688 106.941 359.688C106.941 359.688 41.3893 330.293 36.8805 293.26L35.4932 181.118L105.553 158.087L178.273 181.118Z" stroke="white" stroke-width="3" stroke-miterlimit="10" stroke-linecap="round" stroke-linejoin="round"/>
<path d="M463.253 118.854H309.028V389.661H463.253V118.854Z" fill="#F5F5F5"/>
<path d="M452.039 129.501H320.474V389.661H452.039V129.501Z" fill="#E0E0E0"/>
<path d="M324.174 390.935C323.942 390.935 323.711 390.935 323.48 390.819C323.249 390.703 323.133 390.587 322.902 390.472C322.671 390.356 322.555 390.125 322.555 389.893C322.439 389.662 322.439 389.43 322.439 389.199C322.439 388.736 322.671 388.273 322.902 387.926C323.249 387.578 323.942 387.347 324.405 387.463C324.52 387.463 324.636 387.578 324.752 387.578C324.867 387.578 324.983 387.694 325.099 387.694C325.214 387.81 325.33 387.81 325.33 387.926C325.445 388.041 325.445 388.041 325.561 388.157C325.677 388.273 325.677 388.389 325.677 388.504C325.677 388.62 325.792 388.736 325.792 388.851C325.792 388.967 325.792 389.083 325.792 389.199C325.792 389.43 325.792 389.662 325.677 389.893C325.561 390.125 325.445 390.356 325.33 390.472C324.983 390.703 324.636 390.935 324.174 390.935Z" fill="white"/>
<path d="M322.439 346.61C322.439 345.684 323.249 344.874 324.174 344.874C325.099 344.874 325.908 345.684 325.908 346.61C325.908 347.536 325.099 348.346 324.174 348.346C323.133 348.346 322.439 347.536 322.439 346.61ZM322.439 303.906C322.439 302.98 323.249 302.17 324.174 302.17C325.099 302.17 325.908 302.98 325.908 303.906C325.908 304.832 325.099 305.642 324.174 305.642C323.133 305.642 322.439 304.832 322.439 303.906ZM322.439 261.317C322.439 260.391 323.249 259.581 324.174 259.581C325.099 259.581 325.908 260.391 325.908 261.317C325.908 262.243 325.099 263.053 324.174 263.053C323.133 263.053 322.439 262.243 322.439 261.317ZM322.439 218.613C322.439 217.687 323.249 216.877 324.174 216.877C325.099 216.877 325.908 217.687 325.908 218.613C325.908 219.539 325.099 220.349 324.174 220.349C323.133 220.349 322.439 219.655 322.439 218.613ZM322.439 176.025C322.439 175.099 323.249 174.289 324.174 174.289C325.099 174.289 325.908 175.099 325.908 176.025C325.908 176.95 325.099 177.76 324.174 177.76C323.133 177.76 322.439 176.95 322.439 176.025Z" fill="white"/>
<path d="M324.174 135.172C323.711 135.172 323.249 134.941 322.902 134.709C322.786 134.593 322.786 134.593 322.671 134.478C322.671 134.362 322.555 134.246 322.555 134.131C322.555 134.015 322.439 133.899 322.439 133.783C322.439 133.668 322.439 133.552 322.439 133.436C322.439 132.973 322.671 132.51 322.902 132.163C323.018 132.047 323.018 132.047 323.133 131.932C323.249 131.816 323.364 131.816 323.48 131.816C323.596 131.816 323.711 131.7 323.827 131.7C324.058 131.7 324.289 131.7 324.52 131.7C324.636 131.7 324.752 131.7 324.867 131.816C324.983 131.816 325.098 131.932 325.214 131.932C325.33 132.047 325.445 132.047 325.445 132.163C325.792 132.51 325.908 132.973 325.908 133.436C325.908 133.552 325.908 133.668 325.908 133.783C325.908 133.899 325.792 134.015 325.792 134.131C325.792 134.246 325.677 134.362 325.677 134.478C325.677 134.593 325.561 134.709 325.445 134.709C325.099 134.941 324.636 135.172 324.174 135.172Z" fill="white"/>
<path d="M404.986 133.436C404.986 132.51 405.795 131.7 406.72 131.7C407.645 131.7 408.454 132.51 408.454 133.436C408.454 134.362 407.645 135.172 406.72 135.172C405.68 135.172 404.986 134.362 404.986 133.436ZM363.713 133.436C363.713 132.51 364.522 131.7 365.447 131.7C366.372 131.7 367.181 132.51 367.181 133.436C367.181 134.362 366.372 135.172 365.447 135.172C364.407 135.172 363.713 134.362 363.713 133.436Z" fill="white"/>
<path d="M447.993 135.172C447.877 135.172 447.762 135.172 447.646 135.172C447.531 135.172 447.415 135.172 447.299 135.056C447.184 135.056 447.068 134.941 446.952 134.941C446.837 134.825 446.721 134.825 446.721 134.709C446.374 134.362 446.259 133.899 446.259 133.436C446.259 132.973 446.49 132.51 446.721 132.163C446.837 132.047 446.952 132.047 446.952 131.932C447.068 131.816 447.184 131.816 447.299 131.816C447.415 131.816 447.531 131.7 447.646 131.7C447.877 131.7 448.109 131.7 448.34 131.7C448.455 131.7 448.571 131.7 448.687 131.816C448.802 131.816 448.918 131.932 449.033 131.932C449.149 131.932 449.265 132.047 449.265 132.163C449.612 132.51 449.727 132.973 449.727 133.436C449.727 133.899 449.496 134.362 449.265 134.709C449.149 134.825 449.149 134.825 449.033 134.941C448.918 134.941 448.802 135.056 448.687 135.056C448.571 135.056 448.455 135.172 448.34 135.172C448.224 135.172 448.109 135.172 447.993 135.172Z" fill="white"/>
<path d="M446.259 346.61C446.259 345.684 447.068 344.874 447.993 344.874C448.918 344.874 449.727 345.684 449.727 346.61C449.727 347.536 448.918 348.346 447.993 348.346C446.952 348.346 446.259 347.536 446.259 346.61ZM446.259 303.906C446.259 302.98 447.068 302.17 447.993 302.17C448.918 302.17 449.727 302.98 449.727 303.906C449.727 304.832 448.918 305.642 447.993 305.642C446.952 305.642 446.259 304.832 446.259 303.906ZM446.259 261.317C446.259 260.391 447.068 259.581 447.993 259.581C448.918 259.581 449.727 260.391 449.727 261.317C449.727 262.243 448.918 263.053 447.993 263.053C446.952 263.053 446.259 262.243 446.259 261.317ZM446.259 218.613C446.259 217.687 447.068 216.877 447.993 216.877C448.918 216.877 449.727 217.687 449.727 218.613C449.727 219.539 448.918 220.349 447.993 220.349C446.952 220.349 446.259 219.655 446.259 218.613ZM446.259 176.025C446.259 175.099 447.068 174.289 447.993 174.289C448.918 174.289 449.727 175.099 449.727 176.025C449.727 176.95 448.918 177.76 447.993 177.76C446.952 177.76 446.259 176.95 446.259 176.025Z" fill="white"/>
<path d="M447.993 390.935C447.531 390.935 447.068 390.703 446.721 390.472C446.374 390.125 446.259 389.662 446.259 389.199C446.259 388.736 446.49 388.273 446.721 387.926C446.837 387.81 446.952 387.81 446.952 387.694C447.068 387.694 447.184 387.579 447.299 387.579C447.415 387.579 447.531 387.463 447.646 387.463C447.877 387.463 448.109 387.463 448.34 387.463C448.455 387.463 448.571 387.579 448.687 387.579C448.802 387.579 448.918 387.694 449.033 387.694C449.149 387.81 449.265 387.81 449.265 387.926C449.612 388.273 449.727 388.736 449.727 389.199C449.727 389.662 449.496 390.125 449.265 390.472C448.918 390.703 448.455 390.935 447.993 390.935Z" fill="white"/>
<path d="M64.0487 390.24H16.417V390.587H64.0487V390.24Z" fill="#E0E0E0"/>
<path d="M161.162 387.926H113.415V388.273H161.162V387.926Z" fill="#E0E0E0"/>
<path d="M223.361 387.926H211.8V388.273H223.361V387.926Z" fill="#E0E0E0"/>
<path d="M107.866 397.763H54.3379V398.11H107.866V397.763Z" fill="#E0E0E0"/>
<path d="M292.727 390.009H267.755V390.356H292.727V390.009Z" fill="#E0E0E0"/>
<path d="M335.272 390.009H303.017V390.356H335.272V390.009Z" fill="#E0E0E0"/>
<path d="M491.001 394.985H418.859V395.333H491.001V394.985Z" fill="#E0E0E0"/>
<path d="M224.054 37.7281H170.758L173.764 4.51367H226.945L224.054 37.7281Z" fill="#EBEBEB"/>
<path d="M225.094 0L223.707 17.3594L222.204 38.1908H170.988L173.879 0H225.094Z" fill="#FAFAFA"/>
<path d="M220.239 4.51334L223.129 37.7277H169.948L166.942 4.51334H171.567L173.07 1.96729H187.406L189.487 4.51334H220.239Z" fill="#E0E0E0"/>
<path d="M306.601 45.1348H249.951V101.842H306.601V45.1348Z" fill="#EBEBEB"/>
<path d="M307.988 45.1348H306.601V101.842H307.988V45.1348Z" fill="#E0E0E0"/>
<path d="M301.398 50.4585H255.153V96.7504H301.398V50.4585Z" fill="#F5F5F5"/>
<path d="M255.616 50.4585H255.153V96.7504H255.616V50.4585Z" fill="#E0E0E0"/>
<path d="M278.738 80.2011C283.719 80.2011 287.756 75.0715 287.756 68.7439C287.756 62.4162 283.719 57.2866 278.738 57.2866C273.758 57.2866 269.721 62.4162 269.721 68.7439C269.721 75.0715 273.758 80.2011 278.738 80.2011Z" fill="#E0E0E0"/>
<path d="M283.478 76.4976H273.998V85.9874H283.478V76.4976Z" fill="#E0E0E0"/>
<path d="M261.05 96.6347H295.849V93.3942C295.849 87.2606 290.877 82.2842 284.75 82.2842H272.264C266.137 82.2842 261.165 87.2606 261.165 93.3942V96.6347H261.05Z" fill="#E0E0E0"/>
<path d="M260.125 77.308C260.125 79.1596 263.593 80.7799 263.593 80.7799C263.593 80.7799 267.062 79.2754 267.062 77.308C267.062 76.3821 265.79 75.9192 264.981 76.1507C264.056 76.3821 263.593 77.5394 263.593 77.5394C263.593 77.5394 262.784 76.3821 261.859 76.1507C261.05 75.8035 260.125 76.3821 260.125 77.308Z" fill="#E0E0E0"/>
<path d="M290.993 68.9754C290.993 71.4058 295.502 73.4889 295.502 73.4889C295.502 73.4889 300.011 71.5215 300.011 68.9754C300.011 67.8181 298.392 67.1238 297.236 67.471C296.08 67.8181 295.502 69.2069 295.502 69.2069C295.502 69.2069 294.346 67.7024 293.305 67.3552C292.034 66.8923 290.993 67.7024 290.993 68.9754Z" fill="#E0E0E0"/>
<path d="M135.381 102.421C127.982 103.462 121.045 98.2546 120.005 90.8479C118.964 83.4412 124.167 76.4974 131.566 75.4559C138.965 74.4143 145.901 79.6221 146.942 87.0288C147.982 94.5513 142.78 101.495 135.381 102.421ZM132.606 82.7469C129.138 83.2098 126.71 86.4502 127.172 89.9221C127.635 93.394 130.872 95.8243 134.34 95.3614C137.809 94.8985 140.237 91.658 139.774 88.1861C139.312 84.5985 136.074 82.1682 132.606 82.7469Z" fill="#E0E0E0"/>
<path d="M130.409 48.5142L125.257 49.2339L129.842 82.1294L134.995 81.4097L130.409 48.5142Z" fill="#E0E0E0"/>
<path d="M134.518 44.2625L124.899 45.606L125.618 50.7638L135.236 49.4203L134.518 44.2625Z" fill="#E0E0E0"/>
<path d="M135.438 50.7824L126.393 52.0459L127.112 57.2037L136.157 55.9402L135.438 50.7824Z" fill="#E0E0E0"/>
<path d="M136.841 60.1074L128.94 61.2109L129.659 66.3688L137.56 65.2652L136.841 60.1074Z" fill="#E0E0E0"/>
<path d="M131.797 196.74C133.184 212.826 121.276 225.904 105.206 225.904C89.1363 225.904 74.9162 212.826 73.5289 196.74C72.1415 180.654 84.0495 167.576 100.119 167.576C116.305 167.576 130.409 180.654 131.797 196.74Z" fill="#407BFF"/>
<g opacity="0.8">
<path d="M131.797 196.74C133.184 212.826 121.276 225.904 105.206 225.904C89.1363 225.904 74.9162 212.826 73.5289 196.74C72.1415 180.654 84.0495 167.576 100.119 167.576C116.305 167.576 130.409 180.654 131.797 196.74Z" fill="white"/>
</g>
<path d="M89.1363 178.455C88.7895 178.455 88.4427 178.339 88.2114 177.992C87.8646 177.529 87.9802 176.719 88.4426 176.372C92.1422 173.594 96.7666 172.206 101.854 172.206C102.547 172.206 103.01 172.668 103.01 173.363C103.01 174.057 102.547 174.52 101.854 174.52C97.2291 174.52 93.1827 175.793 89.83 178.224C89.5988 178.339 89.3675 178.455 89.1363 178.455Z" fill="#407BFF"/>
<path d="M94.5699 218.266C94.3386 218.266 94.223 218.266 93.9918 218.15C86.8239 214.331 81.8526 207.503 80.2341 199.402C78.8468 192.111 80.4653 184.936 84.8585 179.728C85.321 179.265 86.0146 179.149 86.4771 179.612C86.9395 180.075 87.0551 180.769 86.5927 181.232C82.6619 185.977 81.159 192.458 82.4307 199.055C83.818 206.461 88.4425 212.711 95.0323 216.183C95.6103 216.53 95.8416 217.224 95.4947 217.803C95.3791 218.034 95.0323 218.266 94.5699 218.266Z" fill="#407BFF"/>
<path d="M106.131 221.275C103.587 221.275 101.044 220.812 98.5005 220.002C97.9224 219.77 97.5756 219.192 97.8068 218.497C98.038 217.919 98.6161 217.572 99.3097 217.803C106.478 220.118 113.53 218.845 118.732 214.331C124.051 209.702 126.594 202.527 125.438 195.12C125.322 194.541 125.785 193.847 126.363 193.847C126.941 193.731 127.634 194.194 127.634 194.773C128.906 202.99 126.132 210.975 120.235 216.067C116.305 219.539 111.333 221.275 106.131 221.275Z" fill="#407BFF"/>
<path d="M125.554 192.227C125.092 192.227 124.629 191.879 124.398 191.416C122.317 184.82 117.23 179.265 110.987 176.487C110.409 176.256 110.178 175.561 110.409 174.983C110.64 174.404 111.334 174.173 111.912 174.404C118.733 177.413 124.282 183.547 126.594 190.722C126.826 191.301 126.479 191.995 125.901 192.227C125.785 192.227 125.67 192.227 125.554 192.227Z" fill="#407BFF"/>
<path d="M107.403 175.215C107.287 175.215 107.171 175.215 107.171 175.215C105.437 174.752 103.703 174.636 101.853 174.636C101.16 174.636 100.697 174.173 100.697 173.479C100.697 172.784 101.16 172.321 101.853 172.321C103.819 172.321 105.784 172.553 107.634 173.016C108.212 173.131 108.674 173.826 108.443 174.404C108.328 174.867 107.865 175.215 107.403 175.215Z" fill="#407BFF"/>
<path d="M86.9396 202.874C86.4772 202.874 86.0147 202.526 85.8991 202.064C83.7025 196.161 84.5118 189.912 87.9801 184.936C91.3328 180.191 96.5353 177.413 102.431 177.413C103.125 177.413 103.588 177.876 103.588 178.57C103.588 179.265 103.125 179.728 102.431 179.728C97.3446 179.728 92.7202 182.042 89.8299 186.209C86.824 190.491 86.1303 196.046 88.0957 201.138C88.3269 201.716 87.9801 202.411 87.4021 202.642C87.2865 202.758 87.1708 202.874 86.9396 202.874Z" fill="#407BFF"/>
<path d="M105.322 216.067C98.6165 215.951 91.7954 212.132 87.9802 206.23C87.6334 205.651 87.749 204.957 88.3271 204.61C88.9051 204.263 89.5988 204.378 89.9456 204.957C93.2984 210.165 99.4257 213.637 105.322 213.752C106.016 213.752 106.478 214.331 106.478 214.91C106.478 215.488 106.016 216.067 105.322 216.067Z" fill="#407BFF"/>
<path d="M109.599 215.488C109.137 215.488 108.559 215.141 108.443 214.562C108.327 213.984 108.674 213.289 109.252 213.174C118.617 210.859 121.045 202.642 120.235 196.277C119.195 188.06 112.721 179.728 102.2 179.728C101.506 179.728 101.044 179.265 101.044 178.57C101.044 177.876 101.506 177.413 102.2 177.413C113.992 177.413 121.391 186.787 122.432 196.046C123.588 205.651 118.617 213.174 109.715 215.488C109.83 215.488 109.715 215.488 109.599 215.488Z" fill="#407BFF"/>
<path d="M97.6916 186.209C97.2292 186.209 96.8823 185.977 96.6511 185.514C96.4199 184.936 96.6511 184.241 97.2292 184.01C98.9633 183.2 100.929 182.737 102.894 182.737C103.588 182.737 104.05 183.2 104.05 183.894C104.05 184.588 103.588 185.051 102.894 185.051C101.276 185.051 99.657 185.399 98.2697 186.093C98.0384 186.093 97.8072 186.209 97.6916 186.209Z" fill="#407BFF"/>
<path d="M105.09 210.627C99.3096 210.627 93.8759 207.04 91.3325 201.485C88.9046 196.277 89.5983 190.838 93.1823 186.903C93.6447 186.44 94.3384 186.44 94.8008 186.787C95.2633 187.25 95.2633 187.944 94.9164 188.407C92.0261 191.648 91.4481 196.161 93.4135 200.443C95.6101 205.304 100.466 208.428 105.437 208.197C109.483 208.081 112.952 205.882 114.57 202.179C116.42 198.129 115.611 193.268 112.489 189.565C112.027 189.102 112.142 188.292 112.605 187.944C113.067 187.481 113.877 187.597 114.223 188.06C117.923 192.458 118.848 198.244 116.767 203.105C114.802 207.503 110.64 210.28 105.668 210.512C105.437 210.627 105.206 210.627 105.09 210.627Z" fill="#407BFF"/>
<path d="M109.946 187.25C109.715 187.25 109.484 187.135 109.368 187.019C107.403 185.746 105.09 185.051 102.778 185.051C102.085 185.051 101.622 184.588 101.622 183.894C101.622 183.2 102.085 182.737 102.778 182.737C105.553 182.737 108.212 183.547 110.524 185.051C111.102 185.399 111.218 186.093 110.871 186.672C110.755 187.019 110.409 187.25 109.946 187.25Z" fill="#407BFF"/>
<path d="M104.512 205.42C101.853 205.42 99.3095 204.263 97.4597 202.064C95.1475 199.286 94.685 195.699 96.0724 192.69C97.4597 189.796 100.119 188.061 103.356 188.061C104.05 188.061 104.512 188.523 104.512 189.218C104.512 189.912 104.05 190.375 103.356 190.375C101.044 190.375 99.1939 191.648 98.1534 193.616C97.1129 195.93 97.4597 198.592 99.1939 200.559C100.928 202.642 103.587 203.568 106.131 202.874C108.327 202.295 109.83 200.791 110.293 198.708C110.408 198.129 110.986 197.666 111.68 197.782C112.258 197.898 112.72 198.476 112.605 199.171C111.911 202.18 109.83 204.378 106.709 205.189C106.015 205.304 105.206 205.42 104.512 205.42Z" fill="#407BFF"/>
<path d="M111.218 196.277C110.756 196.277 110.293 195.93 110.062 195.467C109.137 192.574 106.247 190.375 103.241 190.375C102.547 190.375 102.085 189.912 102.085 189.218C102.085 188.523 102.547 188.061 103.241 188.061C107.287 188.061 110.987 190.838 112.259 194.773C112.49 195.352 112.143 196.046 111.449 196.277C111.449 196.277 111.334 196.277 111.218 196.277Z" fill="#407BFF"/>
<path d="M104.859 200.559C104.281 200.559 103.703 200.096 103.703 199.402C103.703 198.707 104.166 198.244 104.859 198.244C105.9 198.244 106.015 197.434 106.015 196.971C106.015 196.277 105.553 195.235 104.397 195.235C104.05 195.235 103.703 195.351 103.472 195.698C103.241 195.93 103.125 196.277 103.125 196.74C103.125 197.434 102.663 197.897 102.085 198.013C101.507 198.013 100.929 197.55 100.813 196.971C100.697 195.93 101.044 195.004 101.738 194.31C102.431 193.615 103.356 193.152 104.397 193.152C107.056 193.268 108.328 195.351 108.328 197.203C108.328 199.055 106.94 200.559 104.859 200.559Z" fill="#407BFF"/>
<path d="M134.571 196.74C135.959 212.826 124.051 225.904 107.981 225.904C107.518 225.904 107.171 225.904 106.709 225.904C122.085 225.094 133.184 212.364 131.797 196.74C130.409 181.117 117.114 168.386 101.622 167.576C102.085 167.576 102.431 167.576 102.894 167.576C118.964 167.576 133.184 180.654 134.571 196.74Z" fill="#407BFF"/>
<g opacity="0.4">
<path d="M134.571 196.74C135.959 212.826 124.051 225.904 107.981 225.904C107.518 225.904 107.171 225.904 106.709 225.904C122.085 225.094 133.184 212.364 131.797 196.74C130.409 181.117 117.114 168.386 101.622 167.576C102.085 167.576 102.431 167.576 102.894 167.576C118.964 167.576 133.184 180.654 134.571 196.74Z" fill="white"/>
</g>
<path d="M158.156 54.5087C158.156 54.8559 158.272 55.2031 158.272 55.5503C158.734 57.7492 159.89 59.8323 161.509 61.3368C163.359 63.0727 165.902 64.1143 168.561 64.1143H266.252C271.224 64.1143 274.923 60.4109 275.039 55.5503C275.039 55.2031 275.039 54.8559 275.039 54.5087C274.808 51.8469 273.536 49.4166 271.686 47.7964C269.836 46.0605 267.293 45.0189 264.634 45.0189H166.943C161.624 44.9032 157.694 49.1852 158.156 54.5087Z" fill="#407BFF"/>
<path opacity="0.8" d="M158.156 54.5087C158.156 54.8559 158.272 55.2031 158.272 55.5503C158.734 57.7492 159.89 59.8323 161.509 61.3368C163.359 63.0727 165.902 64.1143 168.561 64.1143H266.252C271.224 64.1143 274.923 60.4109 275.039 55.5503C275.039 55.2031 275.039 54.8559 275.039 54.5087C274.808 51.8469 273.536 49.4166 271.686 47.7964C269.836 46.0605 267.293 45.0189 264.634 45.0189H166.943C161.624 44.9032 157.694 49.1852 158.156 54.5087Z" fill="white"/>
<path d="M275.039 55.5504C275.039 55.8976 275.039 56.1291 274.923 56.4763C274.576 53.9302 273.304 51.7314 271.57 50.1111C269.72 48.3752 267.177 47.3336 264.518 47.3336L160.699 47.4494C162.318 45.9449 164.399 45.019 166.942 45.019H264.634C267.293 45.019 269.72 46.0606 271.686 47.7966C273.536 49.5325 274.923 51.9628 275.039 54.5089C275.039 54.8561 275.039 55.2032 275.039 55.5504Z" fill="#407BFF"/>
<path opacity="0.5" d="M275.039 55.5504C275.039 55.8976 275.039 56.1291 274.923 56.4763C274.576 53.9302 273.304 51.7314 271.57 50.1111C269.72 48.3752 267.177 47.3336 264.518 47.3336L160.699 47.4494C162.318 45.9449 164.399 45.019 166.942 45.019H264.634C267.293 45.019 269.72 46.0606 271.686 47.7966C273.536 49.5325 274.923 51.9628 275.039 54.5089C275.039 54.8561 275.039 55.2032 275.039 55.5504Z" fill="white"/>
<path d="M258.276 49.5322L258.738 54.1614L263.132 52.5412L264.172 54.8558L259.779 56.3603L263.016 60.2951L261.051 61.7996L257.929 57.749L255.617 61.7996L253.42 60.2951L255.848 56.3603L251.224 54.8558L251.802 52.5412L256.426 54.1614L255.964 49.5322H258.276Z" fill="#407BFF"/>
<path d="M231.454 49.5322L231.916 54.1614L236.309 52.5412L237.35 54.8558L232.957 56.3603L236.194 60.2951L234.228 61.7996L231.107 57.749L228.795 61.7996L226.598 60.2951L229.026 56.3603L224.401 54.8558L224.979 52.5412L229.604 54.1614L229.141 49.5322H231.454Z" fill="#407BFF"/>
<path d="M204.748 49.5322L205.21 54.1614L209.603 52.5412L210.644 54.8558L206.251 56.3603L209.488 60.2951L207.522 61.7996L204.401 57.749L202.089 61.7996L199.892 60.2951L202.32 56.3603L197.695 54.8558L198.273 52.5412L202.898 54.1614L202.435 49.5322H204.748Z" fill="#407BFF"/>
<path d="M178.042 49.5322L178.504 54.1614L182.897 52.5412L183.938 54.8558L179.544 56.3603L182.782 60.2951L180.816 61.7996L177.695 57.749L175.382 61.7996L173.186 60.2951L175.614 56.3603L170.989 54.8558L171.567 52.5412L176.192 54.1614L175.729 49.5322H178.042Z" fill="#407BFF"/>
<path d="M242.783 40.3896H238.274V41.5469H242.783V40.3896Z" fill="#407BFF"/>
<path d="M262.437 40.3896H247.523V41.5469H262.437V40.3896Z" fill="#407BFF"/>
<path opacity="0.8" d="M414.119 83.5565L409.379 137.718C409.263 139.338 408.454 140.843 407.413 142C406.142 143.273 404.408 144.199 402.442 144.199H364.869C363.481 144.199 362.21 143.736 361.285 143.041C359.782 141.884 358.857 140.033 359.088 137.834L363.828 83.6722C364.175 80.2003 367.296 77.3071 370.765 77.3071H408.338C411.807 77.1913 414.466 80.0846 414.119 83.5565Z" fill="#407BFF"/>
<path opacity="0.8" d="M414.119 83.5565L409.379 137.718C409.263 139.338 408.454 140.843 407.413 142C406.142 143.273 404.408 144.199 402.442 144.199H364.869C363.481 144.199 362.21 143.736 361.285 143.041C359.782 141.884 358.857 140.033 359.088 137.834L363.828 83.6722C364.175 80.2003 367.296 77.3071 370.765 77.3071H408.338C411.807 77.1913 414.466 80.0846 414.119 83.5565Z" fill="white"/>
<path d="M367.297 92.2363C367.181 92.2363 367.181 92.2363 367.297 92.2363C366.603 92.1205 366.141 91.6576 366.141 90.9633L366.603 85.9869C366.603 85.4082 367.181 84.9453 367.759 84.9453H372.962C373.655 84.9453 374.118 85.4082 374.118 86.1026C374.118 86.797 373.655 87.2599 372.962 87.2599H368.8L368.453 91.1947C368.337 91.7734 367.875 92.2363 367.297 92.2363Z" fill="#407BFF"/>
<path d="M409.263 92.2363C408.57 92.1205 408.107 91.6576 408.107 90.9633L408.454 87.2599H404.523C403.83 87.2599 403.367 86.797 403.367 86.1026C403.367 85.4082 403.83 84.9453 404.523 84.9453H409.726C410.073 84.9453 410.304 85.061 410.535 85.2925C410.766 85.524 410.882 85.8711 410.882 86.2183L410.419 91.1947C410.419 91.7734 409.841 92.2363 409.263 92.2363Z" fill="#407BFF"/>
<path d="M369.262 129.617H364.059C363.713 129.617 363.481 129.501 363.25 129.27C363.019 129.038 362.903 128.691 362.903 128.344L363.366 123.367C363.366 122.673 363.944 122.21 364.637 122.326C365.331 122.326 365.794 122.904 365.678 123.599L365.331 127.302H369.262C369.956 127.302 370.418 127.765 370.418 128.46C370.418 129.154 369.84 129.617 369.262 129.617Z" fill="#407BFF"/>
<path d="M406.027 129.617H400.824C400.13 129.617 399.668 129.154 399.668 128.46C399.668 127.765 400.13 127.302 400.824 127.302H404.986L405.333 123.367C405.333 122.673 406.027 122.21 406.605 122.326C407.298 122.326 407.761 122.904 407.645 123.599L407.183 128.575C407.183 129.154 406.605 129.617 406.027 129.617Z" fill="#407BFF"/>
<path d="M402.673 107.165C401.749 117.465 394.118 125.913 385.679 125.913C377.239 125.913 370.996 117.581 371.921 107.165C372.846 96.8653 380.476 88.417 388.916 88.417C397.355 88.417 403.598 96.7495 402.673 107.165Z" fill="white"/>
<path d="M391.806 135.982H376.893L378.164 120.937H393.194L391.806 135.982Z" fill="white"/>
<path d="M409.379 137.718C409.263 139.338 408.454 140.842 407.413 142C406.142 143.273 404.408 144.198 402.442 144.198H364.869C363.481 144.198 362.21 143.736 361.285 143.041C359.782 141.884 358.857 140.032 359.088 137.833C359.088 137.833 376.314 132.394 378.511 132.394C380.592 132.394 391.806 132.394 391.806 132.394L409.379 137.718Z" fill="white"/>
<path d="M417.403 99.4939L416.251 99.3989L414.506 120.621L415.658 120.716L417.403 99.4939Z" fill="#407BFF"/>
<path d="M418.554 89.738L417.401 89.6431L417.06 93.7952L418.212 93.8901L418.554 89.738Z" fill="#407BFF"/>
<path d="M377.123 218.729H372.614V219.886H377.123V218.729Z" fill="#407BFF"/>
<path d="M396.892 218.729H381.979V219.886H396.892V218.729Z" fill="#407BFF"/>
<path d="M423.945 199.055L421.055 232.037C420.824 235.046 418.165 237.477 415.159 237.477C412.153 237.477 409.956 235.046 410.303 232.037L413.193 199.055C414.118 188.407 406.257 179.728 395.62 179.728H383.828C373.192 179.728 363.712 188.407 362.787 199.055L361.631 212.479H350.879L352.035 199.055C353.538 182.505 368.105 168.965 384.753 168.965H396.545C413.078 168.965 425.448 182.389 423.945 199.055Z" fill="#407BFF"/>
<g opacity="0.5">
<path d="M423.945 199.055L421.055 232.037C420.824 235.046 418.165 237.477 415.159 237.477C412.153 237.477 409.956 235.046 410.303 232.037L413.193 199.055C414.118 188.407 406.257 179.728 395.62 179.728H383.828C373.192 179.728 363.712 188.407 362.787 199.055L361.631 212.479H350.879L352.035 199.055C353.538 182.505 368.105 168.965 384.753 168.965H396.545C413.078 168.965 425.448 182.389 423.945 199.055Z" fill="white"/>
</g>
<path d="M424.755 230.765L419.09 294.995C418.743 299.045 415.159 302.401 411.113 302.401H346.949C342.902 302.401 339.896 299.161 340.243 294.995L345.908 230.765C346.139 228.103 347.758 225.788 349.954 224.515C351.111 223.821 352.498 223.358 354.001 223.358H418.165C419.552 223.358 420.824 223.705 421.864 224.399C423.714 225.788 424.986 228.103 424.755 230.765Z" fill="#407BFF"/>
<path d="M357.932 258.887L374.58 284.579L429.61 229.491C430.073 229.028 429.379 228.218 428.917 228.681L376.429 269.881L366.487 253.91L357.932 258.887Z" fill="white"/>
<path d="M95.263 134.594H53.4118C49.481 134.594 46.0127 131.353 45.6659 127.534L42.0819 85.6401C41.7351 81.7053 44.6254 78.5806 48.5561 78.5806H90.2917C94.2225 78.5806 97.6908 81.821 98.0377 85.6401L101.737 127.418C102.084 131.353 99.0782 134.594 95.263 134.594Z" fill="#407BFF"/>
<path opacity="0.8" d="M95.263 134.594H53.4118C49.481 134.594 46.0127 131.353 45.6659 127.534L42.0819 85.6401C41.7351 81.7053 44.6254 78.5806 48.5561 78.5806H90.2917C94.2225 78.5806 97.6908 81.821 98.0377 85.6401L101.737 127.418C102.084 131.353 99.0782 134.594 95.263 134.594Z" fill="white"/>
<path d="M45.666 110.753C45.666 110.753 60.4642 90.0377 71.4473 90.6164C82.4303 91.195 100.581 110.29 100.581 110.29C100.581 110.29 73.8751 124.294 45.666 110.753Z" fill="white"/>
<path d="M46.2442 111.1L45.3193 110.406C45.8974 109.596 60.1175 90.0376 71.2162 90.0376C71.3318 90.0376 71.563 90.0376 71.6786 90.0376C82.7773 90.6162 100.466 109.133 101.159 109.943L100.35 110.753C100.003 110.406 82.0836 91.6578 71.4474 91.1949C71.3318 91.1949 71.2162 91.1949 71.1006 91.1949C60.58 91.1949 46.3598 110.869 46.2442 111.1Z" fill="#263238"/>
<path d="M44.163 111.448C41.9664 111.448 38.9605 110.637 38.0356 107.397C37.92 107.05 38.1512 106.818 38.3825 106.703C38.7293 106.587 38.9605 106.818 39.0761 107.05C40.3479 111.1 45.3191 110.175 45.5504 110.175C45.8972 110.059 46.1284 110.29 46.244 110.637C46.3596 110.985 46.1284 111.216 45.7816 111.332C45.3191 111.448 44.8567 111.448 44.163 111.448Z" fill="#263238"/>
<path d="M52.9496 102.537C52.834 102.537 52.7184 102.537 52.6028 102.421C52.3715 102.305 48.3252 99.0647 47.2847 95.94C47.169 95.5928 47.4003 95.3614 47.6315 95.2456C47.9783 95.1299 48.2095 95.3614 48.3252 95.5928C49.25 98.4861 53.1808 101.495 53.2964 101.611C53.5276 101.842 53.6433 102.189 53.412 102.421C53.2964 102.537 53.1808 102.537 52.9496 102.537Z" fill="#263238"/>
<path d="M61.5047 94.6667C61.1579 94.6667 60.9267 94.4352 60.9267 94.088C60.9267 93.3936 59.0769 88.533 58.3832 86.6813C58.0364 85.8712 57.9208 85.4083 57.8052 85.1768C57.6896 84.8296 57.9208 84.5982 58.152 84.4824C58.4988 84.3667 58.7301 84.5982 58.8457 84.8296C58.8457 84.9454 59.0769 85.524 59.3081 86.2184C60.9267 90.5004 61.9672 93.2779 61.8516 94.088C62.0828 94.4352 61.8516 94.6667 61.5047 94.6667Z" fill="#263238"/>
<path d="M71.5631 91.195C71.2163 91.195 70.9851 90.9635 70.9851 90.6163L70.1758 81.2422C70.1758 80.895 70.407 80.6636 70.7538 80.6636C71.1007 80.6636 71.3319 80.895 71.3319 81.2422L72.1412 90.6163C72.1412 90.8478 71.9099 91.0792 71.5631 91.195Z" fill="#263238"/>
<path d="M102.316 110.869C101.391 110.869 100.697 110.754 100.582 110.754C100.235 110.638 100.119 110.406 100.119 110.059C100.235 109.712 100.466 109.596 100.813 109.596C100.813 109.596 103.587 110.175 105.322 108.902C106.015 108.439 106.478 107.629 106.593 106.587C106.593 106.24 106.94 106.009 107.287 106.124C107.634 106.124 107.865 106.472 107.749 106.819C107.518 108.207 106.94 109.133 105.9 109.943C104.975 110.638 103.472 110.869 102.316 110.869Z" fill="#263238"/>
<path d="M92.0265 101.958C91.9109 101.958 91.6797 101.842 91.564 101.726C91.3328 101.495 91.3328 101.148 91.564 100.916C91.564 100.916 95.0324 97.9073 95.3792 95.014C95.3792 94.6668 95.726 94.4354 96.0729 94.5511C96.4197 94.5511 96.6509 94.8983 96.5353 95.2455C96.0729 98.4859 92.4889 101.726 92.2577 101.842C92.2577 101.958 92.1421 101.958 92.0265 101.958Z" fill="#263238"/>
<path d="M82.1991 95.2456C81.7367 95.1298 81.6211 94.8984 81.6211 94.5512C81.6211 94.4355 82.8928 87.0288 83.124 85.5243C83.124 85.1771 83.4709 84.9456 83.8177 85.0614C84.1645 85.0614 84.3958 85.4085 84.2802 85.7557C84.0489 87.2602 82.7772 94.7826 82.7772 94.7826C82.7772 95.0141 82.4304 95.2456 82.1991 95.2456Z" fill="#263238"/>
<path d="M85.7834 103.694C86.3614 110.985 81.0433 116.771 73.8755 116.771C66.592 116.771 60.2334 110.869 59.6553 103.694C59.0772 96.4027 64.3954 90.6162 71.5632 90.6162C78.7311 90.6162 85.0897 96.4027 85.7834 103.694Z" fill="#407BFF"/>
<path opacity="0.3" d="M78.0368 103.694C78.0368 103.346 78.0368 103.115 78.0368 102.768C77.8056 99.6431 75.031 97.2128 72.0251 97.2128C69.0192 97.2128 66.707 99.7589 66.9382 102.768C66.9382 103.115 67.0538 103.346 67.0538 103.694H59.5391C58.961 96.4027 64.2791 90.6162 71.447 90.6162C78.7305 90.6162 85.0891 96.5184 85.6672 103.694H78.0368Z" fill="black"/>
<path opacity="0.7" d="M78.0372 102.768C78.0372 103.115 78.0372 103.347 78.0372 103.694C77.806 106.356 75.725 108.439 72.9503 108.439C70.1757 108.439 67.7478 106.356 67.0542 103.694C66.9386 103.347 66.9386 103.115 66.9386 102.768C66.7073 99.6432 68.9039 97.2129 72.0254 97.2129C75.0313 97.2129 77.806 99.7589 78.0372 102.768Z" fill="black"/>
<path opacity="0.7" d="M81.0434 97.3289C81.2746 99.8749 79.4249 101.842 76.8814 101.842C74.338 101.842 72.1414 99.7592 71.9101 97.3289C71.6789 94.7828 73.5287 92.8154 76.0721 92.8154C78.6156 92.8154 80.8122 94.7828 81.0434 97.3289Z" fill="white"/>
<path d="M63.1231 73.2568H58.6143V74.4141H63.1231V73.2568Z" fill="#407BFF"/>
<path d="M82.7771 73.2568H67.8633V74.4141H82.7771V73.2568Z" fill="#407BFF"/>
<path d="M273.304 158.087L273.651 158.55L274.229 159.128C274.576 159.591 274.923 159.938 275.385 160.401C276.195 161.211 277.004 162.021 277.929 162.832C279.663 164.452 281.513 165.956 283.478 167.345C285.443 168.849 287.524 170.122 289.49 171.396C290.646 171.974 291.571 172.669 292.727 173.247L295.27 174.636C295.617 174.752 296.08 174.867 296.426 174.752C297.236 174.52 301.86 169.891 303.363 168.155C306.6 164.336 311.571 159.475 314.346 155.193L317.352 159.36C315.502 164.567 312.959 169.428 309.837 173.942C308.219 176.372 306.253 178.571 303.941 180.538C302.554 181.695 301.051 182.621 299.432 183.316C297.351 184.126 295.039 184.357 292.843 183.779C292.264 183.663 291.686 183.431 291.224 183.2L290.183 182.737L288.334 181.927C287.062 181.348 285.906 180.654 284.634 180.075C282.206 178.802 279.778 177.298 277.466 175.793C275.154 174.173 272.957 172.437 270.876 170.585C269.72 169.66 268.795 168.618 267.755 167.576C267.292 167.114 266.714 166.535 266.252 165.956L265.558 165.03C265.327 164.683 265.096 164.452 264.749 163.989L273.304 158.087Z" fill="#FFB573"/>
<path d="M313.769 156.004L319.087 144.546L324.174 153.689C324.174 153.689 320.821 159.476 317.121 159.476L313.769 156.004Z" fill="#FFB573"/>
<path d="M325.214 139.801L330.648 146.745L324.289 153.689L319.202 144.546L325.214 139.801Z" fill="#FFB573"/>
<path d="M323.364 156.93H331.919C332.381 156.93 332.844 156.582 332.844 156.004L334.578 135.52C334.578 134.941 334.231 134.478 333.653 134.478H325.098C324.635 134.478 324.173 134.825 324.173 135.404L322.439 155.888C322.323 156.467 322.786 156.93 323.364 156.93Z" fill="#407BFF"/>
<path opacity="0.3" d="M323.363 154.846H331.918L333.537 136.561H324.982L323.363 154.846Z" fill="white"/>
<path d="M322.901 152.3L324.404 151.49C325.214 151.142 325.907 150.564 326.485 149.985L326.717 148.944C326.37 148.365 325.676 148.133 325.098 148.249L323.826 148.596L317.583 149.059L317.468 151.721L319.318 154.499H319.896C321.399 154.73 322.67 153.688 322.901 152.3Z" fill="#FFB573"/>
<path d="M262.437 146.861C266.714 146.051 297.351 172.669 297.351 172.669L288.333 185.978C288.333 185.978 254.922 162.716 255.962 157.045C256.887 151.143 256.078 148.018 262.437 146.861Z" fill="#263238"/>
<path opacity="0.2" d="M266.252 155.425L265.905 169.313C269.374 171.975 281.86 181.58 281.86 181.58L266.252 155.425Z" fill="black"/>
<path d="M241.974 422.76L252.263 423.686L255.5 399.961L245.211 398.92L241.974 422.76Z" fill="#FFB573"/>
<path d="M141.046 283.075L138.387 293.027L160.584 302.633L165.208 292.449L141.046 283.075Z" fill="#FFB573"/>
<path d="M259.547 425.77C260.472 425.886 261.281 425.654 262.09 425.191C262.437 424.844 262.553 424.497 262.553 424.034C262.553 423.802 262.437 423.455 262.206 423.34C260.934 422.645 256.772 424.613 256.31 424.844C256.194 424.844 256.194 424.96 256.194 425.075C256.194 425.191 256.31 425.307 256.426 425.307C257.466 425.538 258.507 425.77 259.547 425.77ZM261.512 423.687C261.628 423.687 261.859 423.687 261.975 423.802C262.09 423.802 262.09 423.918 262.09 424.034C262.09 424.381 261.975 424.613 261.744 424.844C261.05 425.423 259.431 425.423 257.119 424.96C258.507 424.381 260.009 423.918 261.512 423.687Z" fill="#407BFF"/>
<path d="M256.426 425.307C257.813 424.728 260.241 422.645 260.125 421.488C260.009 421.256 259.894 420.909 259.2 420.793C258.738 420.678 258.16 420.793 257.813 421.141C256.541 422.182 256.194 424.96 256.194 425.075C256.194 425.191 256.194 425.191 256.31 425.307C256.31 425.307 256.31 425.307 256.426 425.307ZM258.969 421.256H259.085C259.547 421.372 259.547 421.488 259.547 421.603C259.663 422.298 257.928 424.034 256.657 424.728C256.772 423.571 257.235 422.414 258.044 421.603C258.391 421.256 258.622 421.141 258.969 421.256Z" fill="#407BFF"/>
<path d="M251.801 419.636L242.552 419.983C242.089 419.983 241.743 420.33 241.743 420.677L239.546 433.639C239.546 434.565 240.24 435.375 241.164 435.375C241.28 435.375 241.28 435.375 241.396 435.375C245.442 435.144 247.407 434.912 252.494 434.681C255.616 434.565 265.212 435.722 269.489 434.681C273.767 433.755 272.957 429.473 271.108 429.473C265.212 429.588 258.275 425.769 254.922 421.14C254.229 420.909 252.379 419.52 251.801 419.636Z" fill="#263238"/>
<path d="M143.126 294.301L147.866 286.315C148.097 285.968 147.982 285.505 147.635 285.274L138.039 276.363C137.346 275.784 136.19 276.015 135.727 276.71L135.611 276.826C133.646 280.297 132.837 282.149 130.178 286.547C128.559 289.209 122.432 296.731 120.929 300.782C119.426 304.832 123.472 306.568 124.397 304.948C127.519 299.856 134.455 296.268 140.12 295.805C140.698 295.689 142.779 294.879 143.126 294.301Z" fill="#263238"/>
<path opacity="0.2" d="M255.501 399.961L253.882 412.229L243.593 411.187L245.211 398.92L255.501 399.961Z" fill="black"/>
<path opacity="0.2" d="M172.029 294.879L167.289 305.642L152.953 299.276L156.653 289.092L172.029 294.879Z" fill="black"/>
<path d="M268.911 159.128C274.808 169.081 267.64 177.529 261.628 207.387L223.014 207.503C223.592 191.417 223.592 178.455 216.771 146.861C216.193 143.967 217.927 141.19 220.817 140.496C221.164 140.38 221.627 140.38 221.973 140.38C225.211 140.38 229.141 140.496 233.303 140.959C239.778 141.537 246.136 142.463 252.495 143.852C257.813 145.125 259.2 145.819 262.553 146.976C264.403 147.555 266.715 152.994 268.911 159.128Z" fill="#263238"/>
<path d="M263.13 209.355C263.13 209.355 284.865 272.197 284.287 302.402C283.94 319.762 282.668 351.934 277.466 374.617C273.188 393.134 255.847 404.939 255.847 404.939L241.973 404.128C241.973 404.128 234.459 375.89 235.73 364.665C238.274 342.329 246.02 325.432 245.095 304.948C243.592 271.271 233.649 208.893 233.649 208.893L263.13 209.355Z" fill="#407BFF"/>
<path d="M239.199 407.715L258.737 408.873L260.587 402.97L238.621 400.887L239.199 407.715Z" fill="#263238"/>
<path opacity="0.2" d="M241.627 336.194C253.997 337.236 262.553 319.529 260.472 295.226L253.882 233.311L241.627 336.194Z" fill="black"/>
<path d="M253.304 208.776C253.304 208.776 270.53 319.182 234.69 331.681C215.73 338.856 199.891 331.102 181.047 322.77C170.179 317.909 156.537 304.831 156.537 304.831L161.74 290.597C161.74 290.597 174.11 286.546 190.642 289.092C209.025 291.986 209.834 297.193 216.308 293.259C230.066 259.234 206.365 232.385 222.435 208.776H253.304Z" fill="#407BFF"/>
<path d="M162.78 287.936L155.728 306.337L160.93 310.271L169.254 288.283L162.78 287.936Z" fill="#263238"/>
<path d="M159.89 188.061C158.156 190.607 149.254 188.871 149.254 188.871L147.404 177.877L158.272 182.275L159.89 188.061Z" fill="#FFB573"/>
<path d="M149.6 177.414L151.335 188.871L144.745 189.797C144.051 189.913 143.357 189.334 143.242 188.64L140.698 180.423C140.583 180.076 140.814 179.613 141.276 179.497L149.6 177.414Z" fill="#FFB573"/>
<path d="M146.71 182.506L150.41 183.2L153.878 180.539L152.491 179.613C151.566 178.918 150.872 177.993 150.641 176.835C150.41 175.678 150.179 174.405 150.179 173.363V173.016C150.063 172.322 149.485 171.743 148.791 171.627L147.866 172.322C147.288 173.595 147.751 175.099 147.635 176.025L147.52 177.993L146.017 178.687L146.71 182.506Z" fill="#FFB573"/>
<path d="M218.62 144.662L196.77 174.752L156.537 182.621V189.218C156.537 189.218 194.342 191.996 202.782 187.019C211.221 182.043 225.557 152.069 225.557 152.069L218.62 144.662Z" fill="#FFB573"/>
<path d="M218.274 86.7969C209.14 83.6722 198.504 89.4587 194.227 98.1384C190.065 106.818 191.452 117.581 196.192 126.029C197.579 128.575 199.313 131.006 200.47 133.667C201.626 136.329 202.204 139.454 201.279 142.231C200.354 145.009 199.313 146.745 195.961 146.282C195.961 146.282 195.961 144.43 197.232 144.662C197.232 144.662 194.458 146.166 193.417 145.24C194.689 147.208 198.042 146.513 199.082 144.43C200.701 141.306 197.695 137.255 194.227 137.255C190.758 137.255 187.984 140.843 188.099 144.315C188.215 147.786 190.758 150.911 193.88 152.3C192.03 152.647 189.949 151.606 189.255 149.754C190.874 153.92 195.961 155.656 200.354 154.846C204.632 154.036 208.331 151.258 211.799 148.481C216.424 144.662 221.164 139.917 221.048 133.899C220.933 129.501 218.042 125.682 215.73 121.979C213.302 118.275 211.221 113.646 212.724 109.48C213.996 105.892 217.464 103.809 220.586 101.726C222.783 100.222 227.291 96.7497 226.829 93.5092C226.251 90.2688 220.933 87.607 218.274 86.7969Z" fill="#263238"/>
<path d="M197.694 189.797L191.683 173.71L193.07 173.826C195.382 174.057 197.579 172.9 198.619 170.817C203.244 162.6 215.152 141.653 218.504 140.611C223.36 139.223 228.216 143.042 230.065 148.713C231.453 152.879 217.348 170.817 210.874 181.001C205.093 190.028 197.694 189.797 197.694 189.797Z" fill="#263238"/>
<path d="M138.502 299.624V299.74C138.618 300.202 139.08 300.55 139.543 300.665C139.774 300.781 140.121 300.665 140.352 300.434C141.277 299.508 140.699 295.805 140.699 295.458C140.699 295.342 140.583 295.226 140.468 295.226C140.352 295.226 140.236 295.226 140.236 295.342C139.543 296.499 138.271 298.466 138.502 299.624ZM140.352 296.152C140.583 297.656 140.699 299.624 140.121 300.087C140.005 300.202 139.89 300.202 139.774 300.202C139.427 300.087 139.196 299.971 139.08 299.624C138.849 298.929 139.312 297.656 140.352 296.152Z" fill="#407BFF"/>
<path d="M140.352 295.92C140.699 297.193 141.855 299.277 142.895 299.508C143.242 299.624 143.705 299.392 143.82 299.045C144.051 298.698 144.051 298.351 143.936 298.004C143.473 296.615 140.699 295.342 140.583 295.342C140.468 295.342 140.468 295.342 140.352 295.342C140.236 295.342 140.236 295.458 140.236 295.573C140.236 295.689 140.236 295.805 140.352 295.92ZM143.473 298.235C143.473 298.467 143.473 298.698 143.358 298.814C143.242 299.045 143.011 299.045 142.895 299.045C142.202 298.929 141.161 297.193 140.814 295.92C141.739 296.383 143.127 297.309 143.473 298.235Z" fill="#407BFF"/>
<path d="M222.898 205.536L221.857 209.355C221.742 209.702 222.089 209.933 222.551 209.933H262.437C262.784 209.933 263.131 209.702 263.131 209.47L263.477 205.651C263.477 205.42 263.131 205.188 262.784 205.188H223.592C223.245 205.188 223.013 205.304 222.898 205.536Z" fill="#407BFF"/>
<path opacity="0.5" d="M222.898 205.536L221.857 209.355C221.742 209.702 222.089 209.933 222.551 209.933H262.437C262.784 209.933 263.131 209.702 263.131 209.47L263.477 205.651C263.477 205.42 263.131 205.188 262.784 205.188H223.592C223.245 205.188 223.013 205.304 222.898 205.536Z" fill="white"/>
<path d="M230.528 210.165H229.372C229.141 210.165 229.025 210.049 229.025 209.933L229.603 205.073C229.603 204.957 229.835 204.841 230.066 204.841H231.222C231.453 204.841 231.569 204.957 231.569 205.073L230.991 209.933C230.875 210.049 230.644 210.165 230.528 210.165Z" fill="#407BFF"/>
<path d="M259.315 210.165H258.159C257.928 210.165 257.812 210.049 257.812 209.933L258.391 205.073C258.391 204.957 258.622 204.841 258.853 204.841H260.009C260.24 204.841 260.356 204.957 260.356 205.073L259.778 209.933C259.662 210.049 259.547 210.165 259.315 210.165Z" fill="#407BFF"/>
<path d="M246.136 210.165H244.98C244.748 210.165 244.633 210.049 244.633 209.933L245.211 205.073C245.211 204.957 245.442 204.841 245.673 204.841H246.829C247.061 204.841 247.176 204.957 247.176 205.073L246.598 209.933C246.483 210.049 246.367 210.165 246.136 210.165Z" fill="#407BFF"/>
<path d="M235.037 119.78C236.309 126.029 237.465 137.486 233.188 140.843C233.188 140.843 234.922 147.323 246.367 149.059C258.969 150.911 252.379 143.736 252.379 143.736C245.558 140.958 245.673 135.982 246.83 131.468L235.037 119.78Z" fill="#FFB573"/>
<path d="M233.187 140.843C239.661 141.306 244.979 142 251.338 143.389L260.009 145.935C261.512 149.06 259.084 155.425 251.8 156.582C251.8 156.582 233.534 159.128 228.216 140.264L233.187 140.843Z" fill="#FFB573"/>
<path opacity="0.2" d="M239.777 124.525L246.714 131.469C246.367 132.51 246.251 133.668 246.136 134.709C243.477 133.899 239.315 131.006 238.968 128.228C239.083 127.071 239.315 125.798 239.777 124.525Z" fill="black"/>
<path d="M227.291 111.795C230.413 121.632 231.453 125.798 237.812 129.617C247.292 135.404 258.622 129.502 258.506 118.97C258.39 109.48 253.419 95.1299 242.667 93.5097C235.037 92.3524 227.869 97.6759 226.713 105.314C226.366 107.513 226.597 109.712 227.291 111.795Z" fill="#FFB573"/>
<path d="M250.645 110.291C251.685 112.026 253.072 113.531 254.575 114.92C253.882 115.73 252.841 116.077 251.801 116.077L250.645 110.291Z" fill="#ED893E"/>
<path d="M249.489 121.285C249.836 121.285 250.298 121.169 250.645 121.053C250.761 121.053 250.876 120.937 250.761 120.822C250.761 120.706 250.645 120.59 250.414 120.59C248.333 121.169 246.252 120.706 244.518 119.433C244.402 119.317 244.286 119.317 244.171 119.433C244.055 119.549 244.055 119.664 244.171 119.78C245.789 120.937 247.639 121.516 249.489 121.285Z" fill="#263238"/>
<path d="M223.939 92.2366C221.395 93.8568 219.661 96.75 219.661 99.8747C219.661 100.453 219.661 101.032 219.892 101.611C220.124 102.074 220.586 102.537 221.164 102.537C222.089 102.537 222.667 101.726 223.129 101.032C223.823 99.8747 224.632 98.7174 225.326 97.5601C226.02 96.4028 227.291 95.1298 227.638 93.8568C228.448 91.5422 225.326 91.4265 223.939 92.2366Z" fill="#407BFF"/>
<path d="M224.979 94.5511C218.851 101.611 216.077 121.285 234.112 126.84C237.118 124.409 232.262 120.127 230.181 114.688C228.794 111.1 235.731 104.388 238.39 101.611C241.049 98.8331 243.477 94.8983 247.292 95.4769C248.332 95.5926 249.373 95.9398 250.298 95.5926C253.304 94.2039 251.801 92.4679 250.298 91.1949C248.101 89.3432 244.98 88.5331 242.205 88.1859C235.846 87.4916 229.141 89.6904 224.979 94.5511Z" fill="#263238"/>
<path d="M244.98 92.2364C252.148 98.2544 242.668 98.3701 237.581 102.189C232.725 105.893 236.078 111.91 227.985 114.688C221.279 116.655 219.777 115.498 217.927 114.225C217.927 114.225 225.557 113.299 226.598 104.735C227.176 100.222 236.771 85.1769 244.98 92.2364Z" fill="#263238"/>
<path d="M226.135 120.012C227.291 121.632 229.025 122.789 230.99 123.136C233.534 123.599 234.574 121.169 233.649 118.854C232.84 116.771 230.412 113.994 227.984 114.572C226.135 115.035 225.094 116.887 225.557 118.623C225.672 119.201 225.903 119.664 226.135 120.012Z" fill="#FFB573"/>
<path d="M243.708 92.8155C245.095 96.4031 249.142 95.9402 252.148 99.6435C253.997 101.958 257.581 94.7829 252.726 92.0054C247.754 89.1121 241.511 87.2605 243.708 92.8155Z" fill="#263238"/>
<path d="M239.431 107.86C239.662 107.86 239.893 107.744 239.893 107.628C240.818 105.545 243.708 104.966 243.708 104.966C243.939 104.966 244.171 104.619 244.055 104.388C244.055 104.156 243.708 103.925 243.477 104.041C243.361 104.041 240.124 104.735 238.968 107.281C238.853 107.512 238.968 107.86 239.199 107.975L239.431 107.86Z" fill="#263238"/>
<path d="M254.46 103.578C254.575 103.578 254.807 103.462 254.922 103.346C255.038 103.115 255.038 102.768 254.807 102.652C253.535 101.726 251.801 101.495 250.413 102.073C250.182 102.189 250.066 102.42 250.182 102.768C250.298 102.999 250.529 103.115 250.876 102.999C252.032 102.536 253.304 102.768 254.344 103.462C254.344 103.578 254.46 103.578 254.46 103.578Z" fill="#263238"/>
<path d="M302.091 166.882L295.27 170.701L288.218 185.862C288.218 185.862 295.039 190.144 300.357 186.672C305.791 183.316 302.091 166.882 302.091 166.882Z" fill="#407BFF"/>
<path opacity="0.5" d="M302.091 166.882L295.27 170.701L288.218 185.862C288.218 185.862 295.039 190.144 300.357 186.672C305.791 183.316 302.091 166.882 302.091 166.882Z" fill="white"/>
<path d="M183.59 171.627L191.567 173.942L199.198 189.681C199.198 189.681 193.07 195.352 186.481 189.913C181.509 185.862 183.59 171.627 183.59 171.627Z" fill="#407BFF"/>
<g opacity="0.5">
<path d="M183.59 171.627L191.567 173.942L199.198 189.681C199.198 189.681 193.07 195.352 186.481 189.913C181.509 185.862 183.59 171.627 183.59 171.627Z" fill="white"/>
</g>
<path d="M253.997 107.512C254.575 107.397 255.153 107.975 255.269 108.901C255.385 109.711 255.038 110.521 254.575 110.637C253.997 110.753 253.419 110.174 253.304 109.248C253.188 108.438 253.535 107.628 253.997 107.512Z" fill="#263238"/>
<path d="M255.731 106.702L253.766 107.628C255.037 108.438 255.731 106.702 255.731 106.702Z" fill="#263238"/>
<path d="M244.402 109.48C244.98 109.365 245.558 109.943 245.674 110.869C245.789 111.679 245.442 112.489 244.98 112.605C244.402 112.721 243.824 112.027 243.708 111.216C243.477 110.406 243.824 109.596 244.402 109.48Z" fill="#263238"/>
<path d="M246.136 108.67L244.171 109.596C245.327 110.406 246.136 108.67 246.136 108.67Z" fill="#263238"/>
<path d="M195.499 153.805C194.343 153.805 193.302 153.573 192.262 153.226C188.678 151.722 187.059 148.018 187.637 142.926C187.637 142.579 187.984 142.348 188.331 142.463C188.678 142.463 188.909 142.811 188.793 143.158C188.215 147.671 189.602 150.912 192.608 152.185C195.961 153.573 200.354 152.185 202.667 149.06C205.557 145.241 204.632 139.686 200.123 134.015C188.331 119.086 189.024 111.216 190.759 104.967C193.186 95.9401 200.354 85.5244 220.471 87.4918C220.817 87.4918 221.049 87.839 220.933 88.0705C220.933 88.4177 220.586 88.6491 220.355 88.5334C201.048 86.566 194.227 96.5188 191.915 105.198C190.296 111.448 189.602 118.739 201.048 133.205C207.985 141.885 205.21 147.671 203.591 149.639C201.742 152.3 198.505 153.805 195.499 153.805Z" fill="#263238"/>
<defs>
<linearGradient id="paint0_linear_0_1" x1="-114" y1="244" x2="606" y2="244" gradientUnits="userSpaceOnUse">
<stop stop-color="#2828C2"/>
<stop offset="1" stop-color="#00D6E7"/>
</linearGradient>
</defs>
</svg>
