<svg width="504" height="376" viewBox="0 0 504 376" fill="none" xmlns="http://www.w3.org/2000/svg">
<rect width="504" height="376" fill="#F5F5F5"/>
<g id="Home" clip-path="url(#clip0_0_1)">
<rect width="1440" height="7700" transform="translate(-720 -4419)" fill="white"/>
<g id="Right-Box">
<rect id="Rectangle 213" x="-559.5" y="-42.5" width="1119" height="466" rx="19.5" stroke="#D9D9D9"/>
</g>
<g id="site-stats/rafiki">
<g id="background-complete">
<path id="Vector" d="M503.436 329.65H0V329.901H503.436V329.65Z" fill="#EBEBEB"/>
<path id="Vector_2" d="M86.1679 339.235H52.8203V339.487H86.1679V339.235Z" fill="#EBEBEB"/>
<path id="Vector_3" d="M228.117 336.506H172.316V336.758H228.117V336.506Z" fill="#EBEBEB"/>
<path id="Vector_4" d="M110.947 345.216H91.625V345.468H110.947V345.216Z" fill="#EBEBEB"/>
<path id="Vector_5" d="M431.596 339.114H388.109V339.366H431.596V339.114Z" fill="#EBEBEB"/>
<path id="Vector_6" d="M446.94 339.114H440.567V339.366H446.94V339.114Z" fill="#EBEBEB"/>
<path id="Vector_7" d="M326.277 342.649H279.115V342.9H326.277V342.649Z" fill="#EBEBEB"/>
<path id="Vector_8" d="M238.629 284.743H44.2118C42.6888 284.741 41.229 284.134 40.153 283.056C39.077 281.978 38.4727 280.517 38.4727 278.994V5.69889C38.4859 4.18458 39.0961 2.73665 40.1707 1.66961C41.2453 0.60257 42.6975 0.00259409 44.2118 0H238.629C240.153 0 241.616 0.605722 242.694 1.68391C243.772 2.7621 244.378 4.22444 244.378 5.74924V278.994C244.378 280.519 243.772 281.981 242.694 283.059C241.616 284.138 240.153 284.743 238.629 284.743ZM44.2118 0.201375C42.7555 0.204042 41.3598 0.784418 40.331 1.81511C39.3022 2.84581 38.7244 4.2426 38.7244 5.69889V278.994C38.7244 280.45 39.3022 281.847 40.331 282.878C41.3598 283.908 42.7555 284.489 44.2118 284.492H238.629C240.086 284.489 241.483 283.909 242.513 282.878C243.543 281.848 244.123 280.451 244.126 278.994V5.69889C244.123 4.24168 243.543 2.84491 242.513 1.8145C241.483 0.784091 240.086 0.204037 238.629 0.201375H44.2118Z" fill="#EBEBEB"/>
<path id="Vector_9" d="M456.425 284.743H261.998C260.474 284.741 259.014 284.134 257.936 283.056C256.858 281.979 256.252 280.518 256.249 278.994V5.69889C256.265 4.18366 256.877 2.73575 257.954 1.66898C259.03 0.602219 260.483 0.0025658 261.998 0H456.425C457.938 0.00524026 459.387 0.606387 460.46 1.67315C461.532 2.73991 462.141 4.18632 462.154 5.69889V278.994C462.154 280.515 461.551 281.975 460.477 283.052C459.404 284.13 457.946 284.738 456.425 284.743ZM261.998 0.201375C260.541 0.204037 259.144 0.784091 258.114 1.8145C257.083 2.84491 256.503 4.24168 256.501 5.69889V278.994C256.503 280.451 257.083 281.848 258.114 282.878C259.144 283.909 260.541 284.489 261.998 284.492H456.425C457.882 284.489 459.279 283.909 460.309 282.878C461.34 281.848 461.92 280.451 461.923 278.994V5.69889C461.92 4.24168 461.34 2.84491 460.309 1.8145C459.279 0.784091 457.882 0.204037 456.425 0.201375H261.998Z" fill="#EBEBEB"/>
<path id="Vector_10" d="M299.887 19.5232H105.5V159.066H299.887V19.5232Z" fill="#FAFAFA"/>
<path id="Vector_11" d="M288.821 159.076L239.383 19.5232H202.28L251.718 159.076H288.821Z" fill="white"/>
<path id="Vector_12" d="M189.05 159.076L139.613 19.5232H126.081L175.518 159.076H189.05Z" fill="white"/>
<path id="Vector_13" d="M96.2365 14.7305H309.16C309.273 14.7305 309.385 14.7529 309.489 14.7966C309.594 14.8402 309.689 14.9041 309.768 14.9847C309.848 15.0652 309.911 15.1608 309.953 15.2658C309.996 15.3708 310.017 15.4831 310.015 15.5964C310.015 15.8234 309.925 16.0411 309.765 16.2016C309.604 16.3621 309.387 16.4522 309.16 16.4522H96.2365C96.0086 16.4522 95.7899 16.3624 95.6278 16.2022C95.4657 16.042 95.3733 15.8243 95.3706 15.5964C95.3706 15.3667 95.4618 15.1465 95.6242 14.9841C95.7866 14.8217 96.0069 14.7305 96.2365 14.7305Z" fill="#E0E0E0"/>
<path id="Vector_14" d="M203.851 19.2312H201.545V159.378H203.851V19.2312Z" fill="#F0F0F0"/>
<path id="Vector_15" d="M201.536 19.2312H200.388V159.378H201.536V19.2312Z" fill="#E0E0E0"/>
<path id="Vector_16" d="M104.161 88.1416V90.4473L301.236 90.4473V88.1416L104.161 88.1416Z" fill="#F0F0F0"/>
<path id="Vector_17" d="M104.161 158.079V18.1237H301.226V158.079V160.385H104.161V158.079ZM298.93 158.079V20.4898H106.466V158.079H298.93Z" fill="#F0F0F0"/>
<path id="Vector_18" d="M104.151 18.1841H103.003V160.415H104.151V18.1841Z" fill="#E0E0E0"/>
<path id="Vector_19" opacity="0.5" d="M132.736 12.6161V176.495H91.1318L98.7639 12.6161H132.736Z" fill="#EBEBEB"/>
<path id="Vector_20" opacity="0.5" d="M271.502 12.6161V176.495H313.106L305.474 12.6161H271.502Z" fill="#EBEBEB"/>
<path id="Vector_21" d="M78.2135 196.129H62.3452V324.837H78.2135V196.129Z" fill="#F0F0F0"/>
<path id="Vector_22" d="M240.219 324.837H65.396V329.65H240.219V324.837Z" fill="#F0F0F0"/>
<path id="Vector_23" d="M78.2241 324.837H243.271L243.271 196.128L78.2241 196.128L78.2241 324.837Z" fill="#F5F5F5"/>
<path id="Vector_24" d="M76.5723 191.93H60.3516V196.128H76.5723V191.93Z" fill="#F0F0F0"/>
<path id="Vector_25" d="M76.5622 196.129L245.253 196.129V191.93L76.5622 191.93V196.129Z" fill="#FAFAFA"/>
<path id="Vector_26" d="M237.561 268.563H83.9229V204.939H237.561V268.563ZM84.9901 267.496H236.494V206.006H84.9901V267.496Z" fill="#E0E0E0"/>
<path id="Vector_27" d="M237.561 316.017H83.9229V274.926H237.561V316.017ZM84.9901 314.949H236.494V275.994H84.9901V314.949Z" fill="#E0E0E0"/>
<path id="Vector_28" d="M215.45 205.472H106.034C105.255 205.472 104.624 206.103 104.624 206.882V207.476C104.624 208.254 105.255 208.886 106.034 208.886H215.45C216.229 208.886 216.86 208.254 216.86 207.476V206.882C216.86 206.103 216.229 205.472 215.45 205.472Z" fill="#E0E0E0"/>
<path id="Vector_29" d="M215.45 275.46H106.034C105.255 275.46 104.624 276.091 104.624 276.87V277.464C104.624 278.242 105.255 278.873 106.034 278.873H215.45C216.229 278.873 216.86 278.242 216.86 277.464V276.87C216.86 276.091 216.229 275.46 215.45 275.46Z" fill="#E0E0E0"/>
<path id="Vector_30" d="M350.25 323.468H442.56L442.56 41.8255H350.25V323.468Z" fill="#F0F0F0"/>
<path id="Vector_31" d="M350.25 41.8355H347.32V323.478H350.25V41.8355Z" fill="#E0E0E0"/>
<path id="Vector_32" d="M365.232 312.724H427.588L427.588 52.5687H365.232V312.724Z" fill="#FAFAFA"/>
</g>
<g id="Shadow">
<path id="path" d="M251.718 375.12C359.536 375.12 446.94 370.017 446.94 363.722C446.94 357.427 359.536 352.324 251.718 352.324C143.9 352.324 56.4956 357.427 56.4956 363.722C56.4956 370.017 143.9 375.12 251.718 375.12Z" fill="#F5F5F5"/>
</g>
<g id="Character">
<path id="Vector_33" d="M144.345 354.952L152.229 351.962L147.396 332.912L139.512 335.902L144.345 354.952Z" fill="#B55B52"/>
<path id="Vector_34" d="M85.1108 355.114H93.5384L94.807 335.58H86.3694L85.1108 355.114Z" fill="#B55B52"/>
<path id="Vector_35" d="M94.3841 354.137H84.104C83.9388 354.134 83.7782 354.191 83.6509 354.296C83.5236 354.401 83.4379 354.548 83.4092 354.711L82.1204 362.202C82.0945 362.389 82.109 362.579 82.1629 362.76C82.2168 362.941 82.3089 363.108 82.433 363.25C82.5571 363.393 82.7103 363.507 82.8821 363.584C83.054 363.662 83.2406 363.703 83.4294 363.702C86.7319 363.642 89.1383 363.451 93.3068 363.451C95.8642 363.451 103.607 363.722 107.151 363.722C110.695 363.722 110.977 360.218 109.507 359.896C102.943 358.477 97.9484 356.523 95.7736 354.65C95.3857 354.32 94.8934 354.139 94.3841 354.137Z" fill="#263238"/>
<path id="Vector_36" d="M151.826 351.076L143.217 354.338C143.06 354.398 142.928 354.509 142.842 354.654C142.756 354.798 142.722 354.967 142.744 355.134L143.851 362.725C143.871 362.913 143.933 363.093 144.034 363.252C144.135 363.411 144.271 363.544 144.432 363.642C144.593 363.739 144.774 363.798 144.962 363.814C145.149 363.83 145.338 363.802 145.513 363.732C148.594 362.504 151.222 360.943 155.149 359.534C159.635 358.075 163.949 356.134 168.016 353.744C170.936 351.892 169.708 348.367 168.329 348.921C162.066 351.438 160.525 352.264 153.95 350.995C153.248 350.825 152.513 350.853 151.826 351.076Z" fill="#263238"/>
<path id="Vector_37" d="M129.584 98.1599C132.232 102.852 135.031 107.685 137.851 112.357C140.67 117.029 143.559 121.701 146.63 126.05C147.365 127.148 148.191 128.205 148.936 129.222C149.101 129.518 149.324 129.778 149.591 129.987C150.062 130.229 150.598 130.313 151.121 130.229C152.083 130.13 153.028 129.904 153.93 129.554C156.215 128.658 158.396 127.517 160.435 126.151C161.522 125.436 162.63 124.701 163.707 123.916C164.784 123.13 165.872 122.284 166.858 121.529L171.581 125.738C170.719 126.982 169.795 128.182 168.812 129.333C167.861 130.493 166.853 131.605 165.791 132.665C164.702 133.763 163.549 134.795 162.338 135.756C161.076 136.788 159.728 137.711 158.31 138.515C156.709 139.443 154.988 140.144 153.195 140.599C150.966 141.175 148.628 141.175 146.399 140.599C143.99 139.929 141.83 138.567 140.186 136.683C139.18 135.515 138.173 134.417 137.267 133.259C133.62 128.736 130.229 124.013 127.107 119.113C123.986 114.26 121.066 109.397 118.388 104.221L129.584 98.1599Z" fill="#B65B52"/>
<path id="Vector_38" d="M114.623 98.5525C112.357 106.285 128.356 127.369 128.356 127.369L144.466 116.988C141.428 110.283 137.677 103.923 133.28 98.0188C126.705 89.6115 117.12 90.0646 114.623 98.5525Z" fill="#407BFF"/>
<path id="Vector_39" opacity="0.2" d="M114.623 98.5525C112.357 106.285 128.356 127.369 128.356 127.369L144.466 116.988C141.428 110.283 137.677 103.923 133.28 98.0188C126.705 89.6115 117.12 90.0646 114.623 98.5525Z" fill="black"/>
<path id="Vector_40" opacity="0.2" d="M124.46 107.624C127.782 109.044 132.666 117.039 135.213 122.969L128.356 127.369C124.534 122.26 121.094 116.875 118.066 111.259C120.231 108.853 122.708 106.879 124.46 107.624Z" fill="black"/>
<path id="Vector_41" d="M165.862 124.157L168.822 115.871L177.209 119.898C177.209 119.898 175.467 127.279 169.325 127.269L165.862 124.157Z" fill="#B55B52"/>
<path id="Vector_42" d="M176.283 110.424L179.837 114.34L177.21 119.878L168.822 115.871L176.283 110.424Z" fill="#B55B52"/>
<path id="Vector_43" opacity="0.2" d="M147.396 332.922L149.883 342.739L141.999 345.73L139.512 335.913L147.396 332.922Z" fill="black"/>
<path id="Vector_44" opacity="0.2" d="M86.3698 335.59H94.8074L94.1529 345.649H85.7153L86.3698 335.59Z" fill="black"/>
<path id="Vector_45" d="M77.0454 95.1292C86.1073 127.158 84.6372 161.14 85.2011 168.047L130.269 166.355C137.931 118.609 124.227 92.0381 124.227 92.0381C124.227 92.0381 121.338 91.4844 117.401 91.0816C116.172 90.9507 114.843 90.84 113.454 90.7695C112.689 90.7191 111.913 90.699 111.128 90.6789C104.729 90.7871 98.3415 91.2645 91.9975 92.1086C90.7993 92.2596 89.581 92.4308 88.3929 92.6322C87.2047 92.8336 86.2281 93.0148 85.2111 93.2162C80.5493 94.1324 77.0454 95.1292 77.0454 95.1292Z" fill="#407BFF"/>
<path id="Vector_46" opacity="0.2" d="M77.0454 95.1292C86.1073 127.158 84.6372 161.14 85.2011 168.047L130.269 166.355C137.931 118.609 124.227 92.0381 124.227 92.0381C124.227 92.0381 121.338 91.4844 117.401 91.0816C116.172 90.9507 114.843 90.84 113.454 90.7695C112.689 90.7191 111.913 90.699 111.128 90.6789C104.729 90.7871 98.3415 91.2645 91.9975 92.1086C90.7993 92.2596 89.581 92.4308 88.3929 92.6322C87.2047 92.8336 86.2281 93.0148 85.2111 93.2162C80.5493 94.1324 77.0454 95.1292 77.0454 95.1292Z" fill="black"/>
<path id="Vector_47" opacity="0.2" d="M86.6413 108.873C87.4468 111.964 86.5205 126.111 83.2884 129.594C82.8454 125.063 82.2816 120.341 81.4761 115.498L86.6413 108.873Z" fill="black"/>
<path id="Vector_48" d="M92.2495 70.4811C93.9109 76.5223 95.9548 87.7187 91.9575 92.1389C95.5521 95.2199 100.204 98.7339 107.524 98.4419C114.844 98.1499 113.203 93.2263 111.078 90.7192C104.09 89.5915 103.889 84.4967 104.735 79.6436L92.2495 70.4811Z" fill="#B55B52"/>
<path id="Vector_49" d="M107.715 97.3644L109.045 98.2605L104.191 99.6802L105.44 97.4248L107.715 97.3644Z" fill="#407BFF"/>
<path id="Vector_50" d="M109.547 96.8912L109.044 98.2606L113.917 99.6803L113.585 97.0725L109.547 96.8912Z" fill="#407BFF"/>
<path id="Vector_51" d="M89.0478 91.6252L90.9608 90.6687C91.2668 90.5154 91.609 90.4493 91.95 90.4777C92.2911 90.5062 92.6177 90.628 92.894 90.8298C97.3194 94.0399 102.379 96.2678 107.735 97.3644C103.889 99.1969 104.836 104.131 104.836 104.131C104.836 104.131 92.602 100.103 88.7256 92.7932C88.6158 92.5951 88.5881 92.3618 88.6484 92.1435C88.7086 91.9252 88.852 91.7391 89.0478 91.6252Z" fill="white"/>
<path id="Vector_52" d="M113.212 90.3667L110.403 89.9438C110.331 89.9322 110.256 89.9422 110.19 89.9727C110.123 90.0032 110.066 90.0528 110.028 90.1152C109.989 90.1776 109.969 90.25 109.972 90.3234C109.974 90.3969 109.998 90.468 110.041 90.5278C111.048 91.9273 112.659 94.9983 109.547 96.8912C113.394 98.7237 114.582 103.224 114.582 103.224C114.582 103.224 119.616 97.8175 113.756 90.6788C113.616 90.5154 113.424 90.4052 113.212 90.3667Z" fill="white"/>
<path id="Vector_53" opacity="0.2" d="M97.3344 74.1663L104.715 79.5429C104.501 80.6786 104.39 81.831 104.382 82.9864C101.734 82.8052 97.9184 80.1974 97.4351 77.4688C97.2058 76.3826 97.1717 75.2644 97.3344 74.1663Z" fill="black"/>
<path id="Vector_54" d="M113.646 58.0059C113.304 60.9359 110.494 63.4531 108.682 64.0471L106.417 51.3505C111.501 47.7559 114.119 53.8979 113.646 58.0059Z" fill="#263238"/>
<path id="Vector_55" d="M89.702 61.5199C91.1721 69.7561 91.605 74.6595 96.287 78.4353C103.335 84.114 113.132 79.13 114.159 70.622C115.085 62.9597 112.528 50.7765 104.03 48.4104C102.158 47.8807 100.182 47.838 98.2886 48.2865C96.3956 48.735 94.6486 49.6598 93.2133 50.973C91.778 52.2863 90.702 53.9445 90.0875 55.7903C89.473 57.6361 89.3403 59.6083 89.702 61.5199Z" fill="#B55B52"/>
<path id="Vector_56" d="M91.2728 67.0777C95.0888 69.0915 96.7602 64.5505 96.8005 62.6978C96.8005 59.7578 95.5721 56.5257 94.0518 55.3477C101.422 55.3477 116.002 54.9852 112.316 47.9673C108.631 40.9494 101.241 41.7448 95.7332 45.5911C92.8032 47.6048 83.3185 45.8529 85.6645 51.3202C80.7208 53.9481 85.0101 63.745 91.2728 67.0777Z" fill="#263238"/>
<path id="Vector_57" d="M86.4703 50.8672C85.1562 50.8607 83.8801 50.4259 82.8354 49.6288C83.0066 50.3648 83.4145 51.0243 83.9965 51.5062C84.5785 51.9882 85.3024 52.266 86.0574 52.297L86.4703 50.8672Z" fill="#263238"/>
<path id="Vector_58" d="M86.591 68.2961C87.5358 70.1913 89.1889 71.6381 91.1924 72.3236C93.8506 73.1795 94.4547 70.7428 93.8103 68.1854C93.2263 65.8696 91.9778 62.7382 89.2693 62.9899C86.5608 63.2416 85.4633 65.9803 86.591 68.2961Z" fill="#B55B52"/>
<path id="Vector_59" d="M140.086 255.494C136.663 229.99 130.269 166.355 130.269 166.355L100.687 167.473C100.687 167.473 114.662 231.057 119.717 256.843C124.771 282.629 138.847 344.853 138.847 344.853L152.199 339.819C152.199 339.819 143.66 282.015 140.086 255.494Z" fill="#263238"/>
<path id="Vector_60" opacity="0.2" d="M111.763 184.61C109.327 185.192 107.066 186.348 105.168 187.983C107.967 200.841 111.622 217.766 114.763 232.678C116.858 219.76 116.918 195.383 111.763 184.61Z" fill="black"/>
<path id="Vector_61" d="M114.29 166.959C114.29 166.959 107.997 235.99 105.118 260.518C101.966 287.391 98.0694 343.706 98.0694 343.706H82.5636C82.5636 343.706 81.9293 293.896 83.933 267.596C86.2185 237.642 85.1915 168.047 85.1915 168.047L114.29 166.959Z" fill="#263238"/>
<path id="Vector_62" d="M100.083 344.038H81.8992L81.5166 338.601L101.815 338.248L100.083 344.038Z" fill="#407BFF"/>
<path id="Vector_63" d="M153.941 339.477L138.032 345.508L136.089 340.363L153.77 333.355L153.941 339.477Z" fill="#407BFF"/>
<path id="Vector_64" d="M102.56 62.426C102.63 63.1106 103.053 63.6141 103.496 63.5637C103.939 63.5134 104.231 62.9193 104.151 62.2447C104.07 61.5701 103.657 61.0667 103.214 61.117C102.771 61.1674 102.479 61.7111 102.56 62.426Z" fill="#263238"/>
<path id="Vector_65" d="M110.192 61.5098C110.273 62.1844 110.696 62.6878 111.128 62.6375C111.561 62.5871 111.874 62.0031 111.793 61.3285C111.712 60.6539 111.29 60.1404 110.847 60.1908C110.404 60.2411 110.112 60.8352 110.192 61.5098Z" fill="#263238"/>
<path id="Vector_66" d="M107.806 62.1238C108.847 64.096 110.155 65.9154 111.692 67.5307C111.273 67.9201 110.774 68.2122 110.229 68.3863C109.684 68.5603 109.108 68.612 108.541 68.5376L107.806 62.1238Z" fill="#A02724"/>
<path id="Vector_67" d="M105.903 70.642C105.138 70.6402 104.382 70.4821 103.681 70.1773C102.979 69.8726 102.348 69.4277 101.825 68.8699C101.805 68.8498 101.79 68.8259 101.78 68.7996C101.77 68.7733 101.766 68.7453 101.768 68.7173C101.77 68.6894 101.777 68.662 101.79 68.6371C101.803 68.6122 101.821 68.5902 101.843 68.5726C101.864 68.555 101.89 68.5422 101.917 68.5349C101.944 68.5276 101.972 68.5261 102 68.5304C102.027 68.5347 102.054 68.5447 102.078 68.5598C102.101 68.5749 102.121 68.5948 102.137 68.6182C102.726 69.2253 103.449 69.6856 104.248 69.962C105.047 70.2383 105.9 70.323 106.738 70.2091C106.764 70.2048 106.791 70.2059 106.816 70.2123C106.842 70.2188 106.865 70.2304 106.886 70.2464C106.907 70.2625 106.924 70.2827 106.937 70.3057C106.95 70.3287 106.957 70.3541 106.96 70.3802C106.966 70.4321 106.951 70.4843 106.919 70.5256C106.887 70.5669 106.84 70.5942 106.789 70.6017C106.495 70.6396 106.198 70.6531 105.903 70.642Z" fill="#263238"/>
<path id="Vector_68" d="M99.9223 60.1907C99.8566 60.2103 99.7866 60.2103 99.7209 60.1907C99.6755 60.1647 99.6358 60.1299 99.604 60.0883C99.5723 60.0467 99.5491 59.9992 99.536 59.9485C99.5229 59.8979 99.52 59.8451 99.5275 59.7933C99.5351 59.7416 99.5529 59.6918 99.58 59.647C99.8869 59.0952 100.321 58.6246 100.846 58.2744C101.372 57.9241 101.973 57.7043 102.601 57.6333C102.653 57.6306 102.706 57.6383 102.756 57.6561C102.806 57.6739 102.852 57.7013 102.891 57.7369C102.931 57.7724 102.963 57.8153 102.985 57.8632C103.008 57.9111 103.021 57.963 103.023 58.0159C103.026 58.0683 103.018 58.1207 103 58.17C102.983 58.2194 102.955 58.2646 102.919 58.3031C102.884 58.3416 102.841 58.3725 102.793 58.3941C102.745 58.4157 102.693 58.4274 102.641 58.4287C102.142 58.4919 101.665 58.6715 101.249 58.9531C100.833 59.2348 100.489 59.6104 100.244 60.0498C100.207 60.0987 100.158 60.1373 100.102 60.1619C100.045 60.1866 99.9836 60.1965 99.9223 60.1907Z" fill="#263238"/>
<path id="Vector_69" d="M113.182 58.5092C113.115 58.5066 113.05 58.4878 112.993 58.4545C112.935 58.4212 112.886 58.3743 112.85 58.3179C112.594 57.8858 112.238 57.5214 111.813 57.2551C111.387 56.9888 110.904 56.8285 110.403 56.7875C110.296 56.7875 110.194 56.745 110.118 56.6695C110.043 56.594 110 56.4915 110 56.3847C110 56.2779 110.043 56.1755 110.118 56.0999C110.194 56.0244 110.296 55.982 110.403 55.982C111.036 56.0331 111.647 56.2331 112.188 56.5655C112.729 56.898 113.183 57.3535 113.514 57.895C113.542 57.9386 113.561 57.9873 113.57 58.0383C113.579 58.0892 113.578 58.1415 113.567 58.192C113.556 58.2425 113.535 58.2903 113.505 58.3327C113.475 58.375 113.437 58.4111 113.394 58.4387C113.332 58.4827 113.258 58.5072 113.182 58.5092Z" fill="#263238"/>
<path id="Vector_70" d="M97.2437 355.607C96.4931 355.588 95.7469 355.487 95.0185 355.305C94.9804 355.296 94.9458 355.275 94.9189 355.247C94.8921 355.218 94.8742 355.182 94.8675 355.144C94.8574 355.106 94.8598 355.066 94.8743 355.03C94.8888 354.993 94.9147 354.963 94.948 354.942C95.24 354.751 97.878 353.08 98.8345 353.553C98.9401 353.607 99.0299 353.687 99.0952 353.786C99.1605 353.884 99.1991 353.999 99.2071 354.117C99.2427 354.309 99.2281 354.508 99.1646 354.693C99.1011 354.878 98.9909 355.044 98.8446 355.174C98.378 355.501 97.8115 355.654 97.2437 355.607ZM95.5924 355.023C97.0322 355.305 98.1297 355.254 98.613 354.872C98.7102 354.78 98.7831 354.666 98.8253 354.54C98.8675 354.413 98.8776 354.278 98.8547 354.147C98.8547 353.986 98.7641 353.935 98.7137 353.915C98.1801 353.664 96.6597 354.419 95.5924 355.023Z" fill="#407BFF"/>
<path id="Vector_71" d="M95.0689 355.305C95.0325 355.314 94.9945 355.314 94.9581 355.305C94.9278 355.285 94.9028 355.258 94.8853 355.227C94.8677 355.195 94.8581 355.16 94.8574 355.124C94.8574 355.023 94.948 352.586 95.8643 351.791C95.9749 351.687 96.1075 351.61 96.2522 351.564C96.3969 351.519 96.55 351.507 96.7 351.529C96.853 351.531 97.001 351.583 97.1211 351.678C97.2413 351.773 97.3269 351.904 97.3645 352.053C97.586 352.989 95.9952 354.842 95.1393 355.315C95.1154 355.318 95.091 355.315 95.0689 355.305ZM96.5993 351.892C96.4358 351.893 96.2783 351.954 96.1563 352.063C95.5991 352.834 95.2964 353.76 95.2904 354.711C96.1261 354.046 97.1229 352.697 96.992 352.093C96.992 352.043 96.992 351.932 96.6899 351.892H96.5993Z" fill="#407BFF"/>
<path id="Vector_72" d="M153.045 351.871C153.007 351.873 152.969 351.863 152.937 351.844C152.905 351.824 152.879 351.795 152.863 351.761C152.842 351.728 152.83 351.689 152.83 351.65C152.83 351.611 152.842 351.572 152.863 351.539C153.155 351.217 155.713 348.408 156.891 348.579C157 348.591 157.104 348.632 157.193 348.698C157.281 348.763 157.351 348.851 157.394 348.952C157.474 349.107 157.515 349.28 157.515 349.455C157.515 349.63 157.474 349.803 157.394 349.958C156.82 351.046 154.444 351.6 153.075 351.821L153.045 351.871ZM156.76 348.972C156.085 348.972 154.615 350.291 153.588 351.368C155.441 350.995 156.71 350.422 157.032 349.807C157.086 349.702 157.115 349.584 157.115 349.465C157.115 349.346 157.086 349.229 157.032 349.123C157.016 349.083 156.99 349.048 156.957 349.021C156.923 348.995 156.883 348.978 156.84 348.972H156.76Z" fill="#407BFF"/>
<path id="Vector_73" d="M153.044 351.871H152.984C152.95 351.862 152.92 351.844 152.895 351.82C152.87 351.795 152.852 351.764 152.843 351.73C152.843 351.64 152.229 349.435 152.914 348.226C153.01 348.053 153.141 347.901 153.299 347.78C153.457 347.658 153.637 347.571 153.83 347.522C154.363 347.371 154.605 347.582 154.726 347.773C155.209 348.609 153.971 351.036 153.175 351.801C153.161 351.822 153.141 351.84 153.119 351.852C153.096 351.864 153.07 351.871 153.044 351.871ZM154.142 347.844H153.931C153.788 347.878 153.655 347.942 153.541 348.032C153.426 348.123 153.332 348.237 153.266 348.367C152.933 349.275 152.89 350.264 153.145 351.197C153.89 350.19 154.666 348.418 154.374 347.914C154.333 347.934 154.283 347.854 154.112 347.864L154.142 347.844Z" fill="#407BFF"/>
<path id="Vector_74" d="M86.3093 107.051C83.782 112.256 81.2044 117.633 78.7074 122.929C77.4689 125.597 76.2204 128.255 75.0524 130.924L73.3005 134.951L72.495 136.935L72.2936 137.438L72.1426 137.811C72.0419 138.042 71.9714 138.294 71.8808 138.525C71.256 140.509 71.1452 142.619 71.5586 144.657C72.052 147.024 72.9476 149.289 74.2067 151.353C75.5927 153.663 77.1976 155.834 78.9994 157.837C79.9156 158.844 80.8822 159.911 81.8891 160.858C82.3925 161.341 82.896 161.865 83.4296 162.298C83.9632 162.731 84.4969 163.305 84.9399 163.657L81.5568 169.044C80.1018 168.304 78.693 167.477 77.338 166.567C75.9989 165.691 74.69 164.765 73.4213 163.758C70.8084 161.687 68.4434 159.322 66.3732 156.71C64.1181 153.904 62.3949 150.71 61.2885 147.285C60.1105 143.508 59.9404 139.489 60.7951 135.626C60.926 135.152 61.0267 134.619 61.1777 134.196L61.5704 132.947L62.2752 130.722C62.7787 129.262 63.2821 127.792 63.8057 126.352C64.8629 123.463 65.9705 120.603 67.1686 117.784C69.4744 112.166 72.062 106.728 74.9417 101.221L86.3093 107.051Z" fill="#B65B52"/>
<path id="Vector_75" d="M77.0461 95.1291C69.3536 97.5355 61.792 123.624 61.792 123.624L79.5431 131.417C79.5431 131.417 85.3024 118.811 88.605 108.933C92.2599 98.1699 86.3597 92.2092 77.0461 95.1291Z" fill="#407BFF"/>
<path id="Vector_76" opacity="0.2" d="M77.0461 95.1291C69.3536 97.5355 61.792 123.624 61.792 123.624L79.5431 131.417C79.5431 131.417 85.3024 118.811 88.605 108.933C92.2599 98.1699 86.3597 92.2092 77.0461 95.1291Z" fill="black"/>
<path id="Vector_77" d="M83.0268 162.026L90.387 166.396L83.2282 173.524C83.2282 173.524 77.0158 168.742 78.8684 164.996L83.0268 162.026Z" fill="#B55B52"/>
<path id="Vector_78" d="M95.3105 173.373L87.92 178.548L83.228 173.524L90.3869 166.395L95.3105 173.373Z" fill="#B55B52"/>
</g>
<g id="Screen">
<path id="Vector_79" d="M451.446 160.133L451.095 164.984L452.099 165.056L452.45 160.206L451.446 160.133Z" fill="#407BFF"/>
<path id="Vector_80" d="M452.773 141.767L451.754 155.836L452.759 155.909L453.777 141.84L452.773 141.767Z" fill="#407BFF"/>
<path id="Vector_81" d="M425.221 300.048H178.608C176.847 300.068 175.101 299.72 173.483 299.025C171.864 298.331 170.409 297.305 169.21 296.015C168.011 294.724 167.096 293.197 166.523 291.531C165.95 289.866 165.731 288.099 165.882 286.344L178.971 104.302C179.296 100.616 180.971 97.1798 183.675 94.6541C186.379 92.1283 189.921 90.6911 193.621 90.6184H440.234C441.995 90.5965 443.74 90.9434 445.359 91.6369C446.978 92.3303 448.433 93.3549 449.632 94.6447C450.831 95.9345 451.746 97.461 452.32 99.126C452.893 100.791 453.111 102.557 452.961 104.312L439.871 286.354C439.549 290.042 437.875 293.48 435.17 296.008C432.466 298.536 428.923 299.975 425.221 300.048Z" fill="#407BFF"/>
<path id="Vector_82" d="M367.86 363.722H287.804L273.537 264.807H353.593L367.86 363.722Z" fill="#407BFF"/>
<path id="Vector_83" d="M355.144 357.822H268.553L266.831 363.722H353.432L355.144 357.822Z" fill="#407BFF"/>
<path id="Vector_84" d="M357.812 312.422L279.789 308.163L273.537 264.807H350.945L357.812 312.422Z" fill="#263238"/>
<path id="Vector_85" d="M422.443 300.048H175.82C174.056 300.067 172.308 299.717 170.688 299.019C169.068 298.322 167.612 297.292 166.415 295.997C165.218 294.702 164.305 293.17 163.736 291.5C163.168 289.831 162.955 288.06 163.113 286.304L176.202 104.261C176.536 100.586 178.213 97.1626 180.912 94.6456C183.611 92.1286 187.143 90.6948 190.832 90.6183H437.455C439.215 90.5978 440.96 90.9458 442.577 91.6398C444.195 92.3339 445.649 93.3587 446.847 94.6484C448.044 95.938 448.959 97.464 449.532 99.1283C450.104 100.793 450.323 102.558 450.172 104.312L437.083 286.354C436.763 290.041 435.091 293.479 432.388 296.007C429.685 298.535 426.143 299.974 422.443 300.048Z" fill="#263238"/>
<path id="Vector_86" d="M449.534 106.019L442.049 210.446L443.013 210.515L450.498 106.088L449.534 106.019Z" fill="white"/>
<path id="Vector_87" d="M441.434 219.538L438.841 255.702L439.805 255.771L442.398 219.607L441.434 219.538Z" fill="white"/>
<path id="Vector_88" d="M421.879 296.604H176.827C175.456 296.619 174.097 296.347 172.838 295.806C171.578 295.264 170.446 294.465 169.514 293.46C168.582 292.455 167.87 291.266 167.425 289.969C166.98 288.673 166.811 287.297 166.929 285.931L179.928 104.634C180.179 101.759 181.485 99.0784 183.595 97.1095C185.706 95.1406 188.47 94.0227 191.356 93.9714H436.448C437.818 93.9566 439.176 94.2284 440.435 94.7693C441.693 95.3102 442.825 96.1083 443.757 97.1124C444.689 98.1164 445.401 99.3042 445.847 100.6C446.293 101.895 446.463 103.269 446.346 104.634L433.347 285.952C433.093 288.832 431.78 291.515 429.662 293.483C427.543 295.451 424.77 296.563 421.879 296.604Z" fill="white"/>
<path id="Vector_89" opacity="0.2" d="M421.879 296.604H176.827C175.456 296.619 174.097 296.347 172.838 295.806C171.578 295.264 170.446 294.465 169.514 293.46C168.582 292.455 167.87 291.266 167.425 289.969C166.98 288.673 166.811 287.297 166.929 285.931L179.928 104.634C180.179 101.759 181.485 99.0784 183.595 97.1095C185.706 95.1406 188.47 94.0227 191.356 93.9714H436.448C437.818 93.9566 439.176 94.2284 440.435 94.7693C441.693 95.3102 442.825 96.1083 443.757 97.1124C444.689 98.1164 445.401 99.3042 445.847 100.6C446.293 101.895 446.463 103.269 446.346 104.634L433.347 285.952C433.093 288.832 431.78 291.515 429.662 293.483C427.543 295.451 424.77 296.563 421.879 296.604Z" fill="#407BFF"/>
<path id="Vector_90" opacity="0.5" d="M239.696 288.569H182.465C181.803 288.577 181.146 288.447 180.537 288.185C179.928 287.924 179.381 287.538 178.93 287.053C178.48 286.567 178.136 285.992 177.921 285.366C177.706 284.739 177.625 284.074 177.683 283.414L190.309 107.212C190.428 105.82 191.06 104.523 192.081 103.571C193.102 102.618 194.44 102.079 195.836 102.056H253.067C253.73 102.047 254.388 102.176 254.997 102.437C255.607 102.698 256.155 103.084 256.606 103.57C257.057 104.056 257.4 104.631 257.615 105.258C257.829 105.886 257.909 106.551 257.85 107.212L245.224 283.414C245.102 284.804 244.47 286.101 243.449 287.052C242.428 288.004 241.091 288.545 239.696 288.569Z" fill="white"/>
<path id="Vector_91" opacity="0.4" d="M237.481 126.866H207.859C207.262 126.872 206.671 126.754 206.123 126.518C205.575 126.283 205.083 125.935 204.677 125.498C204.271 125.061 203.961 124.544 203.767 123.98C203.573 123.417 203.499 122.818 203.549 122.224L203.871 117.683C203.981 116.432 204.549 115.265 205.468 114.408C206.386 113.551 207.589 113.064 208.845 113.041H238.477C239.074 113.035 239.665 113.153 240.213 113.389C240.761 113.624 241.253 113.972 241.659 114.409C242.065 114.846 242.375 115.363 242.569 115.927C242.763 116.491 242.837 117.089 242.787 117.683L242.455 122.224C242.356 123.48 241.791 124.653 240.87 125.512C239.95 126.372 238.74 126.854 237.481 126.866Z" fill="#407BFF"/>
<path id="Vector_92" d="M218.642 198.152H173.424C172.386 198.165 171.358 197.962 170.404 197.555C169.45 197.147 168.591 196.545 167.883 195.787C167.175 195.029 166.633 194.131 166.292 193.151C165.951 192.171 165.818 191.131 165.903 190.097L169.155 144.828C169.355 142.652 170.352 140.627 171.954 139.141C173.555 137.654 175.649 136.811 177.834 136.773H223.063C224.099 136.762 225.127 136.966 226.08 137.374C227.033 137.782 227.89 138.384 228.597 139.142C229.304 139.9 229.845 140.798 230.185 141.777C230.526 142.756 230.658 143.795 230.574 144.828L227.332 190.057C227.143 192.243 226.149 194.28 224.544 195.776C222.939 197.271 220.836 198.118 218.642 198.152Z" fill="#407BFF"/>
<path id="Vector_93" d="M225.126 161.099C224.291 161.116 223.492 161.441 222.882 162.012C222.272 162.582 221.895 163.358 221.823 164.19L221.35 170.755C221.316 171.151 221.366 171.548 221.495 171.923C221.625 172.298 221.831 172.642 222.101 172.932C222.372 173.223 222.7 173.453 223.065 173.609C223.43 173.764 223.823 173.842 224.22 173.836H228.811C229.018 173.834 229.217 173.755 229.368 173.613C229.519 173.471 229.612 173.278 229.627 173.071L230.432 161.865C230.441 161.766 230.428 161.667 230.396 161.574C230.364 161.481 230.312 161.395 230.245 161.323C230.178 161.251 230.096 161.194 230.005 161.155C229.914 161.117 229.816 161.098 229.717 161.099H225.126Z" fill="white"/>
<path id="Vector_94" d="M207.677 148.242H179.223C179.063 148.244 178.906 148.212 178.759 148.15C178.613 148.087 178.482 147.994 178.374 147.877C178.265 147.761 178.183 147.623 178.131 147.472C178.08 147.321 178.061 147.162 178.075 147.003C178.102 146.668 178.254 146.356 178.5 146.127C178.745 145.898 179.068 145.769 179.404 145.765H207.908C208.068 145.763 208.225 145.794 208.372 145.857C208.518 145.92 208.649 146.012 208.757 146.129C208.866 146.246 208.948 146.384 209 146.534C209.051 146.685 209.07 146.845 209.056 147.003C209.026 147.346 208.866 147.664 208.61 147.894C208.354 148.124 208.021 148.248 207.677 148.242Z" fill="white"/>
<path id="Vector_95" d="M207.234 154.535H178.72C178.561 154.537 178.403 154.505 178.257 154.443C178.11 154.38 177.979 154.287 177.871 154.17C177.763 154.054 177.68 153.915 177.629 153.765C177.577 153.614 177.558 153.455 177.572 153.296C177.602 152.963 177.754 152.653 178 152.426C178.245 152.199 178.567 152.071 178.901 152.068H207.416C207.574 152.064 207.732 152.094 207.878 152.156C208.024 152.218 208.156 152.309 208.264 152.425C208.372 152.541 208.455 152.679 208.507 152.829C208.558 152.979 208.578 153.138 208.563 153.296C208.536 153.631 208.384 153.943 208.138 154.173C207.893 154.402 207.57 154.531 207.234 154.535Z" fill="white"/>
<path id="Vector_96" d="M196.924 160.838H178.267C178.108 160.838 177.951 160.806 177.805 160.742C177.66 160.679 177.529 160.586 177.421 160.47C177.313 160.354 177.231 160.216 177.179 160.066C177.127 159.916 177.106 159.757 177.119 159.599C177.146 159.264 177.298 158.952 177.544 158.723C177.789 158.494 178.112 158.365 178.448 158.361H197.105C197.264 158.359 197.422 158.39 197.568 158.453C197.715 158.516 197.846 158.608 197.954 158.725C198.062 158.842 198.145 158.98 198.196 159.13C198.248 159.281 198.267 159.441 198.253 159.599C198.223 159.933 198.071 160.244 197.826 160.473C197.58 160.702 197.259 160.831 196.924 160.838Z" fill="white"/>
<path id="Vector_97" opacity="0.5" d="M207.758 190.842H180.23C179.549 190.851 178.875 190.716 178.249 190.448C177.624 190.179 177.061 189.783 176.599 189.284C176.136 188.785 175.782 188.195 175.562 187.551C175.341 186.907 175.257 186.224 175.316 185.546L176.323 171.057C176.445 169.631 177.093 168.3 178.14 167.323C179.187 166.347 180.56 165.794 181.992 165.771H209.57C210.25 165.763 210.923 165.897 211.548 166.165C212.173 166.433 212.735 166.829 213.197 167.326C213.66 167.824 214.013 168.413 214.235 169.056C214.457 169.698 214.541 170.38 214.484 171.057L213.477 185.546C213.352 186.982 212.697 188.319 211.64 189.298C210.582 190.277 209.199 190.828 207.758 190.842Z" fill="white"/>
<path id="Vector_98" opacity="0.4" d="M233.503 215.088H199.189C198.894 215.092 198.601 215.034 198.33 214.918C198.058 214.802 197.814 214.63 197.613 214.413C197.412 214.197 197.258 213.941 197.162 213.662C197.066 213.383 197.029 213.086 197.055 212.792C197.109 212.172 197.392 211.595 197.847 211.171C198.303 210.747 198.899 210.507 199.522 210.497H233.836C234.13 210.494 234.422 210.553 234.692 210.67C234.962 210.787 235.205 210.959 235.405 211.175C235.605 211.391 235.758 211.646 235.854 211.925C235.949 212.203 235.985 212.499 235.96 212.792C235.908 213.411 235.628 213.989 235.174 214.413C234.72 214.837 234.125 215.078 233.503 215.088Z" fill="#407BFF"/>
<path id="Vector_99" opacity="0.8" d="M226.546 224.099H204.818C204.522 224.103 204.23 224.045 203.958 223.929C203.687 223.813 203.442 223.641 203.241 223.425C203.04 223.209 202.887 222.953 202.79 222.673C202.694 222.394 202.658 222.098 202.683 221.804C202.735 221.185 203.016 220.607 203.47 220.183C203.923 219.759 204.519 219.518 205.14 219.508H226.918C227.213 219.504 227.506 219.562 227.777 219.678C228.048 219.794 228.292 219.966 228.492 220.183C228.692 220.399 228.845 220.655 228.94 220.935C229.035 221.214 229.07 221.51 229.043 221.804C228.99 222.43 228.704 223.013 228.242 223.438C227.779 223.863 227.174 224.099 226.546 224.099Z" fill="white"/>
<path id="Vector_100" opacity="0.4" d="M231.721 239.947H197.407C197.112 239.95 196.82 239.891 196.549 239.774C196.279 239.657 196.035 239.486 195.834 239.27C195.633 239.054 195.48 238.798 195.383 238.52C195.286 238.241 195.249 237.946 195.273 237.652C195.327 237.032 195.61 236.454 196.065 236.03C196.521 235.606 197.117 235.366 197.739 235.356H232.054C232.348 235.354 232.64 235.413 232.91 235.529C233.18 235.646 233.423 235.818 233.623 236.034C233.823 236.25 233.976 236.506 234.071 236.785C234.167 237.063 234.203 237.358 234.178 237.652C234.126 238.271 233.845 238.848 233.392 239.273C232.938 239.697 232.342 239.937 231.721 239.947Z" fill="#407BFF"/>
<path id="Vector_101" opacity="0.8" d="M224.804 248.949H203.035C202.741 248.954 202.448 248.898 202.177 248.783C201.905 248.668 201.661 248.497 201.459 248.281C201.258 248.066 201.104 247.81 201.008 247.532C200.912 247.253 200.875 246.957 200.901 246.663C200.954 246.039 201.238 245.458 201.699 245.033C202.159 244.608 202.762 244.371 203.388 244.368H225.136C225.432 244.364 225.724 244.422 225.996 244.538C226.267 244.654 226.512 244.826 226.713 245.042C226.914 245.259 227.067 245.514 227.164 245.794C227.26 246.073 227.296 246.369 227.271 246.663C227.216 247.282 226.933 247.859 226.478 248.281C226.022 248.703 225.425 248.941 224.804 248.949Z" fill="white"/>
<path id="Vector_102" opacity="0.4" d="M229.939 264.807H195.625C195.33 264.81 195.038 264.751 194.767 264.634C194.496 264.517 194.253 264.345 194.052 264.129C193.851 263.914 193.698 263.658 193.601 263.38C193.504 263.101 193.467 262.805 193.49 262.512C193.543 261.891 193.824 261.312 194.281 260.887C194.737 260.463 195.334 260.224 195.957 260.216H230.271C230.566 260.212 230.859 260.27 231.13 260.386C231.401 260.502 231.644 260.674 231.845 260.891C232.045 261.107 232.198 261.363 232.293 261.643C232.387 261.922 232.423 262.218 232.396 262.512C232.344 263.131 232.063 263.708 231.609 264.132C231.155 264.556 230.56 264.797 229.939 264.807Z" fill="#407BFF"/>
<path id="Vector_103" opacity="0.8" d="M223.022 273.809H201.253C200.958 273.812 200.665 273.754 200.394 273.638C200.122 273.522 199.878 273.35 199.677 273.134C199.476 272.918 199.322 272.662 199.226 272.383C199.13 272.103 199.093 271.807 199.119 271.513C199.173 270.895 199.454 270.318 199.908 269.895C200.361 269.471 200.955 269.23 201.575 269.217H223.354C223.649 269.215 223.941 269.274 224.212 269.391C224.483 269.507 224.726 269.679 224.927 269.895C225.128 270.111 225.281 270.366 225.378 270.645C225.475 270.923 225.512 271.219 225.489 271.513C225.436 272.134 225.154 272.713 224.698 273.137C224.242 273.561 223.645 273.801 223.022 273.809Z" fill="white"/>
<path id="Vector_104" opacity="0.5" d="M424.577 236.887C426.067 234.611 429.481 235.568 429.289 238.196L425.987 284.27C425.816 286.636 424.023 288.569 421.959 288.569H256.017C254.003 288.569 252.473 286.636 252.644 284.27L254.658 256.893C254.725 256.023 254.983 255.178 255.415 254.418C255.846 253.659 256.44 253.005 257.154 252.502C257.868 251.999 258.684 251.66 259.544 251.508C260.403 251.357 261.286 251.398 262.129 251.627C271.482 254.537 279.497 252.825 286.948 249.13C302.877 241.226 316.208 224.25 334.523 224.25C335.228 224.25 335.922 224.25 336.597 224.311C363.843 225.952 372.139 259.803 393.243 259.803C399.486 259.803 405.175 257.105 410.139 253.268C416.16 248.566 421.124 242.153 424.577 236.887Z" fill="#407BFF"/>
<path id="Vector_105" opacity="0.5" d="M428.021 255.866L426.007 284.27C425.836 286.636 424.044 288.569 421.98 288.569H256.017C254.003 288.569 252.473 286.636 252.644 284.27L256.671 227.825C256.943 223.958 262.008 222.327 264.062 225.459C269.358 233.514 277.504 243.975 286.878 249.13C290.285 251.119 294.14 252.21 298.084 252.302C311.496 252.302 322.903 236.403 336.526 224.311C344.873 216.9 354.056 210.919 365.041 210.919C387.967 210.919 391.351 248.174 410.068 253.268C413.673 254.275 417.851 254.044 422.845 252.131C423.436 251.875 424.083 251.778 424.722 251.848C425.362 251.917 425.972 252.152 426.494 252.528C427.016 252.905 427.431 253.411 427.698 253.996C427.966 254.581 428.077 255.225 428.021 255.866Z" fill="#407BFF"/>
<g id="Group" opacity="0.8">
<path id="Vector_106" d="M428.836 244.851C428.746 244.848 428.66 244.812 428.595 244.75C428.562 244.72 428.538 244.682 428.524 244.64C428.515 244.597 428.515 244.552 428.524 244.509C428.524 244.464 428.532 244.419 428.55 244.378C428.567 244.336 428.592 244.298 428.625 244.267C428.689 244.203 428.776 244.167 428.866 244.167C428.957 244.167 429.044 244.203 429.108 244.267C429.141 244.298 429.168 244.335 429.185 244.377C429.202 244.419 429.21 244.464 429.209 244.509C429.214 244.552 429.214 244.596 429.209 244.64C429.188 244.681 429.161 244.718 429.128 244.75C429.09 244.788 429.044 244.817 428.994 244.834C428.943 244.852 428.889 244.858 428.836 244.851Z" fill="white"/>
<path id="Vector_107" d="M267.466 268.442C267.375 268.442 267.288 268.406 267.224 268.342C267.159 268.278 267.123 268.191 267.123 268.1C267.126 268.011 267.163 267.926 267.227 267.864C267.291 267.802 267.377 267.767 267.466 267.767C267.556 267.767 267.643 267.804 267.708 267.868C267.772 267.932 267.808 268.019 267.808 268.11C267.808 268.202 267.772 268.29 267.708 268.355C267.644 268.421 267.557 268.46 267.466 268.462V268.442ZM264.012 268.251C263.966 268.248 263.922 268.237 263.881 268.216C263.84 268.196 263.804 268.167 263.775 268.132C263.746 268.097 263.724 268.057 263.711 268.013C263.698 267.969 263.694 267.923 263.7 267.878C263.705 267.833 263.719 267.789 263.741 267.75C263.763 267.71 263.792 267.675 263.828 267.647C263.864 267.619 263.904 267.598 263.948 267.586C263.992 267.574 264.037 267.571 264.083 267.576C264.172 267.586 264.253 267.631 264.31 267.701C264.366 267.77 264.393 267.859 264.385 267.949C264.375 268.033 264.335 268.112 264.272 268.169C264.209 268.226 264.127 268.259 264.042 268.261L264.012 268.251ZM270.526 267.949C270.521 267.904 270.524 267.858 270.536 267.814C270.549 267.771 270.569 267.73 270.597 267.694C270.626 267.659 270.66 267.629 270.7 267.607C270.74 267.585 270.783 267.571 270.829 267.566C270.874 267.56 270.919 267.564 270.963 267.576C271.007 267.588 271.047 267.609 271.083 267.637C271.119 267.665 271.148 267.7 271.17 267.74C271.192 267.779 271.206 267.823 271.211 267.868C271.217 267.913 271.213 267.959 271.201 268.003C271.189 268.046 271.168 268.087 271.14 268.123C271.112 268.158 271.077 268.188 271.037 268.21C270.998 268.232 270.954 268.246 270.909 268.251C270.864 268.256 270.818 268.253 270.775 268.241C270.731 268.229 270.69 268.208 270.655 268.18C270.619 268.152 270.589 268.117 270.567 268.077C270.545 268.037 270.531 267.994 270.526 267.949ZM260.609 267.727C260.52 267.706 260.442 267.651 260.392 267.574C260.341 267.498 260.322 267.405 260.337 267.314C260.359 267.225 260.413 267.148 260.49 267.097C260.566 267.047 260.659 267.027 260.75 267.043C260.839 267.064 260.917 267.119 260.967 267.195C261.017 267.272 261.037 267.365 261.022 267.455C261.003 267.533 260.96 267.601 260.898 267.651C260.836 267.7 260.759 267.727 260.679 267.727H260.609ZM273.889 267.385C273.877 267.341 273.874 267.294 273.881 267.249C273.887 267.203 273.902 267.159 273.926 267.12C273.949 267.081 273.98 267.046 274.017 267.019C274.054 266.992 274.096 266.973 274.141 266.962C274.229 266.943 274.321 266.959 274.398 267.006C274.474 267.053 274.53 267.127 274.554 267.214C274.575 267.303 274.561 267.397 274.514 267.476C274.467 267.555 274.391 267.613 274.302 267.637H274.222C274.143 267.644 274.063 267.622 273.999 267.576C273.934 267.53 273.888 267.462 273.869 267.385H273.889ZM384.011 267.526C383.92 267.526 383.833 267.49 383.769 267.426C383.705 267.361 383.669 267.274 383.669 267.183C383.669 267.093 383.705 267.006 383.769 266.941C383.833 266.877 383.92 266.841 384.011 266.841C384.102 266.841 384.189 266.877 384.253 266.941C384.317 267.006 384.353 267.093 384.353 267.183C384.353 267.274 384.317 267.361 384.253 267.426C384.189 267.49 384.102 267.526 384.011 267.526ZM387.082 267.043C387.076 266.998 387.08 266.953 387.092 266.91C387.104 266.867 387.125 266.827 387.154 266.792C387.182 266.757 387.217 266.728 387.256 266.707C387.296 266.686 387.339 266.674 387.384 266.67C387.429 266.663 387.475 266.665 387.52 266.677C387.564 266.688 387.605 266.709 387.641 266.737C387.677 266.766 387.707 266.801 387.728 266.842C387.75 266.882 387.763 266.926 387.767 266.972C387.775 267.064 387.747 267.156 387.689 267.227C387.63 267.299 387.546 267.344 387.454 267.355C387.364 267.36 387.275 267.331 387.206 267.273C387.136 267.215 387.092 267.132 387.082 267.043ZM380.567 267.314C380.523 267.309 380.479 267.296 380.44 267.273C380.401 267.251 380.367 267.221 380.339 267.186C380.312 267.15 380.292 267.109 380.281 267.065C380.27 267.022 380.268 266.976 380.275 266.932C380.28 266.887 380.294 266.843 380.316 266.803C380.338 266.764 380.368 266.729 380.404 266.701C380.439 266.673 380.48 266.652 380.524 266.64C380.567 266.627 380.613 266.624 380.658 266.63C380.748 266.642 380.83 266.689 380.886 266.76C380.942 266.832 380.969 266.922 380.96 267.012C380.95 267.097 380.91 267.175 380.847 267.233C380.785 267.29 380.703 267.323 380.618 267.324L380.567 267.314ZM257.266 266.902C257.222 266.89 257.181 266.87 257.145 266.842C257.109 266.814 257.079 266.78 257.057 266.741C257.034 266.701 257.02 266.658 257.014 266.613C257.009 266.568 257.012 266.522 257.024 266.479C257.052 266.391 257.113 266.317 257.193 266.272C257.273 266.227 257.368 266.215 257.457 266.237C257.545 266.265 257.618 266.326 257.661 266.407C257.704 266.487 257.714 266.582 257.689 266.67C257.669 266.742 257.625 266.804 257.565 266.848C257.504 266.892 257.431 266.914 257.357 266.912H257.266V266.902ZM390.465 266.569C390.455 266.525 390.454 266.479 390.462 266.434C390.47 266.389 390.488 266.347 390.513 266.309C390.539 266.271 390.572 266.239 390.61 266.214C390.649 266.19 390.692 266.174 390.737 266.167C390.781 266.158 390.827 266.158 390.871 266.167C390.915 266.176 390.957 266.193 390.995 266.219C391.032 266.244 391.064 266.276 391.089 266.314C391.114 266.352 391.131 266.394 391.14 266.438C391.148 266.483 391.148 266.528 391.139 266.573C391.13 266.617 391.113 266.659 391.088 266.696C391.062 266.734 391.03 266.766 390.992 266.791C390.954 266.816 390.912 266.833 390.868 266.841H390.807C390.728 266.841 390.651 266.814 390.589 266.765C390.527 266.715 390.483 266.647 390.465 266.569ZM377.184 266.69C377.139 266.682 377.096 266.665 377.059 266.639C377.021 266.613 376.989 266.58 376.965 266.541C376.941 266.502 376.926 266.458 376.921 266.412C376.915 266.367 376.919 266.321 376.933 266.277C376.954 266.189 377.01 266.113 377.087 266.066C377.164 266.019 377.257 266.004 377.345 266.026C377.434 266.047 377.509 266.103 377.557 266.18C377.604 266.257 377.618 266.35 377.597 266.438C377.579 266.513 377.537 266.579 377.476 266.627C377.416 266.674 377.342 266.7 377.265 266.7H377.184V266.69ZM277.152 266.408C277.134 266.366 277.125 266.321 277.126 266.275C277.127 266.229 277.137 266.184 277.156 266.143C277.175 266.101 277.202 266.064 277.236 266.033C277.27 266.003 277.31 265.98 277.353 265.965C277.437 265.932 277.531 265.934 277.614 265.969C277.697 266.005 277.762 266.073 277.796 266.156C277.812 266.199 277.82 266.244 277.818 266.289C277.817 266.334 277.807 266.379 277.788 266.42C277.769 266.461 277.742 266.498 277.709 266.529C277.676 266.56 277.637 266.584 277.595 266.599C277.555 266.609 277.514 266.609 277.474 266.599C277.408 266.601 277.342 266.584 277.285 266.55C277.228 266.516 277.182 266.467 277.152 266.408ZM393.798 265.814C393.784 265.77 393.779 265.723 393.784 265.677C393.789 265.631 393.803 265.586 393.826 265.546C393.848 265.505 393.879 265.47 393.916 265.442C393.952 265.413 393.995 265.393 394.039 265.381C394.083 265.369 394.129 265.366 394.174 265.371C394.219 265.377 394.262 265.391 394.301 265.414C394.341 265.436 394.375 265.466 394.403 265.502C394.43 265.538 394.451 265.579 394.462 265.623C394.474 265.666 394.478 265.712 394.472 265.757C394.467 265.802 394.452 265.845 394.43 265.885C394.407 265.924 394.377 265.959 394.341 265.986C394.305 266.014 394.264 266.034 394.221 266.046H394.13C394.057 266.047 393.986 266.026 393.926 265.984C393.866 265.943 393.821 265.883 393.798 265.814ZM373.882 265.693C373.797 265.664 373.727 265.601 373.687 265.52C373.647 265.439 373.641 265.346 373.67 265.26C373.702 265.174 373.766 265.104 373.849 265.065C373.932 265.025 374.027 265.02 374.113 265.049C374.199 265.081 374.269 265.145 374.309 265.228C374.348 265.31 374.354 265.405 374.325 265.492C374.298 265.558 374.252 265.615 374.193 265.654C374.134 265.694 374.064 265.714 373.993 265.713C373.955 265.717 373.916 265.71 373.882 265.693ZM280.243 265.049C280.222 265.009 280.209 264.965 280.206 264.919C280.202 264.874 280.207 264.829 280.222 264.786C280.236 264.743 280.258 264.703 280.288 264.668C280.317 264.634 280.353 264.606 280.394 264.586C280.477 264.547 280.572 264.542 280.658 264.573C280.744 264.603 280.816 264.665 280.857 264.747C280.878 264.786 280.89 264.83 280.894 264.874C280.897 264.918 280.892 264.963 280.878 265.005C280.863 265.048 280.841 265.087 280.812 265.12C280.782 265.154 280.746 265.181 280.706 265.2C280.653 265.215 280.597 265.215 280.545 265.2C280.493 265.196 280.442 265.181 280.396 265.155C280.351 265.129 280.312 265.092 280.283 265.049H280.243ZM397.04 264.807C397.024 264.766 397.016 264.721 397.018 264.677C397.02 264.632 397.03 264.588 397.049 264.548C397.068 264.508 397.094 264.472 397.127 264.442C397.16 264.412 397.199 264.389 397.241 264.374C397.327 264.348 397.419 264.355 397.5 264.394C397.58 264.434 397.642 264.502 397.674 264.586C397.703 264.673 397.698 264.767 397.658 264.85C397.619 264.933 397.549 264.997 397.463 265.029H397.352C397.289 265.022 397.229 264.997 397.18 264.958C397.13 264.919 397.092 264.867 397.07 264.807H397.04ZM370.67 264.384C370.629 264.366 370.592 264.339 370.561 264.307C370.53 264.274 370.506 264.235 370.49 264.193C370.475 264.151 370.467 264.106 370.469 264.061C370.47 264.017 370.48 263.972 370.499 263.931C370.538 263.85 370.607 263.787 370.691 263.756C370.775 263.724 370.869 263.725 370.952 263.76C370.994 263.779 371.032 263.805 371.064 263.839C371.096 263.872 371.12 263.912 371.136 263.955C371.152 263.998 371.159 264.045 371.157 264.091C371.155 264.137 371.143 264.182 371.123 264.223C371.095 264.283 371.051 264.333 370.996 264.368C370.94 264.404 370.876 264.423 370.811 264.425C370.771 264.421 370.733 264.407 370.7 264.384H370.67ZM400.232 263.599C400.214 263.557 400.205 263.513 400.205 263.468C400.205 263.422 400.214 263.378 400.232 263.336C400.25 263.295 400.276 263.258 400.309 263.226C400.342 263.195 400.381 263.171 400.423 263.156C400.464 263.136 400.508 263.126 400.553 263.124C400.598 263.123 400.643 263.131 400.685 263.148C400.727 263.165 400.764 263.191 400.795 263.223C400.827 263.256 400.851 263.295 400.866 263.337C400.884 263.379 400.894 263.424 400.895 263.469C400.895 263.514 400.887 263.56 400.87 263.602C400.853 263.644 400.828 263.682 400.796 263.715C400.765 263.747 400.727 263.773 400.685 263.79C400.642 263.8 400.597 263.8 400.554 263.79C400.493 263.787 400.434 263.767 400.382 263.733C400.331 263.7 400.29 263.654 400.262 263.599H400.232ZM283.233 263.398C283.184 263.319 283.168 263.224 283.189 263.133C283.21 263.043 283.266 262.964 283.344 262.914C283.382 262.89 283.425 262.874 283.469 262.867C283.514 262.859 283.56 262.861 283.604 262.871C283.648 262.881 283.689 262.9 283.726 262.927C283.762 262.953 283.794 262.987 283.817 263.025C283.841 263.063 283.857 263.106 283.865 263.151C283.872 263.195 283.871 263.241 283.86 263.285C283.85 263.329 283.831 263.37 283.805 263.407C283.778 263.444 283.745 263.475 283.706 263.498C283.654 263.538 283.591 263.559 283.525 263.559C283.472 263.553 283.422 263.535 283.376 263.507C283.331 263.479 283.293 263.442 283.263 263.398H283.233ZM367.599 262.844C367.518 262.799 367.458 262.725 367.432 262.636C367.405 262.548 367.415 262.452 367.458 262.371C367.504 262.292 367.58 262.234 367.668 262.209C367.756 262.185 367.851 262.196 367.931 262.24C368.01 262.284 368.067 262.358 368.092 262.444C368.116 262.531 368.106 262.624 368.062 262.703C368.032 262.757 367.988 262.802 367.935 262.834C367.882 262.866 367.822 262.883 367.76 262.884C367.715 262.877 367.671 262.864 367.629 262.844H367.599ZM403.363 262.22C403.325 262.138 403.32 262.045 403.351 261.96C403.381 261.875 403.443 261.806 403.524 261.767C403.607 261.728 403.702 261.723 403.788 261.753C403.875 261.783 403.946 261.846 403.987 261.928C404.006 261.969 404.016 262.013 404.018 262.058C404.019 262.103 404.011 262.148 403.996 262.19C403.98 262.232 403.956 262.27 403.925 262.303C403.894 262.336 403.857 262.362 403.816 262.381H403.665C403.61 262.378 403.557 262.361 403.509 262.333C403.462 262.305 403.422 262.266 403.393 262.22H403.363ZM286.073 261.505C286.021 261.429 286 261.337 286.015 261.247C286.03 261.157 286.08 261.076 286.153 261.021C286.227 260.968 286.319 260.946 286.409 260.959C286.499 260.973 286.581 261.02 286.636 261.092C286.688 261.167 286.709 261.26 286.694 261.35C286.679 261.44 286.629 261.521 286.556 261.575C286.497 261.618 286.427 261.642 286.354 261.646C286.305 261.641 286.257 261.626 286.214 261.602C286.17 261.578 286.132 261.545 286.103 261.505H286.073ZM364.609 261.122C364.57 261.099 364.537 261.069 364.511 261.034C364.485 260.998 364.466 260.957 364.455 260.914C364.445 260.871 364.444 260.826 364.451 260.782C364.458 260.738 364.474 260.696 364.498 260.659C364.519 260.619 364.548 260.584 364.583 260.555C364.618 260.527 364.659 260.507 364.703 260.496C364.746 260.484 364.792 260.482 364.836 260.489C364.881 260.497 364.923 260.513 364.961 260.538C365 260.561 365.035 260.591 365.062 260.628C365.089 260.664 365.109 260.705 365.121 260.749C365.132 260.793 365.134 260.839 365.128 260.884C365.121 260.929 365.105 260.972 365.082 261.011C365.051 261.062 365.009 261.104 364.958 261.134C364.907 261.164 364.849 261.181 364.79 261.183C364.743 261.171 364.698 261.151 364.659 261.122H364.609ZM406.404 260.689C406.361 260.609 406.352 260.515 406.378 260.428C406.405 260.342 406.465 260.269 406.545 260.226C406.625 260.186 406.718 260.178 406.804 260.204C406.89 260.231 406.963 260.289 407.008 260.367C407.051 260.449 407.061 260.544 407.034 260.632C407.008 260.721 406.948 260.796 406.867 260.84C406.814 260.849 406.759 260.849 406.706 260.84C406.655 260.835 406.607 260.819 406.563 260.793C406.519 260.767 406.482 260.731 406.454 260.689H406.404ZM288.791 259.441C288.763 259.406 288.741 259.365 288.728 259.322C288.715 259.279 288.711 259.233 288.716 259.189C288.72 259.144 288.734 259.1 288.755 259.06C288.777 259.021 288.806 258.986 288.841 258.957C288.913 258.902 289.003 258.877 289.093 258.886C289.183 258.895 289.266 258.939 289.325 259.008C289.387 259.075 289.422 259.163 289.422 259.254C289.422 259.346 289.387 259.434 289.325 259.501C289.261 259.548 289.183 259.573 289.103 259.572C289.052 259.574 289.001 259.563 288.955 259.54C288.91 259.517 288.87 259.483 288.841 259.441H288.791ZM361.709 259.29C361.633 259.24 361.579 259.163 361.56 259.074C361.542 258.985 361.559 258.892 361.608 258.816C361.659 258.74 361.739 258.686 361.829 258.667C361.92 258.648 362.014 258.666 362.091 258.716C362.165 258.767 362.217 258.844 362.236 258.932C362.254 259.02 362.239 259.112 362.192 259.189C362.161 259.238 362.118 259.279 362.067 259.307C362.016 259.336 361.958 259.35 361.9 259.35C361.85 259.339 361.802 259.318 361.759 259.29H361.709ZM409.394 259.038C409.371 258.999 409.355 258.956 409.348 258.911C409.342 258.866 409.344 258.82 409.355 258.776C409.367 258.732 409.387 258.691 409.414 258.654C409.441 258.618 409.476 258.587 409.515 258.565C409.594 258.52 409.688 258.507 409.776 258.53C409.864 258.552 409.94 258.608 409.988 258.685C410.033 258.765 410.046 258.858 410.023 258.946C410.001 259.035 409.945 259.111 409.867 259.159C409.812 259.189 409.75 259.206 409.686 259.209C409.636 259.2 409.588 259.181 409.546 259.151C409.504 259.121 409.469 259.083 409.445 259.038H409.394ZM358.859 257.387C358.784 257.334 358.733 257.254 358.716 257.163C358.699 257.073 358.718 256.98 358.769 256.903C358.823 256.83 358.903 256.78 358.993 256.764C359.082 256.747 359.175 256.764 359.252 256.813C359.325 256.867 359.375 256.947 359.392 257.037C359.409 257.126 359.391 257.219 359.343 257.296C359.31 257.343 359.266 257.381 359.215 257.408C359.164 257.434 359.108 257.447 359.051 257.447C359 257.437 358.952 257.417 358.91 257.387H358.859ZM412.314 257.266C412.268 257.186 412.253 257.092 412.274 257.002C412.294 256.912 412.348 256.834 412.425 256.782C412.463 256.759 412.506 256.742 412.55 256.735C412.595 256.728 412.641 256.729 412.685 256.739C412.729 256.75 412.77 256.769 412.807 256.795C412.843 256.821 412.874 256.855 412.898 256.893C412.922 256.932 412.938 256.974 412.946 257.019C412.953 257.063 412.952 257.109 412.941 257.153C412.931 257.197 412.912 257.238 412.886 257.275C412.859 257.312 412.826 257.343 412.787 257.366C412.736 257.407 412.672 257.428 412.606 257.427C412.557 257.418 412.51 257.399 412.468 257.372C412.427 257.344 412.391 257.308 412.364 257.266H412.314ZM291.49 257.266C291.428 257.2 291.394 257.114 291.394 257.024C291.394 256.934 291.428 256.848 291.49 256.782C291.557 256.72 291.645 256.686 291.736 256.686C291.828 256.686 291.916 256.72 291.983 256.782C292.047 256.847 292.083 256.934 292.083 257.024C292.083 257.115 292.047 257.202 291.983 257.266C291.953 257.293 291.918 257.315 291.88 257.329C291.842 257.342 291.802 257.348 291.761 257.346C291.714 257.355 291.666 257.355 291.619 257.344C291.573 257.334 291.528 257.314 291.49 257.286V257.266ZM415.234 255.373C415.182 255.298 415.162 255.205 415.177 255.115C415.192 255.025 415.241 254.944 415.315 254.89C415.352 254.863 415.394 254.844 415.439 254.835C415.484 254.825 415.53 254.824 415.575 254.833C415.62 254.841 415.663 254.858 415.702 254.884C415.74 254.909 415.773 254.942 415.798 254.98C415.848 255.055 415.867 255.147 415.85 255.235C415.833 255.324 415.782 255.402 415.707 255.453C415.651 255.492 415.584 255.513 415.516 255.514C415.463 255.517 415.41 255.508 415.361 255.487C415.312 255.466 415.268 255.434 415.234 255.393V255.373ZM356.08 255.453C356.042 255.429 356.01 255.397 355.985 255.36C355.959 255.323 355.942 255.281 355.933 255.236C355.925 255.192 355.926 255.146 355.935 255.102C355.945 255.058 355.963 255.017 355.99 254.98C356.039 254.904 356.117 254.851 356.206 254.832C356.294 254.813 356.387 254.83 356.463 254.88C356.501 254.905 356.534 254.938 356.559 254.976C356.585 255.014 356.602 255.057 356.611 255.102C356.619 255.147 356.618 255.193 356.609 255.238C356.599 255.283 356.58 255.325 356.554 255.363C356.524 255.41 356.482 255.449 356.433 255.476C356.383 255.502 356.328 255.515 356.272 255.514C356.205 255.519 356.139 255.505 356.08 255.474V255.453ZM294.117 255.071C294.085 255.04 294.058 255.002 294.04 254.961C294.023 254.919 294.013 254.874 294.013 254.829C294.013 254.784 294.023 254.739 294.04 254.698C294.058 254.656 294.085 254.619 294.117 254.588C294.183 254.526 294.269 254.492 294.359 254.492C294.449 254.492 294.535 254.526 294.601 254.588C294.665 254.652 294.701 254.739 294.701 254.829C294.701 254.92 294.665 255.007 294.601 255.071C294.54 255.125 294.461 255.153 294.379 255.151C294.334 255.161 294.287 255.16 294.242 255.15C294.197 255.139 294.154 255.119 294.117 255.091V255.071ZM353.241 253.56C353.202 253.537 353.169 253.506 353.142 253.469C353.116 253.432 353.098 253.39 353.088 253.346C353.079 253.301 353.079 253.256 353.088 253.211C353.097 253.167 353.114 253.125 353.14 253.087C353.164 253.049 353.195 253.015 353.232 252.989C353.269 252.963 353.311 252.944 353.355 252.935C353.399 252.925 353.445 252.925 353.49 252.934C353.534 252.943 353.576 252.961 353.614 252.987C353.69 253.036 353.743 253.114 353.762 253.202C353.781 253.291 353.764 253.384 353.714 253.46C353.684 253.507 353.643 253.546 353.593 253.573C353.544 253.599 353.488 253.612 353.432 253.611C353.367 253.621 353.3 253.61 353.241 253.581V253.56ZM418.033 253.399C418.006 253.364 417.986 253.323 417.975 253.28C417.964 253.237 417.961 253.192 417.968 253.148C417.974 253.104 417.99 253.061 418.013 253.023C418.036 252.985 418.067 252.952 418.104 252.926C418.178 252.873 418.269 252.851 418.359 252.864C418.45 252.877 418.531 252.925 418.587 252.997C418.639 253.072 418.659 253.164 418.644 253.255C418.629 253.345 418.58 253.426 418.506 253.48C418.447 253.52 418.377 253.541 418.305 253.54C418.253 253.544 418.201 253.536 418.154 253.514C418.106 253.493 418.065 253.461 418.033 253.42V253.399ZM296.745 252.886C296.681 252.822 296.646 252.735 296.646 252.644C296.646 252.554 296.681 252.467 296.745 252.403C296.817 252.347 296.907 252.322 296.997 252.331C297.087 252.341 297.17 252.384 297.229 252.453C297.257 252.488 297.279 252.528 297.292 252.571C297.305 252.615 297.309 252.66 297.304 252.705C297.299 252.75 297.286 252.794 297.264 252.833C297.243 252.873 297.214 252.908 297.178 252.936C297.149 252.964 297.114 252.985 297.076 252.999C297.038 253.013 296.997 253.019 296.957 253.017C296.875 253.007 296.8 252.968 296.745 252.906V252.886ZM350.392 251.718C350.353 251.694 350.32 251.663 350.293 251.627C350.267 251.59 350.248 251.548 350.238 251.504C350.227 251.46 350.226 251.415 350.233 251.37C350.241 251.326 350.257 251.283 350.281 251.245C350.304 251.206 350.336 251.173 350.372 251.146C350.409 251.12 350.45 251.101 350.494 251.091C350.538 251.08 350.584 251.079 350.628 251.086C350.673 251.094 350.716 251.11 350.754 251.134C350.792 251.158 350.826 251.189 350.852 251.225C350.879 251.262 350.898 251.303 350.908 251.347C350.918 251.391 350.92 251.437 350.912 251.482C350.905 251.526 350.889 251.569 350.865 251.607C350.834 251.658 350.792 251.7 350.741 251.73C350.69 251.76 350.632 251.777 350.573 251.778C350.507 251.778 350.444 251.757 350.392 251.718ZM420.792 251.355C420.764 251.32 420.743 251.279 420.731 251.235C420.719 251.192 420.716 251.146 420.721 251.101C420.727 251.056 420.741 251.013 420.764 250.974C420.786 250.934 420.816 250.9 420.852 250.872C420.888 250.844 420.929 250.823 420.972 250.811C421.016 250.799 421.062 250.796 421.107 250.801C421.152 250.807 421.195 250.822 421.234 250.844C421.274 250.867 421.308 250.897 421.336 250.933C421.387 251.006 421.41 251.097 421.399 251.186C421.388 251.275 421.344 251.357 421.275 251.416C421.219 251.462 421.147 251.487 421.074 251.486C421.018 251.494 420.962 251.488 420.909 251.469C420.856 251.449 420.809 251.417 420.772 251.376L420.792 251.355ZM299.444 250.771C299.391 250.697 299.369 250.606 299.382 250.516C299.395 250.426 299.442 250.344 299.514 250.288C299.588 250.235 299.68 250.213 299.77 250.226C299.86 250.239 299.942 250.287 299.998 250.359C300.051 250.433 300.073 250.524 300.06 250.614C300.047 250.705 299.999 250.786 299.927 250.842C299.868 250.885 299.798 250.909 299.726 250.912C299.669 250.918 299.613 250.91 299.56 250.889C299.507 250.868 299.461 250.835 299.424 250.792L299.444 250.771ZM347.462 249.976C347.422 249.953 347.388 249.923 347.36 249.886C347.333 249.85 347.313 249.809 347.302 249.765C347.291 249.721 347.288 249.675 347.295 249.63C347.302 249.585 347.317 249.542 347.341 249.503C347.363 249.464 347.392 249.43 347.427 249.402C347.463 249.375 347.503 249.355 347.547 249.344C347.59 249.333 347.635 249.33 347.679 249.337C347.723 249.343 347.766 249.359 347.804 249.382C347.844 249.403 347.879 249.432 347.907 249.467C347.935 249.502 347.956 249.542 347.969 249.586C347.981 249.629 347.984 249.674 347.978 249.719C347.973 249.763 347.958 249.806 347.935 249.845C347.905 249.899 347.861 249.944 347.808 249.976C347.755 250.008 347.695 250.025 347.633 250.026C347.567 250.032 347.502 250.021 347.441 249.996L347.462 249.976ZM423.46 249.221C423.432 249.186 423.41 249.146 423.397 249.102C423.384 249.059 423.38 249.014 423.385 248.969C423.389 248.924 423.403 248.88 423.425 248.841C423.446 248.801 423.475 248.766 423.511 248.738C423.545 248.709 423.586 248.688 423.629 248.675C423.672 248.662 423.718 248.657 423.763 248.662C423.808 248.667 423.851 248.68 423.891 248.702C423.93 248.724 423.965 248.753 423.994 248.788C424.055 248.853 424.09 248.94 424.09 249.03C424.09 249.119 424.055 249.206 423.994 249.271C423.93 249.32 423.853 249.348 423.772 249.352C423.712 249.365 423.649 249.362 423.591 249.342C423.532 249.323 423.48 249.288 423.44 249.241L423.46 249.221ZM302.223 248.778C302.196 248.74 302.178 248.698 302.168 248.653C302.158 248.608 302.157 248.562 302.166 248.517C302.174 248.472 302.192 248.429 302.217 248.391C302.242 248.353 302.275 248.32 302.313 248.295C302.391 248.245 302.485 248.227 302.576 248.246C302.666 248.265 302.745 248.319 302.797 248.395C302.846 248.471 302.863 248.564 302.844 248.653C302.825 248.741 302.772 248.819 302.696 248.868C302.64 248.908 302.573 248.929 302.505 248.929C302.448 248.933 302.39 248.924 302.337 248.901C302.285 248.878 302.239 248.843 302.203 248.798L302.223 248.778ZM344.511 248.355C344.431 248.312 344.371 248.239 344.345 248.153C344.319 248.066 344.328 247.972 344.37 247.892C344.391 247.851 344.419 247.815 344.453 247.786C344.488 247.756 344.527 247.734 344.57 247.72C344.614 247.705 344.659 247.7 344.704 247.704C344.749 247.707 344.793 247.72 344.834 247.741C344.913 247.787 344.972 247.861 345 247.949C345.027 248.036 345.022 248.13 344.985 248.214C344.952 248.268 344.907 248.313 344.852 248.345C344.797 248.377 344.736 248.394 344.673 248.395C344.599 248.415 344.52 248.408 344.451 248.375L344.511 248.355ZM426.068 247.016C426.004 246.952 425.968 246.865 425.968 246.774C425.968 246.684 426.004 246.597 426.068 246.533C426.133 246.471 426.22 246.437 426.31 246.437C426.399 246.437 426.486 246.471 426.551 246.533C426.613 246.598 426.647 246.684 426.647 246.774C426.647 246.864 426.613 246.95 426.551 247.016C426.522 247.045 426.488 247.068 426.45 247.083C426.412 247.099 426.371 247.107 426.33 247.106C426.282 247.115 426.233 247.113 426.186 247.1C426.139 247.088 426.096 247.066 426.058 247.036L426.068 247.016ZM305.082 246.976C305.059 246.936 305.044 246.892 305.038 246.847C305.032 246.802 305.036 246.755 305.048 246.711C305.06 246.667 305.081 246.626 305.109 246.59C305.138 246.554 305.173 246.524 305.213 246.502C305.292 246.459 305.385 246.448 305.472 246.473C305.558 246.497 305.632 246.555 305.676 246.633C305.699 246.673 305.714 246.716 305.72 246.762C305.726 246.807 305.723 246.853 305.711 246.897C305.699 246.942 305.678 246.983 305.649 247.019C305.621 247.055 305.586 247.084 305.545 247.106C305.489 247.119 305.431 247.119 305.374 247.106C305.319 247.11 305.263 247.1 305.212 247.077C305.161 247.054 305.117 247.02 305.082 246.976ZM341.38 246.915C341.339 246.897 341.302 246.87 341.271 246.837C341.24 246.805 341.216 246.766 341.201 246.724C341.185 246.682 341.177 246.637 341.179 246.592C341.18 246.547 341.19 246.503 341.209 246.462C341.227 246.421 341.254 246.384 341.287 246.353C341.319 246.323 341.358 246.298 341.4 246.283C341.442 246.267 341.487 246.259 341.532 246.261C341.577 246.262 341.621 246.272 341.662 246.291C341.704 246.308 341.742 246.334 341.773 246.367C341.805 246.399 341.829 246.438 341.846 246.48C341.862 246.523 341.869 246.568 341.867 246.613C341.864 246.659 341.853 246.703 341.833 246.744C341.806 246.804 341.762 246.855 341.707 246.891C341.651 246.926 341.587 246.945 341.521 246.945C341.476 246.944 341.431 246.934 341.39 246.915H341.38ZM338.249 245.677C338.205 245.662 338.165 245.639 338.132 245.608C338.098 245.578 338.07 245.541 338.051 245.499C338.033 245.457 338.022 245.412 338.022 245.367C338.021 245.321 338.03 245.276 338.047 245.234C338.081 245.15 338.146 245.082 338.228 245.044C338.311 245.007 338.405 245.002 338.49 245.032C338.574 245.066 338.642 245.131 338.68 245.213C338.717 245.296 338.722 245.39 338.692 245.475C338.668 245.542 338.625 245.599 338.567 245.639C338.509 245.678 338.44 245.699 338.369 245.697C338.328 245.7 338.287 245.693 338.249 245.677ZM308.103 245.395C308.068 245.312 308.067 245.218 308.098 245.134C308.13 245.05 308.193 244.981 308.274 244.942C308.316 244.922 308.361 244.91 308.407 244.908C308.453 244.906 308.499 244.913 308.542 244.929C308.585 244.945 308.625 244.969 308.659 245.001C308.692 245.032 308.719 245.071 308.737 245.113C308.755 245.154 308.765 245.199 308.766 245.245C308.767 245.29 308.758 245.335 308.742 245.377C308.725 245.42 308.7 245.458 308.668 245.49C308.636 245.523 308.598 245.548 308.556 245.566C308.51 245.576 308.461 245.576 308.415 245.566C308.352 245.569 308.29 245.554 308.235 245.524C308.18 245.494 308.134 245.449 308.103 245.395ZM335.017 244.579C334.929 244.551 334.856 244.491 334.813 244.41C334.77 244.329 334.76 244.234 334.785 244.146C334.813 244.059 334.874 243.986 334.955 243.943C335.035 243.899 335.13 243.889 335.218 243.915C335.305 243.943 335.378 244.003 335.422 244.084C335.465 244.165 335.475 244.26 335.45 244.348C335.426 244.418 335.382 244.479 335.322 244.522C335.263 244.565 335.191 244.589 335.117 244.589H335.017V244.579ZM311.265 244.106C311.25 244.063 311.245 244.018 311.248 243.973C311.252 243.928 311.264 243.884 311.285 243.843C311.306 243.803 311.334 243.767 311.368 243.738C311.403 243.709 311.443 243.687 311.486 243.673C311.529 243.659 311.574 243.653 311.619 243.657C311.664 243.661 311.708 243.673 311.749 243.694C311.789 243.714 311.825 243.742 311.854 243.777C311.883 243.811 311.905 243.851 311.919 243.895C311.933 243.938 311.939 243.983 311.935 244.028C311.931 244.073 311.919 244.117 311.898 244.157C311.878 244.197 311.849 244.233 311.815 244.262C311.78 244.292 311.741 244.314 311.697 244.328H311.587C311.519 244.326 311.452 244.304 311.397 244.264C311.341 244.225 311.299 244.17 311.275 244.106H311.265ZM331.734 243.743C331.646 243.724 331.57 243.671 331.521 243.596C331.472 243.52 331.454 243.429 331.472 243.341C331.481 243.296 331.498 243.253 331.524 243.214C331.549 243.176 331.583 243.144 331.621 243.119C331.66 243.095 331.704 243.078 331.749 243.072C331.795 243.065 331.841 243.067 331.885 243.079C331.929 243.087 331.971 243.104 332.009 243.129C332.046 243.154 332.078 243.187 332.102 243.224C332.127 243.262 332.143 243.304 332.151 243.348C332.159 243.393 332.157 243.438 332.147 243.482C332.131 243.56 332.087 243.63 332.025 243.679C331.962 243.729 331.884 243.755 331.805 243.754H331.734V243.743ZM314.537 243.17C314.527 243.125 314.526 243.078 314.534 243.032C314.542 242.987 314.559 242.944 314.585 242.905C314.61 242.867 314.643 242.834 314.682 242.808C314.72 242.783 314.763 242.765 314.809 242.757C314.897 242.739 314.988 242.756 315.064 242.805C315.139 242.854 315.192 242.931 315.211 243.019C315.222 243.063 315.223 243.109 315.216 243.154C315.208 243.199 315.192 243.242 315.167 243.28C315.143 243.318 315.111 243.352 315.074 243.378C315.036 243.404 314.994 243.422 314.95 243.431H314.879C314.803 243.43 314.729 243.403 314.669 243.356C314.609 243.309 314.566 243.243 314.547 243.17H314.537ZM328.401 243.17C328.311 243.155 328.231 243.105 328.176 243.032C328.122 242.959 328.098 242.867 328.109 242.777C328.114 242.732 328.128 242.689 328.15 242.65C328.173 242.611 328.202 242.576 328.238 242.549C328.274 242.522 328.315 242.502 328.359 242.491C328.402 242.48 328.448 242.478 328.492 242.485C328.582 242.5 328.663 242.549 328.717 242.622C328.772 242.696 328.796 242.787 328.784 242.878C328.77 242.959 328.728 243.032 328.666 243.085C328.603 243.139 328.524 243.168 328.442 243.17H328.391H328.401ZM317.9 242.596C317.891 242.506 317.918 242.417 317.975 242.348C318.031 242.278 318.113 242.233 318.202 242.223C318.247 242.216 318.293 242.218 318.338 242.23C318.382 242.242 318.423 242.262 318.459 242.291C318.495 242.319 318.525 242.354 318.546 242.395C318.568 242.435 318.581 242.48 318.584 242.525C318.593 242.617 318.565 242.709 318.507 242.78C318.448 242.852 318.364 242.898 318.272 242.908C318.182 242.911 318.094 242.879 318.027 242.819C317.959 242.759 317.918 242.676 317.91 242.586L317.9 242.596ZM325.028 242.817C324.983 242.816 324.938 242.806 324.897 242.786C324.856 242.767 324.819 242.74 324.789 242.706C324.759 242.672 324.736 242.632 324.721 242.589C324.707 242.546 324.702 242.5 324.706 242.455C324.709 242.41 324.72 242.366 324.74 242.325C324.759 242.285 324.787 242.248 324.821 242.218C324.854 242.188 324.894 242.165 324.936 242.151C324.979 242.136 325.024 242.13 325.069 242.133C325.16 242.14 325.245 242.184 325.306 242.253C325.366 242.323 325.397 242.413 325.391 242.505C325.386 242.592 325.347 242.674 325.284 242.734C325.22 242.794 325.136 242.827 325.049 242.827L325.028 242.817ZM321.303 242.374C321.302 242.329 321.31 242.284 321.326 242.242C321.343 242.199 321.368 242.161 321.4 242.129C321.432 242.097 321.471 242.072 321.513 242.055C321.555 242.038 321.6 242.03 321.645 242.032C321.736 242.032 321.823 242.068 321.887 242.132C321.952 242.196 321.988 242.283 321.988 242.374C321.988 242.465 321.952 242.552 321.887 242.616C321.823 242.68 321.736 242.717 321.645 242.717C321.6 242.715 321.556 242.705 321.515 242.687C321.474 242.668 321.437 242.642 321.406 242.609C321.375 242.576 321.351 242.538 321.335 242.496C321.319 242.454 321.312 242.409 321.313 242.364L321.303 242.374Z" fill="white"/>
<path id="Vector_108" d="M253.983 265.814C253.94 265.823 253.896 265.823 253.853 265.814C253.81 265.797 253.771 265.769 253.742 265.734C253.707 265.705 253.682 265.666 253.671 265.623C253.661 265.58 253.661 265.535 253.671 265.492C253.674 265.402 253.71 265.316 253.772 265.25C253.802 265.218 253.84 265.193 253.883 265.18C253.924 265.16 253.968 265.15 254.014 265.15C254.059 265.15 254.104 265.16 254.145 265.18C254.188 265.191 254.227 265.216 254.255 265.25C254.288 265.282 254.313 265.319 254.33 265.361C254.348 265.402 254.356 265.447 254.356 265.492C254.367 265.535 254.367 265.58 254.356 265.623C254.341 265.667 254.313 265.706 254.275 265.734C254.246 265.769 254.208 265.797 254.165 265.814C254.106 265.834 254.042 265.834 253.983 265.814Z" fill="white"/>
</g>
<path id="Vector_109" d="M309.19 162.721L306.844 160.183C302.607 164.191 297.009 166.443 291.177 166.486C286.55 166.559 282.044 165.001 278.451 162.085C274.857 159.169 272.404 155.081 271.523 150.537L267.999 151.464L264.777 152.309C265.692 157.066 267.921 161.471 271.211 165.026C281.43 176.041 299.544 176.041 311.345 165.026L309.19 162.721Z" fill="white"/>
<path id="Vector_110" d="M314.214 124.902L311.123 127.772L308.998 129.786C310.874 131.821 312.307 134.223 313.208 136.839C314.11 139.456 314.459 142.231 314.234 144.989C313.777 150.811 311.137 156.245 306.844 160.203L308.686 162.217L311.344 165.077C317.007 159.847 320.488 152.674 321.091 144.989C321.391 141.348 320.936 137.684 319.752 134.227C318.569 130.77 316.683 127.596 314.214 124.902Z" fill="#263238"/>
<path id="Vector_111" d="M314.214 124.902C303.994 113.897 285.881 113.897 274.09 124.902C270.359 128.318 267.551 132.622 265.928 137.413C264.305 142.205 263.919 147.329 264.807 152.309L268.835 151.303L271.593 150.578C271.241 148.744 271.133 146.872 271.271 145.01C271.76 139.202 274.391 133.783 278.652 129.807C282.913 125.83 288.501 123.58 294.328 123.493C297.091 123.463 299.83 124.007 302.372 125.092C304.913 126.177 307.2 127.779 309.089 129.796L311.808 127.248L314.214 124.902Z" fill="#407BFF"/>
<path id="Vector_112" d="M343.141 162.721L345.85 160.183C343.98 158.147 342.552 155.746 341.657 153.131C340.761 150.516 340.416 147.744 340.644 144.99C341.057 140.15 342.954 135.556 346.075 131.835C349.196 128.114 353.39 125.447 358.083 124.198L357.399 120.734L356.785 117.572C351.83 118.893 347.278 121.418 343.534 124.923C331.734 135.928 330.445 154.041 340.655 165.056L343.141 162.721Z" fill="white"/>
<path id="Vector_113" d="M380.789 165.036L378.12 162.157L376.288 160.143C372.053 164.155 366.454 166.411 360.621 166.456C357.857 166.486 355.116 165.942 352.573 164.857C350.031 163.772 347.741 162.17 345.85 160.153L343.726 162.167L340.655 165.036C343.152 167.689 346.172 169.796 349.523 171.225C352.874 172.655 356.485 173.376 360.128 173.343C367.816 173.277 375.195 170.31 380.789 165.036Z" fill="#263238"/>
<path id="Vector_114" d="M380.788 165.036C392.579 154.021 393.878 135.907 383.668 124.902C380.276 121.353 375.982 118.794 371.246 117.499C366.51 116.204 361.511 116.223 356.785 117.552L357.55 121.469L358.084 124.177C359.918 123.696 361.806 123.453 363.702 123.452C366.471 123.412 369.218 123.953 371.765 125.042C374.311 126.131 376.601 127.744 378.484 129.774C380.368 131.805 381.803 134.209 382.698 136.83C383.593 139.451 383.927 142.231 383.678 144.989C383.219 150.808 380.579 156.238 376.288 160.193L378.644 162.741L380.788 165.036Z" fill="#407BFF"/>
<path id="Vector_115" opacity="0.3" d="M428.343 119.123C428.62 119.122 428.894 119.179 429.148 119.289C429.402 119.398 429.63 119.56 429.819 119.762C430.008 119.964 430.153 120.203 430.246 120.464C430.338 120.725 430.376 121.002 430.357 121.278L429.108 138.646C429.049 139.26 428.768 139.831 428.318 140.252C427.867 140.673 427.278 140.915 426.662 140.932H409.283C409.005 140.933 408.73 140.876 408.476 140.765C408.221 140.655 407.992 140.493 407.803 140.29C407.614 140.086 407.469 139.846 407.377 139.584C407.285 139.322 407.248 139.044 407.269 138.767L408.508 121.399C408.567 120.786 408.848 120.216 409.299 119.796C409.75 119.377 410.339 119.137 410.954 119.123H428.323M428.323 118.227H410.974C410.133 118.243 409.328 118.57 408.712 119.144C408.097 119.719 407.716 120.5 407.642 121.338L406.403 138.707C406.37 139.104 406.419 139.504 406.549 139.882C406.679 140.259 406.886 140.605 407.157 140.898C407.428 141.19 407.757 141.423 408.123 141.582C408.489 141.74 408.884 141.821 409.283 141.818H426.651C427.493 141.804 428.3 141.478 428.916 140.903C429.531 140.328 429.912 139.546 429.984 138.707L431.233 121.338C431.266 120.94 431.216 120.539 431.086 120.161C430.956 119.783 430.748 119.436 430.476 119.143C430.204 118.851 429.874 118.618 429.506 118.46C429.139 118.302 428.743 118.223 428.343 118.227H428.323Z" fill="#407BFF"/>
<path id="Vector_116" opacity="0.3" d="M426.198 149.017C426.475 149.016 426.749 149.073 427.003 149.183C427.257 149.292 427.486 149.453 427.675 149.656C427.864 149.858 428.009 150.097 428.101 150.358C428.194 150.618 428.232 150.896 428.212 151.172L426.974 168.54C426.913 169.153 426.631 169.723 426.181 170.144C425.731 170.564 425.143 170.807 424.527 170.826H407.148C406.871 170.827 406.596 170.77 406.341 170.659C406.087 170.549 405.857 170.387 405.668 170.184C405.479 169.98 405.334 169.74 405.242 169.478C405.151 169.216 405.114 168.938 405.135 168.661L406.383 151.292C406.442 150.68 406.724 150.11 407.175 149.69C407.625 149.271 408.214 149.031 408.83 149.017H426.188M426.188 148.121H408.84C407.998 148.135 407.191 148.461 406.576 149.036C405.96 149.61 405.579 150.393 405.507 151.232L404.259 168.601C404.225 168.999 404.275 169.4 404.405 169.778C404.536 170.156 404.743 170.502 405.016 170.795C405.288 171.088 405.618 171.321 405.985 171.479C406.352 171.637 406.749 171.716 407.148 171.712H424.517C425.358 171.695 426.164 171.368 426.779 170.794C427.394 170.22 427.775 169.439 427.85 168.601L429.088 151.232C429.122 150.834 429.072 150.433 428.942 150.055C428.811 149.677 428.603 149.33 428.331 149.037C428.059 148.744 427.729 148.512 427.362 148.354C426.994 148.196 426.598 148.117 426.198 148.121H426.188Z" fill="#407BFF"/>
<path id="Vector_117" d="M400.734 245.103C400.968 245.097 401.2 245.14 401.415 245.231C401.63 245.321 401.824 245.456 401.983 245.626C402.141 245.799 402.261 246.003 402.336 246.225C402.41 246.447 402.438 246.682 402.416 246.915C402.371 247.438 402.135 247.926 401.752 248.285C401.369 248.643 400.866 248.848 400.342 248.858C400.108 248.865 399.875 248.822 399.659 248.732C399.443 248.641 399.249 248.506 399.089 248.334C398.93 248.162 398.809 247.959 398.735 247.737C398.661 247.514 398.636 247.279 398.66 247.046C398.703 246.522 398.939 246.033 399.322 245.674C399.706 245.315 400.209 245.111 400.734 245.103ZM400.734 244.217C399.987 244.229 399.271 244.518 398.724 245.027C398.177 245.537 397.839 246.231 397.774 246.976C397.742 247.33 397.784 247.688 397.899 248.025C398.014 248.362 398.198 248.671 398.44 248.933C398.683 249.194 398.977 249.401 399.305 249.541C399.632 249.681 399.986 249.75 400.342 249.744C401.091 249.732 401.808 249.442 402.355 248.93C402.902 248.419 403.24 247.722 403.302 246.976C403.333 246.622 403.289 246.265 403.174 245.929C403.059 245.593 402.874 245.285 402.632 245.025C402.39 244.765 402.096 244.559 401.769 244.419C401.442 244.28 401.09 244.211 400.734 244.217Z" fill="#407BFF"/>
<path id="Vector_118" d="M400.996 244.227L400.553 244.197L400.624 243.31L401.057 243.341L400.996 244.227Z" fill="#407BFF"/>
<path id="Vector_119" d="M401.188 241.528H400.745L400.876 239.716H401.319L401.188 241.528ZM401.45 237.883H401.007L401.138 236.071H401.581L401.45 237.883ZM401.712 234.249H401.269L401.4 232.426H401.843L401.712 234.249ZM401.974 230.614H401.53L401.661 228.791H402.104L401.974 230.614ZM402.235 226.979H401.792L401.923 225.157H402.366L402.235 226.979ZM402.497 223.344H402.054L402.185 221.522H402.628L402.497 223.344ZM402.759 219.699H402.316L402.447 217.887H402.89L402.759 219.699ZM403.021 216.064H402.578L402.708 214.242H403.152L403.021 216.064ZM403.282 212.43H402.839L402.97 210.607H403.413L403.282 212.43ZM403.534 208.795H403.091L403.222 206.972H403.665L403.534 208.795ZM403.796 205.16H403.353L403.484 203.338H403.927L403.796 205.16Z" fill="#407BFF"/>
<path id="Vector_120" d="M403.666 200.604L403.604 201.487L404.045 201.519L404.108 200.635L403.666 200.604Z" fill="#407BFF"/>
<path id="Vector_121" d="M422.664 201.102H263.236C262.8 201.107 262.367 201.019 261.967 200.846C261.566 200.672 261.206 200.417 260.91 200.096C260.612 199.774 260.383 199.395 260.239 198.98C260.096 198.566 260.039 198.126 260.075 197.689L260.87 186.714C260.945 185.816 261.352 184.979 262.011 184.365C262.67 183.75 263.534 183.403 264.434 183.392H423.893C424.328 183.389 424.759 183.477 425.159 183.649C425.559 183.822 425.918 184.076 426.215 184.395C426.511 184.714 426.738 185.091 426.881 185.503C427.023 185.914 427.079 186.351 427.044 186.785L426.259 197.76C426.186 198.665 425.776 199.511 425.111 200.129C424.446 200.748 423.573 201.095 422.664 201.102ZM264.434 184.358C263.775 184.368 263.143 184.623 262.661 185.074C262.179 185.524 261.882 186.137 261.827 186.795L261.041 197.77C261.016 198.074 261.053 198.381 261.152 198.67C261.251 198.96 261.409 199.226 261.615 199.451C261.823 199.671 262.075 199.846 262.354 199.964C262.633 200.082 262.933 200.14 263.236 200.136H422.664C423.324 200.128 423.958 199.874 424.44 199.423C424.923 198.972 425.219 198.357 425.272 197.699L426.067 186.724C426.091 186.424 426.052 186.121 425.954 185.836C425.855 185.551 425.699 185.29 425.495 185.068C425.291 184.846 425.044 184.668 424.768 184.546C424.492 184.424 424.194 184.36 423.893 184.358H264.434Z" fill="#407BFF"/>
<path id="Vector_122" opacity="0.8" fill-rule="evenodd" clip-rule="evenodd" d="M419.241 190.48H268.11C267.917 190.482 267.726 190.444 267.549 190.368C267.372 190.292 267.213 190.179 267.082 190.038C266.951 189.897 266.851 189.73 266.789 189.547C266.727 189.365 266.703 189.172 266.72 188.98C266.757 188.578 266.941 188.204 267.236 187.929C267.532 187.654 267.918 187.498 268.321 187.49H419.463C419.654 187.487 419.843 187.525 420.019 187.601C420.195 187.677 420.353 187.788 420.483 187.929C420.613 188.069 420.712 188.235 420.774 188.416C420.836 188.597 420.859 188.789 420.842 188.98C420.809 189.384 420.627 189.762 420.331 190.039C420.035 190.317 419.647 190.474 419.241 190.48Z" fill="white"/>
<path id="Vector_123" opacity="0.8" fill-rule="evenodd" clip-rule="evenodd" d="M394.059 196.773H267.657C267.465 196.775 267.276 196.737 267.1 196.661C266.924 196.586 266.766 196.474 266.636 196.334C266.506 196.193 266.407 196.027 266.346 195.846C266.284 195.665 266.26 195.473 266.277 195.283C266.31 194.878 266.492 194.501 266.788 194.223C267.084 193.946 267.473 193.789 267.878 193.782H394.271C394.471 193.774 394.672 193.809 394.857 193.885C395.043 193.962 395.21 194.078 395.346 194.225C395.482 194.373 395.585 194.549 395.646 194.74C395.707 194.931 395.726 195.134 395.701 195.333C395.651 195.733 395.457 196.1 395.154 196.365C394.852 196.631 394.462 196.776 394.059 196.773Z" fill="white"/>
</g>
</g>
</g>
<defs>
<clipPath id="clip0_0_1">
<rect width="1440" height="7700" fill="white" transform="translate(-720 -4419)"/>
</clipPath>
</defs>
</svg>
