<svg width="340" height="252" viewBox="0 0 340 252" fill="none" xmlns="http://www.w3.org/2000/svg">
<path d="M0.946899 221.391H339.052V221.56H0.946899V221.391Z" fill="#EBEBEB"/>
<path d="M178.79 191.232H309.353C310.377 191.232 311.359 190.825 312.083 190.101C312.807 189.377 313.214 188.395 313.214 187.371V3.82735C313.205 2.80918 312.794 1.83574 312.071 1.11893C311.348 0.402117 310.371 -3.90349e-05 309.353 2.84181e-09H178.79C177.766 2.84182e-09 176.784 0.4068 176.06 1.13091C175.336 1.85502 174.929 2.83712 174.929 3.86116V187.371C174.929 188.395 175.336 189.377 176.06 190.101C176.784 190.825 177.766 191.232 178.79 191.232ZM309.353 0.135243C310.331 0.13703 311.269 0.526592 311.961 1.21861C312.653 1.91063 313.043 2.84869 313.045 3.82735V187.371C313.043 188.35 312.653 189.288 311.961 189.98C311.269 190.672 310.331 191.061 309.353 191.063H178.79C177.811 191.061 176.873 190.672 176.181 189.98C175.489 189.288 175.1 188.35 175.098 187.371V3.82735C175.1 2.84869 175.489 1.91063 176.181 1.21861C176.873 0.526592 177.811 0.13703 178.79 0.135243H309.353Z" fill="#EBEBEB"/>
<path d="M32.5189 191.232H163.095C164.119 191.23 165.1 190.823 165.823 190.099C166.547 189.376 166.954 188.395 166.956 187.371V3.82735C166.946 2.80973 166.534 1.83732 165.811 1.12088C165.089 0.404447 164.113 0.00172318 163.095 0H32.5189C31.503 0.00351933 30.5294 0.407247 29.8092 1.12368C29.089 1.84011 28.6801 2.81151 28.6712 3.82735V187.371C28.6712 188.393 29.0762 189.373 29.7973 190.097C30.5185 190.82 31.4972 191.229 32.5189 191.232ZM163.095 0.135243C164.074 0.13703 165.012 0.526592 165.704 1.21861C166.396 1.91063 166.785 2.84869 166.787 3.82735V187.371C166.785 188.35 166.396 189.288 165.704 189.98C165.012 190.672 164.074 191.061 163.095 191.063H32.5189C31.5402 191.061 30.6021 190.672 29.9101 189.98C29.2181 189.288 28.8286 188.35 28.8268 187.371V3.82735C28.8286 2.84869 29.2181 1.91063 29.9101 1.21861C30.6021 0.526592 31.5402 0.13703 32.5189 0.135243H163.095Z" fill="#EBEBEB"/>
<path d="M286.795 227.829H304.377V227.998H286.795V227.829Z" fill="#EBEBEB"/>
<path d="M210.45 225.996H240.9V226.165H210.45V225.996Z" fill="#EBEBEB"/>
<path d="M245.012 234.111H286.119V234.28H245.012V234.111Z" fill="#EBEBEB"/>
<path d="M35.622 232.975H48.6255V233.144H35.622V232.975Z" fill="#EBEBEB"/>
<path d="M54.6514 232.975H92.0391V233.144H54.6514V232.975Z" fill="#EBEBEB"/>
<path d="M114.876 230.121H165.234V230.29H114.876V230.121Z" fill="#EBEBEB"/>
<path d="M224.34 162.744H261.248L263.486 136.892H226.578L224.34 162.744Z" fill="#E6E6E6"/>
<path d="M222.426 162.744H259.334L261.579 136.892H224.671L222.426 162.744Z" fill="#F0F0F0"/>
<path d="M254.29 157.192L255.52 142.444H229.716L228.486 157.192H254.29Z" fill="white"/>
<path d="M200.693 162.744H205.961V221.391H200.693V162.744Z" fill="#E6E6E6"/>
<path d="M199.035 162.744H202.694V221.391H199.035V162.744Z" fill="#F0F0F0"/>
<path d="M250.029 169.215H199.036V162.744H250.029V169.215Z" fill="#F0F0F0"/>
<path d="M248.223 169.215H253.491V221.391H248.223V169.215Z" fill="#E6E6E6"/>
<path d="M246.56 169.215H250.218V221.391H246.56V169.215Z" fill="#F0F0F0"/>
<path d="M285.727 169.215H290.994V221.391H285.727V169.215Z" fill="#E6E6E6"/>
<path d="M284.063 169.215H287.721V221.391H284.063V169.215Z" fill="#F0F0F0"/>
<path d="M234.037 169.215H239.305V221.391H234.037V169.215Z" fill="#E6E6E6"/>
<path d="M232.373 169.215H236.032V221.391H232.373V169.215Z" fill="#F0F0F0"/>
<path d="M250.03 162.744H290.994V169.215H250.03V162.744Z" fill="#E6E6E6"/>
<path d="M139.408 18.5415H292.387V106.3H139.408V18.5415Z" fill="#E6E6E6"/>
<path d="M135.324 18.5415H290.481V106.3H135.324V18.5415Z" fill="#F0F0F0"/>
<path d="M139.408 106.3H292.387V113.901H139.408V106.3Z" fill="#E6E6E6"/>
<path d="M128.514 106.3H283.671V113.901H128.514V106.3Z" fill="#F0F0F0"/>
<path d="M141.052 100.573V24.2622L284.761 24.2622V100.573L141.052 100.573Z" fill="#FAFAFA"/>
<path d="M274.197 100.573L240.603 24.2622H224.739L258.34 100.573H274.197Z" fill="white"/>
<path d="M282.102 94.8789C282.156 94.8789 282.21 94.8682 282.26 94.8475C282.31 94.8268 282.355 94.7964 282.393 94.7581C282.432 94.7198 282.462 94.6743 282.483 94.6243C282.504 94.5742 282.514 94.5206 282.514 94.4664V27.9882C282.501 27.8888 282.453 27.7974 282.378 27.7312C282.302 27.6649 282.205 27.6284 282.105 27.6284C282.005 27.6284 281.908 27.6649 281.833 27.7312C281.757 27.7974 281.709 27.8888 281.696 27.9882V94.4664C281.696 94.5747 281.739 94.6786 281.814 94.7557C281.89 94.8329 281.994 94.8771 282.102 94.8789Z" fill="#F0F0F0"/>
<path d="M254.932 100.573L221.331 24.2622H215.15L248.745 100.573H254.932Z" fill="white"/>
<path d="M141.052 100.573V24.2622H141.783V100.573H141.052Z" fill="#E6E6E6"/>
<path opacity="0.6" d="M133.971 32.8978H286.95L287.471 26.4873H134.499L133.971 32.8978Z" fill="#EBEBEB"/>
<path opacity="0.6" d="M133.971 43.3988H286.95L287.471 36.9951H134.499L133.971 43.3988Z" fill="#EBEBEB"/>
<path opacity="0.6" d="M133.971 53.9076H286.95L287.471 47.5039H134.499L133.971 53.9076Z" fill="#EBEBEB"/>
<path opacity="0.6" d="M133.971 64.4158H286.95L287.471 58.0054H134.499L133.971 64.4158Z" fill="#EBEBEB"/>
<path opacity="0.6" d="M133.971 74.9241H286.95L287.471 68.5137H134.499L133.971 74.9241Z" fill="#EBEBEB"/>
<path opacity="0.6" d="M133.971 85.4257H286.95L287.471 79.022H134.499L133.971 85.4257Z" fill="#EBEBEB"/>
<path d="M91.952 59.7295L50.7573 59.7295L50.7573 18.5348L91.952 18.5348V59.7295Z" fill="#EBEBEB"/>
<path d="M91.9524 18.5415H93.7782V59.7362H91.9524V18.5415Z" fill="#E0E0E0"/>
<path d="M86.366 54.1509L56.3355 54.1509L56.3355 24.1204L86.366 24.1204V54.1509Z" fill="white"/>
<path d="M71.3534 49.1841L61.3026 39.1333L71.3534 29.0825L81.4041 39.1333L71.3534 49.1841Z" fill="#F5F5F5"/>
<path d="M106.146 113.894H64.951V72.6993H106.146V113.894Z" fill="#EBEBEB"/>
<path d="M106.144 72.7061H107.97V113.901H106.144V72.7061Z" fill="#E0E0E0"/>
<path d="M100.56 108.315H70.5292V78.2849H100.56V108.315Z" fill="white"/>
<path d="M87.6851 99.7002H83.4115C81.055 99.7002 79.1446 97.7898 79.1446 95.4333V91.1597C79.1446 88.8031 81.055 86.8928 83.4115 86.8928H87.6851C90.0417 86.8928 91.952 88.8031 91.952 91.1597V95.4333C91.952 97.7898 90.0417 99.7002 87.6851 99.7002Z" fill="#F5F5F5"/>
<path d="M130.969 133.91H141.241V218.625H130.969V133.91Z" fill="#F0F0F0"/>
<path d="M41.1817 218.625H139.814V221.391H41.1817V218.625Z" fill="#F0F0F0"/>
<path d="M130.969 218.625H39.7619L39.7619 133.91H130.969V218.625Z" fill="#FAFAFA"/>
<path d="M57.6139 183.415H113.11C115.731 183.415 118.244 182.374 120.096 180.521C121.949 178.669 122.99 176.156 122.99 173.536C122.99 170.916 121.949 168.403 120.096 166.55C118.244 164.697 115.731 163.656 113.11 163.656H57.6139C54.9937 163.656 52.4809 164.697 50.6281 166.55C48.7754 168.403 47.7345 170.916 47.7345 173.536C47.7345 176.156 48.7754 178.669 50.6281 180.521C52.4809 182.374 54.9937 183.415 57.6139 183.415ZM113.11 164.319C115.555 164.319 117.899 165.29 119.628 167.018C121.356 168.747 122.327 171.091 122.327 173.536C122.327 175.98 121.356 178.324 119.628 180.053C117.899 181.781 115.555 182.752 113.11 182.752H57.6139C55.1695 182.752 52.8252 181.781 51.0967 180.053C49.3682 178.324 48.3972 175.98 48.3972 173.536C48.3972 171.091 49.3682 168.747 51.0967 167.018C52.8252 165.29 55.1695 164.319 57.6139 164.319H113.11Z" fill="#F0F0F0"/>
<path d="M57.6139 207.995H113.11C115.731 207.995 118.244 206.954 120.096 205.102C121.949 203.249 122.99 200.736 122.99 198.116C122.99 195.496 121.949 192.983 120.096 191.13C118.244 189.277 115.731 188.236 113.11 188.236H57.6139C54.9937 188.236 52.4809 189.277 50.6281 191.13C48.7754 192.983 47.7345 195.496 47.7345 198.116C47.7345 200.736 48.7754 203.249 50.6281 205.102C52.4809 206.954 54.9937 207.995 57.6139 207.995ZM113.11 188.899C114.341 188.866 115.567 189.079 116.714 189.527C117.86 189.975 118.906 190.649 119.788 191.507C120.671 192.366 121.372 193.393 121.851 194.528C122.33 195.662 122.577 196.881 122.577 198.112C122.577 199.344 122.33 200.563 121.851 201.697C121.372 202.831 120.671 203.858 119.788 204.717C118.906 205.576 117.86 206.249 116.714 206.697C115.567 207.145 114.341 207.359 113.11 207.326H57.6139C56.383 207.359 55.1579 207.145 54.0109 206.697C52.8639 206.249 51.8184 205.576 50.9359 204.717C50.0535 203.858 49.3521 202.831 48.8732 201.697C48.3943 200.563 48.1476 199.344 48.1476 198.112C48.1476 196.881 48.3943 195.662 48.8732 194.528C49.3521 193.393 50.0535 192.366 50.9359 191.507C51.8184 190.649 52.8639 189.975 54.0109 189.527C55.1579 189.079 56.383 188.866 57.6139 188.899H113.11Z" fill="#F0F0F0"/>
<path d="M76.9871 171.406H93.7368C94.2773 171.395 94.7923 171.173 95.1714 170.788C95.5505 170.402 95.7637 169.884 95.7654 169.343C95.7637 168.803 95.5505 168.284 95.1714 167.899C94.7923 167.513 94.2773 167.291 93.7368 167.281H76.9871C76.4406 167.283 75.9171 167.5 75.5307 167.887C75.1443 168.273 74.9264 168.797 74.9246 169.343C74.9264 169.89 75.1443 170.413 75.5307 170.8C75.9171 171.186 76.4406 171.404 76.9871 171.406Z" fill="#EBEBEB"/>
<path d="M57.6139 158.835H113.11C115.731 158.835 118.244 157.794 120.096 155.941C121.949 154.089 122.99 151.576 122.99 148.956C122.99 146.335 121.949 143.823 120.096 141.97C118.244 140.117 115.731 139.076 113.11 139.076H57.6139C54.9937 139.076 52.4809 140.117 50.6281 141.97C48.7754 143.823 47.7345 146.335 47.7345 148.956C47.7345 151.576 48.7754 154.089 50.6281 155.941C52.4809 157.794 54.9937 158.835 57.6139 158.835ZM113.11 139.739C115.555 139.739 117.899 140.71 119.628 142.438C121.356 144.167 122.327 146.511 122.327 148.956C122.327 151.4 121.356 153.744 119.628 155.473C117.899 157.201 115.555 158.172 113.11 158.172H57.6139C55.1695 158.172 52.8252 157.201 51.0967 155.473C49.3682 153.744 48.3972 151.4 48.3972 148.956C48.3972 146.511 49.3682 144.167 51.0967 142.438C52.8252 140.71 55.1695 139.739 57.6139 139.739H113.11Z" fill="#F0F0F0"/>
<path d="M76.9871 146.825H93.7368C94.2773 146.815 94.7923 146.593 95.1714 146.208C95.5505 145.822 95.7637 145.304 95.7654 144.763C95.7567 144.228 95.5402 143.717 95.1616 143.338C94.783 142.96 94.2721 142.743 93.7368 142.734H76.9871C76.4464 142.736 75.9279 142.949 75.5424 143.328C75.157 143.708 74.9352 144.222 74.9246 144.763C74.9264 145.309 75.1443 145.833 75.5307 146.219C75.9171 146.606 76.4406 146.824 76.9871 146.825Z" fill="#EBEBEB"/>
<path d="M76.9871 195.979H93.7368C94.2721 195.97 94.783 195.754 95.1616 195.375C95.5402 194.997 95.7567 194.486 95.7654 193.951C95.755 193.416 95.5379 192.906 95.1597 192.528C94.7815 192.149 94.2716 191.932 93.7368 191.922H76.9871C76.4464 191.924 75.9279 192.137 75.5424 192.516C75.157 192.895 74.9352 193.41 74.9246 193.951C74.9352 194.491 75.157 195.006 75.5424 195.385C75.9279 195.764 76.4464 195.977 76.9871 195.979Z" fill="#EBEBEB"/>
<path d="M37.8821 129.609H130.962V133.917H37.8821V129.609Z" fill="#F0F0F0"/>
<path d="M143.255 133.91H130.969V129.602H143.255V133.91Z" fill="#E6E6E6"/>
<path d="M170 251.929C97.5896 251.929 38.8895 248.502 38.8895 244.274C38.8895 240.047 97.5896 236.62 170 236.62C242.41 236.62 301.11 240.047 301.11 244.274C301.11 248.502 242.41 251.929 170 251.929Z" fill="#F5F5F5"/>
<path d="M59.3431 63.043H161.261C161.261 63.043 179.621 79.9482 179.621 121.048C179.621 156.394 165.697 204.317 170.925 223.934C174.867 238.736 193.983 241.278 203.146 241.63H106.137C106.137 241.63 74.2332 243.557 69.0061 223.934C63.779 204.31 77.7022 156.394 77.7022 121.042C77.7022 79.9212 59.3431 63.043 59.3431 63.043Z" fill="#407BFF"/>
<path opacity="0.7" d="M59.3431 63.043H161.261C161.261 63.043 179.621 79.9482 179.621 121.048C179.621 156.394 165.697 204.317 170.925 223.934C174.867 238.736 193.983 241.278 203.146 241.63H106.137C106.137 241.63 74.2332 243.557 69.0061 223.934C63.779 204.31 77.7022 156.394 77.7022 121.042C77.7022 79.9212 59.3431 63.043 59.3431 63.043Z" fill="white"/>
<g opacity="0.8">
<path opacity="0.8" d="M87.0676 106.388H168.578C166.272 88.3061 160.058 77.7843 156.629 73.186H78.0334C81.8878 81.2329 85.5258 92.1943 87.0676 106.388Z" fill="#407BFF"/>
<path opacity="0.3" d="M87.7514 115.977H169.377C169.309 114.333 169.214 112.738 169.079 111.196H87.5012C87.6139 112.751 87.6973 114.345 87.7514 115.977Z" fill="#407BFF"/>
<path opacity="0.3" d="M143.781 125.559H169.403C169.448 124.03 169.473 122.527 169.477 121.048V120.785H143.849V121.042C143.849 122.536 143.829 124.044 143.781 125.559Z" fill="#407BFF"/>
<path opacity="0.3" d="M87.2644 135.14H168.829C168.971 133.531 169.086 131.935 169.174 130.366H87.5754C87.4943 131.949 87.3906 133.54 87.2644 135.14Z" fill="#407BFF"/>
<path opacity="0.3" d="M86.365 144.709H167.862C168.051 143.109 168.227 141.515 168.389 139.928H86.8248C86.7099 141.538 86.5408 143.133 86.365 144.709Z" fill="#407BFF"/>
<path opacity="0.3" d="M85.1872 154.311H166.616C166.84 152.715 167.049 151.119 167.252 149.537H85.7958C85.6065 151.128 85.4036 152.72 85.1872 154.311Z" fill="#407BFF"/>
<path opacity="0.3" d="M83.843 163.893H165.265C165.5 162.297 165.725 160.705 165.942 159.119H84.5259C84.3028 160.708 84.0729 162.29 83.843 163.893Z" fill="#407BFF"/>
<path opacity="0.3" d="M82.4015 173.481H163.797C163.925 172.609 164.061 171.723 164.196 170.838L164.52 168.701H83.125C82.8816 170.297 82.6449 171.892 82.4015 173.481Z" fill="#407BFF"/>
<path opacity="0.3" d="M162.377 183.064C162.602 181.486 162.828 179.894 163.053 178.29H81.6712C81.4345 179.885 81.1911 181.474 80.9611 183.064H162.377Z" fill="#407BFF"/>
<path opacity="0.3" d="M161.085 192.645C161.275 191.083 161.484 189.487 161.701 187.871H93.809C93.5791 189.48 93.3627 191.076 93.1328 192.645H161.085Z" fill="#407BFF"/>
<path opacity="0.3" d="M160.085 202.234C160.216 200.674 160.365 199.081 160.532 197.453H79.0347C78.8522 199.09 78.6831 200.685 78.5411 202.234H160.085Z" fill="#407BFF"/>
<path opacity="0.3" d="M159.618 211.816C159.618 210.274 159.679 208.678 159.767 207.042H116.766C116.658 208.712 116.597 210.308 116.577 211.816H159.618Z" fill="#407BFF"/>
</g>
<path d="M98.3195 236.457C103.492 237.397 108.733 236.68 113.933 236.457C116.427 236.296 118.93 236.362 121.412 236.653C123.846 236.978 126.267 237.614 128.722 237.397C127.911 236.961 127.147 236.442 126.443 235.849C126.412 235.818 126.389 235.779 126.377 235.737C126.366 235.695 126.365 235.65 126.376 235.608C126.387 235.565 126.409 235.527 126.44 235.495C126.471 235.464 126.509 235.441 126.551 235.429C134.186 232.725 141.137 240.041 148.744 238.337C146.587 236.741 143.551 236.707 141.712 234.611C141.678 234.575 141.655 234.53 141.646 234.481C141.638 234.432 141.643 234.381 141.662 234.335C141.682 234.29 141.714 234.25 141.755 234.222C141.796 234.195 141.845 234.179 141.894 234.178C148.697 234.043 155.121 236.674 161.883 237.275C162.208 237.275 162.208 237.81 161.883 237.783C155.358 237.215 149.103 234.719 142.523 234.665C144.491 236.423 147.493 236.484 149.495 238.256C149.526 238.287 149.548 238.326 149.56 238.369C149.571 238.412 149.572 238.457 149.561 238.499C149.55 238.542 149.528 238.582 149.498 238.614C149.467 238.645 149.429 238.669 149.387 238.682C141.719 240.798 134.74 233.482 127.167 235.74C127.956 236.36 128.817 236.885 129.729 237.302C129.772 237.328 129.806 237.366 129.828 237.411C129.85 237.456 129.858 237.506 129.851 237.556C129.845 237.605 129.824 237.652 129.792 237.69C129.759 237.727 129.716 237.755 129.669 237.769C127.173 238.188 124.732 237.654 122.271 237.262C119.515 236.866 116.725 236.758 113.947 236.937C108.693 237.188 103.418 237.898 98.1977 236.937C97.8529 236.89 97.9881 236.396 98.3195 236.457Z" fill="#407BFF"/>
<path d="M236.35 87.9951C235.924 88.5428 235.376 89.1852 234.876 89.7803C234.375 90.3754 233.827 90.9772 233.287 91.5587C232.198 92.7218 231.096 93.8646 229.905 94.9398C227.698 97.0353 225.191 98.7901 222.467 100.147C222.136 100.295 221.791 100.431 221.487 100.552C221.336 100.612 221.183 100.664 221.027 100.708C220.883 100.765 220.733 100.808 220.581 100.836C219.932 101.003 219.268 101.107 218.599 101.147C217.102 101.22 215.602 101.134 214.123 100.89C212.552 100.651 210.996 100.321 209.464 99.9032C207.908 99.4975 206.319 98.9971 204.838 98.4764L203.486 101.181C206.492 103.06 209.747 104.508 213.156 105.482C214.953 105.996 216.806 106.294 218.674 106.368C219.685 106.408 220.698 106.343 221.696 106.172C221.953 106.131 222.217 106.07 222.474 106.009C222.731 105.948 223.001 105.881 223.225 105.806C223.698 105.664 224.158 105.509 224.577 105.333C228.019 103.918 231.186 101.911 233.936 99.4028C235.277 98.24 236.557 97.0076 237.77 95.7107C238.372 95.0345 238.96 94.4056 239.528 93.7294C240.096 93.0532 240.637 92.377 241.225 91.5993L236.35 87.9951Z" fill="#FFB573"/>
<path d="M243.227 86.0815C243.375 89.8683 241.874 96.698 241.874 96.698L232.502 95.562C232.502 95.562 232.157 85.5676 233.976 83.1535C237.053 79.1166 243.085 82.4976 243.227 86.0815Z" fill="#407BFF"/>
<path d="M206.096 99.4366L201.707 95.4199L201.146 99.7477C201.146 99.7477 202.965 102.189 205.027 101.161L206.096 99.4366Z" fill="#FFB573"/>
<path d="M199.503 95.6566L197.643 98.091L201.146 99.7477L201.707 95.4199L199.503 95.6566Z" fill="#FFB573"/>
<path d="M200.611 84.7085C200.144 84.7085 199.887 84.7085 199.556 84.7085C199.414 84.6987 199.272 84.6987 199.13 84.7085L198.778 84.7558C198.475 84.7915 198.186 84.9057 197.94 85.0872C197.82 85.2281 197.741 85.3986 197.71 85.5808L197.554 86.0947L196.926 88.1234L195.668 92.228L193.159 100.444C191.502 105.921 189.778 111.385 188.182 116.876C184.903 127.844 181.799 138.853 178.749 149.882C175.699 160.911 172.832 171.987 169.884 183.016C166.936 194.045 164.298 205.202 163.358 216.779C163.325 217.553 163.557 218.315 164.018 218.938C164.479 219.561 165.139 220.007 165.889 220.201C166.639 220.395 167.433 220.325 168.138 220.004C168.843 219.683 169.417 219.129 169.762 218.436C174.563 207.86 177.701 196.858 180.446 185.755C183.192 174.651 186.106 163.643 188.798 152.546C191.489 141.449 194.119 130.292 196.581 119.114C197.845 113.535 198.995 107.923 200.205 102.331L201.997 93.932L202.896 89.7327L203.343 87.6297L203.458 87.1091C203.519 86.9332 203.533 86.7443 203.498 86.5613C203.367 86.2931 203.172 86.061 202.93 85.8851L202.64 85.6687C202.528 85.5837 202.411 85.5069 202.288 85.4388C201.997 85.2698 201.788 85.1278 201.368 84.9249C201.132 84.804 200.875 84.7305 200.611 84.7085Z" fill="#263238"/>
<path d="M164.008 218.524C164.059 218.341 164.179 218.185 164.344 218.09C164.508 217.996 164.703 217.969 164.887 218.017L166.375 218.402L167.863 218.788C168.047 218.836 168.204 218.954 168.302 219.117C168.399 219.28 168.428 219.475 168.383 219.66C167.457 223.92 168.383 226.97 167.396 230.716C166.375 234.658 161.932 236.68 161.932 236.68L162.074 234.996L161.398 236.538C161.398 236.538 158.497 232.616 159.518 228.674C160.478 224.928 162.75 222.696 164.008 218.524Z" fill="#407BFF"/>
<path opacity="0.3" d="M164.008 218.524C164.059 218.341 164.179 218.185 164.344 218.09C164.508 217.996 164.703 217.969 164.887 218.017L166.375 218.402L167.863 218.788C168.047 218.836 168.204 218.954 168.302 219.117C168.399 219.28 168.428 219.475 168.383 219.66C167.457 223.92 168.383 226.97 167.396 230.716C166.375 234.658 161.932 236.68 161.932 236.68L162.074 234.996L161.398 236.538C161.398 236.538 158.497 232.616 159.518 228.674C160.478 224.928 162.75 222.696 164.008 218.524Z" fill="white"/>
<path d="M162.852 228.302C162.808 228.479 162.818 228.666 162.88 228.838C162.942 229.01 163.054 229.16 163.201 229.268C163.348 229.377 163.524 229.44 163.707 229.448C163.889 229.457 164.07 229.412 164.227 229.318C164.384 229.224 164.51 229.086 164.588 228.921C164.667 228.755 164.694 228.571 164.668 228.39C164.642 228.209 164.562 228.04 164.44 227.904C164.318 227.768 164.158 227.671 163.981 227.626C163.742 227.566 163.488 227.604 163.277 227.731C163.065 227.857 162.912 228.063 162.852 228.302Z" fill="#263238"/>
<path d="M162.021 235.199C162.047 235.207 162.076 235.21 162.103 235.207C162.131 235.203 162.158 235.195 162.182 235.181C162.206 235.167 162.227 235.148 162.243 235.125C162.26 235.103 162.272 235.077 162.278 235.05L163.955 228.592C163.962 228.566 163.964 228.538 163.96 228.511C163.957 228.483 163.948 228.457 163.934 228.433C163.92 228.409 163.902 228.388 163.88 228.372C163.858 228.355 163.833 228.343 163.806 228.335C163.779 228.327 163.751 228.325 163.724 228.328C163.696 228.331 163.669 228.34 163.645 228.354C163.621 228.368 163.6 228.387 163.584 228.409C163.567 228.432 163.555 228.457 163.549 228.484L161.872 234.942C161.865 234.969 161.863 234.996 161.867 235.024C161.87 235.051 161.879 235.078 161.893 235.101C161.907 235.125 161.925 235.146 161.947 235.163C161.969 235.18 161.994 235.192 162.021 235.199Z" fill="#263238"/>
<path d="M167.496 195.303L176.612 197.663C176.865 197.726 177.132 197.688 177.357 197.555C177.581 197.422 177.743 197.205 177.809 196.953C177.874 196.705 177.839 196.441 177.713 196.217C177.587 195.994 177.379 195.828 177.132 195.756L167.97 193.396C167.722 193.331 167.458 193.365 167.234 193.491C167.011 193.618 166.845 193.826 166.773 194.072C166.737 194.2 166.728 194.335 166.746 194.467C166.763 194.599 166.807 194.726 166.874 194.841C166.942 194.955 167.032 195.056 167.138 195.135C167.245 195.214 167.367 195.271 167.496 195.303Z" fill="#407BFF"/>
<path d="M213.771 71.5428C213.934 71.9485 213.846 72.3745 213.582 72.4895C213.318 72.6045 212.967 72.3678 212.804 71.9621C212.642 71.5563 212.723 71.1303 212.994 71.0154C213.264 70.9004 213.602 71.1371 213.771 71.5428Z" fill="#263238"/>
<path d="M213.116 71.002L212.027 71.144C212.027 71.144 212.839 71.6782 213.116 71.002Z" fill="#263238"/>
<path d="M213.582 72.0835C213.593 73.172 213.456 74.257 213.177 75.309C213.446 75.3666 213.725 75.3643 213.994 75.3024C214.263 75.2405 214.515 75.1204 214.732 74.9506L213.582 72.0835Z" fill="#ED893E"/>
<path d="M212.135 69.0677C212.177 69.0596 212.217 69.041 212.25 69.0136C212.493 68.7913 212.785 68.628 213.101 68.5365C213.418 68.445 213.751 68.4278 214.076 68.4862C214.142 68.5029 214.212 68.4932 214.272 68.4591C214.331 68.4251 214.375 68.3693 214.394 68.3036C214.41 68.2373 214.401 68.1671 214.367 68.1078C214.333 68.0485 214.277 68.0047 214.211 67.9858C213.805 67.9052 213.385 67.9208 212.986 68.0312C212.587 68.1415 212.219 68.3436 211.912 68.6214C211.888 68.6453 211.869 68.6737 211.856 68.7051C211.843 68.7364 211.836 68.77 211.836 68.804C211.836 68.8379 211.843 68.8716 211.856 68.9029C211.869 68.9342 211.888 68.9627 211.912 68.9866C211.94 69.0175 211.974 69.0411 212.013 69.0553C212.052 69.0695 212.094 69.0737 212.135 69.0677Z" fill="#263238"/>
<path d="M228.107 71.333C227.816 74.6262 228.911 80.0155 231.4 81.8481C231.4 81.8481 229.527 85.3103 223.529 86.115C216.936 87.0008 220.033 83.2884 220.033 83.2884C223.542 81.936 223.164 79.319 222.278 76.9117L228.107 71.333Z" fill="#FFB573"/>
<path d="M210.14 88.9077C209.62 91.9777 208.977 95.1627 208.308 98.2665C207.949 99.815 207.591 101.37 207.172 102.892C206.753 104.413 206.333 105.935 205.867 107.429C205.61 108.166 205.38 108.917 205.109 109.634L204.704 110.715L204.609 110.979V111.06C204.595 111.102 204.58 111.142 204.562 111.182C204.422 111.423 204.194 111.6 203.926 111.676C203.391 111.866 202.83 111.973 202.262 111.994C200.811 112.034 199.36 111.916 197.935 111.642C196.44 111.371 194.865 111.006 193.397 110.601L192.16 113.339C192.905 113.783 193.673 114.189 194.459 114.556C195.236 114.937 196.033 115.276 196.846 115.571C198.549 116.236 200.335 116.663 202.154 116.842C203.223 116.939 204.3 116.866 205.346 116.626C206.686 116.32 207.893 115.592 208.788 114.55C209.019 114.27 209.228 113.971 209.41 113.657C209.505 113.501 209.579 113.339 209.66 113.184L209.789 112.879L210.316 111.696C210.661 110.905 210.992 110.114 211.283 109.316C211.865 107.72 212.419 106.117 212.899 104.508C213.379 102.899 213.812 101.276 214.252 99.6527C215.056 96.3934 215.712 93.1678 216.199 89.7935L210.14 88.9077Z" fill="#FFB573"/>
<path d="M194.045 110.79L191.435 108.721L190.259 112.737C190.259 112.737 193.829 115.321 194.783 112.284L194.045 110.79Z" fill="#FFB573"/>
<path d="M189.075 109.431L188.142 112.365L190.259 112.737L191.428 108.721L189.075 109.431Z" fill="#FFB573"/>
<path d="M237.844 238.303L232.387 238.709L230.771 226.179L236.228 225.773L237.844 238.303Z" fill="#FFB573"/>
<path d="M272.79 222.385L268.064 225.259L260.199 215.44L264.926 212.566L272.79 222.385Z" fill="#FFB573"/>
<path d="M264.764 226.706C264.832 226.716 264.9 226.716 264.967 226.706C265.643 226.706 266.448 225.651 266.854 225.029C266.869 225.008 266.877 224.983 266.877 224.958C266.877 224.932 266.869 224.908 266.854 224.887C266.841 224.865 266.822 224.848 266.799 224.837C266.776 224.826 266.75 224.822 266.725 224.826C266.502 224.873 264.548 225.286 264.291 225.935C264.263 226.007 264.255 226.084 264.267 226.16C264.279 226.236 264.311 226.308 264.359 226.368C264.449 226.525 264.593 226.645 264.764 226.706ZM266.455 225.171C265.88 225.982 265.332 226.462 264.96 226.469C264.88 226.47 264.8 226.449 264.73 226.409C264.659 226.368 264.601 226.31 264.562 226.239C264.543 226.211 264.534 226.178 264.534 226.145C264.534 226.111 264.543 226.078 264.562 226.05C264.67 225.705 265.677 225.36 266.455 225.178V225.171Z" fill="#407BFF"/>
<path d="M265.054 225.015C265.616 225.168 266.204 225.198 266.779 225.103C266.8 225.096 266.819 225.084 266.835 225.067C266.85 225.051 266.861 225.031 266.867 225.009C266.877 224.99 266.883 224.969 266.883 224.948C266.883 224.927 266.877 224.906 266.867 224.887C266.826 224.84 265.751 223.737 264.96 223.771C264.858 223.773 264.757 223.797 264.666 223.843C264.574 223.888 264.495 223.954 264.432 224.035C264.359 224.107 264.312 224.202 264.3 224.304C264.288 224.406 264.311 224.509 264.365 224.596C264.544 224.806 264.785 224.953 265.054 225.015ZM266.474 224.894C265.798 224.968 264.757 224.772 264.547 224.461C264.547 224.407 264.493 224.333 264.601 224.197C264.641 224.145 264.692 224.103 264.751 224.074C264.809 224.045 264.874 224.029 264.939 224.028C265.528 224.151 266.065 224.453 266.474 224.894Z" fill="#407BFF"/>
<path d="M266.644 224.204L271.127 219.89C271.201 219.814 271.3 219.767 271.406 219.76C271.512 219.752 271.618 219.784 271.702 219.849L275.529 222.797C275.621 222.879 275.695 222.98 275.746 223.092C275.796 223.205 275.822 223.327 275.822 223.45C275.822 223.573 275.796 223.695 275.746 223.808C275.695 223.92 275.621 224.021 275.529 224.103C273.94 225.583 273.101 226.219 271.134 228.119C269.916 229.289 268.266 231.115 266.589 232.731C264.912 234.347 263.276 232.819 263.831 232.001C266.333 228.336 265.961 226.963 266.184 225.09C266.231 224.751 266.394 224.438 266.644 224.204Z" fill="#263238"/>
<path d="M230.021 238.885C230.598 238.874 231.173 238.808 231.738 238.688C231.764 238.683 231.788 238.67 231.806 238.651C231.824 238.631 231.836 238.607 231.84 238.58C231.843 238.554 231.838 238.526 231.826 238.502C231.814 238.478 231.795 238.458 231.772 238.445C231.522 238.317 229.304 237.201 228.655 237.579C228.592 237.611 228.54 237.66 228.503 237.719C228.466 237.779 228.446 237.848 228.445 237.918C228.431 238.035 228.447 238.154 228.49 238.264C228.534 238.374 228.604 238.471 228.695 238.546C229.086 238.806 229.553 238.925 230.021 238.885ZM231.305 238.506C230.102 238.702 229.202 238.655 228.864 238.357C228.805 238.306 228.758 238.241 228.73 238.168C228.702 238.095 228.692 238.016 228.702 237.938C228.7 237.911 228.706 237.883 228.719 237.859C228.732 237.835 228.752 237.816 228.776 237.803C229.141 237.6 230.392 238.073 231.305 238.506Z" fill="#407BFF"/>
<path d="M231.712 238.702C231.736 238.709 231.762 238.709 231.786 238.702C231.806 238.689 231.822 238.671 231.831 238.649C231.841 238.627 231.844 238.603 231.84 238.58C231.84 238.485 231.576 236.254 230.353 236.254H230.251C229.893 236.288 229.791 236.464 229.771 236.612C229.67 237.228 230.995 238.411 231.658 238.709L231.712 238.702ZM230.359 236.491C231.144 236.491 231.455 237.789 231.549 238.343C230.873 237.938 229.974 236.991 230.035 236.639C230.035 236.606 230.035 236.518 230.285 236.497L230.359 236.491Z" fill="#407BFF"/>
<path d="M232.048 237.931H238.182C238.288 237.931 238.391 237.968 238.472 238.036C238.554 238.104 238.609 238.199 238.628 238.303L239.453 243.151C239.469 243.273 239.459 243.397 239.424 243.514C239.389 243.631 239.329 243.74 239.248 243.832C239.167 243.924 239.068 243.998 238.956 244.049C238.845 244.099 238.723 244.125 238.601 244.125C236.464 244.125 235.429 243.963 232.731 243.963C231.075 243.963 227.646 244.132 225.354 244.132C223.061 244.132 222.879 241.867 223.832 241.664C228.086 240.744 229.736 239.473 231.142 238.283C231.393 238.062 231.714 237.938 232.048 237.931Z" fill="#263238"/>
<path opacity="0.2" d="M230.77 226.179L231.669 233.144L237.065 232.238L236.227 225.78L230.77 226.179Z" fill="black"/>
<path opacity="0.2" d="M264.933 212.566L260.199 215.447L263.459 219.504L268.287 216.752L264.933 212.566Z" fill="black"/>
<path d="M240.596 114.725L218.505 117.694C209.944 86.7101 212.466 85.8783 212.466 85.8783C213.44 85.4143 214.445 85.0211 215.475 84.7017C216.517 84.3231 217.569 83.9782 218.633 83.6671C220.758 83.0363 222.919 82.5328 225.104 82.1592C229.346 81.4299 233.656 81.1872 237.952 81.4356C238.383 81.4657 238.801 81.5926 239.176 81.8069C239.551 82.0212 239.872 82.3173 240.116 82.6731C240.208 82.8051 240.287 82.9455 240.353 83.0924C240.593 83.6069 240.687 84.1779 240.623 84.7423C238.757 101.025 239.359 106.381 240.596 114.725Z" fill="#407BFF"/>
<path opacity="0.2" d="M216.354 95.3456C216.789 98.5516 216.376 101.816 215.157 104.813C213.69 98.7672 212.892 94.6694 212.5 91.8293C214.183 91.7549 215.935 92.404 216.354 95.3456Z" fill="black"/>
<path d="M212.661 85.7703C208.874 87.9342 206.244 93.0936 205.452 96.0893L213.513 103.46C213.513 103.46 217.692 93.7428 217.354 90.7269C217.016 87.711 214.088 84.9521 212.661 85.7703Z" fill="#407BFF"/>
<path d="M226.91 64.5371C228.607 69.6628 229.432 71.7929 227.945 75.4444C225.7 80.942 219.052 82.1051 215.861 77.6353C212.987 73.6119 210.695 65.9031 214.786 61.8052C215.645 60.891 216.729 60.2168 217.929 59.8492C219.128 59.4816 220.404 59.4333 221.628 59.7092C222.852 59.985 223.983 60.5755 224.91 61.4221C225.836 62.2688 226.526 63.3425 226.91 64.5371Z" fill="#FFB573"/>
<path d="M218.505 69.0815C218.861 70.0217 218.918 71.0493 218.667 72.023C218.329 73.3754 217.315 73.4904 216.686 72.6181C216.057 71.7458 215.631 70.1702 216.307 69.0342C216.983 67.8981 218.065 68.0469 218.505 69.0815Z" fill="#FFB573"/>
<path d="M225.07 58.1538C228.721 56.1252 235.294 62.0623 236.944 71.7524C238.127 78.6903 223.312 82.0443 213.953 81.9361C214.575 80.2997 218.463 75.3769 215.982 70.6367C214.176 67.1948 212.12 67.9927 211.985 63.9895C211.816 58.945 218.497 55.564 225.07 58.1538Z" fill="#263238"/>
<path d="M216.759 60.331C212.513 59.9185 208.246 64.0907 211.41 68.2494C212.183 67.6295 213.083 67.1871 214.046 66.9534C215.009 66.7197 216.011 66.7004 216.982 66.897C218.923 67.3298 216.759 60.331 216.759 60.331Z" fill="#263238"/>
<path d="M224.332 116.91C224.332 116.91 232.886 153.168 236.944 174.002C241.177 195.979 261.47 218.876 261.47 218.876L268.34 215.035C268.34 215.035 255.573 194.14 251.435 173.617C243.023 131.962 248.73 123.577 240.615 114.732L224.332 116.91Z" fill="#263238"/>
<path d="M260.768 219.518L269.376 214.724L268.118 212.181L258.462 216.624L260.768 219.518Z" fill="#407BFF"/>
<path opacity="0.2" d="M228.898 124.788C235.565 130.583 234.842 151.16 234.145 160.397C231.345 147.224 227.985 132.564 226.03 124.078C226.713 123.55 227.667 123.746 228.898 124.788Z" fill="black"/>
<path d="M218.828 117.708C218.828 117.708 214.966 160.762 217.076 177.18C219.267 194.261 230.411 231.419 230.411 231.419L238.296 230.405C238.296 230.405 231.899 193.579 230.763 176.673C229.525 158.233 235.023 115.537 235.023 115.537L218.828 117.708Z" fill="#263238"/>
<path d="M228.742 231.872L239.954 230.425L239.785 227.112L227.613 228.288L228.742 231.872Z" fill="#407BFF"/>
<path d="M240.793 113.393L241.996 115.226C242.091 115.368 241.922 115.544 241.672 115.577L218.498 118.688C218.295 118.688 218.119 118.641 218.099 118.519L217.687 116.585C217.687 116.45 217.822 116.308 218.038 116.281L240.414 113.278C240.482 113.264 240.552 113.267 240.618 113.287C240.684 113.307 240.744 113.344 240.793 113.393Z" fill="#407BFF"/>
<path opacity="0.5" d="M240.793 113.393L241.996 115.226C242.091 115.368 241.922 115.544 241.672 115.577L218.498 118.688C218.295 118.688 218.119 118.641 218.099 118.519L217.687 116.585C217.687 116.45 217.822 116.308 218.038 116.281L240.414 113.278C240.482 113.264 240.552 113.267 240.618 113.287C240.684 113.307 240.744 113.344 240.793 113.393Z" fill="black"/>
<path d="M238.046 116.308L238.648 116.227C238.77 116.227 238.851 116.139 238.838 116.065L238.283 113.549C238.283 113.481 238.155 113.434 238.04 113.448L237.438 113.529C237.316 113.529 237.235 113.617 237.249 113.691L237.803 116.207C237.817 116.247 237.932 116.308 238.046 116.308Z" fill="#263238"/>
<path d="M222.913 118.336L223.514 118.255C223.629 118.255 223.717 118.167 223.704 118.093L223.149 115.577C223.149 115.503 223.021 115.456 222.899 115.476L222.304 115.55C222.182 115.55 222.101 115.645 222.115 115.719L222.669 118.228C222.683 118.336 222.798 118.336 222.913 118.336Z" fill="#263238"/>
</svg>
