<svg width="51" height="51" viewBox="0 0 51 51" fill="none" xmlns="http://www.w3.org/2000/svg">
<path id="Vector" d="M25.3826 0.000272097C18.6194 0.0312221 12.1461 2.74774 7.38573 7.55216C2.62572 12.3562 -0.0310551 18.8551 0.000273963 25.6173C0.0312241 32.3805 2.74776 38.8537 7.55221 43.614C12.3563 48.374 18.8552 51.0308 25.6174 50.9995C32.3806 50.9685 38.8539 48.252 43.6143 43.4476C48.3743 38.6435 51.0311 32.1446 50.9997 25.3825C50.9791 20.9061 49.7805 16.5143 47.5248 12.6478C45.2686 8.78191 42.0348 5.57763 38.1479 3.35756C34.2613 1.13731 29.8588 -0.0204013 25.3826 0.000272097ZM37.1929 19.5061L24.2041 32.6151C24.0558 32.7655 23.8534 32.8506 23.6417 32.8513H23.6378C23.4279 32.8509 23.2262 32.7677 23.0767 32.6204L14.9129 24.531C14.7628 24.3823 14.6777 24.1802 14.6767 23.9686C14.6756 23.7572 14.7588 23.5545 14.9076 23.4043C15.2178 23.0923 15.7215 23.0902 16.0342 23.399L23.6328 30.9278L36.0606 18.3844C36.2093 18.2339 36.4117 18.1489 36.623 18.1485H36.6269C36.9485 18.1485 37.2384 18.3417 37.3623 18.6387C37.4861 18.9354 37.4195 19.2777 37.1929 19.5061Z" fill="#00D158"/>
</svg>
