<svg width="577" height="310" viewBox="0 0 577 310" fill="none" xmlns="http://www.w3.org/2000/svg">
<path opacity="0.5" d="M559.814 307.6C559.774 307.679 559.715 307.757 559.676 307.836C559.362 308.407 559.029 308.977 558.695 309.567L45.1044 309.41C45.1044 309.41 44.6139 308.859 43.7115 307.777C43.6526 307.718 43.6134 307.659 43.5545 307.58C41.2591 304.826 36.6485 299.002 31.2337 290.817C16.892 269.076 -2.96257 230.552 0.37269 187.799C1.31441 175.738 4.10033 163.323 9.39751 150.868C25.446 113.073 73.2972 87.5935 116.42 87.082C133.116 86.8852 149.086 90.4267 162.231 98.4345C164.566 99.8511 167.489 100.953 170.903 101.701C173.767 102.33 176.985 102.724 180.477 102.842C208.473 103.825 254.029 88.0067 281.045 48.1844C295.386 27.0337 317.419 13.2022 342.727 5.98144C343.905 5.64697 345.101 5.33217 346.278 5.01737C352.027 3.54174 357.952 2.38091 363.955 1.57423C365.034 1.43651 366.133 1.29878 367.212 1.16106C393.914 -1.9476 422.519 1.25943 448.769 10.1526C452.222 11.3134 455.636 12.5923 459.01 13.9498C508.392 33.9987 546.806 74.9425 543.432 132.118C543.294 134.381 543.098 136.663 542.823 138.985C542.313 143.392 541.568 147.878 540.567 152.462C539.979 155.158 539.292 157.892 538.507 160.667C518.162 233.13 599.503 236.416 559.814 307.6Z" fill="#DCEAFF"/>
<path d="M559.814 307.6L160.053 307.639L163.506 187.818V155.276H178.456V129.856H208.277V151.439H217.38V111.518H219.362V108.725H219.715V111.518H226.915V108.725H227.269V111.518H237.451V108.725H237.804V111.518H244.22V108.725H244.573V111.518H247.202V148.783H257.266V142.762L269.136 142.821V133.063H271.529V131.135H271.843V133.063H281.005H282.83V131.135H283.144V133.063H285.361V152.482H299.487V159.624H307.354V155.473H314.633V139.005H318.262V131.312H318.812V139.005H327.523V124.602H328.386V139.005H334.154V138.808V136.978V135.247V132.374V130.544V127.672V125.842V122.969V120.982V118.051V115.513V112.64V110.731H335.861V108.587H336.135V110.731H348.849V108.587H349.123V110.731H351.438V125.783H353.067H353.047V122.91H353.067V120.923H353.047V118.051H353.067V116.063H353.047V113.191H353.067H368.487H371.136C371.273 113.27 371.411 113.348 371.548 113.427V132.63H374.393V129.856H406.961V151.439H416.907V111.518H419.066V108.725H419.458V111.518H427.306V108.725H427.698V111.518H438.822V108.725H439.214V111.518H446.219V108.725H446.611V111.518H449.495V148.783H460.482V142.762L473.43 142.821V133.063H476.04V131.135H476.393V133.063H486.399H488.4V131.135H488.753V133.063H491.166V152.482H506.587V159.624H515.16V155.473H523.106V139.005H527.069V131.312H527.677V139.005H537.193V124.602H538.134V139.005H542.804C542.294 143.412 541.548 147.898 540.548 152.482C539.959 155.177 539.272 157.912 538.488 160.686C518.162 233.13 599.503 236.416 559.814 307.6Z" fill="#5C5894"/>
<path d="M459.01 13.9496V307.6H448.769V10.1523C452.242 11.3132 455.655 12.5921 459.01 13.9496Z" fill="#504B90"/>
<path d="M170.903 100.681V306.777H43.7115C43.6526 306.718 43.6134 306.659 43.5545 306.58C41.2591 303.826 36.6485 298.002 31.2337 289.817C16.892 268.076 -2.96257 229.552 0.37269 186.799C1.31441 174.738 4.10033 162.323 9.39751 149.869C25.446 112.073 73.2972 86.5936 116.42 86.082C132.959 86.2591 148.713 89.84 161.799 97.4345C164.252 98.8511 167.332 99.9333 170.903 100.681Z" fill="#504B90"/>
<path d="M367.232 1.16113V37.3239C367.232 40.1374 366.545 42.4394 365.701 42.4394H365.486C364.642 42.4394 363.955 40.1374 363.955 37.3239V1.57431C365.054 1.41691 366.133 1.27918 367.232 1.16113Z" fill="#504B90"/>
<path d="M364.74 33.7432C352.851 33.7432 343.218 43.9545 343.218 56.5662H386.262C386.262 43.9545 376.629 33.7432 364.74 33.7432Z" fill="#FF9843"/>
<path d="M366.467 34.0185C365.839 33.8808 365.211 33.8218 364.583 33.8218C356.834 33.8218 350.555 44.0135 350.555 56.5661H354.342C354.322 45.0366 359.619 35.5138 366.467 34.0185Z" fill="#FFC48A"/>
<path d="M506.469 273.955C506.469 273.955 500.74 267.246 506.116 262.996C506.116 262.996 510.04 260.616 513.238 260.813C513.238 260.813 508.706 268.446 510.177 269.194C511.648 269.961 514.611 260.34 514.611 260.34C514.611 260.34 523.538 259.475 526.422 260.852C526.422 260.852 518.79 267.109 520.399 267.482C522.007 267.856 530.247 261.698 530.247 261.698C530.247 261.698 538.566 263.114 538.115 268.21C537.664 273.286 534.799 274.861 533.543 274.723C532.288 274.585 524.911 271.772 524.754 272.795C524.597 273.837 529.031 277.202 532.131 277.359C532.131 277.359 526.265 283.832 522.38 281.963C518.476 280.094 518.162 277.123 515.729 276.021C513.296 274.9 511.236 274.92 512.237 276.041C513.238 277.182 517.632 278.284 519.025 280.743C520.418 283.203 521.654 284.875 517.632 284.265C513.61 283.655 507.058 280.704 506.763 277.32C506.469 273.955 506.469 273.955 506.469 273.955Z" fill="#77A4E5"/>
<path d="M534.034 268.348C534.034 268.348 511.452 267.482 506.469 273.956C506.469 273.956 505.37 277.261 501.976 280.291L501.447 281.727C501.447 281.727 505.351 277.595 506.763 277.34C506.744 277.34 504.566 269.312 534.034 268.348Z" fill="#77A4E5"/>
<path d="M501.957 280.271C501.957 280.271 497.111 283.872 496.777 290.286L497.66 290.364C497.66 290.364 499.21 283.714 501.996 281.117C504.801 278.54 501.957 280.271 501.957 280.271Z" fill="#77A4E5"/>
<path d="M486.438 265.515C486.438 265.515 495.541 260.399 491.303 253.454C491.303 253.454 487.909 249.185 484.26 248.103C484.26 248.103 486.202 258.452 484.26 258.707C482.318 258.943 482.926 247.02 482.926 247.02C482.926 247.02 473.332 242.397 469.565 242.751C469.565 242.751 475.51 252.864 473.567 252.608C471.625 252.352 464.935 242.141 464.935 242.141C464.935 242.141 455.106 240.311 453.517 246.155C451.947 251.998 454.498 254.93 455.949 255.284C457.401 255.658 466.76 255.52 466.524 256.74C466.289 257.96 459.971 259.908 456.44 258.806C456.44 258.806 460.325 268.427 465.426 267.935C470.527 267.443 472.116 264.275 475.255 264.039C478.413 263.803 480.728 264.649 479.139 265.495C477.57 266.341 472.214 265.771 469.663 267.955C467.113 270.139 465.053 271.476 469.781 272.441C474.509 273.424 483.024 272.814 484.711 269.155C486.438 265.515 486.438 265.515 486.438 265.515Z" fill="#77A4E5"/>
<path d="M458.01 247.984C458.01 247.984 483.514 256.268 486.438 265.515C486.438 265.515 486.32 269.647 488.87 274.408V276.238C488.87 276.238 486.202 270.02 484.75 269.174C484.731 269.174 490.44 261.127 458.01 247.984Z" fill="#77A4E5"/>
<path d="M488.871 274.408C488.871 274.408 492.794 280.389 490.558 287.689L489.538 287.413C489.538 287.413 490.519 279.386 488.459 275.333C486.418 271.319 488.871 274.408 488.871 274.408Z" fill="#77A4E5"/>
<path d="M500.936 258.471C500.936 258.471 488.929 251.723 494.54 242.574C494.54 242.574 499.033 236.947 503.82 235.511C503.82 235.511 501.25 249.165 503.82 249.48C506.39 249.795 505.586 234.074 505.586 234.074C505.586 234.074 518.24 227.975 523.204 228.447C523.204 228.447 515.356 241.767 517.926 241.452C520.497 241.138 529.286 227.641 529.286 227.641C529.286 227.641 542.254 225.24 544.334 232.933C546.413 240.646 543.059 244.502 541.136 244.974C539.213 245.446 526.892 245.289 527.206 246.902C527.52 248.516 535.858 251.074 540.488 249.637C540.488 249.637 535.368 262.328 528.639 261.678C521.909 261.029 519.829 256.858 515.67 256.543C511.511 256.228 508.47 257.35 510.55 258.471C512.629 259.593 519.673 258.845 523.047 261.698C526.422 264.551 529.129 266.322 522.89 267.62C516.651 268.899 505.429 268.092 503.192 263.292C500.956 258.491 500.936 258.471 500.936 258.471Z" fill="#9FC1F4"/>
<path d="M538.389 235.353C538.389 235.353 504.762 246.273 500.917 258.471C500.917 258.471 501.074 263.921 497.719 270.198V272.598C497.719 272.598 501.25 264.413 503.153 263.292C503.173 263.292 495.639 252.687 538.389 235.353Z" fill="#9FC1F4"/>
<path d="M497.738 270.178C497.738 270.178 492.559 278.067 495.502 287.689L496.836 287.334C496.836 287.334 495.541 276.749 498.248 271.417C500.956 266.085 497.738 270.178 497.738 270.178Z" fill="#9FC1F4"/>
<path d="M500.524 308.544C513.512 308.544 524.048 297.979 524.048 284.954H477.001C477.001 297.979 487.536 308.544 500.524 308.544Z" fill="#9FC1F4"/>
<path d="M506.312 308.367C505.351 308.485 504.389 308.544 503.389 308.544C490.401 308.544 479.865 297.979 479.865 284.954H485.712C485.712 296.995 494.697 306.911 506.312 308.367Z" fill="#AFCDFB"/>
<path d="M524.597 284.954H476.236V285.682H524.597V284.954Z" fill="#9FC1F4"/>
<path d="M391.03 307.384L367.918 211.173L369.527 207.395L392.423 307.384C392.482 307.639 392.285 307.875 392.03 307.875H391.658C391.344 307.875 391.089 307.659 391.03 307.384Z" fill="#77A4E5"/>
<path d="M286.715 307.875C286.244 307.875 285.871 307.443 285.949 306.97L292.757 265.594H295.681L287.558 307.167C287.48 307.58 287.127 307.875 286.715 307.875Z" fill="#77A4E5"/>
<path d="M352.007 307.875C351.536 307.875 351.164 307.443 351.242 306.97L358.05 265.594H360.973L352.851 307.167C352.772 307.58 352.419 307.875 352.007 307.875Z" fill="#77A4E5"/>
<path d="M367.84 265.672H286.538L303.391 159.781H384.693L367.84 265.672Z" fill="#F5FBFF"/>
<path d="M373.922 264.866H280.554V267.974H373.922V264.866Z" fill="#77A4E5"/>
<path d="M335.586 181.935C335.527 182.781 335.409 183.588 335.213 184.395C333.526 191.97 326.797 197.754 319.204 197.774C310.807 197.793 304.509 190.71 305.157 181.975C305.804 173.239 313.122 166.136 321.539 166.136C323.304 166.136 324.972 166.451 326.502 167.022C327.189 167.277 327.856 167.592 328.484 167.946C329.838 168.714 331.054 169.717 332.074 170.898C332.643 171.547 333.153 172.275 333.604 173.022C333.859 173.455 334.095 173.928 334.311 174.4C334.899 175.718 335.311 177.135 335.507 178.63C335.606 179.378 335.645 180.165 335.645 180.952C335.625 181.266 335.606 181.601 335.586 181.935Z" fill="#BDD1F9"/>
<path d="M334.291 174.38L320.362 181.955C320.362 181.955 326.11 171.803 328.464 167.927C329.818 168.694 331.034 169.698 332.055 170.878C332.624 171.527 333.134 172.255 333.585 173.003C333.86 173.455 334.095 173.928 334.291 174.38Z" fill="white"/>
<path d="M335.743 172.472L323.03 179.397C323.03 179.397 328.268 170.13 330.426 166.589C331.662 167.297 332.781 168.202 333.703 169.284C334.213 169.875 334.684 170.544 335.096 171.232C335.331 171.626 335.547 172.039 335.743 172.472Z" fill="#F99746"/>
<path d="M361.366 257.625H294.445L301.213 218.905H368.134L361.366 257.625ZM294.994 257.232H360.973L367.604 219.298H301.625L294.994 257.232Z" fill="#BDD1F9"/>
<path d="M357.383 252.313H298.035C298.035 252.313 308.57 246.647 311.454 246.942C314.338 247.237 318.498 249.539 321.166 249.618C323.834 249.716 326.718 241.669 329.7 242.043C332.663 242.417 333.781 249.539 335.331 248.831C336.861 248.142 341.491 247.827 344.14 248.831C346.808 249.834 350.673 245.663 353.008 245.801C355.343 245.958 357.383 252.313 357.383 252.313Z" fill="#F99746"/>
<path d="M312.298 240.941H300.978L301.076 240.331H312.416L312.298 240.941Z" fill="#F99746"/>
<path d="M312.082 242.22H300.742L300.841 241.629H312.18L312.082 242.22Z" fill="#F99746"/>
<path d="M301.429 232.913H360.777C360.777 232.913 352.223 227.247 349.241 227.542C346.239 227.837 341.295 230.139 338.588 230.218C335.88 230.316 335.802 222.269 332.702 222.643C329.602 223.017 325.992 230.12 324.697 229.431C323.402 228.742 318.89 228.427 315.888 229.431C312.887 230.434 310.454 226.263 308.08 226.401C305.686 226.539 301.429 232.913 301.429 232.913Z" fill="#BDD1F9"/>
<path d="M315.515 222.643H304.176L304.274 222.033H315.614L315.515 222.643Z" fill="#BDD1F9"/>
<path d="M315.28 223.922H303.94L304.058 223.312H315.378L315.28 223.922Z" fill="#BDD1F9"/>
<path d="M305.274 213.494H302.665L304.941 201.276H307.531L305.274 213.494Z" fill="#BDD1F9"/>
<path d="M308.825 213.494H306.216L307.982 204.03H310.572L308.825 213.494Z" fill="#BDD1F9"/>
<path d="M312.376 213.494H309.767L311.592 203.617H314.201L312.376 213.494Z" fill="#BDD1F9"/>
<path d="M315.908 213.494H313.318L314.711 205.978H317.301L315.908 213.494Z" fill="#BDD1F9"/>
<path d="M319.459 213.494H316.85L318.341 205.447H320.95L319.459 213.494Z" fill="#BDD1F9"/>
<path d="M323.01 213.494H320.401L321.558 207.257H324.168L323.01 213.494Z" fill="#BDD1F9"/>
<path d="M340.098 213.494H337.489L339.765 201.276H342.355L340.098 213.494Z" fill="#F99746"/>
<path d="M343.649 213.494H341.04L342.786 204.03H345.395L343.649 213.494Z" fill="#F99746"/>
<path d="M347.2 213.494H344.591L346.416 203.617H349.025L347.2 213.494Z" fill="#F99746"/>
<path d="M350.732 213.494H348.142L349.516 205.978H352.125L350.732 213.494Z" fill="#F99746"/>
<path d="M354.283 213.494H351.674L353.165 205.447H355.774L354.283 213.494Z" fill="#F99746"/>
<path d="M357.834 213.494H355.225L356.382 207.257H358.992L357.834 213.494Z" fill="#F99746"/>
<path d="M352.635 173.573H344.16L344.375 172.413H352.851L352.635 173.573Z" fill="#BDD1F9"/>
<path d="M363.033 173.573H353.675L353.891 172.413H363.249L363.033 173.573Z" fill="#BDD1F9"/>
<path d="M369.704 173.573H363.74L363.955 172.413H369.92L369.704 173.573Z" fill="#BDD1F9"/>
<path d="M375.276 173.573H370.665L370.881 172.413H375.492L375.276 173.573Z" fill="#BDD1F9"/>
<path d="M351.713 178.531H343.238L343.453 177.371H351.929L351.713 178.531Z" fill="#BDD1F9"/>
<path d="M362.091 178.531H352.733L352.969 177.371H362.307L362.091 178.531Z" fill="#BDD1F9"/>
<path d="M368.762 178.531H362.798L363.014 177.371H368.978L368.762 178.531Z" fill="#BDD1F9"/>
<path d="M374.334 178.531H369.723L369.959 177.371H374.55L374.334 178.531Z" fill="#BDD1F9"/>
<path d="M357.677 170.858H344.67L344.885 169.697H357.893L357.677 170.858Z" fill="#BDD1F9"/>
<path d="M366.408 170.858H358.913L359.129 169.697H366.623L366.408 170.858Z" fill="#BDD1F9"/>
<path d="M375.786 170.858H367.467L367.683 169.697H376.001L375.786 170.858Z" fill="#BDD1F9"/>
<path d="M356.677 176.131H343.689L343.905 174.97H356.892L356.677 176.131Z" fill="#BDD1F9"/>
<path d="M365.407 176.131H357.913L358.128 174.97H365.623L365.407 176.131Z" fill="#BDD1F9"/>
<path d="M374.785 176.131H366.467L366.682 174.97H375.001L374.785 176.131Z" fill="#BDD1F9"/>
<path d="M350.771 183.509H342.296L342.512 182.348H350.987L350.771 183.509Z" fill="#BDD1F9"/>
<path d="M361.17 183.509H351.811L352.027 182.348H361.385L361.17 183.509Z" fill="#BDD1F9"/>
<path d="M367.84 183.509H361.876L362.092 182.348H368.056L367.84 183.509Z" fill="#BDD1F9"/>
<path d="M373.412 183.509H368.802L369.017 182.348H373.628L373.412 183.509Z" fill="#BDD1F9"/>
<path d="M355.755 181.109H342.747L342.963 179.928H355.97L355.755 181.109Z" fill="#BDD1F9"/>
<path d="M364.485 181.109H356.99L357.206 179.928H364.701L364.485 181.109Z" fill="#BDD1F9"/>
<path d="M373.863 181.109H365.544L365.76 179.928H374.079L373.863 181.109Z" fill="#BDD1F9"/>
<path d="M349.908 188.153H341.433L341.648 186.992H350.124L349.908 188.153Z" fill="#BDD1F9"/>
<path d="M360.287 188.153H350.948L351.164 186.992H360.522L360.287 188.153Z" fill="#BDD1F9"/>
<path d="M366.957 188.153H360.993L361.209 186.992H367.193L366.957 188.153Z" fill="#BDD1F9"/>
<path d="M372.529 188.153H367.938L368.154 186.992H372.745L372.529 188.153Z" fill="#BDD1F9"/>
<path d="M354.872 185.752H341.884L342.1 184.591H355.088L354.872 185.752Z" fill="#BDD1F9"/>
<path d="M363.602 185.752H356.108L356.343 184.591H363.838L363.602 185.752Z" fill="#BDD1F9"/>
<path d="M373 185.752H364.662L364.877 184.591H373.216L373 185.752Z" fill="#BDD1F9"/>
<path d="M330.622 203.086H326.463L326.581 202.516H330.72L330.622 203.086Z" fill="#BDD1F9"/>
<path d="M335.704 203.086H331.132L331.23 202.516H335.821L335.704 203.086Z" fill="#BDD1F9"/>
<path d="M330.171 205.526H326.012L326.129 204.955H330.269L330.171 205.526Z" fill="#BDD1F9"/>
<path d="M335.252 205.526H330.661L330.779 204.955H335.35L335.252 205.526Z" fill="#BDD1F9"/>
<path d="M333.075 201.768H326.718L326.816 201.197H333.192L333.075 201.768Z" fill="#BDD1F9"/>
<path d="M337.352 201.768H333.683L333.801 201.197H337.469L337.352 201.768Z" fill="#BDD1F9"/>
<path d="M332.604 204.345H326.228L326.345 203.775H332.702L332.604 204.345Z" fill="#BDD1F9"/>
<path d="M336.881 204.345H333.212L333.31 203.775H336.979L336.881 204.345Z" fill="#BDD1F9"/>
<path d="M363.838 203.086H359.698L359.796 202.516H363.955L363.838 203.086Z" fill="#BDD1F9"/>
<path d="M368.939 203.086H364.348L364.466 202.516H369.037L368.939 203.086Z" fill="#BDD1F9"/>
<path d="M363.386 205.526H359.247L359.345 204.955H363.485L363.386 205.526Z" fill="#BDD1F9"/>
<path d="M368.468 205.526H363.896L363.995 204.955H368.585L368.468 205.526Z" fill="#BDD1F9"/>
<path d="M366.31 201.768H359.953L360.051 201.197H366.408L366.31 201.768Z" fill="#BDD1F9"/>
<path d="M370.587 201.768H366.918L367.016 201.197H370.685L370.587 201.768Z" fill="#BDD1F9"/>
<path d="M365.819 204.345H359.463L359.561 203.775H365.937L365.819 204.345Z" fill="#BDD1F9"/>
<path d="M370.096 204.345H366.427L366.545 203.775H370.194L370.096 204.345Z" fill="#BDD1F9"/>
<path d="M385.909 306.301C385.772 308.289 382.966 308.308 379.788 307.934C376.61 307.561 377.453 308.367 373 308.426C368.546 308.485 367.016 307.01 366.8 306.38C366.604 305.81 368.742 305.337 371.038 304.786C371.332 304.708 371.607 304.649 371.901 304.57C374.491 303.921 376.198 301.973 378.415 300.281C380.514 298.667 383.221 292.863 383.221 292.863L389.303 292.588C389.303 292.588 386.753 297.802 385.792 300.045C385.223 301.363 385.458 302.996 385.713 304.236C385.831 304.904 385.968 305.593 385.909 306.301Z" fill="#FFB27D"/>
<path d="M379.788 307.934C376.61 307.56 377.453 308.367 373 308.426C368.546 308.485 367.016 307.01 366.8 306.38C366.604 305.809 368.742 305.337 371.038 304.786L371.058 304.826C371.058 304.826 373.922 306.36 377.591 306.006C380.573 305.711 383.633 304.452 385.693 304.235C385.831 304.904 385.948 305.613 385.909 306.301C385.772 308.288 382.966 308.308 379.788 307.934Z" fill="#233862"/>
<path d="M427.894 306.714C427.757 308.702 424.951 308.721 421.773 308.367C418.595 307.993 419.438 308.8 414.985 308.879C410.531 308.938 409.001 307.482 408.785 306.833C408.589 306.262 410.728 305.79 413.023 305.219C413.317 305.14 413.592 305.081 413.886 305.003C416.476 304.334 418.183 302.406 420.4 300.694C422.499 299.081 420.4 289.578 420.4 289.578L427.09 288.928C427.09 288.928 426.776 296.936 426.776 300.576C426.776 302.012 427.443 303.389 427.678 304.649C427.816 305.318 427.934 306.006 427.894 306.714Z" fill="#FFB27D"/>
<path d="M421.773 308.367C418.595 307.993 419.438 308.8 414.985 308.879C410.531 308.938 409.001 307.482 408.785 306.833C408.589 306.262 410.728 305.79 413.023 305.219L413.043 305.258C413.043 305.258 415.907 306.793 419.576 306.419C422.558 306.124 425.599 304.865 427.678 304.629C427.816 305.298 427.934 306.006 427.894 306.695C427.737 308.702 424.951 308.721 421.773 308.367Z" fill="#233862"/>
<path d="M408.373 142.271C407.216 137.529 408.883 135.306 410.394 134.145C411.1 132.394 411.924 131.135 412.748 130.662C414.259 129.797 416.084 129.698 417.359 129.777C417.025 129.443 416.378 129.305 416.378 129.305C417.163 129.187 418.928 129.974 418.928 129.974C429.915 125.724 431.642 141.956 431.406 145.714C431.171 149.491 431.21 153.918 436.919 156.889C447.827 162.556 433.29 183.903 433.29 183.903C433.564 180.853 419.556 164.779 412.238 159.978C410.453 157.342 409.825 152.718 409.786 152.344C410.1 156.024 410.728 158.089 411.277 159.25C407.981 156.181 407.49 148.803 408.373 142.271Z" fill="#A9453D"/>
<path d="M412.709 160.234C412.67 160.254 416.241 162.103 418.928 161.375C421.459 160.687 423.107 157.401 423.068 157.401C422.009 157.184 421.695 155.709 421.714 149.393L421.224 149.491L413.101 151.105C413.101 151.105 413.278 153.663 413.298 156.083C413.298 158.089 413.18 160.018 412.709 160.234Z" fill="#FFB27D"/>
<path d="M413.101 151.085C413.101 151.085 413.278 153.643 413.298 156.063C417.849 155.925 420.243 151.774 421.224 149.472L413.101 151.085Z" fill="#ED975D"/>
<path d="M380.063 296.09C379.67 297.349 380.553 298.628 381.868 298.687L385.046 298.845L388.401 298.943C389.244 298.963 390.049 298.609 390.579 297.94C393.266 294.634 401.506 283.656 406.509 267.679C406.647 267.227 406.804 266.774 406.961 266.322C410.257 256.661 417.123 244.522 420.733 233.543C421.302 231.792 421.832 230.139 422.283 228.585C422.44 228.093 422.577 227.601 422.715 227.109C425.383 217.843 426.148 211.743 426.854 205.25L400.781 205.467C400.761 205.487 395.287 248.28 380.063 296.09Z" fill="#2A4E96"/>
<path d="M404.41 190.475C404.469 202.909 402.586 208.261 402.586 208.261C402.586 208.261 413.749 213.947 427.011 209.756C427.168 209.697 436.507 207.061 436.507 207.061C436.291 206.549 434.447 198.227 434.231 197.774C431.426 191.734 430.661 189.215 430.327 187.346C429.719 183.884 429.699 180.303 430.013 176.919C430.818 167.966 433.231 160.549 433.231 160.549C429.621 159.723 426.227 158.267 422.46 156.87C421.597 157.952 418.948 159.073 416.653 159.034C414.004 158.975 413.16 157.834 413.298 156.594C410.473 158.168 408.236 159.644 408.236 159.644C405.842 163.815 400.996 167.868 400.643 174.262C400.565 175.836 404.41 190.121 404.41 190.475Z" fill="white"/>
<path d="M426.835 191.852C427.973 193.465 430.151 203.303 435.605 204.542C432.799 197.538 430.68 194.469 430.347 192.304C429.739 188.291 429.719 184.119 430.033 180.204C428.208 176.997 426.855 174.813 426.855 174.813C426.717 174.302 423.971 165.763 423.088 173.397C422.185 181.011 425.56 190.042 426.835 191.852Z" fill="#5F9AA8"/>
<path d="M411.591 153.367C411.591 153.367 422.342 153.544 422.362 146.835C422.362 140.126 423.755 135.62 416.888 135.227C410.021 134.833 408.687 137.391 408.138 139.634C407.588 141.857 408.785 153.151 411.591 153.367Z" fill="#FFB27D"/>
<path d="M411.983 135.05C411.983 135.05 414.926 142.94 419.438 144.101C423.951 145.261 425.913 144.061 425.913 144.061C425.913 144.061 422.44 141.307 421.734 136.486C421.754 136.467 414.2 131.292 411.983 135.05Z" fill="#A9453D"/>
<path d="M412.709 135.679C412.709 135.679 410.512 137.43 409.982 139.142C409.452 140.854 409.197 144.376 408.177 144.258C408.177 144.258 405.96 138.906 408.452 135.876C411.1 132.669 412.709 135.679 412.709 135.679Z" fill="#A9453D"/>
<path d="M394.659 199.112L389.598 214.635L392.482 215.796L400.879 202.083L394.659 199.112Z" fill="#FFB27D"/>
<path d="M408.354 158.719C408.354 158.719 402.37 161.099 400.624 164.818C398.897 168.537 396.268 193.465 395.228 196.023C394.189 198.58 393.404 200.607 393.404 200.607C393.404 200.607 396.425 203.165 399.466 203.342C402.507 203.538 408.354 158.719 408.354 158.719Z" fill="#F99746"/>
<path d="M413.298 156.594C413.298 156.594 407.078 172 406.902 175.128C406.725 178.256 406.176 226.146 406.176 226.146C406.176 226.146 406.549 228.349 402.33 227.424C398.112 226.5 397.033 225.595 397.033 225.595C397.033 225.595 401.055 196.043 399.956 185.772C398.858 175.502 408.373 158.739 408.373 158.739L413.298 156.594Z" fill="#F99746"/>
<path d="M385.046 298.845L388.695 298.963C389.342 298.982 389.97 298.707 390.382 298.195C392.835 295.225 401.369 284.088 406.509 267.699C406.647 267.247 406.804 266.794 406.961 266.342C410.257 256.681 417.123 244.542 420.733 233.563C421.302 231.812 421.832 230.159 422.283 228.605C422.44 228.113 422.577 227.621 422.715 227.129L418.869 224.217C418.869 224.217 407.333 242.928 403.782 260.557C400.663 275.864 388.244 294.26 385.046 298.845Z" fill="#1E3D70"/>
<path d="M418.457 262.19C418.398 270.296 418.771 288.358 419.752 297.192C419.85 297.998 420.517 298.608 421.341 298.608H424.068C425.206 298.608 426.07 298.608 426.639 298.589C427.129 298.589 427.561 298.235 427.639 297.743C430.347 283.931 432.289 272.46 433.701 262.564C434.879 254.261 435.938 247.158 436.742 241.039C437.566 234.881 438.135 229.726 438.332 225.358C438.371 224.67 438.39 224.001 438.39 223.351C438.41 222.702 438.41 222.072 438.41 221.443L415.887 219.239C416.181 234.271 418.497 257.212 418.457 262.19Z" fill="#2A4E96"/>
<path d="M424.069 298.609C425.108 298.609 425.893 298.609 426.462 298.589C427.07 298.589 427.58 298.156 427.698 297.566C430.386 283.833 432.309 272.421 433.721 262.564C434.898 254.261 435.958 247.158 436.762 241.039C437.586 234.881 438.155 229.726 438.351 225.358L430.092 230.238C430.092 230.238 435.369 232.107 433.348 246.234C431.328 260.36 426.874 296.602 424.069 298.609Z" fill="#1E3D70"/>
<path d="M423.009 225.221C423.009 225.221 424.598 230.966 430.091 230.238C435.585 229.51 443.393 226.205 443.393 226.205C443.393 226.205 441.039 218.767 438.135 209.009C434.604 197.184 430.229 181.936 428.169 172.334C427.6 169.639 427.188 167.396 427.05 165.782L422.499 156.929C422.499 156.929 415.711 172.216 415.338 176.073C414.945 179.889 423.009 225.221 423.009 225.221Z" fill="#F99746"/>
<path d="M428.483 175.462L422.479 156.889C422.499 156.889 430.072 159.152 433.878 161.08C433.878 161.08 436.252 164.169 437.743 171.272C437.743 171.272 439.293 188.33 435.82 194.567C435.82 194.567 424.834 196.77 407.274 190.711V186.677C407.274 186.677 426.482 187.681 430.425 188.153L428.483 175.462Z" fill="#FFB27D"/>
<path d="M423.245 184.119C423.5 190.356 424.951 202.476 437.998 208.949C438.037 208.969 438.077 208.989 438.096 209.008C434.565 197.184 430.19 181.935 428.13 172.334C425.756 175.915 423.107 180.676 423.245 184.119Z" fill="#ED7D2B"/>
<path d="M422.479 156.909C422.479 156.909 433.623 157.696 436.311 163.697C438.999 169.697 439.842 189.628 436.429 195.511C436.429 195.511 431.72 196.849 423.402 195.295C423.303 195.275 423.205 195.255 423.088 195.236C423.088 195.236 420.439 188.723 422.813 187.444C422.813 187.444 429.837 187.818 429.091 185.497C428.365 183.136 422.479 156.909 422.479 156.909Z" fill="#F99746"/>
<path d="M394.542 189.176L394.875 190.238L413.16 184.533C413.16 184.533 413.396 184.257 413.278 183.883C413.141 183.47 412.827 183.47 412.827 183.47L394.542 189.176Z" fill="#A9453D"/>
<path d="M393.208 190.179L394.542 189.176L394.856 190.238L393.208 190.179Z" fill="#A9453D"/>
<path d="M390.304 214.203C390.304 214.203 385.674 216.78 385.046 218.728C384.438 220.695 384.85 224.788 385.595 224.729C386.341 224.67 387.44 220.322 388.048 220.007C388.656 219.692 389.519 218.787 389.519 219.456C389.519 220.125 388.911 221.345 389.205 221.541C389.519 221.719 390.481 219.83 391.167 219.456C391.834 219.082 392.129 216.072 392.776 215.245C393.423 214.458 390.304 214.203 390.304 214.203Z" fill="#FFB27D"/>
<path d="M407.274 186.677C407.274 186.677 403.135 184.119 401.389 184.513C399.643 184.906 395.209 188.133 397.347 188.822C399.486 189.51 401.212 188.782 402.036 189.294C402.86 189.805 403.468 190.73 407.294 190.71C411.081 190.71 407.274 186.677 407.274 186.677Z" fill="#FFB27D"/>
<g opacity="0.6">
<path d="M206.374 307.855H206.315C205.903 307.855 205.589 307.521 205.589 307.128L206.688 259.789L209.906 259.416L207.179 307.128C207.12 307.541 206.786 307.855 206.374 307.855Z" fill="#77A4E5"/>
<path d="M187.677 307.855H187.618C187.206 307.855 186.892 307.521 186.892 307.128L187.991 259.789L191.208 259.416L188.462 307.128C188.422 307.541 188.089 307.855 187.677 307.855Z" fill="#77A4E5"/>
<path d="M239.275 307.855H239.334C239.746 307.855 240.06 307.521 240.06 307.128L238.961 259.789L235.744 259.416L238.471 307.128C238.51 307.541 238.863 307.855 239.275 307.855Z" fill="#77A4E5"/>
<path d="M185.558 256.858V224.413C185.558 218.708 190.169 214.084 195.858 214.084H219.166C224.855 214.084 229.466 218.708 229.466 224.413V258.097L185.558 256.858Z" fill="#77A4E5"/>
<path d="M233.645 261.973H188.658C186.951 261.973 185.558 260.576 185.558 258.864V256.838H233.645V261.973Z" fill="#77A4E5"/>
<path d="M239.04 261.973H205.001C203.745 261.973 202.705 260.95 202.705 259.671V259.14C202.705 257.881 203.726 256.838 205.001 256.838H239.04C240.296 256.838 241.335 257.861 241.335 259.14V259.671C241.335 260.95 240.296 261.973 239.04 261.973Z" fill="#77A4E5"/>
</g>
<path d="M264.506 288.987C264.839 290.62 267.154 290.345 269.744 289.715C272.334 289.085 271.725 289.833 275.394 289.42C279.083 289.007 280.201 287.629 280.299 287.079C280.397 286.587 278.573 286.41 276.63 286.193C276.375 286.174 276.14 286.134 275.885 286.095C273.687 285.819 272.059 284.383 270.058 283.222C268.155 282.12 265.33 277.595 265.33 277.595L260.268 277.989C260.268 277.989 262.916 282.022 263.937 283.793C264.545 284.836 264.506 286.193 264.427 287.256C264.427 287.826 264.388 288.416 264.506 288.987Z" fill="#FFB27D"/>
<path d="M269.744 289.715C272.334 289.086 271.726 289.833 275.394 289.42C279.083 289.007 280.201 287.63 280.299 287.079C280.397 286.587 278.573 286.41 276.63 286.193L276.611 286.233C276.611 286.233 274.394 287.807 271.333 287.885C268.842 287.944 266.193 287.236 264.466 287.256C264.427 287.826 264.388 288.417 264.506 288.987C264.839 290.62 267.154 290.345 269.744 289.715Z" fill="#233862"/>
<path d="M221.069 296.287C220.068 297.605 221.795 299.179 223.992 300.694C226.17 302.229 225.208 302.248 227.955 304.767C230.702 307.265 232.467 307.187 232.958 306.911C233.39 306.655 232.311 305.18 231.192 303.566C231.055 303.37 230.918 303.153 230.761 302.957C229.505 301.107 229.505 298.962 229.054 296.68C228.622 294.516 232.154 286.567 232.154 286.567L226.503 285.859C226.503 285.859 225.758 290.66 225.13 292.588C224.757 293.729 223.188 294.477 222.344 295.106C221.893 295.46 221.422 295.814 221.069 296.287Z" fill="#FFB27D"/>
<path d="M223.992 300.694C226.17 302.228 225.208 302.248 227.955 304.766C230.702 307.265 232.468 307.186 232.958 306.911C233.39 306.655 232.311 305.179 231.192 303.566L231.153 303.586C231.153 303.586 228.524 302.956 226.425 300.713C224.718 298.864 223.502 296.404 222.344 295.125C221.893 295.48 221.422 295.834 221.069 296.306C220.068 297.605 221.814 299.159 223.992 300.694Z" fill="#233862"/>
<path d="M244.16 255.677L239.001 269.607L232.252 287.806C232.252 287.806 230.427 287.983 228.661 287.472C227.053 287 225.189 285.78 225.189 285.78C225.189 285.78 227.053 266.243 230.545 255.028C231.447 252.155 232.448 249.814 233.546 248.515C239.001 242.101 244.16 255.677 244.16 255.677Z" fill="#163560"/>
<path d="M238.922 233.543C235.548 232.441 225.346 233.11 215.654 234.999L214.163 232.402L193.229 230.769C193.229 230.769 186.323 246.135 190.11 255.913C190.659 257.35 191.777 258.274 193.661 258.314H193.975C193.975 258.314 206.433 258.314 210.474 258.314C220.892 258.314 232.507 251.132 234.017 250.837C236.47 250.345 237.47 255.284 239.923 260.458C242.375 265.633 263.054 283.399 263.054 283.399C263.054 283.399 266.232 283.439 267.547 282.947C268.959 282.416 269.469 281.727 269.469 281.727C269.469 281.727 246.554 236.022 238.922 233.543Z" fill="#2A4E96"/>
<path d="M206.825 168.851C203.882 168.143 199.88 168.969 199.213 169.048C191.267 169.973 189.482 182.368 190.07 185.831C191.169 192.205 188.109 194.016 184.459 199.111C177.141 209.342 182.203 217.783 188.148 219.869C191.718 221.128 196.584 217.704 196.584 217.704C196.682 217.744 209.219 205.722 215.438 199.879C225.895 195.59 214.339 170.661 206.825 168.851Z" fill="#233862"/>
<path d="M208.532 198.049C208.571 198.068 205.295 200.213 202.627 199.761C200.115 199.347 197.467 196.062 197.486 196.042C198.507 195.727 199.389 194.547 198.762 188.428L199.233 188.467L207.257 189.234C207.257 189.234 207.335 191.733 207.551 194.074C207.767 196.042 208.061 197.891 208.532 198.049Z" fill="#FFB27D"/>
<path d="M207.276 189.235C207.276 189.235 207.355 191.733 207.571 194.075C203.156 194.389 200.429 190.592 199.252 188.467L207.276 189.235Z" fill="#ED975D"/>
<path d="M208.964 191.3C208.964 191.3 198.566 192.52 197.918 186.008C197.271 179.495 195.485 175.285 202.077 174.222C208.689 173.16 210.219 175.521 210.984 177.646C211.73 179.771 211.652 190.828 208.964 191.3Z" fill="#FFB27D"/>
<path d="M209.729 174.321C209.729 174.321 204.706 181.522 200.449 183.096C196.192 184.67 194.171 183.686 194.171 183.686C194.171 183.686 196.211 180.873 196.878 177.016C197.075 175.875 197.859 174.931 198.958 174.557C202.019 173.455 207.904 171.822 209.729 174.321Z" fill="#233862"/>
<path d="M205.589 174.852C205.589 174.852 208.277 176.387 209.337 177.764C210.376 179.082 211.475 182.604 211.318 184.158C211.318 184.158 213.005 176.76 210.298 174.065C207.434 171.212 205.589 174.852 205.589 174.852Z" fill="#233862"/>
<path d="M216.537 215.324C216.223 236.376 216.458 231.988 214.163 233.976C213.613 234.448 212.044 234.743 210.004 234.881C203.568 235.314 192.248 234.251 191.817 233.051C190.326 228.919 191.385 227.64 190.149 221.325C190.012 220.656 189.855 219.928 189.678 219.141C188.638 214.792 187.638 213.317 191.306 206.352C194.622 200.036 198.212 194.98 198.526 195.176C207.296 200.39 207.865 195.924 207.865 195.924C207.865 195.924 216.674 205.034 216.537 215.324Z" fill="white"/>
<path d="M239.001 269.607L232.114 288.554C232.114 288.554 229.642 289.361 227.837 289.105C225.993 288.83 224.993 287.826 224.993 287.826C224.993 287.826 227.092 266.243 230.584 255.028L239.001 269.607Z" fill="#2A4E96"/>
<path d="M207.845 195.904C207.845 195.904 216.87 197.439 217.93 201.335C218.989 205.23 226.739 226.696 226.739 226.696C226.739 226.696 220.637 228.958 218.518 226.833C216.399 224.709 211.141 207.119 211.141 207.119L207.845 195.904Z" fill="white"/>
<path d="M209.984 234.881C203.549 235.314 192.229 234.251 191.797 233.051C190.306 228.919 191.365 227.64 190.129 221.325L193.151 214.438C193.151 214.438 192.719 222.328 195.603 224.906C198.468 227.483 207.355 229.864 208.748 232.008C209.415 233.012 209.866 234.035 209.984 234.881Z" fill="#DFEBFD"/>
<path d="M210.514 230.375C210.514 230.375 212.436 232.028 212.986 232.165C213.535 232.303 213.849 232.165 213.849 232.165L212.456 230.532L210.514 230.375Z" fill="#FFB27D"/>
<path d="M209.749 228.427L214.594 229.686C214.594 229.686 214.477 230.041 213.927 230.119C213.378 230.198 211.907 229.982 211.907 229.982L209.749 228.427Z" fill="#FFB27D"/>
<path d="M201.528 231.103C201.528 231.103 208.454 228.014 209.768 228.427C211.063 228.84 214.398 230.611 214.928 231.359C215.458 232.106 212.201 231.26 211.181 231.201C210.514 231.162 209.003 232.067 208.238 232.5C205.04 234.33 202.823 234.172 202.823 234.172L201.528 231.103Z" fill="#FFB27D"/>
<path d="M198.507 195.137C198.507 195.137 188.697 196.987 186.892 199.702C182.929 205.644 174.493 230.297 179.221 233.602C184.538 237.321 203.431 234.566 203.431 234.566C203.431 234.566 204.059 231.615 203.176 230.198C202.293 228.782 188.089 226.46 187.422 225.811C186.774 225.161 193.896 215.639 193.151 213.809C190.718 207.985 198.507 195.137 198.507 195.137Z" fill="white"/>
<path d="M237.255 230.06C237.255 230.06 244.121 231.909 244.828 232.992C245.534 234.054 246.907 237.32 246.848 238.186C246.79 239.032 244.926 236.494 244.219 235.845C243.768 235.431 242.12 235.176 241.316 235.038C239.275 234.703 238.294 233.779 237.529 233.306C237.019 232.992 236.391 233.051 236.391 233.051L237.255 230.06Z" fill="#FFB27D"/>
<path d="M244.239 234.861C244.239 234.861 244.651 237.202 244.965 237.615C245.279 238.029 245.573 238.127 245.573 238.127L245.534 236.1L244.239 234.861Z" fill="#FFB27D"/>
<path d="M244.828 232.992L247.614 236.789C247.614 236.789 247.319 236.966 246.868 236.71C246.417 236.455 245.475 235.412 245.475 235.412L244.828 232.992Z" fill="#FFB27D"/>
<path d="M237.529 233.307C237.529 233.307 238.157 234.861 239.432 235.412C240.708 235.963 241.63 236.809 241.846 236.494C242.042 236.199 240.884 234.625 240.884 234.625L237.529 233.307Z" fill="#FFB27D"/>
<path d="M224.914 221.62L239.354 230.769C239.354 230.769 237.843 232.795 237.333 232.992C234.665 233.976 222.638 233.031 218.518 226.834L224.914 221.62Z" fill="white"/>
<path d="M219.185 231.555C220.029 231.555 228.505 230.965 228.505 230.965C228.505 230.965 228.269 232.48 228.779 233.267L220.52 234.86L218.832 234.369L219.185 231.555Z" fill="#F9DDBF"/>
<path d="M205.06 232.933L219.185 231.575C219.185 231.575 218.695 234.192 220.539 234.881L204.961 236.022C204.961 236.002 203.706 234.231 205.06 232.933Z" fill="#F99746"/>
<path d="M228.485 231.162L218.93 231.89C218.93 231.89 219.009 231.555 219.185 231.555C219.362 231.555 228.681 230.867 228.681 230.867L228.642 231.122L228.485 231.162Z" fill="#F99746"/>
<path d="M220.539 234.861L228.936 233.267L228.877 233.051L219.911 234.763L220.539 234.861Z" fill="#F99746"/>
<path d="M122.679 307.797H122.6C122.149 307.797 121.796 307.423 121.796 306.97L123.012 254.104L126.583 253.69L123.542 306.97C123.503 307.423 123.13 307.797 122.679 307.797Z" fill="#77A4E5"/>
<path d="M101.921 307.797H101.843C101.392 307.797 101.039 307.423 101.039 306.97L102.255 254.104L105.826 253.69L102.785 306.97C102.745 307.423 102.373 307.797 101.921 307.797Z" fill="#77A4E5"/>
<path d="M159.19 307.797H159.268C159.72 307.797 160.073 307.423 160.073 306.97L158.856 254.104L155.286 253.69L158.327 306.97C158.346 307.423 158.739 307.797 159.19 307.797Z" fill="#77A4E5"/>
<path d="M99.5671 250.837V214.616C99.5671 208.241 104.688 203.066 111.005 203.066H136.883C143.2 203.066 148.321 208.241 148.321 214.616V252.215L99.5671 250.837Z" fill="#77A4E5"/>
<path d="M152.951 256.543H103.001C101.098 256.543 99.5476 254.989 99.5476 253.081V250.818H152.931V256.543H152.951Z" fill="#77A4E5"/>
<path d="M158.935 256.543H121.148C119.736 256.543 118.598 255.402 118.598 253.986V253.376C118.598 251.959 119.736 250.818 121.148 250.818H158.915C160.328 250.818 161.466 251.959 161.466 253.376V253.986C161.466 255.402 160.328 256.543 158.935 256.543Z" fill="#77A4E5"/>
<path d="M138.61 189.688C138.61 189.688 136.451 191.537 135.981 196.318C135.627 199.958 138.139 228.192 140.042 230.435C145.378 236.75 152.049 234.074 154.658 235.038L157.13 232.815C157.13 232.815 148.458 226.401 147.791 224.296C145.241 216.249 146.81 192.737 138.61 189.688Z" fill="#F9DDBF"/>
<path d="M137.059 166.648C137.059 166.648 137.197 161.473 130.389 160.45C123.581 159.427 121.698 161.04 120.54 162.772C119.383 164.523 117.205 171.626 117.421 174.459C117.636 177.292 125.406 180.794 125.288 182.447C125.151 184.1 137.059 166.648 137.059 166.648Z" fill="#163560"/>
<path d="M168.646 303.311C168.431 305.062 170.804 305.574 173.571 305.829C176.337 306.065 175.474 306.616 179.26 307.462C183.047 308.308 184.597 307.305 184.891 306.793C185.146 306.341 183.42 305.554 181.556 304.649C181.32 304.531 181.085 304.432 180.849 304.314C178.77 303.291 177.652 301.304 176.062 299.435C174.552 297.664 173.257 292.155 173.257 292.155L168.136 290.837C168.136 290.837 169.411 295.795 169.843 297.92C170.098 299.159 169.608 300.517 169.176 301.56C168.96 302.13 168.725 302.701 168.646 303.311Z" fill="#FFB27D"/>
<path d="M173.571 305.829C176.337 306.065 175.474 306.616 179.26 307.462C183.047 308.308 184.597 307.305 184.891 306.793C185.146 306.34 183.42 305.553 181.556 304.648L181.517 304.688C181.517 304.688 178.809 305.514 175.749 304.55C173.257 303.763 170.883 302.13 169.157 301.579C168.921 302.15 168.705 302.72 168.627 303.33C168.431 305.062 170.805 305.593 173.571 305.829Z" fill="#233862"/>
<path d="M130.271 231.949C130.271 231.949 164.546 235.51 170.196 240.783C175.847 246.037 174.846 295.067 174.846 295.067C173.963 295.992 173.316 295.952 171.923 295.854C170.589 295.755 167.862 294.595 167.862 294.595C167.862 294.595 160.524 270.532 160.426 264.944C160.328 259.376 159.17 249.913 156.836 249.362C154.501 248.811 126.76 251.919 123.719 243.144C120.678 234.35 125.72 227.129 125.72 227.129L130.271 231.949Z" fill="#ED7D2B"/>
<path d="M114.262 240.803C115.733 241.787 118.382 243.321 122.816 243.479C130.762 243.774 140.669 242.81 142.612 240.98C143.122 240.508 143.357 239.721 143.436 238.717C143.652 235.668 142.2 230.631 141.219 226.479C140.591 223.784 140.159 221.443 140.512 220.242C141.592 216.603 144.927 209.205 145.221 206.785C145.515 204.345 142.612 191.32 138.609 189.707C134.607 188.093 119.167 189.707 119.167 189.707C113.124 190.927 112.869 203.833 114.89 214.812C114.949 215.088 114.988 215.383 115.047 215.658C117.205 226.794 110.142 238.029 114.262 240.803Z" fill="#F9DDBF"/>
<path d="M134.215 192.068C134.097 192.776 132.174 193.918 128.054 192.835C124.091 191.793 123.62 190.494 123.62 189.648C123.62 188.645 125.347 187.287 125.327 181.07L125.798 181.168L133.783 182.762C133.783 182.762 133.607 185.28 133.587 187.641C133.567 189.609 134.391 190.888 134.215 192.068Z" fill="#FFB27D"/>
<path d="M133.764 182.723C133.764 182.723 133.587 185.241 133.567 187.602C129.094 187.484 126.74 183.392 125.779 181.129L133.764 182.723Z" fill="#ED975D"/>
<path d="M135.255 184.966C135.255 184.966 124.699 185.143 124.68 178.552C124.68 171.96 123.307 167.534 130.056 167.14C136.805 166.747 138.119 169.265 138.649 171.469C139.178 173.672 138.001 184.749 135.255 184.966Z" fill="#FFB27D"/>
<path d="M134.862 166.983C134.862 166.983 131.978 174.715 127.525 175.876C123.071 177.036 121.168 175.836 121.168 175.836C121.168 175.836 124.562 173.121 125.268 168.399C125.288 168.379 132.684 163.303 134.862 166.983Z" fill="#163560"/>
<path d="M134.156 167.612C134.156 167.612 136.314 169.344 136.844 171.016C137.373 172.688 137.609 176.151 138.609 176.033C138.609 176.033 140.787 170.78 138.335 167.789C135.725 164.641 134.156 167.612 134.156 167.612Z" fill="#163560"/>
<path d="M142.906 304.767C142.887 306.538 145.3 306.774 148.086 306.695C150.872 306.616 150.067 307.266 153.912 307.659C157.758 308.053 159.19 306.872 159.425 306.341C159.641 305.849 157.817 305.278 155.874 304.609C155.639 304.531 155.384 304.432 155.148 304.354C152.971 303.567 151.637 301.737 149.851 300.064C148.164 298.49 151.892 290.857 151.892 290.857L147.007 288.437C147.007 288.437 146.084 293.887 144.888 298.648C144.574 299.887 143.573 301.914 143.259 302.976C143.083 303.527 142.926 304.137 142.906 304.767Z" fill="#FFB27D"/>
<path d="M114.478 239.485C115.949 240.468 118.382 243.321 122.836 243.479C130.154 241.806 138.492 239.859 143.455 238.698C143.671 235.648 142.219 230.611 141.238 226.46C135.451 228.231 126.858 222.19 123.954 219.81C120.913 217.311 121.011 208.969 121.011 208.969L114.89 214.793C114.949 215.068 114.988 215.363 115.047 215.639C117.205 226.794 110.338 236.711 114.478 239.485Z" fill="#F2CCAA"/>
<path d="M148.086 306.675C150.872 306.596 150.067 307.246 153.912 307.639C157.758 308.033 159.19 306.852 159.425 306.321C159.641 305.829 157.817 305.258 155.874 304.589L155.855 304.629C155.855 304.629 153.265 305.77 150.106 305.16C147.536 304.668 145.005 303.33 143.24 302.976C143.083 303.566 142.906 304.157 142.906 304.786C142.887 306.518 145.3 306.754 148.086 306.675Z" fill="#233862"/>
<path d="M122.875 234.054C131.586 233.799 157.562 235.884 162.564 239.662C168.705 244.305 151.146 294.555 151.146 294.555C151.146 294.555 149.106 294.752 148.458 294.673C145.672 294.358 144.534 293.512 144.534 293.512C144.534 293.512 144.593 263.941 146.653 258.274C148.556 253.041 149.714 251.191 147.34 250.877C144.966 250.562 115.321 254.359 112.849 245.387C110.927 238.383 113.772 231.89 113.772 231.89C113.772 231.89 114.851 234.29 122.875 234.054Z" fill="#F99746"/>
<path d="M119.167 189.688C119.167 189.688 113.124 190.199 112.653 195C112.3 198.64 109.671 224.434 111.555 226.677C116.891 232.992 134.646 234.33 137.256 235.294L137.982 232.304C137.982 232.304 119.01 222.722 119.304 220.538C119.598 218.374 124.955 188.822 119.167 189.688Z" fill="#F9DDBF"/>
<path d="M123.836 163.067C123.836 163.067 124.268 160.313 120.442 159.585C116.616 158.876 116.558 167.022 116.146 168.97C115.734 170.937 116.754 172.118 118.206 172.236C119.657 172.354 123.836 163.067 123.836 163.067Z" fill="#163560"/>
<path d="M138.178 232.166C138.178 232.166 143.573 230.631 144.868 230.985C146.163 231.339 150.558 234.271 149.949 235.058C149.322 235.845 145.437 234.586 143.652 234.822C141.866 235.058 140.473 235.943 139.198 235.747C137.903 235.55 136.569 235.058 136.569 235.058L138.178 232.166Z" fill="#FFB27D"/>
<path d="M138.178 232.166C138.178 232.166 140.827 230.808 141.572 230.021C141.67 229.923 141.827 229.942 141.906 230.06C142.102 230.375 142.298 230.985 141.376 231.615C140.042 232.5 138.178 232.166 138.178 232.166Z" fill="#FFB27D"/>
<path d="M157.11 232.835C157.11 232.835 162.721 233.15 163.82 233.897C164.919 234.665 168.136 238.856 167.293 239.406C166.449 239.957 163.192 237.498 161.427 237.144C159.661 236.79 158.072 237.183 156.914 236.573C155.757 235.963 154.658 235.058 154.658 235.058L157.11 232.835Z" fill="#FFB27D"/>
<path d="M118.618 308.249H95.8005C94.7018 306.911 95.1138 301.953 95.2708 300.339C95.31 300.005 95.3296 299.828 95.3296 299.828C95.3296 299.828 103.118 293.591 104.178 298.372C104.217 298.529 104.256 298.667 104.296 298.805C105.649 303.271 111.692 305.317 115.184 305.888C117.46 306.242 118.304 307.422 118.618 308.249Z" fill="#1B3051"/>
<path d="M56.3854 233.936C57.2095 233.936 95.4472 241.137 101.765 248.987C104.923 252.903 105.394 298.214 105.394 298.214C105.394 298.214 101.49 303.074 93.0341 300.261C93.0341 300.261 86.8344 269.272 87.3053 259.868C87.423 257.271 61.1725 259.494 56.3658 258.235C51.5591 256.995 39.8269 246.508 42.4166 241.393C45.0259 236.297 56.3854 233.936 56.3854 233.936Z" fill="#233862"/>
<path d="M84.0683 231.812C84.0683 231.812 86.5207 233.936 89.0319 234.527C90.4641 234.861 91.8571 235.255 92.6811 235.628C94.9569 236.671 99.2535 241.334 98.8612 241.806C97.5859 243.302 92.4064 239.426 91.4059 239.701C90.4249 239.977 93.0343 242.22 91.9944 242.83C91.4451 243.144 90.4249 241.197 89.4832 240.921C88.1883 240.547 87.3447 238.599 86.9523 238.462C86.2068 238.206 83.0481 235.373 83.0481 235.373L84.0683 231.812Z" fill="#FFB27D"/>
<path d="M128.702 308.249H105.885C104.786 306.911 105.198 301.953 105.355 300.339C105.394 300.005 105.414 299.828 105.414 299.828C105.414 299.828 113.203 293.591 114.262 298.372C114.301 298.529 114.341 298.667 114.38 298.805C115.734 303.271 121.776 305.317 125.268 305.888C127.544 306.242 128.388 307.422 128.702 308.249Z" fill="#1E3C68"/>
<path d="M67.6667 233.936C68.4907 233.936 106.728 241.137 113.046 248.987C116.205 252.903 116.675 298.214 116.675 298.214C116.675 298.214 112.771 303.074 104.315 300.261C104.315 300.261 98.1157 269.272 98.5865 259.868C98.7042 257.271 72.4538 259.494 67.6471 258.235C62.8404 256.995 51.1081 246.508 53.6978 241.393C56.2876 236.297 67.6667 233.936 67.6667 233.936Z" fill="#2B478B"/>
<path d="M65.273 187.346C62.5263 187.11 59.6423 186.382 57.1506 185.575C54.0312 184.552 51.5199 183.076 53.1483 180.223C54.6394 177.587 57.0526 171.704 56.8956 166.844L62.7029 171.527L66.6463 174.714C66.6463 174.714 66.6267 176.583 66.1951 179.889C66.1166 180.479 66.0185 181.128 65.9204 181.837C65.8419 182.388 66.097 182.958 66.5679 183.253C66.6071 183.273 66.6267 183.293 66.6659 183.312C68.569 184.493 67.5684 187.523 65.273 187.346Z" fill="#FFB27D"/>
<path d="M66.6072 173.928C66.6072 173.928 66.8034 174.616 66.4699 177.135C62.958 176.564 59.6816 173.75 59.6816 173.75C61.467 173.259 62.1144 171.33 63.4485 171.508L66.6072 173.928Z" fill="#ED975D"/>
<path d="M69.864 174.498C69.864 174.498 56.366 176.741 55.0907 168.3C53.8155 159.84 51.2257 154.429 59.7993 152.639C68.3729 150.848 70.531 153.819 71.6493 156.534C72.7284 159.25 73.3365 173.691 69.864 174.498Z" fill="#FFB27D"/>
<path d="M73.6113 152.796C74.1998 154.843 72.6303 157.322 70.0406 158.128C66.1756 159.348 67.0192 164.09 65.2927 164.031C63.5466 163.972 62.8403 161.296 61.2904 163.421C59.9563 165.231 62.3891 167.395 62.2322 168.399C61.9379 170.11 59.2696 173.613 56.8565 173.435C54.4433 173.258 49.9309 161.768 50.8334 158.207C51.7359 154.646 55.3458 150.908 58.7596 150.376C62.1733 149.865 66.9211 151.34 68.0198 151.34C69.0989 151.36 73.2974 151.695 73.6113 152.796Z" fill="#2B478B"/>
<path d="M76.9661 231.398C76.7307 233.346 76.3383 234.684 75.6908 235.117C73.6701 236.474 71.0019 238.147 68.0197 239.819C57.445 245.721 42.9857 251.427 40.0428 241.452C36.5898 229.726 38.8656 207.709 42.2401 194.015C44.1824 186.126 49.5973 177.862 53.2269 177.882C59.4462 177.902 68.3729 179.535 71.9828 188.467C73.3758 191.93 75.4358 203.912 76.4756 214.891C77.123 221.423 77.3977 227.601 76.9661 231.398Z" fill="white"/>
<path d="M52.6187 177.941L54.0312 174.754C54.0312 174.754 66.509 176.033 68.6279 183.214C68.6279 183.234 58.9753 178.099 52.6187 177.941Z" fill="#DFEBFD"/>
<path d="M76.966 231.398C76.7306 233.346 76.3382 234.684 75.6907 235.117C73.67 236.474 71.0018 238.147 68.0196 239.819C64.9198 237.93 58.524 233.405 57.0329 228.073C55.0906 221.108 56.4443 212.53 56.4443 212.53L76.966 231.398Z" fill="#DFEBFD"/>
<path d="M55.1497 188.664C55.1497 188.664 56.2287 218.629 57.9356 224.551C60.8392 234.645 87.2466 238.245 87.2466 238.245C87.2466 238.245 88.7965 236.475 88.1099 233.543C88.1099 233.543 72.3164 221.049 71.8456 218.688C71.3747 216.308 75.2789 200.213 70.8254 194.35C66.3718 188.487 58.1514 183.411 55.1497 188.664Z" fill="white"/>
<path d="M22.0323 307.974H21.9538C21.2475 307.954 20.6982 307.384 20.757 306.715L25.5049 259.18L29.6445 259.553L22.817 307.325C22.7778 307.698 22.4246 307.974 22.0323 307.974Z" fill="#77A4E5"/>
<path d="M46.4583 307.974H46.3798C45.6735 307.954 45.1242 307.384 45.183 306.715L49.9309 259.18L54.0705 259.553L47.243 307.325C47.2038 307.698 46.8507 307.974 46.4583 307.974Z" fill="#77A4E5"/>
<path d="M92.3278 307.974H92.4063C93.1126 307.954 93.6619 307.384 93.6031 306.715L88.8552 259.18L84.7156 259.553L91.5234 307.344C91.5823 307.698 91.9158 307.974 92.3278 307.974Z" fill="#77A4E5"/>
<path d="M23.3665 252.431L18.854 212.727C18.2655 207.001 20.1685 201.394 28.4086 200.961L42.8875 200.076C51.4807 199.721 55.3457 206.883 56.4248 212.392L65.018 256.031L23.3665 252.431Z" fill="#77A4E5"/>
<path d="M25.7991 259.849H90.0715C91.3664 259.849 92.4258 258.786 92.4258 257.488V254.595C92.4258 253.297 91.3664 252.234 90.0715 252.234H23.4448V257.488C23.4448 258.806 24.5043 259.849 25.7991 259.849Z" fill="#77A4E5"/>
<path d="M25.2694 259.849H63.2325C64.2331 259.849 65.0571 259.022 65.0571 258.019V254.064C65.0571 253.061 64.2331 252.234 63.2325 252.234H23.4448V258.019C23.4448 259.042 24.2688 259.849 25.2694 259.849Z" fill="#77A4E5"/>
<path d="M571.202 310H3.79765C3.35019 310 3 309.681 3 309.311V308.689C3 308.303 3.36964 308 3.79765 308H571.202C571.65 308 572 308.319 572 308.689V309.311C572 309.697 571.63 310 571.202 310Z" fill="#BABABA"/>
<path d="M125.229 131.842H102.981C101.961 131.842 101.117 130.996 101.117 129.973V108.429C101.117 107.406 101.961 106.56 102.981 106.56H125.229C126.249 106.56 127.093 107.406 127.093 108.429V129.973C127.093 130.996 126.249 131.842 125.229 131.842Z" fill="#77A4E5"/>
<path d="M124.268 130.741H103.942C103.001 130.741 102.255 129.973 102.255 129.049V109.374C102.255 108.429 103.02 107.682 103.942 107.682H124.268C125.21 107.682 125.955 108.449 125.955 109.374V129.049C125.955 129.973 125.21 130.741 124.268 130.741Z" fill="#DFEBFD"/>
<path d="M114.105 110.495C114.398 110.495 114.635 110.257 114.635 109.964C114.635 109.67 114.398 109.433 114.105 109.433C113.813 109.433 113.575 109.67 113.575 109.964C113.575 110.257 113.813 110.495 114.105 110.495Z" fill="#77A4E5"/>
<path d="M118.382 111.518C118.675 111.518 118.912 111.28 118.912 110.987C118.912 110.693 118.675 110.456 118.382 110.456C118.09 110.456 117.853 110.693 117.853 110.987C117.853 111.28 118.09 111.518 118.382 111.518Z" fill="#77A4E5"/>
<path d="M121.914 114.686C122.206 114.686 122.443 114.448 122.443 114.155C122.443 113.861 122.206 113.624 121.914 113.624C121.621 113.624 121.384 113.861 121.384 114.155C121.384 114.448 121.621 114.686 121.914 114.686Z" fill="#77A4E5"/>
<path d="M123.464 119.349C123.756 119.349 123.993 119.111 123.993 118.818C123.993 118.524 123.756 118.287 123.464 118.287C123.171 118.287 122.934 118.524 122.934 118.818C122.934 119.111 123.171 119.349 123.464 119.349Z" fill="#77A4E5"/>
<path d="M122.149 124.523C122.442 124.523 122.679 124.286 122.679 123.992C122.679 123.699 122.442 123.461 122.149 123.461C121.857 123.461 121.619 123.699 121.619 123.992C121.619 124.286 121.857 124.523 122.149 124.523Z" fill="#77A4E5"/>
<path d="M118.775 127.908C119.067 127.908 119.304 127.67 119.304 127.376C119.304 127.083 119.067 126.845 118.775 126.845C118.482 126.845 118.245 127.083 118.245 127.376C118.245 127.67 118.482 127.908 118.775 127.908Z" fill="#77A4E5"/>
<path d="M114.105 129.285C114.398 129.285 114.635 129.047 114.635 128.753C114.635 128.46 114.398 128.222 114.105 128.222C113.813 128.222 113.575 128.46 113.575 128.753C113.575 129.047 113.813 129.285 114.105 129.285Z" fill="#77A4E5"/>
<path d="M109.809 111.518C110.101 111.518 110.338 111.28 110.338 110.987C110.338 110.693 110.101 110.456 109.809 110.456C109.516 110.456 109.279 110.693 109.279 110.987C109.279 111.28 109.516 111.518 109.809 111.518Z" fill="#77A4E5"/>
<path d="M106.277 114.686C106.57 114.686 106.807 114.448 106.807 114.154C106.807 113.861 106.57 113.623 106.277 113.623C105.984 113.623 105.747 113.861 105.747 114.154C105.747 114.448 105.984 114.686 106.277 114.686Z" fill="#77A4E5"/>
<path d="M104.727 119.349C105.02 119.349 105.257 119.111 105.257 118.817C105.257 118.524 105.02 118.286 104.727 118.286C104.435 118.286 104.198 118.524 104.198 118.817C104.198 119.111 104.435 119.349 104.727 119.349Z" fill="#77A4E5"/>
<path d="M106.042 124.523C106.334 124.523 106.571 124.286 106.571 123.992C106.571 123.699 106.334 123.461 106.042 123.461C105.749 123.461 105.512 123.699 105.512 123.992C105.512 124.286 105.749 124.523 106.042 124.523Z" fill="#77A4E5"/>
<path d="M109.416 127.907C109.709 127.907 109.946 127.669 109.946 127.376C109.946 127.083 109.709 126.845 109.416 126.845C109.124 126.845 108.886 127.083 108.886 127.376C108.886 127.669 109.124 127.907 109.416 127.907Z" fill="#77A4E5"/>
<path d="M114.497 119.349C114.79 119.349 115.027 119.111 115.027 118.818C115.027 118.524 114.79 118.287 114.497 118.287C114.205 118.287 113.968 118.524 113.968 118.818C113.968 119.111 114.205 119.349 114.497 119.349Z" fill="#77A4E5"/>
<path d="M114.556 112.089H114.419V118.837H114.556V112.089Z" fill="#77A4E5"/>
<path d="M118.128 116.175L117.861 115.835L114.296 118.641L114.563 118.982L118.128 116.175Z" fill="#77A4E5"/>
</svg>
