<svg width="326" height="326" viewBox="0 0 326 326" fill="none" xmlns="http://www.w3.org/2000/svg">
<mask id="mask0_421_7668" style="mask-type:luminance" maskUnits="userSpaceOnUse" x="47" y="22" width="232" height="132">
<path d="M58.4848 153.611H267.516C273.449 153.611 278.209 148.786 278.209 142.918V33.3823C278.209 27.4491 273.384 22.6895 267.516 22.6895H58.4848C52.5516 22.6895 47.792 27.5143 47.792 33.3823V142.918C47.792 148.786 52.5516 153.611 58.4848 153.611Z" fill="white"/>
</mask>
<g mask="url(#mask0_421_7668)">
<path d="M278.274 22.624H47.792V162.282H278.274V22.624Z" fill="#DBDFFF"/>
</g>
<mask id="mask1_421_7668" style="mask-type:luminance" maskUnits="userSpaceOnUse" x="47" y="22" width="232" height="132">
<path d="M58.4848 153.611H267.516C273.449 153.611 278.209 148.786 278.209 142.918V33.3823C278.209 27.4491 273.384 22.6895 267.516 22.6895H58.4848C52.5516 22.6895 47.792 27.5143 47.792 33.3823V142.918C47.792 148.786 52.5516 153.611 58.4848 153.611Z" fill="white"/>
</mask>
<g mask="url(#mask1_421_7668)">
<path d="M281.208 55.7461H42.7061V59.7233H281.208V55.7461Z" fill="white"/>
</g>
<mask id="mask2_421_7668" style="mask-type:luminance" maskUnits="userSpaceOnUse" x="47" y="22" width="232" height="132">
<path d="M58.4848 153.611H267.516C273.449 153.611 278.209 148.786 278.209 142.918V33.3823C278.209 27.4491 273.384 22.6895 267.516 22.6895H58.4848C52.5516 22.6895 47.792 27.5143 47.792 33.3823V142.918C47.792 148.786 52.5516 153.611 58.4848 153.611Z" fill="white"/>
</mask>
<g mask="url(#mask2_421_7668)">
<path d="M219.398 18.8428H215.355V162.283H219.398V18.8428Z" fill="white"/>
<path d="M113.252 18.8428H109.21V162.283H113.252V18.8428Z" fill="white"/>
</g>
<mask id="mask3_421_7668" style="mask-type:luminance" maskUnits="userSpaceOnUse" x="47" y="22" width="232" height="132">
<path d="M58.4848 153.611H267.516C273.449 153.611 278.209 148.786 278.209 142.918V33.3823C278.209 27.4491 273.384 22.6895 267.516 22.6895H58.4848C52.5516 22.6895 47.792 27.5143 47.792 33.3823V142.918C47.792 148.786 52.5516 153.611 58.4848 153.611Z" fill="white"/>
</mask>
<g mask="url(#mask3_421_7668)">
<path d="M281.143 51.9644H42.3154V53.0728H281.143V51.9644Z" fill="white"/>
</g>
<mask id="mask4_421_7668" style="mask-type:luminance" maskUnits="userSpaceOnUse" x="47" y="22" width="232" height="132">
<path d="M58.4848 153.611H267.516C273.449 153.611 278.209 148.786 278.209 142.918V33.3823C278.209 27.4491 273.384 22.6895 267.516 22.6895H58.4848C52.5516 22.6895 47.792 27.5143 47.792 33.3823V142.918C47.792 148.786 52.5516 153.611 58.4848 153.611Z" fill="white"/>
</mask>
<g mask="url(#mask4_421_7668)">
<path d="M281.143 47.4653H42.3154V48.5737H281.143V47.4653Z" fill="white"/>
</g>
<mask id="mask5_421_7668" style="mask-type:luminance" maskUnits="userSpaceOnUse" x="47" y="22" width="232" height="132">
<path d="M58.4848 153.611H267.516C273.449 153.611 278.209 148.786 278.209 142.918V33.3823C278.209 27.4491 273.384 22.6895 267.516 22.6895H58.4848C52.5516 22.6895 47.792 27.5143 47.792 33.3823V142.918C47.792 148.786 52.5516 153.611 58.4848 153.611Z" fill="white"/>
</mask>
<g mask="url(#mask5_421_7668)">
<path d="M281.143 42.9668H42.3154V44.0752H281.143V42.9668Z" fill="white"/>
</g>
<mask id="mask6_421_7668" style="mask-type:luminance" maskUnits="userSpaceOnUse" x="47" y="22" width="232" height="132">
<path d="M58.4848 153.611H267.516C273.449 153.611 278.209 148.786 278.209 142.918V33.3823C278.209 27.4491 273.384 22.6895 267.516 22.6895H58.4848C52.5516 22.6895 47.792 27.5143 47.792 33.3823V142.918C47.792 148.786 52.5516 153.611 58.4848 153.611Z" fill="white"/>
</mask>
<g mask="url(#mask6_421_7668)">
<path d="M281.143 38.4678H42.3154V39.5762H281.143V38.4678Z" fill="white"/>
</g>
<mask id="mask7_421_7668" style="mask-type:luminance" maskUnits="userSpaceOnUse" x="47" y="22" width="232" height="132">
<path d="M58.4848 153.611H267.516C273.449 153.611 278.209 148.786 278.209 142.918V33.3823C278.209 27.4491 273.384 22.6895 267.516 22.6895H58.4848C52.5516 22.6895 47.792 27.5143 47.792 33.3823V142.918C47.792 148.786 52.5516 153.611 58.4848 153.611Z" fill="white"/>
</mask>
<g mask="url(#mask7_421_7668)">
<path d="M281.143 33.9038H42.3154V35.0122H281.143V33.9038Z" fill="white"/>
</g>
<mask id="mask8_421_7668" style="mask-type:luminance" maskUnits="userSpaceOnUse" x="47" y="22" width="232" height="132">
<path d="M58.4848 153.611H267.516C273.449 153.611 278.209 148.786 278.209 142.918V33.3823C278.209 27.4491 273.384 22.6895 267.516 22.6895H58.4848C52.5516 22.6895 47.792 27.5143 47.792 33.3823V142.918C47.792 148.786 52.5516 153.611 58.4848 153.611Z" fill="white"/>
</mask>
<g mask="url(#mask8_421_7668)">
<path d="M281.143 29.4053H42.3154V30.5137H281.143V29.4053Z" fill="white"/>
</g>
<mask id="mask9_421_7668" style="mask-type:luminance" maskUnits="userSpaceOnUse" x="47" y="22" width="232" height="132">
<path d="M58.4848 153.611H267.516C273.449 153.611 278.209 148.786 278.209 142.918V33.3823C278.209 27.4491 273.384 22.6895 267.516 22.6895H58.4848C52.5516 22.6895 47.792 27.5143 47.792 33.3823V142.918C47.792 148.786 52.5516 153.611 58.4848 153.611Z" fill="white"/>
</mask>
<g mask="url(#mask9_421_7668)">
<path d="M281.143 24.9062H42.3154V26.0147H281.143V24.9062Z" fill="white"/>
</g>
<path d="M279.512 288.836C289.811 288.836 298.16 287.172 298.16 285.12C298.16 283.067 289.811 281.403 279.512 281.403C269.214 281.403 260.865 283.067 260.865 285.12C260.865 287.172 269.214 288.836 279.512 288.836Z" fill="#E0E6FF"/>
<path d="M278.469 243.913C285.202 243.913 290.661 242.804 290.661 241.436C290.661 240.067 285.202 238.958 278.469 238.958C271.735 238.958 266.276 240.067 266.276 241.436C266.276 242.804 271.735 243.913 278.469 243.913Z" fill="#939FFF"/>
<path d="M281.273 205.836C275.601 203.554 270.906 202.902 267.646 187.971C265.69 178.843 265.364 168.085 265.364 168.085C265.364 168.085 282.838 183.342 284.207 193.644C285.641 203.88 281.273 205.836 281.273 205.836Z" fill="#C1CAFF"/>
<path d="M274.231 185.82C274.231 185.82 279.578 195.209 281.273 205.836C283.881 222.136 280.947 269.276 280.947 269.276" stroke="#939FFF" stroke-width="0.75" stroke-miterlimit="10" stroke-linecap="round" stroke-linejoin="round"/>
<path d="M276.252 219.072C276.252 219.072 284.207 210.857 275.926 201.794C267.711 192.731 258.844 189.862 258.844 189.862C258.844 189.862 259.561 204.011 264.451 212.095C269.276 220.245 276.252 219.072 276.252 219.072Z" fill="#939FFF"/>
<path d="M281.012 271.102C281.012 271.102 284.272 247.108 274.883 217.051C272.731 210.075 265.233 197.426 265.233 197.426" stroke="#C1CAFF" stroke-width="0.75" stroke-miterlimit="10" stroke-linecap="round" stroke-linejoin="round"/>
<path d="M284.598 210.922C284.598 210.922 276.187 200.164 283.946 184.777C291.705 169.39 300.442 163.13 300.442 163.13C300.442 163.13 300.507 184.712 296.073 197.947C291.64 211.183 284.598 210.922 284.598 210.922Z" fill="#939FFF"/>
<path d="M281.012 269.276C281.012 269.276 281.925 228.069 284.598 210.922C286.293 199.968 294.508 175.844 294.508 175.844" stroke="#C1CAFF" stroke-width="0.75" stroke-miterlimit="10" stroke-linecap="round" stroke-linejoin="round"/>
<path d="M314.198 193.774C314.198 193.774 305.005 204.402 300.572 207.662C292.552 213.53 286.814 210.857 288.836 204.467C291.509 195.861 314.198 193.774 314.198 193.774Z" fill="#C1CAFF"/>
<path d="M304.223 198.665C300.506 201.077 276.513 207.793 280.164 269.667" stroke="#939FFF" stroke-width="0.75" stroke-miterlimit="10" stroke-linecap="round" stroke-linejoin="round"/>
<path d="M248.086 213.66C248.086 213.66 257.279 224.288 261.713 227.548C269.732 233.416 275.47 230.743 273.449 224.353C270.841 215.812 248.086 213.66 248.086 213.66Z" fill="#C1CAFF"/>
<path d="M257.475 219.007C261.191 221.419 284.598 225.331 281.012 269.276" stroke="#939FFF" stroke-width="0.75" stroke-miterlimit="10" stroke-linecap="round" stroke-linejoin="round"/>
<path d="M284.989 228.656C289.358 227.874 292.878 228.069 297.312 218.55C299.985 212.747 301.68 205.641 301.68 205.641C301.68 205.641 286.945 213.53 284.533 220.18C282.12 226.831 284.989 228.656 284.989 228.656Z" fill="#939FFF"/>
<path d="M293.921 214.312C293.921 214.312 286.423 224.353 283.555 231.068C277.752 244.891 279.708 267.254 279.708 267.254" stroke="#C1CAFF" stroke-width="0.75" stroke-miterlimit="10" stroke-linecap="round" stroke-linejoin="round"/>
<path d="M266.342 284.728C266.342 284.728 270.906 286.684 279.903 286.684C286.032 286.684 290.596 284.728 290.596 284.728V241.436C290.596 241.436 289.488 243.196 279.447 243.196C268.298 243.196 266.342 241.436 266.342 241.436V284.728Z" fill="#D1D4FB"/>
<path d="M50.5956 296.725H50.6608C62.0056 295.421 72.7636 292.096 84.1736 291.313C89.3896 290.987 94.9316 290.466 99.4304 287.988C102.886 286.032 106.602 281.99 100.995 280.099C96.3008 278.534 91.0196 278.534 86.0644 278.208C80.1312 277.817 74.198 277.295 68.33 277.882C61.6144 278.599 55.3552 281.077 48.6396 281.859C44.7928 282.316 40.946 282.576 37.1644 283.294C32.796 284.076 19.1692 286.814 25.2328 292.617C30.7096 297.833 43.2932 297.507 50.5956 296.725Z" fill="#E0E6FF"/>
<path d="M127.531 289.944C129.487 290.336 131.443 290.531 132.943 290.792C138.354 291.77 143.766 292.748 148.656 295.682C156.415 300.311 164.5 303.832 173.367 303.767C180.734 303.702 187.841 301.68 195.078 300.246C204.663 298.355 214.573 298.16 224.027 295.617C226.309 294.965 228.656 294.052 229.634 292.552C231.395 289.749 227.678 286.815 223.571 285.315C215.616 282.446 206.032 282.381 196.969 283.164C192.862 283.49 188.754 283.946 184.581 283.881C168.281 283.49 153.416 277.817 136.659 278.078C132.291 278.143 126.749 278.143 122.772 280.556C120.62 281.86 119.707 283.49 121.076 286.098C122.38 288.38 124.923 289.358 127.531 289.944Z" fill="#E0E6FF"/>
<path d="M70.2208 266.211L69.96 279.186L77.2624 278.599L78.5664 265.364L70.2208 266.211Z" fill="#FFC5B3"/>
<path d="M85.1515 283.685C86.6511 283.489 87.7595 284.011 88.2159 284.858C88.6723 285.641 87.5639 288.184 84.6951 288.901C81.1091 289.748 79.2183 289.553 77.3275 289.162C74.1979 288.51 72.6331 286.423 70.6119 286.554C68.5255 286.684 67.0259 285.706 67.1563 284.011C67.2867 282.316 68.7211 280.946 69.3079 280.946C69.8947 280.881 85.1515 283.685 85.1515 283.685Z" fill="white"/>
<path d="M79.8706 277.882C79.4794 277.165 78.1102 275.73 77.4582 275.73C72.9594 275.796 74.0678 277.686 72.8942 278.012C71.0034 278.469 70.3514 277.882 70.0254 276.969C70.0254 276.969 69.1126 276.643 69.1126 277.752C69.0474 278.86 68.0694 278.86 68.0042 280.881C67.8738 282.902 69.8298 284.924 72.2422 285.315C74.6546 285.706 77.0018 287.988 80.7182 288.184C85.4126 288.444 87.5642 287.336 88.151 285.836C88.7378 284.337 86.9122 282.772 83.3262 280.751C80.327 279.121 80.2618 278.664 79.8706 277.882Z" fill="#2603C2"/>
<path d="M60.9629 171.28C60.9629 171.28 64.8097 203.424 65.1357 210.205C65.3313 213.53 67.3525 221.941 67.9393 236.546C68.5913 252.194 69.6997 273.123 69.6997 273.123C69.6997 273.123 77.7845 274.362 77.7845 274.101C77.7845 273.97 82.1529 248.282 84.6305 231.59C86.5213 218.681 86.4561 207.271 87.1081 198.469C88.3469 181.647 86.8473 156.676 86.8473 156.676L72.5685 150.677L60.9629 171.28Z" fill="#4C3CFF"/>
<path d="M71.5905 246.847C72.5685 235.568 74.0681 224.549 72.5685 213.269C70.9385 201.338 75.3721 179.039 72.6337 167.368C71.9817 164.5 62.0061 172.976 61.6801 170.107L60.9629 171.346C60.9629 171.346 64.8097 203.489 65.1357 210.27C65.3313 213.595 67.3525 222.006 67.9393 236.611C68.5913 252.259 69.6997 273.188 69.6997 273.188C69.6997 273.188 70.1561 273.253 70.8081 273.384C70.4169 264.516 70.8733 255.649 71.5905 246.847Z" fill="#2A0EEE"/>
<path d="M44.6624 269.145L44.4668 282.055L51.704 281.468L53.0732 268.232L44.6624 269.145Z" fill="#FFC5B3"/>
<path d="M78.11 148.591C78.11 148.591 77.0016 153.546 75.4368 160.457C72.894 171.867 69.0472 188.623 66.8956 197.686C65.396 204.011 62.5924 219.333 59.854 234.655C56.3332 254.606 52.9428 274.557 52.9428 274.557L47.0096 274.753L43.4888 275.079C43.4888 275.079 43.88 248.281 43.2932 217.637C43.0324 203.489 41.1416 185.298 41.1416 178.126C41.2068 155.371 48.1832 142.136 48.1832 142.136L78.11 148.591Z" fill="#4C3CFF"/>
<path d="M78.11 148.591C78.11 148.591 77.0016 153.546 75.4368 160.457C66.048 161.891 55.6812 163.13 52.0952 163.13C46.488 163.13 49.096 187.319 50.7912 200.751C52.5516 214.117 49.9436 231.851 47.3356 243.522C45.3796 252.324 46.3576 267.841 47.0096 274.883L43.4888 275.209C43.4888 275.209 43.88 248.412 43.2932 217.768C43.0324 203.619 41.1416 185.429 41.1416 178.257C41.2068 155.502 48.1832 142.266 48.1832 142.266L78.11 148.591Z" fill="#2A0EEE"/>
<path d="M59.5929 286.619C61.0925 286.424 62.2009 286.945 62.6573 287.793C63.1137 288.575 62.0053 291.118 59.1365 291.835C55.5505 292.683 53.6597 292.487 51.7689 292.096C48.6393 291.444 47.0745 289.358 45.0533 289.488C42.9669 289.618 41.4673 288.64 41.5977 286.945C41.7281 285.25 43.1625 283.881 43.7493 283.881C44.3361 283.75 59.5929 286.619 59.5929 286.619Z" fill="white"/>
<path d="M54.312 280.751C53.9208 280.034 52.5516 278.6 51.8996 278.6C47.4008 278.665 48.5092 280.556 47.3356 280.882C45.4448 281.338 44.7928 280.751 44.4668 279.838C44.4668 279.838 43.554 279.512 43.554 280.621C43.4888 281.729 42.5108 281.729 42.4456 283.75C42.3152 285.772 44.2712 287.793 46.6836 288.184C49.096 288.575 51.4432 290.857 55.1596 291.053C59.854 291.314 62.0056 290.205 62.5924 288.706C63.1792 287.206 61.3536 285.641 57.7676 283.62C54.7684 281.99 54.7684 281.534 54.312 280.751Z" fill="#2603C2"/>
<path d="M99.0389 100.343C100.017 98.452 100.864 93.8228 100.864 93.8228L107.971 96.5612C109.667 102.364 122.25 125.184 124.858 128.77C126.032 130.465 151.199 142.918 151.199 142.918L149.895 150.221C149.895 150.221 126.227 146.635 115.143 139.789C112.014 137.898 111.101 135.16 109.21 132.552C105.885 128.183 97.9305 120.555 96.2353 113.252C94.4749 105.95 96.6917 104.972 99.0389 100.343Z" fill="#F32577"/>
<path d="M92.1936 71.7852C92.1936 71.7852 91.9328 72.6328 90.368 75.2408C88.8032 77.8488 85.6736 80.7176 84.5652 81.3044C83.4568 81.8912 78.1104 83.456 76.7412 83.5212C76.7412 83.5212 81.7616 98.7128 89.4552 101.908C104.125 108.036 102.56 91.9972 102.56 91.9972C102.56 91.9972 98.7788 87.7592 97.8008 85.6076C97.214 84.3036 98.9744 79.2832 98.9744 79.2832L92.1936 71.7852Z" fill="#FFBCAA"/>
<path d="M98.974 87.5637C98.974 87.5637 98.5176 94.3445 91.0196 93.4317C81.9568 92.3233 81.4352 82.3477 81.4352 82.3477L72.1768 83.9125L78.5664 103.668L97.67 109.014L104.125 91.9321L98.974 87.5637Z" fill="white"/>
<path d="M94.6055 137.246C96.4963 132.486 108.037 96.4959 108.037 96.4959L99.4955 86.5203C99.4955 86.5203 98.9087 104.842 90.3675 104.972C78.6967 100.343 78.1751 82.8691 78.1751 82.8691L63.2443 85.9335C63.2443 85.9335 55.0943 111.101 51.7691 120.75C48.4439 130.335 43.8799 153.872 43.8799 153.872C64.5483 162.022 84.3039 160.783 88.9331 158.11C88.9331 158.11 92.7147 142.006 94.6055 137.246Z" fill="#FF498A"/>
<path d="M109.472 63.2438C110.515 64.4826 112.275 66.895 111.949 68.2642C111.689 69.6334 111.037 73.6106 110.189 75.7622C109.341 77.979 107.581 83.7166 106.407 86.2594C105.234 88.8022 104.582 89.5846 103.865 89.8454C103.147 90.1062 96.3666 87.9546 95.2582 86.9114C94.1498 85.8682 89.1946 80.7174 91.1506 75.1754C91.1506 75.1754 88.347 75.6318 87.8254 69.9594C87.695 68.4598 93.563 64.7434 94.6062 63.309C97.0186 59.9186 104.321 63.1786 106.473 63.5046C108.559 63.8958 109.472 63.2438 109.472 63.2438Z" fill="#FFBCAA"/>
<path d="M111.949 68.2642C111.949 68.2642 111.688 66.243 109.993 66.569C108.298 66.895 104.973 66.4386 102.56 65.5258C100.148 64.613 98.1266 62.9178 98.1266 62.9178C98.1266 62.9178 97.0834 66.3734 96.1706 67.1558C95.2578 67.873 93.4322 68.5902 92.9758 69.6986C92.5846 70.807 92.3238 71.9806 92.3238 71.9806C92.3238 71.9806 91.411 69.5682 90.0418 69.5682C88.7378 69.5682 88.0858 71.6546 89.0638 72.9586C89.9766 74.2626 91.0198 75.2406 91.0198 75.2406L91.6066 83.847C91.6066 83.847 88.3466 73.5454 87.6946 69.829C86.7166 64.613 87.7598 59.1362 90.5634 58.6798C90.5634 58.6798 92.1934 53.0726 98.3874 53.7246C104.581 54.4418 114.361 60.8966 114.622 64.0262C114.883 66.6342 111.949 68.2642 111.949 68.2642Z" fill="#0E0097"/>
<path d="M106.668 82.7387C105.886 82.0867 104.777 81.6303 102.821 81.3695C100.604 81.0435 98.4527 81.6303 96.9531 81.5651C95.4535 81.4999 93.1063 78.3051 93.2367 75.1103C93.3671 71.9155 93.7583 68.8511 93.7583 68.8511L92.4543 69.5683C92.4543 69.5683 91.5415 75.1755 90.6939 78.4355C89.8463 81.6303 90.6287 85.5423 93.7583 88.4763C96.8879 91.4103 102.43 92.1275 103.799 91.4103C105.103 90.6931 106.146 88.6719 106.733 86.7811C106.994 85.9987 107.45 84.6947 107.516 83.9775C107.45 83.6515 106.929 82.9343 106.668 82.7387Z" fill="#0E0097"/>
<path d="M105.82 70.8071C104.516 70.2855 103.407 70.2203 102.103 70.8071C101.451 71.0679 101.516 71.5895 102.168 71.3939C103.146 71.0679 104.581 71.1331 105.624 71.5243C106.276 71.7199 106.406 71.0679 105.82 70.8071Z" fill="#0E0097"/>
<path d="M111.492 73.6107C111.623 73.4803 111.427 73.0891 111.231 72.8935C110.775 72.5023 110.188 72.1763 109.732 72.1763C109.406 72.1763 109.406 72.6327 109.667 72.6979C111.101 73.2847 111.297 73.8715 111.492 73.6107Z" fill="#0E0097"/>
<path d="M104.125 75.241C104.32 74.7194 104.125 74.1978 103.603 73.937C103.147 73.6762 102.495 74.0022 102.299 74.4586C102.103 74.9802 102.299 75.5018 102.821 75.7626C103.277 75.9582 103.929 75.6974 104.125 75.241Z" fill="#0E0097"/>
<path d="M109.601 75.7625C109.145 75.5017 108.428 75.7625 108.428 76.2841V76.3493C108.428 76.6753 108.493 76.9361 108.819 77.1317C109.08 77.2621 109.406 77.2621 109.667 77.0665H109.732C110.123 76.7405 110.058 76.0885 109.601 75.7625Z" fill="#0E0097"/>
<path d="M104.646 81.8259C104.386 81.5651 106.016 81.4999 106.146 81.4999C107.254 81.2391 106.472 80.0655 106.211 79.4135C105.95 78.6311 106.146 77.7835 106.342 77.0011C106.407 76.6751 106.863 75.7623 106.994 75.8275C107.059 75.8275 106.537 76.6751 106.537 77.5227C106.472 78.4355 106.928 79.4135 107.124 79.8047C107.32 80.1307 107.711 80.8479 107.45 81.4347C107.385 81.6303 107.124 81.8911 106.668 82.0215C105.69 82.2823 104.907 82.0867 104.646 81.8259Z" fill="#0E0097"/>
<path d="M97.8656 72.2415C97.8656 72.5023 98.3872 72.7631 98.4524 72.8283C98.648 73.0239 98.5176 73.0239 98.7784 74.7843C98.974 76.0883 100.343 77.1315 102.951 77.3271C104.907 77.4575 105.364 75.9579 105.82 75.3711C106.276 74.7843 106.472 74.7191 106.798 74.7843C107.059 74.8495 107.189 74.9799 107.254 75.6971C107.32 76.4143 106.602 78.2399 108.558 78.5659C109.145 78.6963 109.797 78.3051 110.449 77.4575C110.84 76.8707 111.297 76.1535 111.427 75.8927C111.818 75.2407 111.884 74.9799 112.014 74.5235C112.079 74.1323 111.492 73.8063 110.319 73.6107C109.536 73.4803 109.08 73.4803 108.689 73.6107C108.232 73.7411 107.906 74.1323 107.059 73.9367C106.733 73.8715 106.798 73.6107 106.211 73.0891C105.624 72.6327 102.169 71.7199 101.06 71.4591C99.8868 71.1983 98.2568 71.0027 98.0612 71.3939C97.996 71.6547 97.9308 71.9807 97.8656 72.2415ZM108.102 75.1103C108.232 74.5235 108.558 74.2627 109.732 74.4583C111.623 74.7843 111.492 75.2407 110.514 76.8707C109.797 77.9791 109.471 78.3703 108.884 78.3051C107.906 78.2399 107.841 77.3923 107.906 76.4795C107.906 75.5667 108.037 75.3059 108.102 75.1103ZM99.7564 72.1763C100.082 71.9807 102.299 72.6979 103.734 73.0891C105.168 73.4803 105.624 73.6107 105.624 74.1323C105.624 74.3279 105.429 75.0451 104.972 75.8275C104.516 76.6099 104.125 77.3271 101.843 76.8055C100.213 76.4795 99.2348 75.5667 99.1696 74.2627C99.1696 73.1543 99.4956 72.3719 99.7564 72.1763ZM93.1712 71.1983L98.1916 72.6327L99.4956 71.2635C99.4956 71.2635 95.1272 70.2203 94.6708 70.0247C94.2144 69.8291 91.8672 69.8291 91.8672 69.8291L93.1712 71.1983Z" fill="#0E0097"/>
<path d="M154.133 246.847H150.091V273.579H154.133V246.847Z" fill="#94A0FF"/>
<path d="M155.307 241.109H148.853V246.781H155.307V241.109Z" fill="#E1E6FD"/>
<path d="M155.307 270.71H148.853V276.382H155.307V270.71Z" fill="#E1E6FD"/>
<path d="M159.871 230.416H144.223V241.174H159.871V230.416Z" fill="#94A0FF"/>
<path d="M131.835 235.241H173.889C174.345 235.241 174.737 234.85 174.737 234.393V228.004C174.737 227.547 174.345 227.156 173.889 227.156H131.835C131.379 227.156 130.987 227.547 130.987 228.004V234.393C130.987 234.85 131.379 235.241 131.835 235.241Z" fill="#94A0FF"/>
<path d="M136.464 281.794L148.852 275.73V271.427L134.899 280.816L136.464 281.794Z" fill="#94A0FF"/>
<path d="M134.899 285.902C136.483 285.902 137.768 284.617 137.768 283.033C137.768 281.448 136.483 280.164 134.899 280.164C133.315 280.164 132.03 281.448 132.03 283.033C132.03 284.617 133.315 285.902 134.899 285.902Z" fill="#94A0FF"/>
<path d="M152.047 289.813C153.631 289.813 154.915 288.529 154.915 286.944C154.915 285.36 153.631 284.076 152.047 284.076C150.462 284.076 149.178 285.36 149.178 286.944C149.178 288.529 150.462 289.813 152.047 289.813Z" fill="#94A0FF"/>
<path d="M167.629 281.794L155.307 275.73V271.427L169.259 280.816L167.629 281.794Z" fill="#94A0FF"/>
<path d="M169.259 285.902C170.844 285.902 172.128 284.617 172.128 283.033C172.128 281.448 170.844 280.164 169.259 280.164C167.675 280.164 166.391 281.448 166.391 283.033C166.391 284.617 167.675 285.902 169.259 285.902Z" fill="#94A0FF"/>
<path d="M152.829 273.579H151.265V286.945H152.829V273.579Z" fill="#94A0FF"/>
<path d="M121.338 231.655C121.338 231.655 117.687 221.94 117.621 193.839C117.556 165.738 111.493 146.569 112.014 144.157L115.013 141.288H155.698C155.698 141.288 171.737 169.976 173.824 179.756C175.91 189.601 178.844 229.83 178.844 229.83L121.338 231.655Z" fill="#3D2BF9"/>
<path d="M124.989 231.655C124.989 231.655 121.338 221.94 121.273 193.839C121.208 165.738 114.427 143.7 114.949 141.288H159.285C159.285 141.288 175.324 169.976 177.41 179.756C179.497 189.601 182.431 229.83 182.431 229.83L124.989 231.655Z" fill="#7080FF"/>
<path d="M121.338 231.655L130.987 238.045V226.961L121.338 220.571V231.655Z" fill="#3D2BF9"/>
<path d="M191.819 226.961H130.987V238.045H191.819V226.961Z" fill="#3D2BF9"/>
<path d="M121.338 220.571H182.169L191.819 226.961H130.987L121.338 220.571Z" fill="#7080FF"/>
<path d="M140.767 226.961H191.819L182.169 220.571H133.986C135.551 223.049 138.29 225.135 140.767 226.961Z" fill="#3D2BF9"/>
<path d="M192.21 279.121L193.449 286.815C193.449 286.815 194.818 289.683 198.208 289.553C200.034 289.488 203.164 288.445 202.446 287.858C200.686 286.489 200.295 285.25 200.295 285.25L199.773 276.057L192.21 279.121Z" fill="#FFBCAA"/>
<path d="M208.64 291.313C210.009 291.118 211.052 291.574 211.574 292.226C212.095 292.878 212.486 294.508 209.422 295.616C206.292 296.725 203.358 295.877 201.663 295.616C198.729 295.16 197.49 293.791 195.665 293.986C193.774 294.182 192.274 293.334 192.274 291.965C192.274 290.531 193.448 289.357 193.97 289.292C194.361 289.227 208.64 291.313 208.64 291.313Z" fill="white"/>
<path d="M201.859 286.228C200.75 285.445 199.12 286.684 198.012 286.945C196.382 287.401 194.426 286.749 194.035 285.967C193.644 285.184 193.057 285.315 193.122 286.228C193.187 287.14 192.405 287.532 192.535 289.227C192.6 290.922 194.622 292.552 196.838 292.878C199.055 293.139 201.402 295.03 204.923 295.16C209.226 295.29 211.248 294.378 211.574 293.139C211.965 291.835 209.618 290.466 206.553 288.901C203.75 287.466 202.511 286.684 201.859 286.228Z" fill="#2603C2"/>
<path d="M172.715 283.098L173.954 290.791C173.954 290.791 175.323 293.66 178.713 293.53C180.474 293.465 184.06 292.878 183.342 292.356C180.865 290.596 180.8 289.292 180.8 289.292L180.278 280.099L172.715 283.098Z" fill="#FFBCAA"/>
<path d="M152.176 118.533C152.176 118.533 152.176 123.88 152.698 126.357C153.22 128.835 154.328 130.66 154.915 131.247C155.502 131.834 161.826 136.463 161.826 136.463C161.826 136.463 155.241 143.179 150.546 143.244C145.852 143.309 136.007 137.898 136.007 137.898C136.007 137.898 141.092 133.79 141.875 131.704C142.592 129.617 142.983 123.684 142.983 123.684L152.176 118.533Z" fill="#FFBCAA"/>
<path d="M173.562 190.449C172.324 186.015 171.215 181.712 171.215 179.756C171.215 174.866 168.803 138.485 168.803 138.485L159.349 133.986L154.915 131.182C154.915 131.182 158.566 139.397 153.09 140.31C144.418 141.745 141.81 130.661 141.81 130.661L139.593 131.769C139.593 131.704 139.528 131.639 139.528 131.639L124.728 138.941C124.728 138.941 129.944 147.482 130.335 152.307C130.726 157.067 126.553 170.237 127.01 180.017C127.401 189.797 128.64 206.227 128.64 206.227C131.313 206.227 171.476 202.381 171.476 202.381C171.476 202.381 172.193 190.645 173.562 190.449Z" fill="white"/>
<path d="M200.882 280.425L193.775 281.599L191.297 281.99C191.297 281.99 186.668 256.236 183.473 247.043C180.278 237.849 176.692 229.113 176.692 229.113C176.692 229.113 167.108 222.919 161.175 220.767C160.588 220.571 160.066 220.441 159.61 220.311C136.986 214.834 141.615 200.685 141.941 191.623C141.941 191.623 164.826 193.318 170.89 197.556C188.689 210.009 194.362 219.398 195.861 224.353C197.882 230.938 198.013 242.805 198.795 252.259C200.099 268.037 200.882 280.425 200.882 280.425Z" fill="#3D2BF9"/>
<path d="M193.709 281.533L191.232 281.924C191.232 281.924 186.603 256.17 183.408 246.977C180.213 237.784 176.692 229.112 176.692 229.112C176.692 229.112 167.108 222.918 161.175 220.767C156.545 212.291 152.242 207.466 152.242 207.466C152.242 207.466 167.564 214.116 174.671 217.637C181.778 221.158 185.885 224.287 187.45 235.502C188.819 245.738 193.188 264.777 193.709 281.533Z" fill="#2603C2"/>
<path d="M180.604 284.207L173.106 285.837L171.933 286.097C171.933 286.097 162.674 239.61 152.829 229.439C149.569 226.048 140.05 222.919 134.964 220.245C126.945 215.942 128.053 210.27 128.575 202.446C128.64 201.663 128.64 200.881 128.705 200.099H153.742C153.742 200.099 170.433 218.485 172.65 223.505C174.28 227.157 176.823 232.112 178.127 241.761C180.604 260.083 180.604 284.207 180.604 284.207Z" fill="#3D2BF9"/>
<path d="M173.172 285.837L171.998 286.097C171.998 286.097 162.74 239.61 152.894 229.439C149.634 226.048 140.115 222.919 135.03 220.245C127.01 215.942 128.118 210.27 128.64 202.446C128.64 202.446 131.248 209.748 131.704 212.291C133.53 222.332 146.635 213.465 156.611 223.701C166.521 233.937 170.629 252.324 171.15 266.603C171.281 272.471 172.194 279.317 173.172 285.837Z" fill="#2603C2"/>
<path d="M188.493 295.812C189.862 295.617 190.905 296.073 191.427 296.725C191.948 297.377 191.166 299.529 188.558 300.181C185.363 300.963 183.603 300.833 181.842 300.507C178.908 300.05 177.278 298.29 175.387 298.485C173.497 298.681 171.997 297.833 171.997 296.464C171.997 295.03 173.171 293.856 173.692 293.791C174.214 293.726 188.493 295.812 188.493 295.812Z" fill="white"/>
<path d="M182.039 290.791C181.061 290.009 179.039 291.117 177.931 291.443C176.301 291.9 174.345 291.248 173.954 290.465C173.563 289.683 172.976 289.813 173.041 290.726C173.106 291.639 172.324 292.03 172.454 293.725C172.519 295.421 174.541 297.051 176.757 297.377C178.974 297.637 181.321 299.528 184.842 299.659C189.145 299.789 191.036 298.811 191.427 297.572C191.819 296.268 189.993 295.029 186.537 293.399C183.603 292.03 182.625 291.313 182.039 290.791Z" fill="#2603C2"/>
<path d="M276.578 202.446H96.4307V206.814H276.578V202.446Z" fill="#C1CAFF"/>
<path d="M76.8057 191.623H256.953L276.513 202.446H96.4309L76.8057 191.623Z" fill="#D1D4FB"/>
<path d="M96.4309 206.879L76.8057 195.991V191.623L96.4309 202.446V206.879Z" fill="#C1CAFF"/>
<path d="M104.189 300.115H106.797L130.335 206.879H124.858L104.189 300.115Z" fill="#C1CAFF"/>
<path d="M272.08 297.181H269.407L242.609 206.879H248.086L272.08 297.181Z" fill="#C1CAFF"/>
<path d="M91.9316 289.944H94.5396L116.186 206.879H110.709L91.9316 289.944Z" fill="#94A0FF"/>
<path d="M252.063 283.555H249.389L228.525 206.879H234.002L252.063 283.555Z" fill="#94A0FF"/>
<path d="M210.009 187.124L217.768 191.297L221.028 196.969H217.768L213.595 194.426L212.226 196.969L210.009 197.034L207.141 194.752L199.382 188.493L210.009 187.124Z" fill="#FFBCAA"/>
<path d="M185.885 171.346C185.233 170.172 182.756 161.957 180.408 155.176C177.214 156.48 174.019 157.719 170.759 158.893C170.889 161.957 171.15 165.021 171.346 168.086C174.019 174.019 177.018 179.757 179.365 181.517C183.603 184.712 205.25 192.992 205.25 192.992L208.249 186.994C208.184 186.994 186.798 173.106 185.885 171.346Z" fill="#FFBCAA"/>
<path d="M169.52 164.239C173.367 164.239 183.277 162.283 183.277 162.283C183.277 162.283 178.518 149.569 177.279 147.222C174.606 142.006 168.803 138.485 168.803 138.485C168.803 138.485 165.152 143.57 164.043 145.331C159.675 152.438 167.238 161.109 169.52 164.239Z" fill="white"/>
<path d="M170.042 147.743L170.759 163.391C171.02 168.672 171.02 178.778 171.737 181.452" stroke="#A1ADFF" stroke-miterlimit="10" stroke-linecap="round" stroke-linejoin="round"/>
<path d="M169.912 195.078H216.66L193.97 187.841H147.287L169.912 195.078Z" fill="#D1D4FB"/>
<path d="M147.287 187.841L169.912 195.078V197.816L147.287 190.579V187.841Z" fill="#94A0FF"/>
<path d="M160.001 184.842L166.847 185.037L174.475 183.407L182.495 187.841L185.951 190.644L184.125 191.427L181.973 189.992L182.495 191.622L179.496 191.427L178.257 190.644V191.622L175.91 192.274L173.563 190.644L168.607 189.797L163.196 189.275L160.001 184.842Z" fill="#FFBCAA"/>
<path d="M138.289 173.301C136.855 171.28 136.333 166.912 135.746 158.696C131.378 157.392 125.184 156.219 120.881 154.719C121.207 169.194 125.445 182.038 129.878 185.168C135.942 189.536 165.608 189.34 165.608 189.34L166.847 185.037C156.024 183.538 140.767 176.887 138.289 173.301Z" fill="#FFBCAA"/>
<path d="M136.333 165.282C135.877 160.652 135.616 153.154 135.877 150.546C136.464 144.092 127.922 136.985 124.728 139.006C119.838 142.136 120.359 155.567 121.989 167.498C126.292 166.325 132.03 166.194 136.333 165.282Z" fill="white"/>
<path d="M216.594 195.078H169.911V197.817H216.594V195.078Z" fill="#94A0FF"/>
<path d="M171.933 189.471L175.779 190.645L183.864 135.551L181.647 136.79L171.933 189.471Z" fill="#A1ADFF"/>
<path d="M175.779 190.645L245.804 188.232L255.845 134.377L183.864 135.551L175.779 190.645Z" fill="#94A0FF"/>
<path d="M208.575 198.077H219.593L212.226 196.708H201.207L208.575 198.077Z" fill="#E1E6FD"/>
<path d="M219.593 198.077H208.574V200.49H219.593V198.077Z" fill="#94A0FF"/>
<path d="M208.575 200.49L201.207 199.186V196.708L208.575 198.077V200.49Z" fill="#94A0FF"/>
<path d="M206.098 197.621L208.706 198.273L218.094 198.077L219.594 172.649H207.402L206.098 197.621Z" fill="#94A0FF"/>
<path d="M208.706 198.273L219.594 198.077V172.649H208.575L208.706 198.273Z" fill="#C1CAFF"/>
<path d="M121.989 167.564L136.398 165.282C136.398 165.282 136.594 152.242 136.594 149.047" stroke="#A1ADFF" stroke-miterlimit="10" stroke-linecap="round" stroke-linejoin="round"/>
<path d="M136.66 107.45C134.834 110.775 135.421 114.296 135.877 116.512C136.334 118.729 136.79 120.033 136.594 122.902C136.399 125.771 137.246 129.944 140.702 132.16C144.223 134.442 150.808 131.443 152.699 127.662C153.872 125.38 155.763 120.164 156.089 118.208C156.415 116.317 157.524 109.862 154.916 107.254C152.308 104.646 147.874 104.646 143.375 105.494C138.942 106.406 137.442 106.015 136.66 107.45Z" fill="#FFBCAA"/>
<path d="M146.374 110.057C146.374 110.057 148.2 113.187 150.352 114.035C152.177 114.752 152.177 119.185 152.177 119.185L154.916 119.772C155.437 121.337 153.742 125.053 153.742 125.053C153.742 125.053 155.698 123.684 156.415 121.141C157.132 118.599 158.893 116.382 158.11 110.905C157.328 105.819 153.025 105.689 153.025 105.689C153.025 105.689 152.568 102.82 147.157 102.038C141.745 101.255 135.747 104.776 134.964 107.906C134.182 111.035 135.095 114.361 135.095 114.361C135.095 114.361 145.983 112.535 146.374 110.057Z" fill="#0E0097"/>
<path d="M144.614 114.882C145.984 114.687 147.092 114.882 148.2 115.73C148.722 116.121 148.592 116.643 148.005 116.251C147.092 115.665 145.723 115.404 144.614 115.534C143.962 115.665 143.897 114.947 144.614 114.882Z" fill="#0E0097"/>
<path d="M137.899 116.577C137.834 116.382 138.094 116.121 138.355 115.991C138.942 115.73 139.529 115.534 139.985 115.665C140.311 115.73 140.181 116.186 139.92 116.186C138.355 116.382 138.029 116.903 137.899 116.577Z" fill="#0E0097"/>
<path d="M144.028 118.533C143.963 117.947 144.289 117.555 144.81 117.425C145.332 117.295 145.853 117.751 145.919 118.207C145.984 118.794 145.658 119.185 145.136 119.316C144.68 119.446 144.093 118.99 144.028 118.533Z" fill="#0E0097"/>
<path d="M139.073 117.751C139.529 117.62 140.181 118.012 140.116 118.533C140.116 118.533 140.116 118.533 140.116 118.598C140.051 118.924 139.92 119.185 139.594 119.25C139.268 119.316 139.007 119.25 138.812 118.99V118.924C138.355 118.533 138.616 117.881 139.073 117.751Z" fill="#0E0097"/>
<path d="M142.724 124.792C143.05 124.597 141.485 124.14 141.355 124.075C140.311 123.554 141.42 122.576 141.746 122.054C142.202 121.402 142.202 120.489 142.202 119.707C142.202 119.381 142.007 118.403 141.811 118.403C141.746 118.403 142.072 119.316 141.876 120.163C141.681 121.076 141.029 121.924 140.768 122.25C140.507 122.51 139.985 123.097 140.051 123.749C140.116 123.945 140.246 124.271 140.703 124.466C141.615 124.988 142.463 124.988 142.724 124.792Z" fill="#0E0097"/>
<path d="M141.484 126.618C142.528 127.335 144.092 127.075 145.592 125.64C145.592 125.64 144.94 127.335 143.701 127.661C142.462 127.987 141.484 126.618 141.484 126.618Z" fill="#0E0097"/>
<path d="M154.003 116.512C155.111 114.882 157.524 114.817 157.719 116.968C157.85 118.729 157.002 119.185 155.894 120.815C155.111 121.924 153.938 121.402 153.938 121.402C153.938 121.402 153.351 117.555 154.003 116.512Z" fill="#FFBCAA"/>
<path d="M155.307 116.707C155.894 116.121 156.611 116.577 156.872 117.164C157.133 117.816 156.872 117.425 156.285 117.099C155.763 116.773 155.307 117.816 155.437 118.468C155.633 119.315 155.372 120.424 154.655 120.554C153.873 120.685 154.264 120.359 154.264 119.446C154.264 118.533 154.199 119.446 154.329 118.533C154.525 117.686 154.785 117.229 155.307 116.707Z" fill="#E38168"/>
<path d="M97.9958 163.978L104.907 169.65C106.081 170.628 107.971 170.563 109.08 169.585L133.465 147.678C134.573 146.7 134.508 145.135 133.334 144.157L126.553 138.485C124.271 137.246 122.902 137.181 121.794 138.224L97.4742 159.87C96.3006 160.979 96.1702 161.957 97.9958 163.978Z" fill="#94A0FF"/>
<path d="M98.6482 164.565L105.625 170.302C106.798 171.28 108.689 171.215 109.797 170.237L134.313 148.265C135.421 147.287 135.356 145.722 134.182 144.744L127.336 139.006C126.097 138.028 124.141 138.028 123.033 139.006L98.4526 160.914C97.279 161.957 97.4094 163.587 98.6482 164.565Z" fill="#A1ADFF"/>
<path d="M111.362 159.283L110.775 159.023L112.34 158.11L112.731 157.067L112.275 156.806L113.513 155.502L114.035 154.002C114.035 154.002 110.645 153.937 108.558 153.872C106.472 153.807 104.581 153.285 104.581 153.285C104.581 153.285 106.472 151.851 106.798 151.394C107.124 151.003 108.623 150.221 108.623 150.221L106.146 149.373C106.146 149.373 100.213 151.851 99.5607 151.916C98.9739 151.916 95.5835 153.546 90.8239 151.133C89.5199 153.024 88.2159 154.915 86.8467 156.741C91.0847 158.045 94.6707 159.153 96.1703 159.609C101.06 161.109 105.494 162.022 106.146 162.152C106.863 162.283 111.101 160.327 111.036 160.327C111.101 160.196 111.362 159.283 111.362 159.283Z" fill="#FEC4AD"/>
<path d="M61.4842 86.6504C53.7906 91.6708 57.1158 116.577 58.4198 122.706C59.9194 129.943 61.8754 136.659 66.2438 142.07C76.089 154.328 91.5413 159.153 91.5413 159.153L95.8446 152.111C95.8446 152.111 80.7834 141.223 79.2186 129.748C78.3058 122.967 75.6326 103.733 74.7198 98.582C73.3505 90.6928 65.3962 84.0424 61.4842 86.6504Z" fill="#F32577"/>
<path d="M140.702 132.16C142.463 140.832 146.179 151.394 147.222 153.807C149.504 158.957 154.264 159.74 155.829 152.503C157.915 142.853 155.437 131.182 155.437 131.182" stroke="#3D2BF9" stroke-miterlimit="10" stroke-linecap="round" stroke-linejoin="round"/>
<path d="M156.741 158.892H146.831V173.692H156.741V158.892Z" fill="#3D2BF9"/>
<path d="M155.503 160.196H148.005V166.781H155.503V160.196Z" fill="white"/>
<path d="M151.721 159.544C151.46 159.544 151.199 159.349 151.199 159.023V157.653C151.199 157.393 151.395 157.132 151.721 157.132C151.982 157.132 152.242 157.327 152.242 157.653V159.023C152.242 159.349 151.982 159.544 151.721 159.544Z" fill="#3D2BF9"/>
</svg>
