<svg width="9" height="12" viewBox="0 0 9 12" fill="none" xmlns="http://www.w3.org/2000/svg">
<path d="M8.424 1.656H5.44C5.81333 1.85333 6.09333 2.096 6.28 2.384C6.472 2.672 6.59733 3 6.656 3.368H8.424V4.48H6.64C6.53333 5.06133 6.264 5.56533 5.832 5.992C5.40533 6.41867 4.83733 6.72533 4.128 6.912C4.35733 7.03467 4.55467 7.21333 4.72 7.448L8.064 12H6.68C6.40267 12 6.19733 11.8907 6.064 11.672L3.088 7.576C2.99733 7.448 2.89867 7.35733 2.792 7.304C2.69067 7.24533 2.53067 7.216 2.312 7.216H0.968V6.144H2.472C3.224 6.144 3.824 5.992 4.272 5.688C4.72533 5.384 5.01867 4.98133 5.152 4.48H0.952V3.368H5.184C5.08267 2.83467 4.81067 2.424 4.368 2.136C3.92533 1.84267 3.31467 1.696 2.536 1.696H0.968V0.535999H8.424V1.656Z" fill="#111111" fill-opacity="0.65"/>
</svg>
