<svg width="24" height="24" viewBox="0 0 24 24" fill="none" xmlns="http://www.w3.org/2000/svg">
<path d="M18.3284 22.5001C17.4134 22.5001 16.1281 22.1691 14.2034 21.0938C11.8629 19.7813 10.0526 18.5696 7.72481 16.2479C5.48044 14.0049 4.38825 12.5527 2.85965 9.77115C1.13278 6.63052 1.42715 4.98427 1.75622 4.28068C2.14809 3.43974 2.72653 2.93677 3.47419 2.43755C3.89885 2.15932 4.34825 1.92081 4.81669 1.72505C4.86356 1.7049 4.90715 1.68568 4.94606 1.66833C5.17809 1.5638 5.52965 1.40583 5.97497 1.57458C6.27215 1.68615 6.53747 1.91443 6.95278 2.32458C7.8045 3.16458 8.9684 5.03537 9.39778 5.95412C9.68606 6.57333 9.87684 6.98208 9.87731 7.44052C9.87731 7.97724 9.60731 8.39115 9.27965 8.83787C9.21825 8.92177 9.15731 9.00193 9.09825 9.07974C8.74153 9.54849 8.66325 9.68396 8.71481 9.92583C8.81934 10.4119 9.59887 11.859 10.88 13.1372C12.1611 14.4155 13.5664 15.1458 14.0543 15.2499C14.3065 15.3038 14.4448 15.2222 14.9286 14.8529C14.9979 14.7999 15.0692 14.7451 15.1437 14.6902C15.6434 14.3185 16.0381 14.0555 16.5622 14.0555H16.565C17.0211 14.0555 17.4115 14.2533 18.0584 14.5796C18.9022 15.0052 20.8292 16.1541 21.6743 17.0068C22.0854 17.4211 22.3147 17.6855 22.4267 17.9822C22.5954 18.429 22.4365 18.7791 22.3329 19.0135C22.3156 19.0524 22.2964 19.0951 22.2762 19.1424C22.0789 19.61 21.839 20.0585 21.5595 20.4821C21.0612 21.2274 20.5564 21.8044 19.7136 22.1968C19.2808 22.4015 18.8071 22.5052 18.3284 22.5001Z" fill="#F4F4F4"/>
</svg>
