<svg width="24" height="24" viewBox="0 0 24 24" fill="none" xmlns="http://www.w3.org/2000/svg">
<path d="M20 3H12C11.45 3 11 3.45 11 4V5.61L11.01 5.62L16.01 10.12C16.64 10.68 17 11.5 17 12.35V13H19V15H17V17H19V19H17V21H20C20.55 21 21 20.55 21 20V4C21 3.45 20.55 3 20 3ZM15 7H13V5H15V7ZM19 11H17V9H19V11ZM19 7H17V5H19V7Z" fill="#F4F4F4"/>
<path d="M15.0001 19.9999V12.3499C14.9997 12.2104 14.9702 12.0725 14.9134 11.945C14.8565 11.8176 14.7737 11.7034 14.6701 11.6099L9.67006 7.10994C9.48882 6.93979 9.24864 6.84659 9.00006 6.84994C8.76006 6.84994 8.52006 6.93994 8.33006 7.10994L3.33006 11.6099C3.22496 11.7022 3.14106 11.8161 3.0841 11.9438C3.02714 12.0716 2.99847 12.2101 3.00006 12.3499V19.9999C3.00006 20.5499 3.45006 20.9999 4.00006 20.9999H6.00006C6.55006 20.9999 7.00006 20.5499 7.00006 19.9999V15.9999H11.0001V19.9999C11.0001 20.5499 11.4501 20.9999 12.0001 20.9999H14.0001C14.5501 20.9999 15.0001 20.5499 15.0001 19.9999Z" fill="#F4F4F4"/>
</svg>
