<svg width="18" height="18" viewBox="0 0 18 18" fill="none" xmlns="http://www.w3.org/2000/svg">
<path d="M4.75642 3.70336C4.82615 3.77302 4.88147 3.85573 4.91922 3.94678C4.95696 4.03783 4.97639 4.13543 4.97639 4.23399C4.97639 4.33255 4.95696 4.43015 4.91922 4.52119C4.88147 4.61224 4.82615 4.69496 4.75642 4.76461C3.631 5.89023 2.99876 7.41677 2.99876 9.00849C2.99876 10.6002 3.631 12.1268 4.75642 13.2524C4.82606 13.322 4.88128 13.4048 4.91895 13.4958C4.95661 13.5868 4.97598 13.6844 4.97595 13.7829C4.97591 13.8814 4.95648 13.9789 4.91875 14.0699C4.88101 14.1609 4.82573 14.2436 4.75605 14.3132C4.68636 14.3829 4.60365 14.4381 4.51262 14.4758C4.4216 14.5134 4.32404 14.5328 4.22553 14.5328C4.12702 14.5327 4.02948 14.5133 3.93848 14.4756C3.84748 14.4378 3.76481 14.3825 3.69517 14.3129C0.765672 11.3834 0.765672 6.63286 3.69517 3.70336C3.76483 3.63363 3.84754 3.57831 3.93859 3.54057C4.02964 3.50283 4.12723 3.4834 4.2258 3.4834C4.32436 3.4834 4.42195 3.50283 4.513 3.54057C4.60405 3.57831 4.68677 3.63363 4.75642 3.70336ZM14.3047 3.70336C17.2342 6.63361 17.2342 11.3834 14.3047 14.3129C14.1632 14.4495 13.9738 14.5251 13.7771 14.5234C13.5805 14.5217 13.3924 14.4428 13.2533 14.3037C13.1143 14.1647 13.0354 13.9766 13.0337 13.7799C13.032 13.5833 13.1076 13.3938 13.2442 13.2524C14.3696 12.1268 15.0018 10.6002 15.0018 9.00849C15.0018 7.41677 14.3696 5.89023 13.2442 4.76461C13.1034 4.62398 13.0243 4.43321 13.0243 4.23425C13.0242 4.0353 13.1032 3.84447 13.2438 3.70374C13.3844 3.56301 13.5752 3.48391 13.7742 3.48384C13.9731 3.48377 14.1639 3.56273 14.3047 3.70336ZM6.98167 5.85886C7.12228 5.99951 7.20126 6.19024 7.20126 6.38911C7.20126 6.58799 7.12228 6.77872 6.98167 6.91936C6.70864 7.19237 6.49205 7.51649 6.34428 7.87321C6.19652 8.22992 6.12046 8.61225 6.12046 8.99836C6.12046 9.38448 6.19652 9.76681 6.34428 10.1235C6.49205 10.4802 6.70864 10.8044 6.98167 11.0774C7.0533 11.1466 7.11044 11.2293 7.14975 11.3208C7.18905 11.4123 7.20974 11.5107 7.21061 11.6103C7.21147 11.7099 7.1925 11.8087 7.15479 11.9008C7.11708 11.993 7.06139 12.0767 6.99097 12.1472C6.92055 12.2176 6.83681 12.2733 6.74464 12.311C6.65246 12.3487 6.55371 12.3677 6.45412 12.3668C6.35454 12.3659 6.25612 12.3452 6.16462 12.3059C6.07312 12.2666 5.99036 12.2095 5.92117 12.1379C5.08854 11.3052 4.62078 10.1759 4.62078 8.99836C4.62078 7.82083 5.08854 6.69152 5.92117 5.85886C6.06182 5.71826 6.25255 5.63927 6.45142 5.63927C6.65029 5.63927 6.84103 5.71826 6.98167 5.85886ZM12.2009 5.85886C13.0335 6.69152 13.5013 7.82083 13.5013 8.99836C13.5013 10.1759 13.0335 11.3052 12.2009 12.1379C12.1313 12.2075 12.0486 12.2628 11.9576 12.3006C11.8666 12.3383 11.7691 12.3577 11.6706 12.3578C11.5721 12.3578 11.4745 12.3384 11.3835 12.3008C11.2924 12.2631 11.2097 12.2079 11.14 12.1382C11.0704 12.0686 11.0151 11.9859 10.9773 11.8949C10.9396 11.8039 10.9202 11.7064 10.9201 11.6079C10.9201 11.5094 10.9395 11.4118 10.9771 11.3208C11.0148 11.2298 11.07 11.147 11.1397 11.0774C11.4127 10.8044 11.6293 10.4802 11.7771 10.1235C11.9248 9.76681 12.0009 9.38448 12.0009 8.99836C12.0009 8.61225 11.9248 8.22992 11.7771 7.87321C11.6293 7.51649 11.4127 7.19237 11.1397 6.91936C10.999 6.77863 10.9201 6.5878 10.9201 6.38885C10.9202 6.1899 10.9993 5.99912 11.14 5.85849C11.2808 5.71786 11.4716 5.63889 11.6706 5.63896C11.8695 5.63903 12.0603 5.71813 12.2009 5.85886ZM9.06067 7.93636C9.20841 7.93636 9.3547 7.96546 9.49119 8.022C9.62768 8.07854 9.7517 8.1614 9.85617 8.26587C9.96063 8.37033 10.0435 8.49435 10.1 8.63085C10.1566 8.76734 10.1857 8.91363 10.1857 9.06136C10.1857 9.2091 10.1566 9.35539 10.1 9.49188C10.0435 9.62837 9.96063 9.75239 9.85617 9.85686C9.7517 9.96133 9.62768 10.0442 9.49119 10.1007C9.3547 10.1573 9.20841 10.1864 9.06067 10.1864C8.7623 10.1864 8.47615 10.0678 8.26518 9.85686C8.0542 9.64588 7.93567 9.35973 7.93567 9.06136C7.93567 8.763 8.0542 8.47685 8.26518 8.26587C8.47615 8.05489 8.7623 7.93636 9.06067 7.93636Z" fill="#111111" fill-opacity="0.65"/>
</svg>
