<svg width="84" height="66" viewBox="0 0 84 66" fill="none" xmlns="http://www.w3.org/2000/svg">
<path d="M76.4248 2.53125C72.2206 1.19824 67.5998 0.626953 63.1684 0.626953C55.7826 0.626953 47.8288 2.15039 42.3368 6.33984C36.8449 2.15039 28.8911 0.626953 21.5053 0.626953C14.1196 0.626953 6.16577 2.15039 0.673828 6.33984V62.1357C0.673828 63.0878 1.62071 64.04 2.5676 64.04C2.94636 64.04 3.13573 63.8495 3.51449 63.8495C8.62768 61.374 16.0134 59.6601 21.5053 59.6601C28.8911 59.6601 36.8449 61.1835 42.3368 65.373C47.45 62.1357 56.7295 59.6601 63.1684 59.6601C69.4178 59.6601 75.8566 60.8027 81.1592 63.6591C81.538 63.8495 81.7273 63.8495 82.1061 63.8495C83.053 63.8495 83.9999 62.8974 83.9999 61.9452V6.33984C81.7273 4.62597 79.2654 3.4834 76.4248 2.53125ZM76.4248 53.9472C72.2585 52.6142 67.7134 52.0429 63.1684 52.0429C56.7295 52.0429 47.45 54.5185 42.3368 57.7558V13.957C47.45 10.7197 56.7295 8.24413 63.1684 8.24413C67.7134 8.24413 72.2585 8.81542 76.4248 10.1484V53.9472Z" fill="white"/>
<path d="M63.167 23.4785C66.5001 23.4785 69.7195 23.8213 72.6359 24.4687V18.6797C69.6437 18.1084 66.4243 17.7656 63.167 17.7656C56.7282 17.7656 50.8954 18.8701 46.123 20.9268V27.249C50.403 24.8115 56.3494 23.4785 63.167 23.4785Z" fill="white"/>
<path d="M46.123 31.0576V37.3799C50.403 34.9424 56.3494 33.6094 63.167 33.6094C66.5001 33.6094 69.7195 33.9521 72.6359 34.5996V28.8105C69.6437 28.2393 66.4243 27.8965 63.167 27.8965C56.7282 27.8965 50.8954 29.0391 46.123 31.0576Z" fill="white"/>
<path d="M63.167 38.0654C56.7282 38.0654 50.8954 39.1699 46.123 41.2266V47.5488C50.403 45.1113 56.3494 43.7783 63.167 43.7783C66.5001 43.7783 69.7195 44.1211 72.6359 44.7685V38.9795C69.6437 38.3701 66.4243 38.0654 63.167 38.0654Z" fill="white"/>
</svg>
