<svg width="168" height="50" viewBox="0 0 168 50" fill="none" xmlns="http://www.w3.org/2000/svg">
<path d="M12.5352 8.99365H37.8946V16.9415H20.6958C19.6276 16.948 18.5685 16.7473 17.5795 16.3509C16.5906 15.9545 15.6911 15.3703 14.9328 14.6318C14.1745 13.8933 13.5724 13.0151 13.1609 12.0475C12.7494 11.0799 12.5368 10.0421 12.5352 8.99365Z" fill="#004887"/>
<path d="M12.5352 20.6938H37.8946V28.6417H20.6958C19.6276 28.6482 18.5685 28.4475 17.5795 28.0511C16.5906 27.6547 15.6911 27.0705 14.9328 26.332C14.1745 25.5935 13.5724 24.7153 13.1609 23.7477C12.7494 22.7801 12.5368 21.7423 12.5352 20.6938Z" fill="#004887"/>
<path d="M12.5352 32.394H37.8946V40.3542H20.6958C19.6265 40.3607 18.5665 40.1596 17.5766 39.7624C16.5868 39.3653 15.6868 38.78 14.9284 38.0402C14.1699 37.3004 13.568 36.4207 13.1573 35.4517C12.7466 34.4827 12.5351 33.4435 12.5352 32.394Z" fill="#004887"/>
<path d="M59.6194 38.0659C59.6181 38.1594 59.5968 38.2517 59.5567 38.3365C59.4982 38.4124 59.4204 38.4718 59.331 38.5088C59.1924 38.5544 59.0497 38.5873 58.9048 38.6072C58.6878 38.6213 58.47 38.6213 58.253 38.6072C58.0318 38.622 57.8098 38.622 57.5886 38.6072C57.4396 38.5874 57.2928 38.5544 57.1499 38.5088C57.055 38.4755 56.9722 38.4156 56.9117 38.3365C56.8622 38.2546 56.8363 38.1611 56.8365 38.0659V35.8513C56.0296 36.755 55.0818 37.5273 54.0285 38.1397C53.06 38.672 51.967 38.9476 50.857 38.9394C49.7318 38.9423 48.6239 38.6673 47.6354 38.1397C46.7658 37.6742 46.0255 37.0068 45.4793 36.1958C44.8843 35.3246 44.4593 34.3526 44.2257 33.3292C43.9813 32.201 43.8636 31.0499 43.8747 29.8966C43.8547 28.5815 44.015 27.2697 44.3511 25.9965C44.6183 24.9242 45.0951 23.913 45.755 23.0191C46.3524 22.2132 47.1452 21.5662 48.0616 21.1367C49.052 20.6771 50.1377 20.4497 51.2331 20.4724C52.188 20.4592 53.1314 20.679 53.9784 21.1121C54.9131 21.6063 55.7598 22.2462 56.4855 23.0068V13.2627C56.4871 13.1771 56.5086 13.093 56.5482 13.0167C56.6073 12.9207 56.7014 12.8503 56.8114 12.8198L57.2877 12.7091C57.5382 12.6943 57.7894 12.6943 58.0399 12.7091C58.2987 12.694 58.5582 12.694 58.8171 12.7091L59.2934 12.8198C59.3963 12.8575 59.4841 12.9265 59.5441 13.0167C59.6019 13.086 59.633 13.1731 59.6319 13.2627L59.6194 38.0659ZM56.4729 26.2795C55.7534 25.3849 54.9094 24.5939 53.9658 23.9296C53.2384 23.406 52.3608 23.1218 51.4587 23.1176C50.7405 23.0975 50.0327 23.2904 49.428 23.6712C48.868 24.0557 48.405 24.5607 48.0741 25.1476C47.7084 25.7909 47.4542 26.4894 47.322 27.2145C47.188 27.9781 47.1334 28.7531 47.159 29.5275C47.1569 30.3517 47.224 31.1747 47.3596 31.9881C47.4714 32.7372 47.7041 33.464 48.049 34.1412C48.3358 34.7344 48.7662 35.2497 49.3026 35.6422C49.9099 36.0388 50.6295 36.2369 51.3584 36.2081C51.782 36.2159 52.2045 36.162 52.612 36.0482C53.0333 35.923 53.4312 35.7319 53.7903 35.4822C54.2394 35.1851 54.6591 34.8474 55.0439 34.4734C55.5444 33.9902 56.0133 33.4766 56.4479 32.9355L56.4729 26.2795Z" fill="#004887"/>
<path d="M81.2051 38.0659C81.2254 38.1509 81.2254 38.2393 81.2051 38.3243C81.1412 38.3999 81.0594 38.459 80.9669 38.4965C80.8224 38.5538 80.6706 38.591 80.5156 38.6072C80.2903 38.622 80.0641 38.622 79.8387 38.6072C79.6008 38.6222 79.3621 38.6222 79.1242 38.6072C78.9773 38.5914 78.8336 38.5541 78.698 38.4965C78.607 38.4624 78.5284 38.4025 78.4723 38.3243C78.452 38.2393 78.452 38.1509 78.4723 38.0659V35.8513C77.6206 36.7832 76.6059 37.5582 75.4763 38.1397C74.5886 38.6054 73.5997 38.8544 72.5932 38.8656C71.602 38.8958 70.6165 38.7066 69.71 38.312C68.9667 37.9602 68.3215 37.4367 67.8297 36.7864C67.3297 36.1181 66.9755 35.3559 66.7892 34.5472C66.5501 33.5431 66.4323 32.5149 66.4382 31.4837V21.309C66.4164 21.2284 66.4164 21.1436 66.4382 21.0629C66.5076 20.9766 66.5982 20.9089 66.7015 20.8661C66.8591 20.8094 67.0233 20.7722 67.1904 20.7554H67.955H68.7072C68.8744 20.7707 69.0389 20.8079 69.196 20.8661C69.2962 20.9082 69.3829 20.9763 69.4468 21.0629C69.4992 21.1344 69.5256 21.221 69.522 21.309V31.0654C69.5024 31.8588 69.5781 32.6516 69.7476 33.4276C69.8662 33.966 70.092 34.4761 70.412 34.9286C70.7034 35.3365 71.0903 35.6698 71.5402 35.9005C72.0343 36.141 72.5809 36.2592 73.1322 36.245C73.9837 36.2256 74.806 35.9364 75.4763 35.4207C76.4168 34.7337 77.2599 33.9269 77.9835 33.0216V21.309C77.9558 21.2292 77.9558 21.1427 77.9835 21.0629C78.0447 20.9739 78.1322 20.9052 78.2342 20.8661C78.3918 20.8094 78.556 20.7722 78.7231 20.7554H79.4877H80.2524C80.4154 20.772 80.5755 20.8092 80.7287 20.8661C80.8244 20.9153 80.9096 20.9821 80.9795 21.0629C81.0102 21.096 81.0339 21.1349 81.049 21.1772C81.064 21.2195 81.0702 21.2643 81.0672 21.309L81.2051 38.0659Z" fill="#004887"/>
<path d="M98.1402 22.4041C98.1402 22.6747 98.1402 22.9085 98.1402 23.093C98.1337 23.2431 98.1085 23.3919 98.065 23.5359C98.035 23.6256 97.9882 23.7091 97.9271 23.782C97.8591 23.8335 97.7747 23.8596 97.6889 23.8558C97.5605 23.8503 97.4336 23.8254 97.3129 23.782C97.1551 23.7114 96.9915 23.6538 96.824 23.6098C96.6222 23.5462 96.4171 23.4928 96.2097 23.4498C95.9667 23.399 95.7187 23.3743 95.4701 23.376C95.1514 23.3753 94.8358 23.4381 94.5425 23.5606C94.1892 23.7134 93.8633 23.9212 93.5773 24.1757C93.1872 24.5161 92.8343 24.8955 92.5243 25.3076C92.1608 25.7874 91.7596 26.3657 91.2707 27.0423V38.1152C91.2727 38.2068 91.2465 38.2968 91.1955 38.3735C91.1316 38.4492 91.0498 38.5083 90.9573 38.5458C90.8041 38.6026 90.644 38.6399 90.481 38.6565C90.2222 38.6716 89.9626 38.6716 89.7038 38.6565C89.4491 38.6718 89.1938 38.6718 88.9391 38.6565C88.7721 38.6397 88.6079 38.6025 88.4502 38.5458C88.356 38.5113 88.2735 38.4516 88.2121 38.3735C88.1611 38.2968 88.1349 38.2068 88.1368 38.1152V21.3091C88.1349 21.223 88.1565 21.138 88.1995 21.063C88.253 20.9767 88.3316 20.9081 88.4252 20.8662C88.5657 20.8103 88.7133 20.773 88.8639 20.7554H89.5659H90.2554C90.4026 20.7695 90.5465 20.8069 90.6816 20.8662C90.7702 20.9153 90.8471 20.9824 90.9072 21.063C90.929 21.1436 90.929 21.2285 90.9072 21.3091V23.7697C91.2794 23.1919 91.6986 22.6447 92.1608 22.1334C92.5156 21.765 92.906 21.4312 93.3266 21.1368C93.661 20.9139 94.029 20.7437 94.4172 20.6324C94.7739 20.545 95.14 20.4996 95.5078 20.4971H96.0718C96.2918 20.517 96.5097 20.5541 96.7237 20.6078C96.9315 20.6492 97.1366 20.7026 97.3379 20.7677C97.4774 20.8067 97.6089 20.8692 97.7265 20.9523C97.7979 20.9971 97.8545 21.0612 97.8895 21.1368C97.8945 21.2065 97.8945 21.2764 97.8895 21.346C97.8895 21.4321 97.8895 21.5551 97.8895 21.7274C97.8895 21.8996 98.1402 22.1457 98.1402 22.4041Z" fill="#004887"/>
<path d="M116.931 28.9614C116.954 29.1505 116.933 29.3422 116.867 29.5215C116.802 29.7009 116.695 29.8629 116.555 29.9948C116.324 30.1955 116.024 30.305 115.715 30.3024H104.433C104.429 31.131 104.526 31.9571 104.722 32.7631C104.89 33.4645 105.215 34.1202 105.674 34.6823C106.138 35.232 106.738 35.6557 107.417 35.9127C108.248 36.2256 109.135 36.372 110.024 36.3433C110.752 36.3537 111.479 36.2877 112.193 36.1464C112.754 36.0418 113.307 35.8979 113.848 35.7158C114.311 35.5436 114.688 35.4082 114.988 35.2729C115.199 35.1642 115.429 35.0973 115.665 35.076C115.749 35.0757 115.831 35.0969 115.903 35.1376C115.977 35.185 116.034 35.2538 116.066 35.3344C116.115 35.4523 116.145 35.5768 116.154 35.7035C116.168 35.8919 116.168 36.0811 116.154 36.2694C116.154 36.4294 116.154 36.5647 116.154 36.6878C116.162 36.7942 116.162 36.9012 116.154 37.0076C116.139 37.0958 116.105 37.1798 116.054 37.2537C116.008 37.3332 115.953 37.4075 115.891 37.4752C115.697 37.6044 115.492 37.7156 115.277 37.8073C114.847 37.9933 114.402 38.1455 113.948 38.2626C113.396 38.4102 112.77 38.5455 112.055 38.6686C111.3 38.7843 110.537 38.8418 109.774 38.8408C108.495 38.8693 107.221 38.6735 106.013 38.2626C105.002 37.9059 104.092 37.3199 103.355 36.5524C102.597 35.7338 102.036 34.7583 101.713 33.6981C101.331 32.4035 101.149 31.0596 101.174 29.7119C101.172 28.3965 101.379 27.0888 101.788 25.8364C102.123 24.7591 102.682 23.762 103.431 22.9082C104.141 22.1128 105.023 21.4824 106.013 21.0628C107.089 20.6235 108.245 20.4058 109.41 20.423C110.587 20.3913 111.758 20.6052 112.845 21.0505C113.738 21.443 114.531 22.0274 115.164 22.7606C115.779 23.481 116.236 24.3189 116.505 25.2212C116.791 26.2265 116.935 27.2656 116.931 28.3093V28.9614ZM113.785 28.0509C113.896 26.6947 113.504 25.3447 112.682 24.2493C112.256 23.7784 111.727 23.4094 111.134 23.1706C110.54 22.9317 109.899 22.8293 109.26 22.8713C108.554 22.8569 107.854 23.0043 107.216 23.3019C106.648 23.5728 106.143 23.9585 105.737 24.4338C105.34 24.9289 105.03 25.4863 104.822 26.0824C104.605 26.718 104.483 27.381 104.459 28.0509H113.785Z" fill="#004887"/>
<path d="M126.345 15.6495C126.407 16.1717 126.258 16.6971 125.931 17.1135C125.466 17.3678 124.941 17.5012 124.408 17.5012C123.875 17.5012 123.351 17.3678 122.885 17.1135C122.563 16.7046 122.419 16.1871 122.484 15.6741C122.422 15.1479 122.57 14.6185 122.898 14.1977C123.344 13.893 123.887 13.7575 124.427 13.8163C124.963 13.7571 125.503 13.8928 125.944 14.1977C126.106 14.4014 126.225 14.6347 126.293 14.884C126.362 15.1332 126.38 15.3935 126.345 15.6495ZM125.994 38.0658C125.996 38.1574 125.97 38.2474 125.919 38.3242C125.85 38.3996 125.764 38.4585 125.668 38.4964C125.515 38.5548 125.355 38.5921 125.192 38.6071C124.933 38.6223 124.673 38.6223 124.415 38.6071C124.16 38.6216 123.905 38.6216 123.65 38.6071C123.487 38.5921 123.326 38.5548 123.174 38.4964C123.076 38.4757 122.99 38.4201 122.932 38.3405C122.874 38.2609 122.849 38.163 122.86 38.0658V21.3089C122.842 21.2279 122.842 21.1439 122.86 21.0629C122.922 20.9772 123.01 20.9127 123.111 20.8783C123.264 20.8199 123.424 20.7826 123.587 20.7676C123.842 20.7531 124.097 20.7531 124.352 20.7676C124.611 20.7525 124.87 20.7525 125.129 20.7676C125.292 20.7826 125.453 20.8199 125.606 20.8783C125.705 20.9159 125.792 20.9798 125.856 21.0629C125.906 21.1358 125.932 21.2214 125.931 21.3089L125.994 38.0658Z" fill="#004887"/>
<path d="M142.292 14.4193C142.308 14.6076 142.308 14.7969 142.292 14.9852C142.273 15.1013 142.248 15.2163 142.217 15.3297C142.195 15.399 142.151 15.4595 142.091 15.5019C142.03 15.5217 141.964 15.5217 141.903 15.5019C141.785 15.4969 141.67 15.4675 141.565 15.4158L141.088 15.2313L140.411 15.0467C140.114 14.9901 139.812 14.9612 139.509 14.9606C139.078 14.9374 138.648 15.0177 138.255 15.1944C137.924 15.3402 137.644 15.5801 137.453 15.8833C137.228 16.2622 137.079 16.6798 137.014 17.1137C136.921 17.7203 136.88 18.3334 136.889 18.9468V20.78H140.65C140.738 20.7718 140.826 20.7935 140.9 20.8415C140.985 20.8947 141.05 20.972 141.088 21.063C141.158 21.1894 141.205 21.3268 141.226 21.469C141.242 21.6655 141.242 21.863 141.226 22.0595C141.247 22.3926 141.187 22.7257 141.051 23.0315C141.012 23.118 140.949 23.1918 140.869 23.2442C140.789 23.2965 140.696 23.3252 140.6 23.3267H136.839V38.0659C136.841 38.1575 136.815 38.2475 136.764 38.3243C136.69 38.3997 136.6 38.4584 136.5 38.4965C136.348 38.5549 136.187 38.5922 136.024 38.6073C135.515 38.6564 135.003 38.6564 134.495 38.6073C134.331 38.5922 134.171 38.5549 134.018 38.4965C133.917 38.4617 133.827 38.4024 133.755 38.3243C133.704 38.2475 133.678 38.1575 133.68 38.0659V23.376H131.273C131.176 23.3776 131.081 23.3503 131 23.2975C130.92 23.2448 130.857 23.1691 130.822 23.0807C130.702 22.7707 130.651 22.4395 130.671 22.1087C130.656 21.9122 130.656 21.7148 130.671 21.5182C130.691 21.3786 130.729 21.2421 130.784 21.1122C130.822 21.0212 130.888 20.9439 130.972 20.8907C131.051 20.8443 131.143 20.8228 131.235 20.8292H133.642V19.0945C133.625 18.0797 133.738 17.0668 133.981 16.0802C134.154 15.3278 134.501 14.6248 134.996 14.0256C135.449 13.4748 136.041 13.0505 136.713 12.7952C137.494 12.5246 138.318 12.3953 139.145 12.4138C139.566 12.4128 139.986 12.4541 140.399 12.5369C140.73 12.5872 141.053 12.6739 141.364 12.7952C141.532 12.8516 141.688 12.9347 141.828 13.0413C141.908 13.1283 141.971 13.2282 142.016 13.3366C142.073 13.474 142.106 13.6193 142.116 13.7672C142.192 13.9798 142.251 14.1978 142.292 14.4193Z" fill="#004887"/>
<path d="M153.936 38.5332L151.655 44.6848C151.6 44.7989 151.52 44.8992 151.42 44.9781C151.32 45.057 151.203 45.1124 151.078 45.14C150.618 45.2686 150.139 45.3226 149.661 45.3C149.399 45.3225 149.134 45.3225 148.872 45.3C148.707 45.289 148.548 45.2383 148.408 45.1523C148.356 45.1174 148.312 45.0718 148.28 45.0187C148.247 44.9656 148.227 44.9063 148.22 44.8448C148.216 44.6913 148.25 44.5392 148.32 44.4018L150.677 38.5702C150.549 38.5155 150.437 38.431 150.351 38.3241C150.255 38.2261 150.182 38.1084 150.138 37.9796L144.045 21.9855C143.96 21.7903 143.909 21.5823 143.895 21.3704C143.892 21.3037 143.904 21.2372 143.93 21.1755C143.956 21.1139 143.995 21.0586 144.045 21.0136C144.192 20.91 144.366 20.8502 144.547 20.8413C144.847 20.8185 145.149 20.8185 145.449 20.8413H146.352C146.523 20.8568 146.692 20.8941 146.853 20.952C146.968 20.9861 147.067 21.0606 147.129 21.1612C147.204 21.2821 147.267 21.4099 147.317 21.5426L152.194 34.9899L156.907 21.4565C156.945 21.2791 157.042 21.1191 157.183 21.0013C157.326 20.9139 157.49 20.8631 157.659 20.8536C157.968 20.8297 158.278 20.8297 158.587 20.8536C158.879 20.8311 159.172 20.8311 159.464 20.8536C159.645 20.8625 159.819 20.9223 159.966 21.0259C160.02 21.0685 160.062 21.123 160.091 21.1851C160.119 21.2471 160.132 21.3148 160.129 21.3827C160.12 21.5718 160.082 21.7586 160.016 21.9363L153.936 38.5332Z" fill="#004887"/>
</svg>
