<svg width="23" height="23" viewBox="0 0 23 23" fill="none" xmlns="http://www.w3.org/2000/svg">
<path d="M11.7626 22.6654C5.69586 22.6654 0.777832 17.7471 0.777832 11.6801C0.777832 5.6131 5.69586 0.694824 11.7626 0.694824C17.8292 0.694824 22.7473 5.6131 22.7473 11.6801C22.7473 17.7471 17.8292 22.6654 11.7626 22.6654ZM16.7907 6.86449C14.1545 8.62657 11.7198 11.3242 9.9615 14.4142C9.20363 13.1321 7.83889 11.8438 6.59174 11.499C6.45269 11.4606 6.36447 11.644 6.48132 11.7287C7.75127 12.6482 8.89634 14.3381 9.84384 16.4413C9.88937 16.5423 10.0326 16.5432 10.0793 16.4426C11.7154 12.9213 14.0871 9.5187 16.9468 7.07048C17.0704 6.96469 16.9259 6.7741 16.7907 6.86449Z" fill="#3946B4"/>
</svg>
