<svg width="103" height="32" viewBox="0 0 103 32" fill="none" xmlns="http://www.w3.org/2000/svg">
<path d="M7.64111 6.24414H23.099V11.0888H12.6155C11.9643 11.0927 11.3188 10.9704 10.7159 10.7288C10.1131 10.4872 9.56482 10.1311 9.10261 9.6809C8.64039 9.23074 8.27334 8.6954 8.02254 8.10562C7.77173 7.51583 7.64211 6.88323 7.64111 6.24414Z" fill="#004887"/>
<path d="M7.64111 13.376H23.099V18.2206H12.6155C11.9643 18.2245 11.3188 18.1022 10.7159 17.8606C10.1131 17.619 9.56482 17.2629 9.10261 16.8127C8.64039 16.3626 8.27334 15.8272 8.02254 15.2375C7.77173 14.6477 7.64211 14.0151 7.64111 13.376Z" fill="#004887"/>
<path d="M7.64111 20.5078H23.099V25.3599H12.6155C11.9637 25.3639 11.3175 25.2413 10.7142 24.9992C10.1108 24.7572 9.56221 24.4004 9.0999 23.9494C8.63759 23.4985 8.2707 22.9622 8.02034 22.3716C7.76998 21.7809 7.6411 21.1475 7.64111 20.5078Z" fill="#004887"/>
<path d="M36.3409 23.9642C36.3401 24.0212 36.3271 24.0774 36.3027 24.1292C36.267 24.1754 36.2196 24.2116 36.1651 24.2342C36.0806 24.2619 35.9936 24.282 35.9053 24.2941C35.773 24.3027 35.6403 24.3027 35.508 24.2941C35.3732 24.3032 35.2379 24.3032 35.103 24.2941C35.0122 24.2821 34.9227 24.262 34.8356 24.2342C34.7778 24.2139 34.7273 24.1774 34.6904 24.1292C34.6603 24.0792 34.6444 24.0222 34.6446 23.9642V22.6143C34.1527 23.1651 33.575 23.6359 32.933 24.0092C32.3426 24.3336 31.6764 24.5016 30.9998 24.4966C30.3139 24.4984 29.6386 24.3308 29.036 24.0092C28.5059 23.7254 28.0547 23.3186 27.7217 22.8243C27.3591 22.2932 27.1 21.7007 26.9576 21.0769C26.8086 20.3892 26.7369 19.6876 26.7437 18.9846C26.7315 18.1829 26.8292 17.3833 27.0341 16.6073C27.1969 15.9536 27.4876 15.3373 27.8898 14.7924C28.254 14.3011 28.7372 13.9067 29.2958 13.645C29.8995 13.3648 30.5613 13.2262 31.229 13.24C31.8111 13.232 32.3861 13.366 32.9024 13.63C33.4722 13.9312 33.9883 14.3212 34.4306 14.7849V8.84536C34.4316 8.79317 34.4447 8.74189 34.4688 8.69537C34.5049 8.63687 34.5622 8.59399 34.6293 8.57538L34.9196 8.50789C35.0723 8.49888 35.2254 8.49888 35.3781 8.50789C35.5359 8.49867 35.6941 8.49867 35.8518 8.50789L36.1422 8.57538C36.2049 8.59833 36.2585 8.64038 36.295 8.69537C36.3303 8.73765 36.3492 8.79075 36.3485 8.84536L36.3409 23.9642ZM34.423 16.7797C33.9844 16.2345 33.4699 15.7523 32.8948 15.3474C32.4513 15.0282 31.9164 14.855 31.3665 14.8524C30.9287 14.8401 30.4973 14.9578 30.1287 15.1899C29.7874 15.4243 29.5051 15.7321 29.3034 16.0898C29.0805 16.4819 28.9256 16.9077 28.845 17.3497C28.7633 17.8151 28.73 18.2875 28.7456 18.7596C28.7444 19.262 28.7853 19.7636 28.8679 20.2595C28.936 20.7161 29.0779 21.1591 29.2882 21.5719C29.463 21.9335 29.7253 22.2476 30.0523 22.4868C30.4225 22.7286 30.8611 22.8493 31.3054 22.8318C31.5636 22.8365 31.8211 22.8036 32.0695 22.7343C32.3263 22.658 32.5688 22.5415 32.7878 22.3893C33.0615 22.2082 33.3173 22.0023 33.5519 21.7743C33.8569 21.4798 34.1428 21.1667 34.4077 20.8369L34.423 16.7797Z" fill="#004887"/>
<path d="M49.4989 23.9648C49.5113 24.0166 49.5113 24.0705 49.4989 24.1222C49.46 24.1683 49.4101 24.2044 49.3538 24.2272C49.2657 24.2621 49.1731 24.2849 49.0787 24.2947C48.9413 24.3037 48.8034 24.3037 48.6661 24.2947C48.521 24.3039 48.3756 24.3039 48.2305 24.2947C48.141 24.2851 48.0534 24.2623 47.9707 24.2272C47.9152 24.2065 47.8673 24.1699 47.8332 24.1222C47.8208 24.0705 47.8208 24.0166 47.8332 23.9648V22.6149C47.314 23.1829 46.6955 23.6553 46.007 24.0098C45.4659 24.2936 44.863 24.4454 44.2495 24.4522C43.6453 24.4706 43.0447 24.3553 42.4921 24.1147C42.039 23.9003 41.6457 23.5812 41.3459 23.1848C41.0411 22.7775 40.8252 22.3129 40.7117 21.8199C40.566 21.2079 40.4942 20.5811 40.4978 19.9526V13.7506C40.4845 13.7014 40.4845 13.6497 40.4978 13.6006C40.5401 13.5479 40.5953 13.5067 40.6582 13.4806C40.7543 13.446 40.8544 13.4233 40.9562 13.4131H41.4223H41.8808C41.9828 13.4224 42.083 13.4451 42.1788 13.4806C42.2399 13.5063 42.2927 13.5477 42.3316 13.6006C42.3636 13.6441 42.3797 13.6969 42.3775 13.7506V19.6976C42.3655 20.1812 42.4117 20.6645 42.515 21.1375C42.5873 21.4656 42.7249 21.7766 42.92 22.0524C43.0976 22.3011 43.3334 22.5042 43.6077 22.6449C43.9089 22.7914 44.242 22.8635 44.5781 22.8548C45.0971 22.843 45.5984 22.6667 46.007 22.3524C46.5802 21.9336 47.0941 21.4418 47.5352 20.89V13.7506C47.5183 13.7019 47.5183 13.6492 47.5352 13.6006C47.5725 13.5463 47.6258 13.5044 47.688 13.4806C47.7841 13.446 47.8842 13.4233 47.986 13.4131H48.4521H48.9182C49.0176 13.4232 49.1152 13.4459 49.2086 13.4806C49.2669 13.5106 49.3188 13.5513 49.3614 13.6006C49.3802 13.6207 49.3946 13.6444 49.4038 13.6702C49.413 13.696 49.4167 13.7233 49.4149 13.7506L49.4989 23.9648Z" fill="#004887"/>
<path d="M59.8218 14.4173C59.8218 14.5823 59.8218 14.7248 59.8218 14.8373C59.8178 14.9288 59.8024 15.0194 59.7759 15.1072C59.7576 15.1619 59.7291 15.2128 59.6919 15.2572C59.6504 15.2886 59.599 15.3045 59.5467 15.3022C59.4684 15.2989 59.3911 15.2837 59.3175 15.2572C59.2213 15.2142 59.1216 15.179 59.0195 15.1522C58.8964 15.1135 58.7715 15.0809 58.645 15.0547C58.4969 15.0238 58.3457 15.0087 58.1942 15.0097C57.9999 15.0093 57.8076 15.0476 57.6288 15.1222C57.4134 15.2154 57.2148 15.342 57.0404 15.4972C56.8027 15.7047 56.5875 15.9359 56.3986 16.1872C56.177 16.4796 55.9325 16.8321 55.6345 17.2446V23.994C55.6357 24.0499 55.6197 24.1048 55.5886 24.1515C55.5497 24.1976 55.4998 24.2337 55.4434 24.2565C55.35 24.2912 55.2524 24.3139 55.1531 24.324C54.9953 24.3332 54.8371 24.3332 54.6793 24.324C54.5241 24.3333 54.3684 24.3333 54.2132 24.324C54.1114 24.3138 54.0113 24.2911 53.9152 24.2565C53.8578 24.2355 53.8075 24.1991 53.77 24.1515C53.739 24.1048 53.723 24.0499 53.7242 23.994V13.7498C53.723 13.6974 53.7362 13.6456 53.7624 13.5999C53.795 13.5472 53.8429 13.5054 53.8999 13.4799C53.9856 13.4458 54.0756 13.4231 54.1674 13.4124H54.5953H55.0155C55.1053 13.4209 55.193 13.4437 55.2753 13.4799C55.3294 13.5098 55.3763 13.5507 55.4129 13.5999C55.4262 13.649 55.4262 13.7007 55.4129 13.7498V15.2497C55.6397 14.8976 55.8953 14.564 56.177 14.2523C56.3933 14.0277 56.6313 13.8243 56.8876 13.6449C57.0915 13.5089 57.3158 13.4052 57.5524 13.3374C57.7699 13.2841 57.993 13.2564 58.2172 13.2549H58.561C58.695 13.2671 58.8279 13.2896 58.9583 13.3224C59.085 13.3476 59.21 13.3802 59.3327 13.4199C59.4177 13.4436 59.4979 13.4817 59.5696 13.5324C59.6131 13.5597 59.6476 13.5987 59.6689 13.6449C59.672 13.6873 59.672 13.7299 59.6689 13.7723C59.6689 13.8248 59.6689 13.8998 59.6689 14.0048C59.6689 14.1098 59.8218 14.2598 59.8218 14.4173Z" fill="#004887"/>
<path d="M71.2757 18.4145C71.2897 18.5297 71.2764 18.6466 71.2366 18.7559C71.1968 18.8652 71.1317 18.964 71.0464 19.0444C70.9052 19.1667 70.7229 19.2335 70.5345 19.2319H63.6575C63.6548 19.737 63.7138 20.2405 63.8333 20.7318C63.9356 21.1594 64.134 21.5591 64.414 21.9017C64.6968 22.2368 65.0625 22.495 65.4761 22.6516C65.9827 22.8424 66.5231 22.9316 67.0654 22.9141C67.5092 22.9205 67.9523 22.8802 68.3873 22.7941C68.7295 22.7304 69.0666 22.6427 69.396 22.5316C69.6787 22.4267 69.9079 22.3442 70.0913 22.2617C70.2195 22.1954 70.3597 22.1546 70.5039 22.1417C70.5548 22.1415 70.6049 22.1544 70.6491 22.1792C70.6941 22.2081 70.7288 22.25 70.7484 22.2992C70.778 22.371 70.796 22.4469 70.8019 22.5241C70.8106 22.639 70.8106 22.7543 70.8019 22.8691C70.8019 22.9666 70.8019 23.0491 70.8019 23.1241C70.8068 23.189 70.8068 23.2542 70.8019 23.3191C70.7929 23.3728 70.772 23.424 70.7408 23.4691C70.7129 23.5176 70.6796 23.5628 70.6415 23.6041C70.5234 23.6829 70.398 23.7506 70.2671 23.8065C70.005 23.9199 69.7341 24.0127 69.4571 24.084C69.1209 24.174 68.7388 24.2565 68.3033 24.3315C67.8432 24.402 67.3783 24.4371 66.9126 24.4365C66.1332 24.4539 65.3569 24.3345 64.6203 24.084C64.0042 23.8666 63.4492 23.5094 63.0004 23.0416C62.5381 22.5426 62.196 21.948 61.9994 21.3017C61.7662 20.5126 61.6554 19.6935 61.6708 18.8719C61.6692 18.0701 61.7956 17.273 62.0453 16.5096C62.2492 15.853 62.5901 15.2451 63.0462 14.7248C63.4795 14.2399 64.0171 13.8557 64.6203 13.5998C65.2761 13.3321 65.9809 13.1994 66.691 13.2099C67.4086 13.1906 68.1222 13.3209 68.7847 13.5923C69.3294 13.8317 69.8125 14.1879 70.1983 14.6348C70.5735 15.0739 70.8519 15.5846 71.0159 16.1346C71.1902 16.7474 71.2776 17.3808 71.2757 18.017V18.4145ZM69.3578 17.8595C69.4254 17.0328 69.1866 16.2099 68.6853 15.5422C68.4261 15.2552 68.1032 15.0303 67.7416 14.8847C67.3801 14.7391 66.9893 14.6767 66.5993 14.7023C66.169 14.6935 65.7425 14.7833 65.3538 14.9647C65.0071 15.1298 64.6999 15.3649 64.4522 15.6547C64.2099 15.9565 64.0214 16.2962 63.8944 16.6596C63.7621 17.047 63.6874 17.4512 63.6728 17.8595H69.3578Z" fill="#004887"/>
<path d="M77.0142 10.3005C77.0518 10.6188 76.9614 10.939 76.7621 11.1929C76.4781 11.3479 76.1586 11.4292 75.8337 11.4292C75.5088 11.4292 75.1892 11.3479 74.9053 11.1929C74.7088 10.9436 74.6209 10.6282 74.6608 10.3155C74.6227 9.99476 74.7131 9.67208 74.9129 9.41555C75.1847 9.22984 75.516 9.14724 75.8451 9.18307C76.1719 9.14701 76.5008 9.22972 76.7697 9.41555C76.8683 9.53972 76.9407 9.68192 76.9827 9.83386C77.0247 9.98581 77.0354 10.1444 77.0142 10.3005ZM76.8003 23.9644C76.8015 24.0202 76.7855 24.0751 76.7544 24.1219C76.7123 24.1679 76.66 24.2038 76.6016 24.2269C76.5085 24.2625 76.4107 24.2852 76.3112 24.2944C76.1535 24.3036 75.9953 24.3036 75.8375 24.2944C75.6822 24.3032 75.5266 24.3032 75.3714 24.2944C75.2719 24.2852 75.1741 24.2625 75.081 24.2269C75.0216 24.2143 74.9692 24.1804 74.9339 24.1318C74.8986 24.0833 74.8829 24.0236 74.89 23.9644V13.7502C74.8788 13.7008 74.8788 13.6496 74.89 13.6002C74.9278 13.548 74.9812 13.5087 75.0428 13.4877C75.1359 13.4521 75.2337 13.4294 75.3332 13.4202C75.4884 13.4114 75.644 13.4114 75.7993 13.4202C75.9571 13.411 76.1152 13.411 76.273 13.4202C76.3725 13.4294 76.4703 13.4521 76.5634 13.4877C76.6239 13.5107 76.6768 13.5496 76.7162 13.6002C76.7463 13.6447 76.7622 13.6969 76.7621 13.7502L76.8003 23.9644Z" fill="#004887"/>
<path d="M86.7337 9.55061C86.7434 9.6654 86.7434 9.78079 86.7337 9.89559C86.7224 9.96636 86.7071 10.0365 86.6878 10.1056C86.6747 10.1478 86.6478 10.1847 86.6114 10.2106C86.5742 10.2226 86.534 10.2226 86.4968 10.2106C86.425 10.2075 86.3547 10.1896 86.2905 10.1581L86.0001 10.0456L85.5875 9.93308C85.4062 9.89854 85.222 9.88097 85.0373 9.88059C84.7746 9.86648 84.5124 9.91538 84.2732 10.0231C84.0711 10.1119 83.9008 10.2582 83.7842 10.443C83.6471 10.674 83.5563 10.9285 83.5168 11.193C83.4601 11.5628 83.4346 11.9365 83.4403 12.3104V13.4278H85.7327C85.7865 13.4228 85.8404 13.4361 85.8855 13.4653C85.9369 13.4977 85.9769 13.5448 86.0001 13.6003C86.0426 13.6773 86.0711 13.7611 86.0842 13.8478C86.0937 13.9676 86.0937 14.0879 86.0842 14.2077C86.0969 14.4108 86.0602 14.6138 85.9772 14.8002C85.9537 14.8529 85.9154 14.8979 85.8666 14.9298C85.8178 14.9618 85.7607 14.9792 85.7021 14.9802H83.4098V23.9645C83.411 24.0203 83.395 24.0752 83.3639 24.122C83.3188 24.1679 83.2641 24.2037 83.2035 24.227C83.1103 24.2626 83.0126 24.2853 82.9131 24.2945C82.6031 24.3244 82.2909 24.3244 81.9809 24.2945C81.8814 24.2853 81.7837 24.2626 81.6905 24.227C81.6289 24.2057 81.5738 24.1696 81.5301 24.122C81.499 24.0752 81.483 24.0203 81.4842 23.9645V15.0102H80.0172C79.9581 15.0112 79.9001 14.9945 79.851 14.9624C79.8018 14.9302 79.7638 14.8841 79.7421 14.8302C79.6693 14.6413 79.638 14.4394 79.6504 14.2377C79.6413 14.1179 79.6413 13.9976 79.6504 13.8778C79.6622 13.7927 79.6853 13.7095 79.7191 13.6303C79.7424 13.5748 79.7824 13.5277 79.8338 13.4953C79.8821 13.467 79.9381 13.4539 79.9942 13.4578H81.4613V12.4004C81.4506 11.7818 81.5199 11.1645 81.6676 10.563C81.7732 10.1044 81.9849 9.67589 82.2866 9.31063C82.5625 8.97489 82.9235 8.71627 83.3334 8.56069C83.8091 8.3957 84.3114 8.31693 84.8157 8.32821C85.0724 8.3276 85.3284 8.35272 85.5799 8.4032C85.7814 8.43389 85.9787 8.48672 86.1682 8.56069C86.2702 8.59504 86.3658 8.64572 86.4509 8.71068C86.4995 8.7637 86.5383 8.8246 86.5655 8.89066C86.6 8.9744 86.6207 9.06301 86.6267 9.15314C86.6727 9.28273 86.7085 9.41562 86.7337 9.55061Z" fill="#004887"/>
<path d="M93.8322 24.2497L92.4415 27.9994C92.4084 28.0689 92.3595 28.13 92.2986 28.1781C92.2377 28.2262 92.1663 28.26 92.0901 28.2768C91.8096 28.3552 91.5179 28.3881 91.2266 28.3743C91.0665 28.3881 90.9054 28.3881 90.7452 28.3743C90.6449 28.3676 90.5478 28.3367 90.4625 28.2843C90.4308 28.263 90.4041 28.2352 90.3844 28.2029C90.3646 28.1705 90.3521 28.1344 90.3479 28.0969C90.3454 28.0033 90.3664 27.9106 90.409 27.8269L91.8455 24.2722C91.7678 24.2388 91.6996 24.1873 91.6469 24.1222C91.5883 24.0624 91.544 23.9907 91.517 23.9122L87.8034 14.1629C87.7515 14.0439 87.7205 13.9171 87.7117 13.788C87.7098 13.7473 87.7171 13.7068 87.7329 13.6692C87.7488 13.6316 87.7728 13.5979 87.8034 13.5705C87.8929 13.5074 87.999 13.4709 88.1091 13.4655C88.2922 13.4516 88.4761 13.4516 88.6592 13.4655H89.2094C89.3138 13.475 89.4165 13.4976 89.515 13.533C89.5851 13.5538 89.6449 13.5992 89.6831 13.6605C89.7288 13.7342 89.7672 13.8121 89.7977 13.893L92.7701 22.0898L95.6432 13.8405C95.6666 13.7323 95.7256 13.6348 95.8113 13.563C95.8989 13.5097 95.9987 13.4788 96.1016 13.473C96.2898 13.4584 96.4789 13.4584 96.6671 13.473C96.8451 13.4593 97.0239 13.4593 97.2019 13.473C97.312 13.4784 97.4181 13.5149 97.5076 13.578C97.5404 13.604 97.5666 13.6372 97.5838 13.675C97.6011 13.7128 97.609 13.7541 97.6069 13.7955C97.602 13.9108 97.5788 14.0246 97.5381 14.1329L93.8322 24.2497Z" fill="#004887"/>
</svg>
