<svg width="536" height="304" viewBox="0 0 536 304" fill="none" xmlns="http://www.w3.org/2000/svg">
<path d="M78.1503 32.592C150.686 4.63369 224.809 28.2727 275.34 80.6202C325.888 132.968 430.427 42.988 486.648 95.2018C525.004 130.845 508.276 223.363 456.356 263.804C385.796 318.759 169.709 292.867 122.944 283.983C69.0592 273.735 29.4874 241.689 13.2009 202.551C-26.0263 108.219 46.0984 44.9573 78.1503 32.592Z" fill="url(#paint0_linear_429_929)"/>
<path d="M327.086 68.6706C327.314 66.4315 327.438 64.1755 327.42 61.8674C327.411 60.6601 327.367 59.453 327.288 58.264L316.176 54.7142C315.458 49.9792 314.093 45.4803 312.153 41.2879L319.439 32.0667C317.718 29.0444 315.753 26.2017 313.561 23.5383L302.504 27.2857C299.257 23.9739 295.54 21.1099 291.477 18.8168L292.02 7.00474C288.909 5.60949 285.678 4.46381 282.327 3.6032L275.517 13.2466C272.851 12.8066 270.1 12.5981 267.316 12.6207C265.407 12.6362 263.534 12.7579 261.68 12.986L255.266 3.11248C251.874 3.83248 248.589 4.85345 245.447 6.13961L245.553 17.9642C241.4 20.0931 237.585 22.8229 234.212 26.0108L223.305 21.8379C221.013 24.4133 218.932 27.2001 217.098 30.1447L224.034 39.6411C221.945 43.7597 220.403 48.2112 219.509 52.906L208.272 56.0334C208.044 58.2725 207.92 60.5285 207.938 62.8366C207.947 64.0439 207.991 65.251 208.07 66.44L219.182 69.9898C219.9 74.7248 221.265 79.2237 223.205 83.4161L215.919 92.6373C217.64 95.6596 219.605 98.5023 221.797 101.166L232.854 97.4183C236.101 100.73 239.818 103.594 243.881 105.887L243.338 117.699C246.449 119.095 249.679 120.24 253.031 121.101L259.806 111.475C262.472 111.915 265.223 112.124 268.007 112.101C269.916 112.086 271.789 111.964 273.643 111.736L280.057 121.61C283.449 120.89 286.734 119.869 289.876 118.582L289.771 106.758C293.923 104.629 297.738 101.899 301.111 98.7112L312.018 102.884C314.31 100.309 316.391 97.5219 318.225 94.5773L311.289 85.0809C313.378 80.9624 314.921 76.5109 315.814 71.8161L327.086 68.6706ZM267.865 86.1079C254.924 86.2129 244.355 75.6628 244.257 62.542C244.159 49.4212 254.569 38.701 267.51 38.596C280.451 38.491 291.02 49.0411 291.118 62.1619C291.217 75.2827 280.807 86.0029 267.865 86.1079Z" fill="#9EC8FF"/>
<path d="M299.838 89.199C299.645 89.2005 299.434 89.1312 299.275 88.9905C298.905 88.6739 298.848 88.1238 299.161 87.7483C304.997 80.5261 308.173 71.39 308.103 62.032C308.07 57.5572 307.319 53.1593 305.851 48.9805C305.69 48.5201 305.932 48.0031 306.386 47.8395C306.841 47.676 307.351 47.9204 307.512 48.3808C309.034 52.7546 309.822 57.3297 309.856 62.0176C309.928 71.7841 306.616 81.3119 300.519 88.8737C300.328 89.0884 300.083 89.1969 299.838 89.199Z" fill="white"/>
<path d="M296.021 33.1392C295.811 33.141 295.583 33.0541 295.424 32.8956C291.439 29.1474 286.829 26.3273 281.737 24.5053C281.281 24.3493 281.049 23.8364 281.204 23.3736C281.358 22.9108 281.864 22.6759 282.32 22.8319C287.641 24.7408 292.444 27.6835 296.605 31.5901C296.958 31.9245 296.98 32.4923 296.65 32.85C296.476 33.0467 296.249 33.1374 296.021 33.1392Z" fill="white"/>
<path d="M258.302 23.5494C257.917 23.5525 257.547 23.2895 257.456 22.8823C257.33 22.4044 257.607 21.9232 258.079 21.7951C261.364 20.9167 264.775 20.463 268.207 20.4348C268.698 20.4308 269.086 20.8178 269.089 21.3145C269.093 21.8111 268.711 22.2045 268.22 22.2085C264.929 22.2355 261.675 22.6702 258.512 23.5122C258.442 23.5305 258.372 23.5488 258.302 23.5494Z" fill="white"/>
<path d="M139.992 220.578C140.155 219.032 140.231 217.451 140.219 215.87C140.213 215.036 140.172 214.202 140.131 213.368L132.442 210.909C131.944 207.628 130.993 204.511 129.658 201.609L134.706 195.212C133.517 193.126 132.154 191.149 130.634 189.297L122.983 191.898C120.724 189.59 118.152 187.622 115.338 186.029L115.715 177.841C113.571 176.864 111.324 176.083 108.99 175.481L104.294 182.159C102.453 181.855 100.543 181.71 98.6164 181.726C97.303 181.737 95.9902 181.818 94.713 181.989L90.2662 175.153C87.9232 175.651 85.6519 176.362 83.4694 177.25L83.5481 185.435C80.6695 186.914 78.0217 188.8 75.6914 191.003L68.1394 188.117C66.5591 189.905 65.1199 191.834 63.8392 193.869L68.6344 200.453C67.1846 203.306 66.122 206.404 65.4982 209.641L57.7211 211.799C57.5576 213.345 57.4818 214.926 57.4936 216.506C57.4999 217.341 57.5411 218.175 57.5824 219.009L65.2714 221.468C65.7687 224.749 66.7202 227.866 68.0554 230.767L63.007 237.165C64.1959 239.25 65.5592 241.228 67.0791 243.08L74.7303 240.479C76.9892 242.786 79.5608 244.754 82.3747 246.347L81.9981 254.536C84.142 255.513 86.3895 256.293 88.7232 256.896L93.4192 250.217C95.2778 250.522 97.1703 250.666 99.0966 250.651C100.41 250.64 101.723 250.558 103 250.388L107.447 257.224C109.79 256.725 112.061 256.014 114.244 255.126L114.165 246.942C117.043 245.462 119.691 243.576 122.022 241.374L129.574 244.26C131.154 242.471 132.593 240.542 133.874 238.507L129.079 231.923C130.528 229.071 131.591 225.973 132.215 222.736L139.992 220.578ZM98.9797 232.665C90.0136 232.737 82.6912 225.428 82.6232 216.338C82.5553 207.247 89.7676 199.82 98.7336 199.747C107.7 199.675 115.022 206.984 115.09 216.074C115.158 225.165 107.928 232.592 98.9797 232.665Z" fill="#9EC8FF"/>
<path d="M121.107 235.069C120.914 235.07 120.704 235.001 120.545 234.86C120.174 234.544 120.118 233.994 120.43 233.618C124.443 228.666 126.623 222.398 126.575 215.987C126.553 212.915 126.039 209.901 125.037 207.032C124.876 206.572 125.117 206.055 125.572 205.891C126.026 205.728 126.536 205.972 126.697 206.432C127.754 209.496 128.321 212.688 128.345 215.955C128.396 222.791 126.079 229.452 121.806 234.726C121.615 234.958 121.37 235.067 121.107 235.069Z" fill="white"/>
<path d="M118.471 196.245C118.261 196.247 118.033 196.16 117.874 196.002C115.14 193.433 111.991 191.506 108.497 190.239C108.041 190.083 107.809 189.57 107.963 189.107C108.117 188.644 108.624 188.409 109.08 188.565C112.803 189.902 116.163 191.969 119.073 194.696C119.425 195.031 119.447 195.598 119.117 195.956C118.943 196.153 118.716 196.243 118.471 196.245Z" fill="white"/>
<path d="M92.3477 189.6C91.9625 189.603 91.5928 189.34 91.5023 188.933C91.3762 188.455 91.6528 187.974 92.1246 187.845C94.4316 187.241 96.8107 186.92 99.2096 186.9C99.6998 186.896 100.088 187.283 100.092 187.78C100.095 188.277 99.7129 188.67 99.2227 188.674C96.9639 188.693 94.7247 188.995 92.5751 189.563C92.4878 189.599 92.4178 189.599 92.3477 189.6Z" fill="white"/>
<path d="M363.195 113.649C363.191 113.188 363.17 112.726 363.149 112.282L368.857 107.549C368.384 105.208 367.667 102.977 366.723 100.871L359.294 100.362C357.593 97.6766 355.386 95.3503 352.816 93.5063L352.741 85.9953C350.667 84.9109 348.454 84.0585 346.138 83.4733L341.102 89.054C340.226 88.9722 339.333 88.9261 338.44 88.9333C336.198 88.9512 334.047 89.2703 331.985 89.8551L326.136 85.2316C323.955 86.2079 321.898 87.4497 320.018 88.9031L321.177 96.3344C319.023 98.5359 317.274 101.16 316.052 104.047L308.834 105.809C308.238 108.087 307.888 110.452 307.819 112.885L314.221 116.581C314.579 119.845 315.548 122.927 317.022 125.704L313.887 132.512C315.267 134.401 316.856 136.129 318.618 137.642L325.427 134.87C328.119 136.625 331.193 137.861 334.472 138.421L337.745 145.125C338.13 145.139 338.515 145.136 338.9 145.133C340.827 145.118 342.716 144.925 344.552 144.555L346.669 137.417C349.83 136.309 352.689 134.581 355.106 132.36L362.298 133.936C363.755 132.166 365.037 130.238 366.089 128.17L361.875 122.006C362.73 119.371 363.217 116.561 363.195 113.649ZM338.431 124.822C332.723 124.868 328.047 120.199 328.003 114.411C327.96 108.622 332.564 103.879 338.272 103.833C343.981 103.788 348.656 108.456 348.7 114.245C348.744 120.034 344.14 124.776 338.431 124.822Z" fill="#9EC8FF"/>
<g opacity="0.8">
<path d="M458.391 52.425L449.495 52.4971C446.062 52.525 443.239 49.7069 443.213 46.2269L443.146 37.2075C443.12 33.7275 445.901 30.864 449.333 30.8361L458.229 30.764C461.661 30.7361 464.484 33.5542 464.51 37.0342L464.578 46.0536C464.586 49.5337 461.823 52.3971 458.391 52.425ZM449.351 33.3218C447.268 33.3387 445.582 35.0747 445.598 37.1876L445.665 46.2071C445.681 48.3199 447.392 50.0283 449.476 50.0114L458.372 49.9393C460.456 49.9224 462.142 48.1864 462.126 46.0735L462.059 37.054C462.043 34.9412 460.331 33.2328 458.247 33.2497L449.351 33.3218Z" fill="#9EC8FF"/>
</g>
<g opacity="0.8">
<path d="M416.528 52.7555L407.632 52.8277C404.2 52.8555 401.377 50.0375 401.351 46.5575L401.284 37.538C401.258 34.0581 404.038 31.1946 407.471 31.1667L416.367 31.0946C419.799 31.0667 422.622 33.8848 422.648 37.3647L422.715 46.3842C422.741 49.8642 419.961 52.7277 416.528 52.7555ZM407.489 33.6524C405.405 33.6693 403.719 35.4053 403.735 37.5181L403.803 46.5376C403.818 48.6505 405.53 50.3589 407.614 50.342L416.51 50.2698C418.594 50.2529 420.28 48.5169 420.264 46.4041L420.196 37.3846C420.181 35.2718 418.469 33.5633 416.385 33.5802L407.489 33.6524Z" fill="#9EC8FF"/>
</g>
<path d="M412.6 47.531C412.582 47.5311 412.565 47.5313 412.547 47.5314C412.232 47.5162 411.951 47.3764 411.756 47.1294L405.302 38.7305C404.948 38.2717 405.03 37.5963 405.483 37.2376C405.936 36.8788 406.602 36.9622 406.956 37.4209L412.65 44.8318L427.257 28.7161C427.657 28.2868 428.322 28.2459 428.745 28.6508C429.168 29.0557 429.208 29.7301 428.809 30.1595L413.368 47.2051C413.159 47.4021 412.88 47.5287 412.6 47.531Z" fill="#F37168"/>
<path d="M478.358 299.345C517.296 296.835 510.7 286.053 489.577 285.172C453.147 283.649 329.3 287.699 291.649 289.186C253.981 290.674 210.242 288.248 187.485 284.361C164.746 280.474 33.4687 285.915 39.523 296.807" fill="#4E48A5"/>
<path d="M115.646 59.4332L39.5254 60.0425L40.4842 186.583L116.605 185.973L115.646 59.4332Z" fill="#99BBEB"/>
<path d="M113.179 62.0456L43.5371 62.603L44.4398 181.739L114.082 181.181L113.179 62.0456Z" fill="white"/>
<path d="M64.7187 110.202C67.303 104.469 71.7195 102.606 79.0035 102.546C87.6707 102.475 92.2116 105.613 93.5066 110.25C77.9772 110.59 64.7187 110.202 64.7187 110.202Z" fill="#9BD6E8"/>
<path d="M75.7628 74.7611C72.0928 75.8387 72.2834 77.9321 71.0717 79.8772C69.8601 81.8223 67.2076 83.1401 66.9019 84.4387C66.5963 85.7372 67.7545 88.4263 66.4171 89.9463C65.0798 91.4664 64.63 92.2335 65.1666 93.7381C65.7031 95.2428 66.894 97.612 67.0015 97.9307C67.1089 98.2493 68.6143 100.509 70.4205 100.814C72.2267 101.119 75.6459 101.641 77.3501 102.373C79.0546 103.122 84.5235 101.355 87.5541 101.437C90.5846 101.518 92.652 99.2289 92.4132 97.7218C92.1919 96.2146 94.6215 93.1765 94.6023 90.5846C94.5818 87.7974 91.3792 85.7643 90.5074 83.9251C89.6358 82.1036 90.575 78.847 87.3735 76.9559C85.3506 75.7653 83.9678 75.8832 82.3525 75.3461C80.7724 74.8265 78.1046 74.0672 75.7628 74.7611Z" fill="#3A384D"/>
<path d="M80.4708 107.092C79.6564 108.342 79.0434 108.4 78.1226 107.112C77.3965 106.088 75.9598 103.755 75.951 102.566L75.8636 90.722C75.8549 89.5323 76.8115 88.5477 77.9856 88.5381L80.3337 88.5188C81.5078 88.5092 82.4788 89.4779 82.4876 90.6676L82.575 102.511C82.5838 103.701 81.2161 105.967 80.4708 107.092Z" fill="#F09959"/>
<path d="M80.3324 88.5364L77.9849 88.5557C76.8112 88.5653 75.8549 89.5498 75.8636 90.7394L75.9416 101.304C78.5757 102.135 80.9633 100.428 82.5259 98.5155L82.4682 90.6852C82.4768 89.4776 81.5062 88.5267 80.3324 88.5364Z" fill="#E38540"/>
<path d="M79.2304 98.4346C83.1385 98.4025 86.2743 93.9965 86.2345 88.5937C86.1946 83.1908 82.9942 78.837 79.086 78.8691C75.1779 78.9012 72.0421 83.3071 72.0819 88.71C72.1218 94.1129 75.3222 98.4667 79.2304 98.4346Z" fill="#F09959"/>
<path d="M82.4085 80.8467C77.9993 88.534 71.3918 87.8427 71.3918 87.8427C71.3918 87.8427 71.4746 77.7057 76.7068 77.1301C81.939 76.5546 85.0368 78.6594 86.131 82.1652C87.2251 85.6711 86.174 88.0052 86.174 88.0052C86.174 88.0052 84.4654 86.6701 83.5915 84.5293C82.7348 82.3529 82.4085 80.8467 82.4085 80.8467Z" fill="#3A384D"/>
<path d="M72.3581 91.9304C73.2808 91.4768 73.4856 89.9716 72.8155 88.5684C72.1455 87.1653 70.8542 86.3955 69.9315 86.8491C69.0088 87.3027 68.8039 88.8079 69.474 90.2111C70.1441 91.6142 71.4353 92.384 72.3581 91.9304Z" fill="#F09959"/>
<path d="M88.0551 86.693C87.1262 86.2546 85.8469 87.0456 85.1979 88.4598C84.5488 89.8739 84.7757 91.3757 85.7047 91.8141C86.6336 92.2525 87.9129 91.4615 88.5619 90.0474C89.211 88.6332 88.9841 87.1314 88.0551 86.693Z" fill="#F09959"/>
<path d="M81.8601 93.9407C81.8601 93.9407 80.6809 95.5115 79.2101 95.5236C77.7393 95.5357 76.5371 93.9844 76.5371 93.9844L81.8601 93.9407Z" fill="white"/>
<path d="M87.8628 125.519L70.0038 125.664C68.8657 125.673 67.9132 124.741 67.9045 123.57C67.8958 122.417 68.8166 121.451 69.9722 121.442L87.8312 121.297C88.9693 121.288 89.9218 122.221 89.9306 123.391C89.9393 124.562 89.0184 125.51 87.8628 125.519Z" fill="#99BBEB"/>
<path d="M91.1872 131.974L66.7802 132.172C65.6421 132.181 64.6896 131.249 64.6808 130.079C64.6722 128.926 65.593 127.961 66.7486 127.951L91.1557 127.754C92.2937 127.744 93.2462 128.677 93.255 129.847C93.2636 131 92.3253 131.965 91.1872 131.974Z" fill="#99BBEB"/>
<path d="M108.857 155.112L49.4861 155.592C48.8208 155.597 48.274 155.054 48.2689 154.382C48.2639 153.71 48.8025 153.158 49.4678 153.152L108.838 152.673C109.504 152.667 110.051 153.211 110.056 153.883C110.061 154.554 109.505 155.107 108.857 155.112Z" fill="#99BBEB"/>
<path d="M108.9 160.795L49.5291 161.274C48.8638 161.28 48.3169 160.736 48.3119 160.064C48.3068 159.393 48.8455 158.84 49.5108 158.835L108.881 158.355C109.547 158.35 110.094 158.894 110.099 159.565C110.086 160.237 109.547 160.79 108.9 160.795Z" fill="#99BBEB"/>
<path d="M108.944 166.477L49.5731 166.957C48.9077 166.962 48.3609 166.419 48.3558 165.747C48.3508 165.075 48.8894 164.523 49.5547 164.518L108.925 164.038C109.591 164.033 110.137 164.576 110.143 165.248C110.13 165.92 109.591 166.472 108.944 166.477Z" fill="#99BBEB"/>
<path d="M100.202 111.31L57.4352 111.662C56.2443 111.671 55.2739 110.703 55.265 109.496L54.9702 69.5346C54.9613 68.3275 55.9173 67.3432 57.1082 67.3334L99.8754 66.9819C101.066 66.9721 102.037 67.9406 102.046 69.1478L102.34 109.109C102.349 110.316 101.393 111.3 100.202 111.31ZM57.1213 69.1086C56.9112 69.1104 56.7198 69.2895 56.7215 69.5203L57.0163 109.481C57.0179 109.694 57.1944 109.888 57.4221 109.886L100.189 109.535C100.399 109.533 100.591 109.354 100.589 109.123L100.294 69.1622C100.293 68.9491 100.116 68.7553 99.8885 68.7572L57.1213 69.1086Z" fill="#99BBEB"/>
<path d="M63.8124 137.685L65.0745 140.213L67.8446 140.599L65.8628 142.604L66.3562 145.387L63.8597 144.094L61.4 145.428L61.8523 142.637L59.8411 140.665L62.6052 140.234L63.8124 137.685Z" fill="#99BBEB"/>
<path d="M73.9666 137.605L75.2112 140.133L77.9814 140.519L75.9995 142.524L76.493 145.307L74.0139 144.014L71.5367 145.348L71.989 142.557L69.9778 140.585L72.7419 140.154L73.9666 137.605Z" fill="#99BBEB"/>
<path d="M84.1043 137.525L85.3489 140.053L88.1366 140.439L86.1372 142.444L86.6306 145.227L84.1516 143.933L81.6744 145.268L82.1267 142.477L80.1155 140.505L82.8796 140.074L84.1043 137.525Z" fill="#99BBEB"/>
<path d="M94.241 137.445L95.5032 139.973L98.2733 140.359L96.2739 142.363L96.7674 145.147L94.2883 143.853L91.8111 145.188L92.2809 142.396L90.2522 140.425L93.0163 139.993L94.241 137.445Z" fill="#99BBEB"/>
<path d="M285.336 58.0933L209.215 58.7026L210.174 185.243L286.295 184.634L285.336 58.0933Z" fill="#99BBEB"/>
<path d="M282.869 60.7058L213.227 61.2632L214.129 180.399L283.772 179.841L282.869 60.7058Z" fill="white"/>
<path d="M237.55 86.7686C237.592 92.4309 241.021 101.545 248.952 101.195C256.883 100.829 258.587 92.1163 258.867 89.6466C259.164 87.1767 237.55 86.7686 237.55 86.7686Z" fill="#7A4E34"/>
<path d="M234.408 108.862C236.992 103.129 241.409 101.266 248.693 101.206C257.36 101.135 261.901 104.273 263.196 108.91C247.684 109.25 234.408 108.862 234.408 108.862Z" fill="#D54A41"/>
<path d="M250.16 105.753C249.346 107.002 248.733 107.061 247.812 105.772C247.086 104.748 245.649 102.416 245.64 101.226L245.553 89.3821C245.544 88.1924 246.501 87.2079 247.675 87.1983L250.023 87.179C251.197 87.1693 252.168 88.138 252.177 89.3277L252.264 101.171C252.273 102.361 250.906 104.628 250.16 105.753Z" fill="#F09959"/>
<path d="M250.022 87.1967L247.692 87.2158C246.518 87.2255 245.562 88.21 245.571 89.3996L245.649 99.9643C248.283 100.795 250.67 99.0884 252.233 97.1756L252.175 89.3453C252.166 88.1379 251.196 87.187 250.022 87.1967Z" fill="#E38540"/>
<path d="M248.937 97.0947C252.846 97.0626 255.981 92.6567 255.942 87.2538C255.902 81.851 252.701 77.4971 248.793 77.5292C244.885 77.5614 241.749 81.9673 241.789 87.3701C241.829 92.773 245.029 97.1269 248.937 97.0947Z" fill="#F09959"/>
<path d="M252.698 79.8583C251.88 82.8655 250.04 82.8451 247.473 83.8605C244.906 84.8758 243.687 85.8801 242.861 87.8044C241.81 90.2632 243.422 97.405 243.422 97.405C243.422 97.405 236.888 92.5229 237.566 84.7586C238.262 76.9942 242.758 73.9567 246.997 73.9219C251.253 73.8869 252.883 76.5012 252.883 76.5012C252.883 76.5012 255.143 76.5003 257.298 79.0393C260.196 82.4776 259.382 90.8644 257.408 93.8812C255.433 96.8979 254.109 97.8498 254.161 97.7251C254.212 97.5826 255.966 90.6795 254.971 86.4088C253.976 82.1381 252.698 79.8583 252.698 79.8583Z" fill="#7A4E34"/>
<path d="M251.55 92.6008C251.55 92.6008 250.37 94.1717 248.9 94.1837C247.429 94.1958 246.227 92.6445 246.227 92.6445L251.55 92.6008Z" fill="white"/>
<path d="M257.552 124.179L239.693 124.324C238.555 124.333 237.603 123.401 237.594 122.23C237.585 121.077 238.506 120.112 239.662 120.102L257.521 119.957C258.659 119.948 259.611 120.881 259.62 122.052C259.629 123.222 258.708 124.17 257.552 124.179Z" fill="#99BBEB"/>
<path d="M260.877 130.634L236.47 130.832C235.332 130.841 234.379 129.909 234.37 128.739C234.362 127.586 235.282 126.621 236.438 126.612L260.845 126.414C261.983 126.405 262.936 127.337 262.944 128.507C262.953 129.66 262.032 130.625 260.877 130.634Z" fill="#99BBEB"/>
<path d="M278.546 153.772L219.176 154.252C218.51 154.257 217.963 153.714 217.958 153.042C217.953 152.37 218.492 151.818 219.157 151.813L278.528 151.333C279.193 151.328 279.74 151.871 279.745 152.543C279.75 153.215 279.211 153.767 278.546 153.772Z" fill="#99BBEB"/>
<path d="M278.589 159.455L219.219 159.935C218.553 159.94 218.006 159.396 218.001 158.725C217.996 158.053 218.535 157.5 219.2 157.495L278.571 157.016C279.236 157.01 279.783 157.554 279.788 158.225C279.793 158.897 279.254 159.45 278.589 159.455Z" fill="#99BBEB"/>
<path d="M278.633 165.138L219.262 165.617C218.597 165.623 218.05 165.079 218.045 164.407C218.04 163.735 218.579 163.183 219.244 163.178L278.615 162.698C279.28 162.693 279.827 163.236 279.832 163.908C279.837 164.58 279.298 165.132 278.633 165.138Z" fill="#99BBEB"/>
<path d="M269.892 109.97L227.125 110.322C225.934 110.332 224.963 109.363 224.954 108.156L224.66 68.1948C224.651 66.9876 225.607 66.0033 226.798 65.9935L269.565 65.642C270.756 65.6323 271.726 66.6007 271.735 67.8079L272.03 107.769C272.039 108.976 271.083 109.96 269.892 109.97ZM226.811 67.7688C226.601 67.7705 226.409 67.9496 226.411 68.1804L226.706 108.141C226.707 108.355 226.884 108.548 227.112 108.546L269.879 108.195C270.089 108.193 270.28 108.014 270.279 107.783L269.984 67.8223C269.982 67.6093 269.806 67.4154 269.578 67.4173L226.811 67.7688Z" fill="#99BBEB"/>
<path d="M233.519 136.345L234.764 138.874L237.534 139.259L235.552 141.264L236.046 144.047L233.567 142.754L231.089 144.088L231.542 141.297L229.531 139.325L232.295 138.894L233.519 136.345Z" fill="#99BBEB"/>
<path d="M243.656 136.265L244.901 138.793L247.688 139.179L245.689 141.184L246.182 143.967L243.703 142.674L241.226 144.008L241.678 141.217L239.667 139.245L242.431 138.814L243.656 136.265Z" fill="#99BBEB"/>
<path d="M253.794 136.185L255.056 138.713L257.826 139.099L255.827 141.104L256.32 143.887L253.841 142.594L251.364 143.928L251.834 141.137L249.805 139.165L252.569 138.734L253.794 136.185Z" fill="#99BBEB"/>
<path d="M263.93 136.105L265.193 138.633L267.963 139.019L265.963 141.024L266.457 143.807L263.978 142.514L261.518 143.848L261.97 141.056L259.942 139.085L262.706 138.654L263.93 136.105Z" fill="#99BBEB"/>
<path opacity="0.2" d="M218.738 183.914L98.6149 184.862L106.148 59.9871L222.104 59.0715L218.738 183.914Z" fill="#99BBEB"/>
<path d="M214.062 35.5144L110.081 36.3467L111.391 209.181L215.372 208.348L214.062 35.5144Z" fill="#99BBEB"/>
<path d="M210.674 39.0575L115.553 39.8188L116.786 202.531L211.907 201.77L210.674 39.0575Z" fill="white"/>
<path d="M154.503 73.6873C154.431 73.4926 152.696 63.8137 152.476 60.0519C152.255 56.29 158.416 55.689 158.416 55.689C158.416 55.689 163.439 52.896 167.11 54.2684C170.763 55.6586 173.267 58.0169 174.953 60.9501C176.638 63.901 173.589 73.1577 173.589 73.1577L154.503 73.6873Z" fill="#2E2D3D"/>
<path d="M143.311 104.928C143.292 104.768 143.702 100.95 143.718 100.808C144.5 92.7811 154.253 90.4297 163.989 90.3498C175.441 90.2557 183.213 92.3211 184.518 100.65C184.555 100.898 185.248 104.707 185.215 104.974C163.995 105.414 143.311 104.928 143.311 104.928Z" fill="#D5E1E8"/>
<path d="M165.993 96.5587C164.866 98.2726 164.043 98.3504 162.786 96.585C161.795 95.1903 158.495 92.0034 158.483 90.3875L159.713 74.2182C159.701 72.6024 161.005 71.2599 162.599 71.2468L165.806 71.2204C167.4 71.2073 168.724 72.5282 168.736 74.1441L169.486 90.2971C169.498 91.9129 166.998 95.0233 165.993 96.5587Z" fill="#F09959"/>
<path d="M165.804 71.2023L162.598 71.2287C161.004 71.2418 159.7 72.5842 159.712 74.1999L158.644 88.5558C162.244 89.6804 167.079 87.2968 169.196 84.6692L168.716 74.1259C168.721 72.5101 167.398 71.1892 165.804 71.2023Z" fill="#E38540"/>
<path d="M153.385 91.6055L158.587 101.166C158.587 101.166 161.319 98.8537 161.585 99.2953C161.851 99.7369 161.14 105.405 161.14 105.405C161.14 105.405 167.252 105.444 167.513 105.175C167.774 104.907 166.224 99.0441 166.855 99.039C167.468 99.0339 169.354 100.723 169.354 100.723L175.012 91.4277L173.749 91.1363L164.418 96.3253L154.347 91.4023L153.385 91.6055Z" fill="#BDCCD4"/>
<path d="M159.284 95.9769L163.104 98.5377L161.981 105.418L167.11 105.092L165.786 98.853L168.917 95.8978L167.418 94.4897L160.762 94.5444L159.284 95.9769Z" fill="#D54A41"/>
<path d="M158.742 86.8548L154.065 91.4376C154.065 91.4376 158.927 100.043 159.19 100.04C159.452 100.038 163.217 95.2322 163.217 95.2322L165.651 95.1766L169.534 99.2453L173.94 91.1855L169.351 86.3238C169.351 86.3238 165.52 93.9884 164.803 94.1718C164.104 94.355 164.087 94.4439 163.524 94.0048C162.96 93.5656 158.742 86.8548 158.742 86.8548Z" fill="#D5E1E8"/>
<path d="M164.307 84.743C169.647 84.6991 173.931 78.6859 173.877 71.3121C173.823 63.9383 169.45 57.9963 164.11 58.0402C158.77 58.0841 154.486 64.0973 154.54 71.471C154.594 78.8448 158.967 84.7869 164.307 84.743Z" fill="#F09959"/>
<path d="M154.899 75.856C156.161 75.2355 156.439 73.173 155.521 71.2491C154.602 69.3253 152.834 68.2687 151.572 68.8892C150.309 69.5097 150.031 71.5723 150.95 73.4961C151.868 75.4199 153.636 76.4765 154.899 75.856Z" fill="#F09959"/>
<path d="M176.355 68.7029C175.085 68.1032 173.333 69.1888 172.443 71.1277C171.553 73.0665 171.862 75.1245 173.133 75.7242C174.403 76.3239 176.155 75.2383 177.045 73.2994C177.935 71.3605 177.626 69.3026 176.355 68.7029Z" fill="#F09959"/>
<path d="M168.541 76.8275C168.541 76.8275 166.638 80.0016 164.274 80.021C161.91 80.0404 159.961 76.8979 159.961 76.8979L168.541 76.8275Z" fill="white"/>
<path d="M158.465 62.3467C162.42 59.4914 164.227 59.9382 167.239 64.5647C170.268 69.1912 173.841 69.2328 173.841 69.2328L174.278 64.4181C174.278 64.4181 169.766 55.7206 163.802 56.9236C157.839 58.1088 154.481 63.5866 154.481 63.5866C154.481 63.5866 154.259 73.7965 155.102 74.1447C155.945 74.4928 156.006 70.8352 156.596 70.1024C157.186 69.3519 155.969 65.8646 156.746 64.2426C157.539 62.6206 158.465 62.3467 158.465 62.3467Z" fill="#2E2D3D"/>
<path d="M171.322 67.5C172.718 69.0335 172.238 75.1639 172.973 75.0868C173.709 75.0098 173.929 69.2189 173.714 68.6169C173.517 68.0147 171.322 67.5 171.322 67.5Z" fill="#2E2D3D"/>
<path d="M186.109 125.696L141.725 126.056C140.167 126.068 138.879 124.784 138.867 123.207C138.855 121.629 140.124 120.325 141.682 120.312L186.066 119.952C187.625 119.94 188.912 121.224 188.924 122.801C188.936 124.379 187.668 125.683 186.109 125.696Z" fill="#99BBEB"/>
<path d="M180.661 134.568L147.325 134.838C145.766 134.851 144.479 133.566 144.467 131.988C144.455 130.41 145.723 129.105 147.282 129.092L180.618 128.822C182.176 128.809 183.464 130.094 183.476 131.672C183.488 133.268 182.219 134.555 180.661 134.568Z" fill="#99BBEB"/>
<path d="M204.77 166.178L123.689 166.832C122.779 166.84 122.038 166.103 122.031 165.184C122.024 164.265 122.754 163.517 123.664 163.509L204.745 162.854C205.656 162.847 206.397 163.583 206.403 164.503C206.41 165.422 205.681 166.17 204.77 166.178Z" fill="#99BBEB"/>
<path d="M204.83 173.938L123.749 174.593C122.838 174.601 122.097 173.864 122.091 172.945C122.084 172.026 122.813 171.277 123.724 171.27L204.805 170.615C205.715 170.608 206.456 171.344 206.463 172.263C206.47 173.183 205.74 173.931 204.83 173.938Z" fill="#99BBEB"/>
<path d="M204.889 181.699L123.808 182.353C122.898 182.361 122.157 181.624 122.15 180.705C122.143 179.786 122.873 179.038 123.783 179.03L204.864 178.375C205.775 178.368 206.516 179.104 206.523 180.024C206.529 180.943 205.8 181.691 204.889 181.699Z" fill="#99BBEB"/>
<path d="M192.978 106.042L134.554 106.523C133.118 106.534 131.918 105.355 131.908 103.881L131.505 49.3099C131.494 47.8541 132.659 46.6373 134.112 46.6254L192.536 46.1452C193.972 46.1334 195.172 47.3131 195.183 48.7865L195.585 103.358C195.579 104.814 194.414 106.031 192.978 106.042ZM134.125 48.4006C133.653 48.4045 133.253 48.7984 133.256 49.2955L133.659 103.867C133.662 104.346 134.051 104.751 134.541 104.747L192.965 104.267C193.438 104.263 193.838 103.869 193.834 103.372L193.432 48.8009C193.428 48.3216 193.04 47.9165 192.549 47.9205L134.125 48.4006Z" fill="#99BBEB"/>
<path d="M136.25 142.44L137.957 145.906L141.744 146.425L139.032 149.164L139.708 152.975L136.315 151.192L132.931 153.031L133.55 149.209L130.798 146.515L134.577 145.933L136.25 142.44Z" fill="#99BBEB"/>
<path d="M150.099 142.33L151.806 145.796L155.593 146.316L152.881 149.054L153.557 152.866L150.163 151.083L146.779 152.921L147.399 149.099L144.647 146.405L148.426 145.824L150.099 142.33Z" fill="#99BBEB"/>
<path d="M163.948 142.221L165.655 145.687L169.442 146.206L166.73 148.945L167.406 152.756L164.013 150.973L160.629 152.812L161.249 148.99L158.497 146.296L162.275 145.715L163.948 142.221Z" fill="#99BBEB"/>
<path d="M177.797 142.112L179.504 145.577L183.291 146.097L180.579 148.835L181.255 152.647L177.862 150.864L174.477 152.703L175.097 148.88L172.345 146.187L176.124 145.605L177.797 142.112Z" fill="#99BBEB"/>
<path d="M191.856 142.001L193.58 145.467L197.367 145.986L194.638 148.725L195.314 152.536L191.92 150.753L188.554 152.592L189.173 148.77L186.421 146.076L190.2 145.494L191.856 142.001Z" fill="#99BBEB"/>
<path d="M382.303 201.483L248.891 202.536C248.086 202.543 247.433 201.891 247.427 201.074L247.41 198.872C247.403 198.055 248.046 197.393 248.852 197.386L382.264 196.333C383.069 196.327 383.722 196.979 383.728 197.795L383.745 199.998C383.751 200.814 383.109 201.477 382.303 201.483Z" fill="#2E5B9A"/>
<path d="M416.084 126.998C417.937 133.448 413.576 140.143 408.72 141.584C403.863 143.025 400.363 138.649 398.51 132.199C396.657 125.749 399.077 119.354 403.933 117.912C408.79 116.489 414.231 120.548 416.084 126.998Z" fill="#F09959"/>
<path d="M392.676 293.645C394.551 291.499 395.732 292.556 396.648 288.712C397.581 284.869 398.856 277.595 397.059 276.117C395.262 274.64 384.216 261.283 384.216 261.283L389.786 252.483C389.786 252.483 402.403 272.026 404.09 272.865C405.777 273.704 409.998 273.884 408.43 277.093C406.879 280.302 406.345 292.898 404.879 293.549" fill="#F09959"/>
<path d="M304.935 295.439C312.52 295.948 316.138 292.793 320.889 291.335C325.64 289.877 331.534 288.978 329.265 285.284C326.995 281.608 327.861 273.52 332.654 268.35C337.447 263.197 327.102 261.378 327.102 261.378C327.102 261.378 312.152 286.822 309.351 289.117C306.585 291.448 297.349 294.931 304.935 295.439Z" fill="#F09959"/>
<path d="M403.985 202.058C403.985 202.058 366.475 201.359 351.688 213.855C343.089 227.296 322.347 266.922 320.752 271.286C321.882 272.413 328.218 274.423 331.017 274.117C339.221 264.036 350.098 255.301 354.379 247.417C359.662 237.697 361.289 232.853 369.966 231.932C378.661 231.011 398.283 228.014 404.166 227.968C410.049 227.921 403.985 202.058 403.985 202.058Z" fill="#6791C9"/>
<path d="M435.422 294.48L420.87 234.939L425.195 234.905L437.401 294.464" fill="#2E5B9A"/>
<path d="M380.466 294.914L396.169 233.021L391.844 233.055L378.505 294.929" fill="#2E5B9A"/>
<path d="M425.325 199.279L403.556 203.269C403.556 203.269 374.582 203.764 361.348 206.373C349.32 208.741 347.641 222.642 361.619 241.659C369.564 252.465 376.266 261.079 389.927 270.739C393.357 268.137 394.68 267.15 395.578 260.962C394.587 259.603 391.982 251.063 391.164 249.4C383.531 233.53 373.454 227.82 373.302 226.258C374.962 223.474 418.006 240.361 426.455 230.154C434.539 220.411 425.325 199.279 425.325 199.279Z" fill="#75A1DE"/>
<path d="M425.85 149.21C420.101 148.438 414.262 149.586 408.813 153.66C404.071 158.635 398.724 166.829 399.159 180.269C399.711 197.332 396.69 198.457 399.878 203.138C413.086 208.54 435.784 232.07 430.284 206.699C426.308 188.331 438.459 174.542 428.41 154.216C427.609 152.553 426.581 150.945 425.85 149.21Z" fill="#F37168"/>
<path d="M399.209 186.68C399.015 195.579 397.81 198.217 398.777 200.998C404.156 201.506 413.977 203.613 416.455 207.074C419.287 211.03 422.11 211.576 420.774 208.656C419.439 205.719 415.958 201.573 421.17 187.217C426.382 172.844 428.847 163.163 423.535 153.242L399.209 186.68Z" fill="#D54A41"/>
<path d="M425.85 149.21C422.249 140.749 421.3 131.219 421.3 131.219L412.059 134.063C412.059 134.063 417.404 145.973 412.394 150.275C411.333 151.189 410.098 152.3 408.813 153.642C414.262 149.585 420.102 148.438 425.85 149.21Z" fill="#F09959"/>
<path d="M421.597 133.472C421.05 132.979 420.345 132.363 419.622 131.73L412.093 134.045C412.094 134.063 412.076 134.08 412.076 134.08C412.255 134.505 414.215 139.036 414.512 143.421C416.76 142.018 419.193 139.743 421.982 135.778C421.818 134.909 421.689 134.129 421.597 133.472Z" fill="#E38540"/>
<path d="M419.358 151.925C409.842 155.374 410.988 165.559 402.332 180.653C397.857 188.467 393.637 188.376 393.637 188.376C393.637 188.376 382.993 188.549 370.094 187.052C362.015 186.121 361.526 188.558 367.145 190.538C378.486 194.551 390.268 198.881 399.732 197.74C409.196 196.6 425.202 171.965 425.994 165.583C427.064 156.766 424.142 150.182 419.358 151.925Z" fill="#F09959"/>
<path d="M415.091 237.468C414.496 237.473 413.883 237.478 413.27 237.465C405.494 237.332 400.198 236.291 395.936 235.437C390.973 234.447 388.22 233.918 385.062 235.471C383.841 236.067 382.383 235.563 381.779 234.325C381.174 233.087 381.688 231.609 382.909 230.995C387.55 228.703 391.461 229.471 396.88 230.546C400.948 231.348 406.017 232.355 413.355 232.474C421.569 232.621 426.567 231.338 429.085 228.459C431.324 225.902 431.957 221.617 431.066 214.983C430.769 212.712 430.457 210.832 430.199 209.165C429.446 204.465 428.949 201.362 429.508 196.562C430.017 192.101 431.426 186.159 434.718 174.607C435.093 173.29 436.453 172.533 437.752 172.914C439.051 173.294 439.797 174.673 439.421 175.99C433.298 197.491 433.629 199.584 435.044 208.363C435.319 210.048 435.614 211.981 435.929 214.305C437.024 222.482 436.016 228.013 432.752 231.751C429.401 235.613 423.916 237.397 415.091 237.468Z" fill="#2E5B9A"/>
<path d="M304.934 295.439C312.52 295.948 316.137 292.793 320.889 291.335C325.64 289.877 331.534 288.978 329.264 285.284C328.821 284.577 328.517 283.709 328.317 282.734C318.305 287.803 312.917 290.705 309.694 290.447C308.94 290.382 308.309 290.316 307.766 290.231C304.193 292.426 298.488 295.011 304.934 295.439Z" fill="#D54A41"/>
<path d="M404.88 293.549C406.346 292.898 406.879 280.302 408.43 277.093C409.706 274.455 407.092 273.854 405.179 273.265C404.996 281.347 403.955 289.347 399.099 290.895" fill="#D54A41"/>
<path d="M365.865 197.15L333.928 197.405C332.983 197.413 332.103 196.852 331.694 195.985L318.576 167.91C317.989 166.671 318.52 165.193 319.741 164.597C320.963 164.002 322.42 164.541 323.007 165.779L335.466 192.403L365.845 192.16C367.193 192.149 368.305 193.259 368.315 194.626C368.326 195.993 367.231 197.139 365.865 197.15Z" fill="#75A1DE"/>
<path d="M372.476 187.335C366.015 187.297 359.594 183.441 356.412 184.034C353.23 184.628 342.904 192.009 344.219 192.282C345.534 192.556 353.73 188.158 354.01 188.103C354.289 188.029 356.099 191.088 360.502 192.172C364.905 193.256 360.511 188.833 374.165 192.898C383.045 195.546 372.476 187.335 372.476 187.335Z" fill="#F09959"/>
<path d="M424.845 141.457L425.85 149.192C425.85 149.192 417.503 149.755 413.371 152.168C409.24 154.58 403.147 161.466 403.147 161.466L408.088 152.671L408.762 147.072L424.845 141.457Z" fill="#F2E5DE"/>
<path d="M421.364 150.968C415.157 149.845 412.329 155.497 408.373 164.728C404.417 173.958 397.64 185.183 396.285 186.65C394.931 188.099 373.279 186.831 373.279 186.831C373.279 186.831 372.68 193.194 373.334 193.953C373.988 194.711 377.734 194.575 377.734 194.575C377.734 194.575 379.231 195.771 380.657 196.719C382.065 197.667 393.967 199.384 399.479 199.039C404.992 198.693 410.048 198.192 410.777 197.333C411.524 196.475 426.4 172.826 427.263 164.383C428.126 155.958 424.52 151.547 421.364 150.968Z" fill="#F2E5DE"/>
<path d="M402.771 112.416C391.045 113.077 393.021 130.963 393.021 130.963C393.021 130.963 396.074 131.898 402.457 130.782C401.952 128.868 402.124 123.947 402.124 123.947C402.124 123.947 402.89 127.919 403.854 130.345C405.207 130.956 406.726 130.393 409.33 129.733C410.704 135.405 414.487 137.791 417.067 138.587C419.928 139.471 422.947 140.53 426.296 138.799C429.644 137.067 427.672 119.625 425.841 116.123C423.122 110.87 418.622 106.199 410.92 108.746C407.077 110.02 402.771 112.416 402.771 112.416Z" fill="#303C60"/>
<path d="M423.331 133.512L428.183 140.577C428.183 140.577 422.964 154.098 438.471 160.067C450.623 164.749 449.252 173.178 443.854 181.692C438.457 190.206 447.25 197.524 447.25 197.524C447.25 197.524 448.509 188.137 460.261 186.269C476.28 183.727 480.664 161.848 468.587 151.021C458.608 142.06 455.654 149.578 448.869 141.515C442.101 133.452 429.467 139.04 429.467 139.04L424.774 132.204L423.331 133.512Z" fill="#303C60"/>
<path d="M474.27 172.993C474.2 172.994 474.129 172.977 474.059 172.942C473.848 172.837 473.776 172.571 473.88 172.357C477.85 164.85 474.49 155.82 472.825 153.383C472.648 153.118 472.471 152.871 472.294 152.588C470.646 150.027 468.608 146.847 457.79 144.962C455.177 144.504 453.064 142.958 450.828 141.307C446.197 137.917 440.95 134.07 429.644 139.452C429.434 139.56 429.171 139.456 429.082 139.243C428.975 139.031 429.078 138.764 429.287 138.673C441.047 133.075 446.506 137.08 451.33 140.61C453.496 142.191 455.539 143.684 457.941 144.109C469.128 146.061 471.289 149.418 473.026 152.121C473.203 152.386 473.363 152.651 473.54 152.898C475.292 155.459 478.814 164.913 474.653 172.777C474.567 172.92 474.427 172.992 474.27 172.993Z" fill="#303C60"/>
<path d="M420.831 140.812C420.061 140.818 419.237 140.753 418.343 140.636C414.241 140.048 408.708 137.73 408.169 124.452C408.168 124.221 408.341 124.006 408.586 124.004C408.831 124.002 409.025 124.179 409.027 124.427C409.244 129.895 410.343 133.935 412.305 136.441C413.791 138.347 415.742 139.396 418.46 139.801C422.263 140.339 424.779 139.608 425.92 137.628C426.041 137.414 426.303 137.358 426.497 137.481C426.708 137.604 426.763 137.87 426.641 138.066C425.604 139.868 423.65 140.789 420.831 140.812Z" fill="#303C60"/>
<path d="M265.611 295.821L277.137 200.662L270.203 200.717L262.46 295.846" fill="#2E5B9A"/>
<path d="M366.267 295.026L353.264 200.061L360.197 200.006L369.419 295.001" fill="#2E5B9A"/>
<path d="M492.39 213.791C497.874 218.792 495.549 223.872 491.595 233.28C487.64 242.689 487.188 277.324 487.188 277.324L490.511 276.818C490.511 276.818 489.765 241.233 494.19 231.573C498.616 221.912 500.488 217.102 504.538 220.196C508.589 223.289 492.39 213.791 492.39 213.791Z" fill="#74B570"/>
<path d="M489.348 207.262C489.99 204.256 493.887 200.993 499.136 198.199C498.382 202.627 495.933 209.857 498.536 211.31C502.053 213.271 498.807 203.227 500.13 197.676C505.048 195.186 510.968 193.15 516.44 192.112C516.441 192.13 516.423 192.148 516.423 192.166C513.403 200.128 509.4 203.286 511.073 204.48C512.323 205.376 516.332 196.18 521.653 191.432C525.678 191.187 529.097 191.711 531.122 193.311C534.258 195.79 536.376 197.993 533.301 205.637C531.525 206.947 529.203 207.907 526.509 208.194C519.407 208.979 516.082 209.236 521.09 211.611C523.533 212.764 527.62 211.489 530.923 210.717C529.871 212.732 528.558 215.016 526.967 217.621C525.964 219.263 524.854 220.71 523.673 221.945C521.383 222.407 519.387 222.423 518.316 221.97C514.978 220.557 506.416 216.043 504.295 217.996C502.226 219.894 520.129 220.943 518.922 225.748C510.295 230.877 500.349 228.558 498.545 223.919C496.134 217.705 487.421 216.3 489.348 207.262Z" fill="#9CD499"/>
<path d="M507.538 241.324C497.993 234.189 488.327 240.996 483.414 248.725C478.501 256.453 482.188 273.74 482.188 273.74C482.188 273.74 484.079 273.725 484.073 272.997C484.068 272.269 478.699 252.598 490.956 243.604C498.635 237.984 504.205 240.622 504.943 243.245C505.681 245.867 501.919 250.727 501.919 250.727L507.538 241.324Z" fill="#74B570"/>
<path d="M485.607 226.668C495.097 226.593 498.293 241.486 495.751 250.155C493.208 258.824 489.778 274.977 489.778 274.977L487.396 272.598C487.396 272.598 496.239 249.92 494.025 239.832C491.812 229.744 486.581 228.098 485.636 228.106C484.673 228.114 485.607 226.668 485.607 226.668Z" fill="#9CD499"/>
<path d="M493.756 250.241C494.414 249.348 495.231 248.596 496.243 248.09C496.109 248.802 495.956 249.496 495.769 250.154C494.608 254.106 493.267 259.604 492.149 264.426C492.039 263.805 491.874 262.865 491.6 261.394C491.545 261.057 491.49 260.666 491.452 260.276C492.355 257.072 493.204 253.584 493.756 250.241Z" fill="#74B570"/>
<path d="M496.348 250.292C514.305 242.46 504.734 231.969 520.668 238.823C521.792 239.311 523.167 240.526 524.546 242.237C523.131 242.657 521.417 242.955 519.524 242.685C514.774 241.995 516.467 245.835 524.3 246.733C525.772 246.899 526.982 247.138 527.965 247.485C531.75 254.719 533.505 264.26 525.634 267.643C524.081 268.312 522.175 268.7 520.023 268.859C517.574 266.925 520.516 255.536 516.781 257.128C513.186 258.666 517.976 266.851 517.344 268.934C513.79 268.891 509.846 268.336 506.074 267.424C504.58 266.584 503.433 265.456 503.071 263.967C501.842 258.933 509.644 255.746 509.856 251.411C510.036 247.431 507.052 260.189 498.89 262.118C491.475 258.678 487.954 253.946 496.348 250.292Z" fill="#9CD499"/>
<path d="M483.411 236.79C485.27 232.691 480.291 231.771 480.542 234.895C480.774 237.664 480.843 244.394 478.056 246.245C473.219 245.751 466.639 243.831 461.643 240.852C461.57 240.444 461.637 240.035 461.844 239.589C463.946 235.239 477.662 231.525 473.397 230.121C469.991 228.993 464.091 235.824 459.32 239.289C456.414 237.092 454.468 234.461 454.445 231.513C454.414 227.518 459.159 222.952 465.341 220.754C468.127 221.016 470.73 222.54 474.792 224.835C480.789 228.215 479.363 222.685 473.7 219.427C478.569 219.637 483.453 221.712 487.063 226.727C487.063 226.727 486.747 228.879 489.014 232.199C495.229 241.243 488.179 246.627 479.702 246.339C480.157 243.955 482.119 239.624 483.411 236.79Z" fill="#9CD499"/>
<path d="M506.975 240.919C511.643 244.523 516.823 248.727 523.166 251.554C529.508 254.399 528.32 263.803 528.32 263.803C528.32 263.803 529.203 255.68 523.912 252.933C518.62 250.205 515.111 246.911 511.114 246.303C507.117 245.696 504.889 245.074 504.889 245.074C504.889 245.074 506.13 242.507 505.387 241.536C504.644 240.565 506.975 240.919 506.975 240.919Z" fill="#74B570"/>
<path d="M529.494 198.065C512.564 202.799 500.218 213.907 497.909 216.589C495.619 219.271 495.625 220.035 495.625 220.035L497.437 223.448L498.274 223.016C498.274 223.016 496.886 220.132 500.429 216.374C506.56 209.879 514.032 204.723 519.18 202.445C524.344 200.13 529.494 198.065 529.494 198.065Z" fill="#74B570"/>
<path d="M489.869 293.641C494.474 293.605 498.191 289.793 498.155 285.104L498.039 269.992L474.858 270.175L474.974 285.287C475.01 289.958 478.769 293.729 483.391 293.692" fill="#75A1DE"/>
<path d="M498.077 272.691L474.896 272.875L474.909 274.526L498.09 274.343L498.077 272.691Z" fill="white"/>
<path d="M498.101 275.711L474.92 275.894L474.927 276.87L498.108 276.687L498.101 275.711Z" fill="white"/>
<path d="M60.5358 276.466L66.0689 276.421C67.2421 276.412 68.1804 275.446 68.1713 274.256L68.1364 269.639C68.1273 268.449 67.1745 267.498 66.0014 267.508L60.4683 267.552C59.2951 267.561 58.3569 268.528 58.3659 269.717L58.4009 274.334C58.4099 275.524 59.3627 276.475 60.5358 276.466Z" fill="#9EC8FF"/>
<path d="M42.7819 276.606L48.315 276.562C49.4882 276.552 50.4264 275.586 50.4174 274.396L50.3825 269.779C50.3734 268.59 49.4206 267.638 48.2475 267.648L42.7144 267.692C41.5412 267.701 40.603 268.668 40.612 269.858L40.647 274.474C40.6735 275.664 41.6263 276.615 42.7819 276.606Z" fill="#9EC8FF"/>
<path d="M25.0466 276.746L30.5797 276.702C31.7528 276.692 32.6911 275.726 32.6821 274.536L32.6471 269.919C32.6381 268.73 31.6853 267.778 30.5121 267.788L24.979 267.832C23.8059 267.842 22.8676 268.808 22.8766 269.998L22.9116 274.614C22.9206 275.804 23.8734 276.755 25.0466 276.746Z" fill="#9EC8FF"/>
<path d="M528.653 106.768L528.61 101.157C528.601 99.9671 527.648 99.0158 526.475 99.0252L521.922 99.0617C520.749 99.071 519.811 100.037 519.82 101.227L519.863 106.838C519.872 108.028 520.824 108.979 521.997 108.97L526.55 108.934C527.723 108.906 528.661 107.94 528.653 106.768Z" fill="#9EC8FF"/>
<path d="M528.791 124.758L528.749 119.147C528.74 117.957 527.787 117.006 526.614 117.015L522.061 117.051C520.888 117.061 519.95 118.027 519.959 119.217L520.001 124.828C520.01 126.018 520.963 126.969 522.136 126.96L526.689 126.923C527.862 126.914 528.8 125.948 528.791 124.758Z" fill="#9EC8FF"/>
<path d="M528.929 142.747L528.886 137.136C528.877 135.946 527.925 134.995 526.751 135.004L522.199 135.041C521.026 135.05 520.087 136.017 520.096 137.206L520.139 142.817C520.148 144.007 521.101 144.958 522.274 144.949L526.827 144.913C528 144.903 528.938 143.937 528.929 142.747Z" fill="#9EC8FF"/>
<defs>
<linearGradient id="paint0_linear_429_929" x1="253.702" y1="19.8323" x2="255.9" y2="298.172" gradientUnits="userSpaceOnUse">
<stop stop-color="#E7F3FE" stop-opacity="0"/>
<stop offset="1" stop-color="#4E48A5"/>
</linearGradient>
</defs>
</svg>
