<svg width="73" height="69" viewBox="0 0 73 69" fill="none" xmlns="http://www.w3.org/2000/svg">
<path d="M71.5019 11.109C71.303 10.695 71.0643 10.3155 70.7859 9.936C70.229 9.2115 69.4732 8.556 68.6378 8.073C68.2002 7.8315 67.7627 7.6245 67.2853 7.452C66.3306 7.107 65.2964 6.9 64.1825 6.9H60.2046V0H52.2488V6.9H20.4256V0H12.4698V6.9H8.49193C6.82122 6.9 5.30961 7.3485 4.03669 8.073C3.20133 8.556 2.44552 9.2115 1.88862 9.936C1.61017 10.3155 1.37149 10.695 1.1726 11.109C0.774807 11.937 0.536133 12.834 0.536133 13.8V62.1C0.536133 65.895 4.07646 69 8.49193 69H64.1825C65.2964 69 66.3306 68.793 67.2853 68.448C67.7627 68.2755 68.2002 68.0685 68.6378 67.827C69.4732 67.344 70.229 66.6885 70.7859 65.964C71.6212 64.86 72.1383 63.5145 72.1383 62.1V13.8C72.1383 12.834 71.8997 11.937 71.5019 11.109ZM8.49193 62.1V13.8H64.1825V62.1H8.49193Z" fill="white"/>
<path d="M35.3429 24.75C37.394 24.75 39.0722 26.4375 39.0722 28.5C39.0722 30.5625 37.394 32.25 35.3429 32.25C33.2918 32.25 31.6136 30.5625 31.6136 28.5C31.6136 26.4375 33.2918 24.75 35.3429 24.75ZM35.3429 43.5C40.3774 43.5 46.1578 45.9188 46.5308 47.25H24.1551C24.5839 45.9 30.327 43.5 35.3429 43.5ZM35.3429 21C31.2221 21 27.8843 24.3562 27.8843 28.5C27.8843 32.6438 31.2221 36 35.3429 36C39.4638 36 42.8015 32.6438 42.8015 28.5C42.8015 24.3562 39.4638 21 35.3429 21ZM35.3429 39.75C30.3643 39.75 20.4258 42.2625 20.4258 47.25V51H50.26V47.25C50.26 42.2625 40.3215 39.75 35.3429 39.75Z" fill="white"/>
</svg>
